<svg id="timeline_stress_many_periods_no_sections" width="100%" xmlns="http://www.w3.org/2000/svg" xmlns:xlink="http://www.w3.org/1999/xlink" style="max-width: 5390px; background-color: white;" viewBox="100 -61 5390 476.6000061035156" role="graphics-document document" aria-roledescription="timeline"><style>#timeline_stress_many_periods_no_sections{font-family:"trebuchet ms",verdana,arial,sans-serif;font-size:16px;fill:#333;}@keyframes edge-animation-frame{from{stroke-dashoffset:0;}}@keyframes dash{to{stroke-dashoffset:0;}}#timeline_stress_many_periods_no_sections .edge-animation-slow{stroke-dasharray:9,5!important;stroke-dashoffset:900;animation:dash 50s linear infinite;stroke-linecap:round;}#timeline_stress_many_periods_no_sections .edge-animation-fast{stroke-dasharray:9,5!important;stroke-dashoffset:900;animation:dash 20s linear infinite;stroke-linecap:round;}#timeline_stress_many_periods_no_sections .error-icon{fill:#552222;}#timeline_stress_many_periods_no_sections .error-text{fill:#552222;stroke:#552222;}#timeline_stress_many_periods_no_sections .edge-thickness-normal{stroke-width:1px;}#timeline_stress_many_periods_no_sections .edge-thickness-thick{stroke-width:3.5px;}#timeline_stress_many_periods_no_sections .edge-pattern-solid{stroke-dasharray:0;}#timeline_stress_many_periods_no_sections .edge-thickness-invisible{stroke-width:0;fill:none;}#timeline_stress_many_periods_no_sections .edge-pattern-dashed{stroke-dasharray:3;}#timeline_stress_many_periods_no_sections .edge-pattern-dotted{stroke-dasharray:2;}#timeline_stress_many_periods_no_sections .marker{fill:#333333;stroke:#333333;}#timeline_stress_many_periods_no_sections .marker.cross{stroke:#333333;}#timeline_stress_many_periods_no_sections svg{font-family:"trebuchet ms",verdana,arial,sans-serif;font-size:16px;}#timeline_stress_many_periods_no_sections p{margin:0;}#timeline_stress_many_periods_no_sections .edge{stroke-width:3;}#timeline_stress_many_periods_no_sections .section--1 rect,#timeline_stress_many_periods_no_sections .section--1 path,#timeline_stress_many_periods_no_sections .section--1 circle,#timeline_stress_many_periods_no_sections .section--1 path{fill:hsl(240, 100%, 76.2745098039%);}#timeline_stress_many_periods_no_sections .section--1 text{fill:#ffffff;}#timeline_stress_many_periods_no_sections .node-icon--1{font-size:40px;color:#ffffff;}#timeline_stress_many_periods_no_sections .section-edge--1{stroke:hsl(240, 100%, 76.2745098039%);}#timeline_stress_many_periods_no_sections .edge-depth--1{stroke-width:17;}#timeline_stress_many_periods_no_sections .section--1 line{stroke:hsl(60, 100%, 86.2745098039%);stroke-width:3;}#timeline_stress_many_periods_no_sections .lineWrapper line{stroke:#ffffff;}#timeline_stress_many_periods_no_sections .disabled,#timeline_stress_many_periods_no_sections .disabled circle,#timeline_stress_many_periods_no_sections .disabled text{fill:lightgray;}#timeline_stress_many_periods_no_sections .disabled text{fill:#efefef;}#timeline_stress_many_periods_no_sections .section-0 rect,#timeline_stress_many_periods_no_sections .section-0 path,#timeline_stress_many_periods_no_sections .section-0 circle,#timeline_stress_many_periods_no_sections .section-0 path{fill:hsl(60, 100%, 73.5294117647%);}#timeline_stress_many_periods_no_sections .section-0 text{fill:black;}#timeline_stress_many_periods_no_sections .node-icon-0{font-size:40px;color:black;}#timeline_stress_many_periods_no_sections .section-edge-0{stroke:hsl(60, 100%, 73.5294117647%);}#timeline_stress_many_periods_no_sections .edge-depth-0{stroke-width:14;}#timeline_stress_many_periods_no_sections .section-0 line{stroke:hsl(240, 100%, 83.5294117647%);stroke-width:3;}#timeline_stress_many_periods_no_sections .lineWrapper line{stroke:black;}#timeline_stress_many_periods_no_sections .disabled,#timeline_stress_many_periods_no_sections .disabled circle,#timeline_stress_many_periods_no_sections .disabled text{fill:lightgray;}#timeline_stress_many_periods_no_sections .disabled text{fill:#efefef;}#timeline_stress_many_periods_no_sections .section-1 rect,#timeline_stress_many_periods_no_sections .section-1 path,#timeline_stress_many_periods_no_sections .section-1 circle,#timeline_stress_many_periods_no_sections .section-1 path{fill:hsl(80, 100%, 76.2745098039%);}#timeline_stress_many_periods_no_sections .section-1 text{fill:black;}#timeline_stress_many_periods_no_sections .node-icon-1{font-size:40px;color:black;}#timeline_stress_many_periods_no_sections .section-edge-1{stroke:hsl(80, 100%, 76.2745098039%);}#timeline_stress_many_periods_no_sections .edge-depth-1{stroke-width:11;}#timeline_stress_many_periods_no_sections .section-1 line{stroke:hsl(260, 100%, 86.2745098039%);stroke-width:3;}#timeline_stress_many_periods_no_sections .lineWrapper line{stroke:black;}#timeline_stress_many_periods_no_sections .disabled,#timeline_stress_many_periods_no_sections .disabled circle,#timeline_stress_many_periods_no_sections .disabled text{fill:lightgray;}#timeline_stress_many_periods_no_sections .disabled text{fill:#efefef;}#timeline_stress_many_periods_no_sections .section-2 rect,#timeline_stress_many_periods_no_sections .section-2 path,#timeline_stress_many_periods_no_sections .section-2 circle,#timeline_stress_many_periods_no_sections .section-2 path{fill:hsl(270, 100%, 76.2745098039%);}#timeline_stress_many_periods_no_sections .section-2 text{fill:#ffffff;}#timeline_stress_many_periods_no_sections .node-icon-2{font-size:40px;color:#ffffff;}#timeline_stress_many_periods_no_sections .section-edge-2{stroke:hsl(270, 100%, 76.2745098039%);}#timeline_stress_many_periods_no_sections .edge-depth-2{stroke-width:8;}#timeline_stress_many_periods_no_sections .section-2 line{stroke:hsl(90, 100%, 86.2745098039%);stroke-width:3;}#timeline_stress_many_periods_no_sections .lineWrapper line{stroke:#ffffff;}#timeline_stress_many_periods_no_sections .disabled,#timeline_stress_many_periods_no_sections .disabled circle,#timeline_stress_many_periods_no_sections .disabled text{fill:lightgray;}#timeline_stress_many_periods_no_sections .disabled text{fill:#efefef;}#timeline_stress_many_periods_no_sections .section-3 rect,#timeline_stress_many_periods_no_sections .section-3 path,#timeline_stress_many_periods_no_sections .section-3 circle,#timeline_stress_many_periods_no_sections .section-3 path{fill:hsl(300, 100%, 76.2745098039%);}#timeline_stress_many_periods_no_sections .section-3 text{fill:black;}#timeline_stress_many_periods_no_sections .node-icon-3{font-size:40px;color:black;}#timeline_stress_many_periods_no_sections .section-edge-3{stroke:hsl(300, 100%, 76.2745098039%);}#timeline_stress_many_periods_no_sections .edge-depth-3{stroke-width:5;}#timeline_stress_many_periods_no_sections .section-3 line{stroke:hsl(120, 100%, 86.2745098039%);stroke-width:3;}#timeline_stress_many_periods_no_sections .lineWrapper line{stroke:black;}#timeline_stress_many_periods_no_sections .disabled,#timeline_stress_many_periods_no_sections .disabled circle,#timeline_stress_many_periods_no_sections .disabled text{fill:lightgray;}#timeline_stress_many_periods_no_sections .disabled text{fill:#efefef;}#timeline_stress_many_periods_no_sections .section-4 rect,#timeline_stress_many_periods_no_sections .section-4 path,#timeline_stress_many_periods_no_sections .section-4 circle,#timeline_stress_many_periods_no_sections .section-4 path{fill:hsl(330, 100%, 76.2745098039%);}#timeline_stress_many_periods_no_sections .section-4 text{fill:black;}#timeline_stress_many_periods_no_sections .node-icon-4{font-size:40px;color:black;}#timeline_stress_many_periods_no_sections .section-edge-4{stroke:hsl(330, 100%, 76.2745098039%);}#timeline_stress_many_periods_no_sections .edge-depth-4{stroke-width:2;}#timeline_stress_many_periods_no_sections .section-4 line{stroke:hsl(150, 100%, 86.2745098039%);stroke-width:3;}#timeline_stress_many_periods_no_sections .lineWrapper line{stroke:black;}#timeline_stress_many_periods_no_sections .disabled,#timeline_stress_many_periods_no_sections .disabled circle,#timeline_stress_many_periods_no_sections .disabled text{fill:lightgray;}#timeline_stress_many_periods_no_sections .disabled text{fill:#efefef;}#timeline_stress_many_periods_no_sections .section-5 rect,#timeline_stress_many_periods_no_sections .section-5 path,#timeline_stress_many_periods_no_sections .section-5 circle,#timeline_stress_many_periods_no_sections .section-5 path{fill:hsl(0, 100%, 76.2745098039%);}#timeline_stress_many_periods_no_sections .section-5 text{fill:black;}#timeline_stress_many_periods_no_sections .node-icon-5{font-size:40px;color:black;}#timeline_stress_many_periods_no_sections .section-edge-5{stroke:hsl(0, 100%, 76.2745098039%);}#timeline_stress_many_periods_no_sections .edge-depth-5{stroke-width:-1;}#timeline_stress_many_periods_no_sections .section-5 line{stroke:hsl(180, 100%, 86.2745098039%);stroke-width:3;}#timeline_stress_many_periods_no_sections .lineWrapper line{stroke:black;}#timeline_stress_many_periods_no_sections .disabled,#timeline_stress_many_periods_no_sections .disabled circle,#timeline_stress_many_periods_no_sections .disabled text{fill:lightgray;}#timeline_stress_many_periods_no_sections .disabled text{fill:#efefef;}#timeline_stress_many_periods_no_sections .section-6 rect,#timeline_stress_many_periods_no_sections .section-6 path,#timeline_stress_many_periods_no_sections .section-6 circle,#timeline_stress_many_periods_no_sections .section-6 path{fill:hsl(30, 100%, 76.2745098039%);}#timeline_stress_many_periods_no_sections .section-6 text{fill:black;}#timeline_stress_many_periods_no_sections .node-icon-6{font-size:40px;color:black;}#timeline_stress_many_periods_no_sections .section-edge-6{stroke:hsl(30, 100%, 76.2745098039%);}#timeline_stress_many_periods_no_sections .edge-depth-6{stroke-width:-4;}#timeline_stress_many_periods_no_sections .section-6 line{stroke:hsl(210, 100%, 86.2745098039%);stroke-width:3;}#timeline_stress_many_periods_no_sections .lineWrapper line{stroke:black;}#timeline_stress_many_periods_no_sections .disabled,#timeline_stress_many_periods_no_sections .disabled circle,#timeline_stress_many_periods_no_sections .disabled text{fill:lightgray;}#timeline_stress_many_periods_no_sections .disabled text{fill:#efefef;}#timeline_stress_many_periods_no_sections .section-7 rect,#timeline_stress_many_periods_no_sections .section-7 path,#timeline_stress_many_periods_no_sections .section-7 circle,#timeline_stress_many_periods_no_sections .section-7 path{fill:hsl(90, 100%, 76.2745098039%);}#timeline_stress_many_periods_no_sections .section-7 text{fill:black;}#timeline_stress_many_periods_no_sections .node-icon-7{font-size:40px;color:black;}#timeline_stress_many_periods_no_sections .section-edge-7{stroke:hsl(90, 100%, 76.2745098039%);}#timeline_stress_many_periods_no_sections .edge-depth-7{stroke-width:-7;}#timeline_stress_many_periods_no_sections .section-7 line{stroke:hsl(270, 100%, 86.2745098039%);stroke-width:3;}#timeline_stress_many_periods_no_sections .lineWrapper line{stroke:black;}#timeline_stress_many_periods_no_sections .disabled,#timeline_stress_many_periods_no_sections .disabled circle,#timeline_stress_many_periods_no_sections .disabled text{fill:lightgray;}#timeline_stress_many_periods_no_sections .disabled text{fill:#efefef;}#timeline_stress_many_periods_no_sections .section-8 rect,#timeline_stress_many_periods_no_sections .section-8 path,#timeline_stress_many_periods_no_sections .section-8 circle,#timeline_stress_many_periods_no_sections .section-8 path{fill:hsl(150, 100%, 76.2745098039%);}#timeline_stress_many_periods_no_sections .section-8 text{fill:black;}#timeline_stress_many_periods_no_sections .node-icon-8{font-size:40px;color:black;}#timeline_stress_many_periods_no_sections .section-edge-8{stroke:hsl(150, 100%, 76.2745098039%);}#timeline_stress_many_periods_no_sections .edge-depth-8{stroke-width:-10;}#timeline_stress_many_periods_no_sections .section-8 line{stroke:hsl(330, 100%, 86.2745098039%);stroke-width:3;}#timeline_stress_many_periods_no_sections .lineWrapper line{stroke:black;}#timeline_stress_many_periods_no_sections .disabled,#timeline_stress_many_periods_no_sections .disabled circle,#timeline_stress_many_periods_no_sections .disabled text{fill:lightgray;}#timeline_stress_many_periods_no_sections .disabled text{fill:#efefef;}#timeline_stress_many_periods_no_sections .section-9 rect,#timeline_stress_many_periods_no_sections .section-9 path,#timeline_stress_many_periods_no_sections .section-9 circle,#timeline_stress_many_periods_no_sections .section-9 path{fill:hsl(180, 100%, 76.2745098039%);}#timeline_stress_many_periods_no_sections .section-9 text{fill:black;}#timeline_stress_many_periods_no_sections .node-icon-9{font-size:40px;color:black;}#timeline_stress_many_periods_no_sections .section-edge-9{stroke:hsl(180, 100%, 76.2745098039%);}#timeline_stress_many_periods_no_sections .edge-depth-9{stroke-width:-13;}#timeline_stress_many_periods_no_sections .section-9 line{stroke:hsl(0, 100%, 86.2745098039%);stroke-width:3;}#timeline_stress_many_periods_no_sections .lineWrapper line{stroke:black;}#timeline_stress_many_periods_no_sections .disabled,#timeline_stress_many_periods_no_sections .disabled circle,#timeline_stress_many_periods_no_sections .disabled text{fill:lightgray;}#timeline_stress_many_periods_no_sections .disabled text{fill:#efefef;}#timeline_stress_many_periods_no_sections .section-10 rect,#timeline_stress_many_periods_no_sections .section-10 path,#timeline_stress_many_periods_no_sections .section-10 circle,#timeline_stress_many_periods_no_sections .section-10 path{fill:hsl(210, 100%, 76.2745098039%);}#timeline_stress_many_periods_no_sections .section-10 text{fill:black;}#timeline_stress_many_periods_no_sections .node-icon-10{font-size:40px;color:black;}#timeline_stress_many_periods_no_sections .section-edge-10{stroke:hsl(210, 100%, 76.2745098039%);}#timeline_stress_many_periods_no_sections .edge-depth-10{stroke-width:-16;}#timeline_stress_many_periods_no_sections .section-10 line{stroke:hsl(30, 100%, 86.2745098039%);stroke-width:3;}#timeline_stress_many_periods_no_sections .lineWrapper line{stroke:black;}#timeline_stress_many_periods_no_sections .disabled,#timeline_stress_many_periods_no_sections .disabled circle,#timeline_stress_many_periods_no_sections .disabled text{fill:lightgray;}#timeline_stress_many_periods_no_sections .disabled text{fill:#efefef;}#timeline_stress_many_periods_no_sections .section-root rect,#timeline_stress_many_periods_no_sections .section-root path,#timeline_stress_many_periods_no_sections .section-root circle{fill:hsl(240, 100%, 46.2745098039%);}#timeline_stress_many_periods_no_sections .section-root text{fill:#ffffff;}#timeline_stress_many_periods_no_sections .icon-container{height:100%;display:flex;justify-content:center;align-items:center;}#timeline_stress_many_periods_no_sections .edge{fill:none;}#timeline_stress_many_periods_no_sections .eventWrapper{filter:brightness(120%);}#timeline_stress_many_periods_no_sections :root{--mermaid-font-family:"trebuchet ms",verdana,arial,sans-serif;}</style><g/><g/><defs><marker id="arrowhead" refX="5" refY="2" markerWidth="6" markerHeight="4" orient="auto"><path d="M 0,0 V 4 L6,2 Z"/></marker></defs><g class="taskWrapper" transform="translate(200, 50)"><g class="timeline-node section--1"><g><path id="node-undefined" class="node-bkg node-undefined" d="M0 62.8 v-57.8 q0,-5 5,-5 h180 q5,0 5,5 v62.8 H0 Z"/><line class="node-line--1" x1="0" y1="67.8" x2="190" y2="67.8"/></g><g transform="translate(95, 10)"><text dy="1em" alignment-baseline="middle" dominant-baseline="middle" text-anchor="middle"><tspan x="0" dy="1em">1990</tspan></text></g></g></g><g class="lineWrapper"><line x1="295" y1="117.8" x2="295" y2="365.6" stroke-width="2" stroke="black" marker-end="url(#arrowhead)" stroke-dasharray="5,5"/></g><g class="eventWrapper" transform="translate(200, 250)"><g class="timeline-node section--1"><g><path id="node-undefined" class="node-bkg node-undefined" d="M0 45 v-40 q0,-5 5,-5 h180 q5,0 5,5 v45 H0 Z"/><line class="node-line--1" x1="0" y1="50" x2="190" y2="50"/></g><g transform="translate(95, 10)"><text dy="1em" alignment-baseline="middle" dominant-baseline="middle" text-anchor="middle"><tspan x="0" dy="1em">Event   01</tspan></text></g></g></g><g class="taskWrapper" transform="translate(400, 50)"><g class="timeline-node section-0"><g><path id="node-undefined" class="node-bkg node-undefined" d="M0 62.8 v-57.8 q0,-5 5,-5 h180 q5,0 5,5 v62.8 H0 Z"/><line class="node-line-0" x1="0" y1="67.8" x2="190" y2="67.8"/></g><g transform="translate(95, 10)"><text dy="1em" alignment-baseline="middle" dominant-baseline="middle" text-anchor="middle"><tspan x="0" dy="1em">1991</tspan></text></g></g></g><g class="lineWrapper"><line x1="495" y1="117.8" x2="495" y2="365.6" stroke-width="2" stroke="black" marker-end="url(#arrowhead)" stroke-dasharray="5,5"/></g><g class="eventWrapper" transform="translate(400, 250)"><g class="timeline-node section-0"><g><path id="node-undefined" class="node-bkg node-undefined" d="M0 45 v-40 q0,-5 5,-5 h180 q5,0 5,5 v45 H0 Z"/><line class="node-line-0" x1="0" y1="50" x2="190" y2="50"/></g><g transform="translate(95, 10)"><text dy="1em" alignment-baseline="middle" dominant-baseline="middle" text-anchor="middle"><tspan x="0" dy="1em">Event   02</tspan></text></g></g></g><g class="taskWrapper" transform="translate(600, 50)"><g class="timeline-node section-1"><g><path id="node-undefined" class="node-bkg node-undefined" d="M0 62.8 v-57.8 q0,-5 5,-5 h180 q5,0 5,5 v62.8 H0 Z"/><line class="node-line-1" x1="0" y1="67.8" x2="190" y2="67.8"/></g><g transform="translate(95, 10)"><text dy="1em" alignment-baseline="middle" dominant-baseline="middle" text-anchor="middle"><tspan x="0" dy="1em">1992</tspan></text></g></g></g><g class="lineWrapper"><line x1="695" y1="117.8" x2="695" y2="365.6" stroke-width="2" stroke="black" marker-end="url(#arrowhead)" stroke-dasharray="5,5"/></g><g class="eventWrapper" transform="translate(600, 250)"><g class="timeline-node section-1"><g><path id="node-undefined" class="node-bkg node-undefined" d="M0 45 v-40 q0,-5 5,-5 h180 q5,0 5,5 v45 H0 Z"/><line class="node-line-1" x1="0" y1="50" x2="190" y2="50"/></g><g transform="translate(95, 10)"><text dy="1em" alignment-baseline="middle" dominant-baseline="middle" text-anchor="middle"><tspan x="0" dy="1em">Event   03</tspan></text></g></g></g><g class="taskWrapper" transform="translate(800, 50)"><g class="timeline-node section-2"><g><path id="node-undefined" class="node-bkg node-undefined" d="M0 62.8 v-57.8 q0,-5 5,-5 h180 q5,0 5,5 v62.8 H0 Z"/><line class="node-line-2" x1="0" y1="67.8" x2="190" y2="67.8"/></g><g transform="translate(95, 10)"><text dy="1em" alignment-baseline="middle" dominant-baseline="middle" text-anchor="middle"><tspan x="0" dy="1em">1993</tspan></text></g></g></g><g class="lineWrapper"><line x1="895" y1="117.8" x2="895" y2="365.6" stroke-width="2" stroke="black" marker-end="url(#arrowhead)" stroke-dasharray="5,5"/></g><g class="eventWrapper" transform="translate(800, 250)"><g class="timeline-node section-2"><g><path id="node-undefined" class="node-bkg node-undefined" d="M0 45 v-40 q0,-5 5,-5 h180 q5,0 5,5 v45 H0 Z"/><line class="node-line-2" x1="0" y1="50" x2="190" y2="50"/></g><g transform="translate(95, 10)"><text dy="1em" alignment-baseline="middle" dominant-baseline="middle" text-anchor="middle"><tspan x="0" dy="1em">Event   04</tspan></text></g></g></g><g class="taskWrapper" transform="translate(1000, 50)"><g class="timeline-node section-3"><g><path id="node-undefined" class="node-bkg node-undefined" d="M0 62.8 v-57.8 q0,-5 5,-5 h180 q5,0 5,5 v62.8 H0 Z"/><line class="node-line-3" x1="0" y1="67.8" x2="190" y2="67.8"/></g><g transform="translate(95, 10)"><text dy="1em" alignment-baseline="middle" dominant-baseline="middle" text-anchor="middle"><tspan x="0" dy="1em">1994</tspan></text></g></g></g><g class="lineWrapper"><line x1="1095" y1="117.8" x2="1095" y2="365.6" stroke-width="2" stroke="black" marker-end="url(#arrowhead)" stroke-dasharray="5,5"/></g><g class="eventWrapper" transform="translate(1000, 250)"><g class="timeline-node section-3"><g><path id="node-undefined" class="node-bkg node-undefined" d="M0 45 v-40 q0,-5 5,-5 h180 q5,0 5,5 v45 H0 Z"/><line class="node-line-3" x1="0" y1="50" x2="190" y2="50"/></g><g transform="translate(95, 10)"><text dy="1em" alignment-baseline="middle" dominant-baseline="middle" text-anchor="middle"><tspan x="0" dy="1em">Event   05</tspan></text></g></g></g><g class="taskWrapper" transform="translate(1200, 50)"><g class="timeline-node section-4"><g><path id="node-undefined" class="node-bkg node-undefined" d="M0 62.8 v-57.8 q0,-5 5,-5 h180 q5,0 5,5 v62.8 H0 Z"/><line class="node-line-4" x1="0" y1="67.8" x2="190" y2="67.8"/></g><g transform="translate(95, 10)"><text dy="1em" alignment-baseline="middle" dominant-baseline="middle" text-anchor="middle"><tspan x="0" dy="1em">1995</tspan></text></g></g></g><g class="lineWrapper"><line x1="1295" y1="117.8" x2="1295" y2="365.6" stroke-width="2" stroke="black" marker-end="url(#arrowhead)" stroke-dasharray="5,5"/></g><g class="eventWrapper" transform="translate(1200, 250)"><g class="timeline-node section-4"><g><path id="node-undefined" class="node-bkg node-undefined" d="M0 45 v-40 q0,-5 5,-5 h180 q5,0 5,5 v45 H0 Z"/><line class="node-line-4" x1="0" y1="50" x2="190" y2="50"/></g><g transform="translate(95, 10)"><text dy="1em" alignment-baseline="middle" dominant-baseline="middle" text-anchor="middle"><tspan x="0" dy="1em">Event   06</tspan></text></g></g></g><g class="taskWrapper" transform="translate(1400, 50)"><g class="timeline-node section-5"><g><path id="node-undefined" class="node-bkg node-undefined" d="M0 62.8 v-57.8 q0,-5 5,-5 h180 q5,0 5,5 v62.8 H0 Z"/><line class="node-line-5" x1="0" y1="67.8" x2="190" y2="67.8"/></g><g transform="translate(95, 10)"><text dy="1em" alignment-baseline="middle" dominant-baseline="middle" text-anchor="middle"><tspan x="0" dy="1em">1996</tspan></text></g></g></g><g class="lineWrapper"><line x1="1495" y1="117.8" x2="1495" y2="365.6" stroke-width="2" stroke="black" marker-end="url(#arrowhead)" stroke-dasharray="5,5"/></g><g class="eventWrapper" transform="translate(1400, 250)"><g class="timeline-node section-5"><g><path id="node-undefined" class="node-bkg node-undefined" d="M0 45 v-40 q0,-5 5,-5 h180 q5,0 5,5 v45 H0 Z"/><line class="node-line-5" x1="0" y1="50" x2="190" y2="50"/></g><g transform="translate(95, 10)"><text dy="1em" alignment-baseline="middle" dominant-baseline="middle" text-anchor="middle"><tspan x="0" dy="1em">Event   07</tspan></text></g></g></g><g class="taskWrapper" transform="translate(1600, 50)"><g class="timeline-node section-6"><g><path id="node-undefined" class="node-bkg node-undefined" d="M0 62.8 v-57.8 q0,-5 5,-5 h180 q5,0 5,5 v62.8 H0 Z"/><line class="node-line-6" x1="0" y1="67.8" x2="190" y2="67.8"/></g><g transform="translate(95, 10)"><text dy="1em" alignment-baseline="middle" dominant-baseline="middle" text-anchor="middle"><tspan x="0" dy="1em">1997</tspan></text></g></g></g><g class="lineWrapper"><line x1="1695" y1="117.8" x2="1695" y2="365.6" stroke-width="2" stroke="black" marker-end="url(#arrowhead)" stroke-dasharray="5,5"/></g><g class="eventWrapper" transform="translate(1600, 250)"><g class="timeline-node section-6"><g><path id="node-undefined" class="node-bkg node-undefined" d="M0 45 v-40 q0,-5 5,-5 h180 q5,0 5,5 v45 H0 Z"/><line class="node-line-6" x1="0" y1="50" x2="190" y2="50"/></g><g transform="translate(95, 10)"><text dy="1em" alignment-baseline="middle" dominant-baseline="middle" text-anchor="middle"><tspan x="0" dy="1em">Event   08</tspan></text></g></g></g><g class="taskWrapper" transform="translate(1800, 50)"><g class="timeline-node section-7"><g><path id="node-undefined" class="node-bkg node-undefined" d="M0 62.8 v-57.8 q0,-5 5,-5 h180 q5,0 5,5 v62.8 H0 Z"/><line class="node-line-7" x1="0" y1="67.8" x2="190" y2="67.8"/></g><g transform="translate(95, 10)"><text dy="1em" alignment-baseline="middle" dominant-baseline="middle" text-anchor="middle"><tspan x="0" dy="1em">1998</tspan></text></g></g></g><g class="lineWrapper"><line x1="1895" y1="117.8" x2="1895" y2="365.6" stroke-width="2" stroke="black" marker-end="url(#arrowhead)" stroke-dasharray="5,5"/></g><g class="eventWrapper" transform="translate(1800, 250)"><g class="timeline-node section-7"><g><path id="node-undefined" class="node-bkg node-undefined" d="M0 45 v-40 q0,-5 5,-5 h180 q5,0 5,5 v45 H0 Z"/><line class="node-line-7" x1="0" y1="50" x2="190" y2="50"/></g><g transform="translate(95, 10)"><text dy="1em" alignment-baseline="middle" dominant-baseline="middle" text-anchor="middle"><tspan x="0" dy="1em">Event   09</tspan></text></g></g></g><g class="taskWrapper" transform="translate(2000, 50)"><g class="timeline-node section-8"><g><path id="node-undefined" class="node-bkg node-undefined" d="M0 62.8 v-57.8 q0,-5 5,-5 h180 q5,0 5,5 v62.8 H0 Z"/><line class="node-line-8" x1="0" y1="67.8" x2="190" y2="67.8"/></g><g transform="translate(95, 10)"><text dy="1em" alignment-baseline="middle" dominant-baseline="middle" text-anchor="middle"><tspan x="0" dy="1em">1999</tspan></text></g></g></g><g class="lineWrapper"><line x1="2095" y1="117.8" x2="2095" y2="365.6" stroke-width="2" stroke="black" marker-end="url(#arrowhead)" stroke-dasharray="5,5"/></g><g class="eventWrapper" transform="translate(2000, 250)"><g class="timeline-node section-8"><g><path id="node-undefined" class="node-bkg node-undefined" d="M0 45 v-40 q0,-5 5,-5 h180 q5,0 5,5 v45 H0 Z"/><line class="node-line-8" x1="0" y1="50" x2="190" y2="50"/></g><g transform="translate(95, 10)"><text dy="1em" alignment-baseline="middle" dominant-baseline="middle" text-anchor="middle"><tspan x="0" dy="1em">Event   10</tspan></text></g></g></g><g class="taskWrapper" transform="translate(2200, 50)"><g class="timeline-node section-9"><g><path id="node-undefined" class="node-bkg node-undefined" d="M0 62.8 v-57.8 q0,-5 5,-5 h180 q5,0 5,5 v62.8 H0 Z"/><line class="node-line-9" x1="0" y1="67.8" x2="190" y2="67.8"/></g><g transform="translate(95, 10)"><text dy="1em" alignment-baseline="middle" dominant-baseline="middle" text-anchor="middle"><tspan x="0" dy="1em">2000</tspan></text></g></g></g><g class="lineWrapper"><line x1="2295" y1="117.8" x2="2295" y2="365.6" stroke-width="2" stroke="black" marker-end="url(#arrowhead)" stroke-dasharray="5,5"/></g><g class="eventWrapper" transform="translate(2200, 250)"><g class="timeline-node section-9"><g><path id="node-undefined" class="node-bkg node-undefined" d="M0 45 v-40 q0,-5 5,-5 h180 q5,0 5,5 v45 H0 Z"/><line class="node-line-9" x1="0" y1="50" x2="190" y2="50"/></g><g transform="translate(95, 10)"><text dy="1em" alignment-baseline="middle" dominant-baseline="middle" text-anchor="middle"><tspan x="0" dy="1em">Event   11</tspan></text></g></g></g><g class="taskWrapper" transform="translate(2400, 50)"><g class="timeline-node section-10"><g><path id="node-undefined" class="node-bkg node-undefined" d="M0 62.8 v-57.8 q0,-5 5,-5 h180 q5,0 5,5 v62.8 H0 Z"/><line class="node-line-10" x1="0" y1="67.8" x2="190" y2="67.8"/></g><g transform="translate(95, 10)"><text dy="1em" alignment-baseline="middle" dominant-baseline="middle" text-anchor="middle"><tspan x="0" dy="1em">2001</tspan></text></g></g></g><g class="lineWrapper"><line x1="2495" y1="117.8" x2="2495" y2="365.6" stroke-width="2" stroke="black" marker-end="url(#arrowhead)" stroke-dasharray="5,5"/></g><g class="eventWrapper" transform="translate(2400, 250)"><g class="timeline-node section-10"><g><path id="node-undefined" class="node-bkg node-undefined" d="M0 45 v-40 q0,-5 5,-5 h180 q5,0 5,5 v45 H0 Z"/><line class="node-line-10" x1="0" y1="50" x2="190" y2="50"/></g><g transform="translate(95, 10)"><text dy="1em" alignment-baseline="middle" dominant-baseline="middle" text-anchor="middle"><tspan x="0" dy="1em">Event   12</tspan></text></g></g></g><g class="taskWrapper" transform="translate(2600, 50)"><g class="timeline-node section--1"><g><path id="node-undefined" class="node-bkg node-undefined" d="M0 62.8 v-57.8 q0,-5 5,-5 h180 q5,0 5,5 v62.8 H0 Z"/><line class="node-line--1" x1="0" y1="67.8" x2="190" y2="67.8"/></g><g transform="translate(95, 10)"><text dy="1em" alignment-baseline="middle" dominant-baseline="middle" text-anchor="middle"><tspan x="0" dy="1em">2002</tspan></text></g></g></g><g class="lineWrapper"><line x1="2695" y1="117.8" x2="2695" y2="365.6" stroke-width="2" stroke="black" marker-end="url(#arrowhead)" stroke-dasharray="5,5"/></g><g class="eventWrapper" transform="translate(2600, 250)"><g class="timeline-node section--1"><g><path id="node-undefined" class="node-bkg node-undefined" d="M0 45 v-40 q0,-5 5,-5 h180 q5,0 5,5 v45 H0 Z"/><line class="node-line--1" x1="0" y1="50" x2="190" y2="50"/></g><g transform="translate(95, 10)"><text dy="1em" alignment-baseline="middle" dominant-baseline="middle" text-anchor="middle"><tspan x="0" dy="1em">Event   13</tspan></text></g></g></g><g class="taskWrapper" transform="translate(2800, 50)"><g class="timeline-node section-0"><g><path id="node-undefined" class="node-bkg node-undefined" d="M0 62.8 v-57.8 q0,-5 5,-5 h180 q5,0 5,5 v62.8 H0 Z"/><line class="node-line-0" x1="0" y1="67.8" x2="190" y2="67.8"/></g><g transform="translate(95, 10)"><text dy="1em" alignment-baseline="middle" dominant-baseline="middle" text-anchor="middle"><tspan x="0" dy="1em">2003</tspan></text></g></g></g><g class="lineWrapper"><line x1="2895" y1="117.8" x2="2895" y2="365.6" stroke-width="2" stroke="black" marker-end="url(#arrowhead)" stroke-dasharray="5,5"/></g><g class="eventWrapper" transform="translate(2800, 250)"><g class="timeline-node section-0"><g><path id="node-undefined" class="node-bkg node-undefined" d="M0 45 v-40 q0,-5 5,-5 h180 q5,0 5,5 v45 H0 Z"/><line class="node-line-0" x1="0" y1="50" x2="190" y2="50"/></g><g transform="translate(95, 10)"><text dy="1em" alignment-baseline="middle" dominant-baseline="middle" text-anchor="middle"><tspan x="0" dy="1em">Event   14</tspan></text></g></g></g><g class="taskWrapper" transform="translate(3000, 50)"><g class="timeline-node section-1"><g><path id="node-undefined" class="node-bkg node-undefined" d="M0 62.8 v-57.8 q0,-5 5,-5 h180 q5,0 5,5 v62.8 H0 Z"/><line class="node-line-1" x1="0" y1="67.8" x2="190" y2="67.8"/></g><g transform="translate(95, 10)"><text dy="1em" alignment-baseline="middle" dominant-baseline="middle" text-anchor="middle"><tspan x="0" dy="1em">2004</tspan></text></g></g></g><g class="lineWrapper"><line x1="3095" y1="117.8" x2="3095" y2="365.6" stroke-width="2" stroke="black" marker-end="url(#arrowhead)" stroke-dasharray="5,5"/></g><g class="eventWrapper" transform="translate(3000, 250)"><g class="timeline-node section-1"><g><path id="node-undefined" class="node-bkg node-undefined" d="M0 45 v-40 q0,-5 5,-5 h180 q5,0 5,5 v45 H0 Z"/><line class="node-line-1" x1="0" y1="50" x2="190" y2="50"/></g><g transform="translate(95, 10)"><text dy="1em" alignment-baseline="middle" dominant-baseline="middle" text-anchor="middle"><tspan x="0" dy="1em">Event   15</tspan></text></g></g></g><g class="taskWrapper" transform="translate(3200, 50)"><g class="timeline-node section-2"><g><path id="node-undefined" class="node-bkg node-undefined" d="M0 62.8 v-57.8 q0,-5 5,-5 h180 q5,0 5,5 v62.8 H0 Z"/><line class="node-line-2" x1="0" y1="67.8" x2="190" y2="67.8"/></g><g transform="translate(95, 10)"><text dy="1em" alignment-baseline="middle" dominant-baseline="middle" text-anchor="middle"><tspan x="0" dy="1em">2005</tspan></text></g></g></g><g class="lineWrapper"><line x1="3295" y1="117.8" x2="3295" y2="365.6" stroke-width="2" stroke="black" marker-end="url(#arrowhead)" stroke-dasharray="5,5"/></g><g class="eventWrapper" transform="translate(3200, 250)"><g class="timeline-node section-2"><g><path id="node-undefined" class="node-bkg node-undefined" d="M0 45 v-40 q0,-5 5,-5 h180 q5,0 5,5 v45 H0 Z"/><line class="node-line-2" x1="0" y1="50" x2="190" y2="50"/></g><g transform="translate(95, 10)"><text dy="1em" alignment-baseline="middle" dominant-baseline="middle" text-anchor="middle"><tspan x="0" dy="1em">Event   16</tspan></text></g></g></g><g class="taskWrapper" transform="translate(3400, 50)"><g class="timeline-node section-3"><g><path id="node-undefined" class="node-bkg node-undefined" d="M0 62.8 v-57.8 q0,-5 5,-5 h180 q5,0 5,5 v62.8 H0 Z"/><line class="node-line-3" x1="0" y1="67.8" x2="190" y2="67.8"/></g><g transform="translate(95, 10)"><text dy="1em" alignment-baseline="middle" dominant-baseline="middle" text-anchor="middle"><tspan x="0" dy="1em">2006</tspan></text></g></g></g><g class="lineWrapper"><line x1="3495" y1="117.8" x2="3495" y2="365.6" stroke-width="2" stroke="black" marker-end="url(#arrowhead)" stroke-dasharray="5,5"/></g><g class="eventWrapper" transform="translate(3400, 250)"><g class="timeline-node section-3"><g><path id="node-undefined" class="node-bkg node-undefined" d="M0 45 v-40 q0,-5 5,-5 h180 q5,0 5,5 v45 H0 Z"/><line class="node-line-3" x1="0" y1="50" x2="190" y2="50"/></g><g transform="translate(95, 10)"><text dy="1em" alignment-baseline="middle" dominant-baseline="middle" text-anchor="middle"><tspan x="0" dy="1em">Event   17</tspan></text></g></g></g><g class="taskWrapper" transform="translate(3600, 50)"><g class="timeline-node section-4"><g><path id="node-undefined" class="node-bkg node-undefined" d="M0 62.8 v-57.8 q0,-5 5,-5 h180 q5,0 5,5 v62.8 H0 Z"/><line class="node-line-4" x1="0" y1="67.8" x2="190" y2="67.8"/></g><g transform="translate(95, 10)"><text dy="1em" alignment-baseline="middle" dominant-baseline="middle" text-anchor="middle"><tspan x="0" dy="1em">2007</tspan></text></g></g></g><g class="lineWrapper"><line x1="3695" y1="117.8" x2="3695" y2="365.6" stroke-width="2" stroke="black" marker-end="url(#arrowhead)" stroke-dasharray="5,5"/></g><g class="eventWrapper" transform="translate(3600, 250)"><g class="timeline-node section-4"><g><path id="node-undefined" class="node-bkg node-undefined" d="M0 45 v-40 q0,-5 5,-5 h180 q5,0 5,5 v45 H0 Z"/><line class="node-line-4" x1="0" y1="50" x2="190" y2="50"/></g><g transform="translate(95, 10)"><text dy="1em" alignment-baseline="middle" dominant-baseline="middle" text-anchor="middle"><tspan x="0" dy="1em">Event   18</tspan></text></g></g></g><g class="taskWrapper" transform="translate(3800, 50)"><g class="timeline-node section-5"><g><path id="node-undefined" class="node-bkg node-undefined" d="M0 62.8 v-57.8 q0,-5 5,-5 h180 q5,0 5,5 v62.8 H0 Z"/><line class="node-line-5" x1="0" y1="67.8" x2="190" y2="67.8"/></g><g transform="translate(95, 10)"><text dy="1em" alignment-baseline="middle" dominant-baseline="middle" text-anchor="middle"><tspan x="0" dy="1em">2008</tspan></text></g></g></g><g class="lineWrapper"><line x1="3895" y1="117.8" x2="3895" y2="365.6" stroke-width="2" stroke="black" marker-end="url(#arrowhead)" stroke-dasharray="5,5"/></g><g class="eventWrapper" transform="translate(3800, 250)"><g class="timeline-node section-5"><g><path id="node-undefined" class="node-bkg node-undefined" d="M0 45 v-40 q0,-5 5,-5 h180 q5,0 5,5 v45 H0 Z"/><line class="node-line-5" x1="0" y1="50" x2="190" y2="50"/></g><g transform="translate(95, 10)"><text dy="1em" alignment-baseline="middle" dominant-baseline="middle" text-anchor="middle"><tspan x="0" dy="1em">Event   19</tspan></text></g></g></g><g class="taskWrapper" transform="translate(4000, 50)"><g class="timeline-node section-6"><g><path id="node-undefined" class="node-bkg node-undefined" d="M0 62.8 v-57.8 q0,-5 5,-5 h180 q5,0 5,5 v62.8 H0 Z"/><line class="node-line-6" x1="0" y1="67.8" x2="190" y2="67.8"/></g><g transform="translate(95, 10)"><text dy="1em" alignment-baseline="middle" dominant-baseline="middle" text-anchor="middle"><tspan x="0" dy="1em">2009</tspan></text></g></g></g><g class="lineWrapper"><line x1="4095" y1="117.8" x2="4095" y2="365.6" stroke-width="2" stroke="black" marker-end="url(#arrowhead)" stroke-dasharray="5,5"/></g><g class="eventWrapper" transform="translate(4000, 250)"><g class="timeline-node section-6"><g><path id="node-undefined" class="node-bkg node-undefined" d="M0 45 v-40 q0,-5 5,-5 h180 q5,0 5,5 v45 H0 Z"/><line class="node-line-6" x1="0" y1="50" x2="190" y2="50"/></g><g transform="translate(95, 10)"><text dy="1em" alignment-baseline="middle" dominant-baseline="middle" text-anchor="middle"><tspan x="0" dy="1em">Event   20</tspan></text></g></g></g><g class="taskWrapper" transform="translate(4200, 50)"><g class="timeline-node section-7"><g><path id="node-undefined" class="node-bkg node-undefined" d="M0 62.8 v-57.8 q0,-5 5,-5 h180 q5,0 5,5 v62.8 H0 Z"/><line class="node-line-7" x1="0" y1="67.8" x2="190" y2="67.8"/></g><g transform="translate(95, 10)"><text dy="1em" alignment-baseline="middle" dominant-baseline="middle" text-anchor="middle"><tspan x="0" dy="1em">2010</tspan></text></g></g></g><g class="lineWrapper"><line x1="4295" y1="117.8" x2="4295" y2="365.6" stroke-width="2" stroke="black" marker-end="url(#arrowhead)" stroke-dasharray="5,5"/></g><g class="eventWrapper" transform="translate(4200, 250)"><g class="timeline-node section-7"><g><path id="node-undefined" class="node-bkg node-undefined" d="M0 45 v-40 q0,-5 5,-5 h180 q5,0 5,5 v45 H0 Z"/><line class="node-line-7" x1="0" y1="50" x2="190" y2="50"/></g><g transform="translate(95, 10)"><text dy="1em" alignment-baseline="middle" dominant-baseline="middle" text-anchor="middle"><tspan x="0" dy="1em">Event   21</tspan></text></g></g></g><g class="taskWrapper" transform="translate(4400, 50)"><g class="timeline-node section-8"><g><path id="node-undefined" class="node-bkg node-undefined" d="M0 62.8 v-57.8 q0,-5 5,-5 h180 q5,0 5,5 v62.8 H0 Z"/><line class="node-line-8" x1="0" y1="67.8" x2="190" y2="67.8"/></g><g transform="translate(95, 10)"><text dy="1em" alignment-baseline="middle" dominant-baseline="middle" text-anchor="middle"><tspan x="0" dy="1em">2011</tspan></text></g></g></g><g class="lineWrapper"><line x1="4495" y1="117.8" x2="4495" y2="365.6" stroke-width="2" stroke="black" marker-end="url(#arrowhead)" stroke-dasharray="5,5"/></g><g class="eventWrapper" transform="translate(4400, 250)"><g class="timeline-node section-8"><g><path id="node-undefined" class="node-bkg node-undefined" d="M0 45 v-40 q0,-5 5,-5 h180 q5,0 5,5 v45 H0 Z"/><line class="node-line-8" x1="0" y1="50" x2="190" y2="50"/></g><g transform="translate(95, 10)"><text dy="1em" alignment-baseline="middle" dominant-baseline="middle" text-anchor="middle"><tspan x="0" dy="1em">Event   22</tspan></text></g></g></g><g class="taskWrapper" transform="translate(4600, 50)"><g class="timeline-node section-9"><g><path id="node-undefined" class="node-bkg node-undefined" d="M0 62.8 v-57.8 q0,-5 5,-5 h180 q5,0 5,5 v62.8 H0 Z"/><line class="node-line-9" x1="0" y1="67.8" x2="190" y2="67.8"/></g><g transform="translate(95, 10)"><text dy="1em" alignment-baseline="middle" dominant-baseline="middle" text-anchor="middle"><tspan x="0" dy="1em">2012</tspan></text></g></g></g><g class="lineWrapper"><line x1="4695" y1="117.8" x2="4695" y2="365.6" stroke-width="2" stroke="black" marker-end="url(#arrowhead)" stroke-dasharray="5,5"/></g><g class="eventWrapper" transform="translate(4600, 250)"><g class="timeline-node section-9"><g><path id="node-undefined" class="node-bkg node-undefined" d="M0 45 v-40 q0,-5 5,-5 h180 q5,0 5,5 v45 H0 Z"/><line class="node-line-9" x1="0" y1="50" x2="190" y2="50"/></g><g transform="translate(95, 10)"><text dy="1em" alignment-baseline="middle" dominant-baseline="middle" text-anchor="middle"><tspan x="0" dy="1em">Event   23</tspan></text></g></g></g><g class="taskWrapper" transform="translate(4800, 50)"><g class="timeline-node section-10"><g><path id="node-undefined" class="node-bkg node-undefined" d="M0 62.8 v-57.8 q0,-5 5,-5 h180 q5,0 5,5 v62.8 H0 Z"/><line class="node-line-10" x1="0" y1="67.8" x2="190" y2="67.8"/></g><g transform="translate(95, 10)"><text dy="1em" alignment-baseline="middle" dominant-baseline="middle" text-anchor="middle"><tspan x="0" dy="1em">2013</tspan></text></g></g></g><g class="lineWrapper"><line x1="4895" y1="117.8" x2="4895" y2="365.6" stroke-width="2" stroke="black" marker-end="url(#arrowhead)" stroke-dasharray="5,5"/></g><g class="eventWrapper" transform="translate(4800, 250)"><g class="timeline-node section-10"><g><path id="node-undefined" class="node-bkg node-undefined" d="M0 45 v-40 q0,-5 5,-5 h180 q5,0 5,5 v45 H0 Z"/><line class="node-line-10" x1="0" y1="50" x2="190" y2="50"/></g><g transform="translate(95, 10)"><text dy="1em" alignment-baseline="middle" dominant-baseline="middle" text-anchor="middle"><tspan x="0" dy="1em">Event   24</tspan></text></g></g></g><g class="taskWrapper" transform="translate(5000, 50)"><g class="timeline-node section--1"><g><path id="node-undefined" class="node-bkg node-undefined" d="M0 62.8 v-57.8 q0,-5 5,-5 h180 q5,0 5,5 v62.8 H0 Z"/><line class="node-line--1" x1="0" y1="67.8" x2="190" y2="67.8"/></g><g transform="translate(95, 10)"><text dy="1em" alignment-baseline="middle" dominant-baseline="middle" text-anchor="middle"><tspan x="0" dy="1em">2014</tspan></text></g></g></g><g class="lineWrapper"><line x1="5095" y1="117.8" x2="5095" y2="365.6" stroke-width="2" stroke="black" marker-end="url(#arrowhead)" stroke-dasharray="5,5"/></g><g class="eventWrapper" transform="translate(5000, 250)"><g class="timeline-node section--1"><g><path id="node-undefined" class="node-bkg node-undefined" d="M0 45 v-40 q0,-5 5,-5 h180 q5,0 5,5 v45 H0 Z"/><line class="node-line--1" x1="0" y1="50" x2="190" y2="50"/></g><g transform="translate(95, 10)"><text dy="1em" alignment-baseline="middle" dominant-baseline="middle" text-anchor="middle"><tspan x="0" dy="1em">Event   25</tspan></text></g></g></g><text x="2345" font-size="4ex" font-weight="bold" y="20">Many periods without sections</text><g class="lineWrapper"><line x1="150" y1="167.8" x2="5440" y2="167.8" stroke-width="4" stroke="black" marker-end="url(#arrowhead)"/></g></svg>