<svg id="timeline_stress_common_theme_variables_label_cycle" width="100%" xmlns="http://www.w3.org/2000/svg" xmlns:xlink="http://www.w3.org/1999/xlink" style="max-width: 2990px; background-color: white;" viewBox="100 -61 2990 612" role="graphics-document document" aria-roledescription="timeline"><style>#timeline_stress_common_theme_variables_label_cycle{font-family:"trebuchet ms",verdana,arial,sans-serif;font-size:16px;fill:#333;}@keyframes edge-animation-frame{from{stroke-dashoffset:0;}}@keyframes dash{to{stroke-dashoffset:0;}}#timeline_stress_common_theme_variables_label_cycle .edge-animation-slow{stroke-dasharray:9,5!important;stroke-dashoffset:900;animation:dash 50s linear infinite;stroke-linecap:round;}#timeline_stress_common_theme_variables_label_cycle .edge-animation-fast{stroke-dasharray:9,5!important;stroke-dashoffset:900;animation:dash 20s linear infinite;stroke-linecap:round;}#timeline_stress_common_theme_variables_label_cycle .error-icon{fill:#552222;}#timeline_stress_common_theme_variables_label_cycle .error-text{fill:#552222;stroke:#552222;}#timeline_stress_common_theme_variables_label_cycle .edge-thickness-normal{stroke-width:1px;}#timeline_stress_common_theme_variables_label_cycle .edge-thickness-thick{stroke-width:3.5px;}#timeline_stress_common_theme_variables_label_cycle .edge-pattern-solid{stroke-dasharray:0;}#timeline_stress_common_theme_variables_label_cycle .edge-thickness-invisible{stroke-width:0;fill:none;}#timeline_stress_common_theme_variables_label_cycle .edge-pattern-dashed{stroke-dasharray:3;}#timeline_stress_common_theme_variables_label_cycle .edge-pattern-dotted{stroke-dasharray:2;}#timeline_stress_common_theme_variables_label_cycle .marker{fill:#333333;stroke:#333333;}#timeline_stress_common_theme_variables_label_cycle .marker.cross{stroke:#333333;}#timeline_stress_common_theme_variables_label_cycle svg{font-family:"trebuchet ms",verdana,arial,sans-serif;font-size:16px;}#timeline_stress_common_theme_variables_label_cycle p{margin:0;}#timeline_stress_common_theme_variables_label_cycle .edge{stroke-width:3;}#timeline_stress_common_theme_variables_label_cycle .section--1 rect,#timeline_stress_common_theme_variables_label_cycle .section--1 path,#timeline_stress_common_theme_variables_label_cycle .section--1 circle,#timeline_stress_common_theme_variables_label_cycle .section--1 path{fill:#ff0000;}#timeline_stress_common_theme_variables_label_cycle .section--1 text{fill:#ffffff;}#timeline_stress_common_theme_variables_label_cycle .node-icon--1{font-size:40px;color:#ffffff;}#timeline_stress_common_theme_variables_label_cycle .section-edge--1{stroke:#ff0000;}#timeline_stress_common_theme_variables_label_cycle .edge-depth--1{stroke-width:17;}#timeline_stress_common_theme_variables_label_cycle .section--1 line{stroke:hsl(60, 100%, 86.2745098039%);stroke-width:3;}#timeline_stress_common_theme_variables_label_cycle .lineWrapper line{stroke:#ffffff;}#timeline_stress_common_theme_variables_label_cycle .disabled,#timeline_stress_common_theme_variables_label_cycle .disabled circle,#timeline_stress_common_theme_variables_label_cycle .disabled text{fill:lightgray;}#timeline_stress_common_theme_variables_label_cycle .disabled text{fill:#efefef;}#timeline_stress_common_theme_variables_label_cycle .section-0 rect,#timeline_stress_common_theme_variables_label_cycle .section-0 path,#timeline_stress_common_theme_variables_label_cycle .section-0 circle,#timeline_stress_common_theme_variables_label_cycle .section-0 path{fill:#00ff00;}#timeline_stress_common_theme_variables_label_cycle .section-0 text{fill:#000000;}#timeline_stress_common_theme_variables_label_cycle .node-icon-0{font-size:40px;color:#000000;}#timeline_stress_common_theme_variables_label_cycle .section-edge-0{stroke:#00ff00;}#timeline_stress_common_theme_variables_label_cycle .edge-depth-0{stroke-width:14;}#timeline_stress_common_theme_variables_label_cycle .section-0 line{stroke:hsl(240, 100%, 83.5294117647%);stroke-width:3;}#timeline_stress_common_theme_variables_label_cycle .lineWrapper line{stroke:#000000;}#timeline_stress_common_theme_variables_label_cycle .disabled,#timeline_stress_common_theme_variables_label_cycle .disabled circle,#timeline_stress_common_theme_variables_label_cycle .disabled text{fill:lightgray;}#timeline_stress_common_theme_variables_label_cycle .disabled text{fill:#efefef;}#timeline_stress_common_theme_variables_label_cycle .section-1 rect,#timeline_stress_common_theme_variables_label_cycle .section-1 path,#timeline_stress_common_theme_variables_label_cycle .section-1 circle,#timeline_stress_common_theme_variables_label_cycle .section-1 path{fill:#0000ff;}#timeline_stress_common_theme_variables_label_cycle .section-1 text{fill:#ffffff;}#timeline_stress_common_theme_variables_label_cycle .node-icon-1{font-size:40px;color:#ffffff;}#timeline_stress_common_theme_variables_label_cycle .section-edge-1{stroke:#0000ff;}#timeline_stress_common_theme_variables_label_cycle .edge-depth-1{stroke-width:11;}#timeline_stress_common_theme_variables_label_cycle .section-1 line{stroke:hsl(260, 100%, 86.2745098039%);stroke-width:3;}#timeline_stress_common_theme_variables_label_cycle .lineWrapper line{stroke:#ffffff;}#timeline_stress_common_theme_variables_label_cycle .disabled,#timeline_stress_common_theme_variables_label_cycle .disabled circle,#timeline_stress_common_theme_variables_label_cycle .disabled text{fill:lightgray;}#timeline_stress_common_theme_variables_label_cycle .disabled text{fill:#efefef;}#timeline_stress_common_theme_variables_label_cycle .section-2 rect,#timeline_stress_common_theme_variables_label_cycle .section-2 path,#timeline_stress_common_theme_variables_label_cycle .section-2 circle,#timeline_stress_common_theme_variables_label_cycle .section-2 path{fill:#ff00ff;}#timeline_stress_common_theme_variables_label_cycle .section-2 text{fill:#000000;}#timeline_stress_common_theme_variables_label_cycle .node-icon-2{font-size:40px;color:#000000;}#timeline_stress_common_theme_variables_label_cycle .section-edge-2{stroke:#ff00ff;}#timeline_stress_common_theme_variables_label_cycle .edge-depth-2{stroke-width:8;}#timeline_stress_common_theme_variables_label_cycle .section-2 line{stroke:hsl(90, 100%, 86.2745098039%);stroke-width:3;}#timeline_stress_common_theme_variables_label_cycle .lineWrapper line{stroke:#000000;}#timeline_stress_common_theme_variables_label_cycle .disabled,#timeline_stress_common_theme_variables_label_cycle .disabled circle,#timeline_stress_common_theme_variables_label_cycle .disabled text{fill:lightgray;}#timeline_stress_common_theme_variables_label_cycle .disabled text{fill:#efefef;}#timeline_stress_common_theme_variables_label_cycle .section-3 rect,#timeline_stress_common_theme_variables_label_cycle .section-3 path,#timeline_stress_common_theme_variables_label_cycle .section-3 circle,#timeline_stress_common_theme_variables_label_cycle .section-3 path{fill:hsl(300, 100%, 76.2745098039%);}#timeline_stress_common_theme_variables_label_cycle .section-3 text{fill:black;}#timeline_stress_common_theme_variables_label_cycle .node-icon-3{font-size:40px;color:black;}#timeline_stress_common_theme_variables_label_cycle .section-edge-3{stroke:hsl(300, 100%, 76.2745098039%);}#timeline_stress_common_theme_variables_label_cycle .edge-depth-3{stroke-width:5;}#timeline_stress_common_theme_variables_label_cycle .section-3 line{stroke:hsl(120, 100%, 86.2745098039%);stroke-width:3;}#timeline_stress_common_theme_variables_label_cycle .lineWrapper line{stroke:black;}#timeline_stress_common_theme_variables_label_cycle .disabled,#timeline_stress_common_theme_variables_label_cycle .disabled circle,#timeline_stress_common_theme_variables_label_cycle .disabled text{fill:lightgray;}#timeline_stress_common_theme_variables_label_cycle .disabled text{fill:#efefef;}#timeline_stress_common_theme_variables_label_cycle .section-4 rect,#timeline_stress_common_theme_variables_label_cycle .section-4 path,#timeline_stress_common_theme_variables_label_cycle .section-4 circle,#timeline_stress_common_theme_variables_label_cycle .section-4 path{fill:hsl(330, 100%, 76.2745098039%);}#timeline_stress_common_theme_variables_label_cycle .section-4 text{fill:black;}#timeline_stress_common_theme_variables_label_cycle .node-icon-4{font-size:40px;color:black;}#timeline_stress_common_theme_variables_label_cycle .section-edge-4{stroke:hsl(330, 100%, 76.2745098039%);}#timeline_stress_common_theme_variables_label_cycle .edge-depth-4{stroke-width:2;}#timeline_stress_common_theme_variables_label_cycle .section-4 line{stroke:hsl(150, 100%, 86.2745098039%);stroke-width:3;}#timeline_stress_common_theme_variables_label_cycle .lineWrapper line{stroke:black;}#timeline_stress_common_theme_variables_label_cycle .disabled,#timeline_stress_common_theme_variables_label_cycle .disabled circle,#timeline_stress_common_theme_variables_label_cycle .disabled text{fill:lightgray;}#timeline_stress_common_theme_variables_label_cycle .disabled text{fill:#efefef;}#timeline_stress_common_theme_variables_label_cycle .section-5 rect,#timeline_stress_common_theme_variables_label_cycle .section-5 path,#timeline_stress_common_theme_variables_label_cycle .section-5 circle,#timeline_stress_common_theme_variables_label_cycle .section-5 path{fill:hsl(0, 100%, 76.2745098039%);}#timeline_stress_common_theme_variables_label_cycle .section-5 text{fill:black;}#timeline_stress_common_theme_variables_label_cycle .node-icon-5{font-size:40px;color:black;}#timeline_stress_common_theme_variables_label_cycle .section-edge-5{stroke:hsl(0, 100%, 76.2745098039%);}#timeline_stress_common_theme_variables_label_cycle .edge-depth-5{stroke-width:-1;}#timeline_stress_common_theme_variables_label_cycle .section-5 line{stroke:hsl(180, 100%, 86.2745098039%);stroke-width:3;}#timeline_stress_common_theme_variables_label_cycle .lineWrapper line{stroke:black;}#timeline_stress_common_theme_variables_label_cycle .disabled,#timeline_stress_common_theme_variables_label_cycle .disabled circle,#timeline_stress_common_theme_variables_label_cycle .disabled text{fill:lightgray;}#timeline_stress_common_theme_variables_label_cycle .disabled text{fill:#efefef;}#timeline_stress_common_theme_variables_label_cycle .section-6 rect,#timeline_stress_common_theme_variables_label_cycle .section-6 path,#timeline_stress_common_theme_variables_label_cycle .section-6 circle,#timeline_stress_common_theme_variables_label_cycle .section-6 path{fill:hsl(30, 100%, 76.2745098039%);}#timeline_stress_common_theme_variables_label_cycle .section-6 text{fill:black;}#timeline_stress_common_theme_variables_label_cycle .node-icon-6{font-size:40px;color:black;}#timeline_stress_common_theme_variables_label_cycle .section-edge-6{stroke:hsl(30, 100%, 76.2745098039%);}#timeline_stress_common_theme_variables_label_cycle .edge-depth-6{stroke-width:-4;}#timeline_stress_common_theme_variables_label_cycle .section-6 line{stroke:hsl(210, 100%, 86.2745098039%);stroke-width:3;}#timeline_stress_common_theme_variables_label_cycle .lineWrapper line{stroke:black;}#timeline_stress_common_theme_variables_label_cycle .disabled,#timeline_stress_common_theme_variables_label_cycle .disabled circle,#timeline_stress_common_theme_variables_label_cycle .disabled text{fill:lightgray;}#timeline_stress_common_theme_variables_label_cycle .disabled text{fill:#efefef;}#timeline_stress_common_theme_variables_label_cycle .section-7 rect,#timeline_stress_common_theme_variables_label_cycle .section-7 path,#timeline_stress_common_theme_variables_label_cycle .section-7 circle,#timeline_stress_common_theme_variables_label_cycle .section-7 path{fill:hsl(90, 100%, 76.2745098039%);}#timeline_stress_common_theme_variables_label_cycle .section-7 text{fill:black;}#timeline_stress_common_theme_variables_label_cycle .node-icon-7{font-size:40px;color:black;}#timeline_stress_common_theme_variables_label_cycle .section-edge-7{stroke:hsl(90, 100%, 76.2745098039%);}#timeline_stress_common_theme_variables_label_cycle .edge-depth-7{stroke-width:-7;}#timeline_stress_common_theme_variables_label_cycle .section-7 line{stroke:hsl(270, 100%, 86.2745098039%);stroke-width:3;}#timeline_stress_common_theme_variables_label_cycle .lineWrapper line{stroke:black;}#timeline_stress_common_theme_variables_label_cycle .disabled,#timeline_stress_common_theme_variables_label_cycle .disabled circle,#timeline_stress_common_theme_variables_label_cycle .disabled text{fill:lightgray;}#timeline_stress_common_theme_variables_label_cycle .disabled text{fill:#efefef;}#timeline_stress_common_theme_variables_label_cycle .section-8 rect,#timeline_stress_common_theme_variables_label_cycle .section-8 path,#timeline_stress_common_theme_variables_label_cycle .section-8 circle,#timeline_stress_common_theme_variables_label_cycle .section-8 path{fill:hsl(150, 100%, 76.2745098039%);}#timeline_stress_common_theme_variables_label_cycle .section-8 text{fill:black;}#timeline_stress_common_theme_variables_label_cycle .node-icon-8{font-size:40px;color:black;}#timeline_stress_common_theme_variables_label_cycle .section-edge-8{stroke:hsl(150, 100%, 76.2745098039%);}#timeline_stress_common_theme_variables_label_cycle .edge-depth-8{stroke-width:-10;}#timeline_stress_common_theme_variables_label_cycle .section-8 line{stroke:hsl(330, 100%, 86.2745098039%);stroke-width:3;}#timeline_stress_common_theme_variables_label_cycle .lineWrapper line{stroke:black;}#timeline_stress_common_theme_variables_label_cycle .disabled,#timeline_stress_common_theme_variables_label_cycle .disabled circle,#timeline_stress_common_theme_variables_label_cycle .disabled text{fill:lightgray;}#timeline_stress_common_theme_variables_label_cycle .disabled text{fill:#efefef;}#timeline_stress_common_theme_variables_label_cycle .section-9 rect,#timeline_stress_common_theme_variables_label_cycle .section-9 path,#timeline_stress_common_theme_variables_label_cycle .section-9 circle,#timeline_stress_common_theme_variables_label_cycle .section-9 path{fill:hsl(180, 100%, 76.2745098039%);}#timeline_stress_common_theme_variables_label_cycle .section-9 text{fill:black;}#timeline_stress_common_theme_variables_label_cycle .node-icon-9{font-size:40px;color:black;}#timeline_stress_common_theme_variables_label_cycle .section-edge-9{stroke:hsl(180, 100%, 76.2745098039%);}#timeline_stress_common_theme_variables_label_cycle .edge-depth-9{stroke-width:-13;}#timeline_stress_common_theme_variables_label_cycle .section-9 line{stroke:hsl(0, 100%, 86.2745098039%);stroke-width:3;}#timeline_stress_common_theme_variables_label_cycle .lineWrapper line{stroke:black;}#timeline_stress_common_theme_variables_label_cycle .disabled,#timeline_stress_common_theme_variables_label_cycle .disabled circle,#timeline_stress_common_theme_variables_label_cycle .disabled text{fill:lightgray;}#timeline_stress_common_theme_variables_label_cycle .disabled text{fill:#efefef;}#timeline_stress_common_theme_variables_label_cycle .section-10 rect,#timeline_stress_common_theme_variables_label_cycle .section-10 path,#timeline_stress_common_theme_variables_label_cycle .section-10 circle,#timeline_stress_common_theme_variables_label_cycle .section-10 path{fill:hsl(210, 100%, 76.2745098039%);}#timeline_stress_common_theme_variables_label_cycle .section-10 text{fill:black;}#timeline_stress_common_theme_variables_label_cycle .node-icon-10{font-size:40px;color:black;}#timeline_stress_common_theme_variables_label_cycle .section-edge-10{stroke:hsl(210, 100%, 76.2745098039%);}#timeline_stress_common_theme_variables_label_cycle .edge-depth-10{stroke-width:-16;}#timeline_stress_common_theme_variables_label_cycle .section-10 line{stroke:hsl(30, 100%, 86.2745098039%);stroke-width:3;}#timeline_stress_common_theme_variables_label_cycle .lineWrapper line{stroke:black;}#timeline_stress_common_theme_variables_label_cycle .disabled,#timeline_stress_common_theme_variables_label_cycle .disabled circle,#timeline_stress_common_theme_variables_label_cycle .disabled text{fill:lightgray;}#timeline_stress_common_theme_variables_label_cycle .disabled text{fill:#efefef;}#timeline_stress_common_theme_variables_label_cycle .section-root rect,#timeline_stress_common_theme_variables_label_cycle .section-root path,#timeline_stress_common_theme_variables_label_cycle .section-root circle{fill:hsl(240, 100%, 46.2745098039%);}#timeline_stress_common_theme_variables_label_cycle .section-root text{fill:#ffffff;}#timeline_stress_common_theme_variables_label_cycle .icon-container{height:100%;display:flex;justify-content:center;align-items:center;}#timeline_stress_common_theme_variables_label_cycle .edge{fill:none;}#timeline_stress_common_theme_variables_label_cycle .eventWrapper{filter:brightness(120%);}#timeline_stress_common_theme_variables_label_cycle :root{--mermaid-font-family:"trebuchet ms",verdana,arial,sans-serif;}</style><g/><g/><defs><marker id="arrowhead" refX="5" refY="2" markerWidth="6" markerHeight="4" orient="auto"><path d="M 0,0 V 4 L6,2 Z"/></marker></defs><g transform="translate(200, 50)"><g class="timeline-node section--1"><g><path id="node-undefined" class="node-bkg node-undefined" d="M0 62.8 v-57.8 q0,-5 5,-5 h180 q5,0 5,5 v62.8 H0 Z"/><line class="node-line--1" x1="0" y1="67.8" x2="190" y2="67.8"/></g><g transform="translate(95, 10)"><text dy="1em" alignment-baseline="middle" dominant-baseline="middle" text-anchor="middle"><tspan x="0" dy="1em">S01   Custom</tspan></text></g></g></g><g class="taskWrapper" transform="translate(200, 167.8)"><g class="timeline-node section--1"><g><path id="node-undefined" class="node-bkg node-undefined" d="M0 62.8 v-57.8 q0,-5 5,-5 h180 q5,0 5,5 v62.8 H0 Z"/><line class="node-line--1" x1="0" y1="67.8" x2="190" y2="67.8"/></g><g transform="translate(95, 10)"><text dy="1em" alignment-baseline="middle" dominant-baseline="middle" text-anchor="middle"><tspan x="0" dy="1em">P01</tspan></text></g></g></g><g class="lineWrapper"><line x1="295" y1="235.60000000000002" x2="295" y2="500.9999984741211" stroke-width="2" stroke="black" marker-end="url(#arrowhead)" stroke-dasharray="5,5"/></g><g class="eventWrapper" transform="translate(200, 367.8)"><g class="timeline-node section--1"><g><path id="node-undefined" class="node-bkg node-undefined" d="M0 45 v-40 q0,-5 5,-5 h180 q5,0 5,5 v45 H0 Z"/><line class="node-line--1" x1="0" y1="50" x2="190" y2="50"/></g><g transform="translate(95, 10)"><text dy="1em" alignment-baseline="middle" dominant-baseline="middle" text-anchor="middle"><tspan x="0" dy="1em">Alpha</tspan></text></g></g></g><g transform="translate(400, 50)"><g class="timeline-node section-0"><g><path id="node-undefined" class="node-bkg node-undefined" d="M0 62.8 v-57.8 q0,-5 5,-5 h180 q5,0 5,5 v62.8 H0 Z"/><line class="node-line-0" x1="0" y1="67.8" x2="190" y2="67.8"/></g><g transform="translate(95, 10)"><text dy="1em" alignment-baseline="middle" dominant-baseline="middle" text-anchor="middle"><tspan x="0" dy="1em">S02   Custom</tspan></text></g></g></g><g class="taskWrapper" transform="translate(400, 167.8)"><g class="timeline-node section-0"><g><path id="node-undefined" class="node-bkg node-undefined" d="M0 62.8 v-57.8 q0,-5 5,-5 h180 q5,0 5,5 v62.8 H0 Z"/><line class="node-line-0" x1="0" y1="67.8" x2="190" y2="67.8"/></g><g transform="translate(95, 10)"><text dy="1em" alignment-baseline="middle" dominant-baseline="middle" text-anchor="middle"><tspan x="0" dy="1em">P02</tspan></text></g></g></g><g class="lineWrapper"><line x1="495" y1="235.60000000000002" x2="495" y2="500.9999984741211" stroke-width="2" stroke="black" marker-end="url(#arrowhead)" stroke-dasharray="5,5"/></g><g class="eventWrapper" transform="translate(400, 367.8)"><g class="timeline-node section-0"><g><path id="node-undefined" class="node-bkg node-undefined" d="M0 45 v-40 q0,-5 5,-5 h180 q5,0 5,5 v45 H0 Z"/><line class="node-line-0" x1="0" y1="50" x2="190" y2="50"/></g><g transform="translate(95, 10)"><text dy="1em" alignment-baseline="middle" dominant-baseline="middle" text-anchor="middle"><tspan x="0" dy="1em">Beta</tspan></text></g></g></g><g transform="translate(600, 50)"><g class="timeline-node section-1"><g><path id="node-undefined" class="node-bkg node-undefined" d="M0 62.8 v-57.8 q0,-5 5,-5 h180 q5,0 5,5 v62.8 H0 Z"/><line class="node-line-1" x1="0" y1="67.8" x2="190" y2="67.8"/></g><g transform="translate(95, 10)"><text dy="1em" alignment-baseline="middle" dominant-baseline="middle" text-anchor="middle"><tspan x="0" dy="1em">S03   Custom</tspan></text></g></g></g><g class="taskWrapper" transform="translate(600, 167.8)"><g class="timeline-node section-1"><g><path id="node-undefined" class="node-bkg node-undefined" d="M0 62.8 v-57.8 q0,-5 5,-5 h180 q5,0 5,5 v62.8 H0 Z"/><line class="node-line-1" x1="0" y1="67.8" x2="190" y2="67.8"/></g><g transform="translate(95, 10)"><text dy="1em" alignment-baseline="middle" dominant-baseline="middle" text-anchor="middle"><tspan x="0" dy="1em">P03</tspan></text></g></g></g><g class="lineWrapper"><line x1="695" y1="235.60000000000002" x2="695" y2="500.9999984741211" stroke-width="2" stroke="black" marker-end="url(#arrowhead)" stroke-dasharray="5,5"/></g><g class="eventWrapper" transform="translate(600, 367.8)"><g class="timeline-node section-1"><g><path id="node-undefined" class="node-bkg node-undefined" d="M0 45 v-40 q0,-5 5,-5 h180 q5,0 5,5 v45 H0 Z"/><line class="node-line-1" x1="0" y1="50" x2="190" y2="50"/></g><g transform="translate(95, 10)"><text dy="1em" alignment-baseline="middle" dominant-baseline="middle" text-anchor="middle"><tspan x="0" dy="1em">Gamma</tspan></text></g></g></g><g transform="translate(800, 50)"><g class="timeline-node section-2"><g><path id="node-undefined" class="node-bkg node-undefined" d="M0 62.8 v-57.8 q0,-5 5,-5 h180 q5,0 5,5 v62.8 H0 Z"/><line class="node-line-2" x1="0" y1="67.8" x2="190" y2="67.8"/></g><g transform="translate(95, 10)"><text dy="1em" alignment-baseline="middle" dominant-baseline="middle" text-anchor="middle"><tspan x="0" dy="1em">S04   Custom</tspan></text></g></g></g><g class="taskWrapper" transform="translate(800, 167.8)"><g class="timeline-node section-2"><g><path id="node-undefined" class="node-bkg node-undefined" d="M0 62.8 v-57.8 q0,-5 5,-5 h180 q5,0 5,5 v62.8 H0 Z"/><line class="node-line-2" x1="0" y1="67.8" x2="190" y2="67.8"/></g><g transform="translate(95, 10)"><text dy="1em" alignment-baseline="middle" dominant-baseline="middle" text-anchor="middle"><tspan x="0" dy="1em">P04</tspan></text></g></g></g><g class="lineWrapper"><line x1="895" y1="235.60000000000002" x2="895" y2="500.9999984741211" stroke-width="2" stroke="black" marker-end="url(#arrowhead)" stroke-dasharray="5,5"/></g><g class="eventWrapper" transform="translate(800, 367.8)"><g class="timeline-node section-2"><g><path id="node-undefined" class="node-bkg node-undefined" d="M0 45 v-40 q0,-5 5,-5 h180 q5,0 5,5 v45 H0 Z"/><line class="node-line-2" x1="0" y1="50" x2="190" y2="50"/></g><g transform="translate(95, 10)"><text dy="1em" alignment-baseline="middle" dominant-baseline="middle" text-anchor="middle"><tspan x="0" dy="1em">Delta</tspan></text></g></g></g><g transform="translate(1000, 50)"><g class="timeline-node section-3"><g><path id="node-undefined" class="node-bkg node-undefined" d="M0 62.8 v-57.8 q0,-5 5,-5 h180 q5,0 5,5 v62.8 H0 Z"/><line class="node-line-3" x1="0" y1="67.8" x2="190" y2="67.8"/></g><g transform="translate(95, 10)"><text dy="1em" alignment-baseline="middle" dominant-baseline="middle" text-anchor="middle"><tspan x="0" dy="1em">S05   Default</tspan></text></g></g></g><g class="taskWrapper" transform="translate(1000, 167.8)"><g class="timeline-node section-3"><g><path id="node-undefined" class="node-bkg node-undefined" d="M0 62.8 v-57.8 q0,-5 5,-5 h180 q5,0 5,5 v62.8 H0 Z"/><line class="node-line-3" x1="0" y1="67.8" x2="190" y2="67.8"/></g><g transform="translate(95, 10)"><text dy="1em" alignment-baseline="middle" dominant-baseline="middle" text-anchor="middle"><tspan x="0" dy="1em">P05</tspan></text></g></g></g><g class="lineWrapper"><line x1="1095" y1="235.60000000000002" x2="1095" y2="500.9999984741211" stroke-width="2" stroke="black" marker-end="url(#arrowhead)" stroke-dasharray="5,5"/></g><g class="eventWrapper" transform="translate(1000, 367.8)"><g class="timeline-node section-3"><g><path id="node-undefined" class="node-bkg node-undefined" d="M0 45 v-40 q0,-5 5,-5 h180 q5,0 5,5 v45 H0 Z"/><line class="node-line-3" x1="0" y1="50" x2="190" y2="50"/></g><g transform="translate(95, 10)"><text dy="1em" alignment-baseline="middle" dominant-baseline="middle" text-anchor="middle"><tspan x="0" dy="1em">Epsilon</tspan></text></g></g></g><g transform="translate(1200, 50)"><g class="timeline-node section-4"><g><path id="node-undefined" class="node-bkg node-undefined" d="M0 62.8 v-57.8 q0,-5 5,-5 h180 q5,0 5,5 v62.8 H0 Z"/><line class="node-line-4" x1="0" y1="67.8" x2="190" y2="67.8"/></g><g transform="translate(95, 10)"><text dy="1em" alignment-baseline="middle" dominant-baseline="middle" text-anchor="middle"><tspan x="0" dy="1em">S06   Default</tspan></text></g></g></g><g class="taskWrapper" transform="translate(1200, 167.8)"><g class="timeline-node section-4"><g><path id="node-undefined" class="node-bkg node-undefined" d="M0 62.8 v-57.8 q0,-5 5,-5 h180 q5,0 5,5 v62.8 H0 Z"/><line class="node-line-4" x1="0" y1="67.8" x2="190" y2="67.8"/></g><g transform="translate(95, 10)"><text dy="1em" alignment-baseline="middle" dominant-baseline="middle" text-anchor="middle"><tspan x="0" dy="1em">P06</tspan></text></g></g></g><g class="lineWrapper"><line x1="1295" y1="235.60000000000002" x2="1295" y2="500.9999984741211" stroke-width="2" stroke="black" marker-end="url(#arrowhead)" stroke-dasharray="5,5"/></g><g class="eventWrapper" transform="translate(1200, 367.8)"><g class="timeline-node section-4"><g><path id="node-undefined" class="node-bkg node-undefined" d="M0 45 v-40 q0,-5 5,-5 h180 q5,0 5,5 v45 H0 Z"/><line class="node-line-4" x1="0" y1="50" x2="190" y2="50"/></g><g transform="translate(95, 10)"><text dy="1em" alignment-baseline="middle" dominant-baseline="middle" text-anchor="middle"><tspan x="0" dy="1em">Zeta</tspan></text></g></g></g><g transform="translate(1400, 50)"><g class="timeline-node section-5"><g><path id="node-undefined" class="node-bkg node-undefined" d="M0 62.8 v-57.8 q0,-5 5,-5 h180 q5,0 5,5 v62.8 H0 Z"/><line class="node-line-5" x1="0" y1="67.8" x2="190" y2="67.8"/></g><g transform="translate(95, 10)"><text dy="1em" alignment-baseline="middle" dominant-baseline="middle" text-anchor="middle"><tspan x="0" dy="1em">S07   Default</tspan></text></g></g></g><g class="taskWrapper" transform="translate(1400, 167.8)"><g class="timeline-node section-5"><g><path id="node-undefined" class="node-bkg node-undefined" d="M0 62.8 v-57.8 q0,-5 5,-5 h180 q5,0 5,5 v62.8 H0 Z"/><line class="node-line-5" x1="0" y1="67.8" x2="190" y2="67.8"/></g><g transform="translate(95, 10)"><text dy="1em" alignment-baseline="middle" dominant-baseline="middle" text-anchor="middle"><tspan x="0" dy="1em">P07</tspan></text></g></g></g><g class="lineWrapper"><line x1="1495" y1="235.60000000000002" x2="1495" y2="500.9999984741211" stroke-width="2" stroke="black" marker-end="url(#arrowhead)" stroke-dasharray="5,5"/></g><g class="eventWrapper" transform="translate(1400, 367.8)"><g class="timeline-node section-5"><g><path id="node-undefined" class="node-bkg node-undefined" d="M0 45 v-40 q0,-5 5,-5 h180 q5,0 5,5 v45 H0 Z"/><line class="node-line-5" x1="0" y1="50" x2="190" y2="50"/></g><g transform="translate(95, 10)"><text dy="1em" alignment-baseline="middle" dominant-baseline="middle" text-anchor="middle"><tspan x="0" dy="1em">Eta</tspan></text></g></g></g><g transform="translate(1600, 50)"><g class="timeline-node section-6"><g><path id="node-undefined" class="node-bkg node-undefined" d="M0 62.8 v-57.8 q0,-5 5,-5 h180 q5,0 5,5 v62.8 H0 Z"/><line class="node-line-6" x1="0" y1="67.8" x2="190" y2="67.8"/></g><g transform="translate(95, 10)"><text dy="1em" alignment-baseline="middle" dominant-baseline="middle" text-anchor="middle"><tspan x="0" dy="1em">S08   Default</tspan></text></g></g></g><g class="taskWrapper" transform="translate(1600, 167.8)"><g class="timeline-node section-6"><g><path id="node-undefined" class="node-bkg node-undefined" d="M0 62.8 v-57.8 q0,-5 5,-5 h180 q5,0 5,5 v62.8 H0 Z"/><line class="node-line-6" x1="0" y1="67.8" x2="190" y2="67.8"/></g><g transform="translate(95, 10)"><text dy="1em" alignment-baseline="middle" dominant-baseline="middle" text-anchor="middle"><tspan x="0" dy="1em">P08</tspan></text></g></g></g><g class="lineWrapper"><line x1="1695" y1="235.60000000000002" x2="1695" y2="500.9999984741211" stroke-width="2" stroke="black" marker-end="url(#arrowhead)" stroke-dasharray="5,5"/></g><g class="eventWrapper" transform="translate(1600, 367.8)"><g class="timeline-node section-6"><g><path id="node-undefined" class="node-bkg node-undefined" d="M0 45 v-40 q0,-5 5,-5 h180 q5,0 5,5 v45 H0 Z"/><line class="node-line-6" x1="0" y1="50" x2="190" y2="50"/></g><g transform="translate(95, 10)"><text dy="1em" alignment-baseline="middle" dominant-baseline="middle" text-anchor="middle"><tspan x="0" dy="1em">Theta</tspan></text></g></g></g><g transform="translate(1800, 50)"><g class="timeline-node section-7"><g><path id="node-undefined" class="node-bkg node-undefined" d="M0 62.8 v-57.8 q0,-5 5,-5 h180 q5,0 5,5 v62.8 H0 Z"/><line class="node-line-7" x1="0" y1="67.8" x2="190" y2="67.8"/></g><g transform="translate(95, 10)"><text dy="1em" alignment-baseline="middle" dominant-baseline="middle" text-anchor="middle"><tspan x="0" dy="1em">S09   Default</tspan></text></g></g></g><g class="taskWrapper" transform="translate(1800, 167.8)"><g class="timeline-node section-7"><g><path id="node-undefined" class="node-bkg node-undefined" d="M0 62.8 v-57.8 q0,-5 5,-5 h180 q5,0 5,5 v62.8 H0 Z"/><line class="node-line-7" x1="0" y1="67.8" x2="190" y2="67.8"/></g><g transform="translate(95, 10)"><text dy="1em" alignment-baseline="middle" dominant-baseline="middle" text-anchor="middle"><tspan x="0" dy="1em">P09</tspan></text></g></g></g><g class="lineWrapper"><line x1="1895" y1="235.60000000000002" x2="1895" y2="500.9999984741211" stroke-width="2" stroke="black" marker-end="url(#arrowhead)" stroke-dasharray="5,5"/></g><g class="eventWrapper" transform="translate(1800, 367.8)"><g class="timeline-node section-7"><g><path id="node-undefined" class="node-bkg node-undefined" d="M0 45 v-40 q0,-5 5,-5 h180 q5,0 5,5 v45 H0 Z"/><line class="node-line-7" x1="0" y1="50" x2="190" y2="50"/></g><g transform="translate(95, 10)"><text dy="1em" alignment-baseline="middle" dominant-baseline="middle" text-anchor="middle"><tspan x="0" dy="1em">Iota</tspan></text></g></g></g><g transform="translate(2000, 50)"><g class="timeline-node section-8"><g><path id="node-undefined" class="node-bkg node-undefined" d="M0 62.8 v-57.8 q0,-5 5,-5 h180 q5,0 5,5 v62.8 H0 Z"/><line class="node-line-8" x1="0" y1="67.8" x2="190" y2="67.8"/></g><g transform="translate(95, 10)"><text dy="1em" alignment-baseline="middle" dominant-baseline="middle" text-anchor="middle"><tspan x="0" dy="1em">S10   Default</tspan></text></g></g></g><g class="taskWrapper" transform="translate(2000, 167.8)"><g class="timeline-node section-8"><g><path id="node-undefined" class="node-bkg node-undefined" d="M0 62.8 v-57.8 q0,-5 5,-5 h180 q5,0 5,5 v62.8 H0 Z"/><line class="node-line-8" x1="0" y1="67.8" x2="190" y2="67.8"/></g><g transform="translate(95, 10)"><text dy="1em" alignment-baseline="middle" dominant-baseline="middle" text-anchor="middle"><tspan x="0" dy="1em">P10</tspan></text></g></g></g><g class="lineWrapper"><line x1="2095" y1="235.60000000000002" x2="2095" y2="500.9999984741211" stroke-width="2" stroke="black" marker-end="url(#arrowhead)" stroke-dasharray="5,5"/></g><g class="eventWrapper" transform="translate(2000, 367.8)"><g class="timeline-node section-8"><g><path id="node-undefined" class="node-bkg node-undefined" d="M0 45 v-40 q0,-5 5,-5 h180 q5,0 5,5 v45 H0 Z"/><line class="node-line-8" x1="0" y1="50" x2="190" y2="50"/></g><g transform="translate(95, 10)"><text dy="1em" alignment-baseline="middle" dominant-baseline="middle" text-anchor="middle"><tspan x="0" dy="1em">Kappa</tspan></text></g></g></g><g transform="translate(2200, 50)"><g class="timeline-node section-9"><g><path id="node-undefined" class="node-bkg node-undefined" d="M0 62.8 v-57.8 q0,-5 5,-5 h180 q5,0 5,5 v62.8 H0 Z"/><line class="node-line-9" x1="0" y1="67.8" x2="190" y2="67.8"/></g><g transform="translate(95, 10)"><text dy="1em" alignment-baseline="middle" dominant-baseline="middle" text-anchor="middle"><tspan x="0" dy="1em">S11   Default</tspan></text></g></g></g><g class="taskWrapper" transform="translate(2200, 167.8)"><g class="timeline-node section-9"><g><path id="node-undefined" class="node-bkg node-undefined" d="M0 62.8 v-57.8 q0,-5 5,-5 h180 q5,0 5,5 v62.8 H0 Z"/><line class="node-line-9" x1="0" y1="67.8" x2="190" y2="67.8"/></g><g transform="translate(95, 10)"><text dy="1em" alignment-baseline="middle" dominant-baseline="middle" text-anchor="middle"><tspan x="0" dy="1em">P11</tspan></text></g></g></g><g class="lineWrapper"><line x1="2295" y1="235.60000000000002" x2="2295" y2="500.9999984741211" stroke-width="2" stroke="black" marker-end="url(#arrowhead)" stroke-dasharray="5,5"/></g><g class="eventWrapper" transform="translate(2200, 367.8)"><g class="timeline-node section-9"><g><path id="node-undefined" class="node-bkg node-undefined" d="M0 45 v-40 q0,-5 5,-5 h180 q5,0 5,5 v45 H0 Z"/><line class="node-line-9" x1="0" y1="50" x2="190" y2="50"/></g><g transform="translate(95, 10)"><text dy="1em" alignment-baseline="middle" dominant-baseline="middle" text-anchor="middle"><tspan x="0" dy="1em">Lambda</tspan></text></g></g></g><g transform="translate(2400, 50)"><g class="timeline-node section-10"><g><path id="node-undefined" class="node-bkg node-undefined" d="M0 62.8 v-57.8 q0,-5 5,-5 h180 q5,0 5,5 v62.8 H0 Z"/><line class="node-line-10" x1="0" y1="67.8" x2="190" y2="67.8"/></g><g transform="translate(95, 10)"><text dy="1em" alignment-baseline="middle" dominant-baseline="middle" text-anchor="middle"><tspan x="0" dy="1em">S12   Default</tspan></text></g></g></g><g class="taskWrapper" transform="translate(2400, 167.8)"><g class="timeline-node section-10"><g><path id="node-undefined" class="node-bkg node-undefined" d="M0 62.8 v-57.8 q0,-5 5,-5 h180 q5,0 5,5 v62.8 H0 Z"/><line class="node-line-10" x1="0" y1="67.8" x2="190" y2="67.8"/></g><g transform="translate(95, 10)"><text dy="1em" alignment-baseline="middle" dominant-baseline="middle" text-anchor="middle"><tspan x="0" dy="1em">P12</tspan></text></g></g></g><g class="lineWrapper"><line x1="2495" y1="235.60000000000002" x2="2495" y2="500.9999984741211" stroke-width="2" stroke="black" marker-end="url(#arrowhead)" stroke-dasharray="5,5"/></g><g class="eventWrapper" transform="translate(2400, 367.8)"><g class="timeline-node section-10"><g><path id="node-undefined" class="node-bkg node-undefined" d="M0 45 v-40 q0,-5 5,-5 h180 q5,0 5,5 v45 H0 Z"/><line class="node-line-10" x1="0" y1="50" x2="190" y2="50"/></g><g transform="translate(95, 10)"><text dy="1em" alignment-baseline="middle" dominant-baseline="middle" text-anchor="middle"><tspan x="0" dy="1em">Mu</tspan></text></g></g></g><g transform="translate(2600, 50)"><g class="timeline-node section--1"><g><path id="node-undefined" class="node-bkg node-undefined" d="M0 62.8 v-57.8 q0,-5 5,-5 h180 q5,0 5,5 v62.8 H0 Z"/><line class="node-line--1" x1="0" y1="67.8" x2="190" y2="67.8"/></g><g transform="translate(95, 10)"><text dy="1em" alignment-baseline="middle" dominant-baseline="middle" text-anchor="middle"><tspan x="0" dy="1em">S13   Wrap</tspan></text></g></g></g><g class="taskWrapper" transform="translate(2600, 167.8)"><g class="timeline-node section--1"><g><path id="node-undefined" class="node-bkg node-undefined" d="M0 62.8 v-57.8 q0,-5 5,-5 h180 q5,0 5,5 v62.8 H0 Z"/><line class="node-line--1" x1="0" y1="67.8" x2="190" y2="67.8"/></g><g transform="translate(95, 10)"><text dy="1em" alignment-baseline="middle" dominant-baseline="middle" text-anchor="middle"><tspan x="0" dy="1em">P13</tspan></text></g></g></g><g class="lineWrapper"><line x1="2695" y1="235.60000000000002" x2="2695" y2="500.9999984741211" stroke-width="2" stroke="black" marker-end="url(#arrowhead)" stroke-dasharray="5,5"/></g><g class="eventWrapper" transform="translate(2600, 367.8)"><g class="timeline-node section--1"><g><path id="node-undefined" class="node-bkg node-undefined" d="M0 60.39999847412109 v-55.39999847412109 q0,-5 5,-5 h180 q5,0 5,5 v60.39999847412109 H0 Z"/><line class="node-line--1" x1="0" y1="65.39999847412109" x2="190" y2="65.39999847412109"/></g><g transform="translate(95, 10)"><text dy="1em" alignment-baseline="middle" dominant-baseline="middle" text-anchor="middle"><tspan x="0" dy="1em">Nu   (wraps   to   section</tspan><tspan x="0" dy="1.1em">1   colors   upstream)</tspan></text></g></g></g><text x="1145" font-size="4ex" font-weight="bold" y="20">ThemeVariables label cycle + section color wrap</text><g class="lineWrapper"><line x1="150" y1="285.6" x2="3040" y2="285.6" stroke-width="4" stroke="black" marker-end="url(#arrowhead)"/></g></svg>