<svg id="zed_pr_57644_timeline" width="100%" xmlns="http://www.w3.org/2000/svg" xmlns:xlink="http://www.w3.org/1999/xlink" style="max-width: 2390px; background-color: white;" viewBox="100 -61 2390 687.4000244140625" role="graphics-document document" aria-roledescription="timeline"><style>#zed_pr_57644_timeline{font-family:"trebuchet ms",verdana,arial,sans-serif;font-size:16px;fill:#333;}@keyframes edge-animation-frame{from{stroke-dashoffset:0;}}@keyframes dash{to{stroke-dashoffset:0;}}#zed_pr_57644_timeline .edge-animation-slow{stroke-dasharray:9,5!important;stroke-dashoffset:900;animation:dash 50s linear infinite;stroke-linecap:round;}#zed_pr_57644_timeline .edge-animation-fast{stroke-dasharray:9,5!important;stroke-dashoffset:900;animation:dash 20s linear infinite;stroke-linecap:round;}#zed_pr_57644_timeline .error-icon{fill:#552222;}#zed_pr_57644_timeline .error-text{fill:#552222;stroke:#552222;}#zed_pr_57644_timeline .edge-thickness-normal{stroke-width:1px;}#zed_pr_57644_timeline .edge-thickness-thick{stroke-width:3.5px;}#zed_pr_57644_timeline .edge-pattern-solid{stroke-dasharray:0;}#zed_pr_57644_timeline .edge-thickness-invisible{stroke-width:0;fill:none;}#zed_pr_57644_timeline .edge-pattern-dashed{stroke-dasharray:3;}#zed_pr_57644_timeline .edge-pattern-dotted{stroke-dasharray:2;}#zed_pr_57644_timeline .marker{fill:#333333;stroke:#333333;}#zed_pr_57644_timeline .marker.cross{stroke:#333333;}#zed_pr_57644_timeline svg{font-family:"trebuchet ms",verdana,arial,sans-serif;font-size:16px;}#zed_pr_57644_timeline p{margin:0;}#zed_pr_57644_timeline .edge{stroke-width:3;}#zed_pr_57644_timeline .section--1 rect,#zed_pr_57644_timeline .section--1 path,#zed_pr_57644_timeline .section--1 circle,#zed_pr_57644_timeline .section--1 path{fill:hsl(240, 100%, 76.2745098039%);}#zed_pr_57644_timeline .section--1 text{fill:#ffffff;}#zed_pr_57644_timeline .node-icon--1{font-size:40px;color:#ffffff;}#zed_pr_57644_timeline .section-edge--1{stroke:hsl(240, 100%, 76.2745098039%);}#zed_pr_57644_timeline .edge-depth--1{stroke-width:17;}#zed_pr_57644_timeline .section--1 line{stroke:hsl(60, 100%, 86.2745098039%);stroke-width:3;}#zed_pr_57644_timeline .lineWrapper line{stroke:#ffffff;}#zed_pr_57644_timeline .disabled,#zed_pr_57644_timeline .disabled circle,#zed_pr_57644_timeline .disabled text{fill:lightgray;}#zed_pr_57644_timeline .disabled text{fill:#efefef;}#zed_pr_57644_timeline .section-0 rect,#zed_pr_57644_timeline .section-0 path,#zed_pr_57644_timeline .section-0 circle,#zed_pr_57644_timeline .section-0 path{fill:hsl(60, 100%, 73.5294117647%);}#zed_pr_57644_timeline .section-0 text{fill:black;}#zed_pr_57644_timeline .node-icon-0{font-size:40px;color:black;}#zed_pr_57644_timeline .section-edge-0{stroke:hsl(60, 100%, 73.5294117647%);}#zed_pr_57644_timeline .edge-depth-0{stroke-width:14;}#zed_pr_57644_timeline .section-0 line{stroke:hsl(240, 100%, 83.5294117647%);stroke-width:3;}#zed_pr_57644_timeline .lineWrapper line{stroke:black;}#zed_pr_57644_timeline .disabled,#zed_pr_57644_timeline .disabled circle,#zed_pr_57644_timeline .disabled text{fill:lightgray;}#zed_pr_57644_timeline .disabled text{fill:#efefef;}#zed_pr_57644_timeline .section-1 rect,#zed_pr_57644_timeline .section-1 path,#zed_pr_57644_timeline .section-1 circle,#zed_pr_57644_timeline .section-1 path{fill:hsl(80, 100%, 76.2745098039%);}#zed_pr_57644_timeline .section-1 text{fill:black;}#zed_pr_57644_timeline .node-icon-1{font-size:40px;color:black;}#zed_pr_57644_timeline .section-edge-1{stroke:hsl(80, 100%, 76.2745098039%);}#zed_pr_57644_timeline .edge-depth-1{stroke-width:11;}#zed_pr_57644_timeline .section-1 line{stroke:hsl(260, 100%, 86.2745098039%);stroke-width:3;}#zed_pr_57644_timeline .lineWrapper line{stroke:black;}#zed_pr_57644_timeline .disabled,#zed_pr_57644_timeline .disabled circle,#zed_pr_57644_timeline .disabled text{fill:lightgray;}#zed_pr_57644_timeline .disabled text{fill:#efefef;}#zed_pr_57644_timeline .section-2 rect,#zed_pr_57644_timeline .section-2 path,#zed_pr_57644_timeline .section-2 circle,#zed_pr_57644_timeline .section-2 path{fill:hsl(270, 100%, 76.2745098039%);}#zed_pr_57644_timeline .section-2 text{fill:#ffffff;}#zed_pr_57644_timeline .node-icon-2{font-size:40px;color:#ffffff;}#zed_pr_57644_timeline .section-edge-2{stroke:hsl(270, 100%, 76.2745098039%);}#zed_pr_57644_timeline .edge-depth-2{stroke-width:8;}#zed_pr_57644_timeline .section-2 line{stroke:hsl(90, 100%, 86.2745098039%);stroke-width:3;}#zed_pr_57644_timeline .lineWrapper line{stroke:#ffffff;}#zed_pr_57644_timeline .disabled,#zed_pr_57644_timeline .disabled circle,#zed_pr_57644_timeline .disabled text{fill:lightgray;}#zed_pr_57644_timeline .disabled text{fill:#efefef;}#zed_pr_57644_timeline .section-3 rect,#zed_pr_57644_timeline .section-3 path,#zed_pr_57644_timeline .section-3 circle,#zed_pr_57644_timeline .section-3 path{fill:hsl(300, 100%, 76.2745098039%);}#zed_pr_57644_timeline .section-3 text{fill:black;}#zed_pr_57644_timeline .node-icon-3{font-size:40px;color:black;}#zed_pr_57644_timeline .section-edge-3{stroke:hsl(300, 100%, 76.2745098039%);}#zed_pr_57644_timeline .edge-depth-3{stroke-width:5;}#zed_pr_57644_timeline .section-3 line{stroke:hsl(120, 100%, 86.2745098039%);stroke-width:3;}#zed_pr_57644_timeline .lineWrapper line{stroke:black;}#zed_pr_57644_timeline .disabled,#zed_pr_57644_timeline .disabled circle,#zed_pr_57644_timeline .disabled text{fill:lightgray;}#zed_pr_57644_timeline .disabled text{fill:#efefef;}#zed_pr_57644_timeline .section-4 rect,#zed_pr_57644_timeline .section-4 path,#zed_pr_57644_timeline .section-4 circle,#zed_pr_57644_timeline .section-4 path{fill:hsl(330, 100%, 76.2745098039%);}#zed_pr_57644_timeline .section-4 text{fill:black;}#zed_pr_57644_timeline .node-icon-4{font-size:40px;color:black;}#zed_pr_57644_timeline .section-edge-4{stroke:hsl(330, 100%, 76.2745098039%);}#zed_pr_57644_timeline .edge-depth-4{stroke-width:2;}#zed_pr_57644_timeline .section-4 line{stroke:hsl(150, 100%, 86.2745098039%);stroke-width:3;}#zed_pr_57644_timeline .lineWrapper line{stroke:black;}#zed_pr_57644_timeline .disabled,#zed_pr_57644_timeline .disabled circle,#zed_pr_57644_timeline .disabled text{fill:lightgray;}#zed_pr_57644_timeline .disabled text{fill:#efefef;}#zed_pr_57644_timeline .section-5 rect,#zed_pr_57644_timeline .section-5 path,#zed_pr_57644_timeline .section-5 circle,#zed_pr_57644_timeline .section-5 path{fill:hsl(0, 100%, 76.2745098039%);}#zed_pr_57644_timeline .section-5 text{fill:black;}#zed_pr_57644_timeline .node-icon-5{font-size:40px;color:black;}#zed_pr_57644_timeline .section-edge-5{stroke:hsl(0, 100%, 76.2745098039%);}#zed_pr_57644_timeline .edge-depth-5{stroke-width:-1;}#zed_pr_57644_timeline .section-5 line{stroke:hsl(180, 100%, 86.2745098039%);stroke-width:3;}#zed_pr_57644_timeline .lineWrapper line{stroke:black;}#zed_pr_57644_timeline .disabled,#zed_pr_57644_timeline .disabled circle,#zed_pr_57644_timeline .disabled text{fill:lightgray;}#zed_pr_57644_timeline .disabled text{fill:#efefef;}#zed_pr_57644_timeline .section-6 rect,#zed_pr_57644_timeline .section-6 path,#zed_pr_57644_timeline .section-6 circle,#zed_pr_57644_timeline .section-6 path{fill:hsl(30, 100%, 76.2745098039%);}#zed_pr_57644_timeline .section-6 text{fill:black;}#zed_pr_57644_timeline .node-icon-6{font-size:40px;color:black;}#zed_pr_57644_timeline .section-edge-6{stroke:hsl(30, 100%, 76.2745098039%);}#zed_pr_57644_timeline .edge-depth-6{stroke-width:-4;}#zed_pr_57644_timeline .section-6 line{stroke:hsl(210, 100%, 86.2745098039%);stroke-width:3;}#zed_pr_57644_timeline .lineWrapper line{stroke:black;}#zed_pr_57644_timeline .disabled,#zed_pr_57644_timeline .disabled circle,#zed_pr_57644_timeline .disabled text{fill:lightgray;}#zed_pr_57644_timeline .disabled text{fill:#efefef;}#zed_pr_57644_timeline .section-7 rect,#zed_pr_57644_timeline .section-7 path,#zed_pr_57644_timeline .section-7 circle,#zed_pr_57644_timeline .section-7 path{fill:hsl(90, 100%, 76.2745098039%);}#zed_pr_57644_timeline .section-7 text{fill:black;}#zed_pr_57644_timeline .node-icon-7{font-size:40px;color:black;}#zed_pr_57644_timeline .section-edge-7{stroke:hsl(90, 100%, 76.2745098039%);}#zed_pr_57644_timeline .edge-depth-7{stroke-width:-7;}#zed_pr_57644_timeline .section-7 line{stroke:hsl(270, 100%, 86.2745098039%);stroke-width:3;}#zed_pr_57644_timeline .lineWrapper line{stroke:black;}#zed_pr_57644_timeline .disabled,#zed_pr_57644_timeline .disabled circle,#zed_pr_57644_timeline .disabled text{fill:lightgray;}#zed_pr_57644_timeline .disabled text{fill:#efefef;}#zed_pr_57644_timeline .section-8 rect,#zed_pr_57644_timeline .section-8 path,#zed_pr_57644_timeline .section-8 circle,#zed_pr_57644_timeline .section-8 path{fill:hsl(150, 100%, 76.2745098039%);}#zed_pr_57644_timeline .section-8 text{fill:black;}#zed_pr_57644_timeline .node-icon-8{font-size:40px;color:black;}#zed_pr_57644_timeline .section-edge-8{stroke:hsl(150, 100%, 76.2745098039%);}#zed_pr_57644_timeline .edge-depth-8{stroke-width:-10;}#zed_pr_57644_timeline .section-8 line{stroke:hsl(330, 100%, 86.2745098039%);stroke-width:3;}#zed_pr_57644_timeline .lineWrapper line{stroke:black;}#zed_pr_57644_timeline .disabled,#zed_pr_57644_timeline .disabled circle,#zed_pr_57644_timeline .disabled text{fill:lightgray;}#zed_pr_57644_timeline .disabled text{fill:#efefef;}#zed_pr_57644_timeline .section-9 rect,#zed_pr_57644_timeline .section-9 path,#zed_pr_57644_timeline .section-9 circle,#zed_pr_57644_timeline .section-9 path{fill:hsl(180, 100%, 76.2745098039%);}#zed_pr_57644_timeline .section-9 text{fill:black;}#zed_pr_57644_timeline .node-icon-9{font-size:40px;color:black;}#zed_pr_57644_timeline .section-edge-9{stroke:hsl(180, 100%, 76.2745098039%);}#zed_pr_57644_timeline .edge-depth-9{stroke-width:-13;}#zed_pr_57644_timeline .section-9 line{stroke:hsl(0, 100%, 86.2745098039%);stroke-width:3;}#zed_pr_57644_timeline .lineWrapper line{stroke:black;}#zed_pr_57644_timeline .disabled,#zed_pr_57644_timeline .disabled circle,#zed_pr_57644_timeline .disabled text{fill:lightgray;}#zed_pr_57644_timeline .disabled text{fill:#efefef;}#zed_pr_57644_timeline .section-10 rect,#zed_pr_57644_timeline .section-10 path,#zed_pr_57644_timeline .section-10 circle,#zed_pr_57644_timeline .section-10 path{fill:hsl(210, 100%, 76.2745098039%);}#zed_pr_57644_timeline .section-10 text{fill:black;}#zed_pr_57644_timeline .node-icon-10{font-size:40px;color:black;}#zed_pr_57644_timeline .section-edge-10{stroke:hsl(210, 100%, 76.2745098039%);}#zed_pr_57644_timeline .edge-depth-10{stroke-width:-16;}#zed_pr_57644_timeline .section-10 line{stroke:hsl(30, 100%, 86.2745098039%);stroke-width:3;}#zed_pr_57644_timeline .lineWrapper line{stroke:black;}#zed_pr_57644_timeline .disabled,#zed_pr_57644_timeline .disabled circle,#zed_pr_57644_timeline .disabled text{fill:lightgray;}#zed_pr_57644_timeline .disabled text{fill:#efefef;}#zed_pr_57644_timeline .section-root rect,#zed_pr_57644_timeline .section-root path,#zed_pr_57644_timeline .section-root circle{fill:hsl(240, 100%, 46.2745098039%);}#zed_pr_57644_timeline .section-root text{fill:#ffffff;}#zed_pr_57644_timeline .icon-container{height:100%;display:flex;justify-content:center;align-items:center;}#zed_pr_57644_timeline .edge{fill:none;}#zed_pr_57644_timeline .eventWrapper{filter:brightness(120%);}#zed_pr_57644_timeline :root{--mermaid-font-family:"trebuchet ms",verdana,arial,sans-serif;}</style><g/><g/><defs><marker id="arrowhead" refX="5" refY="2" markerWidth="6" markerHeight="4" orient="auto"><path d="M 0,0 V 4 L6,2 Z"/></marker></defs><g transform="translate(200, 50)"><g class="timeline-node section--1"><g><path id="node-undefined" class="node-bkg node-undefined" d="M0 62.8 v-57.8 q0,-5 5,-5 h580 q5,0 5,5 v62.8 H0 Z"/><line class="node-line--1" x1="0" y1="67.8" x2="590" y2="67.8"/></g><g transform="translate(295, 10)"><text dy="1em" alignment-baseline="middle" dominant-baseline="middle" text-anchor="middle"><tspan x="0" dy="1em">2000s</tspan></text></g></g></g><g class="taskWrapper" transform="translate(200, 167.8)"><g class="timeline-node section--1"><g><path id="node-undefined" class="node-bkg node-undefined" d="M0 62.8 v-57.8 q0,-5 5,-5 h180 q5,0 5,5 v62.8 H0 Z"/><line class="node-line--1" x1="0" y1="67.8" x2="190" y2="67.8"/></g><g transform="translate(95, 10)"><text dy="1em" alignment-baseline="middle" dominant-baseline="middle" text-anchor="middle"><tspan x="0" dy="1em">2004</tspan></text></g></g></g><g class="lineWrapper"><line x1="295" y1="235.60000000000002" x2="295" y2="576.3999969482422" stroke-width="2" stroke="black" marker-end="url(#arrowhead)" stroke-dasharray="5,5"/></g><g class="eventWrapper" transform="translate(200, 367.8)"><g class="timeline-node section--1"><g><path id="node-undefined" class="node-bkg node-undefined" d="M0 60.39999847412109 v-55.39999847412109 q0,-5 5,-5 h180 q5,0 5,5 v60.39999847412109 H0 Z"/><line class="node-line--1" x1="0" y1="65.39999847412109" x2="190" y2="65.39999847412109"/></g><g transform="translate(95, 10)"><text dy="1em" alignment-baseline="middle" dominant-baseline="middle" text-anchor="middle"><tspan x="0" dy="1em">Ruby   on   Rails</tspan><tspan x="0" dy="1.1em">released</tspan></text></g></g></g><g class="eventWrapper" transform="translate(200, 443.1999984741211)"><g class="timeline-node section--1"><g><path id="node-undefined" class="node-bkg node-undefined" d="M0 45 v-40 q0,-5 5,-5 h180 q5,0 5,5 v45 H0 Z"/><line class="node-line--1" x1="0" y1="50" x2="190" y2="50"/></g><g transform="translate(95, 10)"><text dy="1em" alignment-baseline="middle" dominant-baseline="middle" text-anchor="middle"><tspan x="0" dy="1em">Catalyst   (Perl)</tspan></text></g></g></g><g class="taskWrapper" transform="translate(400, 167.8)"><g class="timeline-node section--1"><g><path id="node-undefined" class="node-bkg node-undefined" d="M0 62.8 v-57.8 q0,-5 5,-5 h180 q5,0 5,5 v62.8 H0 Z"/><line class="node-line--1" x1="0" y1="67.8" x2="190" y2="67.8"/></g><g transform="translate(95, 10)"><text dy="1em" alignment-baseline="middle" dominant-baseline="middle" text-anchor="middle"><tspan x="0" dy="1em">2005</tspan></text></g></g></g><g class="lineWrapper"><line x1="495" y1="235.60000000000002" x2="495" y2="576.3999969482422" stroke-width="2" stroke="black" marker-end="url(#arrowhead)" stroke-dasharray="5,5"/></g><g class="eventWrapper" transform="translate(400, 367.8)"><g class="timeline-node section--1"><g><path id="node-undefined" class="node-bkg node-undefined" d="M0 45 v-40 q0,-5 5,-5 h180 q5,0 5,5 v45 H0 Z"/><line class="node-line--1" x1="0" y1="50" x2="190" y2="50"/></g><g transform="translate(95, 10)"><text dy="1em" alignment-baseline="middle" dominant-baseline="middle" text-anchor="middle"><tspan x="0" dy="1em">Django   (Python)</tspan></text></g></g></g><g class="eventWrapper" transform="translate(400, 427.8)"><g class="timeline-node section--1"><g><path id="node-undefined" class="node-bkg node-undefined" d="M0 60.39999847412109 v-55.39999847412109 q0,-5 5,-5 h180 q5,0 5,5 v60.39999847412109 H0 Z"/><line class="node-line--1" x1="0" y1="65.39999847412109" x2="190" y2="65.39999847412109"/></g><g transform="translate(95, 10)"><text dy="1em" alignment-baseline="middle" dominant-baseline="middle" text-anchor="middle"><tspan x="0" dy="1em">Spring   MVC   gains</tspan><tspan x="0" dy="1.1em">traction</tspan></text></g></g></g><g class="taskWrapper" transform="translate(600, 167.8)"><g class="timeline-node section--1"><g><path id="node-undefined" class="node-bkg node-undefined" d="M0 62.8 v-57.8 q0,-5 5,-5 h180 q5,0 5,5 v62.8 H0 Z"/><line class="node-line--1" x1="0" y1="67.8" x2="190" y2="67.8"/></g><g transform="translate(95, 10)"><text dy="1em" alignment-baseline="middle" dominant-baseline="middle" text-anchor="middle"><tspan x="0" dy="1em">2006</tspan></text></g></g></g><g class="lineWrapper"><line x1="695" y1="235.60000000000002" x2="695" y2="576.3999969482422" stroke-width="2" stroke="black" marker-end="url(#arrowhead)" stroke-dasharray="5,5"/></g><g class="eventWrapper" transform="translate(600, 367.8)"><g class="timeline-node section--1"><g><path id="node-undefined" class="node-bkg node-undefined" d="M0 60.39999847412109 v-55.39999847412109 q0,-5 5,-5 h180 q5,0 5,5 v60.39999847412109 H0 Z"/><line class="node-line--1" x1="0" y1="65.39999847412109" x2="190" y2="65.39999847412109"/></g><g transform="translate(95, 10)"><text dy="1em" alignment-baseline="middle" dominant-baseline="middle" text-anchor="middle"><tspan x="0" dy="1em">jQuery   simplifies</tspan><tspan x="0" dy="1.1em">DOM</tspan></text></g></g></g><g transform="translate(800, 50)"><g class="timeline-node section-0"><g><path id="node-undefined" class="node-bkg node-undefined" d="M0 62.8 v-57.8 q0,-5 5,-5 h780 q5,0 5,5 v62.8 H0 Z"/><line class="node-line-0" x1="0" y1="67.8" x2="790" y2="67.8"/></g><g transform="translate(395, 10)"><text dy="1em" alignment-baseline="middle" dominant-baseline="middle" text-anchor="middle"><tspan x="0" dy="1em">2010s</tspan></text></g></g></g><g class="taskWrapper" transform="translate(800, 167.8)"><g class="timeline-node section-0"><g><path id="node-undefined" class="node-bkg node-undefined" d="M0 62.8 v-57.8 q0,-5 5,-5 h180 q5,0 5,5 v62.8 H0 Z"/><line class="node-line-0" x1="0" y1="67.8" x2="190" y2="67.8"/></g><g transform="translate(95, 10)"><text dy="1em" alignment-baseline="middle" dominant-baseline="middle" text-anchor="middle"><tspan x="0" dy="1em">2010</tspan></text></g></g></g><g class="lineWrapper"><line x1="895" y1="235.60000000000002" x2="895" y2="576.3999969482422" stroke-width="2" stroke="black" marker-end="url(#arrowhead)" stroke-dasharray="5,5"/></g><g class="eventWrapper" transform="translate(800, 367.8)"><g class="timeline-node section-0"><g><path id="node-undefined" class="node-bkg node-undefined" d="M0 45 v-40 q0,-5 5,-5 h180 q5,0 5,5 v45 H0 Z"/><line class="node-line-0" x1="0" y1="50" x2="190" y2="50"/></g><g transform="translate(95, 10)"><text dy="1em" alignment-baseline="middle" dominant-baseline="middle" text-anchor="middle"><tspan x="0" dy="1em">AngularJS   by   Google</tspan></text></g></g></g><g class="eventWrapper" transform="translate(800, 427.8)"><g class="timeline-node section-0"><g><path id="node-undefined" class="node-bkg node-undefined" d="M0 45 v-40 q0,-5 5,-5 h180 q5,0 5,5 v45 H0 Z"/><line class="node-line-0" x1="0" y1="50" x2="190" y2="50"/></g><g transform="translate(95, 10)"><text dy="1em" alignment-baseline="middle" dominant-baseline="middle" text-anchor="middle"><tspan x="0" dy="1em">Backbone.js</tspan></text></g></g></g><g class="taskWrapper" transform="translate(1000, 167.8)"><g class="timeline-node section-0"><g><path id="node-undefined" class="node-bkg node-undefined" d="M0 62.8 v-57.8 q0,-5 5,-5 h180 q5,0 5,5 v62.8 H0 Z"/><line class="node-line-0" x1="0" y1="67.8" x2="190" y2="67.8"/></g><g transform="translate(95, 10)"><text dy="1em" alignment-baseline="middle" dominant-baseline="middle" text-anchor="middle"><tspan x="0" dy="1em">2013</tspan></text></g></g></g><g class="lineWrapper"><line x1="1095" y1="235.60000000000002" x2="1095" y2="576.3999969482422" stroke-width="2" stroke="black" marker-end="url(#arrowhead)" stroke-dasharray="5,5"/></g><g class="eventWrapper" transform="translate(1000, 367.8)"><g class="timeline-node section-0"><g><path id="node-undefined" class="node-bkg node-undefined" d="M0 45 v-40 q0,-5 5,-5 h180 q5,0 5,5 v45 H0 Z"/><line class="node-line-0" x1="0" y1="50" x2="190" y2="50"/></g><g transform="translate(95, 10)"><text dy="1em" alignment-baseline="middle" dominant-baseline="middle" text-anchor="middle"><tspan x="0" dy="1em">React   by   Facebook</tspan></text></g></g></g><g class="taskWrapper" transform="translate(1200, 167.8)"><g class="timeline-node section-0"><g><path id="node-undefined" class="node-bkg node-undefined" d="M0 62.8 v-57.8 q0,-5 5,-5 h180 q5,0 5,5 v62.8 H0 Z"/><line class="node-line-0" x1="0" y1="67.8" x2="190" y2="67.8"/></g><g transform="translate(95, 10)"><text dy="1em" alignment-baseline="middle" dominant-baseline="middle" text-anchor="middle"><tspan x="0" dy="1em">2014</tspan></text></g></g></g><g class="lineWrapper"><line x1="1295" y1="235.60000000000002" x2="1295" y2="576.3999969482422" stroke-width="2" stroke="black" marker-end="url(#arrowhead)" stroke-dasharray="5,5"/></g><g class="eventWrapper" transform="translate(1200, 367.8)"><g class="timeline-node section-0"><g><path id="node-undefined" class="node-bkg node-undefined" d="M0 45 v-40 q0,-5 5,-5 h180 q5,0 5,5 v45 H0 Z"/><line class="node-line-0" x1="0" y1="50" x2="190" y2="50"/></g><g transform="translate(95, 10)"><text dy="1em" alignment-baseline="middle" dominant-baseline="middle" text-anchor="middle"><tspan x="0" dy="1em">Vue.js   by   Evan   You</tspan></text></g></g></g><g class="taskWrapper" transform="translate(1400, 167.8)"><g class="timeline-node section-0"><g><path id="node-undefined" class="node-bkg node-undefined" d="M0 62.8 v-57.8 q0,-5 5,-5 h180 q5,0 5,5 v62.8 H0 Z"/><line class="node-line-0" x1="0" y1="67.8" x2="190" y2="67.8"/></g><g transform="translate(95, 10)"><text dy="1em" alignment-baseline="middle" dominant-baseline="middle" text-anchor="middle"><tspan x="0" dy="1em">2016</tspan></text></g></g></g><g class="lineWrapper"><line x1="1495" y1="235.60000000000002" x2="1495" y2="576.3999969482422" stroke-width="2" stroke="black" marker-end="url(#arrowhead)" stroke-dasharray="5,5"/></g><g class="eventWrapper" transform="translate(1400, 367.8)"><g class="timeline-node section-0"><g><path id="node-undefined" class="node-bkg node-undefined" d="M0 45 v-40 q0,-5 5,-5 h180 q5,0 5,5 v45 H0 Z"/><line class="node-line-0" x1="0" y1="50" x2="190" y2="50"/></g><g transform="translate(95, 10)"><text dy="1em" alignment-baseline="middle" dominant-baseline="middle" text-anchor="middle"><tspan x="0" dy="1em">Angular   2   rewrite</tspan></text></g></g></g><g class="eventWrapper" transform="translate(1400, 427.8)"><g class="timeline-node section-0"><g><path id="node-undefined" class="node-bkg node-undefined" d="M0 60.39999847412109 v-55.39999847412109 q0,-5 5,-5 h180 q5,0 5,5 v60.39999847412109 H0 Z"/><line class="node-line-0" x1="0" y1="65.39999847412109" x2="190" y2="65.39999847412109"/></g><g transform="translate(95, 10)"><text dy="1em" alignment-baseline="middle" dominant-baseline="middle" text-anchor="middle"><tspan x="0" dy="1em">Next.js   for   SSR</tspan><tspan x="0" dy="1.1em">React</tspan></text></g></g></g><g transform="translate(1600, 50)"><g class="timeline-node section-1"><g><path id="node-undefined" class="node-bkg node-undefined" d="M0 62.8 v-57.8 q0,-5 5,-5 h580 q5,0 5,5 v62.8 H0 Z"/><line class="node-line-1" x1="0" y1="67.8" x2="590" y2="67.8"/></g><g transform="translate(295, 10)"><text dy="1em" alignment-baseline="middle" dominant-baseline="middle" text-anchor="middle"><tspan x="0" dy="1em">2020s</tspan></text></g></g></g><g class="taskWrapper" transform="translate(1600, 167.8)"><g class="timeline-node section-1"><g><path id="node-undefined" class="node-bkg node-undefined" d="M0 62.8 v-57.8 q0,-5 5,-5 h180 q5,0 5,5 v62.8 H0 Z"/><line class="node-line-1" x1="0" y1="67.8" x2="190" y2="67.8"/></g><g transform="translate(95, 10)"><text dy="1em" alignment-baseline="middle" dominant-baseline="middle" text-anchor="middle"><tspan x="0" dy="1em">2020</tspan></text></g></g></g><g class="lineWrapper"><line x1="1695" y1="235.60000000000002" x2="1695" y2="576.3999969482422" stroke-width="2" stroke="black" marker-end="url(#arrowhead)" stroke-dasharray="5,5"/></g><g class="eventWrapper" transform="translate(1600, 367.8)"><g class="timeline-node section-1"><g><path id="node-undefined" class="node-bkg node-undefined" d="M0 45 v-40 q0,-5 5,-5 h180 q5,0 5,5 v45 H0 Z"/><line class="node-line-1" x1="0" y1="50" x2="190" y2="50"/></g><g transform="translate(95, 10)"><text dy="1em" alignment-baseline="middle" dominant-baseline="middle" text-anchor="middle"><tspan x="0" dy="1em">Svelte   3   momentum</tspan></text></g></g></g><g class="eventWrapper" transform="translate(1600, 427.8)"><g class="timeline-node section-1"><g><path id="node-undefined" class="node-bkg node-undefined" d="M0 60.39999847412109 v-55.39999847412109 q0,-5 5,-5 h180 q5,0 5,5 v60.39999847412109 H0 Z"/><line class="node-line-1" x1="0" y1="65.39999847412109" x2="190" y2="65.39999847412109"/></g><g transform="translate(95, 10)"><text dy="1em" alignment-baseline="middle" dominant-baseline="middle" text-anchor="middle"><tspan x="0" dy="1em">Tailwind   CSS</tspan><tspan x="0" dy="1.1em">adoption</tspan></text></g></g></g><g class="taskWrapper" transform="translate(1800, 167.8)"><g class="timeline-node section-1"><g><path id="node-undefined" class="node-bkg node-undefined" d="M0 62.8 v-57.8 q0,-5 5,-5 h180 q5,0 5,5 v62.8 H0 Z"/><line class="node-line-1" x1="0" y1="67.8" x2="190" y2="67.8"/></g><g transform="translate(95, 10)"><text dy="1em" alignment-baseline="middle" dominant-baseline="middle" text-anchor="middle"><tspan x="0" dy="1em">2022</tspan></text></g></g></g><g class="lineWrapper"><line x1="1895" y1="235.60000000000002" x2="1895" y2="576.3999969482422" stroke-width="2" stroke="black" marker-end="url(#arrowhead)" stroke-dasharray="5,5"/></g><g class="eventWrapper" transform="translate(1800, 367.8)"><g class="timeline-node section-1"><g><path id="node-undefined" class="node-bkg node-undefined" d="M0 60.39999847412109 v-55.39999847412109 q0,-5 5,-5 h180 q5,0 5,5 v60.39999847412109 H0 Z"/><line class="node-line-1" x1="0" y1="65.39999847412109" x2="190" y2="65.39999847412109"/></g><g transform="translate(95, 10)"><text dy="1em" alignment-baseline="middle" dominant-baseline="middle" text-anchor="middle"><tspan x="0" dy="1em">React   Server</tspan><tspan x="0" dy="1.1em">Components</tspan></text></g></g></g><g class="eventWrapper" transform="translate(1800, 443.1999984741211)"><g class="timeline-node section-1"><g><path id="node-undefined" class="node-bkg node-undefined" d="M0 45 v-40 q0,-5 5,-5 h180 q5,0 5,5 v45 H0 Z"/><line class="node-line-1" x1="0" y1="50" x2="190" y2="50"/></g><g transform="translate(95, 10)"><text dy="1em" alignment-baseline="middle" dominant-baseline="middle" text-anchor="middle"><tspan x="0" dy="1em">Astro   1.0</tspan></text></g></g></g><g class="taskWrapper" transform="translate(2000, 167.8)"><g class="timeline-node section-1"><g><path id="node-undefined" class="node-bkg node-undefined" d="M0 62.8 v-57.8 q0,-5 5,-5 h180 q5,0 5,5 v62.8 H0 Z"/><line class="node-line-1" x1="0" y1="67.8" x2="190" y2="67.8"/></g><g transform="translate(95, 10)"><text dy="1em" alignment-baseline="middle" dominant-baseline="middle" text-anchor="middle"><tspan x="0" dy="1em">2024</tspan></text></g></g></g><g class="lineWrapper"><line x1="2095" y1="235.60000000000002" x2="2095" y2="576.3999969482422" stroke-width="2" stroke="black" marker-end="url(#arrowhead)" stroke-dasharray="5,5"/></g><g class="eventWrapper" transform="translate(2000, 367.8)"><g class="timeline-node section-1"><g><path id="node-undefined" class="node-bkg node-undefined" d="M0 60.39999847412109 v-55.39999847412109 q0,-5 5,-5 h180 q5,0 5,5 v60.39999847412109 H0 Z"/><line class="node-line-1" x1="0" y1="65.39999847412109" x2="190" y2="65.39999847412109"/></g><g transform="translate(95, 10)"><text dy="1em" alignment-baseline="middle" dominant-baseline="middle" text-anchor="middle"><tspan x="0" dy="1em">AI-assisted</tspan><tspan x="0" dy="1.1em">development</tspan></text></g></g></g><g class="eventWrapper" transform="translate(2000, 443.1999984741211)"><g class="timeline-node section-1"><g><path id="node-undefined" class="node-bkg node-undefined" d="M0 60.39999847412109 v-55.39999847412109 q0,-5 5,-5 h180 q5,0 5,5 v60.39999847412109 H0 Z"/><line class="node-line-1" x1="0" y1="65.39999847412109" x2="190" y2="65.39999847412109"/></g><g transform="translate(95, 10)"><text dy="1em" alignment-baseline="middle" dominant-baseline="middle" text-anchor="middle"><tspan x="0" dy="1em">Edge-first</tspan><tspan x="0" dy="1.1em">frameworks</tspan></text></g></g></g><text x="845" font-size="4ex" font-weight="bold" y="20">History of Web Development Frameworks</text><g class="lineWrapper"><line x1="150" y1="285.6" x2="2440" y2="285.6" stroke-width="4" stroke="black" marker-end="url(#arrowhead)"/></g></svg>