<svg id="choice_optional_repetition" width="100%" xmlns="http://www.w3.org/2000/svg" xmlns:xlink="http://www.w3.org/1999/xlink" class="railroad-diagram" style="max-width: 397.266px; background-color: white;" viewBox="0 0 397.265625 174" role="graphics-document document" aria-roledescription="railroadEbnf"><style>#choice_optional_repetition{font-family:"trebuchet ms",verdana,arial,sans-serif;font-size:16px;fill:#333;}@keyframes edge-animation-frame{from{stroke-dashoffset:0;}}@keyframes dash{to{stroke-dashoffset:0;}}#choice_optional_repetition .edge-animation-slow{stroke-dasharray:9,5!important;stroke-dashoffset:900;animation:dash 50s linear infinite;stroke-linecap:round;}#choice_optional_repetition .edge-animation-fast{stroke-dasharray:9,5!important;stroke-dashoffset:900;animation:dash 20s linear infinite;stroke-linecap:round;}#choice_optional_repetition .error-icon{fill:#552222;}#choice_optional_repetition .error-text{fill:#552222;stroke:#552222;}#choice_optional_repetition .edge-thickness-normal{stroke-width:1px;}#choice_optional_repetition .edge-thickness-thick{stroke-width:3.5px;}#choice_optional_repetition .edge-pattern-solid{stroke-dasharray:0;}#choice_optional_repetition .edge-thickness-invisible{stroke-width:0;fill:none;}#choice_optional_repetition .edge-pattern-dashed{stroke-dasharray:3;}#choice_optional_repetition .edge-pattern-dotted{stroke-dasharray:2;}#choice_optional_repetition .marker{fill:#333333;stroke:#333333;}#choice_optional_repetition .marker.cross{stroke:#333333;}#choice_optional_repetition svg{font-family:"trebuchet ms",verdana,arial,sans-serif;font-size:16px;}#choice_optional_repetition p{margin:0;}#choice_optional_repetition .railroad-diagram{font-family:"trebuchet ms",verdana,arial,sans-serif;font-size:16px;}#choice_optional_repetition .railroad-terminal rect{fill:#ffffde;stroke:hsl(60, 60%, 83.5294117647%);stroke-width:2px;}#choice_optional_repetition .railroad-terminal text{fill:#000021;font-family:"trebuchet ms",verdana,arial,sans-serif;font-size:16px;text-anchor:middle;dominant-baseline:middle;}#choice_optional_repetition .railroad-nonterminal rect{fill:#ECECFF;stroke:hsl(240, 60%, 86.2745098039%);stroke-width:2px;}#choice_optional_repetition .railroad-nonterminal text{fill:#131300;font-family:"trebuchet ms",verdana,arial,sans-serif;font-size:16px;text-anchor:middle;dominant-baseline:middle;}#choice_optional_repetition .railroad-line{stroke:#333333;stroke-width:2px;fill:none;}#choice_optional_repetition .railroad-start circle,#choice_optional_repetition .railroad-end circle{fill:#333333;}#choice_optional_repetition .railroad-comment ellipse{fill:rgba(232,232,232, 0.8);stroke:hsl(80, 60%, 86.2745098039%);stroke-width:2px;}#choice_optional_repetition .railroad-comment text{fill:rgb(6.3333333334, 0, 19.0000000001);font-style:italic;font-family:"trebuchet ms",verdana,arial,sans-serif;font-size:16px;text-anchor:middle;dominant-baseline:middle;}#choice_optional_repetition .railroad-special rect{fill:hsl(80, 100%, 96.2745098039%);stroke:hsl(80, 60%, 86.2745098039%);stroke-width:2px;stroke-dasharray:5,3;}#choice_optional_repetition .railroad-special text{fill:#131300;font-family:"trebuchet ms",verdana,arial,sans-serif;font-size:16px;text-anchor:middle;dominant-baseline:middle;}#choice_optional_repetition .railroad-rule-name{font-weight:bold;fill:#333;font-family:"trebuchet ms",verdana,arial,sans-serif;font-size:16px;}#choice_optional_repetition .node .neo-node{stroke:#9370DB;}#choice_optional_repetition [data-look="neo"].node rect,#choice_optional_repetition [data-look="neo"].cluster rect,#choice_optional_repetition [data-look="neo"].node polygon{stroke:#9370DB;filter:drop-shadow(1px 2px 2px rgba(185, 185, 185, 1));}#choice_optional_repetition [data-look="neo"].swimlane.cluster rect{filter:none;}#choice_optional_repetition [data-look="neo"].node path{stroke:#9370DB;stroke-width:1px;}#choice_optional_repetition [data-look="neo"].node .outer-path{filter:drop-shadow(1px 2px 2px rgba(185, 185, 185, 1));}#choice_optional_repetition [data-look="neo"].node .neo-line path{stroke:#9370DB;filter:none;}#choice_optional_repetition [data-look="neo"].node circle{stroke:#9370DB;filter:drop-shadow(1px 2px 2px rgba(185, 185, 185, 1));}#choice_optional_repetition [data-look="neo"].node circle .state-start{fill:#000000;}#choice_optional_repetition [data-look="neo"].icon-shape .icon{fill:#9370DB;filter:drop-shadow(1px 2px 2px rgba(185, 185, 185, 1));}#choice_optional_repetition [data-look="neo"].icon-shape .icon-neo path{stroke:#9370DB;filter:drop-shadow(1px 2px 2px rgba(185, 185, 185, 1));}#choice_optional_repetition :root{--mermaid-font-family:"trebuchet ms",verdana,arial,sans-serif;}</style><g/><g class="railroad-rule" transform="translate(0, 10)"><g transform="translate(81.625, 0)"><g class="railroad-choice"><g class="railroad-terminal" transform="translate(125.8203125, 0)"><rect x="0" y="0" width="29" height="39" rx="10" ry="10"/><text x="14.5" y="19.5">a</text></g><path class="railroad-line" d="M 0 63 A 10 10 0 0 0 10 53 L 10 29.5 A 10 10 0 0 1 20 19.5 L 125.8203125 19.5"/><path class="railroad-line" d="M 154.8203125 19.5 L 260.640625 19.5 A 10 10 0 0 1 270.640625 29.5 L 270.640625 53 A 10 10 0 0 0 280.640625 63"/><g class="railroad-sequence" transform="translate(20, 47)"><g class="railroad-optional" transform="translate(0, 0)"><g class="railroad-nonterminal" transform="translate(20, 20)"><rect x="0" y="0" width="59.3984375" height="39"/><text x="29.69921875" y="19.5">other</text></g><path class="railroad-line" d="M 0 39.5 L 20 39.5"/><path class="railroad-line" d="M 79.3984375 39.5 L 99.3984375 39.5"/><path class="railroad-line" d="M 0 39.5 A 10 10 0 0 0 10 29.5 L 10 10 A 10 10 0 0 1 20 0 L 79.3984375 0 A 10 10 0 0 1 89.3984375 10 L 89.3984375 29.5 A 10 10 0 0 0 99.3984375 39.5"/></g><path class="railroad-line" d="M 99.3984375 39.5 L 109.3984375 39.5"/><g class="railroad-repetition" transform="translate(109.3984375, 0)"><g class="railroad-special" transform="translate(20, 20)"><rect x="0" y="0" width="91.2421875" height="39"/><text x="45.62109375" y="19.5">? special ?</text></g><path class="railroad-line" d="M 0 39.5 L 20 39.5"/><path class="railroad-line" d="M 111.2421875 39.5 L 131.2421875 39.5"/><path class="railroad-line" d="M 111.2421875 39.5 A 10 10 0 0 1 121.2421875 49.5 L 121.2421875 69 A 10 10 0 0 1 111.2421875 79 L 20 79 A 10 10 0 0 1 10 69 L 10 49.5 A 10 10 0 0 1 20 39.5"/><path class="railroad-line" d="M 0 39.5 A 10 10 0 0 0 10 29.5 L 10 10 A 10 10 0 0 1 20 0 L 111.2421875 0 A 10 10 0 0 1 121.2421875 10 L 121.2421875 29.5 A 10 10 0 0 0 131.2421875 39.5"/></g></g><path class="railroad-line" d="M 0 63 A 10 10 0 0 1 10 73 L 10 76.5 A 10 10 0 0 0 20 86.5 L 20 86.5"/><path class="railroad-line" d="M 260.640625 86.5 L 260.640625 86.5 A 10 10 0 0 0 270.640625 76.5 L 270.640625 73 A 10 10 0 0 1 280.640625 63"/></g></g><g class="railroad-rule-name-group"><text class="railroad-rule-name" x="0" y="63">rule =</text></g><g class="railroad-start"><circle cx="61.625" cy="63" r="5"/></g><g class="railroad-end"><circle cx="372.265625" cy="63" r="5"/></g><path class="railroad-line" d="M 66.625 63 L 81.625 63"/><path class="railroad-line" d="M 362.265625 63 L 367.265625 63"/></g></svg>