<svg id="upstream_pkgtests_gitgraph_spec_054" width="100%" xmlns="http://www.w3.org/2000/svg" xmlns:xlink="http://www.w3.org/1999/xlink" style="max-width: 829.421875px; background-color: white;" viewBox="-171.421875 -19 829.421875 372.85455322265625" role="graphics-document document" aria-roledescription="gitGraph"><style>#upstream_pkgtests_gitgraph_spec_054{font-family:"trebuchet ms",verdana,arial,sans-serif;font-size:16px;fill:#333;}@keyframes edge-animation-frame{from{stroke-dashoffset:0;}}@keyframes dash{to{stroke-dashoffset:0;}}#upstream_pkgtests_gitgraph_spec_054 .edge-animation-slow{stroke-dasharray:9,5!important;stroke-dashoffset:900;animation:dash 50s linear infinite;stroke-linecap:round;}#upstream_pkgtests_gitgraph_spec_054 .edge-animation-fast{stroke-dasharray:9,5!important;stroke-dashoffset:900;animation:dash 20s linear infinite;stroke-linecap:round;}#upstream_pkgtests_gitgraph_spec_054 .error-icon{fill:#552222;}#upstream_pkgtests_gitgraph_spec_054 .error-text{fill:#552222;stroke:#552222;}#upstream_pkgtests_gitgraph_spec_054 .edge-thickness-normal{stroke-width:1px;}#upstream_pkgtests_gitgraph_spec_054 .edge-thickness-thick{stroke-width:3.5px;}#upstream_pkgtests_gitgraph_spec_054 .edge-pattern-solid{stroke-dasharray:0;}#upstream_pkgtests_gitgraph_spec_054 .edge-thickness-invisible{stroke-width:0;fill:none;}#upstream_pkgtests_gitgraph_spec_054 .edge-pattern-dashed{stroke-dasharray:3;}#upstream_pkgtests_gitgraph_spec_054 .edge-pattern-dotted{stroke-dasharray:2;}#upstream_pkgtests_gitgraph_spec_054 .marker{fill:#333333;stroke:#333333;}#upstream_pkgtests_gitgraph_spec_054 .marker.cross{stroke:#333333;}#upstream_pkgtests_gitgraph_spec_054 svg{font-family:"trebuchet ms",verdana,arial,sans-serif;font-size:16px;}#upstream_pkgtests_gitgraph_spec_054 p{margin:0;}#upstream_pkgtests_gitgraph_spec_054 .commit-id,#upstream_pkgtests_gitgraph_spec_054 .commit-msg,#upstream_pkgtests_gitgraph_spec_054 .branch-label{fill:lightgrey;color:lightgrey;font-family:'trebuchet ms',verdana,arial,sans-serif;font-family:var(--mermaid-font-family);}#upstream_pkgtests_gitgraph_spec_054 .branch-label0{fill:#ffffff;}#upstream_pkgtests_gitgraph_spec_054 .commit0{stroke:hsl(240, 100%, 46.2745098039%);fill:hsl(240, 100%, 46.2745098039%);}#upstream_pkgtests_gitgraph_spec_054 .commit-highlight0{stroke:hsl(60, 100%, 3.7254901961%);fill:hsl(60, 100%, 3.7254901961%);}#upstream_pkgtests_gitgraph_spec_054 .label0{fill:hsl(240, 100%, 46.2745098039%);}#upstream_pkgtests_gitgraph_spec_054 .arrow0{stroke:hsl(240, 100%, 46.2745098039%);}#upstream_pkgtests_gitgraph_spec_054 .branch-label1{fill:black;}#upstream_pkgtests_gitgraph_spec_054 .commit1{stroke:hsl(60, 100%, 43.5294117647%);fill:hsl(60, 100%, 43.5294117647%);}#upstream_pkgtests_gitgraph_spec_054 .commit-highlight1{stroke:rgb(0, 0, 160.5);fill:rgb(0, 0, 160.5);}#upstream_pkgtests_gitgraph_spec_054 .label1{fill:hsl(60, 100%, 43.5294117647%);}#upstream_pkgtests_gitgraph_spec_054 .arrow1{stroke:hsl(60, 100%, 43.5294117647%);}#upstream_pkgtests_gitgraph_spec_054 .branch-label2{fill:black;}#upstream_pkgtests_gitgraph_spec_054 .commit2{stroke:hsl(80, 100%, 46.2745098039%);fill:hsl(80, 100%, 46.2745098039%);}#upstream_pkgtests_gitgraph_spec_054 .commit-highlight2{stroke:rgb(48.8333333334, 0, 146.5000000001);fill:rgb(48.8333333334, 0, 146.5000000001);}#upstream_pkgtests_gitgraph_spec_054 .label2{fill:hsl(80, 100%, 46.2745098039%);}#upstream_pkgtests_gitgraph_spec_054 .arrow2{stroke:hsl(80, 100%, 46.2745098039%);}#upstream_pkgtests_gitgraph_spec_054 .branch-label3{fill:#ffffff;}#upstream_pkgtests_gitgraph_spec_054 .commit3{stroke:hsl(210, 100%, 46.2745098039%);fill:hsl(210, 100%, 46.2745098039%);}#upstream_pkgtests_gitgraph_spec_054 .commit-highlight3{stroke:rgb(146.5000000001, 73.2500000001, 0);fill:rgb(146.5000000001, 73.2500000001, 0);}#upstream_pkgtests_gitgraph_spec_054 .label3{fill:hsl(210, 100%, 46.2745098039%);}#upstream_pkgtests_gitgraph_spec_054 .arrow3{stroke:hsl(210, 100%, 46.2745098039%);}#upstream_pkgtests_gitgraph_spec_054 .branch-label4{fill:black;}#upstream_pkgtests_gitgraph_spec_054 .commit4{stroke:hsl(180, 100%, 46.2745098039%);fill:hsl(180, 100%, 46.2745098039%);}#upstream_pkgtests_gitgraph_spec_054 .commit-highlight4{stroke:rgb(146.5000000001, 0, 0);fill:rgb(146.5000000001, 0, 0);}#upstream_pkgtests_gitgraph_spec_054 .label4{fill:hsl(180, 100%, 46.2745098039%);}#upstream_pkgtests_gitgraph_spec_054 .arrow4{stroke:hsl(180, 100%, 46.2745098039%);}#upstream_pkgtests_gitgraph_spec_054 .branch-label5{fill:black;}#upstream_pkgtests_gitgraph_spec_054 .commit5{stroke:hsl(150, 100%, 46.2745098039%);fill:hsl(150, 100%, 46.2745098039%);}#upstream_pkgtests_gitgraph_spec_054 .commit-highlight5{stroke:rgb(146.5000000001, 0, 73.2500000001);fill:rgb(146.5000000001, 0, 73.2500000001);}#upstream_pkgtests_gitgraph_spec_054 .label5{fill:hsl(150, 100%, 46.2745098039%);}#upstream_pkgtests_gitgraph_spec_054 .arrow5{stroke:hsl(150, 100%, 46.2745098039%);}#upstream_pkgtests_gitgraph_spec_054 .branch-label6{fill:black;}#upstream_pkgtests_gitgraph_spec_054 .commit6{stroke:hsl(300, 100%, 46.2745098039%);fill:hsl(300, 100%, 46.2745098039%);}#upstream_pkgtests_gitgraph_spec_054 .commit-highlight6{stroke:rgb(0, 146.5000000001, 0);fill:rgb(0, 146.5000000001, 0);}#upstream_pkgtests_gitgraph_spec_054 .label6{fill:hsl(300, 100%, 46.2745098039%);}#upstream_pkgtests_gitgraph_spec_054 .arrow6{stroke:hsl(300, 100%, 46.2745098039%);}#upstream_pkgtests_gitgraph_spec_054 .branch-label7{fill:black;}#upstream_pkgtests_gitgraph_spec_054 .commit7{stroke:hsl(0, 100%, 46.2745098039%);fill:hsl(0, 100%, 46.2745098039%);}#upstream_pkgtests_gitgraph_spec_054 .commit-highlight7{stroke:rgb(0, 146.5000000001, 146.5000000001);fill:rgb(0, 146.5000000001, 146.5000000001);}#upstream_pkgtests_gitgraph_spec_054 .label7{fill:hsl(0, 100%, 46.2745098039%);}#upstream_pkgtests_gitgraph_spec_054 .arrow7{stroke:hsl(0, 100%, 46.2745098039%);}#upstream_pkgtests_gitgraph_spec_054 .branch{stroke-width:1;stroke:#333333;stroke-dasharray:2;}#upstream_pkgtests_gitgraph_spec_054 .commit-label{font-size:10px;fill:#000021;}#upstream_pkgtests_gitgraph_spec_054 .commit-label-bkg{font-size:10px;fill:#ffffde;opacity:0.5;}#upstream_pkgtests_gitgraph_spec_054 .tag-label{font-size:10px;fill:#131300;}#upstream_pkgtests_gitgraph_spec_054 .tag-label-bkg{fill:#ECECFF;stroke:hsl(240, 60%, 86.2745098039%);}#upstream_pkgtests_gitgraph_spec_054 .tag-hole{fill:#333;}#upstream_pkgtests_gitgraph_spec_054 .commit-merge{stroke:#ECECFF;fill:#ECECFF;}#upstream_pkgtests_gitgraph_spec_054 .commit-reverse{stroke:#ECECFF;fill:#ECECFF;stroke-width:3;}#upstream_pkgtests_gitgraph_spec_054 .commit-highlight-inner{stroke:#ECECFF;fill:#ECECFF;}#upstream_pkgtests_gitgraph_spec_054 .arrow{stroke-width:8;stroke-linecap:round;fill:none;}#upstream_pkgtests_gitgraph_spec_054 .gitTitleText{text-anchor:middle;font-size:18px;fill:#333;}#upstream_pkgtests_gitgraph_spec_054 :root{--mermaid-font-family:"trebuchet ms",verdana,arial,sans-serif;}</style><g/><g class="commit-bullets"/><g class="commit-labels"/><g><line x1="0" y1="0" x2="650" y2="0" class="branch branch0"/><rect class="branchLabelBkg label0" rx="4" ry="4" x="-69" y="-1.5" width="53" height="23" transform="translate(-19, -9.5)"/><g class="branchLabel"><g class="label branch-label0" transform="translate(-79, -10.5)"><text><tspan xml:space="preserve" dy="1em" x="0" class="row">main</tspan></text></g></g><line x1="0" y1="90" x2="650" y2="90" class="branch branch1"/><rect class="branchLabelBkg label1" rx="4" ry="4" x="-70.25" y="-1.5" width="54.25" height="23" transform="translate(-19, 80.5)"/><g class="branchLabel"><g class="label branch-label1" transform="translate(-80.25, 79.5)"><text><tspan xml:space="preserve" dy="1em" x="0" class="row">v1-rc</tspan></text></g></g><line x1="0" y1="180" x2="650" y2="180" class="branch branch2"/><rect class="branchLabelBkg label2" rx="4" ry="4" x="-144.421875" y="-1.5" width="128.421875" height="23" transform="translate(-19, 170.5)"/><g class="branchLabel"><g class="label branch-label2" transform="translate(-154.421875, 169.5)"><text><tspan xml:space="preserve" dy="1em" x="0" class="row">FORK-v1.0-MDR</tspan></text></g></g><line x1="0" y1="270" x2="650" y2="270" class="branch branch3"/><rect class="branchLabelBkg label3" rx="4" ry="4" x="-100.84375" y="-1.5" width="84.84375" height="23" transform="translate(-19, 260.5)"/><g class="branchLabel"><g class="label branch-label3" transform="translate(-110.84375, 259.5)"><text><tspan xml:space="preserve" dy="1em" x="0" class="row">v1.0-MDR</tspan></text></g></g></g><g class="commit-arrows"><path d="M 10 0 L 60 0" class="arrow arrow0"/><path d="M 60 0 L 110 0" class="arrow arrow0"/><path d="M 110 0 L 110 70 A 20 20, 0, 0, 0, 130 90 L 160 90" class="arrow arrow1"/><path d="M 160 90 L 210 90" class="arrow arrow1"/><path d="M 310 180 L 410 180" class="arrow arrow2"/><path d="M 210 90 L 260 90" class="arrow arrow1"/><path d="M 410 180 L 310 180" class="arrow arrow2"/><path d="M 260 90 L 290 90 A 20 20, 0, 0, 1, 310 110 L 310 180" class="arrow arrow1"/><path d="M 110 0 L 360 0" class="arrow arrow0"/><path d="M 410 180 L 460 180" class="arrow arrow2"/><path d="M 460 180 L 460 250 A 20 20, 0, 0, 0, 480 270 L 510 270" class="arrow arrow3"/><path d="M 260 90 L 560 90" class="arrow arrow1"/><path d="M 360 0 L 610 0" class="arrow arrow0"/></g><g class="commit-bullets"><circle cx="10" cy="0" r="10" class="commit initial commit commit0"/><circle cx="60" cy="0" r="10" class="commit work on first release commit0"/><circle cx="110" cy="0" r="10" class="commit design freeze from here commit0"/><circle cx="160" cy="90" r="10" class="commit bugfix 1 commit1"/><circle cx="210" cy="90" r="10" class="commit bigfix 2 commit1"/><circle cx="260" cy="90" r="10" class="commit minor design changes for MDR commit1"/><circle cx="310" cy="180" r="9" class="commit 7-5b722bd commit2"/><circle cx="310" cy="180" r="6" class="commit commit-merge 7-5b722bd commit2"/><circle cx="360" cy="0" r="10" class="commit new feature for v1.1… commit0"/><circle cx="410" cy="180" r="10" class="commit working on MDR commit2"/><circle cx="460" cy="180" r="10" class="commit finishing MDR commit2"/><circle cx="510" cy="270" r="10" class="commit brush up release commit3"/><circle cx="560" cy="90" r="10" class="commit bugfix without MDR commit1"/><circle cx="610" cy="0" r="10" class="commit work on v1.1 commit0"/></g><g class="commit-labels"><g transform="translate(-35.21625, 31.39875) rotate(-45, 0, 0)"><rect class="commit-label-bkg" x="-23.46875" y="13.5" width="66.9375" height="15"/><text x="-21.46875" y="25" class="commit-label">initial commit</text></g><g transform="translate(-46.47375, 41.47125) rotate(-45, 50, 0)"><rect class="commit-label-bkg" x="11.71875" y="13.5" width="96.5625" height="15"/><text x="13.71875" y="25" class="commit-label">work on first release</text></g><g transform="translate(-52.209375, 46.603125000000006) rotate(-45, 100, 0)"><rect class="commit-label-bkg" x="54.171875" y="13.5" width="111.65625" height="15.05078125"/><text x="56.171875" y="25" class="commit-label">design freeze from here</text></g><g transform="translate(-24.9325, 22.197499999999998) rotate(-45, 150, 90)"><rect class="commit-label-bkg" x="140.0625" y="103.5" width="39.875" height="15.05078125"/><text x="142.0625" y="115" class="commit-label">bugfix 1</text></g><g transform="translate(-23.9409375, 21.310312500000002) rotate(-45, 200, 90)"><rect class="commit-label-bkg" x="191.3671875" y="103.5" width="37.265625" height="15.05078125"/><text x="193.3671875" y="115" class="commit-label">bigfix 2</text></g><polygon class="tag-label-bkg" points="184.0078125,72.8  &#10;      184.0078125,68.8&#10;      192.0078125,63.3&#10;      227.9921875,63.3&#10;      227.9921875,78.3&#10;      192.0078125,78.3"/><circle cy="70.8" cx="188.0078125" r="1.5" class="tag-hole"/><text y="74" class="tag-label" x="196.0078125">v1.0.1</text><g transform="translate(-62.214062500000004, 55.5546875) rotate(-45, 250, 90)"><rect class="commit-label-bkg" x="191.0078125" y="103.5" width="137.984375" height="15.05078125"/><text x="193.0078125" y="115" class="commit-label">minor design changes for MDR</text></g><polygon class="tag-label-bkg" points="234.0078125,72.8  &#10;      234.0078125,68.8&#10;      242.0078125,63.3&#10;      277.9921875,63.3&#10;      277.9921875,78.3&#10;      242.0078125,78.3"/><circle cy="70.8" cx="238.0078125" r="1.5" class="tag-hole"/><text y="74" class="tag-label" x="246.0078125">v1.0.2</text><g transform="translate(-52.5834375, 46.9378125) rotate(-45, 350, 0)"><rect class="commit-label-bkg" x="303.6796875" y="13.5" width="112.640625" height="15"/><text x="305.6796875" y="25" class="commit-label">new feature for v1.1…</text></g><g transform="translate(-38.2740625, 34.1346875) rotate(-45, 400, 180)"><rect class="commit-label-bkg" x="372.5078125" y="193.5" width="74.984375" height="15.05078125"/><text x="374.5078125" y="205" class="commit-label">working on MDR</text></g><g transform="translate(-34.016875, 30.325625) rotate(-45, 450, 180)"><rect class="commit-label-bkg" x="428.109375" y="193.5" width="63.78125" height="15.05078125"/><text x="430.109375" y="205" class="commit-label">finishing MDR</text></g><g transform="translate(-39.42, 35.16) rotate(-45, 500, 270)"><rect class="commit-label-bkg" x="471" y="283.5" width="78" height="15.05078125"/><text x="473" y="295" class="commit-label">brush up release</text></g><polygon class="tag-label-bkg" points="472.6484375,252.8  &#10;      472.6484375,248.8&#10;      480.6484375,243.3&#10;      539.3515625,243.3&#10;      539.3515625,258.3&#10;      480.6484375,258.3"/><circle cy="250.8" cx="476.6484375" r="1.5" class="tag-hole"/><text y="254" class="tag-label" x="484.6484375">v1.0.2-MDR</text><g transform="translate(-44.4371875, 39.6490625) rotate(-45, 550, 90)"><rect class="commit-label-bkg" x="514.3984375" y="103.5" width="91.203125" height="15.05078125"/><text x="516.3984375" y="115" class="commit-label">bugfix without MDR</text></g><g transform="translate(-33.209374999999994, 29.603125) rotate(-45, 600, 0)"><rect class="commit-label-bkg" x="579.171875" y="13.5" width="61.65625" height="15"/><text x="581.171875" y="25" class="commit-label">work on v1.1</text></g></g></svg>