<svg id="upstream_cherry_pick_merge_commits" width="100%" xmlns="http://www.w3.org/2000/svg" xmlns:xlink="http://www.w3.org/1999/xlink" style="max-width: 572.352px; background-color: white;" viewBox="-114.3515625 -19 572.3515625 236.35057067871094" role="graphics-document document" aria-roledescription="gitGraph"><style>#upstream_cherry_pick_merge_commits{font-family:"trebuchet ms",verdana,arial,sans-serif;font-size:16px;fill:#333;}@keyframes edge-animation-frame{from{stroke-dashoffset:0;}}@keyframes dash{to{stroke-dashoffset:0;}}#upstream_cherry_pick_merge_commits .edge-animation-slow{stroke-dasharray:9,5!important;stroke-dashoffset:900;animation:dash 50s linear infinite;stroke-linecap:round;}#upstream_cherry_pick_merge_commits .edge-animation-fast{stroke-dasharray:9,5!important;stroke-dashoffset:900;animation:dash 20s linear infinite;stroke-linecap:round;}#upstream_cherry_pick_merge_commits .error-icon{fill:#552222;}#upstream_cherry_pick_merge_commits .error-text{fill:#552222;stroke:#552222;}#upstream_cherry_pick_merge_commits .edge-thickness-normal{stroke-width:1px;}#upstream_cherry_pick_merge_commits .edge-thickness-thick{stroke-width:3.5px;}#upstream_cherry_pick_merge_commits .edge-pattern-solid{stroke-dasharray:0;}#upstream_cherry_pick_merge_commits .edge-thickness-invisible{stroke-width:0;fill:none;}#upstream_cherry_pick_merge_commits .edge-pattern-dashed{stroke-dasharray:3;}#upstream_cherry_pick_merge_commits .edge-pattern-dotted{stroke-dasharray:2;}#upstream_cherry_pick_merge_commits .marker{fill:#333333;stroke:#333333;}#upstream_cherry_pick_merge_commits .marker.cross{stroke:#333333;}#upstream_cherry_pick_merge_commits svg{font-family:"trebuchet ms",verdana,arial,sans-serif;font-size:16px;}#upstream_cherry_pick_merge_commits p{margin:0;}#upstream_cherry_pick_merge_commits .commit-id,#upstream_cherry_pick_merge_commits .commit-msg,#upstream_cherry_pick_merge_commits .branch-label{fill:lightgrey;color:lightgrey;font-family:'trebuchet ms',verdana,arial,sans-serif;font-family:var(--mermaid-font-family);}#upstream_cherry_pick_merge_commits .branch-label0{fill:#ffffff;}#upstream_cherry_pick_merge_commits .commit0{stroke:hsl(240, 100%, 46.2745098039%);fill:hsl(240, 100%, 46.2745098039%);}#upstream_cherry_pick_merge_commits .commit-highlight0{stroke:hsl(60, 100%, 3.7254901961%);fill:hsl(60, 100%, 3.7254901961%);}#upstream_cherry_pick_merge_commits .label0{fill:hsl(240, 100%, 46.2745098039%);}#upstream_cherry_pick_merge_commits .arrow0{stroke:hsl(240, 100%, 46.2745098039%);}#upstream_cherry_pick_merge_commits .branch-label1{fill:black;}#upstream_cherry_pick_merge_commits .commit1{stroke:hsl(60, 100%, 43.5294117647%);fill:hsl(60, 100%, 43.5294117647%);}#upstream_cherry_pick_merge_commits .commit-highlight1{stroke:rgb(0, 0, 160.5);fill:rgb(0, 0, 160.5);}#upstream_cherry_pick_merge_commits .label1{fill:hsl(60, 100%, 43.5294117647%);}#upstream_cherry_pick_merge_commits .arrow1{stroke:hsl(60, 100%, 43.5294117647%);}#upstream_cherry_pick_merge_commits .branch-label2{fill:black;}#upstream_cherry_pick_merge_commits .commit2{stroke:hsl(80, 100%, 46.2745098039%);fill:hsl(80, 100%, 46.2745098039%);}#upstream_cherry_pick_merge_commits .commit-highlight2{stroke:rgb(48.8333333334, 0, 146.5000000001);fill:rgb(48.8333333334, 0, 146.5000000001);}#upstream_cherry_pick_merge_commits .label2{fill:hsl(80, 100%, 46.2745098039%);}#upstream_cherry_pick_merge_commits .arrow2{stroke:hsl(80, 100%, 46.2745098039%);}#upstream_cherry_pick_merge_commits .branch-label3{fill:#ffffff;}#upstream_cherry_pick_merge_commits .commit3{stroke:hsl(210, 100%, 46.2745098039%);fill:hsl(210, 100%, 46.2745098039%);}#upstream_cherry_pick_merge_commits .commit-highlight3{stroke:rgb(146.5000000001, 73.2500000001, 0);fill:rgb(146.5000000001, 73.2500000001, 0);}#upstream_cherry_pick_merge_commits .label3{fill:hsl(210, 100%, 46.2745098039%);}#upstream_cherry_pick_merge_commits .arrow3{stroke:hsl(210, 100%, 46.2745098039%);}#upstream_cherry_pick_merge_commits .branch-label4{fill:black;}#upstream_cherry_pick_merge_commits .commit4{stroke:hsl(180, 100%, 46.2745098039%);fill:hsl(180, 100%, 46.2745098039%);}#upstream_cherry_pick_merge_commits .commit-highlight4{stroke:rgb(146.5000000001, 0, 0);fill:rgb(146.5000000001, 0, 0);}#upstream_cherry_pick_merge_commits .label4{fill:hsl(180, 100%, 46.2745098039%);}#upstream_cherry_pick_merge_commits .arrow4{stroke:hsl(180, 100%, 46.2745098039%);}#upstream_cherry_pick_merge_commits .branch-label5{fill:black;}#upstream_cherry_pick_merge_commits .commit5{stroke:hsl(150, 100%, 46.2745098039%);fill:hsl(150, 100%, 46.2745098039%);}#upstream_cherry_pick_merge_commits .commit-highlight5{stroke:rgb(146.5000000001, 0, 73.2500000001);fill:rgb(146.5000000001, 0, 73.2500000001);}#upstream_cherry_pick_merge_commits .label5{fill:hsl(150, 100%, 46.2745098039%);}#upstream_cherry_pick_merge_commits .arrow5{stroke:hsl(150, 100%, 46.2745098039%);}#upstream_cherry_pick_merge_commits .branch-label6{fill:black;}#upstream_cherry_pick_merge_commits .commit6{stroke:hsl(300, 100%, 46.2745098039%);fill:hsl(300, 100%, 46.2745098039%);}#upstream_cherry_pick_merge_commits .commit-highlight6{stroke:rgb(0, 146.5000000001, 0);fill:rgb(0, 146.5000000001, 0);}#upstream_cherry_pick_merge_commits .label6{fill:hsl(300, 100%, 46.2745098039%);}#upstream_cherry_pick_merge_commits .arrow6{stroke:hsl(300, 100%, 46.2745098039%);}#upstream_cherry_pick_merge_commits .branch-label7{fill:black;}#upstream_cherry_pick_merge_commits .commit7{stroke:hsl(0, 100%, 46.2745098039%);fill:hsl(0, 100%, 46.2745098039%);}#upstream_cherry_pick_merge_commits .commit-highlight7{stroke:rgb(0, 146.5000000001, 146.5000000001);fill:rgb(0, 146.5000000001, 146.5000000001);}#upstream_cherry_pick_merge_commits .label7{fill:hsl(0, 100%, 46.2745098039%);}#upstream_cherry_pick_merge_commits .arrow7{stroke:hsl(0, 100%, 46.2745098039%);}#upstream_cherry_pick_merge_commits .branch{stroke-width:1;stroke:#333333;stroke-dasharray:2;}#upstream_cherry_pick_merge_commits .commit-label{font-size:10px;fill:#000021;}#upstream_cherry_pick_merge_commits .commit-label-bkg{font-size:10px;fill:#ffffde;opacity:0.5;}#upstream_cherry_pick_merge_commits .tag-label{font-size:10px;fill:#131300;}#upstream_cherry_pick_merge_commits .tag-label-bkg{fill:#ECECFF;stroke:hsl(240, 60%, 86.2745098039%);}#upstream_cherry_pick_merge_commits .tag-hole{fill:#333;}#upstream_cherry_pick_merge_commits .commit-merge{stroke:#ECECFF;fill:#ECECFF;}#upstream_cherry_pick_merge_commits .commit-reverse{stroke:#ECECFF;fill:#ECECFF;stroke-width:3;}#upstream_cherry_pick_merge_commits .commit-highlight-inner{stroke:#ECECFF;fill:#ECECFF;}#upstream_cherry_pick_merge_commits .arrow{stroke-width:8;stroke-linecap:round;fill:none;}#upstream_cherry_pick_merge_commits .gitTitleText{text-anchor:middle;font-size:18px;fill:#333;}#upstream_cherry_pick_merge_commits :root{--mermaid-font-family:"trebuchet ms",verdana,arial,sans-serif;}</style><g/><g class="commit-bullets"/><g class="commit-labels"/><g><line x1="0" y1="0" x2="450" y2="0" class="branch branch0"/><rect class="branchLabelBkg label0" rx="4" ry="4" x="-69.25" y="-1.5" width="53.25" height="23" transform="translate(-19, -9.5)"/><g class="branchLabel"><g class="label branch-label0" transform="translate(-79.25, -10.5)"><text><tspan xml:space="preserve" dy="1em" x="0" class="row">main</tspan></text></g></g><line x1="0" y1="90" x2="450" y2="90" class="branch branch1"/><rect class="branchLabelBkg label1" rx="4" ry="4" x="-87.3515625" y="-1.5" width="71.3515625" height="23" transform="translate(-19, 80.5)"/><g class="branchLabel"><g class="label branch-label1" transform="translate(-97.3515625, 79.5)"><text><tspan xml:space="preserve" dy="1em" x="0" class="row">feature</tspan></text></g></g><line x1="0" y1="180" x2="450" y2="180" class="branch branch2"/><rect class="branchLabelBkg label2" rx="4" ry="4" x="-86.2734375" y="-1.5" width="70.2734375" height="23" transform="translate(-19, 170.5)"/><g class="branchLabel"><g class="label branch-label2" transform="translate(-96.2734375, 169.5)"><text><tspan xml:space="preserve" dy="1em" x="0" class="row">release</tspan></text></g></g></g><g class="commit-arrows"><path d="M 10 0 L 10 70 A 20 20, 0, 0, 0, 30 90 L 60 90" class="arrow arrow1"/><path d="M 60 90 L 110 90" class="arrow arrow1"/><path d="M 10 0 L 160 0" class="arrow arrow0"/><path d="M 110 90 L 140 90 A 20 20, 0, 0, 0, 160 70 L 160 0" class="arrow arrow1"/><path d="M 10 0 L 10 160 A 20 20, 0, 0, 0, 30 180 L 210 180" class="arrow arrow2"/><path d="M 210 180 L 260 180" class="arrow arrow2"/><path d="M 160 0 L 160 62 A 10 10, 0, 0, 0, 170 72 L 250 72 A 10 10, 0, 0, 1, 260 82 L 260 180" class="arrow arrow2"/><path d="M 260 180 L 310 180" class="arrow arrow2"/><path d="M 310 180 L 360 180" class="arrow arrow2"/><path d="M 160 0 L 160 47.6 A 10 10, 0, 0, 0, 170 57.6 L 350 57.6 A 10 10, 0, 0, 1, 360 67.6 L 360 180" class="arrow arrow2"/><path d="M 360 180 L 410 180" class="arrow arrow2"/><path d="M 160 0 L 160 36.08 A 10 10, 0, 0, 0, 170 46.08 L 400 46.08 A 10 10, 0, 0, 1, 410 56.08 L 410 180" class="arrow arrow2"/></g><g class="commit-bullets"><circle cx="10" cy="0" r="10" class="commit ZERO commit0"/><circle cx="60" cy="90" r="10" class="commit A commit1"/><circle cx="110" cy="90" r="10" class="commit B commit1"/><circle cx="160" cy="0" r="9" class="commit M commit0"/><circle cx="160" cy="0" r="6" class="commit commit-merge M commit0"/><circle cx="210" cy="180" r="10" class="commit C commit2"/><circle cx="260" cy="180" r="10" class="commit 5-7c6aa68 commit-cherry-pick"/><circle cx="257" cy="182" r="2.75" fill="#fff" class="commit 5-7c6aa68 commit-cherry-pick"/><circle cx="263" cy="182" r="2.75" fill="#fff" class="commit 5-7c6aa68 commit-cherry-pick"/><line x1="263" y1="181" x2="260" y2="175" stroke="#fff" class="commit 5-7c6aa68 commit-cherry-pick"/><line x1="257" y1="181" x2="260" y2="175" stroke="#fff" class="commit 5-7c6aa68 commit-cherry-pick"/><circle cx="310" cy="180" r="10" class="commit D commit2"/><circle cx="360" cy="180" r="10" class="commit 7-62f7374 commit-cherry-pick"/><circle cx="357" cy="182" r="2.75" fill="#fff" class="commit 7-62f7374 commit-cherry-pick"/><circle cx="363" cy="182" r="2.75" fill="#fff" class="commit 7-62f7374 commit-cherry-pick"/><line x1="363" y1="181" x2="360" y2="175" stroke="#fff" class="commit 7-62f7374 commit-cherry-pick"/><line x1="357" y1="181" x2="360" y2="175" stroke="#fff" class="commit 7-62f7374 commit-cherry-pick"/><circle cx="410" cy="180" r="10" class="commit 8-cc595c2 commit-cherry-pick"/><circle cx="407" cy="182" r="2.75" fill="#fff" class="commit 8-cc595c2 commit-cherry-pick"/><circle cx="413" cy="182" r="2.75" fill="#fff" class="commit 8-cc595c2 commit-cherry-pick"/><line x1="413" y1="181" x2="410" y2="175" stroke="#fff" class="commit 8-cc595c2 commit-cherry-pick"/><line x1="407" y1="181" x2="410" y2="175" stroke="#fff" class="commit 8-cc595c2 commit-cherry-pick"/></g><g class="commit-labels"><g transform="translate(-20.298281250000002, 18.05109375) rotate(-45, 0, 0)"><rect class="commit-label-bkg" x="-3.83984375" y="13.5" width="27.6796875" height="15"/><text x="-1.83984375" y="25" class="commit-label">ZERO</text></g><g transform="translate(-14.34, 12.72) rotate(-45, 50, 90)"><rect class="commit-label-bkg" x="54" y="103.5" width="12" height="15"/><text x="56" y="115" class="commit-label">A</text></g><g transform="translate(-13.58, 12.04) rotate(-45, 100, 90)"><rect class="commit-label-bkg" x="105" y="103.5" width="10" height="15"/><text x="107" y="115" class="commit-label">B</text></g><g transform="translate(-14.719999999999999, 13.06) rotate(-45, 150, 0)"><rect class="commit-label-bkg" x="153.5" y="13.5" width="13" height="15"/><text x="155.5" y="25" class="commit-label">M</text></g><g transform="translate(-13.58, 12.04) rotate(-45, 200, 180)"><rect class="commit-label-bkg" x="205" y="193.5" width="10" height="15"/><text x="207" y="205" class="commit-label">C</text></g><polygon class="tag-label-bkg" points="224.29541015625,162.8  &#10;      224.29541015625,158.8&#10;      232.29541015625,153.3&#10;      287.70458984375,153.3&#10;      287.70458984375,168.3&#10;      232.29541015625,168.3"/><circle cy="160.8" cx="228.29541015625" r="1.5" class="tag-hole"/><text y="164" class="tag-label" x="236.29541015625">v2.1:ZERO</text><g transform="translate(-13.96, 12.38) rotate(-45, 300, 180)"><rect class="commit-label-bkg" x="304.5" y="193.5" width="11" height="15"/><text x="306.5" y="205" class="commit-label">D</text></g></g></svg>