<svg id="upstream_docs_gitgraph_dark_theme_026" width="100%" xmlns="http://www.w3.org/2000/svg" xmlns:xlink="http://www.w3.org/1999/xlink" style="max-width: 1032.078125px; background-color: white;" viewBox="-124.078125 -19 1032.078125 536.0304565429688" role="graphics-document document" aria-roledescription="gitGraph"><style>#upstream_docs_gitgraph_dark_theme_026{font-family:"trebuchet ms",verdana,arial,sans-serif;font-size:16px;fill:#ccc;}@keyframes edge-animation-frame{from{stroke-dashoffset:0;}}@keyframes dash{to{stroke-dashoffset:0;}}#upstream_docs_gitgraph_dark_theme_026 .edge-animation-slow{stroke-dasharray:9,5!important;stroke-dashoffset:900;animation:dash 50s linear infinite;stroke-linecap:round;}#upstream_docs_gitgraph_dark_theme_026 .edge-animation-fast{stroke-dasharray:9,5!important;stroke-dashoffset:900;animation:dash 20s linear infinite;stroke-linecap:round;}#upstream_docs_gitgraph_dark_theme_026 .error-icon{fill:#a44141;}#upstream_docs_gitgraph_dark_theme_026 .error-text{fill:#ddd;stroke:#ddd;}#upstream_docs_gitgraph_dark_theme_026 .edge-thickness-normal{stroke-width:1px;}#upstream_docs_gitgraph_dark_theme_026 .edge-thickness-thick{stroke-width:3.5px;}#upstream_docs_gitgraph_dark_theme_026 .edge-pattern-solid{stroke-dasharray:0;}#upstream_docs_gitgraph_dark_theme_026 .edge-thickness-invisible{stroke-width:0;fill:none;}#upstream_docs_gitgraph_dark_theme_026 .edge-pattern-dashed{stroke-dasharray:3;}#upstream_docs_gitgraph_dark_theme_026 .edge-pattern-dotted{stroke-dasharray:2;}#upstream_docs_gitgraph_dark_theme_026 .marker{fill:lightgrey;stroke:lightgrey;}#upstream_docs_gitgraph_dark_theme_026 .marker.cross{stroke:lightgrey;}#upstream_docs_gitgraph_dark_theme_026 svg{font-family:"trebuchet ms",verdana,arial,sans-serif;font-size:16px;}#upstream_docs_gitgraph_dark_theme_026 p{margin:0;}#upstream_docs_gitgraph_dark_theme_026 .commit-id,#upstream_docs_gitgraph_dark_theme_026 .commit-msg,#upstream_docs_gitgraph_dark_theme_026 .branch-label{fill:lightgrey;color:lightgrey;font-family:'trebuchet ms',verdana,arial,sans-serif;font-family:var(--mermaid-font-family);}#upstream_docs_gitgraph_dark_theme_026 .branch-label0{fill:#2c2c2c;}#upstream_docs_gitgraph_dark_theme_026 .commit0{stroke:hsl(180, 1.5873015873%, 48.3529411765%);fill:hsl(180, 1.5873015873%, 48.3529411765%);}#upstream_docs_gitgraph_dark_theme_026 .commit-highlight0{stroke:rgb(133.6571428571, 129.7428571428, 129.7428571428);fill:rgb(133.6571428571, 129.7428571428, 129.7428571428);}#upstream_docs_gitgraph_dark_theme_026 .label0{fill:hsl(180, 1.5873015873%, 48.3529411765%);}#upstream_docs_gitgraph_dark_theme_026 .arrow0{stroke:hsl(180, 1.5873015873%, 48.3529411765%);}#upstream_docs_gitgraph_dark_theme_026 .branch-label1{fill:lightgrey;}#upstream_docs_gitgraph_dark_theme_026 .commit1{stroke:hsl(321.6393442623, 65.5913978495%, 38.2352941176%);fill:hsl(321.6393442623, 65.5913978495%, 38.2352941176%);}#upstream_docs_gitgraph_dark_theme_026 .commit-highlight1{stroke:rgb(93.5483870969, 221.4516129033, 139.677419355);fill:rgb(93.5483870969, 221.4516129033, 139.677419355);}#upstream_docs_gitgraph_dark_theme_026 .label1{fill:hsl(321.6393442623, 65.5913978495%, 38.2352941176%);}#upstream_docs_gitgraph_dark_theme_026 .arrow1{stroke:hsl(321.6393442623, 65.5913978495%, 38.2352941176%);}#upstream_docs_gitgraph_dark_theme_026 .branch-label2{fill:lightgrey;}#upstream_docs_gitgraph_dark_theme_026 .commit2{stroke:hsl(194.4, 16.5562913907%, 49.6078431373%);fill:hsl(194.4, 16.5562913907%, 49.6078431373%);}#upstream_docs_gitgraph_dark_theme_026 .commit-highlight2{stroke:rgb(149.4437086091, 117.6092715231, 107.5562913906);fill:rgb(149.4437086091, 117.6092715231, 107.5562913906);}#upstream_docs_gitgraph_dark_theme_026 .label2{fill:hsl(194.4, 16.5562913907%, 49.6078431373%);}#upstream_docs_gitgraph_dark_theme_026 .arrow2{stroke:hsl(194.4, 16.5562913907%, 49.6078431373%);}#upstream_docs_gitgraph_dark_theme_026 .branch-label3{fill:#2c2c2c;}#upstream_docs_gitgraph_dark_theme_026 .commit3{stroke:hsl(23.0769230769, 49.0566037736%, 40.7843137255%);fill:hsl(23.0769230769, 49.0566037736%, 40.7843137255%);}#upstream_docs_gitgraph_dark_theme_026 .commit-highlight3{stroke:rgb(99.9811320754, 162.7735849057, 202.0188679245);fill:rgb(99.9811320754, 162.7735849057, 202.0188679245);}#upstream_docs_gitgraph_dark_theme_026 .label3{fill:hsl(23.0769230769, 49.0566037736%, 40.7843137255%);}#upstream_docs_gitgraph_dark_theme_026 .arrow3{stroke:hsl(23.0769230769, 49.0566037736%, 40.7843137255%);}#upstream_docs_gitgraph_dark_theme_026 .branch-label4{fill:lightgrey;}#upstream_docs_gitgraph_dark_theme_026 .commit4{stroke:hsl(0, 83.3333333333%, 43.5294117647%);fill:hsl(0, 83.3333333333%, 43.5294117647%);}#upstream_docs_gitgraph_dark_theme_026 .commit-highlight4{stroke:rgb(51.5000000001, 236.5, 236.5);fill:rgb(51.5000000001, 236.5, 236.5);}#upstream_docs_gitgraph_dark_theme_026 .label4{fill:hsl(0, 83.3333333333%, 43.5294117647%);}#upstream_docs_gitgraph_dark_theme_026 .arrow4{stroke:hsl(0, 83.3333333333%, 43.5294117647%);}#upstream_docs_gitgraph_dark_theme_026 .branch-label5{fill:lightgrey;}#upstream_docs_gitgraph_dark_theme_026 .commit5{stroke:hsl(289.1666666667, 100%, 24.1176470588%);fill:hsl(289.1666666667, 100%, 24.1176470588%);}#upstream_docs_gitgraph_dark_theme_026 .commit-highlight5{stroke:rgb(154.2083333334, 255, 132.0000000001);fill:rgb(154.2083333334, 255, 132.0000000001);}#upstream_docs_gitgraph_dark_theme_026 .label5{fill:hsl(289.1666666667, 100%, 24.1176470588%);}#upstream_docs_gitgraph_dark_theme_026 .arrow5{stroke:hsl(289.1666666667, 100%, 24.1176470588%);}#upstream_docs_gitgraph_dark_theme_026 .branch-label6{fill:lightgrey;}#upstream_docs_gitgraph_dark_theme_026 .commit6{stroke:hsl(35.1315789474, 98.7012987013%, 40.1960784314%);fill:hsl(35.1315789474, 98.7012987013%, 40.1960784314%);}#upstream_docs_gitgraph_dark_theme_026 .commit-highlight6{stroke:rgb(51.331168831, 135.1948051946, 253.6688311688);fill:rgb(51.331168831, 135.1948051946, 253.6688311688);}#upstream_docs_gitgraph_dark_theme_026 .label6{fill:hsl(35.1315789474, 98.7012987013%, 40.1960784314%);}#upstream_docs_gitgraph_dark_theme_026 .arrow6{stroke:hsl(35.1315789474, 98.7012987013%, 40.1960784314%);}#upstream_docs_gitgraph_dark_theme_026 .branch-label7{fill:lightgrey;}#upstream_docs_gitgraph_dark_theme_026 .commit7{stroke:hsl(106.1538461538, 84.4155844156%, 35.0980392157%);fill:hsl(106.1538461538, 84.4155844156%, 35.0980392157%);}#upstream_docs_gitgraph_dark_theme_026 .commit-highlight7{stroke:rgb(206.1818181817, 89.948051948, 241.051948052);fill:rgb(206.1818181817, 89.948051948, 241.051948052);}#upstream_docs_gitgraph_dark_theme_026 .label7{fill:hsl(106.1538461538, 84.4155844156%, 35.0980392157%);}#upstream_docs_gitgraph_dark_theme_026 .arrow7{stroke:hsl(106.1538461538, 84.4155844156%, 35.0980392157%);}#upstream_docs_gitgraph_dark_theme_026 .branch{stroke-width:1;stroke:lightgrey;stroke-dasharray:2;}#upstream_docs_gitgraph_dark_theme_026 .commit-label{font-size:10px;fill:rgb(183.8476190475, 181.5523809523, 181.5523809523);}#upstream_docs_gitgraph_dark_theme_026 .commit-label-bkg{font-size:10px;fill:hsl(180, 1.5873015873%, 28.3529411765%);opacity:0.5;}#upstream_docs_gitgraph_dark_theme_026 .tag-label{font-size:10px;fill:#e0dfdf;}#upstream_docs_gitgraph_dark_theme_026 .tag-label-bkg{fill:#1f2020;stroke:#cccccc;}#upstream_docs_gitgraph_dark_theme_026 .tag-hole{fill:#ccc;}#upstream_docs_gitgraph_dark_theme_026 .commit-merge{stroke:#1f2020;fill:#1f2020;}#upstream_docs_gitgraph_dark_theme_026 .commit-reverse{stroke:#1f2020;fill:#1f2020;stroke-width:3;}#upstream_docs_gitgraph_dark_theme_026 .commit-highlight-inner{stroke:#1f2020;fill:#1f2020;}#upstream_docs_gitgraph_dark_theme_026 .arrow{stroke-width:8;stroke-linecap:round;fill:none;}#upstream_docs_gitgraph_dark_theme_026 .gitTitleText{text-anchor:middle;font-size:18px;fill:#ccc;}#upstream_docs_gitgraph_dark_theme_026 :root{--mermaid-font-family:"trebuchet ms",verdana,arial,sans-serif;}</style><g></g><g class="commit-bullets"></g><g class="commit-labels"></g><g><line x1="0" y1="0" x2="900" y2="0" class="branch branch0"></line><rect class="branchLabelBkg label0" rx="4" ry="4" x="-69.25" y="-1.5" width="53.25" height="23" transform="translate(-19, -9.5)"></rect><g class="branchLabel"><g class="label branch-label0" transform="translate(-79.25, -10.5)"><text><tspan xml:space="preserve" dy="1em" x="0" class="row">main</tspan></text></g></g><line x1="0" y1="90" x2="900" y2="90" class="branch branch1"></line><rect class="branchLabelBkg label1" rx="4" ry="4" x="-77.1484375" y="-1.5" width="61.1484375" height="23" transform="translate(-19, 80.5)"></rect><g class="branchLabel"><g class="label branch-label1" transform="translate(-87.1484375, 79.5)"><text><tspan xml:space="preserve" dy="1em" x="0" class="row">hotfix</tspan></text></g></g><line x1="0" y1="180" x2="900" y2="180" class="branch branch2"></line><rect class="branchLabelBkg label2" rx="4" ry="4" x="-90.5078125" y="-1.5" width="74.5078125" height="23" transform="translate(-19, 170.5)"></rect><g class="branchLabel"><g class="label branch-label2" transform="translate(-100.5078125, 169.5)"><text><tspan xml:space="preserve" dy="1em" x="0" class="row">develop</tspan></text></g></g><line x1="0" y1="270" x2="900" y2="270" class="branch branch3"></line><rect class="branchLabelBkg label3" rx="4" ry="4" x="-96.140625" y="-1.5" width="80.140625" height="23" transform="translate(-19, 260.5)"></rect><g class="branchLabel"><g class="label branch-label3" transform="translate(-106.140625, 259.5)"><text><tspan xml:space="preserve" dy="1em" x="0" class="row">featureB</tspan></text></g></g><line x1="0" y1="360" x2="900" y2="360" class="branch branch4"></line><rect class="branchLabelBkg label4" rx="4" ry="4" x="-97.078125" y="-1.5" width="81.078125" height="23" transform="translate(-19, 350.5)"></rect><g class="branchLabel"><g class="label branch-label4" transform="translate(-107.078125, 349.5)"><text><tspan xml:space="preserve" dy="1em" x="0" class="row">featureA</tspan></text></g></g><line x1="0" y1="450" x2="900" y2="450" class="branch branch5"></line><rect class="branchLabelBkg label5" rx="4" ry="4" x="-86.2734375" y="-1.5" width="70.2734375" height="23" transform="translate(-19, 440.5)"></rect><g class="branchLabel"><g class="label branch-label5" transform="translate(-96.2734375, 439.5)"><text><tspan xml:space="preserve" dy="1em" x="0" class="row">release</tspan></text></g></g></g><g class="commit-arrows"><path d="M 10 0 L 10 70 A 20 20, 0, 0, 0, 30 90 L 60 90" class="arrow arrow1"></path><path d="M 60 90 L 60 160 A 20 20, 0, 0, 0, 80 180 L 110 180" class="arrow arrow2"></path><path d="M 110 180 L 110 250 A 20 20, 0, 0, 0, 130 270 L 160 270" class="arrow arrow3"></path><path d="M 60 90 L 210 90" class="arrow arrow1"></path><path d="M 110 180 L 260 180" class="arrow arrow2"></path><path d="M 160 270 L 310 270" class="arrow arrow3"></path><path d="M 10 0 L 360 0" class="arrow arrow0"></path><path d="M 210 90 L 340 90 A 20 20, 0, 0, 0, 360 70 L 360 0" class="arrow arrow1"></path><path d="M 310 270 L 410 270" class="arrow arrow3"></path><path d="M 260 180 L 260 340 A 20 20, 0, 0, 0, 280 360 L 460 360" class="arrow arrow4"></path><path d="M 260 180 L 510 180" class="arrow arrow2"></path><path d="M 210 90 L 210 125 A 10 10, 0, 0, 0, 220 135 L 500 135 A 10 10, 0, 0, 1, 510 145 L 510 180" class="arrow arrow1"></path><path d="M 460 360 L 560 360" class="arrow arrow4"></path><path d="M 410 270 L 610 270" class="arrow arrow3"></path><path d="M 510 180 L 660 180" class="arrow arrow2"></path><path d="M 560 360 L 640 360 A 20 20, 0, 0, 0, 660 340 L 660 180" class="arrow arrow4"></path><path d="M 660 180 L 660 430 A 20 20, 0, 0, 0, 680 450 L 710 450" class="arrow arrow5"></path><path d="M 360 0 L 760 0" class="arrow arrow0"></path><path d="M 710 450 L 810 450" class="arrow arrow5"></path><path d="M 760 0 L 790 0 A 20 20, 0, 0, 1, 810 20 L 810 450" class="arrow arrow0"></path><path d="M 660 180 L 860 180" class="arrow arrow2"></path><path d="M 810 450 L 840 450 A 20 20, 0, 0, 0, 860 430 L 860 180" class="arrow arrow5"></path></g><g class="commit-bullets"><circle cx="10" cy="0" r="10" class="commit 0-ab40cda commit0"></circle><circle cx="60" cy="90" r="10" class="commit 1-5b722bd commit1"></circle><circle cx="110" cy="180" r="10" class="commit ash commit2"></circle><rect x="150" y="260" width="20" height="20" class="commit 3-a218e74 commit-highlight3 commit-highlight-outer"></rect><rect x="154" y="264" width="12" height="12" class="commit 3-a218e74 commit3 commit-highlight-inner"></rect><circle cx="210" cy="90" r="10" class="commit 4-a13d8e6 commit1"></circle><circle cx="260" cy="180" r="10" class="commit 5-445e440 commit2"></circle><path d="M 255,175L265,185M255,185L265,175" class="commit commit-reverse 5-445e440 commit2"></path><circle cx="310" cy="270" r="10" class="commit 6-0585c39 commit3"></circle><circle cx="360" cy="0" r="9" class="commit 7-c64d8fd commit0"></circle><circle cx="360" cy="0" r="6" class="commit commit-merge 7-c64d8fd commit0"></circle><circle cx="410" cy="270" r="10" class="commit 8-889fb03 commit3"></circle><circle cx="460" cy="360" r="10" class="commit 9-8cc1c69 commit4"></circle><circle cx="510" cy="180" r="9" class="commit 10-836fa85 commit2"></circle><circle cx="510" cy="180" r="6" class="commit commit-merge 10-836fa85 commit2"></circle><circle cx="560" cy="360" r="10" class="commit 11-20a99c9 commit4"></circle><circle cx="610" cy="270" r="10" class="commit 12-f84fbe2 commit3"></circle><circle cx="660" cy="180" r="9" class="commit 13-8007ff3 commit2"></circle><circle cx="660" cy="180" r="6" class="commit commit-merge 13-8007ff3 commit2"></circle><circle cx="710" cy="450" r="10" class="commit 14-a3fc599 commit5"></circle><circle cx="760" cy="0" r="10" class="commit 15-d45d0aa commit0"></circle><circle cx="810" cy="450" r="9" class="commit 16-979244a commit5"></circle><circle cx="810" cy="450" r="6" class="commit commit-merge 16-979244a commit5"></circle><circle cx="860" cy="180" r="9" class="commit 17-3f5aa32 commit2"></circle><circle cx="860" cy="180" r="6" class="commit commit-merge 17-3f5aa32 commit2"></circle></g><g class="commit-labels"><g transform="translate(-29.0657421875, 25.8956640625) rotate(-45, 0, 0)"><rect class="commit-label-bkg" x="-15.3759765625" y="13.5" width="50.751953125" height="15"></rect><text x="-13.3759765625" y="25" class="commit-label">0-ab40cda</text></g><g transform="translate(-29.173359374999997, 25.991953125000002) rotate(-45, 50, 90)"><rect class="commit-label-bkg" x="34.482421875" y="103.5" width="51.03515625" height="15"></rect><text x="36.482421875" y="115" class="commit-label">1-5b722bd</text></g><g transform="translate(-17.11466796875, 15.20259765625) rotate(-45, 100, 180)"><rect class="commit-label-bkg" x="100.34912109375" y="193.5" width="19.3017578125" height="15"></rect><text x="102.34912109375" y="205" class="commit-label">ash</text></g><polygon class="tag-label-bkg" points="90.08740234375,162.8  
      90.08740234375,158.8
      98.08740234375,153.3
      121.91259765625,153.3
      121.91259765625,168.3
      98.08740234375,168.3"></polygon><circle cy="160.8" cx="94.08740234375" r="1.5" class="tag-hole"></circle><text y="164" class="tag-label" x="102.08740234375">abc</text><g transform="translate(-29.008222656250002, 25.84419921875) rotate(-45, 150, 270)"><rect class="commit-label-bkg" x="134.69970703125" y="283.5" width="50.6005859375" height="15"></rect><text x="136.69970703125" y="295" class="commit-label">3-a218e74</text></g><g transform="translate(-29.512539062499997, 26.2954296875) rotate(-45, 200, 90)"><rect class="commit-label-bkg" x="184.0361328125" y="103.5" width="51.927734375" height="15"></rect><text x="186.0361328125" y="115" class="commit-label">4-a13d8e6</text></g><g transform="translate(-29.00451171875, 25.840878906249998) rotate(-45, 250, 180)"><rect class="commit-label-bkg" x="234.70458984375" y="193.5" width="50.5908203125" height="15"></rect><text x="236.70458984375" y="205" class="commit-label">5-445e440</text></g><g transform="translate(-28.813398437500002, 25.6698828125) rotate(-45, 300, 270)"><rect class="commit-label-bkg" x="284.9560546875" y="283.5" width="50.087890625" height="15"></rect><text x="286.9560546875" y="295" class="commit-label">6-0585c39</text></g><g transform="translate(-28.174375, 25.098125000000003) rotate(-45, 400, 270)"><rect class="commit-label-bkg" x="385.796875" y="283.5" width="48.40625" height="15"></rect><text x="387.796875" y="295" class="commit-label">8-889fb03</text></g><g transform="translate(-28.590742187500002, 25.4706640625) rotate(-45, 450, 360)"><rect class="commit-label-bkg" x="435.2490234375" y="373.5" width="49.501953125" height="15"></rect><text x="437.2490234375" y="385" class="commit-label">9-8cc1c69</text></g><g transform="translate(-30.8098828125, 27.4562109375) rotate(-45, 550, 360)"><rect class="commit-label-bkg" x="532.3291015625" y="373.5" width="55.341796875" height="15"></rect><text x="534.3291015625" y="385" class="commit-label">11-20a99c9</text></g><g transform="translate(-29.945234375000002, 26.682578125) rotate(-45, 600, 270)"><rect class="commit-label-bkg" x="583.466796875" y="283.5" width="53.06640625" height="15"></rect><text x="585.466796875" y="295" class="commit-label">12-f84fbe2</text></g><g transform="translate(-30.221699218749997, 26.92994140625) rotate(-45, 700, 450)"><rect class="commit-label-bkg" x="683.10302734375" y="463.5" width="53.7939453125" height="15"></rect><text x="685.10302734375" y="475" class="commit-label">14-a3fc599</text></g><g transform="translate(-31.169843750000002, 27.778281250000003) rotate(-45, 750, 0)"><rect class="commit-label-bkg" x="731.85546875" y="13.5" width="56.2890625" height="15"></rect><text x="733.85546875" y="25" class="commit-label">15-d45d0aa</text></g></g></svg>