<svg id="upstream_cypress_gitgraph_spec_29_should_render_commits_for_more_than_8_branches_vertical_branc_032" width="100%" xmlns="http://www.w3.org/2000/svg" xmlns:xlink="http://www.w3.org/1999/xlink" style="max-width: 1166.3221435546875px; background-color: white;" viewBox="-63.44711685180664 -8 1166.3221435546875 958.7913208007812" role="graphics-document document" aria-roledescription="gitGraph"><style>#upstream_cypress_gitgraph_spec_29_should_render_commits_for_more_than_8_branches_vertical_branc_032{font-family:"trebuchet ms",verdana,arial,sans-serif;font-size:16px;fill:#333;}@keyframes edge-animation-frame{from{stroke-dashoffset:0;}}@keyframes dash{to{stroke-dashoffset:0;}}#upstream_cypress_gitgraph_spec_29_should_render_commits_for_more_than_8_branches_vertical_branc_032 .edge-animation-slow{stroke-dasharray:9,5!important;stroke-dashoffset:900;animation:dash 50s linear infinite;stroke-linecap:round;}#upstream_cypress_gitgraph_spec_29_should_render_commits_for_more_than_8_branches_vertical_branc_032 .edge-animation-fast{stroke-dasharray:9,5!important;stroke-dashoffset:900;animation:dash 20s linear infinite;stroke-linecap:round;}#upstream_cypress_gitgraph_spec_29_should_render_commits_for_more_than_8_branches_vertical_branc_032 .error-icon{fill:#552222;}#upstream_cypress_gitgraph_spec_29_should_render_commits_for_more_than_8_branches_vertical_branc_032 .error-text{fill:#552222;stroke:#552222;}#upstream_cypress_gitgraph_spec_29_should_render_commits_for_more_than_8_branches_vertical_branc_032 .edge-thickness-normal{stroke-width:1px;}#upstream_cypress_gitgraph_spec_29_should_render_commits_for_more_than_8_branches_vertical_branc_032 .edge-thickness-thick{stroke-width:3.5px;}#upstream_cypress_gitgraph_spec_29_should_render_commits_for_more_than_8_branches_vertical_branc_032 .edge-pattern-solid{stroke-dasharray:0;}#upstream_cypress_gitgraph_spec_29_should_render_commits_for_more_than_8_branches_vertical_branc_032 .edge-thickness-invisible{stroke-width:0;fill:none;}#upstream_cypress_gitgraph_spec_29_should_render_commits_for_more_than_8_branches_vertical_branc_032 .edge-pattern-dashed{stroke-dasharray:3;}#upstream_cypress_gitgraph_spec_29_should_render_commits_for_more_than_8_branches_vertical_branc_032 .edge-pattern-dotted{stroke-dasharray:2;}#upstream_cypress_gitgraph_spec_29_should_render_commits_for_more_than_8_branches_vertical_branc_032 .marker{fill:#333333;stroke:#333333;}#upstream_cypress_gitgraph_spec_29_should_render_commits_for_more_than_8_branches_vertical_branc_032 .marker.cross{stroke:#333333;}#upstream_cypress_gitgraph_spec_29_should_render_commits_for_more_than_8_branches_vertical_branc_032 svg{font-family:"trebuchet ms",verdana,arial,sans-serif;font-size:16px;}#upstream_cypress_gitgraph_spec_29_should_render_commits_for_more_than_8_branches_vertical_branc_032 p{margin:0;}#upstream_cypress_gitgraph_spec_29_should_render_commits_for_more_than_8_branches_vertical_branc_032 .commit-id,#upstream_cypress_gitgraph_spec_29_should_render_commits_for_more_than_8_branches_vertical_branc_032 .commit-msg,#upstream_cypress_gitgraph_spec_29_should_render_commits_for_more_than_8_branches_vertical_branc_032 .branch-label{fill:lightgrey;color:lightgrey;font-family:'trebuchet ms',verdana,arial,sans-serif;font-family:var(--mermaid-font-family);}#upstream_cypress_gitgraph_spec_29_should_render_commits_for_more_than_8_branches_vertical_branc_032 .branch-label0{fill:#ffffff;}#upstream_cypress_gitgraph_spec_29_should_render_commits_for_more_than_8_branches_vertical_branc_032 .commit0{stroke:hsl(240, 100%, 46.2745098039%);fill:hsl(240, 100%, 46.2745098039%);}#upstream_cypress_gitgraph_spec_29_should_render_commits_for_more_than_8_branches_vertical_branc_032 .commit-highlight0{stroke:hsl(60, 100%, 3.7254901961%);fill:hsl(60, 100%, 3.7254901961%);}#upstream_cypress_gitgraph_spec_29_should_render_commits_for_more_than_8_branches_vertical_branc_032 .label0{fill:hsl(240, 100%, 46.2745098039%);}#upstream_cypress_gitgraph_spec_29_should_render_commits_for_more_than_8_branches_vertical_branc_032 .arrow0{stroke:hsl(240, 100%, 46.2745098039%);}#upstream_cypress_gitgraph_spec_29_should_render_commits_for_more_than_8_branches_vertical_branc_032 .branch-label1{fill:black;}#upstream_cypress_gitgraph_spec_29_should_render_commits_for_more_than_8_branches_vertical_branc_032 .commit1{stroke:hsl(60, 100%, 43.5294117647%);fill:hsl(60, 100%, 43.5294117647%);}#upstream_cypress_gitgraph_spec_29_should_render_commits_for_more_than_8_branches_vertical_branc_032 .commit-highlight1{stroke:rgb(0, 0, 160.5);fill:rgb(0, 0, 160.5);}#upstream_cypress_gitgraph_spec_29_should_render_commits_for_more_than_8_branches_vertical_branc_032 .label1{fill:hsl(60, 100%, 43.5294117647%);}#upstream_cypress_gitgraph_spec_29_should_render_commits_for_more_than_8_branches_vertical_branc_032 .arrow1{stroke:hsl(60, 100%, 43.5294117647%);}#upstream_cypress_gitgraph_spec_29_should_render_commits_for_more_than_8_branches_vertical_branc_032 .branch-label2{fill:black;}#upstream_cypress_gitgraph_spec_29_should_render_commits_for_more_than_8_branches_vertical_branc_032 .commit2{stroke:hsl(80, 100%, 46.2745098039%);fill:hsl(80, 100%, 46.2745098039%);}#upstream_cypress_gitgraph_spec_29_should_render_commits_for_more_than_8_branches_vertical_branc_032 .commit-highlight2{stroke:rgb(48.8333333334, 0, 146.5000000001);fill:rgb(48.8333333334, 0, 146.5000000001);}#upstream_cypress_gitgraph_spec_29_should_render_commits_for_more_than_8_branches_vertical_branc_032 .label2{fill:hsl(80, 100%, 46.2745098039%);}#upstream_cypress_gitgraph_spec_29_should_render_commits_for_more_than_8_branches_vertical_branc_032 .arrow2{stroke:hsl(80, 100%, 46.2745098039%);}#upstream_cypress_gitgraph_spec_29_should_render_commits_for_more_than_8_branches_vertical_branc_032 .branch-label3{fill:#ffffff;}#upstream_cypress_gitgraph_spec_29_should_render_commits_for_more_than_8_branches_vertical_branc_032 .commit3{stroke:hsl(210, 100%, 46.2745098039%);fill:hsl(210, 100%, 46.2745098039%);}#upstream_cypress_gitgraph_spec_29_should_render_commits_for_more_than_8_branches_vertical_branc_032 .commit-highlight3{stroke:rgb(146.5000000001, 73.2500000001, 0);fill:rgb(146.5000000001, 73.2500000001, 0);}#upstream_cypress_gitgraph_spec_29_should_render_commits_for_more_than_8_branches_vertical_branc_032 .label3{fill:hsl(210, 100%, 46.2745098039%);}#upstream_cypress_gitgraph_spec_29_should_render_commits_for_more_than_8_branches_vertical_branc_032 .arrow3{stroke:hsl(210, 100%, 46.2745098039%);}#upstream_cypress_gitgraph_spec_29_should_render_commits_for_more_than_8_branches_vertical_branc_032 .branch-label4{fill:black;}#upstream_cypress_gitgraph_spec_29_should_render_commits_for_more_than_8_branches_vertical_branc_032 .commit4{stroke:hsl(180, 100%, 46.2745098039%);fill:hsl(180, 100%, 46.2745098039%);}#upstream_cypress_gitgraph_spec_29_should_render_commits_for_more_than_8_branches_vertical_branc_032 .commit-highlight4{stroke:rgb(146.5000000001, 0, 0);fill:rgb(146.5000000001, 0, 0);}#upstream_cypress_gitgraph_spec_29_should_render_commits_for_more_than_8_branches_vertical_branc_032 .label4{fill:hsl(180, 100%, 46.2745098039%);}#upstream_cypress_gitgraph_spec_29_should_render_commits_for_more_than_8_branches_vertical_branc_032 .arrow4{stroke:hsl(180, 100%, 46.2745098039%);}#upstream_cypress_gitgraph_spec_29_should_render_commits_for_more_than_8_branches_vertical_branc_032 .branch-label5{fill:black;}#upstream_cypress_gitgraph_spec_29_should_render_commits_for_more_than_8_branches_vertical_branc_032 .commit5{stroke:hsl(150, 100%, 46.2745098039%);fill:hsl(150, 100%, 46.2745098039%);}#upstream_cypress_gitgraph_spec_29_should_render_commits_for_more_than_8_branches_vertical_branc_032 .commit-highlight5{stroke:rgb(146.5000000001, 0, 73.2500000001);fill:rgb(146.5000000001, 0, 73.2500000001);}#upstream_cypress_gitgraph_spec_29_should_render_commits_for_more_than_8_branches_vertical_branc_032 .label5{fill:hsl(150, 100%, 46.2745098039%);}#upstream_cypress_gitgraph_spec_29_should_render_commits_for_more_than_8_branches_vertical_branc_032 .arrow5{stroke:hsl(150, 100%, 46.2745098039%);}#upstream_cypress_gitgraph_spec_29_should_render_commits_for_more_than_8_branches_vertical_branc_032 .branch-label6{fill:black;}#upstream_cypress_gitgraph_spec_29_should_render_commits_for_more_than_8_branches_vertical_branc_032 .commit6{stroke:hsl(300, 100%, 46.2745098039%);fill:hsl(300, 100%, 46.2745098039%);}#upstream_cypress_gitgraph_spec_29_should_render_commits_for_more_than_8_branches_vertical_branc_032 .commit-highlight6{stroke:rgb(0, 146.5000000001, 0);fill:rgb(0, 146.5000000001, 0);}#upstream_cypress_gitgraph_spec_29_should_render_commits_for_more_than_8_branches_vertical_branc_032 .label6{fill:hsl(300, 100%, 46.2745098039%);}#upstream_cypress_gitgraph_spec_29_should_render_commits_for_more_than_8_branches_vertical_branc_032 .arrow6{stroke:hsl(300, 100%, 46.2745098039%);}#upstream_cypress_gitgraph_spec_29_should_render_commits_for_more_than_8_branches_vertical_branc_032 .branch-label7{fill:black;}#upstream_cypress_gitgraph_spec_29_should_render_commits_for_more_than_8_branches_vertical_branc_032 .commit7{stroke:hsl(0, 100%, 46.2745098039%);fill:hsl(0, 100%, 46.2745098039%);}#upstream_cypress_gitgraph_spec_29_should_render_commits_for_more_than_8_branches_vertical_branc_032 .commit-highlight7{stroke:rgb(0, 146.5000000001, 146.5000000001);fill:rgb(0, 146.5000000001, 146.5000000001);}#upstream_cypress_gitgraph_spec_29_should_render_commits_for_more_than_8_branches_vertical_branc_032 .label7{fill:hsl(0, 100%, 46.2745098039%);}#upstream_cypress_gitgraph_spec_29_should_render_commits_for_more_than_8_branches_vertical_branc_032 .arrow7{stroke:hsl(0, 100%, 46.2745098039%);}#upstream_cypress_gitgraph_spec_29_should_render_commits_for_more_than_8_branches_vertical_branc_032 .branch{stroke-width:1;stroke:#333333;stroke-dasharray:2;}#upstream_cypress_gitgraph_spec_29_should_render_commits_for_more_than_8_branches_vertical_branc_032 .commit-label{font-size:10px;fill:#000021;}#upstream_cypress_gitgraph_spec_29_should_render_commits_for_more_than_8_branches_vertical_branc_032 .commit-label-bkg{font-size:10px;fill:#ffffde;opacity:0.5;}#upstream_cypress_gitgraph_spec_29_should_render_commits_for_more_than_8_branches_vertical_branc_032 .tag-label{font-size:10px;fill:#131300;}#upstream_cypress_gitgraph_spec_29_should_render_commits_for_more_than_8_branches_vertical_branc_032 .tag-label-bkg{fill:#ECECFF;stroke:hsl(240, 60%, 86.2745098039%);}#upstream_cypress_gitgraph_spec_29_should_render_commits_for_more_than_8_branches_vertical_branc_032 .tag-hole{fill:#333;}#upstream_cypress_gitgraph_spec_29_should_render_commits_for_more_than_8_branches_vertical_branc_032 .commit-merge{stroke:#ECECFF;fill:#ECECFF;}#upstream_cypress_gitgraph_spec_29_should_render_commits_for_more_than_8_branches_vertical_branc_032 .commit-reverse{stroke:#ECECFF;fill:#ECECFF;stroke-width:3;}#upstream_cypress_gitgraph_spec_29_should_render_commits_for_more_than_8_branches_vertical_branc_032 .commit-highlight-inner{stroke:#ECECFF;fill:#ECECFF;}#upstream_cypress_gitgraph_spec_29_should_render_commits_for_more_than_8_branches_vertical_branc_032 .arrow{stroke-width:8;stroke-linecap:round;fill:none;}#upstream_cypress_gitgraph_spec_29_should_render_commits_for_more_than_8_branches_vertical_branc_032 .gitTitleText{text-anchor:middle;font-size:18px;fill:#333;}#upstream_cypress_gitgraph_spec_29_should_render_commits_for_more_than_8_branches_vertical_branc_032 :root{--mermaid-font-family:"trebuchet ms",verdana,arial,sans-serif;}</style><g/><g class="commit-bullets"/><g class="commit-labels"/><g><line x1="0" y1="30" x2="0" y2="930" class="branch branch0"/><rect class="branchLabelBkg label0" rx="4" ry="4" x="-27.625" y="0" width="53.25" height="23"/><g class="branchLabel"><g class="label branch-label0" transform="translate(-22.625, 0)"><text><tspan xml:space="preserve" dy="1em" x="0" class="row">main</tspan></text></g></g><line x1="107.625" y1="30" x2="107.625" y2="930" class="branch branch1"/><rect class="branchLabelBkg label1" rx="4" ry="4" x="68.953125" y="0" width="75.34375" height="23"/><g class="branchLabel"><g class="label branch-label1" transform="translate(73.953125, 0)"><text><tspan xml:space="preserve" dy="1em" x="0" class="row">branch1</tspan></text></g></g><line x1="226.296875" y1="30" x2="226.296875" y2="930" class="branch branch2"/><rect class="branchLabelBkg label2" rx="4" ry="4" x="187.625" y="0" width="75.34375" height="23"/><g class="branchLabel"><g class="label branch-label2" transform="translate(192.625, 0)"><text><tspan xml:space="preserve" dy="1em" x="0" class="row">branch2</tspan></text></g></g><line x1="344.96875" y1="30" x2="344.96875" y2="930" class="branch branch3"/><rect class="branchLabelBkg label3" rx="4" ry="4" x="306.296875" y="0" width="75.34375" height="23"/><g class="branchLabel"><g class="label branch-label3" transform="translate(311.296875, 0)"><text><tspan xml:space="preserve" dy="1em" x="0" class="row">branch3</tspan></text></g></g><line x1="463.640625" y1="30" x2="463.640625" y2="930" class="branch branch4"/><rect class="branchLabelBkg label4" rx="4" ry="4" x="424.66796875" y="0" width="75.9453125" height="23"/><g class="branchLabel"><g class="label branch-label4" transform="translate(429.66796875, 0)"><text><tspan xml:space="preserve" dy="1em" x="0" class="row">branch4</tspan></text></g></g><line x1="582.61328125" y1="30" x2="582.61328125" y2="930" class="branch branch5"/><rect class="branchLabelBkg label5" rx="4" ry="4" x="543.94140625" y="0" width="75.34375" height="23"/><g class="branchLabel"><g class="label branch-label5" transform="translate(548.94140625, 0)"><text><tspan xml:space="preserve" dy="1em" x="0" class="row">branch5</tspan></text></g></g><line x1="701.28515625" y1="30" x2="701.28515625" y2="930" class="branch branch6"/><rect class="branchLabelBkg label6" rx="4" ry="4" x="662.3125" y="0" width="75.9453125" height="23"/><g class="branchLabel"><g class="label branch-label6" transform="translate(667.3125, 0)"><text><tspan xml:space="preserve" dy="1em" x="0" class="row">branch6</tspan></text></g></g><line x1="820.2578125" y1="30" x2="820.2578125" y2="930" class="branch branch7"/><rect class="branchLabelBkg label7" rx="4" ry="4" x="781.28515625" y="0" width="75.9453125" height="23"/><g class="branchLabel"><g class="label branch-label7" transform="translate(786.28515625, 0)"><text><tspan xml:space="preserve" dy="1em" x="0" class="row">branch7</tspan></text></g></g><line x1="939.23046875" y1="30" x2="939.23046875" y2="930" class="branch branch0"/><rect class="branchLabelBkg label0" rx="4" ry="4" x="900.2578125" y="0" width="75.9453125" height="23"/><g class="branchLabel"><g class="label branch-label0" transform="translate(905.2578125, 0)"><text><tspan xml:space="preserve" dy="1em" x="0" class="row">branch8</tspan></text></g></g><line x1="1058.203125" y1="30" x2="1058.203125" y2="930" class="branch branch1"/><rect class="branchLabelBkg label1" rx="4" ry="4" x="1019.53125" y="0" width="75.34375" height="23"/><g class="branchLabel"><g class="label branch-label1" transform="translate(1024.53125, 0)"><text><tspan xml:space="preserve" dy="1em" x="0" class="row">branch9</tspan></text></g></g></g><g class="commit-arrows"><path d="M 0 40 L 87.625 40 A 20 20, 0, 0, 1, 107.625 60 L 107.625 90" class="arrow arrow1"/><path d="M 0 40 L 0 140" class="arrow arrow0"/><path d="M 107.625 90 L 107.625 120 A 20 20, 0, 0, 1, 87.625 140 L 0 140" class="arrow arrow1"/><path d="M 0 140 L 206.296875 140 A 20 20, 0, 0, 1, 226.296875 160 L 226.296875 190" class="arrow arrow2"/><path d="M 0 140 L 0 240" class="arrow arrow0"/><path d="M 226.296875 190 L 226.296875 220 A 20 20, 0, 0, 1, 206.296875 240 L 0 240" class="arrow arrow2"/><path d="M 0 240 L 324.96875 240 A 20 20, 0, 0, 1, 344.96875 260 L 344.96875 290" class="arrow arrow3"/><path d="M 0 240 L 0 340" class="arrow arrow0"/><path d="M 344.96875 290 L 344.96875 320 A 20 20, 0, 0, 1, 324.96875 340 L 0 340" class="arrow arrow3"/><path d="M 0 340 L 443.640625 340 A 20 20, 0, 0, 1, 463.640625 360 L 463.640625 390" class="arrow arrow4"/><path d="M 0 340 L 0 440" class="arrow arrow0"/><path d="M 463.640625 390 L 463.640625 420 A 20 20, 0, 0, 1, 443.640625 440 L 0 440" class="arrow arrow4"/><path d="M 0 440 L 562.61328125 440 A 20 20, 0, 0, 1, 582.61328125 460 L 582.61328125 490" class="arrow arrow5"/><path d="M 0 440 L 0 540" class="arrow arrow0"/><path d="M 582.61328125 490 L 582.61328125 520 A 20 20, 0, 0, 1, 562.61328125 540 L 0 540" class="arrow arrow5"/><path d="M 0 540 L 681.28515625 540 A 20 20, 0, 0, 1, 701.28515625 560 L 701.28515625 590" class="arrow arrow6"/><path d="M 0 540 L 0 640" class="arrow arrow0"/><path d="M 701.28515625 590 L 701.28515625 620 A 20 20, 0, 0, 1, 681.28515625 640 L 0 640" class="arrow arrow6"/><path d="M 0 640 L 800.2578125 640 A 20 20, 0, 0, 1, 820.2578125 660 L 820.2578125 690" class="arrow arrow7"/><path d="M 0 640 L 0 740" class="arrow arrow0"/><path d="M 820.2578125 690 L 820.2578125 720 A 20 20, 0, 0, 1, 800.2578125 740 L 0 740" class="arrow arrow7"/><path d="M 0 740 L 919.23046875 740 A 20 20, 0, 0, 1, 939.23046875 760 L 939.23046875 790" class="arrow arrow0"/><path d="M 0 740 L 0 840" class="arrow arrow0"/><path d="M 939.23046875 790 L 939.23046875 820 A 20 20, 0, 0, 1, 919.23046875 840 L 0 840" class="arrow arrow0"/><path d="M 0 840 L 1038.203125 840 A 20 20, 0, 0, 1, 1058.203125 860 L 1058.203125 890" class="arrow arrow1"/></g><g class="commit-bullets"><circle cx="0" cy="40" r="10" class="commit 1-abcdefg commit0"/><circle cx="107.625" cy="90" r="10" class="commit 2-abcdefg commit1"/><circle cx="0" cy="140" r="9" class="commit 2-8cc1c69 commit0"/><circle cx="0" cy="140" r="6" class="commit commit-merge 2-8cc1c69 commit0"/><circle cx="226.296875" cy="190" r="10" class="commit 3-abcdefg commit2"/><circle cx="0" cy="240" r="9" class="commit 4-836fa85 commit0"/><circle cx="0" cy="240" r="6" class="commit commit-merge 4-836fa85 commit0"/><circle cx="344.96875" cy="290" r="10" class="commit 4-abcdefg commit3"/><circle cx="0" cy="340" r="9" class="commit 6-20a99c9 commit0"/><circle cx="0" cy="340" r="6" class="commit commit-merge 6-20a99c9 commit0"/><circle cx="463.640625" cy="390" r="10" class="commit 5-abcdefg commit4"/><circle cx="0" cy="440" r="9" class="commit 8-f84fbe2 commit0"/><circle cx="0" cy="440" r="6" class="commit commit-merge 8-f84fbe2 commit0"/><circle cx="582.61328125" cy="490" r="10" class="commit 6-abcdefg commit5"/><circle cx="0" cy="540" r="9" class="commit 10-8007ff3 commit0"/><circle cx="0" cy="540" r="6" class="commit commit-merge 10-8007ff3 commit0"/><circle cx="701.28515625" cy="590" r="10" class="commit 7-abcdefg commit6"/><circle cx="0" cy="640" r="9" class="commit 12-a3fc599 commit0"/><circle cx="0" cy="640" r="6" class="commit commit-merge 12-a3fc599 commit0"/><circle cx="820.2578125" cy="690" r="10" class="commit 8-abcdefg commit7"/><circle cx="0" cy="740" r="9" class="commit 14-d45d0aa commit0"/><circle cx="0" cy="740" r="6" class="commit commit-merge 14-d45d0aa commit0"/><circle cx="939.23046875" cy="790" r="10" class="commit 9-abcdefg commit0"/><circle cx="0" cy="840" r="9" class="commit 16-979244a commit0"/><circle cx="0" cy="840" r="6" class="commit commit-merge 16-979244a commit0"/><circle cx="1058.203125" cy="890" r="10" class="commit 10-abcdefg commit1"/></g><g class="commit-labels"><g><rect class="commit-label-bkg" x="-66.4140625" y="28" width="49.4140625" height="15" transform="rotate(-45, 0, 40)"/><text x="-61.4140625" y="39" class="commit-label" transform="rotate(-45, 0, 40)">1-abcdefg</text></g><g><rect class="commit-label-bkg" x="41.2109375" y="78" width="49.4140625" height="15" transform="rotate(-45, 107.625, 90)"/><text x="46.2109375" y="89" class="commit-label" transform="rotate(-45, 107.625, 90)">2-abcdefg</text></g><g><rect class="commit-label-bkg" x="159.8828125" y="178" width="49.4140625" height="15" transform="rotate(-45, 226.296875, 190)"/><text x="164.8828125" y="189" class="commit-label" transform="rotate(-45, 226.296875, 190)">3-abcdefg</text></g><g><rect class="commit-label-bkg" x="277.5546875" y="278" width="50.4140625" height="15" transform="rotate(-45, 344.96875, 290)"/><text x="282.5546875" y="289" class="commit-label" transform="rotate(-45, 344.96875, 290)">4-abcdefg</text></g><g><rect class="commit-label-bkg" x="397.2265625" y="378" width="49.4140625" height="15" transform="rotate(-45, 463.640625, 390)"/><text x="402.2265625" y="389" class="commit-label" transform="rotate(-45, 463.640625, 390)">5-abcdefg</text></g><g><rect class="commit-label-bkg" x="516.19921875" y="478" width="49.4140625" height="15" transform="rotate(-45, 582.61328125, 490)"/><text x="521.19921875" y="489" class="commit-label" transform="rotate(-45, 582.61328125, 490)">6-abcdefg</text></g><g><rect class="commit-label-bkg" x="634.87109375" y="578" width="49.4140625" height="15" transform="rotate(-45, 701.28515625, 590)"/><text x="639.87109375" y="589" class="commit-label" transform="rotate(-45, 701.28515625, 590)">7-abcdefg</text></g><g><rect class="commit-label-bkg" x="753.84375" y="678" width="49.4140625" height="15" transform="rotate(-45, 820.2578125, 690)"/><text x="758.84375" y="689" class="commit-label" transform="rotate(-45, 820.2578125, 690)">8-abcdefg</text></g><g><rect class="commit-label-bkg" x="872.81640625" y="778" width="49.4140625" height="15" transform="rotate(-45, 939.23046875, 790)"/><text x="877.81640625" y="789" class="commit-label" transform="rotate(-45, 939.23046875, 790)">9-abcdefg</text></g><g><rect class="commit-label-bkg" x="986.544921875" y="878" width="54.658203125" height="15" transform="rotate(-45, 1058.203125, 890)"/><text x="991.544921875" y="889" class="commit-label" transform="rotate(-45, 1058.203125, 890)">10-abcdefg</text></g></g></svg>