<svg id="upstream_commits_spec" width="100%" xmlns="http://www.w3.org/2000/svg" xmlns:xlink="http://www.w3.org/1999/xlink" style="max-width: 804.25px; background-color: white;" viewBox="-96.25 -34.70000076293945 804.25 102.39081573486328" role="graphics-document document" aria-roledescription="gitGraph"><style>#upstream_commits_spec{font-family:"trebuchet ms",verdana,arial,sans-serif;font-size:16px;fill:#333;}@keyframes edge-animation-frame{from{stroke-dashoffset:0;}}@keyframes dash{to{stroke-dashoffset:0;}}#upstream_commits_spec .edge-animation-slow{stroke-dasharray:9,5!important;stroke-dashoffset:900;animation:dash 50s linear infinite;stroke-linecap:round;}#upstream_commits_spec .edge-animation-fast{stroke-dasharray:9,5!important;stroke-dashoffset:900;animation:dash 20s linear infinite;stroke-linecap:round;}#upstream_commits_spec .error-icon{fill:#552222;}#upstream_commits_spec .error-text{fill:#552222;stroke:#552222;}#upstream_commits_spec .edge-thickness-normal{stroke-width:1px;}#upstream_commits_spec .edge-thickness-thick{stroke-width:3.5px;}#upstream_commits_spec .edge-pattern-solid{stroke-dasharray:0;}#upstream_commits_spec .edge-thickness-invisible{stroke-width:0;fill:none;}#upstream_commits_spec .edge-pattern-dashed{stroke-dasharray:3;}#upstream_commits_spec .edge-pattern-dotted{stroke-dasharray:2;}#upstream_commits_spec .marker{fill:#333333;stroke:#333333;}#upstream_commits_spec .marker.cross{stroke:#333333;}#upstream_commits_spec svg{font-family:"trebuchet ms",verdana,arial,sans-serif;font-size:16px;}#upstream_commits_spec p{margin:0;}#upstream_commits_spec .commit-id,#upstream_commits_spec .commit-msg,#upstream_commits_spec .branch-label{fill:lightgrey;color:lightgrey;font-family:'trebuchet ms',verdana,arial,sans-serif;font-family:var(--mermaid-font-family);}#upstream_commits_spec .branch-label0{fill:#ffffff;}#upstream_commits_spec .commit0{stroke:hsl(240, 100%, 46.2745098039%);fill:hsl(240, 100%, 46.2745098039%);}#upstream_commits_spec .commit-highlight0{stroke:hsl(60, 100%, 3.7254901961%);fill:hsl(60, 100%, 3.7254901961%);}#upstream_commits_spec .label0{fill:hsl(240, 100%, 46.2745098039%);}#upstream_commits_spec .arrow0{stroke:hsl(240, 100%, 46.2745098039%);}#upstream_commits_spec .branch-label1{fill:black;}#upstream_commits_spec .commit1{stroke:hsl(60, 100%, 43.5294117647%);fill:hsl(60, 100%, 43.5294117647%);}#upstream_commits_spec .commit-highlight1{stroke:rgb(0, 0, 160.5);fill:rgb(0, 0, 160.5);}#upstream_commits_spec .label1{fill:hsl(60, 100%, 43.5294117647%);}#upstream_commits_spec .arrow1{stroke:hsl(60, 100%, 43.5294117647%);}#upstream_commits_spec .branch-label2{fill:black;}#upstream_commits_spec .commit2{stroke:hsl(80, 100%, 46.2745098039%);fill:hsl(80, 100%, 46.2745098039%);}#upstream_commits_spec .commit-highlight2{stroke:rgb(48.8333333334, 0, 146.5000000001);fill:rgb(48.8333333334, 0, 146.5000000001);}#upstream_commits_spec .label2{fill:hsl(80, 100%, 46.2745098039%);}#upstream_commits_spec .arrow2{stroke:hsl(80, 100%, 46.2745098039%);}#upstream_commits_spec .branch-label3{fill:#ffffff;}#upstream_commits_spec .commit3{stroke:hsl(210, 100%, 46.2745098039%);fill:hsl(210, 100%, 46.2745098039%);}#upstream_commits_spec .commit-highlight3{stroke:rgb(146.5000000001, 73.2500000001, 0);fill:rgb(146.5000000001, 73.2500000001, 0);}#upstream_commits_spec .label3{fill:hsl(210, 100%, 46.2745098039%);}#upstream_commits_spec .arrow3{stroke:hsl(210, 100%, 46.2745098039%);}#upstream_commits_spec .branch-label4{fill:black;}#upstream_commits_spec .commit4{stroke:hsl(180, 100%, 46.2745098039%);fill:hsl(180, 100%, 46.2745098039%);}#upstream_commits_spec .commit-highlight4{stroke:rgb(146.5000000001, 0, 0);fill:rgb(146.5000000001, 0, 0);}#upstream_commits_spec .label4{fill:hsl(180, 100%, 46.2745098039%);}#upstream_commits_spec .arrow4{stroke:hsl(180, 100%, 46.2745098039%);}#upstream_commits_spec .branch-label5{fill:black;}#upstream_commits_spec .commit5{stroke:hsl(150, 100%, 46.2745098039%);fill:hsl(150, 100%, 46.2745098039%);}#upstream_commits_spec .commit-highlight5{stroke:rgb(146.5000000001, 0, 73.2500000001);fill:rgb(146.5000000001, 0, 73.2500000001);}#upstream_commits_spec .label5{fill:hsl(150, 100%, 46.2745098039%);}#upstream_commits_spec .arrow5{stroke:hsl(150, 100%, 46.2745098039%);}#upstream_commits_spec .branch-label6{fill:black;}#upstream_commits_spec .commit6{stroke:hsl(300, 100%, 46.2745098039%);fill:hsl(300, 100%, 46.2745098039%);}#upstream_commits_spec .commit-highlight6{stroke:rgb(0, 146.5000000001, 0);fill:rgb(0, 146.5000000001, 0);}#upstream_commits_spec .label6{fill:hsl(300, 100%, 46.2745098039%);}#upstream_commits_spec .arrow6{stroke:hsl(300, 100%, 46.2745098039%);}#upstream_commits_spec .branch-label7{fill:black;}#upstream_commits_spec .commit7{stroke:hsl(0, 100%, 46.2745098039%);fill:hsl(0, 100%, 46.2745098039%);}#upstream_commits_spec .commit-highlight7{stroke:rgb(0, 146.5000000001, 146.5000000001);fill:rgb(0, 146.5000000001, 146.5000000001);}#upstream_commits_spec .label7{fill:hsl(0, 100%, 46.2745098039%);}#upstream_commits_spec .arrow7{stroke:hsl(0, 100%, 46.2745098039%);}#upstream_commits_spec .branch{stroke-width:1;stroke:#333333;stroke-dasharray:2;}#upstream_commits_spec .commit-label{font-size:10px;fill:#000021;}#upstream_commits_spec .commit-label-bkg{font-size:10px;fill:#ffffde;opacity:0.5;}#upstream_commits_spec .tag-label{font-size:10px;fill:#131300;}#upstream_commits_spec .tag-label-bkg{fill:#ECECFF;stroke:hsl(240, 60%, 86.2745098039%);}#upstream_commits_spec .tag-hole{fill:#333;}#upstream_commits_spec .commit-merge{stroke:#ECECFF;fill:#ECECFF;}#upstream_commits_spec .commit-reverse{stroke:#ECECFF;fill:#ECECFF;stroke-width:3;}#upstream_commits_spec .commit-highlight-inner{stroke:#ECECFF;fill:#ECECFF;}#upstream_commits_spec .arrow{stroke-width:8;stroke-linecap:round;fill:none;}#upstream_commits_spec .gitTitleText{text-anchor:middle;font-size:18px;fill:#333;}#upstream_commits_spec :root{--mermaid-font-family:"trebuchet ms",verdana,arial,sans-serif;}</style><g></g><g class="commit-bullets"></g><g class="commit-labels"></g><g><line x1="0" y1="0" x2="700" y2="0" class="branch branch0"></line><rect class="branchLabelBkg label0" rx="4" ry="4" x="-69.25" y="-1.5" width="53.25" height="23" transform="translate(-19, -9.5)"></rect><g class="branchLabel"><g class="label branch-label0" transform="translate(-79.25, -10.5)"><text><tspan xml:space="preserve" dy="1em" x="0" class="row">main</tspan></text></g></g></g><g class="commit-arrows"><path d="M 10 0 L 60 0" class="arrow arrow0"></path><path d="M 60 0 L 110 0" class="arrow arrow0"></path><path d="M 110 0 L 160 0" class="arrow arrow0"></path><path d="M 160 0 L 210 0" class="arrow arrow0"></path><path d="M 210 0 L 260 0" class="arrow arrow0"></path><path d="M 260 0 L 310 0" class="arrow arrow0"></path><path d="M 310 0 L 360 0" class="arrow arrow0"></path><path d="M 360 0 L 410 0" class="arrow arrow0"></path><path d="M 410 0 L 460 0" class="arrow arrow0"></path><path d="M 460 0 L 510 0" class="arrow arrow0"></path><path d="M 510 0 L 560 0" class="arrow arrow0"></path><path d="M 560 0 L 610 0" class="arrow arrow0"></path><path d="M 610 0 L 660 0" class="arrow arrow0"></path></g><g class="commit-bullets"><circle cx="10" cy="0" r="10" class="commit 0-ab40cda commit0"></circle><circle cx="60" cy="0" r="10" class="commit 1-5b722bd commit0"></circle><circle cx="110" cy="0" r="10" class="commit 1111 commit0"></circle><circle cx="160" cy="0" r="10" class="commit 3-a218e74 commit0"></circle><rect x="200" y="-10" width="20" height="20" class="commit 4-a13d8e6 commit-highlight0 commit-highlight-outer"></rect><rect x="204" y="-6" width="12" height="12" class="commit 4-a13d8e6 commit0 commit-highlight-inner"></rect><circle cx="260" cy="0" r="10" class="commit 5-445e440 commit0"></circle><path d="M 255,-5L265,5M255,5L265,-5" class="commit commit-reverse 5-445e440 commit0"></path><circle cx="310" cy="0" r="10" class="commit 6-0585c39 commit0"></circle><circle cx="360" cy="0" r="10" class="commit C1 commit0"></circle><path d="M 355,-5L365,5M355,5L365,-5" class="commit commit-reverse C1 commit0"></path><circle cx="410" cy="0" r="10" class="commit C2 commit0"></circle><path d="M 405,-5L415,5M405,5L415,-5" class="commit commit-reverse C2 commit0"></path><circle cx="460" cy="0" r="10" class="commit C3 commit0"></circle><path d="M 455,-5L465,5M455,5L465,-5" class="commit commit-reverse C3 commit0"></path><circle cx="510" cy="0" r="10" class="commit C4 commit0"></circle><path d="M 505,-5L515,5M505,5L515,-5" class="commit commit-reverse C4 commit0"></path><circle cx="560" cy="0" r="10" class="commit 11-c64d8fd commit0"></circle><circle cx="610" cy="0" r="10" class="commit 12-889fb03 commit0"></circle><circle cx="660" cy="0" r="10" class="commit 13-8cc1c69 commit0"></circle></g><g class="commit-labels"><g transform="translate(-29.0657421875, 25.8956640625) rotate(-45, 0, 0)"><rect class="commit-label-bkg" x="-15.3759765625" y="13.5" width="50.751953125" height="15"></rect><text x="-13.3759765625" y="25" class="commit-label">0-ab40cda</text></g><g transform="translate(-29.173359374999997, 25.991953125000002) rotate(-45, 50, 0)"><rect class="commit-label-bkg" x="34.482421875" y="13.5" width="51.03515625" height="15"></rect><text x="36.482421875" y="25" class="commit-label">1-5b722bd</text></g><g transform="translate(-19.2740625, 17.1346875) rotate(-45, 100, 0)"><rect class="commit-label-bkg" x="97.5078125" y="13.5" width="24.984375" height="15"></rect><text x="99.5078125" y="25" class="commit-label">1111</text></g><g transform="translate(-29.008222656250002, 25.84419921875) rotate(-45, 150, 0)"><rect class="commit-label-bkg" x="134.69970703125" y="13.5" width="50.6005859375" height="15"></rect><text x="136.69970703125" y="25" class="commit-label">3-a218e74</text></g><polygon class="tag-label-bkg" points="138.7666015625,-17.2  
      138.7666015625,-21.2
      146.7666015625,-26.7
      173.2333984375,-26.7
      173.2333984375,-11.7
      146.7666015625,-11.7"></polygon><circle cy="-19.2" cx="142.7666015625" r="1.5" class="tag-hole"></circle><text y="-16" class="tag-label" x="150.7666015625">test</text><g transform="translate(-29.512539062499997, 26.2954296875) rotate(-45, 200, 0)"><rect class="commit-label-bkg" x="184.0361328125" y="13.5" width="51.927734375" height="15"></rect><text x="186.0361328125" y="25" class="commit-label">4-a13d8e6</text></g><g transform="translate(-29.00451171875, 25.840878906249998) rotate(-45, 250, 0)"><rect class="commit-label-bkg" x="234.70458984375" y="13.5" width="50.5908203125" height="15"></rect><text x="236.70458984375" y="25" class="commit-label">5-445e440</text></g><g transform="translate(-28.813398437500002, 25.6698828125) rotate(-45, 300, 0)"><rect class="commit-label-bkg" x="284.9560546875" y="13.5" width="50.087890625" height="15"></rect><text x="286.9560546875" y="25" class="commit-label">6-0585c39</text></g><g transform="translate(-15.5690625, 13.8196875) rotate(-45, 350, 0)"><rect class="commit-label-bkg" x="352.3828125" y="13.5" width="15.234375" height="15"></rect><text x="354.3828125" y="25" class="commit-label">C1</text></g><polygon class="tag-label-bkg" points="330.16845703125,-17.2  
      330.16845703125,-21.2
      338.16845703125,-26.7
      381.83154296875,-26.7
      381.83154296875,-11.7
      338.16845703125,-11.7"></polygon><circle cy="-19.2" cx="334.16845703125" r="1.5" class="tag-hole"></circle><text y="-16" class="tag-label" x="342.16845703125">test tag</text><g transform="translate(-15.85294921875, 14.07369140625) rotate(-45, 400, 0)"><rect class="commit-label-bkg" x="402.00927734375" y="13.5" width="15.9814453125" height="15"></rect><text x="404.00927734375" y="25" class="commit-label">C2</text></g><polygon class="tag-label-bkg" points="380.16845703125,-17.2  
      380.16845703125,-21.2
      388.16845703125,-26.7
      431.83154296875,-26.7
      431.83154296875,-11.7
      388.16845703125,-11.7"></polygon><circle cy="-19.2" cx="384.16845703125" r="1.5" class="tag-hole"></circle><text y="-16" class="tag-label" x="392.16845703125">test tag</text><g transform="translate(-15.5690625, 13.8196875) rotate(-45, 450, 0)"><rect class="commit-label-bkg" x="452.3828125" y="13.5" width="15.234375" height="15"></rect><text x="454.3828125" y="25" class="commit-label">C3</text></g><polygon class="tag-label-bkg" points="430.16845703125,-17.2  
      430.16845703125,-21.2
      438.16845703125,-26.7
      481.83154296875,-26.7
      481.83154296875,-11.7
      438.16845703125,-11.7"></polygon><circle cy="-19.2" cx="434.16845703125" r="1.5" class="tag-hole"></circle><text y="-16" class="tag-label" x="442.16845703125">test tag</text><g transform="translate(-15.85294921875, 14.07369140625) rotate(-45, 500, 0)"><rect class="commit-label-bkg" x="502.00927734375" y="13.5" width="15.9814453125" height="15"></rect><text x="504.00927734375" y="25" class="commit-label">C4</text></g><polygon class="tag-label-bkg" points="480.16845703125,-17.2  
      480.16845703125,-21.2
      488.16845703125,-26.7
      531.83154296875,-26.7
      531.83154296875,-11.7
      488.16845703125,-11.7"></polygon><circle cy="-19.2" cx="484.16845703125" r="1.5" class="tag-hole"></circle><text y="-16" class="tag-label" x="492.16845703125">test tag</text><g transform="translate(-30.342304687499997, 27.0378515625) rotate(-45, 550, 0)"><rect class="commit-label-bkg" x="532.9443359375" y="13.5" width="54.111328125" height="15"></rect><text x="534.9443359375" y="25" class="commit-label">11-c64d8fd</text></g><g transform="translate(-30.169375, 26.883125) rotate(-45, 600, 0)"><rect class="commit-label-bkg" x="583.171875" y="13.5" width="53.65625" height="15"></rect><text x="585.171875" y="25" class="commit-label">12-889fb03</text></g><g transform="translate(-30.583515624999997, 27.253671875) rotate(-45, 650, 0)"><rect class="commit-label-bkg" x="632.626953125" y="13.5" width="54.74609375" height="15"></rect><text x="634.626953125" y="25" class="commit-label">13-8cc1c69</text></g></g></svg>