<svg id="upstream_docs_gitgraph_hiding_branch_names_and_lines_022" width="100%" xmlns="http://www.w3.org/2000/svg" xmlns:xlink="http://www.w3.org/1999/xlink" style="max-width: 912.4566040039062px; background-color: white;" viewBox="-35.45661163330078 -18 912.4566040039062 536.0078125" role="graphics-document document" aria-roledescription="gitGraph"><style>#upstream_docs_gitgraph_hiding_branch_names_and_lines_022{font-family:"trebuchet ms",verdana,arial,sans-serif;font-size:16px;fill:#333;}@keyframes edge-animation-frame{from{stroke-dashoffset:0;}}@keyframes dash{to{stroke-dashoffset:0;}}#upstream_docs_gitgraph_hiding_branch_names_and_lines_022 .edge-animation-slow{stroke-dasharray:9,5!important;stroke-dashoffset:900;animation:dash 50s linear infinite;stroke-linecap:round;}#upstream_docs_gitgraph_hiding_branch_names_and_lines_022 .edge-animation-fast{stroke-dasharray:9,5!important;stroke-dashoffset:900;animation:dash 20s linear infinite;stroke-linecap:round;}#upstream_docs_gitgraph_hiding_branch_names_and_lines_022 .error-icon{fill:hsl(220.5882352941, 100%, 98.3333333333%);}#upstream_docs_gitgraph_hiding_branch_names_and_lines_022 .error-text{fill:rgb(8.5000000002, 5.7500000001, 0);stroke:rgb(8.5000000002, 5.7500000001, 0);}#upstream_docs_gitgraph_hiding_branch_names_and_lines_022 .edge-thickness-normal{stroke-width:1px;}#upstream_docs_gitgraph_hiding_branch_names_and_lines_022 .edge-thickness-thick{stroke-width:3.5px;}#upstream_docs_gitgraph_hiding_branch_names_and_lines_022 .edge-pattern-solid{stroke-dasharray:0;}#upstream_docs_gitgraph_hiding_branch_names_and_lines_022 .edge-thickness-invisible{stroke-width:0;fill:none;}#upstream_docs_gitgraph_hiding_branch_names_and_lines_022 .edge-pattern-dashed{stroke-dasharray:3;}#upstream_docs_gitgraph_hiding_branch_names_and_lines_022 .edge-pattern-dotted{stroke-dasharray:2;}#upstream_docs_gitgraph_hiding_branch_names_and_lines_022 .marker{fill:#0b0b0b;stroke:#0b0b0b;}#upstream_docs_gitgraph_hiding_branch_names_and_lines_022 .marker.cross{stroke:#0b0b0b;}#upstream_docs_gitgraph_hiding_branch_names_and_lines_022 svg{font-family:"trebuchet ms",verdana,arial,sans-serif;font-size:16px;}#upstream_docs_gitgraph_hiding_branch_names_and_lines_022 p{margin:0;}#upstream_docs_gitgraph_hiding_branch_names_and_lines_022 .commit-id,#upstream_docs_gitgraph_hiding_branch_names_and_lines_022 .commit-msg,#upstream_docs_gitgraph_hiding_branch_names_and_lines_022 .branch-label{fill:lightgrey;color:lightgrey;font-family:'trebuchet ms',verdana,arial,sans-serif;font-family:var(--mermaid-font-family);}#upstream_docs_gitgraph_hiding_branch_names_and_lines_022 .branch-label0{fill:#333;}#upstream_docs_gitgraph_hiding_branch_names_and_lines_022 .commit0{stroke:hsl(40.5882352941, 100%, 68.3333333333%);fill:hsl(40.5882352941, 100%, 68.3333333333%);}#upstream_docs_gitgraph_hiding_branch_names_and_lines_022 .commit-highlight0{stroke:rgb(0, 52.2500000001, 161.5000000002);fill:rgb(0, 52.2500000001, 161.5000000002);}#upstream_docs_gitgraph_hiding_branch_names_and_lines_022 .label0{fill:hsl(40.5882352941, 100%, 68.3333333333%);}#upstream_docs_gitgraph_hiding_branch_names_and_lines_022 .arrow0{stroke:hsl(40.5882352941, 100%, 68.3333333333%);}#upstream_docs_gitgraph_hiding_branch_names_and_lines_022 .branch-label1{fill:#333;}#upstream_docs_gitgraph_hiding_branch_names_and_lines_022 .commit1{stroke:hsl(-79.4117647059, 100%, 68.3333333333%);fill:hsl(-79.4117647059, 100%, 68.3333333333%);}#upstream_docs_gitgraph_hiding_branch_names_and_lines_022 .commit-highlight1{stroke:rgb(52.2500000001, 161.5000000002, 0);fill:rgb(52.2500000001, 161.5000000002, 0);}#upstream_docs_gitgraph_hiding_branch_names_and_lines_022 .label1{fill:hsl(-79.4117647059, 100%, 68.3333333333%);}#upstream_docs_gitgraph_hiding_branch_names_and_lines_022 .arrow1{stroke:hsl(-79.4117647059, 100%, 68.3333333333%);}#upstream_docs_gitgraph_hiding_branch_names_and_lines_022 .branch-label2{fill:#333;}#upstream_docs_gitgraph_hiding_branch_names_and_lines_022 .commit2{stroke:hsl(220.5882352941, 100%, 73.3333333333%);fill:hsl(220.5882352941, 100%, 73.3333333333%);}#upstream_docs_gitgraph_hiding_branch_names_and_lines_022 .commit-highlight2{stroke:rgb(136.0000000002, 92.0000000001, 0);fill:rgb(136.0000000002, 92.0000000001, 0);}#upstream_docs_gitgraph_hiding_branch_names_and_lines_022 .label2{fill:hsl(220.5882352941, 100%, 73.3333333333%);}#upstream_docs_gitgraph_hiding_branch_names_and_lines_022 .arrow2{stroke:hsl(220.5882352941, 100%, 73.3333333333%);}#upstream_docs_gitgraph_hiding_branch_names_and_lines_022 .branch-label3{fill:#333;}#upstream_docs_gitgraph_hiding_branch_names_and_lines_022 .commit3{stroke:hsl(10.5882352941, 100%, 68.3333333333%);fill:hsl(10.5882352941, 100%, 68.3333333333%);}#upstream_docs_gitgraph_hiding_branch_names_and_lines_022 .commit-highlight3{stroke:rgb(0, 133.0000000002, 161.5000000002);fill:rgb(0, 133.0000000002, 161.5000000002);}#upstream_docs_gitgraph_hiding_branch_names_and_lines_022 .label3{fill:hsl(10.5882352941, 100%, 68.3333333333%);}#upstream_docs_gitgraph_hiding_branch_names_and_lines_022 .arrow3{stroke:hsl(10.5882352941, 100%, 68.3333333333%);}#upstream_docs_gitgraph_hiding_branch_names_and_lines_022 .branch-label4{fill:#333;}#upstream_docs_gitgraph_hiding_branch_names_and_lines_022 .commit4{stroke:hsl(-19.4117647059, 100%, 68.3333333333%);fill:hsl(-19.4117647059, 100%, 68.3333333333%);}#upstream_docs_gitgraph_hiding_branch_names_and_lines_022 .commit-highlight4{stroke:rgb(0, 161.5000000002, 109.2500000001);fill:rgb(0, 161.5000000002, 109.2500000001);}#upstream_docs_gitgraph_hiding_branch_names_and_lines_022 .label4{fill:hsl(-19.4117647059, 100%, 68.3333333333%);}#upstream_docs_gitgraph_hiding_branch_names_and_lines_022 .arrow4{stroke:hsl(-19.4117647059, 100%, 68.3333333333%);}#upstream_docs_gitgraph_hiding_branch_names_and_lines_022 .branch-label5{fill:#333;}#upstream_docs_gitgraph_hiding_branch_names_and_lines_022 .commit5{stroke:hsl(-49.4117647059, 100%, 68.3333333333%);fill:hsl(-49.4117647059, 100%, 68.3333333333%);}#upstream_docs_gitgraph_hiding_branch_names_and_lines_022 .commit-highlight5{stroke:rgb(0, 161.5000000002, 28.5);fill:rgb(0, 161.5000000002, 28.5);}#upstream_docs_gitgraph_hiding_branch_names_and_lines_022 .label5{fill:hsl(-49.4117647059, 100%, 68.3333333333%);}#upstream_docs_gitgraph_hiding_branch_names_and_lines_022 .arrow5{stroke:hsl(-49.4117647059, 100%, 68.3333333333%);}#upstream_docs_gitgraph_hiding_branch_names_and_lines_022 .branch-label6{fill:#333;}#upstream_docs_gitgraph_hiding_branch_names_and_lines_022 .commit6{stroke:hsl(100.5882352941, 100%, 68.3333333333%);fill:hsl(100.5882352941, 100%, 68.3333333333%);}#upstream_docs_gitgraph_hiding_branch_names_and_lines_022 .commit-highlight6{stroke:rgb(109.2500000001, 0, 161.5000000002);fill:rgb(109.2500000001, 0, 161.5000000002);}#upstream_docs_gitgraph_hiding_branch_names_and_lines_022 .label6{fill:hsl(100.5882352941, 100%, 68.3333333333%);}#upstream_docs_gitgraph_hiding_branch_names_and_lines_022 .arrow6{stroke:hsl(100.5882352941, 100%, 68.3333333333%);}#upstream_docs_gitgraph_hiding_branch_names_and_lines_022 .branch-label7{fill:#333;}#upstream_docs_gitgraph_hiding_branch_names_and_lines_022 .commit7{stroke:hsl(160.5882352941, 100%, 68.3333333333%);fill:hsl(160.5882352941, 100%, 68.3333333333%);}#upstream_docs_gitgraph_hiding_branch_names_and_lines_022 .commit-highlight7{stroke:rgb(161.5000000002, 0, 52.2500000001);fill:rgb(161.5000000002, 0, 52.2500000001);}#upstream_docs_gitgraph_hiding_branch_names_and_lines_022 .label7{fill:hsl(160.5882352941, 100%, 68.3333333333%);}#upstream_docs_gitgraph_hiding_branch_names_and_lines_022 .arrow7{stroke:hsl(160.5882352941, 100%, 68.3333333333%);}#upstream_docs_gitgraph_hiding_branch_names_and_lines_022 .branch{stroke-width:1;stroke:#0b0b0b;stroke-dasharray:2;}#upstream_docs_gitgraph_hiding_branch_names_and_lines_022 .commit-label{font-size:10px;fill:rgb(11.0000000001, 34.0000000002, 0);}#upstream_docs_gitgraph_hiding_branch_names_and_lines_022 .commit-label-bkg{font-size:10px;fill:hsl(-79.4117647059, 100%, 93.3333333333%);opacity:0.5;}#upstream_docs_gitgraph_hiding_branch_names_and_lines_022 .tag-label{font-size:10px;fill:#333;}#upstream_docs_gitgraph_hiding_branch_names_and_lines_022 .tag-label-bkg{fill:#fff4dd;stroke:hsl(40.5882352941, 60%, 83.3333333333%);}#upstream_docs_gitgraph_hiding_branch_names_and_lines_022 .tag-hole{fill:#333;}#upstream_docs_gitgraph_hiding_branch_names_and_lines_022 .commit-merge{stroke:#fff4dd;fill:#fff4dd;}#upstream_docs_gitgraph_hiding_branch_names_and_lines_022 .commit-reverse{stroke:#fff4dd;fill:#fff4dd;stroke-width:3;}#upstream_docs_gitgraph_hiding_branch_names_and_lines_022 .commit-highlight-inner{stroke:#fff4dd;fill:#fff4dd;}#upstream_docs_gitgraph_hiding_branch_names_and_lines_022 .arrow{stroke-width:8;stroke-linecap:round;fill:none;}#upstream_docs_gitgraph_hiding_branch_names_and_lines_022 .gitTitleText{text-anchor:middle;font-size:18px;fill:#333;}#upstream_docs_gitgraph_hiding_branch_names_and_lines_022 :root{--mermaid-font-family:"trebuchet ms",verdana,arial,sans-serif;}</style><g/><g class="commit-bullets"/><g class="commit-labels"/><g class="commit-arrows"><path d="M 10 0 L 10 70 A 20 20, 0, 0, 0, 30 90 L 60 90" class="arrow arrow1"/><path d="M 60 90 L 60 160 A 20 20, 0, 0, 0, 80 180 L 110 180" class="arrow arrow2"/><path d="M 110 180 L 110 250 A 20 20, 0, 0, 0, 130 270 L 160 270" class="arrow arrow3"/><path d="M 60 90 L 210 90" class="arrow arrow1"/><path d="M 110 180 L 260 180" class="arrow arrow2"/><path d="M 160 270 L 310 270" class="arrow arrow3"/><path d="M 10 0 L 360 0" class="arrow arrow0"/><path d="M 210 90 L 340 90 A 20 20, 0, 0, 0, 360 70 L 360 0" class="arrow arrow1"/><path d="M 310 270 L 410 270" class="arrow arrow3"/><path d="M 260 180 L 260 340 A 20 20, 0, 0, 0, 280 360 L 460 360" class="arrow arrow4"/><path d="M 260 180 L 510 180" class="arrow arrow2"/><path d="M 210 90 L 210 125 A 10 10, 0, 0, 0, 220 135 L 500 135 A 10 10, 0, 0, 1, 510 145 L 510 180" class="arrow arrow1"/><path d="M 460 360 L 560 360" class="arrow arrow4"/><path d="M 410 270 L 610 270" class="arrow arrow3"/><path d="M 510 180 L 660 180" class="arrow arrow2"/><path d="M 560 360 L 640 360 A 20 20, 0, 0, 0, 660 340 L 660 180" class="arrow arrow4"/><path d="M 660 180 L 660 430 A 20 20, 0, 0, 0, 680 450 L 710 450" class="arrow arrow5"/><path d="M 360 0 L 760 0" class="arrow arrow0"/><path d="M 710 450 L 810 450" class="arrow arrow5"/><path d="M 760 0 L 790 0 A 20 20, 0, 0, 1, 810 20 L 810 450" class="arrow arrow0"/><path d="M 660 180 L 860 180" class="arrow arrow2"/><path d="M 810 450 L 840 450 A 20 20, 0, 0, 0, 860 430 L 860 180" class="arrow arrow5"/></g><g class="commit-bullets"><circle cx="10" cy="0" r="10" class="commit 0-e9fa3f5 commit0"/><circle cx="60" cy="90" r="10" class="commit 1-8efa2cc commit1"/><circle cx="110" cy="180" r="10" class="commit ash commit2"/><rect x="150" y="260" width="20" height="20" class="commit 3-52107fc commit-highlight3 commit-highlight-outer"/><rect x="154" y="264" width="12" height="12" class="commit 3-52107fc commit3 commit-highlight-inner"/><circle cx="210" cy="90" r="10" class="commit 4-d5b8715 commit1"/><circle cx="260" cy="180" r="10" class="commit 5-8052030 commit2"/><path d="M 255,175L265,185M255,185L265,175" class="commit commit-reverse 5-8052030 commit2"/><circle cx="310" cy="270" r="10" class="commit 6-ac03ce8 commit3"/><circle cx="360" cy="0" r="9" class="commit 7-b1254ce commit0"/><circle cx="360" cy="0" r="6" class="commit commit-merge 7-b1254ce commit0"/><circle cx="410" cy="270" r="10" class="commit 8-536ebff commit3"/><circle cx="460" cy="360" r="10" class="commit 9-a27ca7a commit4"/><circle cx="510" cy="180" r="9" class="commit 10-acbf355 commit2"/><circle cx="510" cy="180" r="6" class="commit commit-merge 10-acbf355 commit2"/><circle cx="560" cy="360" r="10" class="commit 11-65a624c commit4"/><circle cx="610" cy="270" r="10" class="commit 12-7f4cafd commit3"/><circle cx="660" cy="180" r="9" class="commit 13-5e9ab82 commit2"/><circle cx="660" cy="180" r="6" class="commit commit-merge 13-5e9ab82 commit2"/><circle cx="710" cy="450" r="10" class="commit 14-7b47433 commit5"/><circle cx="760" cy="0" r="10" class="commit 15-79b10b6 commit0"/><circle cx="810" cy="450" r="9" class="commit 16-99aff99 commit5"/><circle cx="810" cy="450" r="6" class="commit commit-merge 16-99aff99 commit5"/><circle cx="860" cy="180" r="9" class="commit 17-57a6683 commit2"/><circle cx="860" cy="180" r="6" class="commit commit-merge 17-57a6683 commit2"/></g><g class="commit-labels"><g transform="translate(-27.544999999999998, 24.535) rotate(-45, 0, 0)"><rect class="commit-label-bkg" x="-13.375" y="13.5" width="46.75" height="15"/><text x="-11.375" y="25" class="commit-label">0-e9fa3f5</text></g><g transform="translate(-27.913125, 24.864375000000003) rotate(-45, 50, 90)"><rect class="commit-label-bkg" x="36.140625" y="103.5" width="47.71875" height="15"/><text x="38.140625" y="115" class="commit-label">1-8efa2cc</text></g><g transform="translate(-16.9109375, 15.0203125) rotate(-45, 100, 180)"><rect class="commit-label-bkg" x="100.6171875" y="193.5" width="18.765625" height="15"/><text x="102.6171875" y="205" class="commit-label">ash</text></g><polygon class="tag-label-bkg" points="90.109375,162.8  &#10;      90.109375,158.8&#10;      98.109375,153.3&#10;      121.890625,153.3&#10;      121.890625,168.3&#10;      98.109375,168.3"/><circle cy="160.8" cx="94.109375" r="1.5" class="tag-hole"/><text y="164" class="tag-label" x="102.109375">abc</text><g transform="translate(-27.9428125, 24.8909375) rotate(-45, 150, 270)"><rect class="commit-label-bkg" x="136.1015625" y="283.5" width="47.796875" height="15"/><text x="138.1015625" y="295" class="commit-label">3-52107fc</text></g><g transform="translate(-28.886875000000003, 25.735625) rotate(-45, 200, 90)"><rect class="commit-label-bkg" x="184.859375" y="103.5" width="50.28125" height="15"/><text x="186.859375" y="115" class="commit-label">4-d5b8715</text></g><g transform="translate(-28.6375, 25.5125) rotate(-45, 250, 180)"><rect class="commit-label-bkg" x="235.1875" y="193.5" width="49.625" height="15"/><text x="237.1875" y="205" class="commit-label">5-8052030</text></g><g transform="translate(-28.5009375, 25.3903125) rotate(-45, 300, 270)"><rect class="commit-label-bkg" x="285.3671875" y="283.5" width="49.265625" height="15"/><text x="287.3671875" y="295" class="commit-label">6-ac03ce8</text></g><g transform="translate(-27.6837890625, 24.6591796875) rotate(-45, 400, 270)"><rect class="commit-label-bkg" x="386.4423828125" y="283.5" width="47.115234375" height="15"/><text x="388.4423828125" y="295" class="commit-label">8-536ebff</text></g><g transform="translate(-28.542499999999997, 25.427500000000002) rotate(-45, 450, 360)"><rect class="commit-label-bkg" x="435.3125" y="373.5" width="49.375" height="15"/><text x="437.3125" y="385" class="commit-label">9-a27ca7a</text></g><g transform="translate(-30.525625, 27.201875) rotate(-45, 550, 360)"><rect class="commit-label-bkg" x="532.703125" y="373.5" width="54.59375" height="15"/><text x="534.703125" y="385" class="commit-label">11-65a624c</text></g><g transform="translate(-29.474687499999998, 26.2615625) rotate(-45, 600, 270)"><rect class="commit-label-bkg" x="584.0859375" y="283.5" width="51.828125" height="15"/><text x="586.0859375" y="295" class="commit-label">12-7f4cafd</text></g><g transform="translate(-30.7571875, 27.4090625) rotate(-45, 700, 450)"><rect class="commit-label-bkg" x="682.3984375" y="463.5" width="55.203125" height="15"/><text x="684.3984375" y="475" class="commit-label">14-7b47433</text></g><g transform="translate(-30.881875, 27.520625) rotate(-45, 750, 0)"><rect class="commit-label-bkg" x="732.234375" y="13.5" width="55.53125" height="15"/><text x="734.234375" y="25" class="commit-label">15-79b10b6</text></g></g></svg>