<svg id="upstream_docs_gitgraph_default_theme_050" width="100%" xmlns="http://www.w3.org/2000/svg" xmlns:xlink="http://www.w3.org/1999/xlink" style="max-width: 1031.515625px; background-color: white;" viewBox="-123.515625 -19 1031.515625 537.0078125" role="graphics-document document" aria-roledescription="gitGraph"><style>#upstream_docs_gitgraph_default_theme_050{font-family:"trebuchet ms",verdana,arial,sans-serif;font-size:16px;fill:#333;}@keyframes edge-animation-frame{from{stroke-dashoffset:0;}}@keyframes dash{to{stroke-dashoffset:0;}}#upstream_docs_gitgraph_default_theme_050 .edge-animation-slow{stroke-dasharray:9,5!important;stroke-dashoffset:900;animation:dash 50s linear infinite;stroke-linecap:round;}#upstream_docs_gitgraph_default_theme_050 .edge-animation-fast{stroke-dasharray:9,5!important;stroke-dashoffset:900;animation:dash 20s linear infinite;stroke-linecap:round;}#upstream_docs_gitgraph_default_theme_050 .error-icon{fill:#552222;}#upstream_docs_gitgraph_default_theme_050 .error-text{fill:#552222;stroke:#552222;}#upstream_docs_gitgraph_default_theme_050 .edge-thickness-normal{stroke-width:1px;}#upstream_docs_gitgraph_default_theme_050 .edge-thickness-thick{stroke-width:3.5px;}#upstream_docs_gitgraph_default_theme_050 .edge-pattern-solid{stroke-dasharray:0;}#upstream_docs_gitgraph_default_theme_050 .edge-thickness-invisible{stroke-width:0;fill:none;}#upstream_docs_gitgraph_default_theme_050 .edge-pattern-dashed{stroke-dasharray:3;}#upstream_docs_gitgraph_default_theme_050 .edge-pattern-dotted{stroke-dasharray:2;}#upstream_docs_gitgraph_default_theme_050 .marker{fill:#333333;stroke:#333333;}#upstream_docs_gitgraph_default_theme_050 .marker.cross{stroke:#333333;}#upstream_docs_gitgraph_default_theme_050 svg{font-family:"trebuchet ms",verdana,arial,sans-serif;font-size:16px;}#upstream_docs_gitgraph_default_theme_050 p{margin:0;}#upstream_docs_gitgraph_default_theme_050 .commit-id,#upstream_docs_gitgraph_default_theme_050 .commit-msg,#upstream_docs_gitgraph_default_theme_050 .branch-label{fill:lightgrey;color:lightgrey;font-family:'trebuchet ms',verdana,arial,sans-serif;font-family:var(--mermaid-font-family);}#upstream_docs_gitgraph_default_theme_050 .branch-label0{fill:#ffffff;}#upstream_docs_gitgraph_default_theme_050 .commit0{stroke:hsl(240, 100%, 46.2745098039%);fill:hsl(240, 100%, 46.2745098039%);}#upstream_docs_gitgraph_default_theme_050 .commit-highlight0{stroke:hsl(60, 100%, 3.7254901961%);fill:hsl(60, 100%, 3.7254901961%);}#upstream_docs_gitgraph_default_theme_050 .label0{fill:hsl(240, 100%, 46.2745098039%);}#upstream_docs_gitgraph_default_theme_050 .arrow0{stroke:hsl(240, 100%, 46.2745098039%);}#upstream_docs_gitgraph_default_theme_050 .branch-label1{fill:black;}#upstream_docs_gitgraph_default_theme_050 .commit1{stroke:hsl(60, 100%, 43.5294117647%);fill:hsl(60, 100%, 43.5294117647%);}#upstream_docs_gitgraph_default_theme_050 .commit-highlight1{stroke:rgb(0, 0, 160.5);fill:rgb(0, 0, 160.5);}#upstream_docs_gitgraph_default_theme_050 .label1{fill:hsl(60, 100%, 43.5294117647%);}#upstream_docs_gitgraph_default_theme_050 .arrow1{stroke:hsl(60, 100%, 43.5294117647%);}#upstream_docs_gitgraph_default_theme_050 .branch-label2{fill:black;}#upstream_docs_gitgraph_default_theme_050 .commit2{stroke:hsl(80, 100%, 46.2745098039%);fill:hsl(80, 100%, 46.2745098039%);}#upstream_docs_gitgraph_default_theme_050 .commit-highlight2{stroke:rgb(48.8333333334, 0, 146.5000000001);fill:rgb(48.8333333334, 0, 146.5000000001);}#upstream_docs_gitgraph_default_theme_050 .label2{fill:hsl(80, 100%, 46.2745098039%);}#upstream_docs_gitgraph_default_theme_050 .arrow2{stroke:hsl(80, 100%, 46.2745098039%);}#upstream_docs_gitgraph_default_theme_050 .branch-label3{fill:#ffffff;}#upstream_docs_gitgraph_default_theme_050 .commit3{stroke:hsl(210, 100%, 46.2745098039%);fill:hsl(210, 100%, 46.2745098039%);}#upstream_docs_gitgraph_default_theme_050 .commit-highlight3{stroke:rgb(146.5000000001, 73.2500000001, 0);fill:rgb(146.5000000001, 73.2500000001, 0);}#upstream_docs_gitgraph_default_theme_050 .label3{fill:hsl(210, 100%, 46.2745098039%);}#upstream_docs_gitgraph_default_theme_050 .arrow3{stroke:hsl(210, 100%, 46.2745098039%);}#upstream_docs_gitgraph_default_theme_050 .branch-label4{fill:black;}#upstream_docs_gitgraph_default_theme_050 .commit4{stroke:hsl(180, 100%, 46.2745098039%);fill:hsl(180, 100%, 46.2745098039%);}#upstream_docs_gitgraph_default_theme_050 .commit-highlight4{stroke:rgb(146.5000000001, 0, 0);fill:rgb(146.5000000001, 0, 0);}#upstream_docs_gitgraph_default_theme_050 .label4{fill:hsl(180, 100%, 46.2745098039%);}#upstream_docs_gitgraph_default_theme_050 .arrow4{stroke:hsl(180, 100%, 46.2745098039%);}#upstream_docs_gitgraph_default_theme_050 .branch-label5{fill:black;}#upstream_docs_gitgraph_default_theme_050 .commit5{stroke:hsl(150, 100%, 46.2745098039%);fill:hsl(150, 100%, 46.2745098039%);}#upstream_docs_gitgraph_default_theme_050 .commit-highlight5{stroke:rgb(146.5000000001, 0, 73.2500000001);fill:rgb(146.5000000001, 0, 73.2500000001);}#upstream_docs_gitgraph_default_theme_050 .label5{fill:hsl(150, 100%, 46.2745098039%);}#upstream_docs_gitgraph_default_theme_050 .arrow5{stroke:hsl(150, 100%, 46.2745098039%);}#upstream_docs_gitgraph_default_theme_050 .branch-label6{fill:black;}#upstream_docs_gitgraph_default_theme_050 .commit6{stroke:hsl(300, 100%, 46.2745098039%);fill:hsl(300, 100%, 46.2745098039%);}#upstream_docs_gitgraph_default_theme_050 .commit-highlight6{stroke:rgb(0, 146.5000000001, 0);fill:rgb(0, 146.5000000001, 0);}#upstream_docs_gitgraph_default_theme_050 .label6{fill:hsl(300, 100%, 46.2745098039%);}#upstream_docs_gitgraph_default_theme_050 .arrow6{stroke:hsl(300, 100%, 46.2745098039%);}#upstream_docs_gitgraph_default_theme_050 .branch-label7{fill:black;}#upstream_docs_gitgraph_default_theme_050 .commit7{stroke:hsl(0, 100%, 46.2745098039%);fill:hsl(0, 100%, 46.2745098039%);}#upstream_docs_gitgraph_default_theme_050 .commit-highlight7{stroke:rgb(0, 146.5000000001, 146.5000000001);fill:rgb(0, 146.5000000001, 146.5000000001);}#upstream_docs_gitgraph_default_theme_050 .label7{fill:hsl(0, 100%, 46.2745098039%);}#upstream_docs_gitgraph_default_theme_050 .arrow7{stroke:hsl(0, 100%, 46.2745098039%);}#upstream_docs_gitgraph_default_theme_050 .branch{stroke-width:1;stroke:#333333;stroke-dasharray:2;}#upstream_docs_gitgraph_default_theme_050 .commit-label{font-size:10px;fill:#000021;}#upstream_docs_gitgraph_default_theme_050 .commit-label-bkg{font-size:10px;fill:#ffffde;opacity:0.5;}#upstream_docs_gitgraph_default_theme_050 .tag-label{font-size:10px;fill:#131300;}#upstream_docs_gitgraph_default_theme_050 .tag-label-bkg{fill:#ECECFF;stroke:hsl(240, 60%, 86.2745098039%);}#upstream_docs_gitgraph_default_theme_050 .tag-hole{fill:#333;}#upstream_docs_gitgraph_default_theme_050 .commit-merge{stroke:#ECECFF;fill:#ECECFF;}#upstream_docs_gitgraph_default_theme_050 .commit-reverse{stroke:#ECECFF;fill:#ECECFF;stroke-width:3;}#upstream_docs_gitgraph_default_theme_050 .commit-highlight-inner{stroke:#ECECFF;fill:#ECECFF;}#upstream_docs_gitgraph_default_theme_050 .arrow{stroke-width:8;stroke-linecap:round;fill:none;}#upstream_docs_gitgraph_default_theme_050 .gitTitleText{text-anchor:middle;font-size:18px;fill:#333;}#upstream_docs_gitgraph_default_theme_050 :root{--mermaid-font-family:"trebuchet ms",verdana,arial,sans-serif;}</style><g/><g class="commit-bullets"/><g class="commit-labels"/><g><line x1="0" y1="0" x2="900" y2="0" class="branch branch0"/><rect class="branchLabelBkg label0" rx="4" ry="4" x="-69" y="-1.5" width="53" height="23" transform="translate(-19, -9.5)"/><g class="branchLabel"><g class="label branch-label0" transform="translate(-79, -10.5)"><text><tspan xml:space="preserve" dy="1em" x="0" class="row">main</tspan></text></g></g><line x1="0" y1="90" x2="900" y2="90" class="branch branch1"/><rect class="branchLabelBkg label1" rx="4" ry="4" x="-76.171875" y="-1.5" width="60.171875" height="23" transform="translate(-19, 80.5)"/><g class="branchLabel"><g class="label branch-label1" transform="translate(-86.171875, 79.5)"><text><tspan xml:space="preserve" dy="1em" x="0" class="row">hotfix</tspan></text></g></g><line x1="0" y1="180" x2="900" y2="180" class="branch branch2"/><rect class="branchLabelBkg label2" rx="4" ry="4" x="-90.421875" y="-1.5" width="74.421875" height="23" transform="translate(-19, 170.5)"/><g class="branchLabel"><g class="label branch-label2" transform="translate(-100.421875, 169.5)"><text><tspan xml:space="preserve" dy="1em" x="0" class="row">develop</tspan></text></g></g><line x1="0" y1="270" x2="900" y2="270" class="branch branch3"/><rect class="branchLabelBkg label3" rx="4" ry="4" x="-96.140625" y="-1.5" width="80.140625" height="23" transform="translate(-19, 260.5)"/><g class="branchLabel"><g class="label branch-label3" transform="translate(-106.140625, 259.5)"><text><tspan xml:space="preserve" dy="1em" x="0" class="row">featureB</tspan></text></g></g><line x1="0" y1="360" x2="900" y2="360" class="branch branch4"/><rect class="branchLabelBkg label4" rx="4" ry="4" x="-96.515625" y="-1.5" width="80.515625" height="23" transform="translate(-19, 350.5)"/><g class="branchLabel"><g class="label branch-label4" transform="translate(-106.515625, 349.5)"><text><tspan xml:space="preserve" dy="1em" x="0" class="row">featureA</tspan></text></g></g><line x1="0" y1="450" x2="900" y2="450" class="branch branch5"/><rect class="branchLabelBkg label5" rx="4" ry="4" x="-86" y="-1.5" width="70" height="23" transform="translate(-19, 440.5)"/><g class="branchLabel"><g class="label branch-label5" transform="translate(-96, 439.5)"><text><tspan xml:space="preserve" dy="1em" x="0" class="row">release</tspan></text></g></g></g><g class="commit-arrows"><path d="M 10 0 L 10 70 A 20 20, 0, 0, 0, 30 90 L 60 90" class="arrow arrow1"/><path d="M 60 90 L 60 160 A 20 20, 0, 0, 0, 80 180 L 110 180" class="arrow arrow2"/><path d="M 110 180 L 110 250 A 20 20, 0, 0, 0, 130 270 L 160 270" class="arrow arrow3"/><path d="M 60 90 L 210 90" class="arrow arrow1"/><path d="M 110 180 L 260 180" class="arrow arrow2"/><path d="M 160 270 L 310 270" class="arrow arrow3"/><path d="M 10 0 L 360 0" class="arrow arrow0"/><path d="M 210 90 L 340 90 A 20 20, 0, 0, 0, 360 70 L 360 0" class="arrow arrow1"/><path d="M 310 270 L 410 270" class="arrow arrow3"/><path d="M 260 180 L 260 340 A 20 20, 0, 0, 0, 280 360 L 460 360" class="arrow arrow4"/><path d="M 260 180 L 510 180" class="arrow arrow2"/><path d="M 210 90 L 210 125 A 10 10, 0, 0, 0, 220 135 L 500 135 A 10 10, 0, 0, 1, 510 145 L 510 180" class="arrow arrow1"/><path d="M 460 360 L 560 360" class="arrow arrow4"/><path d="M 410 270 L 610 270" class="arrow arrow3"/><path d="M 510 180 L 660 180" class="arrow arrow2"/><path d="M 560 360 L 640 360 A 20 20, 0, 0, 0, 660 340 L 660 180" class="arrow arrow4"/><path d="M 660 180 L 660 430 A 20 20, 0, 0, 0, 680 450 L 710 450" class="arrow arrow5"/><path d="M 360 0 L 760 0" class="arrow arrow0"/><path d="M 710 450 L 810 450" class="arrow arrow5"/><path d="M 760 0 L 790 0 A 20 20, 0, 0, 1, 810 20 L 810 450" class="arrow arrow0"/><path d="M 660 180 L 860 180" class="arrow arrow2"/><path d="M 810 450 L 840 450 A 20 20, 0, 0, 0, 860 430 L 860 180" class="arrow arrow5"/></g><g class="commit-bullets"><rect x="0" y="-10" width="20" height="20" class="commit 0-e9fa3f5 commit-highlight0 commit-highlight-outer"/><rect x="4" y="-6" width="12" height="12" class="commit 0-e9fa3f5 commit0 commit-highlight-inner"/><circle cx="60" cy="90" r="10" class="commit 1-8efa2cc commit1"/><circle cx="110" cy="180" r="10" class="commit ash commit2"/><rect x="150" y="260" width="20" height="20" class="commit 3-52107fc commit-highlight3 commit-highlight-outer"/><rect x="154" y="264" width="12" height="12" class="commit 3-52107fc commit3 commit-highlight-inner"/><circle cx="210" cy="90" r="10" class="commit 4-d5b8715 commit1"/><circle cx="260" cy="180" r="10" class="commit 5-8052030 commit2"/><path d="M 255,175L265,185M255,185L265,175" class="commit commit-reverse 5-8052030 commit2"/><circle cx="310" cy="270" r="10" class="commit 6-ac03ce8 commit3"/><circle cx="360" cy="0" r="9" class="commit 7-b1254ce commit0"/><circle cx="360" cy="0" r="6" class="commit commit-merge 7-b1254ce commit0"/><circle cx="410" cy="270" r="10" class="commit 8-536ebff commit3"/><circle cx="460" cy="360" r="10" class="commit 9-a27ca7a commit4"/><circle cx="510" cy="180" r="9" class="commit 10-acbf355 commit2"/><circle cx="510" cy="180" r="6" class="commit commit-merge 10-acbf355 commit2"/><circle cx="560" cy="360" r="10" class="commit 11-65a624c commit4"/><circle cx="610" cy="270" r="10" class="commit 12-7f4cafd commit3"/><circle cx="660" cy="180" r="9" class="commit 13-5e9ab82 commit2"/><circle cx="660" cy="180" r="6" class="commit commit-merge 13-5e9ab82 commit2"/><circle cx="710" cy="450" r="10" class="commit 14-7b47433 commit5"/><circle cx="760" cy="0" r="10" class="commit 15-79b10b6 commit0"/><circle cx="810" cy="450" r="9" class="commit 16-99aff99 commit5"/><circle cx="810" cy="450" r="6" class="commit commit-merge 16-99aff99 commit5"/><circle cx="860" cy="180" r="9" class="commit 17-57a6683 commit2"/><circle cx="860" cy="180" r="6" class="commit commit-merge 17-57a6683 commit2"/></g><g class="commit-labels"><g transform="translate(-27.544999999999998, 24.535) rotate(-45, 0, 0)"><rect class="commit-label-bkg" x="-13.375" y="13.5" width="46.75" height="15"/><text x="-11.375" y="25" class="commit-label">0-e9fa3f5</text></g><g transform="translate(-27.913125, 24.864375000000003) rotate(-45, 50, 90)"><rect class="commit-label-bkg" x="36.140625" y="103.5" width="47.71875" height="15"/><text x="38.140625" y="115" class="commit-label">1-8efa2cc</text></g><g transform="translate(-16.9109375, 15.0203125) rotate(-45, 100, 180)"><rect class="commit-label-bkg" x="100.6171875" y="193.5" width="18.765625" height="15"/><text x="102.6171875" y="205" class="commit-label">ash</text></g><polygon class="tag-label-bkg" points="90.109375,162.8  &#10;      90.109375,158.8&#10;      98.109375,153.3&#10;      121.890625,153.3&#10;      121.890625,168.3&#10;      98.109375,168.3"/><circle cy="160.8" cx="94.109375" r="1.5" class="tag-hole"/><text y="164" class="tag-label" x="102.109375">abc</text><g transform="translate(-27.9428125, 24.8909375) rotate(-45, 150, 270)"><rect class="commit-label-bkg" x="136.1015625" y="283.5" width="47.796875" height="15"/><text x="138.1015625" y="295" class="commit-label">3-52107fc</text></g><g transform="translate(-28.886875000000003, 25.735625) rotate(-45, 200, 90)"><rect class="commit-label-bkg" x="184.859375" y="103.5" width="50.28125" height="15"/><text x="186.859375" y="115" class="commit-label">4-d5b8715</text></g><g transform="translate(-28.6375, 25.5125) rotate(-45, 250, 180)"><rect class="commit-label-bkg" x="235.1875" y="193.5" width="49.625" height="15"/><text x="237.1875" y="205" class="commit-label">5-8052030</text></g><g transform="translate(-28.5009375, 25.3903125) rotate(-45, 300, 270)"><rect class="commit-label-bkg" x="285.3671875" y="283.5" width="49.265625" height="15"/><text x="287.3671875" y="295" class="commit-label">6-ac03ce8</text></g><g transform="translate(-27.6837890625, 24.6591796875) rotate(-45, 400, 270)"><rect class="commit-label-bkg" x="386.4423828125" y="283.5" width="47.115234375" height="15"/><text x="388.4423828125" y="295" class="commit-label">8-536ebff</text></g><g transform="translate(-28.542499999999997, 25.427500000000002) rotate(-45, 450, 360)"><rect class="commit-label-bkg" x="435.3125" y="373.5" width="49.375" height="15"/><text x="437.3125" y="385" class="commit-label">9-a27ca7a</text></g><g transform="translate(-30.525625, 27.201875) rotate(-45, 550, 360)"><rect class="commit-label-bkg" x="532.703125" y="373.5" width="54.59375" height="15"/><text x="534.703125" y="385" class="commit-label">11-65a624c</text></g><g transform="translate(-29.474687499999998, 26.2615625) rotate(-45, 600, 270)"><rect class="commit-label-bkg" x="584.0859375" y="283.5" width="51.828125" height="15"/><text x="586.0859375" y="295" class="commit-label">12-7f4cafd</text></g><g transform="translate(-30.7571875, 27.4090625) rotate(-45, 700, 450)"><rect class="commit-label-bkg" x="682.3984375" y="463.5" width="55.203125" height="15"/><text x="684.3984375" y="475" class="commit-label">14-7b47433</text></g><g transform="translate(-30.881875, 27.520625) rotate(-45, 750, 0)"><rect class="commit-label-bkg" x="732.234375" y="13.5" width="55.53125" height="15"/><text x="734.234375" y="25" class="commit-label">15-79b10b6</text></g></g></svg>