<svg id="upstream_merges_spec" width="100%" xmlns="http://www.w3.org/2000/svg" xmlns:xlink="http://www.w3.org/1999/xlink" style="max-width: 654.375px; background-color: white;" viewBox="-146.375 -34.70000076293945 654.375 341.3570251464844" role="graphics-document document" aria-roledescription="gitGraph"><style>#upstream_merges_spec{font-family:"trebuchet ms",verdana,arial,sans-serif;font-size:16px;fill:#333;}@keyframes edge-animation-frame{from{stroke-dashoffset:0;}}@keyframes dash{to{stroke-dashoffset:0;}}#upstream_merges_spec .edge-animation-slow{stroke-dasharray:9,5!important;stroke-dashoffset:900;animation:dash 50s linear infinite;stroke-linecap:round;}#upstream_merges_spec .edge-animation-fast{stroke-dasharray:9,5!important;stroke-dashoffset:900;animation:dash 20s linear infinite;stroke-linecap:round;}#upstream_merges_spec .error-icon{fill:#552222;}#upstream_merges_spec .error-text{fill:#552222;stroke:#552222;}#upstream_merges_spec .edge-thickness-normal{stroke-width:1px;}#upstream_merges_spec .edge-thickness-thick{stroke-width:3.5px;}#upstream_merges_spec .edge-pattern-solid{stroke-dasharray:0;}#upstream_merges_spec .edge-thickness-invisible{stroke-width:0;fill:none;}#upstream_merges_spec .edge-pattern-dashed{stroke-dasharray:3;}#upstream_merges_spec .edge-pattern-dotted{stroke-dasharray:2;}#upstream_merges_spec .marker{fill:#333333;stroke:#333333;}#upstream_merges_spec .marker.cross{stroke:#333333;}#upstream_merges_spec svg{font-family:"trebuchet ms",verdana,arial,sans-serif;font-size:16px;}#upstream_merges_spec p{margin:0;}#upstream_merges_spec .commit-id,#upstream_merges_spec .commit-msg,#upstream_merges_spec .branch-label{fill:lightgrey;color:lightgrey;font-family:'trebuchet ms',verdana,arial,sans-serif;font-family:var(--mermaid-font-family);}#upstream_merges_spec .branch-label0{fill:#ffffff;}#upstream_merges_spec .commit0{stroke:hsl(240, 100%, 46.2745098039%);fill:hsl(240, 100%, 46.2745098039%);}#upstream_merges_spec .commit-highlight0{stroke:hsl(60, 100%, 3.7254901961%);fill:hsl(60, 100%, 3.7254901961%);}#upstream_merges_spec .label0{fill:hsl(240, 100%, 46.2745098039%);}#upstream_merges_spec .arrow0{stroke:hsl(240, 100%, 46.2745098039%);}#upstream_merges_spec .branch-label1{fill:black;}#upstream_merges_spec .commit1{stroke:hsl(60, 100%, 43.5294117647%);fill:hsl(60, 100%, 43.5294117647%);}#upstream_merges_spec .commit-highlight1{stroke:rgb(0, 0, 160.5);fill:rgb(0, 0, 160.5);}#upstream_merges_spec .label1{fill:hsl(60, 100%, 43.5294117647%);}#upstream_merges_spec .arrow1{stroke:hsl(60, 100%, 43.5294117647%);}#upstream_merges_spec .branch-label2{fill:black;}#upstream_merges_spec .commit2{stroke:hsl(80, 100%, 46.2745098039%);fill:hsl(80, 100%, 46.2745098039%);}#upstream_merges_spec .commit-highlight2{stroke:rgb(48.8333333334, 0, 146.5000000001);fill:rgb(48.8333333334, 0, 146.5000000001);}#upstream_merges_spec .label2{fill:hsl(80, 100%, 46.2745098039%);}#upstream_merges_spec .arrow2{stroke:hsl(80, 100%, 46.2745098039%);}#upstream_merges_spec .branch-label3{fill:#ffffff;}#upstream_merges_spec .commit3{stroke:hsl(210, 100%, 46.2745098039%);fill:hsl(210, 100%, 46.2745098039%);}#upstream_merges_spec .commit-highlight3{stroke:rgb(146.5000000001, 73.2500000001, 0);fill:rgb(146.5000000001, 73.2500000001, 0);}#upstream_merges_spec .label3{fill:hsl(210, 100%, 46.2745098039%);}#upstream_merges_spec .arrow3{stroke:hsl(210, 100%, 46.2745098039%);}#upstream_merges_spec .branch-label4{fill:black;}#upstream_merges_spec .commit4{stroke:hsl(180, 100%, 46.2745098039%);fill:hsl(180, 100%, 46.2745098039%);}#upstream_merges_spec .commit-highlight4{stroke:rgb(146.5000000001, 0, 0);fill:rgb(146.5000000001, 0, 0);}#upstream_merges_spec .label4{fill:hsl(180, 100%, 46.2745098039%);}#upstream_merges_spec .arrow4{stroke:hsl(180, 100%, 46.2745098039%);}#upstream_merges_spec .branch-label5{fill:black;}#upstream_merges_spec .commit5{stroke:hsl(150, 100%, 46.2745098039%);fill:hsl(150, 100%, 46.2745098039%);}#upstream_merges_spec .commit-highlight5{stroke:rgb(146.5000000001, 0, 73.2500000001);fill:rgb(146.5000000001, 0, 73.2500000001);}#upstream_merges_spec .label5{fill:hsl(150, 100%, 46.2745098039%);}#upstream_merges_spec .arrow5{stroke:hsl(150, 100%, 46.2745098039%);}#upstream_merges_spec .branch-label6{fill:black;}#upstream_merges_spec .commit6{stroke:hsl(300, 100%, 46.2745098039%);fill:hsl(300, 100%, 46.2745098039%);}#upstream_merges_spec .commit-highlight6{stroke:rgb(0, 146.5000000001, 0);fill:rgb(0, 146.5000000001, 0);}#upstream_merges_spec .label6{fill:hsl(300, 100%, 46.2745098039%);}#upstream_merges_spec .arrow6{stroke:hsl(300, 100%, 46.2745098039%);}#upstream_merges_spec .branch-label7{fill:black;}#upstream_merges_spec .commit7{stroke:hsl(0, 100%, 46.2745098039%);fill:hsl(0, 100%, 46.2745098039%);}#upstream_merges_spec .commit-highlight7{stroke:rgb(0, 146.5000000001, 146.5000000001);fill:rgb(0, 146.5000000001, 146.5000000001);}#upstream_merges_spec .label7{fill:hsl(0, 100%, 46.2745098039%);}#upstream_merges_spec .arrow7{stroke:hsl(0, 100%, 46.2745098039%);}#upstream_merges_spec .branch{stroke-width:1;stroke:#333333;stroke-dasharray:2;}#upstream_merges_spec .commit-label{font-size:10px;fill:#000021;}#upstream_merges_spec .commit-label-bkg{font-size:10px;fill:#ffffde;opacity:0.5;}#upstream_merges_spec .tag-label{font-size:10px;fill:#131300;}#upstream_merges_spec .tag-label-bkg{fill:#ECECFF;stroke:hsl(240, 60%, 86.2745098039%);}#upstream_merges_spec .tag-hole{fill:#333;}#upstream_merges_spec .commit-merge{stroke:#ECECFF;fill:#ECECFF;}#upstream_merges_spec .commit-reverse{stroke:#ECECFF;fill:#ECECFF;stroke-width:3;}#upstream_merges_spec .commit-highlight-inner{stroke:#ECECFF;fill:#ECECFF;}#upstream_merges_spec .arrow{stroke-width:8;stroke-linecap:round;fill:none;}#upstream_merges_spec .gitTitleText{text-anchor:middle;font-size:18px;fill:#333;}#upstream_merges_spec :root{--mermaid-font-family:"trebuchet ms",verdana,arial,sans-serif;}</style><g/><g class="commit-bullets"/><g class="commit-labels"/><g><line x1="0" y1="0" x2="500" y2="0" class="branch branch0"/><rect class="branchLabelBkg label0" rx="4" ry="4" x="-69.25" y="-1.5" width="53.25" height="23" transform="translate(-19, -9.5)"/><g class="branchLabel"><g class="label branch-label0" transform="translate(-79.25, -10.5)"><text><tspan xml:space="preserve" dy="1em" x="0" class="row">main</tspan></text></g></g><line x1="0" y1="90" x2="500" y2="90" class="branch branch1"/><rect class="branchLabelBkg label1" rx="4" ry="4" x="-112.578125" y="-1.5" width="96.578125" height="23" transform="translate(-19, 80.5)"/><g class="branchLabel"><g class="label branch-label1" transform="translate(-122.578125, 79.5)"><text><tspan xml:space="preserve" dy="1em" x="0" class="row">newbranch</tspan></text></g></g><line x1="0" y1="180" x2="500" y2="180" class="branch branch2"/><rect class="branchLabelBkg label2" rx="4" ry="4" x="-111.234375" y="-1.5" width="95.234375" height="23" transform="translate(-19, 170.5)"/><g class="branchLabel"><g class="label branch-label2" transform="translate(-121.234375, 169.5)"><text><tspan xml:space="preserve" dy="1em" x="0" class="row">testBranch</tspan></text></g></g><line x1="0" y1="270" x2="500" y2="270" class="branch branch3"/><rect class="branchLabelBkg label3" rx="4" ry="4" x="-119.375" y="-1.5" width="103.375" height="23" transform="translate(-19, 260.5)"/><g class="branchLabel"><g class="label branch-label3" transform="translate(-129.375, 259.5)"><text><tspan xml:space="preserve" dy="1em" x="0" class="row">testBranch2</tspan></text></g></g></g><g class="commit-arrows"><path d="M 10 0 L 10 70 A 20 20, 0, 0, 0, 30 90 L 60 90" class="arrow arrow1"/><path d="M 60 90 L 110 90" class="arrow arrow1"/><path d="M 110 90 L 160 90" class="arrow arrow1"/><path d="M 10 0 L 10 35 A 10 10, 0, 0, 0, 20 45 L 150 45 A 10 10, 0, 0, 1, 160 55 L 160 90" class="arrow arrow0"/><path d="M 10 0 L 210 0" class="arrow arrow0"/><path d="M 210 0 L 260 0" class="arrow arrow0"/><path d="M 160 90 L 240 90 A 20 20, 0, 0, 0, 260 70 L 260 0" class="arrow arrow1"/><path d="M 260 0 L 260 160 A 20 20, 0, 0, 0, 280 180 L 310 180" class="arrow arrow2"/><path d="M 260 0 L 360 0" class="arrow arrow0"/><path d="M 310 180 L 340 180 A 20 20, 0, 0, 0, 360 160 L 360 0" class="arrow arrow2"/><path d="M 360 0 L 360 250 A 20 20, 0, 0, 0, 380 270 L 410 270" class="arrow arrow3"/><path d="M 360 0 L 460 0" class="arrow arrow0"/><path d="M 410 270 L 440 270 A 20 20, 0, 0, 0, 460 250 L 460 0" class="arrow arrow3"/></g><g class="commit-bullets"><circle cx="10" cy="0" r="10" class="commit 0-e82ad69 commit0"/><circle cx="60" cy="90" r="10" class="commit 1-850a79e commit1"/><circle cx="110" cy="90" r="10" class="commit 2-2c1d182 commit1"/><circle cx="160" cy="90" r="9" class="commit 3-39ea3a2 commit1"/><circle cx="160" cy="90" r="6" class="commit commit-merge 3-39ea3a2 commit1"/><circle cx="210" cy="0" r="10" class="commit 4-6cbd8e1 commit0"/><circle cx="260" cy="0" r="9" class="commit 5-a68ab7e commit0"/><circle cx="260" cy="0" r="6" class="commit commit-merge 5-a68ab7e commit0"/><circle cx="310" cy="180" r="10" class="commit A commit2"/><circle cx="360" cy="0" r="9" class="commit 2-222 commit0"/><circle cx="360" cy="0" r="6" class="commit commit-merge 2-222 commit0"/><circle cx="410" cy="270" r="10" class="commit B commit3"/><rect x="450" y="-10" width="20" height="20" class="commit 4-444 commit-highlight0 commit-highlight-outer"/><rect x="454" y="-6" width="12" height="12" class="commit 4-444 commit0 commit-highlight-inner"/></g><g class="commit-labels"><g transform="translate(-29.1325390625, 25.9554296875) rotate(-45, 0, 0)"><rect class="commit-label-bkg" x="-15.4638671875" y="13.5" width="50.927734375" height="15"/><text x="-13.4638671875" y="25" class="commit-label">0-e82ad69</text></g><g transform="translate(-28.9284375, 25.7728125) rotate(-45, 50, 90)"><rect class="commit-label-bkg" x="34.8046875" y="103.5" width="50.390625" height="15"/><text x="36.8046875" y="115" class="commit-label">1-850a79e</text></g><g transform="translate(-28.93771484375, 25.78111328125) rotate(-45, 100, 90)"><rect class="commit-label-bkg" x="84.79248046875" y="103.5" width="50.4150390625" height="15"/><text x="86.79248046875" y="115" class="commit-label">2-2c1d182</text></g><g transform="translate(-29.2371875, 26.0490625) rotate(-45, 200, 0)"><rect class="commit-label-bkg" x="184.3984375" y="13.5" width="51.203125" height="15"/><text x="186.3984375" y="25" class="commit-label">4-6cbd8e1</text></g><polygon class="tag-label-bkg" points="224.4970703125,-17.2  &#10;      224.4970703125,-21.2&#10;      232.4970703125,-26.7&#10;      287.5029296875,-26.7&#10;      287.5029296875,-11.7&#10;      232.4970703125,-11.7"/><circle cy="-19.2" cx="228.4970703125" r="1.5" class="tag-hole"/><text y="-16" class="tag-label" x="236.4970703125">merge-tag</text><g transform="translate(-14.34, 12.72) rotate(-45, 300, 180)"><rect class="commit-label-bkg" x="304" y="193.5" width="12" height="15"/><text x="306" y="205" class="commit-label">A</text></g><g transform="translate(-20.9536328125, 18.637460937500002) rotate(-45, 350, 0)"><rect class="commit-label-bkg" x="345.2978515625" y="13.5" width="29.404296875" height="15"/><text x="347.2978515625" y="25" class="commit-label">2-222</text></g><polygon class="tag-label-bkg" points="321.9873046875,-17.2  &#10;      321.9873046875,-21.2&#10;      329.9873046875,-26.7&#10;      390.0126953125,-26.7&#10;      390.0126953125,-11.7&#10;      329.9873046875,-11.7"/><circle cy="-19.2" cx="325.9873046875" r="1.5" class="tag-hole"/><text y="-16" class="tag-label" x="333.9873046875">merge-tag2</text><g transform="translate(-13.58, 12.04) rotate(-45, 400, 270)"><rect class="commit-label-bkg" x="405" y="283.5" width="10" height="15"/><text x="407" y="295" class="commit-label">B</text></g><g transform="translate(-21.3336328125, 18.9774609375) rotate(-45, 450, 0)"><rect class="commit-label-bkg" x="444.7978515625" y="13.5" width="30.404296875" height="15"/><text x="446.7978515625" y="25" class="commit-label">4-444</text></g><polygon class="tag-label-bkg" points="422.359375,-17.2  &#10;      422.359375,-21.2&#10;      430.359375,-26.7&#10;      489.640625,-26.7&#10;      489.640625,-11.7&#10;      430.359375,-11.7"/><circle cy="-19.2" cx="426.359375" r="1.5" class="tag-hole"/><text y="-16" class="tag-label" x="434.359375">merge-tag3</text></g></svg>