<svg id="upstream_merges_spec" width="100%" xmlns="http://www.w3.org/2000/svg" xmlns:xlink="http://www.w3.org/1999/xlink" style="max-width: 654.375px; background-color: white;" viewBox="-146.375 -36.70000076293945 654.375 341.3570251464844" role="graphics-document document" aria-roledescription="gitGraph"><style>#upstream_merges_spec{font-family:"trebuchet ms",verdana,arial,sans-serif;font-size:16px;fill:#333;}@keyframes edge-animation-frame{from{stroke-dashoffset:0;}}@keyframes dash{to{stroke-dashoffset:0;}}#upstream_merges_spec .edge-animation-slow{stroke-dasharray:9,5!important;stroke-dashoffset:900;animation:dash 50s linear infinite;stroke-linecap:round;}#upstream_merges_spec .edge-animation-fast{stroke-dasharray:9,5!important;stroke-dashoffset:900;animation:dash 20s linear infinite;stroke-linecap:round;}#upstream_merges_spec .error-icon{fill:#552222;}#upstream_merges_spec .error-text{fill:#552222;stroke:#552222;}#upstream_merges_spec .edge-thickness-normal{stroke-width:1px;}#upstream_merges_spec .edge-thickness-thick{stroke-width:3.5px;}#upstream_merges_spec .edge-pattern-solid{stroke-dasharray:0;}#upstream_merges_spec .edge-thickness-invisible{stroke-width:0;fill:none;}#upstream_merges_spec .edge-pattern-dashed{stroke-dasharray:3;}#upstream_merges_spec .edge-pattern-dotted{stroke-dasharray:2;}#upstream_merges_spec .marker{fill:#333333;stroke:#333333;}#upstream_merges_spec .marker.cross{stroke:#333333;}#upstream_merges_spec svg{font-family:"trebuchet ms",verdana,arial,sans-serif;font-size:16px;}#upstream_merges_spec p{margin:0;}#upstream_merges_spec .commit-id,#upstream_merges_spec .commit-msg,#upstream_merges_spec .branch-label{fill:lightgrey;color:lightgrey;font-family:'trebuchet ms',verdana,arial,sans-serif;font-family:var(--mermaid-font-family);}#upstream_merges_spec .branch-label0{fill:#ffffff;}#upstream_merges_spec .commit0{stroke:hsl(240, 100%, 46.2745098039%);fill:hsl(240, 100%, 46.2745098039%);}#upstream_merges_spec .commit-highlight0{stroke:hsl(60, 100%, 3.7254901961%);fill:hsl(60, 100%, 3.7254901961%);}#upstream_merges_spec .label0{fill:hsl(240, 100%, 46.2745098039%);}#upstream_merges_spec .arrow0{stroke:hsl(240, 100%, 46.2745098039%);}#upstream_merges_spec .branch-label1{fill:black;}#upstream_merges_spec .commit1{stroke:hsl(60, 100%, 43.5294117647%);fill:hsl(60, 100%, 43.5294117647%);}#upstream_merges_spec .commit-highlight1{stroke:rgb(0, 0, 160.5);fill:rgb(0, 0, 160.5);}#upstream_merges_spec .label1{fill:hsl(60, 100%, 43.5294117647%);}#upstream_merges_spec .arrow1{stroke:hsl(60, 100%, 43.5294117647%);}#upstream_merges_spec .branch-label2{fill:black;}#upstream_merges_spec .commit2{stroke:hsl(80, 100%, 46.2745098039%);fill:hsl(80, 100%, 46.2745098039%);}#upstream_merges_spec .commit-highlight2{stroke:rgb(48.8333333334, 0, 146.5000000001);fill:rgb(48.8333333334, 0, 146.5000000001);}#upstream_merges_spec .label2{fill:hsl(80, 100%, 46.2745098039%);}#upstream_merges_spec .arrow2{stroke:hsl(80, 100%, 46.2745098039%);}#upstream_merges_spec .branch-label3{fill:#ffffff;}#upstream_merges_spec .commit3{stroke:hsl(210, 100%, 46.2745098039%);fill:hsl(210, 100%, 46.2745098039%);}#upstream_merges_spec .commit-highlight3{stroke:rgb(146.5000000001, 73.2500000001, 0);fill:rgb(146.5000000001, 73.2500000001, 0);}#upstream_merges_spec .label3{fill:hsl(210, 100%, 46.2745098039%);}#upstream_merges_spec .arrow3{stroke:hsl(210, 100%, 46.2745098039%);}#upstream_merges_spec .branch-label4{fill:black;}#upstream_merges_spec .commit4{stroke:hsl(180, 100%, 46.2745098039%);fill:hsl(180, 100%, 46.2745098039%);}#upstream_merges_spec .commit-highlight4{stroke:rgb(146.5000000001, 0, 0);fill:rgb(146.5000000001, 0, 0);}#upstream_merges_spec .label4{fill:hsl(180, 100%, 46.2745098039%);}#upstream_merges_spec .arrow4{stroke:hsl(180, 100%, 46.2745098039%);}#upstream_merges_spec .branch-label5{fill:black;}#upstream_merges_spec .commit5{stroke:hsl(150, 100%, 46.2745098039%);fill:hsl(150, 100%, 46.2745098039%);}#upstream_merges_spec .commit-highlight5{stroke:rgb(146.5000000001, 0, 73.2500000001);fill:rgb(146.5000000001, 0, 73.2500000001);}#upstream_merges_spec .label5{fill:hsl(150, 100%, 46.2745098039%);}#upstream_merges_spec .arrow5{stroke:hsl(150, 100%, 46.2745098039%);}#upstream_merges_spec .branch-label6{fill:black;}#upstream_merges_spec .commit6{stroke:hsl(300, 100%, 46.2745098039%);fill:hsl(300, 100%, 46.2745098039%);}#upstream_merges_spec .commit-highlight6{stroke:rgb(0, 146.5000000001, 0);fill:rgb(0, 146.5000000001, 0);}#upstream_merges_spec .label6{fill:hsl(300, 100%, 46.2745098039%);}#upstream_merges_spec .arrow6{stroke:hsl(300, 100%, 46.2745098039%);}#upstream_merges_spec .branch-label7{fill:black;}#upstream_merges_spec .commit7{stroke:hsl(0, 100%, 46.2745098039%);fill:hsl(0, 100%, 46.2745098039%);}#upstream_merges_spec .commit-highlight7{stroke:rgb(0, 146.5000000001, 146.5000000001);fill:rgb(0, 146.5000000001, 146.5000000001);}#upstream_merges_spec .label7{fill:hsl(0, 100%, 46.2745098039%);}#upstream_merges_spec .arrow7{stroke:hsl(0, 100%, 46.2745098039%);}#upstream_merges_spec .branch-label8{fill:#ffffff;}#upstream_merges_spec .commit8{stroke:hsl(240, 100%, 46.2745098039%);fill:hsl(240, 100%, 46.2745098039%);}#upstream_merges_spec .commit-highlight8{stroke:hsl(60, 100%, 3.7254901961%);fill:hsl(60, 100%, 3.7254901961%);}#upstream_merges_spec .label8{fill:hsl(240, 100%, 46.2745098039%);}#upstream_merges_spec .arrow8{stroke:hsl(240, 100%, 46.2745098039%);}#upstream_merges_spec .branch-label9{fill:black;}#upstream_merges_spec .commit9{stroke:hsl(60, 100%, 43.5294117647%);fill:hsl(60, 100%, 43.5294117647%);}#upstream_merges_spec .commit-highlight9{stroke:rgb(0, 0, 160.5);fill:rgb(0, 0, 160.5);}#upstream_merges_spec .label9{fill:hsl(60, 100%, 43.5294117647%);}#upstream_merges_spec .arrow9{stroke:hsl(60, 100%, 43.5294117647%);}#upstream_merges_spec .branch-label10{fill:black;}#upstream_merges_spec .commit10{stroke:hsl(80, 100%, 46.2745098039%);fill:hsl(80, 100%, 46.2745098039%);}#upstream_merges_spec .commit-highlight10{stroke:rgb(48.8333333334, 0, 146.5000000001);fill:rgb(48.8333333334, 0, 146.5000000001);}#upstream_merges_spec .label10{fill:hsl(80, 100%, 46.2745098039%);}#upstream_merges_spec .arrow10{stroke:hsl(80, 100%, 46.2745098039%);}#upstream_merges_spec .branch-label11{fill:#ffffff;}#upstream_merges_spec .commit11{stroke:hsl(210, 100%, 46.2745098039%);fill:hsl(210, 100%, 46.2745098039%);}#upstream_merges_spec .commit-highlight11{stroke:rgb(146.5000000001, 73.2500000001, 0);fill:rgb(146.5000000001, 73.2500000001, 0);}#upstream_merges_spec .label11{fill:hsl(210, 100%, 46.2745098039%);}#upstream_merges_spec .arrow11{stroke:hsl(210, 100%, 46.2745098039%);}#upstream_merges_spec .branch{stroke-width:1;stroke:#333333;stroke-dasharray:2;}#upstream_merges_spec .commit-label{font-size:10px;fill:#000021;}#upstream_merges_spec .commit-label-bkg{font-size:10px;fill:#ffffde;opacity:0.5;}#upstream_merges_spec .tag-label{font-size:10px;fill:#131300;}#upstream_merges_spec .tag-label-bkg{fill:#ECECFF;stroke:hsl(240, 60%, 86.2745098039%);}#upstream_merges_spec .tag-hole{fill:#333;}#upstream_merges_spec .commit-merge{stroke:#ECECFF;fill:#ECECFF;}#upstream_merges_spec .commit-reverse{stroke:#ECECFF;fill:#ECECFF;stroke-width:3;}#upstream_merges_spec .commit-highlight-inner{stroke:#ECECFF;fill:#ECECFF;}#upstream_merges_spec .arrow{stroke-width:8;stroke-linecap:round;fill:none;}#upstream_merges_spec .gitTitleText{text-anchor:middle;font-size:18px;fill:#333;}#upstream_merges_spec .node .neo-node{stroke:#9370DB;}#upstream_merges_spec [data-look="neo"].node rect,#upstream_merges_spec [data-look="neo"].cluster rect,#upstream_merges_spec [data-look="neo"].node polygon{stroke:#9370DB;filter:drop-shadow(1px 2px 2px rgba(185, 185, 185, 1));}#upstream_merges_spec [data-look="neo"].swimlane.cluster rect{filter:none;}#upstream_merges_spec [data-look="neo"].node path{stroke:#9370DB;stroke-width:1px;}#upstream_merges_spec [data-look="neo"].node .outer-path{filter:drop-shadow(1px 2px 2px rgba(185, 185, 185, 1));}#upstream_merges_spec [data-look="neo"].node .neo-line path{stroke:#9370DB;filter:none;}#upstream_merges_spec [data-look="neo"].node circle{stroke:#9370DB;filter:drop-shadow(1px 2px 2px rgba(185, 185, 185, 1));}#upstream_merges_spec [data-look="neo"].node circle .state-start{fill:#000000;}#upstream_merges_spec [data-look="neo"].icon-shape .icon{fill:#9370DB;filter:drop-shadow(1px 2px 2px rgba(185, 185, 185, 1));}#upstream_merges_spec [data-look="neo"].icon-shape .icon-neo path{stroke:#9370DB;filter:drop-shadow(1px 2px 2px rgba(185, 185, 185, 1));}#upstream_merges_spec :root{--mermaid-font-family:"trebuchet ms",verdana,arial,sans-serif;}</style><g/><g class="commit-bullets"/><g class="commit-labels"/><g><line x1="0" y1="-2" x2="500" y2="-2" class="branch branch0"/><rect class="branchLabelBkg label0" style="" rx="4" ry="4" x="-69.25" y="0.5" width="53.25" height="23" transform="translate(-19, -14)"/><g class="branchLabel"><g class="label branch-label0" transform="translate(-79.25, -13.5)"><text><tspan xml:space="preserve" dy="1em" x="0" class="row">main</tspan></text></g></g><line x1="0" y1="88" x2="500" y2="88" class="branch branch1"/><rect class="branchLabelBkg label1" style="" rx="4" ry="4" x="-112.578125" y="0.5" width="96.578125" height="23" transform="translate(-19, 76)"/><g class="branchLabel"><g class="label branch-label1" transform="translate(-122.578125, 76.5)"><text><tspan xml:space="preserve" dy="1em" x="0" class="row">newbranch</tspan></text></g></g><line x1="0" y1="178" x2="500" y2="178" class="branch branch2"/><rect class="branchLabelBkg label2" style="" rx="4" ry="4" x="-111.234375" y="0.5" width="95.234375" height="23" transform="translate(-19, 166)"/><g class="branchLabel"><g class="label branch-label2" transform="translate(-121.234375, 166.5)"><text><tspan xml:space="preserve" dy="1em" x="0" class="row">testBranch</tspan></text></g></g><line x1="0" y1="268" x2="500" y2="268" class="branch branch3"/><rect class="branchLabelBkg label3" style="" rx="4" ry="4" x="-119.375" y="0.5" width="103.375" height="23" transform="translate(-19, 256)"/><g class="branchLabel"><g class="label branch-label3" transform="translate(-129.375, 256.5)"><text><tspan xml:space="preserve" dy="1em" x="0" class="row">testBranch2</tspan></text></g></g></g><g class="commit-arrows"><path d="M 10 -2 L 10 68 A 20 20, 0, 0, 0, 30 88 L 60 88" class="arrow arrow1"/><path d="M 60 88 L 110 88" class="arrow arrow1"/><path d="M 110 88 L 160 88" class="arrow arrow1"/><path d="M 10 -2 L 10 33 A 10 10, 0, 0, 0, 20 43 L 150 43 A 10 10, 0, 0, 1, 160 53 L 160 88" class="arrow arrow0"/><path d="M 10 -2 L 210 -2" class="arrow arrow0"/><path d="M 210 -2 L 260 -2" class="arrow arrow0"/><path d="M 160 88 L 240 88 A 20 20, 0, 0, 0, 260 68 L 260 -2" class="arrow arrow1"/><path d="M 260 -2 L 260 158 A 20 20, 0, 0, 0, 280 178 L 310 178" class="arrow arrow2"/><path d="M 260 -2 L 360 -2" class="arrow arrow0"/><path d="M 310 178 L 340 178 A 20 20, 0, 0, 0, 360 158 L 360 -2" class="arrow arrow2"/><path d="M 360 -2 L 360 248 A 20 20, 0, 0, 0, 380 268 L 410 268" class="arrow arrow3"/><path d="M 360 -2 L 460 -2" class="arrow arrow0"/><path d="M 410 268 L 440 268 A 20 20, 0, 0, 0, 460 248 L 460 -2" class="arrow arrow3"/></g><g class="commit-bullets"><circle cx="10" cy="-2" r="10" class="commit 0-c64d8fd commit0"/><circle cx="60" cy="88" r="10" class="commit 1-889fb03 commit1"/><circle cx="110" cy="88" r="10" class="commit 2-8cc1c69 commit1"/><circle cx="160" cy="88" r="10" class="commit 3-836fa85 commit1"/><circle cx="160" cy="88" r="6" class="commit commit-merge 3-836fa85 commit1"/><circle cx="210" cy="-2" r="10" class="commit 4-20a99c9 commit0"/><circle cx="260" cy="-2" r="10" class="commit 5-f84fbe2 commit0"/><circle cx="260" cy="-2" r="6" class="commit commit-merge 5-f84fbe2 commit0"/><circle cx="310" cy="178" r="10" class="commit A commit2"/><circle cx="360" cy="-2" r="10" class="commit 2-222 commit0"/><circle cx="360" cy="-2" r="6" class="commit commit-merge 2-222 commit0"/><circle cx="410" cy="268" r="10" class="commit B commit3"/><rect x="450" y="-12" width="20" height="20" class="commit 4-444 commit-highlight0 commit-highlight-outer"/><rect x="454" y="-8" width="12" height="12" class="commit 4-444 commit0 commit-highlight-inner"/></g><g class="commit-labels"><g transform="translate(-28.349531250000002, 25.25484375) rotate(-45, 0, -2)"><rect class="commit-label-bkg" x="-14.43359375" y="11.5" width="48.8671875" height="15"/><text x="-12.43359375" y="23" class="commit-label">0-c64d8fd</text></g><g transform="translate(-28.174375, 25.098125000000003) rotate(-45, 50, 88)"><rect class="commit-label-bkg" x="35.796875" y="101.5" width="48.40625" height="15"/><text x="37.796875" y="113" class="commit-label">1-889fb03</text></g><g transform="translate(-28.590742187500002, 25.4706640625) rotate(-45, 100, 88)"><rect class="commit-label-bkg" x="85.2490234375" y="101.5" width="49.501953125" height="15"/><text x="87.2490234375" y="113" class="commit-label">2-8cc1c69</text></g><g transform="translate(-29.197109374999997, 26.013203125) rotate(-45, 200, -2)"><rect class="commit-label-bkg" x="184.451171875" y="11.5" width="51.09765625" height="15"/><text x="186.451171875" y="23" class="commit-label">4-20a99c9</text></g><polygon class="tag-label-bkg" points="224.4970703125,-19.2  &#10;      224.4970703125,-23.2&#10;      232.4970703125,-28.7&#10;      287.5029296875,-28.7&#10;      287.5029296875,-13.7&#10;      232.4970703125,-13.7"/><circle cy="-21.2" cx="228.4970703125" r="1.5" class="tag-hole"/><text y="-18" class="tag-label" x="236.4970703125">merge-tag</text><g transform="translate(-14.34, 12.72) rotate(-45, 300, 178)"><rect class="commit-label-bkg" x="304" y="191.5" width="12" height="15"/><text x="306" y="203" class="commit-label">A</text></g><g transform="translate(-20.9536328125, 18.637460937500002) rotate(-45, 350, -2)"><rect class="commit-label-bkg" x="345.2978515625" y="11.5" width="29.404296875" height="15"/><text x="347.2978515625" y="23" class="commit-label">2-222</text></g><polygon class="tag-label-bkg" points="321.9873046875,-19.2  &#10;      321.9873046875,-23.2&#10;      329.9873046875,-28.7&#10;      390.0126953125,-28.7&#10;      390.0126953125,-13.7&#10;      329.9873046875,-13.7"/><circle cy="-21.2" cx="325.9873046875" r="1.5" class="tag-hole"/><text y="-18" class="tag-label" x="333.9873046875">merge-tag2</text><g transform="translate(-13.58, 12.04) rotate(-45, 400, 268)"><rect class="commit-label-bkg" x="405" y="281.5" width="10" height="15"/><text x="407" y="293" class="commit-label">B</text></g><g transform="translate(-21.3336328125, 18.9774609375) rotate(-45, 450, -2)"><rect class="commit-label-bkg" x="444.7978515625" y="11.5" width="30.404296875" height="15"/><text x="446.7978515625" y="23" class="commit-label">4-444</text></g><polygon class="tag-label-bkg" points="422.359375,-19.2  &#10;      422.359375,-23.2&#10;      430.359375,-28.7&#10;      489.640625,-28.7&#10;      489.640625,-13.7&#10;      430.359375,-13.7"/><circle cy="-21.2" cx="426.359375" r="1.5" class="tag-hole"/><text y="-18" class="tag-label" x="434.359375">merge-tag3</text></g></svg>