<svg id="upstream_commits_spec" width="100%" xmlns="http://www.w3.org/2000/svg" xmlns:xlink="http://www.w3.org/1999/xlink" style="max-width: 804.25px; background-color: white;" viewBox="-96.25 -36.70000076293945 804.25 103.00038146972656" role="graphics-document document" aria-roledescription="gitGraph"><style>#upstream_commits_spec{font-family:"trebuchet ms",verdana,arial,sans-serif;font-size:16px;fill:#333;}@keyframes edge-animation-frame{from{stroke-dashoffset:0;}}@keyframes dash{to{stroke-dashoffset:0;}}#upstream_commits_spec .edge-animation-slow{stroke-dasharray:9,5!important;stroke-dashoffset:900;animation:dash 50s linear infinite;stroke-linecap:round;}#upstream_commits_spec .edge-animation-fast{stroke-dasharray:9,5!important;stroke-dashoffset:900;animation:dash 20s linear infinite;stroke-linecap:round;}#upstream_commits_spec .error-icon{fill:#552222;}#upstream_commits_spec .error-text{fill:#552222;stroke:#552222;}#upstream_commits_spec .edge-thickness-normal{stroke-width:1px;}#upstream_commits_spec .edge-thickness-thick{stroke-width:3.5px;}#upstream_commits_spec .edge-pattern-solid{stroke-dasharray:0;}#upstream_commits_spec .edge-thickness-invisible{stroke-width:0;fill:none;}#upstream_commits_spec .edge-pattern-dashed{stroke-dasharray:3;}#upstream_commits_spec .edge-pattern-dotted{stroke-dasharray:2;}#upstream_commits_spec .marker{fill:#333333;stroke:#333333;}#upstream_commits_spec .marker.cross{stroke:#333333;}#upstream_commits_spec svg{font-family:"trebuchet ms",verdana,arial,sans-serif;font-size:16px;}#upstream_commits_spec p{margin:0;}#upstream_commits_spec .commit-id,#upstream_commits_spec .commit-msg,#upstream_commits_spec .branch-label{fill:lightgrey;color:lightgrey;font-family:'trebuchet ms',verdana,arial,sans-serif;font-family:var(--mermaid-font-family);}#upstream_commits_spec .branch-label0{fill:#ffffff;}#upstream_commits_spec .commit0{stroke:hsl(240, 100%, 46.2745098039%);fill:hsl(240, 100%, 46.2745098039%);}#upstream_commits_spec .commit-highlight0{stroke:hsl(60, 100%, 3.7254901961%);fill:hsl(60, 100%, 3.7254901961%);}#upstream_commits_spec .label0{fill:hsl(240, 100%, 46.2745098039%);}#upstream_commits_spec .arrow0{stroke:hsl(240, 100%, 46.2745098039%);}#upstream_commits_spec .branch-label1{fill:black;}#upstream_commits_spec .commit1{stroke:hsl(60, 100%, 43.5294117647%);fill:hsl(60, 100%, 43.5294117647%);}#upstream_commits_spec .commit-highlight1{stroke:rgb(0, 0, 160.5);fill:rgb(0, 0, 160.5);}#upstream_commits_spec .label1{fill:hsl(60, 100%, 43.5294117647%);}#upstream_commits_spec .arrow1{stroke:hsl(60, 100%, 43.5294117647%);}#upstream_commits_spec .branch-label2{fill:black;}#upstream_commits_spec .commit2{stroke:hsl(80, 100%, 46.2745098039%);fill:hsl(80, 100%, 46.2745098039%);}#upstream_commits_spec .commit-highlight2{stroke:rgb(48.8333333334, 0, 146.5000000001);fill:rgb(48.8333333334, 0, 146.5000000001);}#upstream_commits_spec .label2{fill:hsl(80, 100%, 46.2745098039%);}#upstream_commits_spec .arrow2{stroke:hsl(80, 100%, 46.2745098039%);}#upstream_commits_spec .branch-label3{fill:#ffffff;}#upstream_commits_spec .commit3{stroke:hsl(210, 100%, 46.2745098039%);fill:hsl(210, 100%, 46.2745098039%);}#upstream_commits_spec .commit-highlight3{stroke:rgb(146.5000000001, 73.2500000001, 0);fill:rgb(146.5000000001, 73.2500000001, 0);}#upstream_commits_spec .label3{fill:hsl(210, 100%, 46.2745098039%);}#upstream_commits_spec .arrow3{stroke:hsl(210, 100%, 46.2745098039%);}#upstream_commits_spec .branch-label4{fill:black;}#upstream_commits_spec .commit4{stroke:hsl(180, 100%, 46.2745098039%);fill:hsl(180, 100%, 46.2745098039%);}#upstream_commits_spec .commit-highlight4{stroke:rgb(146.5000000001, 0, 0);fill:rgb(146.5000000001, 0, 0);}#upstream_commits_spec .label4{fill:hsl(180, 100%, 46.2745098039%);}#upstream_commits_spec .arrow4{stroke:hsl(180, 100%, 46.2745098039%);}#upstream_commits_spec .branch-label5{fill:black;}#upstream_commits_spec .commit5{stroke:hsl(150, 100%, 46.2745098039%);fill:hsl(150, 100%, 46.2745098039%);}#upstream_commits_spec .commit-highlight5{stroke:rgb(146.5000000001, 0, 73.2500000001);fill:rgb(146.5000000001, 0, 73.2500000001);}#upstream_commits_spec .label5{fill:hsl(150, 100%, 46.2745098039%);}#upstream_commits_spec .arrow5{stroke:hsl(150, 100%, 46.2745098039%);}#upstream_commits_spec .branch-label6{fill:black;}#upstream_commits_spec .commit6{stroke:hsl(300, 100%, 46.2745098039%);fill:hsl(300, 100%, 46.2745098039%);}#upstream_commits_spec .commit-highlight6{stroke:rgb(0, 146.5000000001, 0);fill:rgb(0, 146.5000000001, 0);}#upstream_commits_spec .label6{fill:hsl(300, 100%, 46.2745098039%);}#upstream_commits_spec .arrow6{stroke:hsl(300, 100%, 46.2745098039%);}#upstream_commits_spec .branch-label7{fill:black;}#upstream_commits_spec .commit7{stroke:hsl(0, 100%, 46.2745098039%);fill:hsl(0, 100%, 46.2745098039%);}#upstream_commits_spec .commit-highlight7{stroke:rgb(0, 146.5000000001, 146.5000000001);fill:rgb(0, 146.5000000001, 146.5000000001);}#upstream_commits_spec .label7{fill:hsl(0, 100%, 46.2745098039%);}#upstream_commits_spec .arrow7{stroke:hsl(0, 100%, 46.2745098039%);}#upstream_commits_spec .branch-label8{fill:#ffffff;}#upstream_commits_spec .commit8{stroke:hsl(240, 100%, 46.2745098039%);fill:hsl(240, 100%, 46.2745098039%);}#upstream_commits_spec .commit-highlight8{stroke:hsl(60, 100%, 3.7254901961%);fill:hsl(60, 100%, 3.7254901961%);}#upstream_commits_spec .label8{fill:hsl(240, 100%, 46.2745098039%);}#upstream_commits_spec .arrow8{stroke:hsl(240, 100%, 46.2745098039%);}#upstream_commits_spec .branch-label9{fill:black;}#upstream_commits_spec .commit9{stroke:hsl(60, 100%, 43.5294117647%);fill:hsl(60, 100%, 43.5294117647%);}#upstream_commits_spec .commit-highlight9{stroke:rgb(0, 0, 160.5);fill:rgb(0, 0, 160.5);}#upstream_commits_spec .label9{fill:hsl(60, 100%, 43.5294117647%);}#upstream_commits_spec .arrow9{stroke:hsl(60, 100%, 43.5294117647%);}#upstream_commits_spec .branch-label10{fill:black;}#upstream_commits_spec .commit10{stroke:hsl(80, 100%, 46.2745098039%);fill:hsl(80, 100%, 46.2745098039%);}#upstream_commits_spec .commit-highlight10{stroke:rgb(48.8333333334, 0, 146.5000000001);fill:rgb(48.8333333334, 0, 146.5000000001);}#upstream_commits_spec .label10{fill:hsl(80, 100%, 46.2745098039%);}#upstream_commits_spec .arrow10{stroke:hsl(80, 100%, 46.2745098039%);}#upstream_commits_spec .branch-label11{fill:#ffffff;}#upstream_commits_spec .commit11{stroke:hsl(210, 100%, 46.2745098039%);fill:hsl(210, 100%, 46.2745098039%);}#upstream_commits_spec .commit-highlight11{stroke:rgb(146.5000000001, 73.2500000001, 0);fill:rgb(146.5000000001, 73.2500000001, 0);}#upstream_commits_spec .label11{fill:hsl(210, 100%, 46.2745098039%);}#upstream_commits_spec .arrow11{stroke:hsl(210, 100%, 46.2745098039%);}#upstream_commits_spec .branch{stroke-width:1;stroke:#333333;stroke-dasharray:2;}#upstream_commits_spec .commit-label{font-size:10px;fill:#000021;}#upstream_commits_spec .commit-label-bkg{font-size:10px;fill:#ffffde;opacity:0.5;}#upstream_commits_spec .tag-label{font-size:10px;fill:#131300;}#upstream_commits_spec .tag-label-bkg{fill:#ECECFF;stroke:hsl(240, 60%, 86.2745098039%);}#upstream_commits_spec .tag-hole{fill:#333;}#upstream_commits_spec .commit-merge{stroke:#ECECFF;fill:#ECECFF;}#upstream_commits_spec .commit-reverse{stroke:#ECECFF;fill:#ECECFF;stroke-width:3;}#upstream_commits_spec .commit-highlight-inner{stroke:#ECECFF;fill:#ECECFF;}#upstream_commits_spec .arrow{stroke-width:8;stroke-linecap:round;fill:none;}#upstream_commits_spec .gitTitleText{text-anchor:middle;font-size:18px;fill:#333;}#upstream_commits_spec .node .neo-node{stroke:#9370DB;}#upstream_commits_spec [data-look="neo"].node rect,#upstream_commits_spec [data-look="neo"].cluster rect,#upstream_commits_spec [data-look="neo"].node polygon{stroke:#9370DB;filter:drop-shadow(1px 2px 2px rgba(185, 185, 185, 1));}#upstream_commits_spec [data-look="neo"].swimlane.cluster rect{filter:none;}#upstream_commits_spec [data-look="neo"].node path{stroke:#9370DB;stroke-width:1px;}#upstream_commits_spec [data-look="neo"].node .outer-path{filter:drop-shadow(1px 2px 2px rgba(185, 185, 185, 1));}#upstream_commits_spec [data-look="neo"].node .neo-line path{stroke:#9370DB;filter:none;}#upstream_commits_spec [data-look="neo"].node circle{stroke:#9370DB;filter:drop-shadow(1px 2px 2px rgba(185, 185, 185, 1));}#upstream_commits_spec [data-look="neo"].node circle .state-start{fill:#000000;}#upstream_commits_spec [data-look="neo"].icon-shape .icon{fill:#9370DB;filter:drop-shadow(1px 2px 2px rgba(185, 185, 185, 1));}#upstream_commits_spec [data-look="neo"].icon-shape .icon-neo path{stroke:#9370DB;filter:drop-shadow(1px 2px 2px rgba(185, 185, 185, 1));}#upstream_commits_spec :root{--mermaid-font-family:"trebuchet ms",verdana,arial,sans-serif;}</style><g/><g class="commit-bullets"/><g class="commit-labels"/><g><line x1="0" y1="-2" x2="700" y2="-2" class="branch branch0"/><rect class="branchLabelBkg label0" style="" rx="4" ry="4" x="-69.25" y="0.5" width="53.25" height="23" transform="translate(-19, -14)"/><g class="branchLabel"><g class="label branch-label0" transform="translate(-79.25, -13.5)"><text><tspan xml:space="preserve" dy="1em" x="0" class="row">main</tspan></text></g></g></g><g class="commit-arrows"><path d="M 10 -2 L 60 -2" class="arrow arrow0"/><path d="M 60 -2 L 110 -2" class="arrow arrow0"/><path d="M 110 -2 L 160 -2" class="arrow arrow0"/><path d="M 160 -2 L 210 -2" class="arrow arrow0"/><path d="M 210 -2 L 260 -2" class="arrow arrow0"/><path d="M 260 -2 L 310 -2" class="arrow arrow0"/><path d="M 310 -2 L 360 -2" class="arrow arrow0"/><path d="M 360 -2 L 410 -2" class="arrow arrow0"/><path d="M 410 -2 L 460 -2" class="arrow arrow0"/><path d="M 460 -2 L 510 -2" class="arrow arrow0"/><path d="M 510 -2 L 560 -2" class="arrow arrow0"/><path d="M 560 -2 L 610 -2" class="arrow arrow0"/><path d="M 610 -2 L 660 -2" class="arrow arrow0"/></g><g class="commit-bullets"><circle cx="10" cy="-2" r="10" class="commit 0-836fa85 commit0"/><circle cx="60" cy="-2" r="10" class="commit 1-20a99c9 commit0"/><circle cx="110" cy="-2" r="10" class="commit 1111 commit0"/><circle cx="160" cy="-2" r="10" class="commit 3-f84fbe2 commit0"/><rect x="200" y="-12" width="20" height="20" class="commit 4-8007ff3 commit-highlight0 commit-highlight-outer"/><rect x="204" y="-8" width="12" height="12" class="commit 4-8007ff3 commit0 commit-highlight-inner"/><circle cx="260" cy="-2" r="10" class="commit 5-a3fc599 commit0"/><path d="M 255,-7L265,3M255,3L265,-7" class="commit commit-reverse 5-a3fc599 commit0"/><circle cx="310" cy="-2" r="10" class="commit 6-d45d0aa commit0"/><circle cx="360" cy="-2" r="10" class="commit C1 commit0"/><path d="M 355,-7L365,3M355,3L365,-7" class="commit commit-reverse C1 commit0"/><circle cx="410" cy="-2" r="10" class="commit C2 commit0"/><path d="M 405,-7L415,3M405,3L415,-7" class="commit commit-reverse C2 commit0"/><circle cx="460" cy="-2" r="10" class="commit C3 commit0"/><path d="M 455,-7L465,3M455,3L465,-7" class="commit commit-reverse C3 commit0"/><circle cx="510" cy="-2" r="10" class="commit C4 commit0"/><path d="M 505,-7L515,3M505,3L515,-7" class="commit commit-reverse C4 commit0"/><circle cx="560" cy="-2" r="10" class="commit 11-979244a commit0"/><circle cx="610" cy="-2" r="10" class="commit 12-3f5aa32 commit0"/><circle cx="660" cy="-2" r="10" class="commit 13-e9fa3f5 commit0"/></g><g class="commit-labels"><g transform="translate(-28.055625, 24.991875) rotate(-45, 0, -2)"><rect class="commit-label-bkg" x="-14.046875" y="11.5" width="48.09375" height="15"/><text x="-12.046875" y="23" class="commit-label">0-836fa85</text></g><g transform="translate(-28.817109375, 25.673203125) rotate(-45, 50, -2)"><rect class="commit-label-bkg" x="34.951171875" y="11.5" width="50.09765625" height="15"/><text x="36.951171875" y="23" class="commit-label">1-20a99c9</text></g><g transform="translate(-19.2740625, 17.1346875) rotate(-45, 100, -2)"><rect class="commit-label-bkg" x="97.5078125" y="11.5" width="24.984375" height="15"/><text x="99.5078125" y="23" class="commit-label">1111</text></g><g transform="translate(-27.9524609375, 24.8995703125) rotate(-45, 150, -2)"><rect class="commit-label-bkg" x="136.0888671875" y="11.5" width="47.822265625" height="15"/><text x="138.0888671875" y="23" class="commit-label">3-f84fbe2</text></g><polygon class="tag-label-bkg" points="138.7666015625,-19.2  &#10;      138.7666015625,-23.2&#10;      146.7666015625,-28.7&#10;      173.2333984375,-28.7&#10;      173.2333984375,-13.7&#10;      146.7666015625,-13.7"/><circle cy="-21.2" cx="142.7666015625" r="1.5" class="tag-hole"/><text y="-18" class="tag-label" x="150.7666015625">test</text><g transform="translate(-27.841874999999998, 24.800625) rotate(-45, 200, -2)"><rect class="commit-label-bkg" x="186.234375" y="11.5" width="47.53125" height="15"/><text x="188.234375" y="23" class="commit-label">4-8007ff3</text></g><g transform="translate(-28.228925781250002, 25.14693359375) rotate(-45, 250, -2)"><rect class="commit-label-bkg" x="235.72509765625" y="11.5" width="48.5498046875" height="15"/><text x="237.72509765625" y="23" class="commit-label">5-a3fc599</text></g><g transform="translate(-29.1770703125, 25.9952734375) rotate(-45, 300, -2)"><rect class="commit-label-bkg" x="284.4775390625" y="11.5" width="51.044921875" height="15"/><text x="286.4775390625" y="23" class="commit-label">6-d45d0aa</text></g><g transform="translate(-15.5690625, 13.8196875) rotate(-45, 350, -2)"><rect class="commit-label-bkg" x="352.3828125" y="11.5" width="15.234375" height="15"/><text x="354.3828125" y="23" class="commit-label">C1</text></g><polygon class="tag-label-bkg" points="330.16845703125,-19.2  &#10;      330.16845703125,-23.2&#10;      338.16845703125,-28.7&#10;      381.83154296875,-28.7&#10;      381.83154296875,-13.7&#10;      338.16845703125,-13.7"/><circle cy="-21.2" cx="334.16845703125" r="1.5" class="tag-hole"/><text y="-18" class="tag-label" x="342.16845703125">test tag</text><g transform="translate(-15.85294921875, 14.07369140625) rotate(-45, 400, -2)"><rect class="commit-label-bkg" x="402.00927734375" y="11.5" width="15.9814453125" height="15"/><text x="404.00927734375" y="23" class="commit-label">C2</text></g><polygon class="tag-label-bkg" points="380.16845703125,-19.2  &#10;      380.16845703125,-23.2&#10;      388.16845703125,-28.7&#10;      431.83154296875,-28.7&#10;      431.83154296875,-13.7&#10;      388.16845703125,-13.7"/><circle cy="-21.2" cx="384.16845703125" r="1.5" class="tag-hole"/><text y="-18" class="tag-label" x="392.16845703125">test tag</text><g transform="translate(-15.5690625, 13.8196875) rotate(-45, 450, -2)"><rect class="commit-label-bkg" x="452.3828125" y="11.5" width="15.234375" height="15"/><text x="454.3828125" y="23" class="commit-label">C3</text></g><polygon class="tag-label-bkg" points="430.16845703125,-19.2  &#10;      430.16845703125,-23.2&#10;      438.16845703125,-28.7&#10;      481.83154296875,-28.7&#10;      481.83154296875,-13.7&#10;      438.16845703125,-13.7"/><circle cy="-21.2" cx="434.16845703125" r="1.5" class="tag-hole"/><text y="-18" class="tag-label" x="442.16845703125">test tag</text><g transform="translate(-15.85294921875, 14.07369140625) rotate(-45, 500, -2)"><rect class="commit-label-bkg" x="502.00927734375" y="11.5" width="15.9814453125" height="15"/><text x="504.00927734375" y="23" class="commit-label">C4</text></g><polygon class="tag-label-bkg" points="480.16845703125,-19.2  &#10;      480.16845703125,-23.2&#10;      488.16845703125,-28.7&#10;      531.83154296875,-28.7&#10;      531.83154296875,-13.7&#10;      488.16845703125,-13.7"/><circle cy="-21.2" cx="484.16845703125" r="1.5" class="tag-hole"/><text y="-18" class="tag-label" x="492.16845703125">test tag</text><g transform="translate(-30.917499999999997, 27.5525) rotate(-45, 550, -2)"><rect class="commit-label-bkg" x="532.1875" y="11.5" width="55.625" height="15"/><text x="534.1875" y="23" class="commit-label">11-979244a</text></g><g transform="translate(-30.33673828125, 27.03287109375) rotate(-45, 600, -2)"><rect class="commit-label-bkg" x="582.95166015625" y="11.5" width="54.0966796875" height="15"/><text x="584.95166015625" y="23" class="commit-label">12-3f5aa32</text></g><g transform="translate(-29.54, 26.32) rotate(-45, 650, -2)"><rect class="commit-label-bkg" x="634" y="11.5" width="52" height="15"/><text x="636" y="23" class="commit-label">13-e9fa3f5</text></g></g></svg>