<svg id="upstream_docs_gitgraph_hiding_branch_names_and_lines_022" width="100%" xmlns="http://www.w3.org/2000/svg" xmlns:xlink="http://www.w3.org/1999/xlink" style="max-width: 915.3922729492188px; background-color: white;" viewBox="-38.39225769042969 -18 915.3922729492188 535.0304565429688" role="graphics-document document" aria-roledescription="gitGraph"><style>#upstream_docs_gitgraph_hiding_branch_names_and_lines_022{font-family:"trebuchet ms",verdana,arial,sans-serif;font-size:16px;fill:#333;}@keyframes edge-animation-frame{from{stroke-dashoffset:0;}}@keyframes dash{to{stroke-dashoffset:0;}}#upstream_docs_gitgraph_hiding_branch_names_and_lines_022 .edge-animation-slow{stroke-dasharray:9,5!important;stroke-dashoffset:900;animation:dash 50s linear infinite;stroke-linecap:round;}#upstream_docs_gitgraph_hiding_branch_names_and_lines_022 .edge-animation-fast{stroke-dasharray:9,5!important;stroke-dashoffset:900;animation:dash 20s linear infinite;stroke-linecap:round;}#upstream_docs_gitgraph_hiding_branch_names_and_lines_022 .error-icon{fill:hsl(220.5882352941, 100%, 98.3333333333%);}#upstream_docs_gitgraph_hiding_branch_names_and_lines_022 .error-text{fill:rgb(8.5000000002, 5.7500000001, 0);stroke:rgb(8.5000000002, 5.7500000001, 0);}#upstream_docs_gitgraph_hiding_branch_names_and_lines_022 .edge-thickness-normal{stroke-width:1px;}#upstream_docs_gitgraph_hiding_branch_names_and_lines_022 .edge-thickness-thick{stroke-width:3.5px;}#upstream_docs_gitgraph_hiding_branch_names_and_lines_022 .edge-pattern-solid{stroke-dasharray:0;}#upstream_docs_gitgraph_hiding_branch_names_and_lines_022 .edge-thickness-invisible{stroke-width:0;fill:none;}#upstream_docs_gitgraph_hiding_branch_names_and_lines_022 .edge-pattern-dashed{stroke-dasharray:3;}#upstream_docs_gitgraph_hiding_branch_names_and_lines_022 .edge-pattern-dotted{stroke-dasharray:2;}#upstream_docs_gitgraph_hiding_branch_names_and_lines_022 .marker{fill:#0b0b0b;stroke:#0b0b0b;}#upstream_docs_gitgraph_hiding_branch_names_and_lines_022 .marker.cross{stroke:#0b0b0b;}#upstream_docs_gitgraph_hiding_branch_names_and_lines_022 svg{font-family:"trebuchet ms",verdana,arial,sans-serif;font-size:16px;}#upstream_docs_gitgraph_hiding_branch_names_and_lines_022 p{margin:0;}#upstream_docs_gitgraph_hiding_branch_names_and_lines_022 .commit-id,#upstream_docs_gitgraph_hiding_branch_names_and_lines_022 .commit-msg,#upstream_docs_gitgraph_hiding_branch_names_and_lines_022 .branch-label{fill:lightgrey;color:lightgrey;font-family:'trebuchet ms',verdana,arial,sans-serif;font-family:var(--mermaid-font-family);}#upstream_docs_gitgraph_hiding_branch_names_and_lines_022 .branch-label0{fill:#333;}#upstream_docs_gitgraph_hiding_branch_names_and_lines_022 .commit0{stroke:hsl(40.5882352941, 100%, 68.3333333333%);fill:hsl(40.5882352941, 100%, 68.3333333333%);}#upstream_docs_gitgraph_hiding_branch_names_and_lines_022 .commit-highlight0{stroke:rgb(0, 52.2500000001, 161.5000000002);fill:rgb(0, 52.2500000001, 161.5000000002);}#upstream_docs_gitgraph_hiding_branch_names_and_lines_022 .label0{fill:hsl(40.5882352941, 100%, 68.3333333333%);}#upstream_docs_gitgraph_hiding_branch_names_and_lines_022 .arrow0{stroke:hsl(40.5882352941, 100%, 68.3333333333%);}#upstream_docs_gitgraph_hiding_branch_names_and_lines_022 .branch-label1{fill:#333;}#upstream_docs_gitgraph_hiding_branch_names_and_lines_022 .commit1{stroke:hsl(-79.4117647059, 100%, 68.3333333333%);fill:hsl(-79.4117647059, 100%, 68.3333333333%);}#upstream_docs_gitgraph_hiding_branch_names_and_lines_022 .commit-highlight1{stroke:rgb(52.2500000001, 161.5000000002, 0);fill:rgb(52.2500000001, 161.5000000002, 0);}#upstream_docs_gitgraph_hiding_branch_names_and_lines_022 .label1{fill:hsl(-79.4117647059, 100%, 68.3333333333%);}#upstream_docs_gitgraph_hiding_branch_names_and_lines_022 .arrow1{stroke:hsl(-79.4117647059, 100%, 68.3333333333%);}#upstream_docs_gitgraph_hiding_branch_names_and_lines_022 .branch-label2{fill:#333;}#upstream_docs_gitgraph_hiding_branch_names_and_lines_022 .commit2{stroke:hsl(220.5882352941, 100%, 73.3333333333%);fill:hsl(220.5882352941, 100%, 73.3333333333%);}#upstream_docs_gitgraph_hiding_branch_names_and_lines_022 .commit-highlight2{stroke:rgb(136.0000000002, 92.0000000001, 0);fill:rgb(136.0000000002, 92.0000000001, 0);}#upstream_docs_gitgraph_hiding_branch_names_and_lines_022 .label2{fill:hsl(220.5882352941, 100%, 73.3333333333%);}#upstream_docs_gitgraph_hiding_branch_names_and_lines_022 .arrow2{stroke:hsl(220.5882352941, 100%, 73.3333333333%);}#upstream_docs_gitgraph_hiding_branch_names_and_lines_022 .branch-label3{fill:#333;}#upstream_docs_gitgraph_hiding_branch_names_and_lines_022 .commit3{stroke:hsl(10.5882352941, 100%, 68.3333333333%);fill:hsl(10.5882352941, 100%, 68.3333333333%);}#upstream_docs_gitgraph_hiding_branch_names_and_lines_022 .commit-highlight3{stroke:rgb(0, 133.0000000002, 161.5000000002);fill:rgb(0, 133.0000000002, 161.5000000002);}#upstream_docs_gitgraph_hiding_branch_names_and_lines_022 .label3{fill:hsl(10.5882352941, 100%, 68.3333333333%);}#upstream_docs_gitgraph_hiding_branch_names_and_lines_022 .arrow3{stroke:hsl(10.5882352941, 100%, 68.3333333333%);}#upstream_docs_gitgraph_hiding_branch_names_and_lines_022 .branch-label4{fill:#333;}#upstream_docs_gitgraph_hiding_branch_names_and_lines_022 .commit4{stroke:hsl(-19.4117647059, 100%, 68.3333333333%);fill:hsl(-19.4117647059, 100%, 68.3333333333%);}#upstream_docs_gitgraph_hiding_branch_names_and_lines_022 .commit-highlight4{stroke:rgb(0, 161.5000000002, 109.2500000001);fill:rgb(0, 161.5000000002, 109.2500000001);}#upstream_docs_gitgraph_hiding_branch_names_and_lines_022 .label4{fill:hsl(-19.4117647059, 100%, 68.3333333333%);}#upstream_docs_gitgraph_hiding_branch_names_and_lines_022 .arrow4{stroke:hsl(-19.4117647059, 100%, 68.3333333333%);}#upstream_docs_gitgraph_hiding_branch_names_and_lines_022 .branch-label5{fill:#333;}#upstream_docs_gitgraph_hiding_branch_names_and_lines_022 .commit5{stroke:hsl(-49.4117647059, 100%, 68.3333333333%);fill:hsl(-49.4117647059, 100%, 68.3333333333%);}#upstream_docs_gitgraph_hiding_branch_names_and_lines_022 .commit-highlight5{stroke:rgb(0, 161.5000000002, 28.5);fill:rgb(0, 161.5000000002, 28.5);}#upstream_docs_gitgraph_hiding_branch_names_and_lines_022 .label5{fill:hsl(-49.4117647059, 100%, 68.3333333333%);}#upstream_docs_gitgraph_hiding_branch_names_and_lines_022 .arrow5{stroke:hsl(-49.4117647059, 100%, 68.3333333333%);}#upstream_docs_gitgraph_hiding_branch_names_and_lines_022 .branch-label6{fill:#333;}#upstream_docs_gitgraph_hiding_branch_names_and_lines_022 .commit6{stroke:hsl(100.5882352941, 100%, 68.3333333333%);fill:hsl(100.5882352941, 100%, 68.3333333333%);}#upstream_docs_gitgraph_hiding_branch_names_and_lines_022 .commit-highlight6{stroke:rgb(109.2500000001, 0, 161.5000000002);fill:rgb(109.2500000001, 0, 161.5000000002);}#upstream_docs_gitgraph_hiding_branch_names_and_lines_022 .label6{fill:hsl(100.5882352941, 100%, 68.3333333333%);}#upstream_docs_gitgraph_hiding_branch_names_and_lines_022 .arrow6{stroke:hsl(100.5882352941, 100%, 68.3333333333%);}#upstream_docs_gitgraph_hiding_branch_names_and_lines_022 .branch-label7{fill:#333;}#upstream_docs_gitgraph_hiding_branch_names_and_lines_022 .commit7{stroke:hsl(160.5882352941, 100%, 68.3333333333%);fill:hsl(160.5882352941, 100%, 68.3333333333%);}#upstream_docs_gitgraph_hiding_branch_names_and_lines_022 .commit-highlight7{stroke:rgb(161.5000000002, 0, 52.2500000001);fill:rgb(161.5000000002, 0, 52.2500000001);}#upstream_docs_gitgraph_hiding_branch_names_and_lines_022 .label7{fill:hsl(160.5882352941, 100%, 68.3333333333%);}#upstream_docs_gitgraph_hiding_branch_names_and_lines_022 .arrow7{stroke:hsl(160.5882352941, 100%, 68.3333333333%);}#upstream_docs_gitgraph_hiding_branch_names_and_lines_022 .branch{stroke-width:1;stroke:#0b0b0b;stroke-dasharray:2;}#upstream_docs_gitgraph_hiding_branch_names_and_lines_022 .commit-label{font-size:10px;fill:rgb(11.0000000001, 34.0000000002, 0);}#upstream_docs_gitgraph_hiding_branch_names_and_lines_022 .commit-label-bkg{font-size:10px;fill:hsl(-79.4117647059, 100%, 93.3333333333%);opacity:0.5;}#upstream_docs_gitgraph_hiding_branch_names_and_lines_022 .tag-label{font-size:10px;fill:#333;}#upstream_docs_gitgraph_hiding_branch_names_and_lines_022 .tag-label-bkg{fill:#fff4dd;stroke:hsl(40.5882352941, 60%, 83.3333333333%);}#upstream_docs_gitgraph_hiding_branch_names_and_lines_022 .tag-hole{fill:#333;}#upstream_docs_gitgraph_hiding_branch_names_and_lines_022 .commit-merge{stroke:#fff4dd;fill:#fff4dd;}#upstream_docs_gitgraph_hiding_branch_names_and_lines_022 .commit-reverse{stroke:#fff4dd;fill:#fff4dd;stroke-width:3;}#upstream_docs_gitgraph_hiding_branch_names_and_lines_022 .commit-highlight-inner{stroke:#fff4dd;fill:#fff4dd;}#upstream_docs_gitgraph_hiding_branch_names_and_lines_022 .arrow{stroke-width:8;stroke-linecap:round;fill:none;}#upstream_docs_gitgraph_hiding_branch_names_and_lines_022 .gitTitleText{text-anchor:middle;font-size:18px;fill:#333;}#upstream_docs_gitgraph_hiding_branch_names_and_lines_022 :root{--mermaid-font-family:"trebuchet ms",verdana,arial,sans-serif;}</style><g></g><g class="commit-bullets"></g><g class="commit-labels"></g><g class="commit-arrows"><path d="M 10 0 L 10 70 A 20 20, 0, 0, 0, 30 90 L 60 90" class="arrow arrow1"></path><path d="M 60 90 L 60 160 A 20 20, 0, 0, 0, 80 180 L 110 180" class="arrow arrow2"></path><path d="M 110 180 L 110 250 A 20 20, 0, 0, 0, 130 270 L 160 270" class="arrow arrow3"></path><path d="M 60 90 L 210 90" class="arrow arrow1"></path><path d="M 110 180 L 260 180" class="arrow arrow2"></path><path d="M 160 270 L 310 270" class="arrow arrow3"></path><path d="M 10 0 L 360 0" class="arrow arrow0"></path><path d="M 210 90 L 340 90 A 20 20, 0, 0, 0, 360 70 L 360 0" class="arrow arrow1"></path><path d="M 310 270 L 410 270" class="arrow arrow3"></path><path d="M 260 180 L 260 340 A 20 20, 0, 0, 0, 280 360 L 460 360" class="arrow arrow4"></path><path d="M 260 180 L 510 180" class="arrow arrow2"></path><path d="M 210 90 L 210 125 A 10 10, 0, 0, 0, 220 135 L 500 135 A 10 10, 0, 0, 1, 510 145 L 510 180" class="arrow arrow1"></path><path d="M 460 360 L 560 360" class="arrow arrow4"></path><path d="M 410 270 L 610 270" class="arrow arrow3"></path><path d="M 510 180 L 660 180" class="arrow arrow2"></path><path d="M 560 360 L 640 360 A 20 20, 0, 0, 0, 660 340 L 660 180" class="arrow arrow4"></path><path d="M 660 180 L 660 430 A 20 20, 0, 0, 0, 680 450 L 710 450" class="arrow arrow5"></path><path d="M 360 0 L 760 0" class="arrow arrow0"></path><path d="M 710 450 L 810 450" class="arrow arrow5"></path><path d="M 760 0 L 790 0 A 20 20, 0, 0, 1, 810 20 L 810 450" class="arrow arrow0"></path><path d="M 660 180 L 860 180" class="arrow arrow2"></path><path d="M 810 450 L 840 450 A 20 20, 0, 0, 0, 860 430 L 860 180" class="arrow arrow5"></path></g><g class="commit-bullets"><circle cx="10" cy="0" r="10" class="commit 0-ab40cda commit0"></circle><circle cx="60" cy="90" r="10" class="commit 1-5b722bd commit1"></circle><circle cx="110" cy="180" r="10" class="commit ash commit2"></circle><rect x="150" y="260" width="20" height="20" class="commit 3-a218e74 commit-highlight3 commit-highlight-outer"></rect><rect x="154" y="264" width="12" height="12" class="commit 3-a218e74 commit3 commit-highlight-inner"></rect><circle cx="210" cy="90" r="10" class="commit 4-a13d8e6 commit1"></circle><circle cx="260" cy="180" r="10" class="commit 5-445e440 commit2"></circle><path d="M 255,175L265,185M255,185L265,175" class="commit commit-reverse 5-445e440 commit2"></path><circle cx="310" cy="270" r="10" class="commit 6-0585c39 commit3"></circle><circle cx="360" cy="0" r="9" class="commit 7-c64d8fd commit0"></circle><circle cx="360" cy="0" r="6" class="commit commit-merge 7-c64d8fd commit0"></circle><circle cx="410" cy="270" r="10" class="commit 8-889fb03 commit3"></circle><circle cx="460" cy="360" r="10" class="commit 9-8cc1c69 commit4"></circle><circle cx="510" cy="180" r="9" class="commit 10-836fa85 commit2"></circle><circle cx="510" cy="180" r="6" class="commit commit-merge 10-836fa85 commit2"></circle><circle cx="560" cy="360" r="10" class="commit 11-20a99c9 commit4"></circle><circle cx="610" cy="270" r="10" class="commit 12-f84fbe2 commit3"></circle><circle cx="660" cy="180" r="9" class="commit 13-8007ff3 commit2"></circle><circle cx="660" cy="180" r="6" class="commit commit-merge 13-8007ff3 commit2"></circle><circle cx="710" cy="450" r="10" class="commit 14-a3fc599 commit5"></circle><circle cx="760" cy="0" r="10" class="commit 15-d45d0aa commit0"></circle><circle cx="810" cy="450" r="9" class="commit 16-979244a commit5"></circle><circle cx="810" cy="450" r="6" class="commit commit-merge 16-979244a commit5"></circle><circle cx="860" cy="180" r="9" class="commit 17-3f5aa32 commit2"></circle><circle cx="860" cy="180" r="6" class="commit commit-merge 17-3f5aa32 commit2"></circle></g><g class="commit-labels"><g transform="translate(-29.0657421875, 25.8956640625) rotate(-45, 0, 0)"><rect class="commit-label-bkg" x="-15.3759765625" y="13.5" width="50.751953125" height="15"></rect><text x="-13.3759765625" y="25" class="commit-label">0-ab40cda</text></g><g transform="translate(-29.173359374999997, 25.991953125000002) rotate(-45, 50, 90)"><rect class="commit-label-bkg" x="34.482421875" y="103.5" width="51.03515625" height="15"></rect><text x="36.482421875" y="115" class="commit-label">1-5b722bd</text></g><g transform="translate(-17.11466796875, 15.20259765625) rotate(-45, 100, 180)"><rect class="commit-label-bkg" x="100.34912109375" y="193.5" width="19.3017578125" height="15"></rect><text x="102.34912109375" y="205" class="commit-label">ash</text></g><polygon class="tag-label-bkg" points="90.08740234375,162.8  
      90.08740234375,158.8
      98.08740234375,153.3
      121.91259765625,153.3
      121.91259765625,168.3
      98.08740234375,168.3"></polygon><circle cy="160.8" cx="94.08740234375" r="1.5" class="tag-hole"></circle><text y="164" class="tag-label" x="102.08740234375">abc</text><g transform="translate(-29.008222656250002, 25.84419921875) rotate(-45, 150, 270)"><rect class="commit-label-bkg" x="134.69970703125" y="283.5" width="50.6005859375" height="15"></rect><text x="136.69970703125" y="295" class="commit-label">3-a218e74</text></g><g transform="translate(-29.512539062499997, 26.2954296875) rotate(-45, 200, 90)"><rect class="commit-label-bkg" x="184.0361328125" y="103.5" width="51.927734375" height="15"></rect><text x="186.0361328125" y="115" class="commit-label">4-a13d8e6</text></g><g transform="translate(-29.00451171875, 25.840878906249998) rotate(-45, 250, 180)"><rect class="commit-label-bkg" x="234.70458984375" y="193.5" width="50.5908203125" height="15"></rect><text x="236.70458984375" y="205" class="commit-label">5-445e440</text></g><g transform="translate(-28.813398437500002, 25.6698828125) rotate(-45, 300, 270)"><rect class="commit-label-bkg" x="284.9560546875" y="283.5" width="50.087890625" height="15"></rect><text x="286.9560546875" y="295" class="commit-label">6-0585c39</text></g><g transform="translate(-28.174375, 25.098125000000003) rotate(-45, 400, 270)"><rect class="commit-label-bkg" x="385.796875" y="283.5" width="48.40625" height="15"></rect><text x="387.796875" y="295" class="commit-label">8-889fb03</text></g><g transform="translate(-28.590742187500002, 25.4706640625) rotate(-45, 450, 360)"><rect class="commit-label-bkg" x="435.2490234375" y="373.5" width="49.501953125" height="15"></rect><text x="437.2490234375" y="385" class="commit-label">9-8cc1c69</text></g><g transform="translate(-30.8098828125, 27.4562109375) rotate(-45, 550, 360)"><rect class="commit-label-bkg" x="532.3291015625" y="373.5" width="55.341796875" height="15"></rect><text x="534.3291015625" y="385" class="commit-label">11-20a99c9</text></g><g transform="translate(-29.945234375000002, 26.682578125) rotate(-45, 600, 270)"><rect class="commit-label-bkg" x="583.466796875" y="283.5" width="53.06640625" height="15"></rect><text x="585.466796875" y="295" class="commit-label">12-f84fbe2</text></g><g transform="translate(-30.221699218749997, 26.92994140625) rotate(-45, 700, 450)"><rect class="commit-label-bkg" x="683.10302734375" y="463.5" width="53.7939453125" height="15"></rect><text x="685.10302734375" y="475" class="commit-label">14-a3fc599</text></g><g transform="translate(-31.169843750000002, 27.778281250000003) rotate(-45, 750, 0)"><rect class="commit-label-bkg" x="731.85546875" y="13.5" width="56.2890625" height="15"></rect><text x="733.85546875" y="25" class="commit-label">15-d45d0aa</text></g></g></svg>