<svg id="upstream_cypress_gitgraph_spec_64_should_render_commits_for_more_than_8_branches_vertical_branc_068" width="100%" xmlns="http://www.w3.org/2000/svg" xmlns:xlink="http://www.w3.org/1999/xlink" style="max-width: 1166.3221435546875px; background-color: white;" viewBox="-63.44711685180664 22 1166.3221435546875 939" role="graphics-document document" aria-roledescription="gitGraph"><style>#upstream_cypress_gitgraph_spec_64_should_render_commits_for_more_than_8_branches_vertical_branc_068{font-family:"trebuchet ms",verdana,arial,sans-serif;font-size:16px;fill:#333;}@keyframes edge-animation-frame{from{stroke-dashoffset:0;}}@keyframes dash{to{stroke-dashoffset:0;}}#upstream_cypress_gitgraph_spec_64_should_render_commits_for_more_than_8_branches_vertical_branc_068 .edge-animation-slow{stroke-dasharray:9,5!important;stroke-dashoffset:900;animation:dash 50s linear infinite;stroke-linecap:round;}#upstream_cypress_gitgraph_spec_64_should_render_commits_for_more_than_8_branches_vertical_branc_068 .edge-animation-fast{stroke-dasharray:9,5!important;stroke-dashoffset:900;animation:dash 20s linear infinite;stroke-linecap:round;}#upstream_cypress_gitgraph_spec_64_should_render_commits_for_more_than_8_branches_vertical_branc_068 .error-icon{fill:#552222;}#upstream_cypress_gitgraph_spec_64_should_render_commits_for_more_than_8_branches_vertical_branc_068 .error-text{fill:#552222;stroke:#552222;}#upstream_cypress_gitgraph_spec_64_should_render_commits_for_more_than_8_branches_vertical_branc_068 .edge-thickness-normal{stroke-width:1px;}#upstream_cypress_gitgraph_spec_64_should_render_commits_for_more_than_8_branches_vertical_branc_068 .edge-thickness-thick{stroke-width:3.5px;}#upstream_cypress_gitgraph_spec_64_should_render_commits_for_more_than_8_branches_vertical_branc_068 .edge-pattern-solid{stroke-dasharray:0;}#upstream_cypress_gitgraph_spec_64_should_render_commits_for_more_than_8_branches_vertical_branc_068 .edge-thickness-invisible{stroke-width:0;fill:none;}#upstream_cypress_gitgraph_spec_64_should_render_commits_for_more_than_8_branches_vertical_branc_068 .edge-pattern-dashed{stroke-dasharray:3;}#upstream_cypress_gitgraph_spec_64_should_render_commits_for_more_than_8_branches_vertical_branc_068 .edge-pattern-dotted{stroke-dasharray:2;}#upstream_cypress_gitgraph_spec_64_should_render_commits_for_more_than_8_branches_vertical_branc_068 .marker{fill:#333333;stroke:#333333;}#upstream_cypress_gitgraph_spec_64_should_render_commits_for_more_than_8_branches_vertical_branc_068 .marker.cross{stroke:#333333;}#upstream_cypress_gitgraph_spec_64_should_render_commits_for_more_than_8_branches_vertical_branc_068 svg{font-family:"trebuchet ms",verdana,arial,sans-serif;font-size:16px;}#upstream_cypress_gitgraph_spec_64_should_render_commits_for_more_than_8_branches_vertical_branc_068 p{margin:0;}#upstream_cypress_gitgraph_spec_64_should_render_commits_for_more_than_8_branches_vertical_branc_068 .commit-id,#upstream_cypress_gitgraph_spec_64_should_render_commits_for_more_than_8_branches_vertical_branc_068 .commit-msg,#upstream_cypress_gitgraph_spec_64_should_render_commits_for_more_than_8_branches_vertical_branc_068 .branch-label{fill:lightgrey;color:lightgrey;font-family:'trebuchet ms',verdana,arial,sans-serif;font-family:var(--mermaid-font-family);}#upstream_cypress_gitgraph_spec_64_should_render_commits_for_more_than_8_branches_vertical_branc_068 .branch-label0{fill:#ffffff;}#upstream_cypress_gitgraph_spec_64_should_render_commits_for_more_than_8_branches_vertical_branc_068 .commit0{stroke:hsl(240, 100%, 46.2745098039%);fill:hsl(240, 100%, 46.2745098039%);}#upstream_cypress_gitgraph_spec_64_should_render_commits_for_more_than_8_branches_vertical_branc_068 .commit-highlight0{stroke:hsl(60, 100%, 3.7254901961%);fill:hsl(60, 100%, 3.7254901961%);}#upstream_cypress_gitgraph_spec_64_should_render_commits_for_more_than_8_branches_vertical_branc_068 .label0{fill:hsl(240, 100%, 46.2745098039%);}#upstream_cypress_gitgraph_spec_64_should_render_commits_for_more_than_8_branches_vertical_branc_068 .arrow0{stroke:hsl(240, 100%, 46.2745098039%);}#upstream_cypress_gitgraph_spec_64_should_render_commits_for_more_than_8_branches_vertical_branc_068 .branch-label1{fill:black;}#upstream_cypress_gitgraph_spec_64_should_render_commits_for_more_than_8_branches_vertical_branc_068 .commit1{stroke:hsl(60, 100%, 43.5294117647%);fill:hsl(60, 100%, 43.5294117647%);}#upstream_cypress_gitgraph_spec_64_should_render_commits_for_more_than_8_branches_vertical_branc_068 .commit-highlight1{stroke:rgb(0, 0, 160.5);fill:rgb(0, 0, 160.5);}#upstream_cypress_gitgraph_spec_64_should_render_commits_for_more_than_8_branches_vertical_branc_068 .label1{fill:hsl(60, 100%, 43.5294117647%);}#upstream_cypress_gitgraph_spec_64_should_render_commits_for_more_than_8_branches_vertical_branc_068 .arrow1{stroke:hsl(60, 100%, 43.5294117647%);}#upstream_cypress_gitgraph_spec_64_should_render_commits_for_more_than_8_branches_vertical_branc_068 .branch-label2{fill:black;}#upstream_cypress_gitgraph_spec_64_should_render_commits_for_more_than_8_branches_vertical_branc_068 .commit2{stroke:hsl(80, 100%, 46.2745098039%);fill:hsl(80, 100%, 46.2745098039%);}#upstream_cypress_gitgraph_spec_64_should_render_commits_for_more_than_8_branches_vertical_branc_068 .commit-highlight2{stroke:rgb(48.8333333334, 0, 146.5000000001);fill:rgb(48.8333333334, 0, 146.5000000001);}#upstream_cypress_gitgraph_spec_64_should_render_commits_for_more_than_8_branches_vertical_branc_068 .label2{fill:hsl(80, 100%, 46.2745098039%);}#upstream_cypress_gitgraph_spec_64_should_render_commits_for_more_than_8_branches_vertical_branc_068 .arrow2{stroke:hsl(80, 100%, 46.2745098039%);}#upstream_cypress_gitgraph_spec_64_should_render_commits_for_more_than_8_branches_vertical_branc_068 .branch-label3{fill:#ffffff;}#upstream_cypress_gitgraph_spec_64_should_render_commits_for_more_than_8_branches_vertical_branc_068 .commit3{stroke:hsl(210, 100%, 46.2745098039%);fill:hsl(210, 100%, 46.2745098039%);}#upstream_cypress_gitgraph_spec_64_should_render_commits_for_more_than_8_branches_vertical_branc_068 .commit-highlight3{stroke:rgb(146.5000000001, 73.2500000001, 0);fill:rgb(146.5000000001, 73.2500000001, 0);}#upstream_cypress_gitgraph_spec_64_should_render_commits_for_more_than_8_branches_vertical_branc_068 .label3{fill:hsl(210, 100%, 46.2745098039%);}#upstream_cypress_gitgraph_spec_64_should_render_commits_for_more_than_8_branches_vertical_branc_068 .arrow3{stroke:hsl(210, 100%, 46.2745098039%);}#upstream_cypress_gitgraph_spec_64_should_render_commits_for_more_than_8_branches_vertical_branc_068 .branch-label4{fill:black;}#upstream_cypress_gitgraph_spec_64_should_render_commits_for_more_than_8_branches_vertical_branc_068 .commit4{stroke:hsl(180, 100%, 46.2745098039%);fill:hsl(180, 100%, 46.2745098039%);}#upstream_cypress_gitgraph_spec_64_should_render_commits_for_more_than_8_branches_vertical_branc_068 .commit-highlight4{stroke:rgb(146.5000000001, 0, 0);fill:rgb(146.5000000001, 0, 0);}#upstream_cypress_gitgraph_spec_64_should_render_commits_for_more_than_8_branches_vertical_branc_068 .label4{fill:hsl(180, 100%, 46.2745098039%);}#upstream_cypress_gitgraph_spec_64_should_render_commits_for_more_than_8_branches_vertical_branc_068 .arrow4{stroke:hsl(180, 100%, 46.2745098039%);}#upstream_cypress_gitgraph_spec_64_should_render_commits_for_more_than_8_branches_vertical_branc_068 .branch-label5{fill:black;}#upstream_cypress_gitgraph_spec_64_should_render_commits_for_more_than_8_branches_vertical_branc_068 .commit5{stroke:hsl(150, 100%, 46.2745098039%);fill:hsl(150, 100%, 46.2745098039%);}#upstream_cypress_gitgraph_spec_64_should_render_commits_for_more_than_8_branches_vertical_branc_068 .commit-highlight5{stroke:rgb(146.5000000001, 0, 73.2500000001);fill:rgb(146.5000000001, 0, 73.2500000001);}#upstream_cypress_gitgraph_spec_64_should_render_commits_for_more_than_8_branches_vertical_branc_068 .label5{fill:hsl(150, 100%, 46.2745098039%);}#upstream_cypress_gitgraph_spec_64_should_render_commits_for_more_than_8_branches_vertical_branc_068 .arrow5{stroke:hsl(150, 100%, 46.2745098039%);}#upstream_cypress_gitgraph_spec_64_should_render_commits_for_more_than_8_branches_vertical_branc_068 .branch-label6{fill:black;}#upstream_cypress_gitgraph_spec_64_should_render_commits_for_more_than_8_branches_vertical_branc_068 .commit6{stroke:hsl(300, 100%, 46.2745098039%);fill:hsl(300, 100%, 46.2745098039%);}#upstream_cypress_gitgraph_spec_64_should_render_commits_for_more_than_8_branches_vertical_branc_068 .commit-highlight6{stroke:rgb(0, 146.5000000001, 0);fill:rgb(0, 146.5000000001, 0);}#upstream_cypress_gitgraph_spec_64_should_render_commits_for_more_than_8_branches_vertical_branc_068 .label6{fill:hsl(300, 100%, 46.2745098039%);}#upstream_cypress_gitgraph_spec_64_should_render_commits_for_more_than_8_branches_vertical_branc_068 .arrow6{stroke:hsl(300, 100%, 46.2745098039%);}#upstream_cypress_gitgraph_spec_64_should_render_commits_for_more_than_8_branches_vertical_branc_068 .branch-label7{fill:black;}#upstream_cypress_gitgraph_spec_64_should_render_commits_for_more_than_8_branches_vertical_branc_068 .commit7{stroke:hsl(0, 100%, 46.2745098039%);fill:hsl(0, 100%, 46.2745098039%);}#upstream_cypress_gitgraph_spec_64_should_render_commits_for_more_than_8_branches_vertical_branc_068 .commit-highlight7{stroke:rgb(0, 146.5000000001, 146.5000000001);fill:rgb(0, 146.5000000001, 146.5000000001);}#upstream_cypress_gitgraph_spec_64_should_render_commits_for_more_than_8_branches_vertical_branc_068 .label7{fill:hsl(0, 100%, 46.2745098039%);}#upstream_cypress_gitgraph_spec_64_should_render_commits_for_more_than_8_branches_vertical_branc_068 .arrow7{stroke:hsl(0, 100%, 46.2745098039%);}#upstream_cypress_gitgraph_spec_64_should_render_commits_for_more_than_8_branches_vertical_branc_068 .branch{stroke-width:1;stroke:#333333;stroke-dasharray:2;}#upstream_cypress_gitgraph_spec_64_should_render_commits_for_more_than_8_branches_vertical_branc_068 .commit-label{font-size:10px;fill:#000021;}#upstream_cypress_gitgraph_spec_64_should_render_commits_for_more_than_8_branches_vertical_branc_068 .commit-label-bkg{font-size:10px;fill:#ffffde;opacity:0.5;}#upstream_cypress_gitgraph_spec_64_should_render_commits_for_more_than_8_branches_vertical_branc_068 .tag-label{font-size:10px;fill:#131300;}#upstream_cypress_gitgraph_spec_64_should_render_commits_for_more_than_8_branches_vertical_branc_068 .tag-label-bkg{fill:#ECECFF;stroke:hsl(240, 60%, 86.2745098039%);}#upstream_cypress_gitgraph_spec_64_should_render_commits_for_more_than_8_branches_vertical_branc_068 .tag-hole{fill:#333;}#upstream_cypress_gitgraph_spec_64_should_render_commits_for_more_than_8_branches_vertical_branc_068 .commit-merge{stroke:#ECECFF;fill:#ECECFF;}#upstream_cypress_gitgraph_spec_64_should_render_commits_for_more_than_8_branches_vertical_branc_068 .commit-reverse{stroke:#ECECFF;fill:#ECECFF;stroke-width:3;}#upstream_cypress_gitgraph_spec_64_should_render_commits_for_more_than_8_branches_vertical_branc_068 .commit-highlight-inner{stroke:#ECECFF;fill:#ECECFF;}#upstream_cypress_gitgraph_spec_64_should_render_commits_for_more_than_8_branches_vertical_branc_068 .arrow{stroke-width:8;stroke-linecap:round;fill:none;}#upstream_cypress_gitgraph_spec_64_should_render_commits_for_more_than_8_branches_vertical_branc_068 .gitTitleText{text-anchor:middle;font-size:18px;fill:#333;}#upstream_cypress_gitgraph_spec_64_should_render_commits_for_more_than_8_branches_vertical_branc_068 :root{--mermaid-font-family:"trebuchet ms",verdana,arial,sans-serif;}</style><g/><g class="commit-bullets"/><g class="commit-labels"/><g><line x1="0" y1="930" x2="0" y2="30" class="branch branch0"/><rect class="branchLabelBkg label0" rx="4" ry="4" x="-27.625" y="930" width="53.25" height="23"/><g class="branchLabel"><g class="label branch-label0" transform="translate(-22.625, 930)"><text><tspan xml:space="preserve" dy="1em" x="0" class="row">main</tspan></text></g></g><line x1="107.625" y1="930" x2="107.625" y2="30" class="branch branch1"/><rect class="branchLabelBkg label1" rx="4" ry="4" x="68.953125" y="930" width="75.34375" height="23"/><g class="branchLabel"><g class="label branch-label1" transform="translate(73.953125, 930)"><text><tspan xml:space="preserve" dy="1em" x="0" class="row">branch1</tspan></text></g></g><line x1="226.296875" y1="930" x2="226.296875" y2="30" class="branch branch2"/><rect class="branchLabelBkg label2" rx="4" ry="4" x="187.625" y="930" width="75.34375" height="23"/><g class="branchLabel"><g class="label branch-label2" transform="translate(192.625, 930)"><text><tspan xml:space="preserve" dy="1em" x="0" class="row">branch2</tspan></text></g></g><line x1="344.96875" y1="930" x2="344.96875" y2="30" class="branch branch3"/><rect class="branchLabelBkg label3" rx="4" ry="4" x="306.296875" y="930" width="75.34375" height="23"/><g class="branchLabel"><g class="label branch-label3" transform="translate(311.296875, 930)"><text><tspan xml:space="preserve" dy="1em" x="0" class="row">branch3</tspan></text></g></g><line x1="463.640625" y1="930" x2="463.640625" y2="30" class="branch branch4"/><rect class="branchLabelBkg label4" rx="4" ry="4" x="424.66796875" y="930" width="75.9453125" height="23"/><g class="branchLabel"><g class="label branch-label4" transform="translate(429.66796875, 930)"><text><tspan xml:space="preserve" dy="1em" x="0" class="row">branch4</tspan></text></g></g><line x1="582.61328125" y1="930" x2="582.61328125" y2="30" class="branch branch5"/><rect class="branchLabelBkg label5" rx="4" ry="4" x="543.94140625" y="930" width="75.34375" height="23"/><g class="branchLabel"><g class="label branch-label5" transform="translate(548.94140625, 930)"><text><tspan xml:space="preserve" dy="1em" x="0" class="row">branch5</tspan></text></g></g><line x1="701.28515625" y1="930" x2="701.28515625" y2="30" class="branch branch6"/><rect class="branchLabelBkg label6" rx="4" ry="4" x="662.3125" y="930" width="75.9453125" height="23"/><g class="branchLabel"><g class="label branch-label6" transform="translate(667.3125, 930)"><text><tspan xml:space="preserve" dy="1em" x="0" class="row">branch6</tspan></text></g></g><line x1="820.2578125" y1="930" x2="820.2578125" y2="30" class="branch branch7"/><rect class="branchLabelBkg label7" rx="4" ry="4" x="781.28515625" y="930" width="75.9453125" height="23"/><g class="branchLabel"><g class="label branch-label7" transform="translate(786.28515625, 930)"><text><tspan xml:space="preserve" dy="1em" x="0" class="row">branch7</tspan></text></g></g><line x1="939.23046875" y1="930" x2="939.23046875" y2="30" class="branch branch0"/><rect class="branchLabelBkg label0" rx="4" ry="4" x="900.2578125" y="930" width="75.9453125" height="23"/><g class="branchLabel"><g class="label branch-label0" transform="translate(905.2578125, 930)"><text><tspan xml:space="preserve" dy="1em" x="0" class="row">branch8</tspan></text></g></g><line x1="1058.203125" y1="930" x2="1058.203125" y2="30" class="branch branch1"/><rect class="branchLabelBkg label1" rx="4" ry="4" x="1019.53125" y="930" width="75.34375" height="23"/><g class="branchLabel"><g class="label branch-label1" transform="translate(1024.53125, 930)"><text><tspan xml:space="preserve" dy="1em" x="0" class="row">branch9</tspan></text></g></g></g><g class="commit-arrows"><path d="M 0 890 L 87.625 890 A 20 20, 0, 0, 0, 107.625 870 L 107.625 840" class="arrow arrow1"/><path d="M 0 890 L 0 790" class="arrow arrow0"/><path d="M 107.625 840 L 107.625 810 A 20 20, 0, 0, 0, 87.625 790 L 0 790" class="arrow arrow1"/><path d="M 0 790 L 206.296875 790 A 20 20, 0, 0, 0, 226.296875 770 L 226.296875 740" class="arrow arrow2"/><path d="M 0 790 L 0 690" class="arrow arrow0"/><path d="M 226.296875 740 L 226.296875 710 A 20 20, 0, 0, 0, 206.296875 690 L 0 690" class="arrow arrow2"/><path d="M 0 690 L 324.96875 690 A 20 20, 0, 0, 0, 344.96875 670 L 344.96875 640" class="arrow arrow3"/><path d="M 0 690 L 0 590" class="arrow arrow0"/><path d="M 344.96875 640 L 344.96875 610 A 20 20, 0, 0, 0, 324.96875 590 L 0 590" class="arrow arrow3"/><path d="M 0 590 L 443.640625 590 A 20 20, 0, 0, 0, 463.640625 570 L 463.640625 540" class="arrow arrow4"/><path d="M 0 590 L 0 490" class="arrow arrow0"/><path d="M 463.640625 540 L 463.640625 510 A 20 20, 0, 0, 0, 443.640625 490 L 0 490" class="arrow arrow4"/><path d="M 0 490 L 562.61328125 490 A 20 20, 0, 0, 0, 582.61328125 470 L 582.61328125 440" class="arrow arrow5"/><path d="M 0 490 L 0 390" class="arrow arrow0"/><path d="M 582.61328125 440 L 582.61328125 410 A 20 20, 0, 0, 0, 562.61328125 390 L 0 390" class="arrow arrow5"/><path d="M 0 390 L 681.28515625 390 A 20 20, 0, 0, 0, 701.28515625 370 L 701.28515625 340" class="arrow arrow6"/><path d="M 0 390 L 0 290" class="arrow arrow0"/><path d="M 701.28515625 340 L 701.28515625 310 A 20 20, 0, 0, 0, 681.28515625 290 L 0 290" class="arrow arrow6"/><path d="M 0 290 L 800.2578125 290 A 20 20, 0, 0, 0, 820.2578125 270 L 820.2578125 240" class="arrow arrow7"/><path d="M 0 290 L 0 190" class="arrow arrow0"/><path d="M 820.2578125 240 L 820.2578125 210 A 20 20, 0, 0, 0, 800.2578125 190 L 0 190" class="arrow arrow7"/><path d="M 0 190 L 919.23046875 190 A 20 20, 0, 0, 0, 939.23046875 170 L 939.23046875 140" class="arrow arrow0"/><path d="M 0 190 L 0 90" class="arrow arrow0"/><path d="M 939.23046875 140 L 939.23046875 110 A 20 20, 0, 0, 0, 919.23046875 90 L 0 90" class="arrow arrow0"/><path d="M 0 90 L 1038.203125 90 A 20 20, 0, 0, 0, 1058.203125 70 L 1058.203125 40" class="arrow arrow1"/></g><g class="commit-bullets"><circle cx="1058.203125" cy="40" r="10" class="commit 10-abcdefg commit1"/><circle cx="0" cy="90" r="9" class="commit 16-979244a commit0"/><circle cx="0" cy="90" r="6" class="commit commit-merge 16-979244a commit0"/><circle cx="939.23046875" cy="140" r="10" class="commit 9-abcdefg commit0"/><circle cx="0" cy="190" r="9" class="commit 14-d45d0aa commit0"/><circle cx="0" cy="190" r="6" class="commit commit-merge 14-d45d0aa commit0"/><circle cx="820.2578125" cy="240" r="10" class="commit 8-abcdefg commit7"/><circle cx="0" cy="290" r="9" class="commit 12-a3fc599 commit0"/><circle cx="0" cy="290" r="6" class="commit commit-merge 12-a3fc599 commit0"/><circle cx="701.28515625" cy="340" r="10" class="commit 7-abcdefg commit6"/><circle cx="0" cy="390" r="9" class="commit 10-8007ff3 commit0"/><circle cx="0" cy="390" r="6" class="commit commit-merge 10-8007ff3 commit0"/><circle cx="582.61328125" cy="440" r="10" class="commit 6-abcdefg commit5"/><circle cx="0" cy="490" r="9" class="commit 8-f84fbe2 commit0"/><circle cx="0" cy="490" r="6" class="commit commit-merge 8-f84fbe2 commit0"/><circle cx="463.640625" cy="540" r="10" class="commit 5-abcdefg commit4"/><circle cx="0" cy="590" r="9" class="commit 6-20a99c9 commit0"/><circle cx="0" cy="590" r="6" class="commit commit-merge 6-20a99c9 commit0"/><circle cx="344.96875" cy="640" r="10" class="commit 4-abcdefg commit3"/><circle cx="0" cy="690" r="9" class="commit 4-836fa85 commit0"/><circle cx="0" cy="690" r="6" class="commit commit-merge 4-836fa85 commit0"/><circle cx="226.296875" cy="740" r="10" class="commit 3-abcdefg commit2"/><circle cx="0" cy="790" r="9" class="commit 2-8cc1c69 commit0"/><circle cx="0" cy="790" r="6" class="commit commit-merge 2-8cc1c69 commit0"/><circle cx="107.625" cy="840" r="10" class="commit 2-abcdefg commit1"/><circle cx="0" cy="890" r="10" class="commit 1-abcdefg commit0"/></g><g class="commit-labels"><g><rect class="commit-label-bkg" x="986.544921875" y="28" width="54.658203125" height="15" transform="rotate(-45, 1058.203125, 40)"/><text x="991.544921875" y="39" class="commit-label" transform="rotate(-45, 1058.203125, 40)">10-abcdefg</text></g><g><rect class="commit-label-bkg" x="872.81640625" y="128" width="49.4140625" height="15" transform="rotate(-45, 939.23046875, 140)"/><text x="877.81640625" y="139" class="commit-label" transform="rotate(-45, 939.23046875, 140)">9-abcdefg</text></g><g><rect class="commit-label-bkg" x="753.84375" y="228" width="49.4140625" height="15" transform="rotate(-45, 820.2578125, 240)"/><text x="758.84375" y="239" class="commit-label" transform="rotate(-45, 820.2578125, 240)">8-abcdefg</text></g><g><rect class="commit-label-bkg" x="634.87109375" y="328" width="49.4140625" height="15" transform="rotate(-45, 701.28515625, 340)"/><text x="639.87109375" y="339" class="commit-label" transform="rotate(-45, 701.28515625, 340)">7-abcdefg</text></g><g><rect class="commit-label-bkg" x="516.19921875" y="428" width="49.4140625" height="15" transform="rotate(-45, 582.61328125, 440)"/><text x="521.19921875" y="439" class="commit-label" transform="rotate(-45, 582.61328125, 440)">6-abcdefg</text></g><g><rect class="commit-label-bkg" x="397.2265625" y="528" width="49.4140625" height="15" transform="rotate(-45, 463.640625, 540)"/><text x="402.2265625" y="539" class="commit-label" transform="rotate(-45, 463.640625, 540)">5-abcdefg</text></g><g><rect class="commit-label-bkg" x="277.5546875" y="628" width="50.4140625" height="15" transform="rotate(-45, 344.96875, 640)"/><text x="282.5546875" y="639" class="commit-label" transform="rotate(-45, 344.96875, 640)">4-abcdefg</text></g><g><rect class="commit-label-bkg" x="159.8828125" y="728" width="49.4140625" height="15" transform="rotate(-45, 226.296875, 740)"/><text x="164.8828125" y="739" class="commit-label" transform="rotate(-45, 226.296875, 740)">3-abcdefg</text></g><g><rect class="commit-label-bkg" x="41.2109375" y="828" width="49.4140625" height="15" transform="rotate(-45, 107.625, 840)"/><text x="46.2109375" y="839" class="commit-label" transform="rotate(-45, 107.625, 840)">2-abcdefg</text></g><g><rect class="commit-label-bkg" x="-66.4140625" y="878" width="49.4140625" height="15" transform="rotate(-45, 0, 890)"/><text x="-61.4140625" y="889" class="commit-label" transform="rotate(-45, 0, 890)">1-abcdefg</text></g></g></svg>