<svg id="upstream_cypress_gitgraph_spec_12_should_render_commits_for_more_than_8_branches_015" width="100%" xmlns="http://www.w3.org/2000/svg" xmlns:xlink="http://www.w3.org/1999/xlink" style="max-width: 1026.9453125px; background-color: white;" viewBox="-118.9453125 -19 1026.9453125 896.6298828125" role="graphics-document document" aria-roledescription="gitGraph"><style>#upstream_cypress_gitgraph_spec_12_should_render_commits_for_more_than_8_branches_015{font-family:"trebuchet ms",verdana,arial,sans-serif;font-size:16px;fill:#333;}@keyframes edge-animation-frame{from{stroke-dashoffset:0;}}@keyframes dash{to{stroke-dashoffset:0;}}#upstream_cypress_gitgraph_spec_12_should_render_commits_for_more_than_8_branches_015 .edge-animation-slow{stroke-dasharray:9,5!important;stroke-dashoffset:900;animation:dash 50s linear infinite;stroke-linecap:round;}#upstream_cypress_gitgraph_spec_12_should_render_commits_for_more_than_8_branches_015 .edge-animation-fast{stroke-dasharray:9,5!important;stroke-dashoffset:900;animation:dash 20s linear infinite;stroke-linecap:round;}#upstream_cypress_gitgraph_spec_12_should_render_commits_for_more_than_8_branches_015 .error-icon{fill:#552222;}#upstream_cypress_gitgraph_spec_12_should_render_commits_for_more_than_8_branches_015 .error-text{fill:#552222;stroke:#552222;}#upstream_cypress_gitgraph_spec_12_should_render_commits_for_more_than_8_branches_015 .edge-thickness-normal{stroke-width:1px;}#upstream_cypress_gitgraph_spec_12_should_render_commits_for_more_than_8_branches_015 .edge-thickness-thick{stroke-width:3.5px;}#upstream_cypress_gitgraph_spec_12_should_render_commits_for_more_than_8_branches_015 .edge-pattern-solid{stroke-dasharray:0;}#upstream_cypress_gitgraph_spec_12_should_render_commits_for_more_than_8_branches_015 .edge-thickness-invisible{stroke-width:0;fill:none;}#upstream_cypress_gitgraph_spec_12_should_render_commits_for_more_than_8_branches_015 .edge-pattern-dashed{stroke-dasharray:3;}#upstream_cypress_gitgraph_spec_12_should_render_commits_for_more_than_8_branches_015 .edge-pattern-dotted{stroke-dasharray:2;}#upstream_cypress_gitgraph_spec_12_should_render_commits_for_more_than_8_branches_015 .marker{fill:#333333;stroke:#333333;}#upstream_cypress_gitgraph_spec_12_should_render_commits_for_more_than_8_branches_015 .marker.cross{stroke:#333333;}#upstream_cypress_gitgraph_spec_12_should_render_commits_for_more_than_8_branches_015 svg{font-family:"trebuchet ms",verdana,arial,sans-serif;font-size:16px;}#upstream_cypress_gitgraph_spec_12_should_render_commits_for_more_than_8_branches_015 p{margin:0;}#upstream_cypress_gitgraph_spec_12_should_render_commits_for_more_than_8_branches_015 .commit-id,#upstream_cypress_gitgraph_spec_12_should_render_commits_for_more_than_8_branches_015 .commit-msg,#upstream_cypress_gitgraph_spec_12_should_render_commits_for_more_than_8_branches_015 .branch-label{fill:lightgrey;color:lightgrey;font-family:'trebuchet ms',verdana,arial,sans-serif;font-family:var(--mermaid-font-family);}#upstream_cypress_gitgraph_spec_12_should_render_commits_for_more_than_8_branches_015 .branch-label0{fill:#ffffff;}#upstream_cypress_gitgraph_spec_12_should_render_commits_for_more_than_8_branches_015 .commit0{stroke:hsl(240, 100%, 46.2745098039%);fill:hsl(240, 100%, 46.2745098039%);}#upstream_cypress_gitgraph_spec_12_should_render_commits_for_more_than_8_branches_015 .commit-highlight0{stroke:hsl(60, 100%, 3.7254901961%);fill:hsl(60, 100%, 3.7254901961%);}#upstream_cypress_gitgraph_spec_12_should_render_commits_for_more_than_8_branches_015 .label0{fill:hsl(240, 100%, 46.2745098039%);}#upstream_cypress_gitgraph_spec_12_should_render_commits_for_more_than_8_branches_015 .arrow0{stroke:hsl(240, 100%, 46.2745098039%);}#upstream_cypress_gitgraph_spec_12_should_render_commits_for_more_than_8_branches_015 .branch-label1{fill:black;}#upstream_cypress_gitgraph_spec_12_should_render_commits_for_more_than_8_branches_015 .commit1{stroke:hsl(60, 100%, 43.5294117647%);fill:hsl(60, 100%, 43.5294117647%);}#upstream_cypress_gitgraph_spec_12_should_render_commits_for_more_than_8_branches_015 .commit-highlight1{stroke:rgb(0, 0, 160.5);fill:rgb(0, 0, 160.5);}#upstream_cypress_gitgraph_spec_12_should_render_commits_for_more_than_8_branches_015 .label1{fill:hsl(60, 100%, 43.5294117647%);}#upstream_cypress_gitgraph_spec_12_should_render_commits_for_more_than_8_branches_015 .arrow1{stroke:hsl(60, 100%, 43.5294117647%);}#upstream_cypress_gitgraph_spec_12_should_render_commits_for_more_than_8_branches_015 .branch-label2{fill:black;}#upstream_cypress_gitgraph_spec_12_should_render_commits_for_more_than_8_branches_015 .commit2{stroke:hsl(80, 100%, 46.2745098039%);fill:hsl(80, 100%, 46.2745098039%);}#upstream_cypress_gitgraph_spec_12_should_render_commits_for_more_than_8_branches_015 .commit-highlight2{stroke:rgb(48.8333333334, 0, 146.5000000001);fill:rgb(48.8333333334, 0, 146.5000000001);}#upstream_cypress_gitgraph_spec_12_should_render_commits_for_more_than_8_branches_015 .label2{fill:hsl(80, 100%, 46.2745098039%);}#upstream_cypress_gitgraph_spec_12_should_render_commits_for_more_than_8_branches_015 .arrow2{stroke:hsl(80, 100%, 46.2745098039%);}#upstream_cypress_gitgraph_spec_12_should_render_commits_for_more_than_8_branches_015 .branch-label3{fill:#ffffff;}#upstream_cypress_gitgraph_spec_12_should_render_commits_for_more_than_8_branches_015 .commit3{stroke:hsl(210, 100%, 46.2745098039%);fill:hsl(210, 100%, 46.2745098039%);}#upstream_cypress_gitgraph_spec_12_should_render_commits_for_more_than_8_branches_015 .commit-highlight3{stroke:rgb(146.5000000001, 73.2500000001, 0);fill:rgb(146.5000000001, 73.2500000001, 0);}#upstream_cypress_gitgraph_spec_12_should_render_commits_for_more_than_8_branches_015 .label3{fill:hsl(210, 100%, 46.2745098039%);}#upstream_cypress_gitgraph_spec_12_should_render_commits_for_more_than_8_branches_015 .arrow3{stroke:hsl(210, 100%, 46.2745098039%);}#upstream_cypress_gitgraph_spec_12_should_render_commits_for_more_than_8_branches_015 .branch-label4{fill:black;}#upstream_cypress_gitgraph_spec_12_should_render_commits_for_more_than_8_branches_015 .commit4{stroke:hsl(180, 100%, 46.2745098039%);fill:hsl(180, 100%, 46.2745098039%);}#upstream_cypress_gitgraph_spec_12_should_render_commits_for_more_than_8_branches_015 .commit-highlight4{stroke:rgb(146.5000000001, 0, 0);fill:rgb(146.5000000001, 0, 0);}#upstream_cypress_gitgraph_spec_12_should_render_commits_for_more_than_8_branches_015 .label4{fill:hsl(180, 100%, 46.2745098039%);}#upstream_cypress_gitgraph_spec_12_should_render_commits_for_more_than_8_branches_015 .arrow4{stroke:hsl(180, 100%, 46.2745098039%);}#upstream_cypress_gitgraph_spec_12_should_render_commits_for_more_than_8_branches_015 .branch-label5{fill:black;}#upstream_cypress_gitgraph_spec_12_should_render_commits_for_more_than_8_branches_015 .commit5{stroke:hsl(150, 100%, 46.2745098039%);fill:hsl(150, 100%, 46.2745098039%);}#upstream_cypress_gitgraph_spec_12_should_render_commits_for_more_than_8_branches_015 .commit-highlight5{stroke:rgb(146.5000000001, 0, 73.2500000001);fill:rgb(146.5000000001, 0, 73.2500000001);}#upstream_cypress_gitgraph_spec_12_should_render_commits_for_more_than_8_branches_015 .label5{fill:hsl(150, 100%, 46.2745098039%);}#upstream_cypress_gitgraph_spec_12_should_render_commits_for_more_than_8_branches_015 .arrow5{stroke:hsl(150, 100%, 46.2745098039%);}#upstream_cypress_gitgraph_spec_12_should_render_commits_for_more_than_8_branches_015 .branch-label6{fill:black;}#upstream_cypress_gitgraph_spec_12_should_render_commits_for_more_than_8_branches_015 .commit6{stroke:hsl(300, 100%, 46.2745098039%);fill:hsl(300, 100%, 46.2745098039%);}#upstream_cypress_gitgraph_spec_12_should_render_commits_for_more_than_8_branches_015 .commit-highlight6{stroke:rgb(0, 146.5000000001, 0);fill:rgb(0, 146.5000000001, 0);}#upstream_cypress_gitgraph_spec_12_should_render_commits_for_more_than_8_branches_015 .label6{fill:hsl(300, 100%, 46.2745098039%);}#upstream_cypress_gitgraph_spec_12_should_render_commits_for_more_than_8_branches_015 .arrow6{stroke:hsl(300, 100%, 46.2745098039%);}#upstream_cypress_gitgraph_spec_12_should_render_commits_for_more_than_8_branches_015 .branch-label7{fill:black;}#upstream_cypress_gitgraph_spec_12_should_render_commits_for_more_than_8_branches_015 .commit7{stroke:hsl(0, 100%, 46.2745098039%);fill:hsl(0, 100%, 46.2745098039%);}#upstream_cypress_gitgraph_spec_12_should_render_commits_for_more_than_8_branches_015 .commit-highlight7{stroke:rgb(0, 146.5000000001, 146.5000000001);fill:rgb(0, 146.5000000001, 146.5000000001);}#upstream_cypress_gitgraph_spec_12_should_render_commits_for_more_than_8_branches_015 .label7{fill:hsl(0, 100%, 46.2745098039%);}#upstream_cypress_gitgraph_spec_12_should_render_commits_for_more_than_8_branches_015 .arrow7{stroke:hsl(0, 100%, 46.2745098039%);}#upstream_cypress_gitgraph_spec_12_should_render_commits_for_more_than_8_branches_015 .branch{stroke-width:1;stroke:#333333;stroke-dasharray:2;}#upstream_cypress_gitgraph_spec_12_should_render_commits_for_more_than_8_branches_015 .commit-label{font-size:10px;fill:#000021;}#upstream_cypress_gitgraph_spec_12_should_render_commits_for_more_than_8_branches_015 .commit-label-bkg{font-size:10px;fill:#ffffde;opacity:0.5;}#upstream_cypress_gitgraph_spec_12_should_render_commits_for_more_than_8_branches_015 .tag-label{font-size:10px;fill:#131300;}#upstream_cypress_gitgraph_spec_12_should_render_commits_for_more_than_8_branches_015 .tag-label-bkg{fill:#ECECFF;stroke:hsl(240, 60%, 86.2745098039%);}#upstream_cypress_gitgraph_spec_12_should_render_commits_for_more_than_8_branches_015 .tag-hole{fill:#333;}#upstream_cypress_gitgraph_spec_12_should_render_commits_for_more_than_8_branches_015 .commit-merge{stroke:#ECECFF;fill:#ECECFF;}#upstream_cypress_gitgraph_spec_12_should_render_commits_for_more_than_8_branches_015 .commit-reverse{stroke:#ECECFF;fill:#ECECFF;stroke-width:3;}#upstream_cypress_gitgraph_spec_12_should_render_commits_for_more_than_8_branches_015 .commit-highlight-inner{stroke:#ECECFF;fill:#ECECFF;}#upstream_cypress_gitgraph_spec_12_should_render_commits_for_more_than_8_branches_015 .arrow{stroke-width:8;stroke-linecap:round;fill:none;}#upstream_cypress_gitgraph_spec_12_should_render_commits_for_more_than_8_branches_015 .gitTitleText{text-anchor:middle;font-size:18px;fill:#333;}#upstream_cypress_gitgraph_spec_12_should_render_commits_for_more_than_8_branches_015 :root{--mermaid-font-family:"trebuchet ms",verdana,arial,sans-serif;}</style><g/><g class="commit-bullets"/><g class="commit-labels"/><g><line x1="0" y1="0" x2="900" y2="0" class="branch branch0"/><rect class="branchLabelBkg label0" rx="4" ry="4" x="-69.25" y="-1.5" width="53.25" height="23" transform="translate(-19, -9.5)"/><g class="branchLabel"><g class="label branch-label0" transform="translate(-79.25, -10.5)"><text><tspan xml:space="preserve" dy="1em" x="0" class="row">main</tspan></text></g></g><line x1="0" y1="90" x2="900" y2="90" class="branch branch1"/><rect class="branchLabelBkg label1" rx="4" ry="4" x="-91.34375" y="-1.5" width="75.34375" height="23" transform="translate(-19, 80.5)"/><g class="branchLabel"><g class="label branch-label1" transform="translate(-101.34375, 79.5)"><text><tspan xml:space="preserve" dy="1em" x="0" class="row">branch1</tspan></text></g></g><line x1="0" y1="180" x2="900" y2="180" class="branch branch2"/><rect class="branchLabelBkg label2" rx="4" ry="4" x="-91.34375" y="-1.5" width="75.34375" height="23" transform="translate(-19, 170.5)"/><g class="branchLabel"><g class="label branch-label2" transform="translate(-101.34375, 169.5)"><text><tspan xml:space="preserve" dy="1em" x="0" class="row">branch2</tspan></text></g></g><line x1="0" y1="270" x2="900" y2="270" class="branch branch3"/><rect class="branchLabelBkg label3" rx="4" ry="4" x="-91.34375" y="-1.5" width="75.34375" height="23" transform="translate(-19, 260.5)"/><g class="branchLabel"><g class="label branch-label3" transform="translate(-101.34375, 259.5)"><text><tspan xml:space="preserve" dy="1em" x="0" class="row">branch3</tspan></text></g></g><line x1="0" y1="360" x2="900" y2="360" class="branch branch4"/><rect class="branchLabelBkg label4" rx="4" ry="4" x="-91.9453125" y="-1.5" width="75.9453125" height="23" transform="translate(-19, 350.5)"/><g class="branchLabel"><g class="label branch-label4" transform="translate(-101.9453125, 349.5)"><text><tspan xml:space="preserve" dy="1em" x="0" class="row">branch4</tspan></text></g></g><line x1="0" y1="450" x2="900" y2="450" class="branch branch5"/><rect class="branchLabelBkg label5" rx="4" ry="4" x="-91.34375" y="-1.5" width="75.34375" height="23" transform="translate(-19, 440.5)"/><g class="branchLabel"><g class="label branch-label5" transform="translate(-101.34375, 439.5)"><text><tspan xml:space="preserve" dy="1em" x="0" class="row">branch5</tspan></text></g></g><line x1="0" y1="540" x2="900" y2="540" class="branch branch6"/><rect class="branchLabelBkg label6" rx="4" ry="4" x="-91.9453125" y="-1.5" width="75.9453125" height="23" transform="translate(-19, 530.5)"/><g class="branchLabel"><g class="label branch-label6" transform="translate(-101.9453125, 529.5)"><text><tspan xml:space="preserve" dy="1em" x="0" class="row">branch6</tspan></text></g></g><line x1="0" y1="630" x2="900" y2="630" class="branch branch7"/><rect class="branchLabelBkg label7" rx="4" ry="4" x="-91.9453125" y="-1.5" width="75.9453125" height="23" transform="translate(-19, 620.5)"/><g class="branchLabel"><g class="label branch-label7" transform="translate(-101.9453125, 619.5)"><text><tspan xml:space="preserve" dy="1em" x="0" class="row">branch7</tspan></text></g></g><line x1="0" y1="720" x2="900" y2="720" class="branch branch0"/><rect class="branchLabelBkg label0" rx="4" ry="4" x="-91.9453125" y="-1.5" width="75.9453125" height="23" transform="translate(-19, 710.5)"/><g class="branchLabel"><g class="label branch-label0" transform="translate(-101.9453125, 709.5)"><text><tspan xml:space="preserve" dy="1em" x="0" class="row">branch8</tspan></text></g></g><line x1="0" y1="810" x2="900" y2="810" class="branch branch1"/><rect class="branchLabelBkg label1" rx="4" ry="4" x="-91.34375" y="-1.5" width="75.34375" height="23" transform="translate(-19, 800.5)"/><g class="branchLabel"><g class="label branch-label1" transform="translate(-101.34375, 799.5)"><text><tspan xml:space="preserve" dy="1em" x="0" class="row">branch9</tspan></text></g></g></g><g class="commit-arrows"><path d="M 10 0 L 10 70 A 20 20, 0, 0, 0, 30 90 L 60 90" class="arrow arrow1"/><path d="M 10 0 L 110 0" class="arrow arrow0"/><path d="M 60 90 L 90 90 A 20 20, 0, 0, 0, 110 70 L 110 0" class="arrow arrow1"/><path d="M 110 0 L 110 160 A 20 20, 0, 0, 0, 130 180 L 160 180" class="arrow arrow2"/><path d="M 110 0 L 210 0" class="arrow arrow0"/><path d="M 160 180 L 190 180 A 20 20, 0, 0, 0, 210 160 L 210 0" class="arrow arrow2"/><path d="M 210 0 L 210 250 A 20 20, 0, 0, 0, 230 270 L 260 270" class="arrow arrow3"/><path d="M 210 0 L 310 0" class="arrow arrow0"/><path d="M 260 270 L 290 270 A 20 20, 0, 0, 0, 310 250 L 310 0" class="arrow arrow3"/><path d="M 310 0 L 310 340 A 20 20, 0, 0, 0, 330 360 L 360 360" class="arrow arrow4"/><path d="M 310 0 L 410 0" class="arrow arrow0"/><path d="M 360 360 L 390 360 A 20 20, 0, 0, 0, 410 340 L 410 0" class="arrow arrow4"/><path d="M 410 0 L 410 430 A 20 20, 0, 0, 0, 430 450 L 460 450" class="arrow arrow5"/><path d="M 410 0 L 510 0" class="arrow arrow0"/><path d="M 460 450 L 490 450 A 20 20, 0, 0, 0, 510 430 L 510 0" class="arrow arrow5"/><path d="M 510 0 L 510 520 A 20 20, 0, 0, 0, 530 540 L 560 540" class="arrow arrow6"/><path d="M 510 0 L 610 0" class="arrow arrow0"/><path d="M 560 540 L 590 540 A 20 20, 0, 0, 0, 610 520 L 610 0" class="arrow arrow6"/><path d="M 610 0 L 610 610 A 20 20, 0, 0, 0, 630 630 L 660 630" class="arrow arrow7"/><path d="M 610 0 L 710 0" class="arrow arrow0"/><path d="M 660 630 L 690 630 A 20 20, 0, 0, 0, 710 610 L 710 0" class="arrow arrow7"/><path d="M 710 0 L 710 700 A 20 20, 0, 0, 0, 730 720 L 760 720" class="arrow arrow0"/><path d="M 710 0 L 810 0" class="arrow arrow0"/><path d="M 760 720 L 790 720 A 20 20, 0, 0, 0, 810 700 L 810 0" class="arrow arrow0"/><path d="M 810 0 L 810 790 A 20 20, 0, 0, 0, 830 810 L 860 810" class="arrow arrow1"/></g><g class="commit-bullets"><circle cx="10" cy="0" r="10" class="commit 1-abcdefg commit0"/><circle cx="60" cy="90" r="10" class="commit 2-abcdefg commit1"/><circle cx="110" cy="0" r="9" class="commit 2-8cc1c69 commit0"/><circle cx="110" cy="0" r="6" class="commit commit-merge 2-8cc1c69 commit0"/><circle cx="160" cy="180" r="10" class="commit 3-abcdefg commit2"/><circle cx="210" cy="0" r="9" class="commit 4-836fa85 commit0"/><circle cx="210" cy="0" r="6" class="commit commit-merge 4-836fa85 commit0"/><circle cx="260" cy="270" r="10" class="commit 4-abcdefg commit3"/><circle cx="310" cy="0" r="9" class="commit 6-20a99c9 commit0"/><circle cx="310" cy="0" r="6" class="commit commit-merge 6-20a99c9 commit0"/><circle cx="360" cy="360" r="10" class="commit 5-abcdefg commit4"/><circle cx="410" cy="0" r="9" class="commit 8-f84fbe2 commit0"/><circle cx="410" cy="0" r="6" class="commit commit-merge 8-f84fbe2 commit0"/><circle cx="460" cy="450" r="10" class="commit 6-abcdefg commit5"/><circle cx="510" cy="0" r="9" class="commit 10-8007ff3 commit0"/><circle cx="510" cy="0" r="6" class="commit commit-merge 10-8007ff3 commit0"/><circle cx="560" cy="540" r="10" class="commit 7-abcdefg commit6"/><circle cx="610" cy="0" r="9" class="commit 12-a3fc599 commit0"/><circle cx="610" cy="0" r="6" class="commit commit-merge 12-a3fc599 commit0"/><circle cx="660" cy="630" r="10" class="commit 8-abcdefg commit7"/><circle cx="710" cy="0" r="9" class="commit 14-d45d0aa commit0"/><circle cx="710" cy="0" r="6" class="commit commit-merge 14-d45d0aa commit0"/><circle cx="760" cy="720" r="10" class="commit 9-abcdefg commit0"/><circle cx="810" cy="0" r="9" class="commit 16-979244a commit0"/><circle cx="810" cy="0" r="6" class="commit commit-merge 16-979244a commit0"/><circle cx="860" cy="810" r="10" class="commit 10-abcdefg commit1"/></g><g class="commit-labels"><g transform="translate(-28.55734375, 25.44078125) rotate(-45, 0, 0)"><rect class="commit-label-bkg" x="-14.70703125" y="13.5" width="49.4140625" height="15"/><text x="-12.70703125" y="25" class="commit-label">1-abcdefg</text></g><g transform="translate(-28.55734375, 25.44078125) rotate(-45, 50, 90)"><rect class="commit-label-bkg" x="35.29296875" y="103.5" width="49.4140625" height="15"/><text x="37.29296875" y="115" class="commit-label">2-abcdefg</text></g><g transform="translate(-28.55734375, 25.44078125) rotate(-45, 150, 180)"><rect class="commit-label-bkg" x="135.29296875" y="193.5" width="49.4140625" height="15"/><text x="137.29296875" y="205" class="commit-label">3-abcdefg</text></g><g transform="translate(-28.937343749999997, 25.780781249999997) rotate(-45, 250, 270)"><rect class="commit-label-bkg" x="234.79296875" y="283.5" width="50.4140625" height="15"/><text x="236.79296875" y="295" class="commit-label">4-abcdefg</text></g><g transform="translate(-28.55734375, 25.44078125) rotate(-45, 350, 360)"><rect class="commit-label-bkg" x="335.29296875" y="373.5" width="49.4140625" height="15"/><text x="337.29296875" y="385" class="commit-label">5-abcdefg</text></g><g transform="translate(-28.55734375, 25.44078125) rotate(-45, 450, 450)"><rect class="commit-label-bkg" x="435.29296875" y="463.5" width="49.4140625" height="15"/><text x="437.29296875" y="475" class="commit-label">6-abcdefg</text></g><g transform="translate(-28.55734375, 25.44078125) rotate(-45, 550, 540)"><rect class="commit-label-bkg" x="535.29296875" y="553.5" width="49.4140625" height="15"/><text x="537.29296875" y="565" class="commit-label">7-abcdefg</text></g><g transform="translate(-28.55734375, 25.44078125) rotate(-45, 650, 630)"><rect class="commit-label-bkg" x="635.29296875" y="643.5" width="49.4140625" height="15"/><text x="637.29296875" y="655" class="commit-label">8-abcdefg</text></g><g transform="translate(-28.55734375, 25.44078125) rotate(-45, 750, 720)"><rect class="commit-label-bkg" x="735.29296875" y="733.5" width="49.4140625" height="15"/><text x="737.29296875" y="745" class="commit-label">9-abcdefg</text></g><g transform="translate(-30.5501171875, 27.2237890625) rotate(-45, 850, 810)"><rect class="commit-label-bkg" x="832.6708984375" y="823.5" width="54.658203125" height="15"/><text x="834.6708984375" y="835" class="commit-label">10-abcdefg</text></g></g></svg>