<svg id="upstream_docs_gitgraph_neutral_theme_054" width="100%" xmlns="http://www.w3.org/2000/svg" xmlns:xlink="http://www.w3.org/1999/xlink" style="max-width: 1032.078125px; background-color: white;" viewBox="-124.078125 -21.5 1032.078125 537.5078125" role="graphics-document document" aria-roledescription="gitGraph"><style>#upstream_docs_gitgraph_neutral_theme_054{font-family:"trebuchet ms",verdana,arial,sans-serif;font-size:16px;fill:#000000;}@keyframes edge-animation-frame{from{stroke-dashoffset:0;}}@keyframes dash{to{stroke-dashoffset:0;}}#upstream_docs_gitgraph_neutral_theme_054 .edge-animation-slow{stroke-dasharray:9,5!important;stroke-dashoffset:900;animation:dash 50s linear infinite;stroke-linecap:round;}#upstream_docs_gitgraph_neutral_theme_054 .edge-animation-fast{stroke-dasharray:9,5!important;stroke-dashoffset:900;animation:dash 20s linear infinite;stroke-linecap:round;}#upstream_docs_gitgraph_neutral_theme_054 .error-icon{fill:#552222;}#upstream_docs_gitgraph_neutral_theme_054 .error-text{fill:#552222;stroke:#552222;}#upstream_docs_gitgraph_neutral_theme_054 .edge-thickness-normal{stroke-width:1px;}#upstream_docs_gitgraph_neutral_theme_054 .edge-thickness-thick{stroke-width:3.5px;}#upstream_docs_gitgraph_neutral_theme_054 .edge-pattern-solid{stroke-dasharray:0;}#upstream_docs_gitgraph_neutral_theme_054 .edge-thickness-invisible{stroke-width:0;fill:none;}#upstream_docs_gitgraph_neutral_theme_054 .edge-pattern-dashed{stroke-dasharray:3;}#upstream_docs_gitgraph_neutral_theme_054 .edge-pattern-dotted{stroke-dasharray:2;}#upstream_docs_gitgraph_neutral_theme_054 .marker{fill:#666;stroke:#666;}#upstream_docs_gitgraph_neutral_theme_054 .marker.cross{stroke:#666;}#upstream_docs_gitgraph_neutral_theme_054 svg{font-family:"trebuchet ms",verdana,arial,sans-serif;font-size:16px;}#upstream_docs_gitgraph_neutral_theme_054 p{margin:0;}#upstream_docs_gitgraph_neutral_theme_054 .commit-id,#upstream_docs_gitgraph_neutral_theme_054 .commit-msg,#upstream_docs_gitgraph_neutral_theme_054 .branch-label{fill:lightgrey;color:lightgrey;font-family:'trebuchet ms',verdana,arial,sans-serif;font-family:var(--mermaid-font-family);}#upstream_docs_gitgraph_neutral_theme_054 .branch-label0{fill:#333;}#upstream_docs_gitgraph_neutral_theme_054 .commit0{stroke:hsl(0, 0%, 70.6862745098%);fill:hsl(0, 0%, 70.6862745098%);}#upstream_docs_gitgraph_neutral_theme_054 .commit-highlight0{stroke:rgb(74.75, 74.75, 74.75);fill:rgb(74.75, 74.75, 74.75);}#upstream_docs_gitgraph_neutral_theme_054 .label0{fill:hsl(0, 0%, 70.6862745098%);}#upstream_docs_gitgraph_neutral_theme_054 .arrow0{stroke:hsl(0, 0%, 70.6862745098%);}#upstream_docs_gitgraph_neutral_theme_054 .branch-label1{fill:white;}#upstream_docs_gitgraph_neutral_theme_054 .commit1{stroke:#555;fill:#555;}#upstream_docs_gitgraph_neutral_theme_054 .commit-highlight1{stroke:#aaaaaa;fill:#aaaaaa;}#upstream_docs_gitgraph_neutral_theme_054 .label1{fill:#555;}#upstream_docs_gitgraph_neutral_theme_054 .arrow1{stroke:#555;}#upstream_docs_gitgraph_neutral_theme_054 .branch-label2{fill:#333;}#upstream_docs_gitgraph_neutral_theme_054 .commit2{stroke:#BBB;fill:#BBB;}#upstream_docs_gitgraph_neutral_theme_054 .commit-highlight2{stroke:#444444;fill:#444444;}#upstream_docs_gitgraph_neutral_theme_054 .label2{fill:#BBB;}#upstream_docs_gitgraph_neutral_theme_054 .arrow2{stroke:#BBB;}#upstream_docs_gitgraph_neutral_theme_054 .branch-label3{fill:white;}#upstream_docs_gitgraph_neutral_theme_054 .commit3{stroke:#777;fill:#777;}#upstream_docs_gitgraph_neutral_theme_054 .commit-highlight3{stroke:#888888;fill:#888888;}#upstream_docs_gitgraph_neutral_theme_054 .label3{fill:#777;}#upstream_docs_gitgraph_neutral_theme_054 .arrow3{stroke:#777;}#upstream_docs_gitgraph_neutral_theme_054 .branch-label4{fill:#333;}#upstream_docs_gitgraph_neutral_theme_054 .commit4{stroke:#999;fill:#999;}#upstream_docs_gitgraph_neutral_theme_054 .commit-highlight4{stroke:#666666;fill:#666666;}#upstream_docs_gitgraph_neutral_theme_054 .label4{fill:#999;}#upstream_docs_gitgraph_neutral_theme_054 .arrow4{stroke:#999;}#upstream_docs_gitgraph_neutral_theme_054 .branch-label5{fill:#333;}#upstream_docs_gitgraph_neutral_theme_054 .commit5{stroke:#DDD;fill:#DDD;}#upstream_docs_gitgraph_neutral_theme_054 .commit-highlight5{stroke:#222222;fill:#222222;}#upstream_docs_gitgraph_neutral_theme_054 .label5{fill:#DDD;}#upstream_docs_gitgraph_neutral_theme_054 .arrow5{stroke:#DDD;}#upstream_docs_gitgraph_neutral_theme_054 .branch-label6{fill:#333;}#upstream_docs_gitgraph_neutral_theme_054 .commit6{stroke:#FFF;fill:#FFF;}#upstream_docs_gitgraph_neutral_theme_054 .commit-highlight6{stroke:#000000;fill:#000000;}#upstream_docs_gitgraph_neutral_theme_054 .label6{fill:#FFF;}#upstream_docs_gitgraph_neutral_theme_054 .arrow6{stroke:#FFF;}#upstream_docs_gitgraph_neutral_theme_054 .branch-label7{fill:#333;}#upstream_docs_gitgraph_neutral_theme_054 .commit7{stroke:#DDD;fill:#DDD;}#upstream_docs_gitgraph_neutral_theme_054 .commit-highlight7{stroke:#222222;fill:#222222;}#upstream_docs_gitgraph_neutral_theme_054 .label7{fill:#DDD;}#upstream_docs_gitgraph_neutral_theme_054 .arrow7{stroke:#DDD;}#upstream_docs_gitgraph_neutral_theme_054 .branch-label8{fill:#333;}#upstream_docs_gitgraph_neutral_theme_054 .commit8{stroke:hsl(0, 0%, 70.6862745098%);fill:hsl(0, 0%, 70.6862745098%);}#upstream_docs_gitgraph_neutral_theme_054 .commit-highlight8{stroke:rgb(74.75, 74.75, 74.75);fill:rgb(74.75, 74.75, 74.75);}#upstream_docs_gitgraph_neutral_theme_054 .label8{fill:hsl(0, 0%, 70.6862745098%);}#upstream_docs_gitgraph_neutral_theme_054 .arrow8{stroke:hsl(0, 0%, 70.6862745098%);}#upstream_docs_gitgraph_neutral_theme_054 .branch-label9{fill:white;}#upstream_docs_gitgraph_neutral_theme_054 .commit9{stroke:#555;fill:#555;}#upstream_docs_gitgraph_neutral_theme_054 .commit-highlight9{stroke:#aaaaaa;fill:#aaaaaa;}#upstream_docs_gitgraph_neutral_theme_054 .label9{fill:#555;}#upstream_docs_gitgraph_neutral_theme_054 .arrow9{stroke:#555;}#upstream_docs_gitgraph_neutral_theme_054 .branch-label10{fill:#333;}#upstream_docs_gitgraph_neutral_theme_054 .commit10{stroke:#BBB;fill:#BBB;}#upstream_docs_gitgraph_neutral_theme_054 .commit-highlight10{stroke:#444444;fill:#444444;}#upstream_docs_gitgraph_neutral_theme_054 .label10{fill:#BBB;}#upstream_docs_gitgraph_neutral_theme_054 .arrow10{stroke:#BBB;}#upstream_docs_gitgraph_neutral_theme_054 .branch-label11{fill:white;}#upstream_docs_gitgraph_neutral_theme_054 .commit11{stroke:#777;fill:#777;}#upstream_docs_gitgraph_neutral_theme_054 .commit-highlight11{stroke:#888888;fill:#888888;}#upstream_docs_gitgraph_neutral_theme_054 .label11{fill:#777;}#upstream_docs_gitgraph_neutral_theme_054 .arrow11{stroke:#777;}#upstream_docs_gitgraph_neutral_theme_054 .branch{stroke-width:1;stroke:#666;stroke-dasharray:2;}#upstream_docs_gitgraph_neutral_theme_054 .commit-label{font-size:10px;fill:rgb(2.7499999999, 2.7499999999, 2.7499999999);}#upstream_docs_gitgraph_neutral_theme_054 .commit-label-bkg{font-size:10px;fill:hsl(0, 0%, 98.9215686275%);opacity:0.5;}#upstream_docs_gitgraph_neutral_theme_054 .tag-label{font-size:10px;fill:#111111;}#upstream_docs_gitgraph_neutral_theme_054 .tag-label-bkg{fill:#eee;stroke:hsl(0, 0%, 83.3333333333%);}#upstream_docs_gitgraph_neutral_theme_054 .tag-hole{fill:#000000;}#upstream_docs_gitgraph_neutral_theme_054 .commit-merge{stroke:#eee;fill:#eee;}#upstream_docs_gitgraph_neutral_theme_054 .commit-reverse{stroke:#eee;fill:#eee;stroke-width:3;}#upstream_docs_gitgraph_neutral_theme_054 .commit-highlight-inner{stroke:#eee;fill:#eee;}#upstream_docs_gitgraph_neutral_theme_054 .arrow{stroke-width:8;stroke-linecap:round;fill:none;}#upstream_docs_gitgraph_neutral_theme_054 .gitTitleText{text-anchor:middle;font-size:18px;fill:#000000;}#upstream_docs_gitgraph_neutral_theme_054 .node .neo-node{stroke:#999;}#upstream_docs_gitgraph_neutral_theme_054 [data-look="neo"].node rect,#upstream_docs_gitgraph_neutral_theme_054 [data-look="neo"].cluster rect,#upstream_docs_gitgraph_neutral_theme_054 [data-look="neo"].node polygon{stroke:url(#upstream_docs_gitgraph_neutral_theme_054-gradient);filter:drop-shadow( 1px 2px 2px rgba(185,185,185,1));}#upstream_docs_gitgraph_neutral_theme_054 [data-look="neo"].swimlane.cluster rect{filter:none;}#upstream_docs_gitgraph_neutral_theme_054 [data-look="neo"].node path{stroke:url(#upstream_docs_gitgraph_neutral_theme_054-gradient);stroke-width:1px;}#upstream_docs_gitgraph_neutral_theme_054 [data-look="neo"].node .outer-path{filter:drop-shadow( 1px 2px 2px rgba(185,185,185,1));}#upstream_docs_gitgraph_neutral_theme_054 [data-look="neo"].node .neo-line path{stroke:#999;filter:none;}#upstream_docs_gitgraph_neutral_theme_054 [data-look="neo"].node circle{stroke:url(#upstream_docs_gitgraph_neutral_theme_054-gradient);filter:drop-shadow( 1px 2px 2px rgba(185,185,185,1));}#upstream_docs_gitgraph_neutral_theme_054 [data-look="neo"].node circle .state-start{fill:#000000;}#upstream_docs_gitgraph_neutral_theme_054 [data-look="neo"].icon-shape .icon{fill:url(#upstream_docs_gitgraph_neutral_theme_054-gradient);filter:drop-shadow( 1px 2px 2px rgba(185,185,185,1));}#upstream_docs_gitgraph_neutral_theme_054 [data-look="neo"].icon-shape .icon-neo path{stroke:url(#upstream_docs_gitgraph_neutral_theme_054-gradient);filter:drop-shadow( 1px 2px 2px rgba(185,185,185,1));}#upstream_docs_gitgraph_neutral_theme_054 :root{--mermaid-font-family:"trebuchet ms",verdana,arial,sans-serif;}</style><g/><defs><linearGradient id="upstream_docs_gitgraph_neutral_theme_054-gradient" gradientUnits="objectBoundingBox" x1="0%" y1="0%" x2="100%" y2="0%"><stop offset="0%" stop-color="hsl(0, 0%, 83.3333333333%)" stop-opacity="1"/><stop offset="100%" stop-color="hsl(0, 0%, 88.9215686275%)" stop-opacity="1"/></linearGradient></defs><g class="commit-bullets"/><g class="commit-labels"/><g><line x1="0" y1="-2" x2="900" y2="-2" class="branch branch0"/><rect class="branchLabelBkg label0" style="" rx="4" ry="4" x="-69.25" y="0.5" width="53.25" height="23" transform="translate(-19, -14)"/><g class="branchLabel"><g class="label branch-label0" transform="translate(-79.25, -13.5)"><text><tspan xml:space="preserve" dy="1em" x="0" class="row">main</tspan></text></g></g><line x1="0" y1="88" x2="900" y2="88" class="branch branch1"/><rect class="branchLabelBkg label1" style="" rx="4" ry="4" x="-77.1484375" y="0.5" width="61.1484375" height="23" transform="translate(-19, 76)"/><g class="branchLabel"><g class="label branch-label1" transform="translate(-87.1484375, 76.5)"><text><tspan xml:space="preserve" dy="1em" x="0" class="row">hotfix</tspan></text></g></g><line x1="0" y1="178" x2="900" y2="178" class="branch branch2"/><rect class="branchLabelBkg label2" style="" rx="4" ry="4" x="-90.5078125" y="0.5" width="74.5078125" height="23" transform="translate(-19, 166)"/><g class="branchLabel"><g class="label branch-label2" transform="translate(-100.5078125, 166.5)"><text><tspan xml:space="preserve" dy="1em" x="0" class="row">develop</tspan></text></g></g><line x1="0" y1="268" x2="900" y2="268" class="branch branch3"/><rect class="branchLabelBkg label3" style="" rx="4" ry="4" x="-96.140625" y="0.5" width="80.140625" height="23" transform="translate(-19, 256)"/><g class="branchLabel"><g class="label branch-label3" transform="translate(-106.140625, 256.5)"><text><tspan xml:space="preserve" dy="1em" x="0" class="row">featureB</tspan></text></g></g><line x1="0" y1="358" x2="900" y2="358" class="branch branch4"/><rect class="branchLabelBkg label4" style="" rx="4" ry="4" x="-97.078125" y="0.5" width="81.078125" height="23" transform="translate(-19, 346)"/><g class="branchLabel"><g class="label branch-label4" transform="translate(-107.078125, 346.5)"><text><tspan xml:space="preserve" dy="1em" x="0" class="row">featureA</tspan></text></g></g><line x1="0" y1="448" x2="900" y2="448" class="branch branch5"/><rect class="branchLabelBkg label5" style="" rx="4" ry="4" x="-86.2734375" y="0.5" width="70.2734375" height="23" transform="translate(-19, 436)"/><g class="branchLabel"><g class="label branch-label5" transform="translate(-96.2734375, 436.5)"><text><tspan xml:space="preserve" dy="1em" x="0" class="row">release</tspan></text></g></g></g><g class="commit-arrows"><path d="M 10 -2 L 10 68 A 20 20, 0, 0, 0, 30 88 L 60 88" class="arrow arrow1"/><path d="M 60 88 L 60 158 A 20 20, 0, 0, 0, 80 178 L 110 178" class="arrow arrow2"/><path d="M 110 178 L 110 248 A 20 20, 0, 0, 0, 130 268 L 160 268" class="arrow arrow3"/><path d="M 60 88 L 210 88" class="arrow arrow1"/><path d="M 110 178 L 260 178" class="arrow arrow2"/><path d="M 160 268 L 310 268" class="arrow arrow3"/><path d="M 10 -2 L 360 -2" class="arrow arrow0"/><path d="M 210 88 L 340 88 A 20 20, 0, 0, 0, 360 68 L 360 -2" class="arrow arrow1"/><path d="M 310 268 L 410 268" class="arrow arrow3"/><path d="M 260 178 L 260 338 A 20 20, 0, 0, 0, 280 358 L 460 358" class="arrow arrow4"/><path d="M 260 178 L 510 178" class="arrow arrow2"/><path d="M 210 88 L 210 123 A 10 10, 0, 0, 0, 220 133 L 500 133 A 10 10, 0, 0, 1, 510 143 L 510 178" class="arrow arrow1"/><path d="M 460 358 L 560 358" class="arrow arrow4"/><path d="M 410 268 L 610 268" class="arrow arrow3"/><path d="M 510 178 L 660 178" class="arrow arrow2"/><path d="M 560 358 L 640 358 A 20 20, 0, 0, 0, 660 338 L 660 178" class="arrow arrow4"/><path d="M 660 178 L 660 428 A 20 20, 0, 0, 0, 680 448 L 710 448" class="arrow arrow5"/><path d="M 360 -2 L 760 -2" class="arrow arrow0"/><path d="M 710 448 L 810 448" class="arrow arrow5"/><path d="M 760 -2 L 790 -2 A 20 20, 0, 0, 1, 810 18 L 810 448" class="arrow arrow0"/><path d="M 660 178 L 860 178" class="arrow arrow2"/><path d="M 810 448 L 840 448 A 20 20, 0, 0, 0, 860 428 L 860 178" class="arrow arrow5"/></g><g class="commit-bullets"><circle cx="10" cy="-2" r="10" class="commit 0-e9fa3f5 commit0"/><circle cx="60" cy="88" r="10" class="commit 1-8efa2cc commit1"/><circle cx="110" cy="178" r="10" class="commit ash commit2"/><rect x="150" y="258" width="20" height="20" class="commit 3-52107fc commit-highlight3 commit-highlight-outer"/><rect x="154" y="262" width="12" height="12" class="commit 3-52107fc commit3 commit-highlight-inner"/><circle cx="210" cy="88" r="10" class="commit 4-d5b8715 commit1"/><circle cx="260" cy="178" r="10" class="commit 5-8052030 commit2"/><path d="M 255,173L265,183M255,183L265,173" class="commit commit-reverse 5-8052030 commit2"/><circle cx="310" cy="268" r="10" class="commit 6-ac03ce8 commit3"/><circle cx="360" cy="-2" r="10" class="commit 7-b1254ce commit0"/><circle cx="360" cy="-2" r="6" class="commit commit-merge 7-b1254ce commit0"/><circle cx="410" cy="268" r="10" class="commit 8-536ebff commit3"/><circle cx="460" cy="358" r="10" class="commit 9-a27ca7a commit4"/><circle cx="510" cy="178" r="10" class="commit 10-acbf355 commit2"/><circle cx="510" cy="178" r="6" class="commit commit-merge 10-acbf355 commit2"/><circle cx="560" cy="358" r="10" class="commit 11-65a624c commit4"/><circle cx="610" cy="268" r="10" class="commit 12-7f4cafd commit3"/><circle cx="660" cy="178" r="10" class="commit 13-5e9ab82 commit2"/><circle cx="660" cy="178" r="6" class="commit commit-merge 13-5e9ab82 commit2"/><circle cx="710" cy="448" r="10" class="commit 14-7b47433 commit5"/><circle cx="760" cy="-2" r="10" class="commit 15-79b10b6 commit0"/><circle cx="810" cy="448" r="10" class="commit 16-99aff99 commit5"/><circle cx="810" cy="448" r="6" class="commit commit-merge 16-99aff99 commit5"/><circle cx="860" cy="178" r="10" class="commit 17-57a6683 commit2"/><circle cx="860" cy="178" r="6" class="commit commit-merge 17-57a6683 commit2"/></g><g class="commit-labels"><g transform="translate(-27.544999999999998, 24.535) rotate(-45, 0, -2)"><rect class="commit-label-bkg" x="-13.375" y="11.5" width="46.75" height="15"/><text x="-11.375" y="23" class="commit-label">0-e9fa3f5</text></g><g transform="translate(-27.9287109375, 24.8783203125) rotate(-45, 50, 88)"><rect class="commit-label-bkg" x="36.1201171875" y="101.5" width="47.759765625" height="15"/><text x="38.1201171875" y="113" class="commit-label">1-8efa2cc</text></g><g transform="translate(-17.11466796875, 15.20259765625) rotate(-45, 100, 178)"><rect class="commit-label-bkg" x="100.34912109375" y="191.5" width="19.3017578125" height="15"/><text x="102.34912109375" y="203" class="commit-label">ash</text></g><polygon class="tag-label-bkg" points="90.08740234375,160.8  &#10;      90.08740234375,156.8&#10;      98.08740234375,151.3&#10;      121.91259765625,151.3&#10;      121.91259765625,166.3&#10;      98.08740234375,166.3"/><circle cy="158.8" cx="94.08740234375" r="1.5" class="tag-hole"/><text y="162" class="tag-label" x="102.08740234375">abc</text><g transform="translate(-27.95654296875, 24.90322265625) rotate(-45, 150, 268)"><rect class="commit-label-bkg" x="136.08349609375" y="281.5" width="47.8330078125" height="15"/><text x="138.08349609375" y="293" class="commit-label">3-52107fc</text></g><g transform="translate(-29.266875, 26.075625000000002) rotate(-45, 200, 88)"><rect class="commit-label-bkg" x="184.359375" y="101.5" width="51.28125" height="15"/><text x="186.359375" y="113" class="commit-label">4-d5b8715</text></g><g transform="translate(-28.924726562500002, 25.7694921875) rotate(-45, 250, 178)"><rect class="commit-label-bkg" x="234.8095703125" y="191.5" width="50.380859375" height="15"/><text x="236.8095703125" y="203" class="commit-label">5-8052030</text></g><g transform="translate(-28.785566406250002, 25.64498046875) rotate(-45, 300, 268)"><rect class="commit-label-bkg" x="284.99267578125" y="281.5" width="50.0146484375" height="15"/><text x="286.99267578125" y="293" class="commit-label">6-ac03ce8</text></g><g transform="translate(-28.16064453125, 25.08583984375) rotate(-45, 400, 268)"><rect class="commit-label-bkg" x="385.81494140625" y="281.5" width="48.3701171875" height="15"/><text x="387.81494140625" y="293" class="commit-label">8-536ebff</text></g><g transform="translate(-28.820820312499997, 25.676523437500002) rotate(-45, 450, 358)"><rect class="commit-label-bkg" x="434.9462890625" y="371.5" width="50.107421875" height="15"/><text x="436.9462890625" y="383" class="commit-label">9-a27ca7a</text></g><g transform="translate(-30.5412109375, 27.2158203125) rotate(-45, 550, 358)"><rect class="commit-label-bkg" x="532.6826171875" y="371.5" width="54.634765625" height="15"/><text x="534.6826171875" y="383" class="commit-label">11-65a624c</text></g><g transform="translate(-29.633515625, 26.403671875) rotate(-45, 600, 268)"><rect class="commit-label-bkg" x="583.876953125" y="281.5" width="52.24609375" height="15"/><text x="585.876953125" y="293" class="commit-label">12-7f4cafd</text></g><g transform="translate(-30.7571875, 27.4090625) rotate(-45, 700, 448)"><rect class="commit-label-bkg" x="682.3984375" y="461.5" width="55.203125" height="15"/><text x="684.3984375" y="473" class="commit-label">14-7b47433</text></g><g transform="translate(-31.1661328125, 27.7749609375) rotate(-45, 750, -2)"><rect class="commit-label-bkg" x="731.8603515625" y="11.5" width="56.279296875" height="15"/><text x="733.8603515625" y="23" class="commit-label">15-79b10b6</text></g></g></svg>