<svg id="zed_pr_57644_gitgraph" width="100%" xmlns="http://www.w3.org/2000/svg" xmlns:xlink="http://www.w3.org/1999/xlink" style="max-width: 845.3359375px; background-color: white;" viewBox="-187.3359375 -34.70000076293945 845.3359375 370.6163024902344" role="graphics-document document" aria-roledescription="gitGraph"><style>#zed_pr_57644_gitgraph{font-family:"trebuchet ms",verdana,arial,sans-serif;font-size:16px;fill:#333;}@keyframes edge-animation-frame{from{stroke-dashoffset:0;}}@keyframes dash{to{stroke-dashoffset:0;}}#zed_pr_57644_gitgraph .edge-animation-slow{stroke-dasharray:9,5!important;stroke-dashoffset:900;animation:dash 50s linear infinite;stroke-linecap:round;}#zed_pr_57644_gitgraph .edge-animation-fast{stroke-dasharray:9,5!important;stroke-dashoffset:900;animation:dash 20s linear infinite;stroke-linecap:round;}#zed_pr_57644_gitgraph .error-icon{fill:#552222;}#zed_pr_57644_gitgraph .error-text{fill:#552222;stroke:#552222;}#zed_pr_57644_gitgraph .edge-thickness-normal{stroke-width:1px;}#zed_pr_57644_gitgraph .edge-thickness-thick{stroke-width:3.5px;}#zed_pr_57644_gitgraph .edge-pattern-solid{stroke-dasharray:0;}#zed_pr_57644_gitgraph .edge-thickness-invisible{stroke-width:0;fill:none;}#zed_pr_57644_gitgraph .edge-pattern-dashed{stroke-dasharray:3;}#zed_pr_57644_gitgraph .edge-pattern-dotted{stroke-dasharray:2;}#zed_pr_57644_gitgraph .marker{fill:#333333;stroke:#333333;}#zed_pr_57644_gitgraph .marker.cross{stroke:#333333;}#zed_pr_57644_gitgraph svg{font-family:"trebuchet ms",verdana,arial,sans-serif;font-size:16px;}#zed_pr_57644_gitgraph p{margin:0;}#zed_pr_57644_gitgraph .commit-id,#zed_pr_57644_gitgraph .commit-msg,#zed_pr_57644_gitgraph .branch-label{fill:lightgrey;color:lightgrey;font-family:'trebuchet ms',verdana,arial,sans-serif;font-family:var(--mermaid-font-family);}#zed_pr_57644_gitgraph .branch-label0{fill:#ffffff;}#zed_pr_57644_gitgraph .commit0{stroke:hsl(240, 100%, 46.2745098039%);fill:hsl(240, 100%, 46.2745098039%);}#zed_pr_57644_gitgraph .commit-highlight0{stroke:hsl(60, 100%, 3.7254901961%);fill:hsl(60, 100%, 3.7254901961%);}#zed_pr_57644_gitgraph .label0{fill:hsl(240, 100%, 46.2745098039%);}#zed_pr_57644_gitgraph .arrow0{stroke:hsl(240, 100%, 46.2745098039%);}#zed_pr_57644_gitgraph .branch-label1{fill:black;}#zed_pr_57644_gitgraph .commit1{stroke:hsl(60, 100%, 43.5294117647%);fill:hsl(60, 100%, 43.5294117647%);}#zed_pr_57644_gitgraph .commit-highlight1{stroke:rgb(0, 0, 160.5);fill:rgb(0, 0, 160.5);}#zed_pr_57644_gitgraph .label1{fill:hsl(60, 100%, 43.5294117647%);}#zed_pr_57644_gitgraph .arrow1{stroke:hsl(60, 100%, 43.5294117647%);}#zed_pr_57644_gitgraph .branch-label2{fill:black;}#zed_pr_57644_gitgraph .commit2{stroke:hsl(80, 100%, 46.2745098039%);fill:hsl(80, 100%, 46.2745098039%);}#zed_pr_57644_gitgraph .commit-highlight2{stroke:rgb(48.8333333334, 0, 146.5000000001);fill:rgb(48.8333333334, 0, 146.5000000001);}#zed_pr_57644_gitgraph .label2{fill:hsl(80, 100%, 46.2745098039%);}#zed_pr_57644_gitgraph .arrow2{stroke:hsl(80, 100%, 46.2745098039%);}#zed_pr_57644_gitgraph .branch-label3{fill:#ffffff;}#zed_pr_57644_gitgraph .commit3{stroke:hsl(210, 100%, 46.2745098039%);fill:hsl(210, 100%, 46.2745098039%);}#zed_pr_57644_gitgraph .commit-highlight3{stroke:rgb(146.5000000001, 73.2500000001, 0);fill:rgb(146.5000000001, 73.2500000001, 0);}#zed_pr_57644_gitgraph .label3{fill:hsl(210, 100%, 46.2745098039%);}#zed_pr_57644_gitgraph .arrow3{stroke:hsl(210, 100%, 46.2745098039%);}#zed_pr_57644_gitgraph .branch-label4{fill:black;}#zed_pr_57644_gitgraph .commit4{stroke:hsl(180, 100%, 46.2745098039%);fill:hsl(180, 100%, 46.2745098039%);}#zed_pr_57644_gitgraph .commit-highlight4{stroke:rgb(146.5000000001, 0, 0);fill:rgb(146.5000000001, 0, 0);}#zed_pr_57644_gitgraph .label4{fill:hsl(180, 100%, 46.2745098039%);}#zed_pr_57644_gitgraph .arrow4{stroke:hsl(180, 100%, 46.2745098039%);}#zed_pr_57644_gitgraph .branch-label5{fill:black;}#zed_pr_57644_gitgraph .commit5{stroke:hsl(150, 100%, 46.2745098039%);fill:hsl(150, 100%, 46.2745098039%);}#zed_pr_57644_gitgraph .commit-highlight5{stroke:rgb(146.5000000001, 0, 73.2500000001);fill:rgb(146.5000000001, 0, 73.2500000001);}#zed_pr_57644_gitgraph .label5{fill:hsl(150, 100%, 46.2745098039%);}#zed_pr_57644_gitgraph .arrow5{stroke:hsl(150, 100%, 46.2745098039%);}#zed_pr_57644_gitgraph .branch-label6{fill:black;}#zed_pr_57644_gitgraph .commit6{stroke:hsl(300, 100%, 46.2745098039%);fill:hsl(300, 100%, 46.2745098039%);}#zed_pr_57644_gitgraph .commit-highlight6{stroke:rgb(0, 146.5000000001, 0);fill:rgb(0, 146.5000000001, 0);}#zed_pr_57644_gitgraph .label6{fill:hsl(300, 100%, 46.2745098039%);}#zed_pr_57644_gitgraph .arrow6{stroke:hsl(300, 100%, 46.2745098039%);}#zed_pr_57644_gitgraph .branch-label7{fill:black;}#zed_pr_57644_gitgraph .commit7{stroke:hsl(0, 100%, 46.2745098039%);fill:hsl(0, 100%, 46.2745098039%);}#zed_pr_57644_gitgraph .commit-highlight7{stroke:rgb(0, 146.5000000001, 146.5000000001);fill:rgb(0, 146.5000000001, 146.5000000001);}#zed_pr_57644_gitgraph .label7{fill:hsl(0, 100%, 46.2745098039%);}#zed_pr_57644_gitgraph .arrow7{stroke:hsl(0, 100%, 46.2745098039%);}#zed_pr_57644_gitgraph .branch{stroke-width:1;stroke:#333333;stroke-dasharray:2;}#zed_pr_57644_gitgraph .commit-label{font-size:10px;fill:#000021;}#zed_pr_57644_gitgraph .commit-label-bkg{font-size:10px;fill:#ffffde;opacity:0.5;}#zed_pr_57644_gitgraph .tag-label{font-size:10px;fill:#131300;}#zed_pr_57644_gitgraph .tag-label-bkg{fill:#ECECFF;stroke:hsl(240, 60%, 86.2745098039%);}#zed_pr_57644_gitgraph .tag-hole{fill:#333;}#zed_pr_57644_gitgraph .commit-merge{stroke:#ECECFF;fill:#ECECFF;}#zed_pr_57644_gitgraph .commit-reverse{stroke:#ECECFF;fill:#ECECFF;stroke-width:3;}#zed_pr_57644_gitgraph .commit-highlight-inner{stroke:#ECECFF;fill:#ECECFF;}#zed_pr_57644_gitgraph .arrow{stroke-width:8;stroke-linecap:round;fill:none;}#zed_pr_57644_gitgraph .gitTitleText{text-anchor:middle;font-size:18px;fill:#333;}#zed_pr_57644_gitgraph :root{--mermaid-font-family:"trebuchet ms",verdana,arial,sans-serif;}</style><g/><g class="commit-bullets"/><g class="commit-labels"/><g><line x1="0" y1="0" x2="650" y2="0" class="branch branch0"/><rect class="branchLabelBkg label0" rx="4" ry="4" x="-69.25" y="-1.5" width="53.25" height="23" transform="translate(-19, -9.5)"/><g class="branchLabel"><g class="label branch-label0" transform="translate(-79.25, -10.5)"><text><tspan xml:space="preserve" dy="1em" x="0" class="row">main</tspan></text></g></g><line x1="0" y1="90" x2="650" y2="90" class="branch branch1"/><rect class="branchLabelBkg label1" rx="4" ry="4" x="-127.9609375" y="-1.5" width="111.9609375" height="23" transform="translate(-19, 80.5)"/><g class="branchLabel"><g class="label branch-label1" transform="translate(-137.9609375, 79.5)"><text><tspan xml:space="preserve" dy="1em" x="0" class="row">feature/auth</tspan></text></g></g><line x1="0" y1="180" x2="650" y2="180" class="branch branch2"/><rect class="branchLabelBkg label2" rx="4" ry="4" x="-160.3359375" y="-1.5" width="144.3359375" height="23" transform="translate(-19, 170.5)"/><g class="branchLabel"><g class="label branch-label2" transform="translate(-170.3359375, 169.5)"><text><tspan xml:space="preserve" dy="1em" x="0" class="row">feature/database</tspan></text></g></g><line x1="0" y1="270" x2="650" y2="270" class="branch branch3"/><rect class="branchLabelBkg label3" rx="4" ry="4" x="-142.546875" y="-1.5" width="126.546875" height="23" transform="translate(-19, 260.5)"/><g class="branchLabel"><g class="label branch-label3" transform="translate(-152.546875, 259.5)"><text><tspan xml:space="preserve" dy="1em" x="0" class="row">hotfix/security</tspan></text></g></g></g><g class="commit-arrows"><path d="M 10 0 L 60 0" class="arrow arrow0"/><path d="M 60 0 L 60 70 A 20 20, 0, 0, 0, 80 90 L 110 90" class="arrow arrow1"/><path d="M 110 90 L 160 90" class="arrow arrow1"/><path d="M 160 90 L 210 90" class="arrow arrow1"/><path d="M 60 0 L 60 160 A 20 20, 0, 0, 0, 80 180 L 260 180" class="arrow arrow2"/><path d="M 260 180 L 310 180" class="arrow arrow2"/><path d="M 60 0 L 360 0" class="arrow arrow0"/><path d="M 310 180 L 340 180 A 20 20, 0, 0, 0, 360 160 L 360 0" class="arrow arrow2"/><path d="M 210 90 L 410 90" class="arrow arrow1"/><path d="M 360 0 L 460 0" class="arrow arrow0"/><path d="M 410 90 L 440 90 A 20 20, 0, 0, 0, 460 70 L 460 0" class="arrow arrow1"/><path d="M 460 0 L 510 0" class="arrow arrow0"/><path d="M 510 0 L 510 250 A 20 20, 0, 0, 0, 530 270 L 560 270" class="arrow arrow3"/><path d="M 510 0 L 610 0" class="arrow arrow0"/><path d="M 560 270 L 590 270 A 20 20, 0, 0, 0, 610 250 L 610 0" class="arrow arrow3"/></g><g class="commit-bullets"><circle cx="10" cy="0" r="10" class="commit init commit0"/><circle cx="60" cy="0" r="10" class="commit add-readme commit0"/><circle cx="110" cy="90" r="10" class="commit auth-scaffold commit1"/><circle cx="160" cy="90" r="10" class="commit login-endpoint commit1"/><circle cx="210" cy="90" r="10" class="commit jwt-middleware commit1"/><circle cx="260" cy="180" r="10" class="commit db-schema commit2"/><circle cx="310" cy="180" r="10" class="commit migrations commit2"/><circle cx="360" cy="0" r="9" class="commit merge-db commit0"/><circle cx="360" cy="0" r="6" class="commit commit-merge merge-db commit0"/><circle cx="410" cy="90" r="10" class="commit auth-tests commit1"/><circle cx="460" cy="0" r="9" class="commit merge-auth commit0"/><circle cx="460" cy="0" r="6" class="commit commit-merge merge-auth commit0"/><circle cx="510" cy="0" r="10" class="commit ci-pipeline commit0"/><circle cx="560" cy="270" r="10" class="commit patch-vuln commit3"/><circle cx="610" cy="0" r="9" class="commit merge-hotfix commit0"/><circle cx="610" cy="0" r="6" class="commit commit-merge merge-hotfix commit0"/></g><g class="commit-labels"><g transform="translate(-17.44345703125, 15.49677734375) rotate(-45, 0, 0)"><rect class="commit-label-bkg" x="-0.08349609375" y="13.5" width="20.1669921875" height="15"/><text x="1.91650390625" y="25" class="commit-label">init</text></g><g transform="translate(-32.023359375, 28.541953125000003) rotate(-45, 50, 0)"><rect class="commit-label-bkg" x="30.732421875" y="13.5" width="58.53515625" height="15"/><text x="32.732421875" y="25" class="commit-label">add-readme</text></g><g transform="translate(-34.0161328125, 30.3249609375) rotate(-45, 100, 90)"><rect class="commit-label-bkg" x="78.1103515625" y="103.5" width="63.779296875" height="15"/><text x="80.1103515625" y="115" class="commit-label">auth-scaffold</text></g><g transform="translate(-36.4044921875, 32.4619140625) rotate(-45, 150, 90)"><rect class="commit-label-bkg" x="124.9677734375" y="103.5" width="70.064453125" height="15"/><text x="126.9677734375" y="115" class="commit-label">login-endpoint</text></g><g transform="translate(-39.0496484375, 34.828632812500004) rotate(-45, 200, 90)"><rect class="commit-label-bkg" x="171.4873046875" y="103.5" width="77.025390625" height="15"/><text x="173.4873046875" y="115" class="commit-label">jwt-middleware</text></g><g transform="translate(-29.93224609375, 26.670957031249998) rotate(-45, 250, 180)"><rect class="commit-label-bkg" x="233.48388671875" y="193.5" width="53.0322265625" height="15"/><text x="235.48388671875" y="205" class="commit-label">db-schema</text></g><g transform="translate(-29.5244140625, 26.3060546875) rotate(-45, 300, 180)"><rect class="commit-label-bkg" x="284.0205078125" y="193.5" width="51.958984375" height="15"/><text x="286.0205078125" y="205" class="commit-label">migrations</text></g><g transform="translate(-27.77619140625, 24.74185546875) rotate(-45, 350, 0)"><rect class="commit-label-bkg" x="336.32080078125" y="13.5" width="47.3583984375" height="15"/><text x="338.32080078125" y="25" class="commit-label">merge-db</text></g><polygon class="tag-label-bkg" points="333.13525390625,-17.2  &#10;      333.13525390625,-21.2&#10;      341.13525390625,-26.7&#10;      378.86474609375,-26.7&#10;      378.86474609375,-11.7&#10;      341.13525390625,-11.7"/><circle cy="-19.2" cx="337.13525390625" r="1.5" class="tag-hole"/><text y="-16" class="tag-label" x="345.13525390625">v0.2.0</text><g transform="translate(-28.875, 25.725) rotate(-45, 400, 90)"><rect class="commit-label-bkg" x="384.875" y="103.5" width="50.25" height="15"/><text x="386.875" y="115" class="commit-label">auth-tests</text></g><g transform="translate(-31.23849609375, 27.83970703125) rotate(-45, 450, 0)"><rect class="commit-label-bkg" x="431.76513671875" y="13.5" width="56.4697265625" height="15"/><text x="433.76513671875" y="25" class="commit-label">merge-auth</text></g><polygon class="tag-label-bkg" points="433.13525390625,-17.2  &#10;      433.13525390625,-21.2&#10;      441.13525390625,-26.7&#10;      478.86474609375,-26.7&#10;      478.86474609375,-11.7&#10;      441.13525390625,-11.7"/><circle cy="-19.2" cx="437.13525390625" r="1.5" class="tag-hole"/><text y="-16" class="tag-label" x="445.13525390625">v0.3.0</text><g transform="translate(-29.611250000000002, 26.38375) rotate(-45, 500, 0)"><rect class="commit-label-bkg" x="483.90625" y="13.5" width="52.1875" height="15"/><text x="485.90625" y="25" class="commit-label">ci-pipeline</text></g><g transform="translate(-29.611250000000002, 26.38375) rotate(-45, 550, 270)"><rect class="commit-label-bkg" x="533.90625" y="283.5" width="52.1875" height="15"/><text x="535.90625" y="295" class="commit-label">patch-vuln</text></g><g transform="translate(-33.76935546875, 30.10416015625) rotate(-45, 600, 0)"><rect class="commit-label-bkg" x="578.43505859375" y="13.5" width="63.1298828125" height="15"/><text x="580.43505859375" y="25" class="commit-label">merge-hotfix</text></g><polygon class="tag-label-bkg" points="583.5078125,-17.2  &#10;      583.5078125,-21.2&#10;      591.5078125,-26.7&#10;      628.4921875,-26.7&#10;      628.4921875,-11.7&#10;      591.5078125,-11.7"/><circle cy="-19.2" cx="587.5078125" r="1.5" class="tag-hole"/><text y="-16" class="tag-label" x="595.5078125">v0.3.1</text></g></svg>