<svg id="stress_architecture_parallel_labeled_edges_038" width="100%" xmlns="http://www.w3.org/2000/svg" xmlns:xlink="http://www.w3.org/1999/xlink" style="max-width: 531.3333129882812px; background-color: white;" viewBox="-187.0833282470703 -160.7195587158203 531.3333129882812 484.4390869140625" role="graphics-document document" aria-roledescription="architecture"><style>#stress_architecture_parallel_labeled_edges_038{font-family:"trebuchet ms",verdana,arial,sans-serif;font-size:16px;fill:#333;}@keyframes edge-animation-frame{from{stroke-dashoffset:0;}}@keyframes dash{to{stroke-dashoffset:0;}}#stress_architecture_parallel_labeled_edges_038 .edge-animation-slow{stroke-dasharray:9,5!important;stroke-dashoffset:900;animation:dash 50s linear infinite;stroke-linecap:round;}#stress_architecture_parallel_labeled_edges_038 .edge-animation-fast{stroke-dasharray:9,5!important;stroke-dashoffset:900;animation:dash 20s linear infinite;stroke-linecap:round;}#stress_architecture_parallel_labeled_edges_038 .error-icon{fill:#552222;}#stress_architecture_parallel_labeled_edges_038 .error-text{fill:#552222;stroke:#552222;}#stress_architecture_parallel_labeled_edges_038 .edge-thickness-normal{stroke-width:1px;}#stress_architecture_parallel_labeled_edges_038 .edge-thickness-thick{stroke-width:3.5px;}#stress_architecture_parallel_labeled_edges_038 .edge-pattern-solid{stroke-dasharray:0;}#stress_architecture_parallel_labeled_edges_038 .edge-thickness-invisible{stroke-width:0;fill:none;}#stress_architecture_parallel_labeled_edges_038 .edge-pattern-dashed{stroke-dasharray:3;}#stress_architecture_parallel_labeled_edges_038 .edge-pattern-dotted{stroke-dasharray:2;}#stress_architecture_parallel_labeled_edges_038 .marker{fill:#333333;stroke:#333333;}#stress_architecture_parallel_labeled_edges_038 .marker.cross{stroke:#333333;}#stress_architecture_parallel_labeled_edges_038 svg{font-family:"trebuchet ms",verdana,arial,sans-serif;font-size:16px;}#stress_architecture_parallel_labeled_edges_038 p{margin:0;}#stress_architecture_parallel_labeled_edges_038 .edge{stroke-width:3;stroke:#333333;fill:none;}#stress_architecture_parallel_labeled_edges_038 .arrow{fill:#333333;}#stress_architecture_parallel_labeled_edges_038 .node-bkg{fill:none;stroke:hsl(240, 60%, 86.2745098039%);stroke-width:2px;stroke-dasharray:8;}#stress_architecture_parallel_labeled_edges_038 .node-icon-text{display:flex;align-items:center;}#stress_architecture_parallel_labeled_edges_038 .node-icon-text&gt;div{color:#fff;margin:1px;height:fit-content;text-align:center;overflow:hidden;display:-webkit-box;-webkit-box-orient:vertical;}#stress_architecture_parallel_labeled_edges_038 .node .neo-node{stroke:#9370DB;}#stress_architecture_parallel_labeled_edges_038 [data-look="neo"].node rect,#stress_architecture_parallel_labeled_edges_038 [data-look="neo"].cluster rect,#stress_architecture_parallel_labeled_edges_038 [data-look="neo"].node polygon{stroke:#9370DB;filter:drop-shadow(1px 2px 2px rgba(185, 185, 185, 1));}#stress_architecture_parallel_labeled_edges_038 [data-look="neo"].node path{stroke:#9370DB;stroke-width:1px;}#stress_architecture_parallel_labeled_edges_038 [data-look="neo"].node .outer-path{filter:drop-shadow(1px 2px 2px rgba(185, 185, 185, 1));}#stress_architecture_parallel_labeled_edges_038 [data-look="neo"].node .neo-line path{stroke:#9370DB;filter:none;}#stress_architecture_parallel_labeled_edges_038 [data-look="neo"].node circle{stroke:#9370DB;filter:drop-shadow(1px 2px 2px rgba(185, 185, 185, 1));}#stress_architecture_parallel_labeled_edges_038 [data-look="neo"].node circle .state-start{fill:#000000;}#stress_architecture_parallel_labeled_edges_038 [data-look="neo"].icon-shape .icon{fill:#9370DB;filter:drop-shadow(1px 2px 2px rgba(185, 185, 185, 1));}#stress_architecture_parallel_labeled_edges_038 [data-look="neo"].icon-shape .icon-neo path{stroke:#9370DB;filter:drop-shadow(1px 2px 2px rgba(185, 185, 185, 1));}#stress_architecture_parallel_labeled_edges_038 :root{--mermaid-font-family:"trebuchet ms",verdana,arial,sans-serif;}</style><g/><g class="architecture-edges"><g><path d="M 184.24999999999994,81.50000000000003 L 204.24999999999997,81.50000000000003 L264.25,81.50000000000003" class="edge" id="stress_architecture_parallel_labeled_edges_038-L_api_j_read_0"/><polygon points="13.333333333333334,6.666666666666667 0,13.333333333333334 0,0" transform="translate(252.91666666666666,74.83333333333336)" class="arrow"/><g dy="1em" alignment-baseline="middle" dominant-baseline="middle" text-anchor="middle" transform="translate(204.24999999999997, 81.50000000000003)"><g><rect class="background" style="stroke: none"/><text y="-10.1" style=""><tspan class="text-outer-tspan row" x="0" y="-0.1em" dy="1.1em"><tspan font-style="normal" class="text-inner-tspan" font-weight="normal">read</tspan></tspan></text></g></g></g><g><path d="M 264.25,81.50000000000003 L 84.25000000000003,81.50000000000003 L-135.74999999999994,81.50000000000003" class="edge" id="stress_architecture_parallel_labeled_edges_038-L_j_read_db_0"/><polygon points="13.333333333333334,6.666666666666667 0,13.333333333333334 0,0" transform="translate(-147.0833333333333,74.83333333333336)" class="arrow"/></g><g><path d="M 144.24999999999994,121.50000000000003 L 144.24999999999994,162.60977762097752 L144.24999999999994,243.719555241955" class="edge" id="stress_architecture_parallel_labeled_edges_038-L_api_j_write_0"/><polygon points="0,0 13.333333333333334,0 6.666666666666667,13.333333333333334" transform="translate(137.5833333333333,232.38622190862165)" class="arrow"/><g dy="1em" alignment-baseline="middle" dominant-baseline="middle" text-anchor="middle" transform="translate(144.24999999999994, 162.60977762097752) rotate(-90)"><g><rect class="background" style="stroke: none"/><text y="-10.1" style=""><tspan class="text-outer-tspan row" x="0" y="-0.1em" dy="1.1em"><tspan font-style="normal" class="text-inner-tspan" font-weight="normal">write</tspan></tspan></text></g></g></g><g><path d="M 144.24999999999994,243.719555241955 L 24.249999999999996,162.60977762097752 L-95.74999999999996,41.50000000000003" class="edge" id="stress_architecture_parallel_labeled_edges_038-L_j_write_db_0"/><polygon points="0,0 13.333333333333334,0 6.666666666666667,13.333333333333334" transform="translate(-102.41666666666663,30.166666666666693)" class="arrow"/></g><g><path d="M 144.24999999999994,41.50000000000003 L 144.24999999999994,0.39022237902254986 L144.24999999999994,-80.71955524195494" class="edge" id="stress_architecture_parallel_labeled_edges_038-L_api_j_health_0"/><polygon points="6.666666666666667,0 13.333333333333334,13.333333333333334 0,13.333333333333334" transform="translate(137.5833333333333,-82.71955524195494)" class="arrow"/><g dy="1em" alignment-baseline="middle" dominant-baseline="middle" text-anchor="middle" transform="translate(144.24999999999994, 0.39022237902254986) rotate(-90)"><g><rect class="background" style="stroke: none"/><text y="-10.1" style=""><tspan class="text-outer-tspan row" x="0" y="-0.1em" dy="1.1em"><tspan font-style="normal" class="text-inner-tspan" font-weight="normal">health</tspan></tspan><tspan class="text-outer-tspan row" x="0" y="1em" dy="1.1em"><tspan font-style="normal" class="text-inner-tspan" font-weight="normal">check</tspan></tspan></text></g></g></g><g><path d="M 144.24999999999994,-80.71955524195494 L 24.249999999999996,0.3902223790225463 L-95.74999999999996,121.50000000000003" class="edge" id="stress_architecture_parallel_labeled_edges_038-L_j_health_db_0"/><polygon points="6.666666666666667,0 13.333333333333334,13.333333333333334 0,13.333333333333334" transform="translate(-102.41666666666663,119.50000000000003)" class="arrow"/></g><g><path d="M 104.24999999999993,81.50000000000003 L 84.25000000000001,81.50000000000003 L24.2500000000001,81.50000000000003" class="edge" id="stress_architecture_parallel_labeled_edges_038-L_api_j_metrics_0"/><polygon points="0,6.666666666666667 13.333333333333334,0 13.333333333333334,13.333333333333334" transform="translate(22.2500000000001,74.83333333333336)" class="arrow"/><g dy="1em" alignment-baseline="middle" dominant-baseline="middle" text-anchor="middle" transform="translate(84.25000000000001, 81.50000000000003)"><g><rect class="background" style="stroke: none"/><text y="-10.1" style=""><tspan class="text-outer-tspan row" x="0" y="-0.1em" dy="1.1em"><tspan font-style="normal" class="text-inner-tspan" font-weight="normal">metrics</tspan></tspan></text></g></g></g><g><path d="M 24.2500000000001,81.50000000000003 L -35.74999999999992,81.50000000000003 L-55.74999999999994,81.50000000000003" class="edge" id="stress_architecture_parallel_labeled_edges_038-L_j_metrics_db_0"/><polygon points="0,6.666666666666667 13.333333333333334,0 13.333333333333334,13.333333333333334" transform="translate(-57.74999999999994,74.83333333333336)" class="arrow"/></g></g><g class="architecture-services"><g id="stress_architecture_parallel_labeled_edges_038-service-api" class="architecture-service" transform="translate(104.24999999999993,41.500000000000036)"><g dy="1em" alignment-baseline="middle" dominant-baseline="middle" text-anchor="middle" transform="translate(40, 80)"><g><rect class="background" style="stroke: none"/><text y="-10.1" style=""><tspan class="text-outer-tspan row" x="0" y="-0.1em" dy="1.1em"><tspan font-style="normal" class="text-inner-tspan" font-weight="normal">API</tspan></tspan></text></g></g><g><g><svg xmlns="http://www.w3.org/2000/svg" width="80" height="80" viewBox="0 0 80 80"><g><rect width="80" height="80" style="fill: #087ebf; stroke-width: 0px;"/><rect x="17.5" y="17.5" width="45" height="45" rx="2" ry="2" style="fill: none; stroke: #fff; stroke-miterlimit: 10; stroke-width: 2px;"/><line x1="17.5" y1="32.5" x2="62.5" y2="32.5" style="fill: none; stroke: #fff; stroke-miterlimit: 10; stroke-width: 2px;"/><line x1="17.5" y1="47.5" x2="62.5" y2="47.5" style="fill: none; stroke: #fff; stroke-miterlimit: 10; stroke-width: 2px;"/><g><path d="m56.25,25c0,.27-.45.5-1,.5h-10.5c-.55,0-1-.23-1-.5s.45-.5,1-.5h10.5c.55,0,1,.23,1,.5Z" style="fill: #fff; stroke-width: 0px;"/><path d="m56.25,25c0,.27-.45.5-1,.5h-10.5c-.55,0-1-.23-1-.5s.45-.5,1-.5h10.5c.55,0,1,.23,1,.5Z" style="fill: none; stroke: #fff; stroke-miterlimit: 10;"/></g><g><path d="m56.25,40c0,.27-.45.5-1,.5h-10.5c-.55,0-1-.23-1-.5s.45-.5,1-.5h10.5c.55,0,1,.23,1,.5Z" style="fill: #fff; stroke-width: 0px;"/><path d="m56.25,40c0,.27-.45.5-1,.5h-10.5c-.55,0-1-.23-1-.5s.45-.5,1-.5h10.5c.55,0,1,.23,1,.5Z" style="fill: none; stroke: #fff; stroke-miterlimit: 10;"/></g><g><path d="m56.25,55c0,.27-.45.5-1,.5h-10.5c-.55,0-1-.23-1-.5s.45-.5,1-.5h10.5c.55,0,1,.23,1,.5Z" style="fill: #fff; stroke-width: 0px;"/><path d="m56.25,55c0,.27-.45.5-1,.5h-10.5c-.55,0-1-.23-1-.5s.45-.5,1-.5h10.5c.55,0,1,.23,1,.5Z" style="fill: none; stroke: #fff; stroke-miterlimit: 10;"/></g><g><circle cx="32.5" cy="25" r=".75" style="fill: #fff; stroke: #fff; stroke-miterlimit: 10;"/><circle cx="27.5" cy="25" r=".75" style="fill: #fff; stroke: #fff; stroke-miterlimit: 10;"/><circle cx="22.5" cy="25" r=".75" style="fill: #fff; stroke: #fff; stroke-miterlimit: 10;"/></g><g><circle cx="32.5" cy="40" r=".75" style="fill: #fff; stroke: #fff; stroke-miterlimit: 10;"/><circle cx="27.5" cy="40" r=".75" style="fill: #fff; stroke: #fff; stroke-miterlimit: 10;"/><circle cx="22.5" cy="40" r=".75" style="fill: #fff; stroke: #fff; stroke-miterlimit: 10;"/></g><g><circle cx="32.5" cy="55" r=".75" style="fill: #fff; stroke: #fff; stroke-miterlimit: 10;"/><circle cx="27.5" cy="55" r=".75" style="fill: #fff; stroke: #fff; stroke-miterlimit: 10;"/><circle cx="22.5" cy="55" r=".75" style="fill: #fff; stroke: #fff; stroke-miterlimit: 10;"/></g></g></svg></g></g></g><g id="stress_architecture_parallel_labeled_edges_038-service-db" class="architecture-service" transform="translate(-135.74999999999994,41.500000000000036)"><g dy="1em" alignment-baseline="middle" dominant-baseline="middle" text-anchor="middle" transform="translate(40, 80)"><g><rect class="background" style="stroke: none"/><text y="-10.1" style=""><tspan class="text-outer-tspan row" x="0" y="-0.1em" dy="1.1em"><tspan font-style="normal" class="text-inner-tspan" font-weight="normal">DB</tspan></tspan></text></g></g><g><g><svg xmlns="http://www.w3.org/2000/svg" width="80" height="80" viewBox="0 0 80 80"><g><rect width="80" height="80" style="fill: #087ebf; stroke-width: 0px;"/><path id="IconifyId19e84a7883c47e4ce0" data-name="4" d="m20,57.86c0,3.94,8.95,7.14,20,7.14s20-3.2,20-7.14" style="fill: none; stroke: #fff; stroke-miterlimit: 10; stroke-width: 2px;"/><path id="IconifyId19e84a7883c47e4ce1" data-name="3" d="m20,45.95c0,3.94,8.95,7.14,20,7.14s20-3.2,20-7.14" style="fill: none; stroke: #fff; stroke-miterlimit: 10; stroke-width: 2px;"/><path id="IconifyId19e84a7883c47e4ce2" data-name="2" d="m20,34.05c0,3.94,8.95,7.14,20,7.14s20-3.2,20-7.14" style="fill: none; stroke: #fff; stroke-miterlimit: 10; stroke-width: 2px;"/><ellipse id="IconifyId19e84a7883c47e4ce3" data-name="1" cx="40" cy="22.14" rx="20" ry="7.14" style="fill: none; stroke: #fff; stroke-miterlimit: 10; stroke-width: 2px;"/><line x1="20" y1="57.86" x2="20" y2="22.14" style="fill: none; stroke: #fff; stroke-miterlimit: 10; stroke-width: 2px;"/><line x1="60" y1="57.86" x2="60" y2="22.14" style="fill: none; stroke: #fff; stroke-miterlimit: 10; stroke-width: 2px;"/></g></svg></g></g></g><g class="architecture-junction" transform="translate(224.25,41.500000000000036)"><g><rect id="stress_architecture_parallel_labeled_edges_038-node-j_read" fill-opacity="0" width="80" height="80"/></g></g><g class="architecture-junction" transform="translate(104.24999999999993,203.719555241955)"><g><rect id="stress_architecture_parallel_labeled_edges_038-node-j_write" fill-opacity="0" width="80" height="80"/></g></g><g class="architecture-junction" transform="translate(104.24999999999993,-120.71955524195494)"><g><rect id="stress_architecture_parallel_labeled_edges_038-node-j_health" fill-opacity="0" width="80" height="80"/></g></g><g class="architecture-junction" transform="translate(-15.7499999999999,41.500000000000036)"><g><rect id="stress_architecture_parallel_labeled_edges_038-node-j_metrics" fill-opacity="0" width="80" height="80"/></g></g></g><g class="architecture-groups"/></svg>