<svg id="stress_architecture_batch5_multi_edges_same_ports_079" width="100%" xmlns="http://www.w3.org/2000/svg" xmlns:xlink="http://www.w3.org/1999/xlink" style="max-width: 372.4039306640625px; background-color: white;" viewBox="-110.3686294555664 -110.71257019042969 372.4039306640625 385.1126403808594" role="graphics-document document" aria-roledescription="architecture"><style>#stress_architecture_batch5_multi_edges_same_ports_079{font-family:"trebuchet ms",verdana,arial,sans-serif;font-size:16px;fill:#333;}@keyframes edge-animation-frame{from{stroke-dashoffset:0;}}@keyframes dash{to{stroke-dashoffset:0;}}#stress_architecture_batch5_multi_edges_same_ports_079 .edge-animation-slow{stroke-dasharray:9,5!important;stroke-dashoffset:900;animation:dash 50s linear infinite;stroke-linecap:round;}#stress_architecture_batch5_multi_edges_same_ports_079 .edge-animation-fast{stroke-dasharray:9,5!important;stroke-dashoffset:900;animation:dash 20s linear infinite;stroke-linecap:round;}#stress_architecture_batch5_multi_edges_same_ports_079 .error-icon{fill:#552222;}#stress_architecture_batch5_multi_edges_same_ports_079 .error-text{fill:#552222;stroke:#552222;}#stress_architecture_batch5_multi_edges_same_ports_079 .edge-thickness-normal{stroke-width:1px;}#stress_architecture_batch5_multi_edges_same_ports_079 .edge-thickness-thick{stroke-width:3.5px;}#stress_architecture_batch5_multi_edges_same_ports_079 .edge-pattern-solid{stroke-dasharray:0;}#stress_architecture_batch5_multi_edges_same_ports_079 .edge-thickness-invisible{stroke-width:0;fill:none;}#stress_architecture_batch5_multi_edges_same_ports_079 .edge-pattern-dashed{stroke-dasharray:3;}#stress_architecture_batch5_multi_edges_same_ports_079 .edge-pattern-dotted{stroke-dasharray:2;}#stress_architecture_batch5_multi_edges_same_ports_079 .marker{fill:#333333;stroke:#333333;}#stress_architecture_batch5_multi_edges_same_ports_079 .marker.cross{stroke:#333333;}#stress_architecture_batch5_multi_edges_same_ports_079 svg{font-family:"trebuchet ms",verdana,arial,sans-serif;font-size:16px;}#stress_architecture_batch5_multi_edges_same_ports_079 p{margin:0;}#stress_architecture_batch5_multi_edges_same_ports_079 .edge{stroke-width:3;stroke:#333333;fill:none;}#stress_architecture_batch5_multi_edges_same_ports_079 .arrow{fill:#333333;}#stress_architecture_batch5_multi_edges_same_ports_079 .node-bkg{fill:none;stroke:hsl(240, 60%, 86.2745098039%);stroke-width:2px;stroke-dasharray:8;}#stress_architecture_batch5_multi_edges_same_ports_079 .node-icon-text{display:flex;align-items:center;}#stress_architecture_batch5_multi_edges_same_ports_079 .node-icon-text&gt;div{color:#fff;margin:1px;height:fit-content;text-align:center;overflow:hidden;display:-webkit-box;-webkit-box-orient:vertical;}#stress_architecture_batch5_multi_edges_same_ports_079 .node .neo-node{stroke:#9370DB;}#stress_architecture_batch5_multi_edges_same_ports_079 [data-look="neo"].node rect,#stress_architecture_batch5_multi_edges_same_ports_079 [data-look="neo"].cluster rect,#stress_architecture_batch5_multi_edges_same_ports_079 [data-look="neo"].node polygon{stroke:#9370DB;filter:drop-shadow(1px 2px 2px rgba(185, 185, 185, 1));}#stress_architecture_batch5_multi_edges_same_ports_079 [data-look="neo"].swimlane.cluster rect{filter:none;}#stress_architecture_batch5_multi_edges_same_ports_079 [data-look="neo"].node path{stroke:#9370DB;stroke-width:1px;}#stress_architecture_batch5_multi_edges_same_ports_079 [data-look="neo"].node .outer-path{filter:drop-shadow(1px 2px 2px rgba(185, 185, 185, 1));}#stress_architecture_batch5_multi_edges_same_ports_079 [data-look="neo"].node .neo-line path{stroke:#9370DB;filter:none;}#stress_architecture_batch5_multi_edges_same_ports_079 [data-look="neo"].node circle{stroke:#9370DB;filter:drop-shadow(1px 2px 2px rgba(185, 185, 185, 1));}#stress_architecture_batch5_multi_edges_same_ports_079 [data-look="neo"].node circle .state-start{fill:#000000;}#stress_architecture_batch5_multi_edges_same_ports_079 [data-look="neo"].icon-shape .icon{fill:#9370DB;filter:drop-shadow(1px 2px 2px rgba(185, 185, 185, 1));}#stress_architecture_batch5_multi_edges_same_ports_079 [data-look="neo"].icon-shape .icon-neo path{stroke:#9370DB;filter:drop-shadow(1px 2px 2px rgba(185, 185, 185, 1));}#stress_architecture_batch5_multi_edges_same_ports_079 :root{--mermaid-font-family:"trebuchet ms",verdana,arial,sans-serif;}</style><g/><g class="architecture-edges"><g><path d="M 20.964705151654385,170.21257335961332 L 81.50000000000001,170.21257335961332 L182.03529484834564,170.21257335961332" class="edge" id="stress_architecture_batch5_multi_edges_same_ports_079-L_client_j1_0"/><polygon points="13.333333333333334,6.666666666666667 0,13.333333333333334 0,0" transform="translate(170.7019615150123,163.54590669294666)" class="arrow"/></g><g><path d="M 182.03529484834567,170.21257335961332 L 81.50000000000003,170.21257335961332 L-59.035294848345615,170.21257335961332" class="edge" id="stress_architecture_batch5_multi_edges_same_ports_079-L_j1_gateway_0"/><polygon points="13.333333333333334,6.666666666666667 0,13.333333333333334 0,0" transform="translate(-70.36862818167894,163.54590669294666)" class="arrow"/></g><g><path d="M -19.035294848345615,130.21257335961332 L -19.035294848345615,69.75 L-19.035294848345615,-30.712573359613287" class="edge" id="stress_architecture_batch5_multi_edges_same_ports_079-L_client_j2_0"/><polygon points="6.666666666666667,0 13.333333333333334,13.333333333333334 0,13.333333333333334" transform="translate(-25.701961515012282,-32.71257335961329)" class="arrow"/></g><g><path d="M -19.035294848345615,-30.712573359613287 L -19.035294848345615,69.75000000000001 L-19.035294848345615,130.21257335961332" class="edge" id="stress_architecture_batch5_multi_edges_same_ports_079-L_j2_gateway_0"/><polygon points="0,0 13.333333333333334,0 6.666666666666667,13.333333333333334" transform="translate(-25.701961515012282,118.87924002627999)" class="arrow"/></g><g><path d="M 20.964705151654385,170.21257335961332 L 81.50000000000001,170.21257335961332 L142.03529484834564,170.21257335961332" class="edge" id="stress_architecture_batch5_multi_edges_same_ports_079-L_gateway_backend_0"/><polygon points="13.333333333333334,6.666666666666667 0,13.333333333333334 0,0" transform="translate(130.7019615150123,163.54590669294666)" class="arrow"/></g><g><path d="M 142.03529484834564,170.21257335961332 L 81.5,170.21257335961332 L20.964705151654385,170.21257335961332" class="edge" id="stress_architecture_batch5_multi_edges_same_ports_079-L_backend_gateway_0"/><polygon points="13.333333333333334,6.666666666666667 0,13.333333333333334 0,0" transform="translate(130.7019615150123,163.54590669294666)" class="arrow"/></g></g><g class="architecture-services"><g id="stress_architecture_batch5_multi_edges_same_ports_079-service-client" class="architecture-service" transform="translate(-59.035294848345615,130.21257335961332)"><g dy="1em" alignment-baseline="middle" dominant-baseline="middle" text-anchor="middle" transform="translate(40, 80)"><g><rect class="background" style="stroke: none"/><text y="-10.1" style=""><tspan class="text-outer-tspan row" x="0" y="-0.1em" dy="1.1em"><tspan font-style="normal" class="text-inner-tspan" font-weight="normal">Client</tspan></tspan></text></g></g><g><g><svg xmlns="http://www.w3.org/2000/svg" width="80" height="80" viewBox="0 0 80 80"><g><rect width="80" height="80" style="fill: #087ebf; stroke-width: 0px;"/><circle cx="40" cy="40" r="22.5" style="fill: none; stroke: #fff; stroke-miterlimit: 10; stroke-width: 2px;"/><line x1="40" y1="17.5" x2="40" y2="62.5" style="fill: none; stroke: #fff; stroke-miterlimit: 10; stroke-width: 2px;"/><line x1="17.5" y1="40" x2="62.5" y2="40" style="fill: none; stroke: #fff; stroke-miterlimit: 10; stroke-width: 2px;"/><path d="m39.99,17.51c-15.28,11.1-15.28,33.88,0,44.98" style="fill: none; stroke: #fff; stroke-miterlimit: 10; stroke-width: 2px;"/><path d="m40.01,17.51c15.28,11.1,15.28,33.88,0,44.98" style="fill: none; stroke: #fff; stroke-miterlimit: 10; stroke-width: 2px;"/><line x1="19.75" y1="30.1" x2="60.25" y2="30.1" style="fill: none; stroke: #fff; stroke-miterlimit: 10; stroke-width: 2px;"/><line x1="19.75" y1="49.9" x2="60.25" y2="49.9" style="fill: none; stroke: #fff; stroke-miterlimit: 10; stroke-width: 2px;"/></g></svg></g></g></g><g id="stress_architecture_batch5_multi_edges_same_ports_079-service-gateway" class="architecture-service" transform="translate(-59.035294848345615,130.21257335961332)"><g dy="1em" alignment-baseline="middle" dominant-baseline="middle" text-anchor="middle" transform="translate(40, 80)"><g><rect class="background" style="stroke: none"/><text y="-10.1" style=""><tspan class="text-outer-tspan row" x="0" y="-0.1em" dy="1.1em"><tspan font-style="normal" class="text-inner-tspan" font-weight="normal">Gateway</tspan></tspan></text></g></g><g><g><svg xmlns="http://www.w3.org/2000/svg" width="80" height="80" viewBox="0 0 80 80"><g><rect width="80" height="80" style="fill: #087ebf; stroke-width: 0px;"/><rect x="17.5" y="17.5" width="45" height="45" rx="2" ry="2" style="fill: none; stroke: #fff; stroke-miterlimit: 10; stroke-width: 2px;"/><line x1="17.5" y1="32.5" x2="62.5" y2="32.5" style="fill: none; stroke: #fff; stroke-miterlimit: 10; stroke-width: 2px;"/><line x1="17.5" y1="47.5" x2="62.5" y2="47.5" style="fill: none; stroke: #fff; stroke-miterlimit: 10; stroke-width: 2px;"/><g><path d="m56.25,25c0,.27-.45.5-1,.5h-10.5c-.55,0-1-.23-1-.5s.45-.5,1-.5h10.5c.55,0,1,.23,1,.5Z" style="fill: #fff; stroke-width: 0px;"/><path d="m56.25,25c0,.27-.45.5-1,.5h-10.5c-.55,0-1-.23-1-.5s.45-.5,1-.5h10.5c.55,0,1,.23,1,.5Z" style="fill: none; stroke: #fff; stroke-miterlimit: 10;"/></g><g><path d="m56.25,40c0,.27-.45.5-1,.5h-10.5c-.55,0-1-.23-1-.5s.45-.5,1-.5h10.5c.55,0,1,.23,1,.5Z" style="fill: #fff; stroke-width: 0px;"/><path d="m56.25,40c0,.27-.45.5-1,.5h-10.5c-.55,0-1-.23-1-.5s.45-.5,1-.5h10.5c.55,0,1,.23,1,.5Z" style="fill: none; stroke: #fff; stroke-miterlimit: 10;"/></g><g><path d="m56.25,55c0,.27-.45.5-1,.5h-10.5c-.55,0-1-.23-1-.5s.45-.5,1-.5h10.5c.55,0,1,.23,1,.5Z" style="fill: #fff; stroke-width: 0px;"/><path d="m56.25,55c0,.27-.45.5-1,.5h-10.5c-.55,0-1-.23-1-.5s.45-.5,1-.5h10.5c.55,0,1,.23,1,.5Z" style="fill: none; stroke: #fff; stroke-miterlimit: 10;"/></g><g><circle cx="32.5" cy="25" r=".75" style="fill: #fff; stroke: #fff; stroke-miterlimit: 10;"/><circle cx="27.5" cy="25" r=".75" style="fill: #fff; stroke: #fff; stroke-miterlimit: 10;"/><circle cx="22.5" cy="25" r=".75" style="fill: #fff; stroke: #fff; stroke-miterlimit: 10;"/></g><g><circle cx="32.5" cy="40" r=".75" style="fill: #fff; stroke: #fff; stroke-miterlimit: 10;"/><circle cx="27.5" cy="40" r=".75" style="fill: #fff; stroke: #fff; stroke-miterlimit: 10;"/><circle cx="22.5" cy="40" r=".75" style="fill: #fff; stroke: #fff; stroke-miterlimit: 10;"/></g><g><circle cx="32.5" cy="55" r=".75" style="fill: #fff; stroke: #fff; stroke-miterlimit: 10;"/><circle cx="27.5" cy="55" r=".75" style="fill: #fff; stroke: #fff; stroke-miterlimit: 10;"/><circle cx="22.5" cy="55" r=".75" style="fill: #fff; stroke: #fff; stroke-miterlimit: 10;"/></g></g></svg></g></g></g><g id="stress_architecture_batch5_multi_edges_same_ports_079-service-backend" class="architecture-service" transform="translate(142.03529484834564,130.21257335961332)"><g dy="1em" alignment-baseline="middle" dominant-baseline="middle" text-anchor="middle" transform="translate(40, 80)"><g><rect class="background" style="stroke: none"/><text y="-10.1" style=""><tspan class="text-outer-tspan row" x="0" y="-0.1em" dy="1.1em"><tspan font-style="normal" class="text-inner-tspan" font-weight="normal">Backend</tspan></tspan></text></g></g><g><g><svg xmlns="http://www.w3.org/2000/svg" width="80" height="80" viewBox="0 0 80 80"><g><rect width="80" height="80" style="fill: #087ebf; stroke-width: 0px;"/><rect x="17.5" y="17.5" width="45" height="45" rx="2" ry="2" style="fill: none; stroke: #fff; stroke-miterlimit: 10; stroke-width: 2px;"/><line x1="17.5" y1="32.5" x2="62.5" y2="32.5" style="fill: none; stroke: #fff; stroke-miterlimit: 10; stroke-width: 2px;"/><line x1="17.5" y1="47.5" x2="62.5" y2="47.5" style="fill: none; stroke: #fff; stroke-miterlimit: 10; stroke-width: 2px;"/><g><path d="m56.25,25c0,.27-.45.5-1,.5h-10.5c-.55,0-1-.23-1-.5s.45-.5,1-.5h10.5c.55,0,1,.23,1,.5Z" style="fill: #fff; stroke-width: 0px;"/><path d="m56.25,25c0,.27-.45.5-1,.5h-10.5c-.55,0-1-.23-1-.5s.45-.5,1-.5h10.5c.55,0,1,.23,1,.5Z" style="fill: none; stroke: #fff; stroke-miterlimit: 10;"/></g><g><path d="m56.25,40c0,.27-.45.5-1,.5h-10.5c-.55,0-1-.23-1-.5s.45-.5,1-.5h10.5c.55,0,1,.23,1,.5Z" style="fill: #fff; stroke-width: 0px;"/><path d="m56.25,40c0,.27-.45.5-1,.5h-10.5c-.55,0-1-.23-1-.5s.45-.5,1-.5h10.5c.55,0,1,.23,1,.5Z" style="fill: none; stroke: #fff; stroke-miterlimit: 10;"/></g><g><path d="m56.25,55c0,.27-.45.5-1,.5h-10.5c-.55,0-1-.23-1-.5s.45-.5,1-.5h10.5c.55,0,1,.23,1,.5Z" style="fill: #fff; stroke-width: 0px;"/><path d="m56.25,55c0,.27-.45.5-1,.5h-10.5c-.55,0-1-.23-1-.5s.45-.5,1-.5h10.5c.55,0,1,.23,1,.5Z" style="fill: none; stroke: #fff; stroke-miterlimit: 10;"/></g><g><circle cx="32.5" cy="25" r=".75" style="fill: #fff; stroke: #fff; stroke-miterlimit: 10;"/><circle cx="27.5" cy="25" r=".75" style="fill: #fff; stroke: #fff; stroke-miterlimit: 10;"/><circle cx="22.5" cy="25" r=".75" style="fill: #fff; stroke: #fff; stroke-miterlimit: 10;"/></g><g><circle cx="32.5" cy="40" r=".75" style="fill: #fff; stroke: #fff; stroke-miterlimit: 10;"/><circle cx="27.5" cy="40" r=".75" style="fill: #fff; stroke: #fff; stroke-miterlimit: 10;"/><circle cx="22.5" cy="40" r=".75" style="fill: #fff; stroke: #fff; stroke-miterlimit: 10;"/></g><g><circle cx="32.5" cy="55" r=".75" style="fill: #fff; stroke: #fff; stroke-miterlimit: 10;"/><circle cx="27.5" cy="55" r=".75" style="fill: #fff; stroke: #fff; stroke-miterlimit: 10;"/><circle cx="22.5" cy="55" r=".75" style="fill: #fff; stroke: #fff; stroke-miterlimit: 10;"/></g></g></svg></g></g></g><g class="architecture-junction" transform="translate(142.03529484834564,130.21257335961332)"><g><rect id="stress_architecture_batch5_multi_edges_same_ports_079-node-j1" fill-opacity="0" width="80" height="80"/></g></g><g class="architecture-junction" transform="translate(-59.035294848345615,-70.71257335961329)"><g><rect id="stress_architecture_batch5_multi_edges_same_ports_079-node-j2" fill-opacity="0" width="80" height="80"/></g></g></g><g class="architecture-groups"/></svg>