<svg id="stress_architecture_batch4_nested_groups_junction_fanout_067" width="100%" xmlns="http://www.w3.org/2000/svg" xmlns:xlink="http://www.w3.org/1999/xlink" style="max-width: 697.2833251953125px; background-color: white;" viewBox="-308.64166259765625 -343.0796203613281 697.2833251953125 817.1592407226562" role="graphics-document document" aria-roledescription="architecture"><style>#stress_architecture_batch4_nested_groups_junction_fanout_067{font-family:"trebuchet ms",verdana,arial,sans-serif;font-size:16px;fill:#333;}@keyframes edge-animation-frame{from{stroke-dashoffset:0;}}@keyframes dash{to{stroke-dashoffset:0;}}#stress_architecture_batch4_nested_groups_junction_fanout_067 .edge-animation-slow{stroke-dasharray:9,5!important;stroke-dashoffset:900;animation:dash 50s linear infinite;stroke-linecap:round;}#stress_architecture_batch4_nested_groups_junction_fanout_067 .edge-animation-fast{stroke-dasharray:9,5!important;stroke-dashoffset:900;animation:dash 20s linear infinite;stroke-linecap:round;}#stress_architecture_batch4_nested_groups_junction_fanout_067 .error-icon{fill:#552222;}#stress_architecture_batch4_nested_groups_junction_fanout_067 .error-text{fill:#552222;stroke:#552222;}#stress_architecture_batch4_nested_groups_junction_fanout_067 .edge-thickness-normal{stroke-width:1px;}#stress_architecture_batch4_nested_groups_junction_fanout_067 .edge-thickness-thick{stroke-width:3.5px;}#stress_architecture_batch4_nested_groups_junction_fanout_067 .edge-pattern-solid{stroke-dasharray:0;}#stress_architecture_batch4_nested_groups_junction_fanout_067 .edge-thickness-invisible{stroke-width:0;fill:none;}#stress_architecture_batch4_nested_groups_junction_fanout_067 .edge-pattern-dashed{stroke-dasharray:3;}#stress_architecture_batch4_nested_groups_junction_fanout_067 .edge-pattern-dotted{stroke-dasharray:2;}#stress_architecture_batch4_nested_groups_junction_fanout_067 .marker{fill:#333333;stroke:#333333;}#stress_architecture_batch4_nested_groups_junction_fanout_067 .marker.cross{stroke:#333333;}#stress_architecture_batch4_nested_groups_junction_fanout_067 svg{font-family:"trebuchet ms",verdana,arial,sans-serif;font-size:16px;}#stress_architecture_batch4_nested_groups_junction_fanout_067 p{margin:0;}#stress_architecture_batch4_nested_groups_junction_fanout_067 .edge{stroke-width:3;stroke:#333333;fill:none;}#stress_architecture_batch4_nested_groups_junction_fanout_067 .arrow{fill:#333333;}#stress_architecture_batch4_nested_groups_junction_fanout_067 .node-bkg{fill:none;stroke:hsl(240, 60%, 86.2745098039%);stroke-width:2px;stroke-dasharray:8;}#stress_architecture_batch4_nested_groups_junction_fanout_067 .node-icon-text{display:flex;align-items:center;}#stress_architecture_batch4_nested_groups_junction_fanout_067 .node-icon-text&gt;div{color:#fff;margin:1px;height:fit-content;text-align:center;overflow:hidden;display:-webkit-box;-webkit-box-orient:vertical;}#stress_architecture_batch4_nested_groups_junction_fanout_067 :root{--mermaid-font-family:"trebuchet ms",verdana,arial,sans-serif;}</style><g/><g class="architecture-edges"><g><path d="M -146.14166380499307,-19.597814134061565 L -85.44855102586718,-19.597814134061565 L15.24456175325875,-19.597814134061565" class="edge" id="L_a_j_0"/></g><g><path d="M 15.24456175325875,-180.57960949339008 L 15.24456175325875,-120.08871181372581 L15.24456175325875,-19.597814134061565" class="edge" id="L_b_j_0"/></g><g><path d="M 99.24456175325875,-19.597814134061565 L 140.69311277912593,114.94893831569445 L182.1416638049931,249.49569076545046" class="edge" id="L_j_c_0"/><polygon points="13.333333333333334,6.666666666666667 0,13.333333333333334 0,0" transform="translate(170.80833047165976,242.8290240987838)" class="arrow"/></g><g><path d="M 15.24456175325875,82.40218586593846 L 15.24456175325875,157.49089767966427 L15.24456175325875,250.57960949339008" class="edge" id="L_j_d_0"/><polygon points="0,0 13.333333333333334,0 6.666666666666667,13.333333333333334" transform="translate(8.577895086592083,239.24627616005674)" class="arrow"/></g></g><g class="architecture-services"><g id="service-a" class="architecture-service" transform="translate(-226.14166380499307,-59.597814134061565)"><g dy="1em" alignment-baseline="middle" dominant-baseline="middle" text-anchor="middle" transform="translate(40, 80)"><g><rect class="background" style="stroke: none"/><text y="-10.1" style=""><tspan class="text-outer-tspan" x="0" y="-0.1em" dy="1.1em"><tspan font-style="normal" class="text-inner-tspan" font-weight="normal">A</tspan></tspan></text></g></g><g><g><svg xmlns="http://www.w3.org/2000/svg" width="80" height="80" viewBox="0 0 80 80"><g><rect width="80" height="80" style="fill: #087ebf; stroke-width: 0px;"/><rect x="17.5" y="17.5" width="45" height="45" rx="2" ry="2" style="fill: none; stroke: #fff; stroke-miterlimit: 10; stroke-width: 2px;"/><line x1="17.5" y1="32.5" x2="62.5" y2="32.5" style="fill: none; stroke: #fff; stroke-miterlimit: 10; stroke-width: 2px;"/><line x1="17.5" y1="47.5" x2="62.5" y2="47.5" style="fill: none; stroke: #fff; stroke-miterlimit: 10; stroke-width: 2px;"/><g><path d="m56.25,25c0,.27-.45.5-1,.5h-10.5c-.55,0-1-.23-1-.5s.45-.5,1-.5h10.5c.55,0,1,.23,1,.5Z" style="fill: #fff; stroke-width: 0px;"/><path d="m56.25,25c0,.27-.45.5-1,.5h-10.5c-.55,0-1-.23-1-.5s.45-.5,1-.5h10.5c.55,0,1,.23,1,.5Z" style="fill: none; stroke: #fff; stroke-miterlimit: 10;"/></g><g><path d="m56.25,40c0,.27-.45.5-1,.5h-10.5c-.55,0-1-.23-1-.5s.45-.5,1-.5h10.5c.55,0,1,.23,1,.5Z" style="fill: #fff; stroke-width: 0px;"/><path d="m56.25,40c0,.27-.45.5-1,.5h-10.5c-.55,0-1-.23-1-.5s.45-.5,1-.5h10.5c.55,0,1,.23,1,.5Z" style="fill: none; stroke: #fff; stroke-miterlimit: 10;"/></g><g><path d="m56.25,55c0,.27-.45.5-1,.5h-10.5c-.55,0-1-.23-1-.5s.45-.5,1-.5h10.5c.55,0,1,.23,1,.5Z" style="fill: #fff; stroke-width: 0px;"/><path d="m56.25,55c0,.27-.45.5-1,.5h-10.5c-.55,0-1-.23-1-.5s.45-.5,1-.5h10.5c.55,0,1,.23,1,.5Z" style="fill: none; stroke: #fff; stroke-miterlimit: 10;"/></g><g><circle cx="32.5" cy="25" r=".75" style="fill: #fff; stroke: #fff; stroke-miterlimit: 10;"/><circle cx="27.5" cy="25" r=".75" style="fill: #fff; stroke: #fff; stroke-miterlimit: 10;"/><circle cx="22.5" cy="25" r=".75" style="fill: #fff; stroke: #fff; stroke-miterlimit: 10;"/></g><g><circle cx="32.5" cy="40" r=".75" style="fill: #fff; stroke: #fff; stroke-miterlimit: 10;"/><circle cx="27.5" cy="40" r=".75" style="fill: #fff; stroke: #fff; stroke-miterlimit: 10;"/><circle cx="22.5" cy="40" r=".75" style="fill: #fff; stroke: #fff; stroke-miterlimit: 10;"/></g><g><circle cx="32.5" cy="55" r=".75" style="fill: #fff; stroke: #fff; stroke-miterlimit: 10;"/><circle cx="27.5" cy="55" r=".75" style="fill: #fff; stroke: #fff; stroke-miterlimit: 10;"/><circle cx="22.5" cy="55" r=".75" style="fill: #fff; stroke: #fff; stroke-miterlimit: 10;"/></g></g></svg></g></g></g><g id="service-b" class="architecture-service" transform="translate(-24.75543824674125,-260.5796094933901)"><g dy="1em" alignment-baseline="middle" dominant-baseline="middle" text-anchor="middle" transform="translate(40, 80)"><g><rect class="background" style="stroke: none"/><text y="-10.1" style=""><tspan class="text-outer-tspan" x="0" y="-0.1em" dy="1.1em"><tspan font-style="normal" class="text-inner-tspan" font-weight="normal">B</tspan></tspan></text></g></g><g><g><svg xmlns="http://www.w3.org/2000/svg" width="80" height="80" viewBox="0 0 80 80"><g><rect width="80" height="80" style="fill: #087ebf; stroke-width: 0px;"/><rect x="17.5" y="17.5" width="45" height="45" rx="2" ry="2" style="fill: none; stroke: #fff; stroke-miterlimit: 10; stroke-width: 2px;"/><line x1="17.5" y1="32.5" x2="62.5" y2="32.5" style="fill: none; stroke: #fff; stroke-miterlimit: 10; stroke-width: 2px;"/><line x1="17.5" y1="47.5" x2="62.5" y2="47.5" style="fill: none; stroke: #fff; stroke-miterlimit: 10; stroke-width: 2px;"/><g><path d="m56.25,25c0,.27-.45.5-1,.5h-10.5c-.55,0-1-.23-1-.5s.45-.5,1-.5h10.5c.55,0,1,.23,1,.5Z" style="fill: #fff; stroke-width: 0px;"/><path d="m56.25,25c0,.27-.45.5-1,.5h-10.5c-.55,0-1-.23-1-.5s.45-.5,1-.5h10.5c.55,0,1,.23,1,.5Z" style="fill: none; stroke: #fff; stroke-miterlimit: 10;"/></g><g><path d="m56.25,40c0,.27-.45.5-1,.5h-10.5c-.55,0-1-.23-1-.5s.45-.5,1-.5h10.5c.55,0,1,.23,1,.5Z" style="fill: #fff; stroke-width: 0px;"/><path d="m56.25,40c0,.27-.45.5-1,.5h-10.5c-.55,0-1-.23-1-.5s.45-.5,1-.5h10.5c.55,0,1,.23,1,.5Z" style="fill: none; stroke: #fff; stroke-miterlimit: 10;"/></g><g><path d="m56.25,55c0,.27-.45.5-1,.5h-10.5c-.55,0-1-.23-1-.5s.45-.5,1-.5h10.5c.55,0,1,.23,1,.5Z" style="fill: #fff; stroke-width: 0px;"/><path d="m56.25,55c0,.27-.45.5-1,.5h-10.5c-.55,0-1-.23-1-.5s.45-.5,1-.5h10.5c.55,0,1,.23,1,.5Z" style="fill: none; stroke: #fff; stroke-miterlimit: 10;"/></g><g><circle cx="32.5" cy="25" r=".75" style="fill: #fff; stroke: #fff; stroke-miterlimit: 10;"/><circle cx="27.5" cy="25" r=".75" style="fill: #fff; stroke: #fff; stroke-miterlimit: 10;"/><circle cx="22.5" cy="25" r=".75" style="fill: #fff; stroke: #fff; stroke-miterlimit: 10;"/></g><g><circle cx="32.5" cy="40" r=".75" style="fill: #fff; stroke: #fff; stroke-miterlimit: 10;"/><circle cx="27.5" cy="40" r=".75" style="fill: #fff; stroke: #fff; stroke-miterlimit: 10;"/><circle cx="22.5" cy="40" r=".75" style="fill: #fff; stroke: #fff; stroke-miterlimit: 10;"/></g><g><circle cx="32.5" cy="55" r=".75" style="fill: #fff; stroke: #fff; stroke-miterlimit: 10;"/><circle cx="27.5" cy="55" r=".75" style="fill: #fff; stroke: #fff; stroke-miterlimit: 10;"/><circle cx="22.5" cy="55" r=".75" style="fill: #fff; stroke: #fff; stroke-miterlimit: 10;"/></g></g></svg></g></g></g><g id="service-c" class="architecture-service" transform="translate(226.1416638049931,209.49569076545043)"><g dy="1em" alignment-baseline="middle" dominant-baseline="middle" text-anchor="middle" transform="translate(40, 80)"><g><rect class="background" style="stroke: none"/><text y="-10.1" style=""><tspan class="text-outer-tspan" x="0" y="-0.1em" dy="1.1em"><tspan font-style="normal" class="text-inner-tspan" font-weight="normal">C</tspan></tspan></text></g></g><g><g><svg xmlns="http://www.w3.org/2000/svg" width="80" height="80" viewBox="0 0 80 80"><g><rect width="80" height="80" style="fill: #087ebf; stroke-width: 0px;"/><rect x="17.5" y="17.5" width="45" height="45" rx="2" ry="2" style="fill: none; stroke: #fff; stroke-miterlimit: 10; stroke-width: 2px;"/><line x1="17.5" y1="32.5" x2="62.5" y2="32.5" style="fill: none; stroke: #fff; stroke-miterlimit: 10; stroke-width: 2px;"/><line x1="17.5" y1="47.5" x2="62.5" y2="47.5" style="fill: none; stroke: #fff; stroke-miterlimit: 10; stroke-width: 2px;"/><g><path d="m56.25,25c0,.27-.45.5-1,.5h-10.5c-.55,0-1-.23-1-.5s.45-.5,1-.5h10.5c.55,0,1,.23,1,.5Z" style="fill: #fff; stroke-width: 0px;"/><path d="m56.25,25c0,.27-.45.5-1,.5h-10.5c-.55,0-1-.23-1-.5s.45-.5,1-.5h10.5c.55,0,1,.23,1,.5Z" style="fill: none; stroke: #fff; stroke-miterlimit: 10;"/></g><g><path d="m56.25,40c0,.27-.45.5-1,.5h-10.5c-.55,0-1-.23-1-.5s.45-.5,1-.5h10.5c.55,0,1,.23,1,.5Z" style="fill: #fff; stroke-width: 0px;"/><path d="m56.25,40c0,.27-.45.5-1,.5h-10.5c-.55,0-1-.23-1-.5s.45-.5,1-.5h10.5c.55,0,1,.23,1,.5Z" style="fill: none; stroke: #fff; stroke-miterlimit: 10;"/></g><g><path d="m56.25,55c0,.27-.45.5-1,.5h-10.5c-.55,0-1-.23-1-.5s.45-.5,1-.5h10.5c.55,0,1,.23,1,.5Z" style="fill: #fff; stroke-width: 0px;"/><path d="m56.25,55c0,.27-.45.5-1,.5h-10.5c-.55,0-1-.23-1-.5s.45-.5,1-.5h10.5c.55,0,1,.23,1,.5Z" style="fill: none; stroke: #fff; stroke-miterlimit: 10;"/></g><g><circle cx="32.5" cy="25" r=".75" style="fill: #fff; stroke: #fff; stroke-miterlimit: 10;"/><circle cx="27.5" cy="25" r=".75" style="fill: #fff; stroke: #fff; stroke-miterlimit: 10;"/><circle cx="22.5" cy="25" r=".75" style="fill: #fff; stroke: #fff; stroke-miterlimit: 10;"/></g><g><circle cx="32.5" cy="40" r=".75" style="fill: #fff; stroke: #fff; stroke-miterlimit: 10;"/><circle cx="27.5" cy="40" r=".75" style="fill: #fff; stroke: #fff; stroke-miterlimit: 10;"/><circle cx="22.5" cy="40" r=".75" style="fill: #fff; stroke: #fff; stroke-miterlimit: 10;"/></g><g><circle cx="32.5" cy="55" r=".75" style="fill: #fff; stroke: #fff; stroke-miterlimit: 10;"/><circle cx="27.5" cy="55" r=".75" style="fill: #fff; stroke: #fff; stroke-miterlimit: 10;"/><circle cx="22.5" cy="55" r=".75" style="fill: #fff; stroke: #fff; stroke-miterlimit: 10;"/></g></g></svg></g></g></g><g id="service-d" class="architecture-service" transform="translate(-24.75543824674125,294.5796094933901)"><g dy="1em" alignment-baseline="middle" dominant-baseline="middle" text-anchor="middle" transform="translate(40, 80)"><g><rect class="background" style="stroke: none"/><text y="-10.1" style=""><tspan class="text-outer-tspan" x="0" y="-0.1em" dy="1.1em"><tspan font-style="normal" class="text-inner-tspan" font-weight="normal">D</tspan></tspan></text></g></g><g><g><svg xmlns="http://www.w3.org/2000/svg" width="80" height="80" viewBox="0 0 80 80"><g><rect width="80" height="80" style="fill: #087ebf; stroke-width: 0px;"/><path id="IconifyId19c691dded747e4ce0" data-name="4" d="m20,57.86c0,3.94,8.95,7.14,20,7.14s20-3.2,20-7.14" style="fill: none; stroke: #fff; stroke-miterlimit: 10; stroke-width: 2px;"/><path id="IconifyId19c691dded747e4ce1" data-name="3" d="m20,45.95c0,3.94,8.95,7.14,20,7.14s20-3.2,20-7.14" style="fill: none; stroke: #fff; stroke-miterlimit: 10; stroke-width: 2px;"/><path id="IconifyId19c691dded747e4ce2" data-name="2" d="m20,34.05c0,3.94,8.95,7.14,20,7.14s20-3.2,20-7.14" style="fill: none; stroke: #fff; stroke-miterlimit: 10; stroke-width: 2px;"/><ellipse id="IconifyId19c691dded747e4ce3" data-name="1" cx="40" cy="22.14" rx="20" ry="7.14" style="fill: none; stroke: #fff; stroke-miterlimit: 10; stroke-width: 2px;"/><line x1="20" y1="57.86" x2="20" y2="22.14" style="fill: none; stroke: #fff; stroke-miterlimit: 10; stroke-width: 2px;"/><line x1="60" y1="57.86" x2="60" y2="22.14" style="fill: none; stroke: #fff; stroke-miterlimit: 10; stroke-width: 2px;"/></g></svg></g></g></g><g class="architecture-junction" transform="translate(-24.75543824674125,-59.597814134061565)"><g><rect id="node-j" fill-opacity="0" width="80" height="80"/></g></g></g><g class="architecture-groups"><rect id="group-left" x="-268.6416638049931" y="-303.0796094933901" width="366.3862255582518" height="382.98179535932854" class="node-bkg"/><g><g transform="translate(-267.6416638049931, -302.0796094933901)"><g><svg xmlns="http://www.w3.org/2000/svg" width="30" height="30" viewBox="0 0 80 80"><g><rect width="80" height="80" style="fill: #087ebf; stroke-width: 0px;"/><path d="m65,47.5c0,2.76-2.24,5-5,5H20c-2.76,0-5-2.24-5-5,0-1.87,1.03-3.51,2.56-4.36-.04-.21-.06-.42-.06-.64,0-2.6,2.48-4.74,5.65-4.97,1.65-4.51,6.34-7.76,11.85-7.76.86,0,1.69.08,2.5.23,2.09-1.57,4.69-2.5,7.5-2.5,6.1,0,11.19,4.38,12.28,10.17,2.14.56,3.72,2.51,3.72,4.83,0,.03,0,.07-.01.1,2.29.46,4.01,2.48,4.01,4.9Z" style="fill: none; stroke: #fff; stroke-miterlimit: 10; stroke-width: 2px;"/></g></svg></g></g><g dy="1em" alignment-baseline="middle" dominant-baseline="start" text-anchor="start" transform="translate(-234.64166380499307, -296.0796094933901)"><g><rect class="background" style="stroke: none"/><text y="-10.1" style=""><tspan class="text-outer-tspan" x="0" y="-0.1em" dy="1.1em"><tspan font-style="normal" class="text-inner-tspan" font-weight="normal">Left</tspan></tspan></text></g></g></g><rect id="group-right" x="-67.25543824674126" y="166.99569076545046" width="415.89710205173435" height="267.0839187279396" class="node-bkg"/><g><g transform="translate(-66.25543824674126, 167.99569076545046)"><g><svg xmlns="http://www.w3.org/2000/svg" width="30" height="30" viewBox="0 0 80 80"><g><rect width="80" height="80" style="fill: #087ebf; stroke-width: 0px;"/><path d="m65,47.5c0,2.76-2.24,5-5,5H20c-2.76,0-5-2.24-5-5,0-1.87,1.03-3.51,2.56-4.36-.04-.21-.06-.42-.06-.64,0-2.6,2.48-4.74,5.65-4.97,1.65-4.51,6.34-7.76,11.85-7.76.86,0,1.69.08,2.5.23,2.09-1.57,4.69-2.5,7.5-2.5,6.1,0,11.19,4.38,12.28,10.17,2.14.56,3.72,2.51,3.72,4.83,0,.03,0,.07-.01.1,2.29.46,4.01,2.48,4.01,4.9Z" style="fill: none; stroke: #fff; stroke-miterlimit: 10; stroke-width: 2px;"/></g></svg></g></g><g dy="1em" alignment-baseline="middle" dominant-baseline="start" text-anchor="start" transform="translate(-33.255438246741264, 173.99569076545046)"><g><rect class="background" style="stroke: none"/><text y="-10.1" style=""><tspan class="text-outer-tspan" x="0" y="-0.1em" dy="1.1em"><tspan font-style="normal" class="text-inner-tspan" font-weight="normal">Right</tspan></tspan></text></g></g></g></g></svg>