<svg id="stress_architecture_batch6_edge_label_wrapping_punct_unicode_085" width="100%" xmlns="http://www.w3.org/2000/svg" xmlns:xlink="http://www.w3.org/1999/xlink" style="max-width: 447.6865539550781px; background-color: white;" viewBox="-158.01492309570312 -65.5 447.6865539550781 262" role="graphics-document document" aria-roledescription="architecture"><style>#stress_architecture_batch6_edge_label_wrapping_punct_unicode_085{font-family:"trebuchet ms",verdana,arial,sans-serif;font-size:16px;fill:#333;}@keyframes edge-animation-frame{from{stroke-dashoffset:0;}}@keyframes dash{to{stroke-dashoffset:0;}}#stress_architecture_batch6_edge_label_wrapping_punct_unicode_085 .edge-animation-slow{stroke-dasharray:9,5!important;stroke-dashoffset:900;animation:dash 50s linear infinite;stroke-linecap:round;}#stress_architecture_batch6_edge_label_wrapping_punct_unicode_085 .edge-animation-fast{stroke-dasharray:9,5!important;stroke-dashoffset:900;animation:dash 20s linear infinite;stroke-linecap:round;}#stress_architecture_batch6_edge_label_wrapping_punct_unicode_085 .error-icon{fill:#552222;}#stress_architecture_batch6_edge_label_wrapping_punct_unicode_085 .error-text{fill:#552222;stroke:#552222;}#stress_architecture_batch6_edge_label_wrapping_punct_unicode_085 .edge-thickness-normal{stroke-width:1px;}#stress_architecture_batch6_edge_label_wrapping_punct_unicode_085 .edge-thickness-thick{stroke-width:3.5px;}#stress_architecture_batch6_edge_label_wrapping_punct_unicode_085 .edge-pattern-solid{stroke-dasharray:0;}#stress_architecture_batch6_edge_label_wrapping_punct_unicode_085 .edge-thickness-invisible{stroke-width:0;fill:none;}#stress_architecture_batch6_edge_label_wrapping_punct_unicode_085 .edge-pattern-dashed{stroke-dasharray:3;}#stress_architecture_batch6_edge_label_wrapping_punct_unicode_085 .edge-pattern-dotted{stroke-dasharray:2;}#stress_architecture_batch6_edge_label_wrapping_punct_unicode_085 .marker{fill:#333333;stroke:#333333;}#stress_architecture_batch6_edge_label_wrapping_punct_unicode_085 .marker.cross{stroke:#333333;}#stress_architecture_batch6_edge_label_wrapping_punct_unicode_085 svg{font-family:"trebuchet ms",verdana,arial,sans-serif;font-size:16px;}#stress_architecture_batch6_edge_label_wrapping_punct_unicode_085 p{margin:0;}#stress_architecture_batch6_edge_label_wrapping_punct_unicode_085 .edge{stroke-width:3;stroke:#333333;fill:none;}#stress_architecture_batch6_edge_label_wrapping_punct_unicode_085 .arrow{fill:#333333;}#stress_architecture_batch6_edge_label_wrapping_punct_unicode_085 .node-bkg{fill:none;stroke:hsl(240, 60%, 86.2745098039%);stroke-width:2px;stroke-dasharray:8;}#stress_architecture_batch6_edge_label_wrapping_punct_unicode_085 .node-icon-text{display:flex;align-items:center;}#stress_architecture_batch6_edge_label_wrapping_punct_unicode_085 .node-icon-text&gt;div{color:#fff;margin:1px;height:fit-content;text-align:center;overflow:hidden;display:-webkit-box;-webkit-box-orient:vertical;}#stress_architecture_batch6_edge_label_wrapping_punct_unicode_085 :root{--mermaid-font-family:"trebuchet ms",verdana,arial,sans-serif;}</style><g/><g class="architecture-edges"><g><path d="M 4.485075679110082,57 L 64.82835855970335,57 L125.17164144029661,57" class="edge" id="L_api_db_0"/><polygon points="13.333333333333334,6.666666666666667 0,13.333333333333334 0,0" transform="translate(113.83830810696328,50.333333333333336)" class="arrow"/><g dy="1em" alignment-baseline="middle" dominant-baseline="middle" text-anchor="middle" transform="translate(64.82835855970335, 57)"><g><rect class="background" style="stroke: none"/><text y="-10.1" style=""><tspan class="text-outer-tspan" x="0" y="-0.1em" dy="1.1em"><tspan font-style="normal" class="text-inner-tspan" font-weight="normal">read</tspan><tspan font-style="normal" class="text-inner-tspan" font-weight="normal"> path</tspan><tspan font-style="normal" class="text-inner-tspan" font-weight="normal"> v1</tspan></tspan><tspan class="text-outer-tspan" x="0" y="1em" dy="1.1em"><tspan font-style="normal" class="text-inner-tspan" font-weight="normal">users</tspan><tspan font-style="normal" class="text-inner-tspan" font-weight="normal"> id</tspan><tspan font-style="normal" class="text-inner-tspan" font-weight="normal"> with</tspan></tspan><tspan class="text-outer-tspan" x="0" y="2.1em" dy="1.1em"><tspan font-style="normal" class="text-inner-tspan" font-weight="normal">many</tspan><tspan font-style="normal" class="text-inner-tspan" font-weight="normal"> words</tspan><tspan font-style="normal" class="text-inner-tspan" font-weight="normal"> for</tspan></tspan><tspan class="text-outer-tspan" x="0" y="3.2em" dy="1.1em"><tspan font-style="normal" class="text-inner-tspan" font-weight="normal">wrapping</tspan></tspan></text></g></g></g><g><path d="M -35.51492432088992,97 L -35.51492432088992,57 L-35.51492432088992,17" class="edge" id="L_api_cache_0"/><polygon points="0,0 13.333333333333334,0 6.666666666666667,13.333333333333334" transform="translate(-42.18159098755658,5.666666666666666)" class="arrow"/><g dy="1em" alignment-baseline="middle" dominant-baseline="middle" text-anchor="middle" transform="translate(-35.51492432088992, 57) rotate(-90)"><g><rect class="background" style="stroke: none"/><text y="-10.1" style=""><tspan class="text-outer-tspan" x="0" y="-0.1em" dy="1.1em"><tspan font-style="normal" class="text-inner-tspan" font-weight="normal">write</tspan></tspan><tspan class="text-outer-tspan" x="0" y="1em" dy="1.1em"><tspan font-style="normal" class="text-inner-tspan" font-weight="normal">then</tspan></tspan><tspan class="text-outer-tspan" x="0" y="2.1em" dy="1.1em"><tspan font-style="normal" class="text-inner-tspan" font-weight="normal">invalid</tspan></tspan><tspan class="text-outer-tspan" x="0" y="3.2em" dy="1.1em"><tspan font-style="normal" class="text-inner-tspan" font-weight="normal">ate</tspan></tspan><tspan class="text-outer-tspan" x="0" y="4.300000000000001em" dy="1.1em"><tspan font-style="normal" class="text-inner-tspan" font-weight="normal">cache</tspan></tspan><tspan class="text-outer-tspan" x="0" y="5.4em" dy="1.1em"><tspan font-style="normal" class="text-inner-tspan" font-weight="normal">ttl</tspan><tspan font-style="normal" class="text-inner-tspan" font-weight="normal"> 30s</tspan></tspan><tspan class="text-outer-tspan" x="0" y="6.500000000000001em" dy="1.1em"><tspan font-style="normal" class="text-inner-tspan" font-weight="normal">retries</tspan></tspan><tspan class="text-outer-tspan" x="0" y="7.600000000000001em" dy="1.1em"><tspan font-style="normal" class="text-inner-tspan" font-weight="normal">3</tspan><tspan font-style="normal" class="text-inner-tspan" font-weight="normal"> extra</tspan></tspan><tspan class="text-outer-tspan" x="0" y="8.700000000000001em" dy="1.1em"><tspan font-style="normal" class="text-inner-tspan" font-weight="normal">words</tspan></tspan></text></g></g></g><g><path d="M 4.485075679110082,57 L 64.82835855970335,57 L125.17164144029661,57" class="edge" id="L_cache_db_0"/><polygon points="13.333333333333334,6.666666666666667 0,13.333333333333334 0,0" transform="translate(113.83830810696328,50.333333333333336)" class="arrow"/><g dy="1em" alignment-baseline="middle" dominant-baseline="middle" text-anchor="middle" transform="translate(64.82835855970335, 57)"><g><rect class="background" style="stroke: none"/><text y="-10.1" style=""><tspan class="text-outer-tspan" x="0" y="-0.1em" dy="1.1em"><tspan font-style="normal" class="text-inner-tspan" font-weight="normal">refresh</tspan><tspan font-style="normal" class="text-inner-tspan" font-weight="normal"> cache</tspan></tspan><tspan class="text-outer-tspan" x="0" y="1em" dy="1.1em"><tspan font-style="normal" class="text-inner-tspan" font-weight="normal">from</tspan><tspan font-style="normal" class="text-inner-tspan" font-weight="normal"> db</tspan><tspan font-style="normal" class="text-inner-tspan" font-weight="normal"> delta</tspan><tspan font-style="normal" class="text-inner-tspan" font-weight="normal"> 0</tspan></tspan><tspan class="text-outer-tspan" x="0" y="2.1em" dy="1.1em"><tspan font-style="normal" class="text-inner-tspan" font-weight="normal">05</tspan><tspan font-style="normal" class="text-inner-tspan" font-weight="normal"> wrap</tspan><tspan font-style="normal" class="text-inner-tspan" font-weight="normal"> words</tspan></tspan></text></g></g></g></g><g class="architecture-services"><g id="service-api" class="architecture-service" transform="translate(-75.51492432088992,17)"><g dy="1em" alignment-baseline="middle" dominant-baseline="middle" text-anchor="middle" transform="translate(40, 80)"><g><rect class="background" style="stroke: none"/><text y="-10.1" style=""><tspan class="text-outer-tspan" x="0" y="-0.1em" dy="1.1em"><tspan font-style="normal" class="text-inner-tspan" font-weight="normal">API</tspan></tspan></text></g></g><g><g><svg xmlns="http://www.w3.org/2000/svg" width="80" height="80" viewBox="0 0 80 80"><g><rect width="80" height="80" style="fill: #087ebf; stroke-width: 0px;"/><rect x="17.5" y="17.5" width="45" height="45" rx="2" ry="2" style="fill: none; stroke: #fff; stroke-miterlimit: 10; stroke-width: 2px;"/><line x1="17.5" y1="32.5" x2="62.5" y2="32.5" style="fill: none; stroke: #fff; stroke-miterlimit: 10; stroke-width: 2px;"/><line x1="17.5" y1="47.5" x2="62.5" y2="47.5" style="fill: none; stroke: #fff; stroke-miterlimit: 10; stroke-width: 2px;"/><g><path d="m56.25,25c0,.27-.45.5-1,.5h-10.5c-.55,0-1-.23-1-.5s.45-.5,1-.5h10.5c.55,0,1,.23,1,.5Z" style="fill: #fff; stroke-width: 0px;"/><path d="m56.25,25c0,.27-.45.5-1,.5h-10.5c-.55,0-1-.23-1-.5s.45-.5,1-.5h10.5c.55,0,1,.23,1,.5Z" style="fill: none; stroke: #fff; stroke-miterlimit: 10;"/></g><g><path d="m56.25,40c0,.27-.45.5-1,.5h-10.5c-.55,0-1-.23-1-.5s.45-.5,1-.5h10.5c.55,0,1,.23,1,.5Z" style="fill: #fff; stroke-width: 0px;"/><path d="m56.25,40c0,.27-.45.5-1,.5h-10.5c-.55,0-1-.23-1-.5s.45-.5,1-.5h10.5c.55,0,1,.23,1,.5Z" style="fill: none; stroke: #fff; stroke-miterlimit: 10;"/></g><g><path d="m56.25,55c0,.27-.45.5-1,.5h-10.5c-.55,0-1-.23-1-.5s.45-.5,1-.5h10.5c.55,0,1,.23,1,.5Z" style="fill: #fff; stroke-width: 0px;"/><path d="m56.25,55c0,.27-.45.5-1,.5h-10.5c-.55,0-1-.23-1-.5s.45-.5,1-.5h10.5c.55,0,1,.23,1,.5Z" style="fill: none; stroke: #fff; stroke-miterlimit: 10;"/></g><g><circle cx="32.5" cy="25" r=".75" style="fill: #fff; stroke: #fff; stroke-miterlimit: 10;"/><circle cx="27.5" cy="25" r=".75" style="fill: #fff; stroke: #fff; stroke-miterlimit: 10;"/><circle cx="22.5" cy="25" r=".75" style="fill: #fff; stroke: #fff; stroke-miterlimit: 10;"/></g><g><circle cx="32.5" cy="40" r=".75" style="fill: #fff; stroke: #fff; stroke-miterlimit: 10;"/><circle cx="27.5" cy="40" r=".75" style="fill: #fff; stroke: #fff; stroke-miterlimit: 10;"/><circle cx="22.5" cy="40" r=".75" style="fill: #fff; stroke: #fff; stroke-miterlimit: 10;"/></g><g><circle cx="32.5" cy="55" r=".75" style="fill: #fff; stroke: #fff; stroke-miterlimit: 10;"/><circle cx="27.5" cy="55" r=".75" style="fill: #fff; stroke: #fff; stroke-miterlimit: 10;"/><circle cx="22.5" cy="55" r=".75" style="fill: #fff; stroke: #fff; stroke-miterlimit: 10;"/></g></g></svg></g></g></g><g id="service-db" class="architecture-service" transform="translate(125.17164144029661,17)"><g dy="1em" alignment-baseline="middle" dominant-baseline="middle" text-anchor="middle" transform="translate(40, 80)"><g><rect class="background" style="stroke: none"/><text y="-10.1" style=""><tspan class="text-outer-tspan" x="0" y="-0.1em" dy="1.1em"><tspan font-style="normal" class="text-inner-tspan" font-weight="normal">Primary</tspan><tspan font-style="normal" class="text-inner-tspan" font-weight="normal"> DB</tspan></tspan></text></g></g><g><g><svg xmlns="http://www.w3.org/2000/svg" width="80" height="80" viewBox="0 0 80 80"><g><rect width="80" height="80" style="fill: #087ebf; stroke-width: 0px;"/><path id="IconifyId19c6aa683ac47e4ce0" data-name="4" d="m20,57.86c0,3.94,8.95,7.14,20,7.14s20-3.2,20-7.14" style="fill: none; stroke: #fff; stroke-miterlimit: 10; stroke-width: 2px;"/><path id="IconifyId19c6aa683ac47e4ce1" data-name="3" d="m20,45.95c0,3.94,8.95,7.14,20,7.14s20-3.2,20-7.14" style="fill: none; stroke: #fff; stroke-miterlimit: 10; stroke-width: 2px;"/><path id="IconifyId19c6aa683ac47e4ce2" data-name="2" d="m20,34.05c0,3.94,8.95,7.14,20,7.14s20-3.2,20-7.14" style="fill: none; stroke: #fff; stroke-miterlimit: 10; stroke-width: 2px;"/><ellipse id="IconifyId19c6aa683ac47e4ce3" data-name="1" cx="40" cy="22.14" rx="20" ry="7.14" style="fill: none; stroke: #fff; stroke-miterlimit: 10; stroke-width: 2px;"/><line x1="20" y1="57.86" x2="20" y2="22.14" style="fill: none; stroke: #fff; stroke-miterlimit: 10; stroke-width: 2px;"/><line x1="60" y1="57.86" x2="60" y2="22.14" style="fill: none; stroke: #fff; stroke-miterlimit: 10; stroke-width: 2px;"/></g></svg></g></g></g><g id="service-cache" class="architecture-service" transform="translate(-75.51492432088992,17)"><g dy="1em" alignment-baseline="middle" dominant-baseline="middle" text-anchor="middle" transform="translate(40, 80)"><g><rect class="background" style="stroke: none"/><text y="-10.1" style=""><tspan class="text-outer-tspan" x="0" y="-0.1em" dy="1.1em"><tspan font-style="normal" class="text-inner-tspan" font-weight="normal">Cache</tspan></tspan></text></g></g><g><g><svg xmlns="http://www.w3.org/2000/svg" width="80" height="80" viewBox="0 0 80 80"><g><rect width="80" height="80" style="fill: #087ebf; stroke-width: 0px;"/><path id="IconifyId19c6aa683ac47e4ce4" data-name="4" d="m20,57.86c0,3.94,8.95,7.14,20,7.14s20-3.2,20-7.14" style="fill: none; stroke: #fff; stroke-miterlimit: 10; stroke-width: 2px;"/><path id="IconifyId19c6aa683ac47e4ce5" data-name="3" d="m20,45.95c0,3.94,8.95,7.14,20,7.14s20-3.2,20-7.14" style="fill: none; stroke: #fff; stroke-miterlimit: 10; stroke-width: 2px;"/><path id="IconifyId19c6aa683ac47e4ce6" data-name="2" d="m20,34.05c0,3.94,8.95,7.14,20,7.14s20-3.2,20-7.14" style="fill: none; stroke: #fff; stroke-miterlimit: 10; stroke-width: 2px;"/><ellipse id="IconifyId19c6aa683ac47e4ce7" data-name="1" cx="40" cy="22.14" rx="20" ry="7.14" style="fill: none; stroke: #fff; stroke-miterlimit: 10; stroke-width: 2px;"/><line x1="20" y1="57.86" x2="20" y2="22.14" style="fill: none; stroke: #fff; stroke-miterlimit: 10; stroke-width: 2px;"/><line x1="60" y1="57.86" x2="60" y2="22.14" style="fill: none; stroke: #fff; stroke-miterlimit: 10; stroke-width: 2px;"/></g></svg></g></g></g></g><g class="architecture-groups"><rect id="group-app" x="-118.01492432088992" y="-25.5" width="367.68656576118656" height="182" class="node-bkg"/><g><g transform="translate(-117.01492432088992, -24.5)"><g><svg xmlns="http://www.w3.org/2000/svg" width="30" height="30" viewBox="0 0 80 80"><g><rect width="80" height="80" style="fill: #087ebf; stroke-width: 0px;"/><path d="m65,47.5c0,2.76-2.24,5-5,5H20c-2.76,0-5-2.24-5-5,0-1.87,1.03-3.51,2.56-4.36-.04-.21-.06-.42-.06-.64,0-2.6,2.48-4.74,5.65-4.97,1.65-4.51,6.34-7.76,11.85-7.76.86,0,1.69.08,2.5.23,2.09-1.57,4.69-2.5,7.5-2.5,6.1,0,11.19,4.38,12.28,10.17,2.14.56,3.72,2.51,3.72,4.83,0,.03,0,.07-.01.1,2.29.46,4.01,2.48,4.01,4.9Z" style="fill: none; stroke: #fff; stroke-miterlimit: 10; stroke-width: 2px;"/></g></svg></g></g><g dy="1em" alignment-baseline="middle" dominant-baseline="start" text-anchor="start" transform="translate(-84.01492432088992, -18.5)"><g><rect class="background" style="stroke: none"/><text y="-10.1" style=""><tspan class="text-outer-tspan" x="0" y="-0.1em" dy="1.1em"><tspan font-style="normal" class="text-inner-tspan" font-weight="normal">Application</tspan></tspan></text></g></g></g></g></svg>