<svg id="stress_architecture_batch5_nested_groups_many_levels_081" width="100%" xmlns="http://www.w3.org/2000/svg" xmlns:xlink="http://www.w3.org/1999/xlink" style="max-width: 612.09423828125px; background-color: white;" viewBox="-266.04710388183594 -316.86309814453125 612.09423828125 770.7261962890625" role="graphics-document document" aria-roledescription="architecture"><style>#stress_architecture_batch5_nested_groups_many_levels_081{font-family:"trebuchet ms",verdana,arial,sans-serif;font-size:16px;fill:#333;}@keyframes edge-animation-frame{from{stroke-dashoffset:0;}}@keyframes dash{to{stroke-dashoffset:0;}}#stress_architecture_batch5_nested_groups_many_levels_081 .edge-animation-slow{stroke-dasharray:9,5!important;stroke-dashoffset:900;animation:dash 50s linear infinite;stroke-linecap:round;}#stress_architecture_batch5_nested_groups_many_levels_081 .edge-animation-fast{stroke-dasharray:9,5!important;stroke-dashoffset:900;animation:dash 20s linear infinite;stroke-linecap:round;}#stress_architecture_batch5_nested_groups_many_levels_081 .error-icon{fill:#552222;}#stress_architecture_batch5_nested_groups_many_levels_081 .error-text{fill:#552222;stroke:#552222;}#stress_architecture_batch5_nested_groups_many_levels_081 .edge-thickness-normal{stroke-width:1px;}#stress_architecture_batch5_nested_groups_many_levels_081 .edge-thickness-thick{stroke-width:3.5px;}#stress_architecture_batch5_nested_groups_many_levels_081 .edge-pattern-solid{stroke-dasharray:0;}#stress_architecture_batch5_nested_groups_many_levels_081 .edge-thickness-invisible{stroke-width:0;fill:none;}#stress_architecture_batch5_nested_groups_many_levels_081 .edge-pattern-dashed{stroke-dasharray:3;}#stress_architecture_batch5_nested_groups_many_levels_081 .edge-pattern-dotted{stroke-dasharray:2;}#stress_architecture_batch5_nested_groups_many_levels_081 .marker{fill:#333333;stroke:#333333;}#stress_architecture_batch5_nested_groups_many_levels_081 .marker.cross{stroke:#333333;}#stress_architecture_batch5_nested_groups_many_levels_081 svg{font-family:"trebuchet ms",verdana,arial,sans-serif;font-size:16px;}#stress_architecture_batch5_nested_groups_many_levels_081 p{margin:0;}#stress_architecture_batch5_nested_groups_many_levels_081 .edge{stroke-width:3;stroke:#333333;fill:none;}#stress_architecture_batch5_nested_groups_many_levels_081 .arrow{fill:#333333;}#stress_architecture_batch5_nested_groups_many_levels_081 .node-bkg{fill:none;stroke:hsl(240, 60%, 86.2745098039%);stroke-width:2px;stroke-dasharray:8;}#stress_architecture_batch5_nested_groups_many_levels_081 .node-icon-text{display:flex;align-items:center;}#stress_architecture_batch5_nested_groups_many_levels_081 .node-icon-text&gt;div{color:#fff;margin:1px;height:fit-content;text-align:center;overflow:hidden;display:-webkit-box;-webkit-box-orient:vertical;}#stress_architecture_batch5_nested_groups_many_levels_081 :root{--mermaid-font-family:"trebuchet ms",verdana,arial,sans-serif;}</style><g/><g class="architecture-edges"><g><path d="M 140.5471077142543,-154.36309265351315 L 40,-88.45932243119069 L-60.54710771425431,-22.55555220886822" class="edge" id="L_s_top_s_mid_0"/><polygon points="0,0 13.333333333333334,0 6.666666666666667,13.333333333333334" transform="translate(-67.21377438092098,-33.88888554220156)" class="arrow"/></g><g><path d="M -60.54710771425431,57.44444779113178 L -60.54710771425431,124.40377022232244 L-60.54710771425431,191.3630926535131" class="edge" id="L_s_mid_s_low_0"/><polygon points="0,0 13.333333333333334,0 6.666666666666667,13.333333333333334" transform="translate(-67.21377438092098,180.02975932017975)" class="arrow"/></g><g><path d="M -20.54710771425431,231.3630926535131 L 40,231.3630926535131 L100.54710771425431,231.3630926535131" class="edge" id="L_s_low_db_0"/><polygon points="13.333333333333334,6.666666666666667 0,13.333333333333334 0,0" transform="translate(89.21377438092098,224.69642598684644)" class="arrow"/></g><g><path d="M 140.5471077142543,191.3630926535131 L 140.5471077142543,18.49999999999997 L140.5471077142543,-154.36309265351315" class="edge" id="L_db_s_top_0"/><polygon points="6.666666666666667,0 13.333333333333334,13.333333333333334 0,13.333333333333334" transform="translate(133.88044104758765,-156.36309265351315)" class="arrow"/></g></g><g class="architecture-services"><g id="service-s_top" class="architecture-service" transform="translate(100.54710771425431,-234.36309265351315)"><g dy="1em" alignment-baseline="middle" dominant-baseline="middle" text-anchor="middle" transform="translate(40, 80)"><g><rect class="background" style="stroke: none"/><text y="-10.1" style=""><tspan class="text-outer-tspan" x="0" y="-0.1em" dy="1.1em"><tspan font-style="normal" class="text-inner-tspan" font-weight="normal">S</tspan><tspan font-style="normal" class="text-inner-tspan" font-weight="normal"> TOP</tspan></tspan></text></g></g><g><g><svg xmlns="http://www.w3.org/2000/svg" width="80" height="80" viewBox="0 0 80 80"><g><rect width="80" height="80" style="fill: #087ebf; stroke-width: 0px;"/><rect x="17.5" y="17.5" width="45" height="45" rx="2" ry="2" style="fill: none; stroke: #fff; stroke-miterlimit: 10; stroke-width: 2px;"/><line x1="17.5" y1="32.5" x2="62.5" y2="32.5" style="fill: none; stroke: #fff; stroke-miterlimit: 10; stroke-width: 2px;"/><line x1="17.5" y1="47.5" x2="62.5" y2="47.5" style="fill: none; stroke: #fff; stroke-miterlimit: 10; stroke-width: 2px;"/><g><path d="m56.25,25c0,.27-.45.5-1,.5h-10.5c-.55,0-1-.23-1-.5s.45-.5,1-.5h10.5c.55,0,1,.23,1,.5Z" style="fill: #fff; stroke-width: 0px;"/><path d="m56.25,25c0,.27-.45.5-1,.5h-10.5c-.55,0-1-.23-1-.5s.45-.5,1-.5h10.5c.55,0,1,.23,1,.5Z" style="fill: none; stroke: #fff; stroke-miterlimit: 10;"/></g><g><path d="m56.25,40c0,.27-.45.5-1,.5h-10.5c-.55,0-1-.23-1-.5s.45-.5,1-.5h10.5c.55,0,1,.23,1,.5Z" style="fill: #fff; stroke-width: 0px;"/><path d="m56.25,40c0,.27-.45.5-1,.5h-10.5c-.55,0-1-.23-1-.5s.45-.5,1-.5h10.5c.55,0,1,.23,1,.5Z" style="fill: none; stroke: #fff; stroke-miterlimit: 10;"/></g><g><path d="m56.25,55c0,.27-.45.5-1,.5h-10.5c-.55,0-1-.23-1-.5s.45-.5,1-.5h10.5c.55,0,1,.23,1,.5Z" style="fill: #fff; stroke-width: 0px;"/><path d="m56.25,55c0,.27-.45.5-1,.5h-10.5c-.55,0-1-.23-1-.5s.45-.5,1-.5h10.5c.55,0,1,.23,1,.5Z" style="fill: none; stroke: #fff; stroke-miterlimit: 10;"/></g><g><circle cx="32.5" cy="25" r=".75" style="fill: #fff; stroke: #fff; stroke-miterlimit: 10;"/><circle cx="27.5" cy="25" r=".75" style="fill: #fff; stroke: #fff; stroke-miterlimit: 10;"/><circle cx="22.5" cy="25" r=".75" style="fill: #fff; stroke: #fff; stroke-miterlimit: 10;"/></g><g><circle cx="32.5" cy="40" r=".75" style="fill: #fff; stroke: #fff; stroke-miterlimit: 10;"/><circle cx="27.5" cy="40" r=".75" style="fill: #fff; stroke: #fff; stroke-miterlimit: 10;"/><circle cx="22.5" cy="40" r=".75" style="fill: #fff; stroke: #fff; stroke-miterlimit: 10;"/></g><g><circle cx="32.5" cy="55" r=".75" style="fill: #fff; stroke: #fff; stroke-miterlimit: 10;"/><circle cx="27.5" cy="55" r=".75" style="fill: #fff; stroke: #fff; stroke-miterlimit: 10;"/><circle cx="22.5" cy="55" r=".75" style="fill: #fff; stroke: #fff; stroke-miterlimit: 10;"/></g></g></svg></g></g></g><g id="service-s_mid" class="architecture-service" transform="translate(-100.54710771425431,-22.55555220886822)"><g dy="1em" alignment-baseline="middle" dominant-baseline="middle" text-anchor="middle" transform="translate(40, 80)"><g><rect class="background" style="stroke: none"/><text y="-10.1" style=""><tspan class="text-outer-tspan" x="0" y="-0.1em" dy="1.1em"><tspan font-style="normal" class="text-inner-tspan" font-weight="normal">S</tspan><tspan font-style="normal" class="text-inner-tspan" font-weight="normal"> MID</tspan></tspan></text></g></g><g><g><svg xmlns="http://www.w3.org/2000/svg" width="80" height="80" viewBox="0 0 80 80"><g><rect width="80" height="80" style="fill: #087ebf; stroke-width: 0px;"/><rect x="17.5" y="17.5" width="45" height="45" rx="2" ry="2" style="fill: none; stroke: #fff; stroke-miterlimit: 10; stroke-width: 2px;"/><line x1="17.5" y1="32.5" x2="62.5" y2="32.5" style="fill: none; stroke: #fff; stroke-miterlimit: 10; stroke-width: 2px;"/><line x1="17.5" y1="47.5" x2="62.5" y2="47.5" style="fill: none; stroke: #fff; stroke-miterlimit: 10; stroke-width: 2px;"/><g><path d="m56.25,25c0,.27-.45.5-1,.5h-10.5c-.55,0-1-.23-1-.5s.45-.5,1-.5h10.5c.55,0,1,.23,1,.5Z" style="fill: #fff; stroke-width: 0px;"/><path d="m56.25,25c0,.27-.45.5-1,.5h-10.5c-.55,0-1-.23-1-.5s.45-.5,1-.5h10.5c.55,0,1,.23,1,.5Z" style="fill: none; stroke: #fff; stroke-miterlimit: 10;"/></g><g><path d="m56.25,40c0,.27-.45.5-1,.5h-10.5c-.55,0-1-.23-1-.5s.45-.5,1-.5h10.5c.55,0,1,.23,1,.5Z" style="fill: #fff; stroke-width: 0px;"/><path d="m56.25,40c0,.27-.45.5-1,.5h-10.5c-.55,0-1-.23-1-.5s.45-.5,1-.5h10.5c.55,0,1,.23,1,.5Z" style="fill: none; stroke: #fff; stroke-miterlimit: 10;"/></g><g><path d="m56.25,55c0,.27-.45.5-1,.5h-10.5c-.55,0-1-.23-1-.5s.45-.5,1-.5h10.5c.55,0,1,.23,1,.5Z" style="fill: #fff; stroke-width: 0px;"/><path d="m56.25,55c0,.27-.45.5-1,.5h-10.5c-.55,0-1-.23-1-.5s.45-.5,1-.5h10.5c.55,0,1,.23,1,.5Z" style="fill: none; stroke: #fff; stroke-miterlimit: 10;"/></g><g><circle cx="32.5" cy="25" r=".75" style="fill: #fff; stroke: #fff; stroke-miterlimit: 10;"/><circle cx="27.5" cy="25" r=".75" style="fill: #fff; stroke: #fff; stroke-miterlimit: 10;"/><circle cx="22.5" cy="25" r=".75" style="fill: #fff; stroke: #fff; stroke-miterlimit: 10;"/></g><g><circle cx="32.5" cy="40" r=".75" style="fill: #fff; stroke: #fff; stroke-miterlimit: 10;"/><circle cx="27.5" cy="40" r=".75" style="fill: #fff; stroke: #fff; stroke-miterlimit: 10;"/><circle cx="22.5" cy="40" r=".75" style="fill: #fff; stroke: #fff; stroke-miterlimit: 10;"/></g><g><circle cx="32.5" cy="55" r=".75" style="fill: #fff; stroke: #fff; stroke-miterlimit: 10;"/><circle cx="27.5" cy="55" r=".75" style="fill: #fff; stroke: #fff; stroke-miterlimit: 10;"/><circle cx="22.5" cy="55" r=".75" style="fill: #fff; stroke: #fff; stroke-miterlimit: 10;"/></g></g></svg></g></g></g><g id="service-s_low" class="architecture-service" transform="translate(-100.54710771425431,191.3630926535131)"><g dy="1em" alignment-baseline="middle" dominant-baseline="middle" text-anchor="middle" transform="translate(40, 80)"><g><rect class="background" style="stroke: none"/><text y="-10.1" style=""><tspan class="text-outer-tspan" x="0" y="-0.1em" dy="1.1em"><tspan font-style="normal" class="text-inner-tspan" font-weight="normal">S</tspan><tspan font-style="normal" class="text-inner-tspan" font-weight="normal"> LOW</tspan></tspan></text></g></g><g><g><svg xmlns="http://www.w3.org/2000/svg" width="80" height="80" viewBox="0 0 80 80"><g><rect width="80" height="80" style="fill: #087ebf; stroke-width: 0px;"/><rect x="17.5" y="17.5" width="45" height="45" rx="2" ry="2" style="fill: none; stroke: #fff; stroke-miterlimit: 10; stroke-width: 2px;"/><line x1="17.5" y1="32.5" x2="62.5" y2="32.5" style="fill: none; stroke: #fff; stroke-miterlimit: 10; stroke-width: 2px;"/><line x1="17.5" y1="47.5" x2="62.5" y2="47.5" style="fill: none; stroke: #fff; stroke-miterlimit: 10; stroke-width: 2px;"/><g><path d="m56.25,25c0,.27-.45.5-1,.5h-10.5c-.55,0-1-.23-1-.5s.45-.5,1-.5h10.5c.55,0,1,.23,1,.5Z" style="fill: #fff; stroke-width: 0px;"/><path d="m56.25,25c0,.27-.45.5-1,.5h-10.5c-.55,0-1-.23-1-.5s.45-.5,1-.5h10.5c.55,0,1,.23,1,.5Z" style="fill: none; stroke: #fff; stroke-miterlimit: 10;"/></g><g><path d="m56.25,40c0,.27-.45.5-1,.5h-10.5c-.55,0-1-.23-1-.5s.45-.5,1-.5h10.5c.55,0,1,.23,1,.5Z" style="fill: #fff; stroke-width: 0px;"/><path d="m56.25,40c0,.27-.45.5-1,.5h-10.5c-.55,0-1-.23-1-.5s.45-.5,1-.5h10.5c.55,0,1,.23,1,.5Z" style="fill: none; stroke: #fff; stroke-miterlimit: 10;"/></g><g><path d="m56.25,55c0,.27-.45.5-1,.5h-10.5c-.55,0-1-.23-1-.5s.45-.5,1-.5h10.5c.55,0,1,.23,1,.5Z" style="fill: #fff; stroke-width: 0px;"/><path d="m56.25,55c0,.27-.45.5-1,.5h-10.5c-.55,0-1-.23-1-.5s.45-.5,1-.5h10.5c.55,0,1,.23,1,.5Z" style="fill: none; stroke: #fff; stroke-miterlimit: 10;"/></g><g><circle cx="32.5" cy="25" r=".75" style="fill: #fff; stroke: #fff; stroke-miterlimit: 10;"/><circle cx="27.5" cy="25" r=".75" style="fill: #fff; stroke: #fff; stroke-miterlimit: 10;"/><circle cx="22.5" cy="25" r=".75" style="fill: #fff; stroke: #fff; stroke-miterlimit: 10;"/></g><g><circle cx="32.5" cy="40" r=".75" style="fill: #fff; stroke: #fff; stroke-miterlimit: 10;"/><circle cx="27.5" cy="40" r=".75" style="fill: #fff; stroke: #fff; stroke-miterlimit: 10;"/><circle cx="22.5" cy="40" r=".75" style="fill: #fff; stroke: #fff; stroke-miterlimit: 10;"/></g><g><circle cx="32.5" cy="55" r=".75" style="fill: #fff; stroke: #fff; stroke-miterlimit: 10;"/><circle cx="27.5" cy="55" r=".75" style="fill: #fff; stroke: #fff; stroke-miterlimit: 10;"/><circle cx="22.5" cy="55" r=".75" style="fill: #fff; stroke: #fff; stroke-miterlimit: 10;"/></g></g></svg></g></g></g><g id="service-db" class="architecture-service" transform="translate(100.54710771425431,191.3630926535131)"><g dy="1em" alignment-baseline="middle" dominant-baseline="middle" text-anchor="middle" transform="translate(40, 80)"><g><rect class="background" style="stroke: none"/><text y="-10.1" style=""><tspan class="text-outer-tspan" x="0" y="-0.1em" dy="1.1em"><tspan font-style="normal" class="text-inner-tspan" font-weight="normal">DB</tspan></tspan></text></g></g><g><g><svg xmlns="http://www.w3.org/2000/svg" width="80" height="80" viewBox="0 0 80 80"><g><rect width="80" height="80" style="fill: #087ebf; stroke-width: 0px;"/><path id="IconifyId19c69e6471f47e4ce0" data-name="4" d="m20,57.86c0,3.94,8.95,7.14,20,7.14s20-3.2,20-7.14" style="fill: none; stroke: #fff; stroke-miterlimit: 10; stroke-width: 2px;"/><path id="IconifyId19c69e6471f47e4ce1" data-name="3" d="m20,45.95c0,3.94,8.95,7.14,20,7.14s20-3.2,20-7.14" style="fill: none; stroke: #fff; stroke-miterlimit: 10; stroke-width: 2px;"/><path id="IconifyId19c69e6471f47e4ce2" data-name="2" d="m20,34.05c0,3.94,8.95,7.14,20,7.14s20-3.2,20-7.14" style="fill: none; stroke: #fff; stroke-miterlimit: 10; stroke-width: 2px;"/><ellipse id="IconifyId19c69e6471f47e4ce3" data-name="1" cx="40" cy="22.14" rx="20" ry="7.14" style="fill: none; stroke: #fff; stroke-miterlimit: 10; stroke-width: 2px;"/><line x1="20" y1="57.86" x2="20" y2="22.14" style="fill: none; stroke: #fff; stroke-miterlimit: 10; stroke-width: 2px;"/><line x1="60" y1="57.86" x2="60" y2="22.14" style="fill: none; stroke: #fff; stroke-miterlimit: 10; stroke-width: 2px;"/></g></svg></g></g></g></g><g class="architecture-groups"><rect id="group-top" x="-226.0471077142543" y="-276.86309265351315" width="532.0942154285086" height="690.7261853070263" class="node-bkg"/><g><g transform="translate(-225.0471077142543, -275.86309265351315)"><g><svg xmlns="http://www.w3.org/2000/svg" width="30" height="30" viewBox="0 0 80 80"><g><rect width="80" height="80" style="fill: #087ebf; stroke-width: 0px;"/><path d="m65,47.5c0,2.76-2.24,5-5,5H20c-2.76,0-5-2.24-5-5,0-1.87,1.03-3.51,2.56-4.36-.04-.21-.06-.42-.06-.64,0-2.6,2.48-4.74,5.65-4.97,1.65-4.51,6.34-7.76,11.85-7.76.86,0,1.69.08,2.5.23,2.09-1.57,4.69-2.5,7.5-2.5,6.1,0,11.19,4.38,12.28,10.17,2.14.56,3.72,2.51,3.72,4.83,0,.03,0,.07-.01.1,2.29.46,4.01,2.48,4.01,4.9Z" style="fill: none; stroke: #fff; stroke-miterlimit: 10; stroke-width: 2px;"/></g></svg></g></g><g dy="1em" alignment-baseline="middle" dominant-baseline="start" text-anchor="start" transform="translate(-192.0471077142543, -269.86309265351315)"><g><rect class="background" style="stroke: none"/><text y="-10.1" style=""><tspan class="text-outer-tspan" x="0" y="-0.1em" dy="1.1em"><tspan font-style="normal" class="text-inner-tspan" font-weight="normal">TOP</tspan></tspan></text></g></g></g><rect id="group-mid" x="-184.5471077142543" y="-65.05555220886822" width="449.0942154285086" height="437.4186448623813" class="node-bkg"/><g><g transform="translate(-183.5471077142543, -64.05555220886822)"><g><svg xmlns="http://www.w3.org/2000/svg" width="30" height="30" viewBox="0 0 80 80"><g><rect width="80" height="80" style="fill: #087ebf; stroke-width: 0px;"/><path d="m65,47.5c0,2.76-2.24,5-5,5H20c-2.76,0-5-2.24-5-5,0-1.87,1.03-3.51,2.56-4.36-.04-.21-.06-.42-.06-.64,0-2.6,2.48-4.74,5.65-4.97,1.65-4.51,6.34-7.76,11.85-7.76.86,0,1.69.08,2.5.23,2.09-1.57,4.69-2.5,7.5-2.5,6.1,0,11.19,4.38,12.28,10.17,2.14.56,3.72,2.51,3.72,4.83,0,.03,0,.07-.01.1,2.29.46,4.01,2.48,4.01,4.9Z" style="fill: none; stroke: #fff; stroke-miterlimit: 10; stroke-width: 2px;"/></g></svg></g></g><g dy="1em" alignment-baseline="middle" dominant-baseline="start" text-anchor="start" transform="translate(-150.5471077142543, -58.05555220886822)"><g><rect class="background" style="stroke: none"/><text y="-10.1" style=""><tspan class="text-outer-tspan" x="0" y="-0.1em" dy="1.1em"><tspan font-style="normal" class="text-inner-tspan" font-weight="normal">MID</tspan></tspan></text></g></g></g><rect id="group-low" x="-143.0471077142543" y="148.8630926535131" width="366.0942154285086" height="182" class="node-bkg"/><g><g transform="translate(-142.0471077142543, 149.8630926535131)"><g><svg xmlns="http://www.w3.org/2000/svg" width="30" height="30" viewBox="0 0 80 80"><g><rect width="80" height="80" style="fill: #087ebf; stroke-width: 0px;"/><path d="m65,47.5c0,2.76-2.24,5-5,5H20c-2.76,0-5-2.24-5-5,0-1.87,1.03-3.51,2.56-4.36-.04-.21-.06-.42-.06-.64,0-2.6,2.48-4.74,5.65-4.97,1.65-4.51,6.34-7.76,11.85-7.76.86,0,1.69.08,2.5.23,2.09-1.57,4.69-2.5,7.5-2.5,6.1,0,11.19,4.38,12.28,10.17,2.14.56,3.72,2.51,3.72,4.83,0,.03,0,.07-.01.1,2.29.46,4.01,2.48,4.01,4.9Z" style="fill: none; stroke: #fff; stroke-miterlimit: 10; stroke-width: 2px;"/></g></svg></g></g><g dy="1em" alignment-baseline="middle" dominant-baseline="start" text-anchor="start" transform="translate(-109.04710771425431, 155.8630926535131)"><g><rect class="background" style="stroke: none"/><text y="-10.1" style=""><tspan class="text-outer-tspan" x="0" y="-0.1em" dy="1.1em"><tspan font-style="normal" class="text-inner-tspan" font-weight="normal">LOW</tspan></tspan></text></g></g></g></g></svg>