<svg id="stress_architecture_group_to_group_labeled_ports_039" width="100%" xmlns="http://www.w3.org/2000/svg" xmlns:xlink="http://www.w3.org/1999/xlink" style="max-width: 918.171875px; background-color: white;" viewBox="-419.0859375 -65.5 918.171875 262" role="graphics-document document" aria-roledescription="architecture"><style>#stress_architecture_group_to_group_labeled_ports_039{font-family:"trebuchet ms",verdana,arial,sans-serif;font-size:16px;fill:#333;}@keyframes edge-animation-frame{from{stroke-dashoffset:0;}}@keyframes dash{to{stroke-dashoffset:0;}}#stress_architecture_group_to_group_labeled_ports_039 .edge-animation-slow{stroke-dasharray:9,5!important;stroke-dashoffset:900;animation:dash 50s linear infinite;stroke-linecap:round;}#stress_architecture_group_to_group_labeled_ports_039 .edge-animation-fast{stroke-dasharray:9,5!important;stroke-dashoffset:900;animation:dash 20s linear infinite;stroke-linecap:round;}#stress_architecture_group_to_group_labeled_ports_039 .error-icon{fill:#552222;}#stress_architecture_group_to_group_labeled_ports_039 .error-text{fill:#552222;stroke:#552222;}#stress_architecture_group_to_group_labeled_ports_039 .edge-thickness-normal{stroke-width:1px;}#stress_architecture_group_to_group_labeled_ports_039 .edge-thickness-thick{stroke-width:3.5px;}#stress_architecture_group_to_group_labeled_ports_039 .edge-pattern-solid{stroke-dasharray:0;}#stress_architecture_group_to_group_labeled_ports_039 .edge-thickness-invisible{stroke-width:0;fill:none;}#stress_architecture_group_to_group_labeled_ports_039 .edge-pattern-dashed{stroke-dasharray:3;}#stress_architecture_group_to_group_labeled_ports_039 .edge-pattern-dotted{stroke-dasharray:2;}#stress_architecture_group_to_group_labeled_ports_039 .marker{fill:#333333;stroke:#333333;}#stress_architecture_group_to_group_labeled_ports_039 .marker.cross{stroke:#333333;}#stress_architecture_group_to_group_labeled_ports_039 svg{font-family:"trebuchet ms",verdana,arial,sans-serif;font-size:16px;}#stress_architecture_group_to_group_labeled_ports_039 p{margin:0;}#stress_architecture_group_to_group_labeled_ports_039 .edge{stroke-width:3;stroke:#333333;fill:none;}#stress_architecture_group_to_group_labeled_ports_039 .arrow{fill:#333333;}#stress_architecture_group_to_group_labeled_ports_039 .node-bkg{fill:none;stroke:hsl(240, 60%, 86.2745098039%);stroke-width:2px;stroke-dasharray:8;}#stress_architecture_group_to_group_labeled_ports_039 .node-icon-text{display:flex;align-items:center;}#stress_architecture_group_to_group_labeled_ports_039 .node-icon-text&gt;div{color:#fff;margin:1px;height:fit-content;text-align:center;overflow:hidden;display:-webkit-box;-webkit-box-orient:vertical;}#stress_architecture_group_to_group_labeled_ports_039 :root{--mermaid-font-family:"trebuchet ms",verdana,arial,sans-serif;}</style><g></g><g class="architecture-edges"><g><path d="M -212.58594070539084,56.99999999999999 L -60.34328288059203,56.99999999999999 L91.89937494420678,56.99999999999999" class="edge" id="L_a_c_0"></path><polygon points="13.333333333333334,6.666666666666667 0,13.333333333333334 0,0" transform="translate(80.56604161087346,50.33333333333333)" class="arrow"></polygon><g dy="1em" alignment-baseline="middle" dominant-baseline="middle" text-anchor="middle" transform="translate(-60.34328288059203, 56.99999999999999)"><g><rect class="background" style="stroke: none"></rect><text y="-10.1" style=""><tspan class="text-outer-tspan" x="0" y="-0.1em" dy="1.1em"><tspan font-style="normal" class="text-inner-tspan" font-weight="normal">public</tspan></tspan></text></g></g></g><g><path d="M -11.899374944203146,56.99999999999999 L 140.34328288059385,56.99999999999999 L292.58594070539084,56.99999999999999" class="edge" id="L_b_d_0"></path><polygon points="13.333333333333334,6.666666666666667 0,13.333333333333334 0,0" transform="translate(281.2526073720575,50.33333333333333)" class="arrow"></polygon><g dy="1em" alignment-baseline="middle" dominant-baseline="middle" text-anchor="middle" transform="translate(140.34328288059385, 56.99999999999999)"><g><rect class="background" style="stroke: none"></rect><text y="-10.1" style=""><tspan class="text-outer-tspan" x="0" y="-0.1em" dy="1.1em"><tspan font-style="normal" class="text-inner-tspan" font-weight="normal">private</tspan></tspan></text></g></g></g><g><path d="M -256.58594070539084,56.99999999999999 L -196.242657824797,56.99999999999999 L-135.89937494420317,56.99999999999999" class="edge" id="L_a_b_0"></path><polygon points="13.333333333333334,6.666666666666667 0,13.333333333333334 0,0" transform="translate(-147.23270827753652,50.33333333333333)" class="arrow"></polygon><g dy="1em" alignment-baseline="middle" dominant-baseline="middle" text-anchor="middle" transform="translate(-196.242657824797, 56.99999999999999)"><g><rect class="background" style="stroke: none"></rect><text y="-10.1" style=""><tspan class="text-outer-tspan" x="0" y="-0.1em" dy="1.1em"><tspan font-style="normal" class="text-inner-tspan" font-weight="normal">sidecar</tspan></tspan></text></g></g></g><g><path d="M 215.89937494420678,56.99999999999999 L 276.2426578247988,56.99999999999999 L336.58594070539084,56.99999999999999" class="edge" id="L_c_d_0"></path><polygon points="13.333333333333334,6.666666666666667 0,13.333333333333334 0,0" transform="translate(325.2526073720575,50.33333333333333)" class="arrow"></polygon><g dy="1em" alignment-baseline="middle" dominant-baseline="middle" text-anchor="middle" transform="translate(276.2426578247988, 56.99999999999999)"><g><rect class="background" style="stroke: none"></rect><text y="-10.1" style=""><tspan class="text-outer-tspan" x="0" y="-0.1em" dy="1.1em"><tspan font-style="normal" class="text-inner-tspan" font-weight="normal">replicate</tspan></tspan></text></g></g></g></g><g class="architecture-services"><g id="service-a" class="architecture-service" transform="translate(-336.58594070539084,16.999999999999993)"><g dy="1em" alignment-baseline="middle" dominant-baseline="middle" text-anchor="middle" transform="translate(40, 80)"><g><rect class="background" style="stroke: none"></rect><text y="-10.1" style=""><tspan class="text-outer-tspan" x="0" y="-0.1em" dy="1.1em"><tspan font-style="normal" class="text-inner-tspan" font-weight="normal">A</tspan></tspan></text></g></g><g><g><svg xmlns="http://www.w3.org/2000/svg" width="80" height="80" viewBox="0 0 80 80"><g><rect width="80" height="80" style="fill: #087ebf; stroke-width: 0px;"></rect><rect x="17.5" y="17.5" width="45" height="45" rx="2" ry="2" style="fill: none; stroke: #fff; stroke-miterlimit: 10; stroke-width: 2px;"></rect><line x1="17.5" y1="32.5" x2="62.5" y2="32.5" style="fill: none; stroke: #fff; stroke-miterlimit: 10; stroke-width: 2px;"></line><line x1="17.5" y1="47.5" x2="62.5" y2="47.5" style="fill: none; stroke: #fff; stroke-miterlimit: 10; stroke-width: 2px;"></line><g><path d="m56.25,25c0,.27-.45.5-1,.5h-10.5c-.55,0-1-.23-1-.5s.45-.5,1-.5h10.5c.55,0,1,.23,1,.5Z" style="fill: #fff; stroke-width: 0px;"></path><path d="m56.25,25c0,.27-.45.5-1,.5h-10.5c-.55,0-1-.23-1-.5s.45-.5,1-.5h10.5c.55,0,1,.23,1,.5Z" style="fill: none; stroke: #fff; stroke-miterlimit: 10;"></path></g><g><path d="m56.25,40c0,.27-.45.5-1,.5h-10.5c-.55,0-1-.23-1-.5s.45-.5,1-.5h10.5c.55,0,1,.23,1,.5Z" style="fill: #fff; stroke-width: 0px;"></path><path d="m56.25,40c0,.27-.45.5-1,.5h-10.5c-.55,0-1-.23-1-.5s.45-.5,1-.5h10.5c.55,0,1,.23,1,.5Z" style="fill: none; stroke: #fff; stroke-miterlimit: 10;"></path></g><g><path d="m56.25,55c0,.27-.45.5-1,.5h-10.5c-.55,0-1-.23-1-.5s.45-.5,1-.5h10.5c.55,0,1,.23,1,.5Z" style="fill: #fff; stroke-width: 0px;"></path><path d="m56.25,55c0,.27-.45.5-1,.5h-10.5c-.55,0-1-.23-1-.5s.45-.5,1-.5h10.5c.55,0,1,.23,1,.5Z" style="fill: none; stroke: #fff; stroke-miterlimit: 10;"></path></g><g><circle cx="32.5" cy="25" r=".75" style="fill: #fff; stroke: #fff; stroke-miterlimit: 10;"></circle><circle cx="27.5" cy="25" r=".75" style="fill: #fff; stroke: #fff; stroke-miterlimit: 10;"></circle><circle cx="22.5" cy="25" r=".75" style="fill: #fff; stroke: #fff; stroke-miterlimit: 10;"></circle></g><g><circle cx="32.5" cy="40" r=".75" style="fill: #fff; stroke: #fff; stroke-miterlimit: 10;"></circle><circle cx="27.5" cy="40" r=".75" style="fill: #fff; stroke: #fff; stroke-miterlimit: 10;"></circle><circle cx="22.5" cy="40" r=".75" style="fill: #fff; stroke: #fff; stroke-miterlimit: 10;"></circle></g><g><circle cx="32.5" cy="55" r=".75" style="fill: #fff; stroke: #fff; stroke-miterlimit: 10;"></circle><circle cx="27.5" cy="55" r=".75" style="fill: #fff; stroke: #fff; stroke-miterlimit: 10;"></circle><circle cx="22.5" cy="55" r=".75" style="fill: #fff; stroke: #fff; stroke-miterlimit: 10;"></circle></g></g></svg></g></g></g><g id="service-b" class="architecture-service" transform="translate(-135.89937494420317,16.999999999999993)"><g dy="1em" alignment-baseline="middle" dominant-baseline="middle" text-anchor="middle" transform="translate(40, 80)"><g><rect class="background" style="stroke: none"></rect><text y="-10.1" style=""><tspan class="text-outer-tspan" x="0" y="-0.1em" dy="1.1em"><tspan font-style="normal" class="text-inner-tspan" font-weight="normal">B</tspan></tspan></text></g></g><g><g><svg xmlns="http://www.w3.org/2000/svg" width="80" height="80" viewBox="0 0 80 80"><g><rect width="80" height="80" style="fill: #087ebf; stroke-width: 0px;"></rect><rect x="17.5" y="17.5" width="45" height="45" rx="2" ry="2" style="fill: none; stroke: #fff; stroke-miterlimit: 10; stroke-width: 2px;"></rect><line x1="17.5" y1="32.5" x2="62.5" y2="32.5" style="fill: none; stroke: #fff; stroke-miterlimit: 10; stroke-width: 2px;"></line><line x1="17.5" y1="47.5" x2="62.5" y2="47.5" style="fill: none; stroke: #fff; stroke-miterlimit: 10; stroke-width: 2px;"></line><g><path d="m56.25,25c0,.27-.45.5-1,.5h-10.5c-.55,0-1-.23-1-.5s.45-.5,1-.5h10.5c.55,0,1,.23,1,.5Z" style="fill: #fff; stroke-width: 0px;"></path><path d="m56.25,25c0,.27-.45.5-1,.5h-10.5c-.55,0-1-.23-1-.5s.45-.5,1-.5h10.5c.55,0,1,.23,1,.5Z" style="fill: none; stroke: #fff; stroke-miterlimit: 10;"></path></g><g><path d="m56.25,40c0,.27-.45.5-1,.5h-10.5c-.55,0-1-.23-1-.5s.45-.5,1-.5h10.5c.55,0,1,.23,1,.5Z" style="fill: #fff; stroke-width: 0px;"></path><path d="m56.25,40c0,.27-.45.5-1,.5h-10.5c-.55,0-1-.23-1-.5s.45-.5,1-.5h10.5c.55,0,1,.23,1,.5Z" style="fill: none; stroke: #fff; stroke-miterlimit: 10;"></path></g><g><path d="m56.25,55c0,.27-.45.5-1,.5h-10.5c-.55,0-1-.23-1-.5s.45-.5,1-.5h10.5c.55,0,1,.23,1,.5Z" style="fill: #fff; stroke-width: 0px;"></path><path d="m56.25,55c0,.27-.45.5-1,.5h-10.5c-.55,0-1-.23-1-.5s.45-.5,1-.5h10.5c.55,0,1,.23,1,.5Z" style="fill: none; stroke: #fff; stroke-miterlimit: 10;"></path></g><g><circle cx="32.5" cy="25" r=".75" style="fill: #fff; stroke: #fff; stroke-miterlimit: 10;"></circle><circle cx="27.5" cy="25" r=".75" style="fill: #fff; stroke: #fff; stroke-miterlimit: 10;"></circle><circle cx="22.5" cy="25" r=".75" style="fill: #fff; stroke: #fff; stroke-miterlimit: 10;"></circle></g><g><circle cx="32.5" cy="40" r=".75" style="fill: #fff; stroke: #fff; stroke-miterlimit: 10;"></circle><circle cx="27.5" cy="40" r=".75" style="fill: #fff; stroke: #fff; stroke-miterlimit: 10;"></circle><circle cx="22.5" cy="40" r=".75" style="fill: #fff; stroke: #fff; stroke-miterlimit: 10;"></circle></g><g><circle cx="32.5" cy="55" r=".75" style="fill: #fff; stroke: #fff; stroke-miterlimit: 10;"></circle><circle cx="27.5" cy="55" r=".75" style="fill: #fff; stroke: #fff; stroke-miterlimit: 10;"></circle><circle cx="22.5" cy="55" r=".75" style="fill: #fff; stroke: #fff; stroke-miterlimit: 10;"></circle></g></g></svg></g></g></g><g id="service-c" class="architecture-service" transform="translate(135.89937494420678,16.999999999999993)"><g dy="1em" alignment-baseline="middle" dominant-baseline="middle" text-anchor="middle" transform="translate(40, 80)"><g><rect class="background" style="stroke: none"></rect><text y="-10.1" style=""><tspan class="text-outer-tspan" x="0" y="-0.1em" dy="1.1em"><tspan font-style="normal" class="text-inner-tspan" font-weight="normal">C</tspan></tspan></text></g></g><g><g><svg xmlns="http://www.w3.org/2000/svg" width="80" height="80" viewBox="0 0 80 80"><g><rect width="80" height="80" style="fill: #087ebf; stroke-width: 0px;"></rect><rect x="17.5" y="17.5" width="45" height="45" rx="2" ry="2" style="fill: none; stroke: #fff; stroke-miterlimit: 10; stroke-width: 2px;"></rect><line x1="17.5" y1="32.5" x2="62.5" y2="32.5" style="fill: none; stroke: #fff; stroke-miterlimit: 10; stroke-width: 2px;"></line><line x1="17.5" y1="47.5" x2="62.5" y2="47.5" style="fill: none; stroke: #fff; stroke-miterlimit: 10; stroke-width: 2px;"></line><g><path d="m56.25,25c0,.27-.45.5-1,.5h-10.5c-.55,0-1-.23-1-.5s.45-.5,1-.5h10.5c.55,0,1,.23,1,.5Z" style="fill: #fff; stroke-width: 0px;"></path><path d="m56.25,25c0,.27-.45.5-1,.5h-10.5c-.55,0-1-.23-1-.5s.45-.5,1-.5h10.5c.55,0,1,.23,1,.5Z" style="fill: none; stroke: #fff; stroke-miterlimit: 10;"></path></g><g><path d="m56.25,40c0,.27-.45.5-1,.5h-10.5c-.55,0-1-.23-1-.5s.45-.5,1-.5h10.5c.55,0,1,.23,1,.5Z" style="fill: #fff; stroke-width: 0px;"></path><path d="m56.25,40c0,.27-.45.5-1,.5h-10.5c-.55,0-1-.23-1-.5s.45-.5,1-.5h10.5c.55,0,1,.23,1,.5Z" style="fill: none; stroke: #fff; stroke-miterlimit: 10;"></path></g><g><path d="m56.25,55c0,.27-.45.5-1,.5h-10.5c-.55,0-1-.23-1-.5s.45-.5,1-.5h10.5c.55,0,1,.23,1,.5Z" style="fill: #fff; stroke-width: 0px;"></path><path d="m56.25,55c0,.27-.45.5-1,.5h-10.5c-.55,0-1-.23-1-.5s.45-.5,1-.5h10.5c.55,0,1,.23,1,.5Z" style="fill: none; stroke: #fff; stroke-miterlimit: 10;"></path></g><g><circle cx="32.5" cy="25" r=".75" style="fill: #fff; stroke: #fff; stroke-miterlimit: 10;"></circle><circle cx="27.5" cy="25" r=".75" style="fill: #fff; stroke: #fff; stroke-miterlimit: 10;"></circle><circle cx="22.5" cy="25" r=".75" style="fill: #fff; stroke: #fff; stroke-miterlimit: 10;"></circle></g><g><circle cx="32.5" cy="40" r=".75" style="fill: #fff; stroke: #fff; stroke-miterlimit: 10;"></circle><circle cx="27.5" cy="40" r=".75" style="fill: #fff; stroke: #fff; stroke-miterlimit: 10;"></circle><circle cx="22.5" cy="40" r=".75" style="fill: #fff; stroke: #fff; stroke-miterlimit: 10;"></circle></g><g><circle cx="32.5" cy="55" r=".75" style="fill: #fff; stroke: #fff; stroke-miterlimit: 10;"></circle><circle cx="27.5" cy="55" r=".75" style="fill: #fff; stroke: #fff; stroke-miterlimit: 10;"></circle><circle cx="22.5" cy="55" r=".75" style="fill: #fff; stroke: #fff; stroke-miterlimit: 10;"></circle></g></g></svg></g></g></g><g id="service-d" class="architecture-service" transform="translate(336.58594070539084,16.999999999999993)"><g dy="1em" alignment-baseline="middle" dominant-baseline="middle" text-anchor="middle" transform="translate(40, 80)"><g><rect class="background" style="stroke: none"></rect><text y="-10.1" style=""><tspan class="text-outer-tspan" x="0" y="-0.1em" dy="1.1em"><tspan font-style="normal" class="text-inner-tspan" font-weight="normal">D</tspan></tspan></text></g></g><g><g><svg xmlns="http://www.w3.org/2000/svg" width="80" height="80" viewBox="0 0 80 80"><g><rect width="80" height="80" style="fill: #087ebf; stroke-width: 0px;"></rect><rect x="17.5" y="17.5" width="45" height="45" rx="2" ry="2" style="fill: none; stroke: #fff; stroke-miterlimit: 10; stroke-width: 2px;"></rect><line x1="17.5" y1="32.5" x2="62.5" y2="32.5" style="fill: none; stroke: #fff; stroke-miterlimit: 10; stroke-width: 2px;"></line><line x1="17.5" y1="47.5" x2="62.5" y2="47.5" style="fill: none; stroke: #fff; stroke-miterlimit: 10; stroke-width: 2px;"></line><g><path d="m56.25,25c0,.27-.45.5-1,.5h-10.5c-.55,0-1-.23-1-.5s.45-.5,1-.5h10.5c.55,0,1,.23,1,.5Z" style="fill: #fff; stroke-width: 0px;"></path><path d="m56.25,25c0,.27-.45.5-1,.5h-10.5c-.55,0-1-.23-1-.5s.45-.5,1-.5h10.5c.55,0,1,.23,1,.5Z" style="fill: none; stroke: #fff; stroke-miterlimit: 10;"></path></g><g><path d="m56.25,40c0,.27-.45.5-1,.5h-10.5c-.55,0-1-.23-1-.5s.45-.5,1-.5h10.5c.55,0,1,.23,1,.5Z" style="fill: #fff; stroke-width: 0px;"></path><path d="m56.25,40c0,.27-.45.5-1,.5h-10.5c-.55,0-1-.23-1-.5s.45-.5,1-.5h10.5c.55,0,1,.23,1,.5Z" style="fill: none; stroke: #fff; stroke-miterlimit: 10;"></path></g><g><path d="m56.25,55c0,.27-.45.5-1,.5h-10.5c-.55,0-1-.23-1-.5s.45-.5,1-.5h10.5c.55,0,1,.23,1,.5Z" style="fill: #fff; stroke-width: 0px;"></path><path d="m56.25,55c0,.27-.45.5-1,.5h-10.5c-.55,0-1-.23-1-.5s.45-.5,1-.5h10.5c.55,0,1,.23,1,.5Z" style="fill: none; stroke: #fff; stroke-miterlimit: 10;"></path></g><g><circle cx="32.5" cy="25" r=".75" style="fill: #fff; stroke: #fff; stroke-miterlimit: 10;"></circle><circle cx="27.5" cy="25" r=".75" style="fill: #fff; stroke: #fff; stroke-miterlimit: 10;"></circle><circle cx="22.5" cy="25" r=".75" style="fill: #fff; stroke: #fff; stroke-miterlimit: 10;"></circle></g><g><circle cx="32.5" cy="40" r=".75" style="fill: #fff; stroke: #fff; stroke-miterlimit: 10;"></circle><circle cx="27.5" cy="40" r=".75" style="fill: #fff; stroke: #fff; stroke-miterlimit: 10;"></circle><circle cx="22.5" cy="40" r=".75" style="fill: #fff; stroke: #fff; stroke-miterlimit: 10;"></circle></g><g><circle cx="32.5" cy="55" r=".75" style="fill: #fff; stroke: #fff; stroke-miterlimit: 10;"></circle><circle cx="27.5" cy="55" r=".75" style="fill: #fff; stroke: #fff; stroke-miterlimit: 10;"></circle><circle cx="22.5" cy="55" r=".75" style="fill: #fff; stroke: #fff; stroke-miterlimit: 10;"></circle></g></g></svg></g></g></g></g><g class="architecture-groups"><rect id="group-east" x="-379.08594070539084" y="-25.5" width="365.6865657611877" height="182" class="node-bkg"></rect><g><g transform="translate(-378.08594070539084, -24.5)"><g><svg xmlns="http://www.w3.org/2000/svg" width="30" height="30" viewBox="0 0 80 80"><g><rect width="80" height="80" style="fill: #087ebf; stroke-width: 0px;"></rect><path d="m65,47.5c0,2.76-2.24,5-5,5H20c-2.76,0-5-2.24-5-5,0-1.87,1.03-3.51,2.56-4.36-.04-.21-.06-.42-.06-.64,0-2.6,2.48-4.74,5.65-4.97,1.65-4.51,6.34-7.76,11.85-7.76.86,0,1.69.08,2.5.23,2.09-1.57,4.69-2.5,7.5-2.5,6.1,0,11.19,4.38,12.28,10.17,2.14.56,3.72,2.51,3.72,4.83,0,.03,0,.07-.01.1,2.29.46,4.01,2.48,4.01,4.9Z" style="fill: none; stroke: #fff; stroke-miterlimit: 10; stroke-width: 2px;"></path></g></svg></g></g><g dy="1em" alignment-baseline="middle" dominant-baseline="start" text-anchor="start" transform="translate(-345.08594070539084, -18.5)"><g><rect class="background" style="stroke: none"></rect><text y="-10.1" style=""><tspan class="text-outer-tspan" x="0" y="-0.1em" dy="1.1em"><tspan font-style="normal" class="text-inner-tspan" font-weight="normal">East</tspan></tspan></text></g></g></g><rect id="group-west" x="93.39937494420678" y="-25.5" width="365.68656576118406" height="182" class="node-bkg"></rect><g><g transform="translate(94.39937494420678, -24.5)"><g><svg xmlns="http://www.w3.org/2000/svg" width="30" height="30" viewBox="0 0 80 80"><g><rect width="80" height="80" style="fill: #087ebf; stroke-width: 0px;"></rect><path d="m65,47.5c0,2.76-2.24,5-5,5H20c-2.76,0-5-2.24-5-5,0-1.87,1.03-3.51,2.56-4.36-.04-.21-.06-.42-.06-.64,0-2.6,2.48-4.74,5.65-4.97,1.65-4.51,6.34-7.76,11.85-7.76.86,0,1.69.08,2.5.23,2.09-1.57,4.69-2.5,7.5-2.5,6.1,0,11.19,4.38,12.28,10.17,2.14.56,3.72,2.51,3.72,4.83,0,.03,0,.07-.01.1,2.29.46,4.01,2.48,4.01,4.9Z" style="fill: none; stroke: #fff; stroke-miterlimit: 10; stroke-width: 2px;"></path></g></svg></g></g><g dy="1em" alignment-baseline="middle" dominant-baseline="start" text-anchor="start" transform="translate(127.39937494420678, -18.5)"><g><rect class="background" style="stroke: none"></rect><text y="-10.1" style=""><tspan class="text-outer-tspan" x="0" y="-0.1em" dy="1.1em"><tspan font-style="normal" class="text-inner-tspan" font-weight="normal">West</tspan></tspan></text></g></g></g></g></svg>