<svg id="stress_architecture_batch4_init_small_icons_061" width="100%" xmlns="http://www.w3.org/2000/svg" xmlns:xlink="http://www.w3.org/1999/xlink" style="max-width: 187.85890197753906px; background-color: white;" viewBox="-60.53569793701172 -56.28569793701172 187.85890197753906 191.57139587402344" role="graphics-document document" aria-roledescription="architecture"><style>#stress_architecture_batch4_init_small_icons_061{font-family:"trebuchet ms",verdana,arial,sans-serif;font-size:16px;fill:#333;}@keyframes edge-animation-frame{from{stroke-dashoffset:0;}}@keyframes dash{to{stroke-dashoffset:0;}}#stress_architecture_batch4_init_small_icons_061 .edge-animation-slow{stroke-dasharray:9,5!important;stroke-dashoffset:900;animation:dash 50s linear infinite;stroke-linecap:round;}#stress_architecture_batch4_init_small_icons_061 .edge-animation-fast{stroke-dasharray:9,5!important;stroke-dashoffset:900;animation:dash 20s linear infinite;stroke-linecap:round;}#stress_architecture_batch4_init_small_icons_061 .error-icon{fill:#552222;}#stress_architecture_batch4_init_small_icons_061 .error-text{fill:#552222;stroke:#552222;}#stress_architecture_batch4_init_small_icons_061 .edge-thickness-normal{stroke-width:1px;}#stress_architecture_batch4_init_small_icons_061 .edge-thickness-thick{stroke-width:3.5px;}#stress_architecture_batch4_init_small_icons_061 .edge-pattern-solid{stroke-dasharray:0;}#stress_architecture_batch4_init_small_icons_061 .edge-thickness-invisible{stroke-width:0;fill:none;}#stress_architecture_batch4_init_small_icons_061 .edge-pattern-dashed{stroke-dasharray:3;}#stress_architecture_batch4_init_small_icons_061 .edge-pattern-dotted{stroke-dasharray:2;}#stress_architecture_batch4_init_small_icons_061 .marker{fill:#333333;stroke:#333333;}#stress_architecture_batch4_init_small_icons_061 .marker.cross{stroke:#333333;}#stress_architecture_batch4_init_small_icons_061 svg{font-family:"trebuchet ms",verdana,arial,sans-serif;font-size:16px;}#stress_architecture_batch4_init_small_icons_061 p{margin:0;}#stress_architecture_batch4_init_small_icons_061 .edge{stroke-width:3;stroke:#333333;fill:none;}#stress_architecture_batch4_init_small_icons_061 .arrow{fill:#333333;}#stress_architecture_batch4_init_small_icons_061 .node-bkg{fill:none;stroke:hsl(240, 60%, 86.2745098039%);stroke-width:2px;stroke-dasharray:8;}#stress_architecture_batch4_init_small_icons_061 .node-icon-text{display:flex;align-items:center;}#stress_architecture_batch4_init_small_icons_061 .node-icon-text&gt;div{color:#fff;margin:1px;height:fit-content;text-align:center;overflow:hidden;display:-webkit-box;-webkit-box-orient:vertical;}#stress_architecture_batch4_init_small_icons_061 :root{--mermaid-font-family:"trebuchet ms",verdana,arial,sans-serif;}</style><g/><g class="architecture-edges"><g><path d="M 1.964301494864344,79.78569850513566 L 28.75,33 L55.535698505135656,-13.785698505135649" class="edge" id="L_a_b_0"/><polygon points="6.666666666666667,3.3333333333333335 0,6.666666666666667 0,0" transform="translate(50.86903183846899,-17.11903183846898)" class="arrow"/><g dy="1em" alignment-baseline="middle" dominant-baseline="middle" text-anchor="middle" transform="translate(28.75, 33)"><g><rect class="background" style="stroke: none"/><text y="-10.1" style=""><tspan class="text-outer-tspan" x="0" y="-0.1em" dy="1.1em"><tspan font-style="normal" class="text-inner-tspan" font-weight="normal">read</tspan></tspan></text></g></g></g><g><path d="M 75.53569850513566,6.214301494864344 L 75.53569850513566,33 L75.53569850513566,59.785698505135656" class="edge" id="L_b_c_0"/><polygon points="0,0 6.666666666666667,0 3.3333333333333335,6.666666666666667" transform="translate(72.20236517180233,55.11903183846899)" class="arrow"/><g dy="1em" alignment-baseline="middle" dominant-baseline="middle" text-anchor="middle" transform="translate(75.53569850513566, 33) rotate(-90)"><g><rect class="background" style="stroke: none"/><text y="-10.1" style=""><tspan class="text-outer-tspan" x="0" y="-0.1em" dy="1.1em"><tspan font-style="normal" class="text-inner-tspan" font-weight="normal">writ</tspan></tspan><tspan class="text-outer-tspan" x="0" y="1em" dy="1.1em"><tspan font-style="normal" class="text-inner-tspan" font-weight="normal">e</tspan></tspan></text></g></g></g><g><path d="M 55.535698505135656,79.78569850513566 L 28.75,79.78569850513566 L1.964301494864344,79.78569850513566" class="edge" id="L_c_a_0"/><polygon points="0,3.3333333333333335 6.666666666666667,0 6.666666666666667,6.666666666666667" transform="translate(-0.03569850513565598,76.45236517180233)" class="arrow"/><g dy="1em" alignment-baseline="middle" dominant-baseline="middle" text-anchor="middle" transform="translate(28.75, 79.78569850513566)"><g><rect class="background" style="stroke: none"/><text y="-10.1" style=""><tspan class="text-outer-tspan" x="0" y="-0.1em" dy="1.1em"><tspan font-style="normal" class="text-inner-tspan" font-weight="normal">sync</tspan></tspan></text></g></g></g></g><g class="architecture-services"><g id="service-a" class="architecture-service" transform="translate(-38.035698505135656,59.78569850513566)"><g dy="1em" alignment-baseline="middle" dominant-baseline="middle" text-anchor="middle" transform="translate(20, 40)"><g><rect class="background" style="stroke: none"/><text y="-10.1" style=""><tspan class="text-outer-tspan" x="0" y="-0.1em" dy="1.1em"><tspan font-style="normal" class="text-inner-tspan" font-weight="normal">A</tspan></tspan></text></g></g><g><g><svg xmlns="http://www.w3.org/2000/svg" width="40" height="40" viewBox="0 0 80 80"><g><rect width="80" height="80" style="fill: #087ebf; stroke-width: 0px;"/><rect x="17.5" y="17.5" width="45" height="45" rx="2" ry="2" style="fill: none; stroke: #fff; stroke-miterlimit: 10; stroke-width: 2px;"/><line x1="17.5" y1="32.5" x2="62.5" y2="32.5" style="fill: none; stroke: #fff; stroke-miterlimit: 10; stroke-width: 2px;"/><line x1="17.5" y1="47.5" x2="62.5" y2="47.5" style="fill: none; stroke: #fff; stroke-miterlimit: 10; stroke-width: 2px;"/><g><path d="m56.25,25c0,.27-.45.5-1,.5h-10.5c-.55,0-1-.23-1-.5s.45-.5,1-.5h10.5c.55,0,1,.23,1,.5Z" style="fill: #fff; stroke-width: 0px;"/><path d="m56.25,25c0,.27-.45.5-1,.5h-10.5c-.55,0-1-.23-1-.5s.45-.5,1-.5h10.5c.55,0,1,.23,1,.5Z" style="fill: none; stroke: #fff; stroke-miterlimit: 10;"/></g><g><path d="m56.25,40c0,.27-.45.5-1,.5h-10.5c-.55,0-1-.23-1-.5s.45-.5,1-.5h10.5c.55,0,1,.23,1,.5Z" style="fill: #fff; stroke-width: 0px;"/><path d="m56.25,40c0,.27-.45.5-1,.5h-10.5c-.55,0-1-.23-1-.5s.45-.5,1-.5h10.5c.55,0,1,.23,1,.5Z" style="fill: none; stroke: #fff; stroke-miterlimit: 10;"/></g><g><path d="m56.25,55c0,.27-.45.5-1,.5h-10.5c-.55,0-1-.23-1-.5s.45-.5,1-.5h10.5c.55,0,1,.23,1,.5Z" style="fill: #fff; stroke-width: 0px;"/><path d="m56.25,55c0,.27-.45.5-1,.5h-10.5c-.55,0-1-.23-1-.5s.45-.5,1-.5h10.5c.55,0,1,.23,1,.5Z" style="fill: none; stroke: #fff; stroke-miterlimit: 10;"/></g><g><circle cx="32.5" cy="25" r=".75" style="fill: #fff; stroke: #fff; stroke-miterlimit: 10;"/><circle cx="27.5" cy="25" r=".75" style="fill: #fff; stroke: #fff; stroke-miterlimit: 10;"/><circle cx="22.5" cy="25" r=".75" style="fill: #fff; stroke: #fff; stroke-miterlimit: 10;"/></g><g><circle cx="32.5" cy="40" r=".75" style="fill: #fff; stroke: #fff; stroke-miterlimit: 10;"/><circle cx="27.5" cy="40" r=".75" style="fill: #fff; stroke: #fff; stroke-miterlimit: 10;"/><circle cx="22.5" cy="40" r=".75" style="fill: #fff; stroke: #fff; stroke-miterlimit: 10;"/></g><g><circle cx="32.5" cy="55" r=".75" style="fill: #fff; stroke: #fff; stroke-miterlimit: 10;"/><circle cx="27.5" cy="55" r=".75" style="fill: #fff; stroke: #fff; stroke-miterlimit: 10;"/><circle cx="22.5" cy="55" r=".75" style="fill: #fff; stroke: #fff; stroke-miterlimit: 10;"/></g></g></svg></g></g></g><g id="service-b" class="architecture-service" transform="translate(55.53569850513566,-33.785698505135656)"><g dy="1em" alignment-baseline="middle" dominant-baseline="middle" text-anchor="middle" transform="translate(20, 40)"><g><rect class="background" style="stroke: none"/><text y="-10.1" style=""><tspan class="text-outer-tspan" x="0" y="-0.1em" dy="1.1em"><tspan font-style="normal" class="text-inner-tspan" font-weight="normal">B</tspan></tspan></text></g></g><g><g><svg xmlns="http://www.w3.org/2000/svg" width="40" height="40" viewBox="0 0 80 80"><g><rect width="80" height="80" style="fill: #087ebf; stroke-width: 0px;"/><path id="IconifyId19c691dc73247e4ce0" data-name="4" d="m20,57.86c0,3.94,8.95,7.14,20,7.14s20-3.2,20-7.14" style="fill: none; stroke: #fff; stroke-miterlimit: 10; stroke-width: 2px;"/><path id="IconifyId19c691dc73247e4ce1" data-name="3" d="m20,45.95c0,3.94,8.95,7.14,20,7.14s20-3.2,20-7.14" style="fill: none; stroke: #fff; stroke-miterlimit: 10; stroke-width: 2px;"/><path id="IconifyId19c691dc73247e4ce2" data-name="2" d="m20,34.05c0,3.94,8.95,7.14,20,7.14s20-3.2,20-7.14" style="fill: none; stroke: #fff; stroke-miterlimit: 10; stroke-width: 2px;"/><ellipse id="IconifyId19c691dc73247e4ce3" data-name="1" cx="40" cy="22.14" rx="20" ry="7.14" style="fill: none; stroke: #fff; stroke-miterlimit: 10; stroke-width: 2px;"/><line x1="20" y1="57.86" x2="20" y2="22.14" style="fill: none; stroke: #fff; stroke-miterlimit: 10; stroke-width: 2px;"/><line x1="60" y1="57.86" x2="60" y2="22.14" style="fill: none; stroke: #fff; stroke-miterlimit: 10; stroke-width: 2px;"/></g></svg></g></g></g><g id="service-c" class="architecture-service" transform="translate(55.53569850513566,59.78569850513566)"><g dy="1em" alignment-baseline="middle" dominant-baseline="middle" text-anchor="middle" transform="translate(20, 40)"><g><rect class="background" style="stroke: none"/><text y="-10.1" style=""><tspan class="text-outer-tspan" x="0" y="-0.1em" dy="1.1em"><tspan font-style="normal" class="text-inner-tspan" font-weight="normal">C</tspan></tspan></text></g></g><g><g><svg xmlns="http://www.w3.org/2000/svg" width="40" height="40" viewBox="0 0 80 80"><g><rect width="80" height="80" style="fill: #087ebf; stroke-width: 0px;"/><rect x="20" y="15" width="40" height="50" rx="1" ry="1" style="fill: none; stroke: #fff; stroke-miterlimit: 10; stroke-width: 2px;"/><ellipse cx="24" cy="19.17" rx=".8" ry=".83" style="fill: none; stroke: #fff; stroke-miterlimit: 10; stroke-width: 2px;"/><ellipse cx="56" cy="19.17" rx=".8" ry=".83" style="fill: none; stroke: #fff; stroke-miterlimit: 10; stroke-width: 2px;"/><ellipse cx="24" cy="60.83" rx=".8" ry=".83" style="fill: none; stroke: #fff; stroke-miterlimit: 10; stroke-width: 2px;"/><ellipse cx="56" cy="60.83" rx=".8" ry=".83" style="fill: none; stroke: #fff; stroke-miterlimit: 10; stroke-width: 2px;"/><ellipse cx="40" cy="33.75" rx="14" ry="14.58" style="fill: none; stroke: #fff; stroke-miterlimit: 10; stroke-width: 2px;"/><ellipse cx="40" cy="33.75" rx="4" ry="4.17" style="fill: #fff; stroke: #fff; stroke-miterlimit: 10; stroke-width: 2px;"/><path d="m37.51,42.52l-4.83,13.22c-.26.71-1.1,1.02-1.76.64l-4.18-2.42c-.66-.38-.81-1.26-.33-1.84l9.01-10.8c.88-1.05,2.56-.08,2.09,1.2Z" style="fill: #fff; stroke-width: 0px;"/></g></svg></g></g></g></g><g class="architecture-groups"><rect id="group-g" x="-50.535698505135656" y="-46.285698505135656" width="158.5713970102713" height="171.5713970102713" class="node-bkg"/><g><g transform="translate(-49.535698505135656, -45.285698505135656)"><g><svg xmlns="http://www.w3.org/2000/svg" width="7.5" height="7.5" viewBox="0 0 80 80"><g><rect width="80" height="80" style="fill: #087ebf; stroke-width: 0px;"/><path d="m65,47.5c0,2.76-2.24,5-5,5H20c-2.76,0-5-2.24-5-5,0-1.87,1.03-3.51,2.56-4.36-.04-.21-.06-.42-.06-.64,0-2.6,2.48-4.74,5.65-4.97,1.65-4.51,6.34-7.76,11.85-7.76.86,0,1.69.08,2.5.23,2.09-1.57,4.69-2.5,7.5-2.5,6.1,0,11.19,4.38,12.28,10.17,2.14.56,3.72,2.51,3.72,4.83,0,.03,0,.07-.01.1,2.29.46,4.01,2.48,4.01,4.9Z" style="fill: none; stroke: #fff; stroke-miterlimit: 10; stroke-width: 2px;"/></g></svg></g></g><g dy="1em" alignment-baseline="middle" dominant-baseline="start" text-anchor="start" transform="translate(-39.035698505135656, -41.285698505135656)"><g><rect class="background" style="stroke: none"/><text y="-10.1" style=""><tspan class="text-outer-tspan" x="0" y="-0.1em" dy="1.1em"><tspan font-style="normal" class="text-inner-tspan" font-weight="normal">G</tspan></tspan></text></g></g></g></g></svg>