<svg id="stress_architecture_parallel_labeled_edges_038" width="100%" xmlns="http://www.w3.org/2000/svg" xmlns:xlink="http://www.w3.org/1999/xlink" style="max-width: 531.3333129882812px; background-color: white;" viewBox="-187.0833282470703 -160.7195587158203 531.3333129882812 484.4390869140625" role="graphics-document document" aria-roledescription="architecture"><style>#stress_architecture_parallel_labeled_edges_038{font-family:"trebuchet ms",verdana,arial,sans-serif;font-size:16px;fill:#333;}@keyframes edge-animation-frame{from{stroke-dashoffset:0;}}@keyframes dash{to{stroke-dashoffset:0;}}#stress_architecture_parallel_labeled_edges_038 .edge-animation-slow{stroke-dasharray:9,5!important;stroke-dashoffset:900;animation:dash 50s linear infinite;stroke-linecap:round;}#stress_architecture_parallel_labeled_edges_038 .edge-animation-fast{stroke-dasharray:9,5!important;stroke-dashoffset:900;animation:dash 20s linear infinite;stroke-linecap:round;}#stress_architecture_parallel_labeled_edges_038 .error-icon{fill:#552222;}#stress_architecture_parallel_labeled_edges_038 .error-text{fill:#552222;stroke:#552222;}#stress_architecture_parallel_labeled_edges_038 .edge-thickness-normal{stroke-width:1px;}#stress_architecture_parallel_labeled_edges_038 .edge-thickness-thick{stroke-width:3.5px;}#stress_architecture_parallel_labeled_edges_038 .edge-pattern-solid{stroke-dasharray:0;}#stress_architecture_parallel_labeled_edges_038 .edge-thickness-invisible{stroke-width:0;fill:none;}#stress_architecture_parallel_labeled_edges_038 .edge-pattern-dashed{stroke-dasharray:3;}#stress_architecture_parallel_labeled_edges_038 .edge-pattern-dotted{stroke-dasharray:2;}#stress_architecture_parallel_labeled_edges_038 .marker{fill:#333333;stroke:#333333;}#stress_architecture_parallel_labeled_edges_038 .marker.cross{stroke:#333333;}#stress_architecture_parallel_labeled_edges_038 svg{font-family:"trebuchet ms",verdana,arial,sans-serif;font-size:16px;}#stress_architecture_parallel_labeled_edges_038 p{margin:0;}#stress_architecture_parallel_labeled_edges_038 .edge{stroke-width:3;stroke:#333333;fill:none;}#stress_architecture_parallel_labeled_edges_038 .arrow{fill:#333333;}#stress_architecture_parallel_labeled_edges_038 .node-bkg{fill:none;stroke:hsl(240, 60%, 86.2745098039%);stroke-width:2px;stroke-dasharray:8;}#stress_architecture_parallel_labeled_edges_038 .node-icon-text{display:flex;align-items:center;}#stress_architecture_parallel_labeled_edges_038 .node-icon-text&gt;div{color:#fff;margin:1px;height:fit-content;text-align:center;overflow:hidden;display:-webkit-box;-webkit-box-orient:vertical;}#stress_architecture_parallel_labeled_edges_038 :root{--mermaid-font-family:"trebuchet ms",verdana,arial,sans-serif;}</style><g></g><g class="architecture-edges"><g><path d="M 184.25,81.5 L 204.25,81.5 L264.25,81.5" class="edge" id="L_api_j_read_0"></path><polygon points="13.333333333333334,6.666666666666667 0,13.333333333333334 0,0" transform="translate(252.91666666666666,74.83333333333333)" class="arrow"></polygon><g dy="1em" alignment-baseline="middle" dominant-baseline="middle" text-anchor="middle" transform="translate(204.25, 81.5)"><g><rect class="background" style="stroke: none"></rect><text y="-10.1" style=""><tspan class="text-outer-tspan" x="0" y="-0.1em" dy="1.1em"><tspan font-style="normal" class="text-inner-tspan" font-weight="normal">read</tspan></tspan></text></g></g></g><g><path d="M 264.25,81.5 L 84.25,81.5 L-135.75,81.5" class="edge" id="L_j_read_db_0"></path><polygon points="13.333333333333334,6.666666666666667 0,13.333333333333334 0,0" transform="translate(-147.08333333333334,74.83333333333333)" class="arrow"></polygon></g><g><path d="M 144.25,121.5 L 144.25,162.60977762097747 L144.25,243.7195552419549" class="edge" id="L_api_j_write_0"></path><polygon points="0,0 13.333333333333334,0 6.666666666666667,13.333333333333334" transform="translate(137.58333333333334,232.38622190862156)" class="arrow"></polygon><g dy="1em" alignment-baseline="middle" dominant-baseline="middle" text-anchor="middle" transform="translate(144.25, 162.60977762097747) rotate(-90)"><g><rect class="background" style="stroke: none"></rect><text y="-10.1" style=""><tspan class="text-outer-tspan" x="0" y="-0.1em" dy="1.1em"><tspan font-style="normal" class="text-inner-tspan" font-weight="normal">write</tspan></tspan></text></g></g></g><g><path d="M 144.25,243.71955524195494 L 24.250000000000004,162.60977762097747 L-95.74999999999999,41.5" class="edge" id="L_j_write_db_0"></path><polygon points="0,0 13.333333333333334,0 6.666666666666667,13.333333333333334" transform="translate(-102.41666666666666,30.166666666666664)" class="arrow"></polygon></g><g><path d="M 144.25,41.5 L 144.25,0.3902223790225463 L144.25,-80.71955524195491" class="edge" id="L_api_j_health_0"></path><polygon points="6.666666666666667,0 13.333333333333334,13.333333333333334 0,13.333333333333334" transform="translate(137.58333333333334,-82.71955524195491)" class="arrow"></polygon><g dy="1em" alignment-baseline="middle" dominant-baseline="middle" text-anchor="middle" transform="translate(144.25, 0.3902223790225463) rotate(-90)"><g><rect class="background" style="stroke: none"></rect><text y="-10.1" style=""><tspan class="text-outer-tspan" x="0" y="-0.1em" dy="1.1em"><tspan font-style="normal" class="text-inner-tspan" font-weight="normal">health</tspan></tspan><tspan class="text-outer-tspan" x="0" y="1em" dy="1.1em"><tspan font-style="normal" class="text-inner-tspan" font-weight="normal">check</tspan></tspan></text></g></g></g><g><path d="M 144.25,-80.71955524195491 L 24.250000000000004,0.3902223790225463 L-95.74999999999999,121.5" class="edge" id="L_j_health_db_0"></path><polygon points="6.666666666666667,0 13.333333333333334,13.333333333333334 0,13.333333333333334" transform="translate(-102.41666666666666,119.5)" class="arrow"></polygon></g><g><path d="M 104.25000000000001,81.5 L 84.25000000000003,81.5 L24.250000000000043,81.5" class="edge" id="L_api_j_metrics_0"></path><polygon points="0,6.666666666666667 13.333333333333334,0 13.333333333333334,13.333333333333334" transform="translate(22.250000000000043,74.83333333333333)" class="arrow"></polygon><g dy="1em" alignment-baseline="middle" dominant-baseline="middle" text-anchor="middle" transform="translate(84.25000000000003, 81.5)"><g><rect class="background" style="stroke: none"></rect><text y="-10.1" style=""><tspan class="text-outer-tspan" x="0" y="-0.1em" dy="1.1em"><tspan font-style="normal" class="text-inner-tspan" font-weight="normal">metrics</tspan></tspan></text></g></g></g><g><path d="M 24.250000000000043,81.5 L -35.74999999999998,81.5 L-55.75,81.5" class="edge" id="L_j_metrics_db_0"></path><polygon points="0,6.666666666666667 13.333333333333334,0 13.333333333333334,13.333333333333334" transform="translate(-57.75,74.83333333333333)" class="arrow"></polygon></g></g><g class="architecture-services"><g id="service-api" class="architecture-service" transform="translate(104.25000000000001,41.5)"><g dy="1em" alignment-baseline="middle" dominant-baseline="middle" text-anchor="middle" transform="translate(40, 80)"><g><rect class="background" style="stroke: none"></rect><text y="-10.1" style=""><tspan class="text-outer-tspan" x="0" y="-0.1em" dy="1.1em"><tspan font-style="normal" class="text-inner-tspan" font-weight="normal">API</tspan></tspan></text></g></g><g><g><svg xmlns="http://www.w3.org/2000/svg" width="80" height="80" viewBox="0 0 80 80"><g><rect width="80" height="80" style="fill: #087ebf; stroke-width: 0px;"></rect><rect x="17.5" y="17.5" width="45" height="45" rx="2" ry="2" style="fill: none; stroke: #fff; stroke-miterlimit: 10; stroke-width: 2px;"></rect><line x1="17.5" y1="32.5" x2="62.5" y2="32.5" style="fill: none; stroke: #fff; stroke-miterlimit: 10; stroke-width: 2px;"></line><line x1="17.5" y1="47.5" x2="62.5" y2="47.5" style="fill: none; stroke: #fff; stroke-miterlimit: 10; stroke-width: 2px;"></line><g><path d="m56.25,25c0,.27-.45.5-1,.5h-10.5c-.55,0-1-.23-1-.5s.45-.5,1-.5h10.5c.55,0,1,.23,1,.5Z" style="fill: #fff; stroke-width: 0px;"></path><path d="m56.25,25c0,.27-.45.5-1,.5h-10.5c-.55,0-1-.23-1-.5s.45-.5,1-.5h10.5c.55,0,1,.23,1,.5Z" style="fill: none; stroke: #fff; stroke-miterlimit: 10;"></path></g><g><path d="m56.25,40c0,.27-.45.5-1,.5h-10.5c-.55,0-1-.23-1-.5s.45-.5,1-.5h10.5c.55,0,1,.23,1,.5Z" style="fill: #fff; stroke-width: 0px;"></path><path d="m56.25,40c0,.27-.45.5-1,.5h-10.5c-.55,0-1-.23-1-.5s.45-.5,1-.5h10.5c.55,0,1,.23,1,.5Z" style="fill: none; stroke: #fff; stroke-miterlimit: 10;"></path></g><g><path d="m56.25,55c0,.27-.45.5-1,.5h-10.5c-.55,0-1-.23-1-.5s.45-.5,1-.5h10.5c.55,0,1,.23,1,.5Z" style="fill: #fff; stroke-width: 0px;"></path><path d="m56.25,55c0,.27-.45.5-1,.5h-10.5c-.55,0-1-.23-1-.5s.45-.5,1-.5h10.5c.55,0,1,.23,1,.5Z" style="fill: none; stroke: #fff; stroke-miterlimit: 10;"></path></g><g><circle cx="32.5" cy="25" r=".75" style="fill: #fff; stroke: #fff; stroke-miterlimit: 10;"></circle><circle cx="27.5" cy="25" r=".75" style="fill: #fff; stroke: #fff; stroke-miterlimit: 10;"></circle><circle cx="22.5" cy="25" r=".75" style="fill: #fff; stroke: #fff; stroke-miterlimit: 10;"></circle></g><g><circle cx="32.5" cy="40" r=".75" style="fill: #fff; stroke: #fff; stroke-miterlimit: 10;"></circle><circle cx="27.5" cy="40" r=".75" style="fill: #fff; stroke: #fff; stroke-miterlimit: 10;"></circle><circle cx="22.5" cy="40" r=".75" style="fill: #fff; stroke: #fff; stroke-miterlimit: 10;"></circle></g><g><circle cx="32.5" cy="55" r=".75" style="fill: #fff; stroke: #fff; stroke-miterlimit: 10;"></circle><circle cx="27.5" cy="55" r=".75" style="fill: #fff; stroke: #fff; stroke-miterlimit: 10;"></circle><circle cx="22.5" cy="55" r=".75" style="fill: #fff; stroke: #fff; stroke-miterlimit: 10;"></circle></g></g></svg></g></g></g><g id="service-db" class="architecture-service" transform="translate(-135.75,41.5)"><g dy="1em" alignment-baseline="middle" dominant-baseline="middle" text-anchor="middle" transform="translate(40, 80)"><g><rect class="background" style="stroke: none"></rect><text y="-10.1" style=""><tspan class="text-outer-tspan" x="0" y="-0.1em" dy="1.1em"><tspan font-style="normal" class="text-inner-tspan" font-weight="normal">DB</tspan></tspan></text></g></g><g><g><svg xmlns="http://www.w3.org/2000/svg" width="80" height="80" viewBox="0 0 80 80"><g><rect width="80" height="80" style="fill: #087ebf; stroke-width: 0px;"></rect><path id="IconifyId19c65c529e047e4ce0" data-name="4" d="m20,57.86c0,3.94,8.95,7.14,20,7.14s20-3.2,20-7.14" style="fill: none; stroke: #fff; stroke-miterlimit: 10; stroke-width: 2px;"></path><path id="IconifyId19c65c529e047e4ce1" data-name="3" d="m20,45.95c0,3.94,8.95,7.14,20,7.14s20-3.2,20-7.14" style="fill: none; stroke: #fff; stroke-miterlimit: 10; stroke-width: 2px;"></path><path id="IconifyId19c65c529e047e4ce2" data-name="2" d="m20,34.05c0,3.94,8.95,7.14,20,7.14s20-3.2,20-7.14" style="fill: none; stroke: #fff; stroke-miterlimit: 10; stroke-width: 2px;"></path><ellipse id="IconifyId19c65c529e047e4ce3" data-name="1" cx="40" cy="22.14" rx="20" ry="7.14" style="fill: none; stroke: #fff; stroke-miterlimit: 10; stroke-width: 2px;"></ellipse><line x1="20" y1="57.86" x2="20" y2="22.14" style="fill: none; stroke: #fff; stroke-miterlimit: 10; stroke-width: 2px;"></line><line x1="60" y1="57.86" x2="60" y2="22.14" style="fill: none; stroke: #fff; stroke-miterlimit: 10; stroke-width: 2px;"></line></g></svg></g></g></g><g class="architecture-junction" transform="translate(224.25,41.5)"><g><rect id="node-j_read" fill-opacity="0" width="80" height="80"></rect></g></g><g class="architecture-junction" transform="translate(104.25000000000001,203.7195552419549)"><g><rect id="node-j_write" fill-opacity="0" width="80" height="80"></rect></g></g><g class="architecture-junction" transform="translate(104.25000000000001,-120.71955524195491)"><g><rect id="node-j_health" fill-opacity="0" width="80" height="80"></rect></g></g><g class="architecture-junction" transform="translate(-15.749999999999957,41.5)"><g><rect id="node-j_metrics" fill-opacity="0" width="80" height="80"></rect></g></g></g><g class="architecture-groups"></g></svg>