<svg id="repetition_optional_numval" width="100%" xmlns="http://www.w3.org/2000/svg" xmlns:xlink="http://www.w3.org/1999/xlink" class="railroad-diagram" style="max-width: 289.797px; background-color: white;" viewBox="0 0 289.796875 221" role="graphics-document document" aria-roledescription="railroadAbnf"><style>#repetition_optional_numval{font-family:"trebuchet ms",verdana,arial,sans-serif;font-size:16px;fill:#333;}@keyframes edge-animation-frame{from{stroke-dashoffset:0;}}@keyframes dash{to{stroke-dashoffset:0;}}#repetition_optional_numval .edge-animation-slow{stroke-dasharray:9,5!important;stroke-dashoffset:900;animation:dash 50s linear infinite;stroke-linecap:round;}#repetition_optional_numval .edge-animation-fast{stroke-dasharray:9,5!important;stroke-dashoffset:900;animation:dash 20s linear infinite;stroke-linecap:round;}#repetition_optional_numval .error-icon{fill:#552222;}#repetition_optional_numval .error-text{fill:#552222;stroke:#552222;}#repetition_optional_numval .edge-thickness-normal{stroke-width:1px;}#repetition_optional_numval .edge-thickness-thick{stroke-width:3.5px;}#repetition_optional_numval .edge-pattern-solid{stroke-dasharray:0;}#repetition_optional_numval .edge-thickness-invisible{stroke-width:0;fill:none;}#repetition_optional_numval .edge-pattern-dashed{stroke-dasharray:3;}#repetition_optional_numval .edge-pattern-dotted{stroke-dasharray:2;}#repetition_optional_numval .marker{fill:#333333;stroke:#333333;}#repetition_optional_numval .marker.cross{stroke:#333333;}#repetition_optional_numval svg{font-family:"trebuchet ms",verdana,arial,sans-serif;font-size:16px;}#repetition_optional_numval p{margin:0;}#repetition_optional_numval .railroad-diagram{font-family:"trebuchet ms",verdana,arial,sans-serif;font-size:16px;}#repetition_optional_numval .railroad-terminal rect{fill:#ffffde;stroke:hsl(60, 60%, 83.5294117647%);stroke-width:2px;}#repetition_optional_numval .railroad-terminal text{fill:#000021;font-family:"trebuchet ms",verdana,arial,sans-serif;font-size:16px;text-anchor:middle;dominant-baseline:middle;}#repetition_optional_numval .railroad-nonterminal rect{fill:#ECECFF;stroke:hsl(240, 60%, 86.2745098039%);stroke-width:2px;}#repetition_optional_numval .railroad-nonterminal text{fill:#131300;font-family:"trebuchet ms",verdana,arial,sans-serif;font-size:16px;text-anchor:middle;dominant-baseline:middle;}#repetition_optional_numval .railroad-line{stroke:#333333;stroke-width:2px;fill:none;}#repetition_optional_numval .railroad-start circle,#repetition_optional_numval .railroad-end circle{fill:#333333;}#repetition_optional_numval .railroad-comment ellipse{fill:rgba(232,232,232, 0.8);stroke:hsl(80, 60%, 86.2745098039%);stroke-width:2px;}#repetition_optional_numval .railroad-comment text{fill:rgb(6.3333333334, 0, 19.0000000001);font-style:italic;font-family:"trebuchet ms",verdana,arial,sans-serif;font-size:16px;text-anchor:middle;dominant-baseline:middle;}#repetition_optional_numval .railroad-special rect{fill:hsl(80, 100%, 96.2745098039%);stroke:hsl(80, 60%, 86.2745098039%);stroke-width:2px;stroke-dasharray:5,3;}#repetition_optional_numval .railroad-special text{fill:#131300;font-family:"trebuchet ms",verdana,arial,sans-serif;font-size:16px;text-anchor:middle;dominant-baseline:middle;}#repetition_optional_numval .railroad-rule-name{font-weight:bold;fill:#333;font-family:"trebuchet ms",verdana,arial,sans-serif;font-size:16px;}#repetition_optional_numval .node .neo-node{stroke:#9370DB;}#repetition_optional_numval [data-look="neo"].node rect,#repetition_optional_numval [data-look="neo"].cluster rect,#repetition_optional_numval [data-look="neo"].node polygon{stroke:#9370DB;filter:drop-shadow(1px 2px 2px rgba(185, 185, 185, 1));}#repetition_optional_numval [data-look="neo"].swimlane.cluster rect{filter:none;}#repetition_optional_numval [data-look="neo"].node path{stroke:#9370DB;stroke-width:1px;}#repetition_optional_numval [data-look="neo"].node .outer-path{filter:drop-shadow(1px 2px 2px rgba(185, 185, 185, 1));}#repetition_optional_numval [data-look="neo"].node .neo-line path{stroke:#9370DB;filter:none;}#repetition_optional_numval [data-look="neo"].node circle{stroke:#9370DB;filter:drop-shadow(1px 2px 2px rgba(185, 185, 185, 1));}#repetition_optional_numval [data-look="neo"].node circle .state-start{fill:#000000;}#repetition_optional_numval [data-look="neo"].icon-shape .icon{fill:#9370DB;filter:drop-shadow(1px 2px 2px rgba(185, 185, 185, 1));}#repetition_optional_numval [data-look="neo"].icon-shape .icon-neo path{stroke:#9370DB;filter:drop-shadow(1px 2px 2px rgba(185, 185, 185, 1));}#repetition_optional_numval :root{--mermaid-font-family:"trebuchet ms",verdana,arial,sans-serif;}</style><g/><g class="railroad-rule" transform="translate(0, 10)"><g transform="translate(81.625, 0)"><g class="railroad-choice"><g class="railroad-repetition" transform="translate(38.6328125, 0)"><g class="railroad-terminal" transform="translate(20, 0)"><rect x="0" y="0" width="55.90625" height="39" rx="10" ry="10"/><text x="27.953125" y="19.5">hello</text></g><path class="railroad-line" d="M 0 19.5 L 20 19.5"/><path class="railroad-line" d="M 75.90625 19.5 L 95.90625 19.5"/><path class="railroad-line" d="M 75.90625 19.5 A 10 10 0 0 1 85.90625 29.5 L 85.90625 49 A 10 10 0 0 1 75.90625 59 L 20 59 A 10 10 0 0 1 10 49 L 10 29.5 A 10 10 0 0 1 20 19.5"/></g><path class="railroad-line" d="M 0 86.5 A 10 10 0 0 0 10 76.5 L 10 29.5 A 10 10 0 0 1 20 19.5 L 38.6328125 19.5"/><path class="railroad-line" d="M 134.5390625 19.5 L 153.171875 19.5 A 10 10 0 0 1 163.171875 29.5 L 163.171875 76.5 A 10 10 0 0 0 173.171875 86.5"/><g class="railroad-optional" transform="translate(20, 67)"><g class="railroad-nonterminal" transform="translate(20, 20)"><rect x="0" y="0" width="93.171875" height="39"/><text x="46.5859375" y="19.5">other-rule</text></g><path class="railroad-line" d="M 0 39.5 L 20 39.5"/><path class="railroad-line" d="M 113.171875 39.5 L 133.171875 39.5"/><path class="railroad-line" d="M 0 39.5 A 10 10 0 0 0 10 29.5 L 10 10 A 10 10 0 0 1 20 0 L 113.171875 0 A 10 10 0 0 1 123.171875 10 L 123.171875 29.5 A 10 10 0 0 0 133.171875 39.5"/></g><path class="railroad-line" d="M 0 86.5 A 10 10 0 0 1 10 96.5 L 10 96.5 A 10 10 0 0 0 20 106.5 L 20 106.5"/><path class="railroad-line" d="M 153.171875 106.5 L 153.171875 106.5 A 10 10 0 0 0 163.171875 96.5 L 163.171875 96.5 A 10 10 0 0 1 173.171875 86.5"/><g class="railroad-terminal" transform="translate(59.3828125, 134)"><rect x="0" y="0" width="54.40625" height="39" rx="10" ry="10"/><text x="27.203125" y="19.5">%x41</text></g><path class="railroad-line" d="M 0 86.5 A 10 10 0 0 1 10 96.5 L 10 143.5 A 10 10 0 0 0 20 153.5 L 59.3828125 153.5"/><path class="railroad-line" d="M 113.7890625 153.5 L 153.171875 153.5 A 10 10 0 0 0 163.171875 143.5 L 163.171875 96.5 A 10 10 0 0 1 173.171875 86.5"/></g></g><g class="railroad-rule-name-group"><text class="railroad-rule-name" x="0" y="86.5">rule =</text></g><g class="railroad-start"><circle cx="61.625" cy="86.5" r="5"/></g><g class="railroad-end"><circle cx="264.796875" cy="86.5" r="5"/></g><path class="railroad-line" d="M 66.625 86.5 L 81.625 86.5"/><path class="railroad-line" d="M 254.796875 86.5 L 259.796875 86.5"/></g></svg>