<svg id="upstream_cypress_newshapes_spec_newshapessets_newshapesset2_tb_md_html_false_014" width="100%" xmlns="http://www.w3.org/2000/svg" xmlns:xlink="http://www.w3.org/1999/xlink" class="flowchart" style="max-width: 1000.24px; background-color: white;" viewBox="0 0 1000.2416381835938 273.6844482421875" role="graphics-document document" aria-roledescription="flowchart-v2"><style>#upstream_cypress_newshapes_spec_newshapessets_newshapesset2_tb_md_html_false_014{font-family:"trebuchet ms",verdana,arial,sans-serif;font-size:16px;fill:#333;}@keyframes edge-animation-frame{from{stroke-dashoffset:0;}}@keyframes dash{to{stroke-dashoffset:0;}}#upstream_cypress_newshapes_spec_newshapessets_newshapesset2_tb_md_html_false_014 .edge-animation-slow{stroke-dasharray:9,5!important;stroke-dashoffset:900;animation:dash 50s linear infinite;stroke-linecap:round;}#upstream_cypress_newshapes_spec_newshapessets_newshapesset2_tb_md_html_false_014 .edge-animation-fast{stroke-dasharray:9,5!important;stroke-dashoffset:900;animation:dash 20s linear infinite;stroke-linecap:round;}#upstream_cypress_newshapes_spec_newshapessets_newshapesset2_tb_md_html_false_014 .error-icon{fill:#552222;}#upstream_cypress_newshapes_spec_newshapessets_newshapesset2_tb_md_html_false_014 .error-text{fill:#552222;stroke:#552222;}#upstream_cypress_newshapes_spec_newshapessets_newshapesset2_tb_md_html_false_014 .edge-thickness-normal{stroke-width:1px;}#upstream_cypress_newshapes_spec_newshapessets_newshapesset2_tb_md_html_false_014 .edge-thickness-thick{stroke-width:3.5px;}#upstream_cypress_newshapes_spec_newshapessets_newshapesset2_tb_md_html_false_014 .edge-pattern-solid{stroke-dasharray:0;}#upstream_cypress_newshapes_spec_newshapessets_newshapesset2_tb_md_html_false_014 .edge-thickness-invisible{stroke-width:0;fill:none;}#upstream_cypress_newshapes_spec_newshapessets_newshapesset2_tb_md_html_false_014 .edge-pattern-dashed{stroke-dasharray:3;}#upstream_cypress_newshapes_spec_newshapessets_newshapesset2_tb_md_html_false_014 .edge-pattern-dotted{stroke-dasharray:2;}#upstream_cypress_newshapes_spec_newshapessets_newshapesset2_tb_md_html_false_014 .marker{fill:#333333;stroke:#333333;}#upstream_cypress_newshapes_spec_newshapessets_newshapesset2_tb_md_html_false_014 .marker.cross{stroke:#333333;}#upstream_cypress_newshapes_spec_newshapessets_newshapesset2_tb_md_html_false_014 svg{font-family:"trebuchet ms",verdana,arial,sans-serif;font-size:16px;}#upstream_cypress_newshapes_spec_newshapessets_newshapesset2_tb_md_html_false_014 p{margin:0;}#upstream_cypress_newshapes_spec_newshapessets_newshapesset2_tb_md_html_false_014 .label{font-family:"trebuchet ms",verdana,arial,sans-serif;color:#333;}#upstream_cypress_newshapes_spec_newshapessets_newshapesset2_tb_md_html_false_014 .cluster-label text{fill:#333;}#upstream_cypress_newshapes_spec_newshapessets_newshapesset2_tb_md_html_false_014 .cluster-label span{color:#333;}#upstream_cypress_newshapes_spec_newshapessets_newshapesset2_tb_md_html_false_014 .cluster-label span p{background-color:transparent;}#upstream_cypress_newshapes_spec_newshapessets_newshapesset2_tb_md_html_false_014 .label text,#upstream_cypress_newshapes_spec_newshapessets_newshapesset2_tb_md_html_false_014 span{fill:#333;color:#333;}#upstream_cypress_newshapes_spec_newshapessets_newshapesset2_tb_md_html_false_014 .node rect,#upstream_cypress_newshapes_spec_newshapessets_newshapesset2_tb_md_html_false_014 .node circle,#upstream_cypress_newshapes_spec_newshapessets_newshapesset2_tb_md_html_false_014 .node ellipse,#upstream_cypress_newshapes_spec_newshapessets_newshapesset2_tb_md_html_false_014 .node polygon,#upstream_cypress_newshapes_spec_newshapessets_newshapesset2_tb_md_html_false_014 .node path{fill:#ECECFF;stroke:#9370DB;stroke-width:1px;}#upstream_cypress_newshapes_spec_newshapessets_newshapesset2_tb_md_html_false_014 .rough-node .label text,#upstream_cypress_newshapes_spec_newshapessets_newshapesset2_tb_md_html_false_014 .node .label text,#upstream_cypress_newshapes_spec_newshapessets_newshapesset2_tb_md_html_false_014 .image-shape .label,#upstream_cypress_newshapes_spec_newshapessets_newshapesset2_tb_md_html_false_014 .icon-shape .label{text-anchor:middle;}#upstream_cypress_newshapes_spec_newshapessets_newshapesset2_tb_md_html_false_014 .node .katex path{fill:#000;stroke:#000;stroke-width:1px;}#upstream_cypress_newshapes_spec_newshapessets_newshapesset2_tb_md_html_false_014 .rough-node .label,#upstream_cypress_newshapes_spec_newshapessets_newshapesset2_tb_md_html_false_014 .node .label,#upstream_cypress_newshapes_spec_newshapessets_newshapesset2_tb_md_html_false_014 .image-shape .label,#upstream_cypress_newshapes_spec_newshapessets_newshapesset2_tb_md_html_false_014 .icon-shape .label{text-align:center;}#upstream_cypress_newshapes_spec_newshapessets_newshapesset2_tb_md_html_false_014 .node.clickable{cursor:pointer;}#upstream_cypress_newshapes_spec_newshapessets_newshapesset2_tb_md_html_false_014 .root .anchor path{fill:#333333!important;stroke-width:0;stroke:#333333;}#upstream_cypress_newshapes_spec_newshapessets_newshapesset2_tb_md_html_false_014 .arrowheadPath{fill:#333333;}#upstream_cypress_newshapes_spec_newshapessets_newshapesset2_tb_md_html_false_014 .edgePath .path{stroke:#333333;stroke-width:1px;}#upstream_cypress_newshapes_spec_newshapessets_newshapesset2_tb_md_html_false_014 .flowchart-link{stroke:#333333;fill:none;}#upstream_cypress_newshapes_spec_newshapessets_newshapesset2_tb_md_html_false_014 .edgeLabel{background-color:rgba(232,232,232, 0.8);text-align:center;}#upstream_cypress_newshapes_spec_newshapessets_newshapesset2_tb_md_html_false_014 .edgeLabel p{background-color:rgba(232,232,232, 0.8);}#upstream_cypress_newshapes_spec_newshapessets_newshapesset2_tb_md_html_false_014 .edgeLabel rect{opacity:0.5;background-color:rgba(232,232,232, 0.8);fill:rgba(232,232,232, 0.8);}#upstream_cypress_newshapes_spec_newshapessets_newshapesset2_tb_md_html_false_014 .labelBkg{background-color:rgba(232, 232, 232, 0.5);}#upstream_cypress_newshapes_spec_newshapessets_newshapesset2_tb_md_html_false_014 .cluster rect{fill:#ffffde;stroke:#aaaa33;stroke-width:1px;}#upstream_cypress_newshapes_spec_newshapessets_newshapesset2_tb_md_html_false_014 .cluster text{fill:#333;}#upstream_cypress_newshapes_spec_newshapessets_newshapesset2_tb_md_html_false_014 .cluster span{color:#333;}#upstream_cypress_newshapes_spec_newshapessets_newshapesset2_tb_md_html_false_014 div.mermaidTooltip{position:absolute;text-align:center;max-width:200px;padding:2px;font-family:"trebuchet ms",verdana,arial,sans-serif;font-size:12px;background:hsl(80, 100%, 96.2745098039%);border:1px solid #aaaa33;border-radius:2px;pointer-events:none;z-index:100;}#upstream_cypress_newshapes_spec_newshapessets_newshapesset2_tb_md_html_false_014 .flowchartTitleText{text-anchor:middle;font-size:18px;fill:#333;}#upstream_cypress_newshapes_spec_newshapessets_newshapesset2_tb_md_html_false_014 rect.text{fill:none;stroke-width:0;}#upstream_cypress_newshapes_spec_newshapessets_newshapesset2_tb_md_html_false_014 .icon-shape,#upstream_cypress_newshapes_spec_newshapessets_newshapesset2_tb_md_html_false_014 .image-shape{background-color:rgba(232,232,232, 0.8);text-align:center;}#upstream_cypress_newshapes_spec_newshapessets_newshapesset2_tb_md_html_false_014 .icon-shape p,#upstream_cypress_newshapes_spec_newshapessets_newshapesset2_tb_md_html_false_014 .image-shape p{background-color:rgba(232,232,232, 0.8);padding:2px;}#upstream_cypress_newshapes_spec_newshapessets_newshapesset2_tb_md_html_false_014 .icon-shape .label rect,#upstream_cypress_newshapes_spec_newshapessets_newshapesset2_tb_md_html_false_014 .image-shape .label rect{opacity:0.5;background-color:rgba(232,232,232, 0.8);fill:rgba(232,232,232, 0.8);}#upstream_cypress_newshapes_spec_newshapessets_newshapesset2_tb_md_html_false_014 .label-icon{display:inline-block;height:1em;overflow:visible;vertical-align:-0.125em;}#upstream_cypress_newshapes_spec_newshapessets_newshapesset2_tb_md_html_false_014 .node .label-icon path{fill:currentColor;stroke:revert;stroke-width:revert;}#upstream_cypress_newshapes_spec_newshapessets_newshapesset2_tb_md_html_false_014 .node .neo-node{stroke:#9370DB;}#upstream_cypress_newshapes_spec_newshapessets_newshapesset2_tb_md_html_false_014 [data-look="neo"].node rect,#upstream_cypress_newshapes_spec_newshapessets_newshapesset2_tb_md_html_false_014 [data-look="neo"].cluster rect,#upstream_cypress_newshapes_spec_newshapessets_newshapesset2_tb_md_html_false_014 [data-look="neo"].node polygon{stroke:#9370DB;filter:drop-shadow(1px 2px 2px rgba(185, 185, 185, 1));}#upstream_cypress_newshapes_spec_newshapessets_newshapesset2_tb_md_html_false_014 [data-look="neo"].node path{stroke:#9370DB;stroke-width:1px;}#upstream_cypress_newshapes_spec_newshapessets_newshapesset2_tb_md_html_false_014 [data-look="neo"].node .outer-path{filter:drop-shadow(1px 2px 2px rgba(185, 185, 185, 1));}#upstream_cypress_newshapes_spec_newshapessets_newshapesset2_tb_md_html_false_014 [data-look="neo"].node .neo-line path{stroke:#9370DB;filter:none;}#upstream_cypress_newshapes_spec_newshapessets_newshapesset2_tb_md_html_false_014 [data-look="neo"].node circle{stroke:#9370DB;filter:drop-shadow(1px 2px 2px rgba(185, 185, 185, 1));}#upstream_cypress_newshapes_spec_newshapessets_newshapesset2_tb_md_html_false_014 [data-look="neo"].node circle .state-start{fill:#000000;}#upstream_cypress_newshapes_spec_newshapessets_newshapesset2_tb_md_html_false_014 [data-look="neo"].icon-shape .icon{fill:#9370DB;filter:drop-shadow(1px 2px 2px rgba(185, 185, 185, 1));}#upstream_cypress_newshapes_spec_newshapessets_newshapesset2_tb_md_html_false_014 [data-look="neo"].icon-shape .icon-neo path{stroke:#9370DB;filter:drop-shadow(1px 2px 2px rgba(185, 185, 185, 1));}#upstream_cypress_newshapes_spec_newshapessets_newshapesset2_tb_md_html_false_014 :root{--mermaid-font-family:"trebuchet ms",verdana,arial,sans-serif;}</style><g><marker id="upstream_cypress_newshapes_spec_newshapessets_newshapesset2_tb_md_html_false_014_flowchart-v2-pointEnd" class="marker flowchart-v2" viewBox="0 0 10 10" refX="5" refY="5" markerUnits="userSpaceOnUse" markerWidth="8" markerHeight="8" orient="auto"><path d="M 0 0 L 10 5 L 0 10 z" class="arrowMarkerPath" style="stroke-width: 1; stroke-dasharray: 1, 0;"/></marker><marker id="upstream_cypress_newshapes_spec_newshapessets_newshapesset2_tb_md_html_false_014_flowchart-v2-pointStart" class="marker flowchart-v2" viewBox="0 0 10 10" refX="4.5" refY="5" markerUnits="userSpaceOnUse" markerWidth="8" markerHeight="8" orient="auto"><path d="M 0 5 L 10 10 L 10 0 z" class="arrowMarkerPath" style="stroke-width: 1; stroke-dasharray: 1, 0;"/></marker><marker id="upstream_cypress_newshapes_spec_newshapessets_newshapesset2_tb_md_html_false_014_flowchart-v2-pointEnd-margin" class="marker flowchart-v2" viewBox="0 0 11.5 14" refX="11.5" refY="7" markerUnits="userSpaceOnUse" markerWidth="10.5" markerHeight="14" orient="auto"><path d="M 0 0 L 11.5 7 L 0 14 z" class="arrowMarkerPath" style="stroke-width: 0; stroke-dasharray: 1, 0;"/></marker><marker id="upstream_cypress_newshapes_spec_newshapessets_newshapesset2_tb_md_html_false_014_flowchart-v2-pointStart-margin" class="marker flowchart-v2" viewBox="0 0 11.5 14" refX="1" refY="7" markerUnits="userSpaceOnUse" markerWidth="11.5" markerHeight="14" orient="auto"><polygon points="0,7 11.5,14 11.5,0" class="arrowMarkerPath" style="stroke-width: 0; stroke-dasharray: 1, 0;"/></marker><marker id="upstream_cypress_newshapes_spec_newshapessets_newshapesset2_tb_md_html_false_014_flowchart-v2-circleEnd" class="marker flowchart-v2" viewBox="0 0 10 10" refX="11" refY="5" markerUnits="userSpaceOnUse" markerWidth="11" markerHeight="11" orient="auto"><circle cx="5" cy="5" r="5" class="arrowMarkerPath" style="stroke-width: 1; stroke-dasharray: 1, 0;"/></marker><marker id="upstream_cypress_newshapes_spec_newshapessets_newshapesset2_tb_md_html_false_014_flowchart-v2-circleStart" class="marker flowchart-v2" viewBox="0 0 10 10" refX="-1" refY="5" markerUnits="userSpaceOnUse" markerWidth="11" markerHeight="11" orient="auto"><circle cx="5" cy="5" r="5" class="arrowMarkerPath" style="stroke-width: 1; stroke-dasharray: 1, 0;"/></marker><marker id="upstream_cypress_newshapes_spec_newshapessets_newshapesset2_tb_md_html_false_014_flowchart-v2-circleEnd-margin" class="marker flowchart-v2" viewBox="0 0 10 10" refY="5" refX="12.25" markerUnits="userSpaceOnUse" markerWidth="14" markerHeight="14" orient="auto"><circle cx="5" cy="5" r="5" class="arrowMarkerPath" style="stroke-width: 0; stroke-dasharray: 1, 0;"/></marker><marker id="upstream_cypress_newshapes_spec_newshapessets_newshapesset2_tb_md_html_false_014_flowchart-v2-circleStart-margin" class="marker flowchart-v2" viewBox="0 0 10 10" refX="-2" refY="5" markerUnits="userSpaceOnUse" markerWidth="14" markerHeight="14" orient="auto"><circle cx="5" cy="5" r="5" class="arrowMarkerPath" style="stroke-width: 0; stroke-dasharray: 1, 0;"/></marker><marker id="upstream_cypress_newshapes_spec_newshapessets_newshapesset2_tb_md_html_false_014_flowchart-v2-crossEnd" class="marker cross flowchart-v2" viewBox="0 0 11 11" refX="12" refY="5.2" markerUnits="userSpaceOnUse" markerWidth="11" markerHeight="11" orient="auto"><path d="M 1,1 l 9,9 M 10,1 l -9,9" class="arrowMarkerPath" style="stroke-width: 2; stroke-dasharray: 1, 0;"/></marker><marker id="upstream_cypress_newshapes_spec_newshapessets_newshapesset2_tb_md_html_false_014_flowchart-v2-crossStart" class="marker cross flowchart-v2" viewBox="0 0 11 11" refX="-1" refY="5.2" markerUnits="userSpaceOnUse" markerWidth="11" markerHeight="11" orient="auto"><path d="M 1,1 l 9,9 M 10,1 l -9,9" class="arrowMarkerPath" style="stroke-width: 2; stroke-dasharray: 1, 0;"/></marker><marker id="upstream_cypress_newshapes_spec_newshapessets_newshapesset2_tb_md_html_false_014_flowchart-v2-crossEnd-margin" class="marker cross flowchart-v2" viewBox="0 0 15 15" refX="17.7" refY="7.5" markerUnits="userSpaceOnUse" markerWidth="12" markerHeight="12" orient="auto"><path d="M 1,1 L 14,14 M 1,14 L 14,1" class="arrowMarkerPath" style="stroke-width: 2.5;"/></marker><marker id="upstream_cypress_newshapes_spec_newshapessets_newshapesset2_tb_md_html_false_014_flowchart-v2-crossStart-margin" class="marker cross flowchart-v2" viewBox="0 0 15 15" refX="-3.5" refY="7.5" markerUnits="userSpaceOnUse" markerWidth="12" markerHeight="12" orient="auto"><path d="M 1,1 L 14,14 M 1,14 L 14,1" class="arrowMarkerPath" style="stroke-width: 2.5; stroke-dasharray: 1, 0;"/></marker><g class="root"><g class="clusters"/><g class="edgePaths"><path d="M117.446,57L117.446,61.167C117.446,65.333,117.446,73.667,117.523,86.157C117.6,98.648,117.754,115.297,117.831,123.621L117.909,131.945" id="upstream_cypress_newshapes_spec_newshapessets_newshapesset2_tb_md_html_false_014-L_n0_n00_0" class="edge-thickness-normal edge-pattern-solid edge-thickness-normal edge-pattern-solid flowchart-link" style=";" data-edge="true" data-et="edge" data-id="L_n0_n00_0" data-points="W3sieCI6MTE3LjQ0NTYyNTMwNTE3NTc4LCJ5Ijo1N30seyJ4IjoxMTcuNDQ1NjI1MzA1MTc1NzgsInkiOjgyfSx7IngiOjExNy45NDU2MjUzMDUxNzU4LCJ5IjoxMzUuOTQ0ODI0MjE4NzUwMDN9XQ==" data-look="classic" marker-end="url(#upstream_cypress_newshapes_spec_newshapessets_newshapesset2_tb_md_html_false_014_flowchart-v2-pointEnd)"/><path d="M390.993,57L390.993,61.167C390.993,65.333,390.993,73.667,391.063,81.417C391.133,89.167,391.274,96.334,391.344,99.917L391.414,103.501" id="upstream_cypress_newshapes_spec_newshapessets_newshapesset2_tb_md_html_false_014-L_n1_n11_0" class="edge-thickness-normal edge-pattern-solid edge-thickness-normal edge-pattern-solid flowchart-link" style=";" data-edge="true" data-et="edge" data-id="L_n1_n11_0" data-points="W3sieCI6MzkwLjk5MjgxMzExMDM1MTU2LCJ5Ijo1N30seyJ4IjozOTAuOTkyODEzMTEwMzUxNTYsInkiOjgyfSx7IngiOjM5MS40OTI4MTMxMTAzNTE1NiwieSI6MTA3LjV9XQ==" data-look="classic" marker-end="url(#upstream_cypress_newshapes_spec_newshapessets_newshapesset2_tb_md_html_false_014_flowchart-v2-pointEnd)"/><path d="M572.594,57L572.594,61.167C572.594,65.333,572.594,73.667,572.674,92.016C572.754,110.365,572.913,138.73,572.992,152.912L573.072,167.095" id="upstream_cypress_newshapes_spec_newshapessets_newshapesset2_tb_md_html_false_014-L_n2_n22_0" class="edge-thickness-normal edge-pattern-solid edge-thickness-normal edge-pattern-solid flowchart-link" style=";" data-edge="true" data-et="edge" data-id="L_n2_n22_0" data-points="W3sieCI6NTcyLjU5NDM3NTYxMDM1MTYsInkiOjU3fSx7IngiOjU3Mi41OTQzNzU2MTAzNTE2LCJ5Ijo4Mn0seyJ4Ijo1NzMuMDk0Mzc1NjEwMzUxNiwieSI6MTcxLjA5NDgyNTc0NDYyOX1d" data-look="classic" marker-end="url(#upstream_cypress_newshapes_spec_newshapessets_newshapesset2_tb_md_html_false_014_flowchart-v2-pointEnd)"/><path d="M699.735,57L699.735,61.167C699.735,65.333,699.735,73.667,699.735,93.391C699.735,113.115,699.735,144.23,699.735,159.787L699.735,175.345" id="upstream_cypress_newshapes_spec_newshapessets_newshapesset2_tb_md_html_false_014-L_n3_n33_0" class="edge-thickness-normal edge-pattern-solid edge-thickness-normal edge-pattern-solid flowchart-link" style=";" data-edge="true" data-et="edge" data-id="L_n3_n33_0" data-points="W3sieCI6Njk5LjczNTAwMDYxMDM1MTYsInkiOjU3fSx7IngiOjY5OS43MzUwMDA2MTAzNTE2LCJ5Ijo4Mn0seyJ4Ijo2OTkuNzM1MDAwNjEwMzUxNiwieSI6MTc5LjM0NDgyNTc0NDYyODl9XQ==" data-look="classic" marker-end="url(#upstream_cypress_newshapes_spec_newshapessets_newshapesset2_tb_md_html_false_014_flowchart-v2-pointEnd)"/><path d="M874.492,57L874.492,61.167C874.492,65.333,874.492,73.667,874.568,85.324C874.645,96.982,874.798,111.963,874.874,119.454L874.951,126.945" id="upstream_cypress_newshapes_spec_newshapessets_newshapesset2_tb_md_html_false_014-L_n4_n44_0" class="edge-thickness-normal edge-pattern-solid edge-thickness-normal edge-pattern-solid flowchart-link" style=";" data-edge="true" data-et="edge" data-id="L_n4_n44_0" data-points="W3sieCI6ODc0LjQ5MTY0NzI0MzQ5OTgsInkiOjU3fSx7IngiOjg3NC40OTE2NDcyNDM0OTk4LCJ5Ijo4Mn0seyJ4Ijo4NzQuOTkxNjQ3MjQzNDk5OCwieSI6MTMwLjk0NDgyNDIxODc1fV0=" data-look="classic" marker-end="url(#upstream_cypress_newshapes_spec_newshapessets_newshapesset2_tb_md_html_false_014_flowchart-v2-pointEnd)"/></g><g class="edgeLabels"><g class="edgeLabel"><g class="label" data-id="L_n0_n00_0" transform="translate(0, 0)"><text y="-10.1" text-anchor="middle"><tspan class="text-outer-tspan row" x="0" y="-0.1em" dy="1.1em" text-anchor="middle"/></text></g></g><g><rect class="background" style="stroke: none"/></g><g class="edgeLabel"><g class="label" data-id="L_n1_n11_0" transform="translate(0, 0)"><text y="-10.1" text-anchor="middle"><tspan class="text-outer-tspan row" x="0" y="-0.1em" dy="1.1em" text-anchor="middle"/></text></g></g><g><rect class="background" style="stroke: none"/></g><g class="edgeLabel"><g class="label" data-id="L_n2_n22_0" transform="translate(0, 0)"><text y="-10.1" text-anchor="middle"><tspan class="text-outer-tspan row" x="0" y="-0.1em" dy="1.1em" text-anchor="middle"/></text></g></g><g><rect class="background" style="stroke: none"/></g><g class="edgeLabel"><g class="label" data-id="L_n3_n33_0" transform="translate(0, 0)"><text y="-10.1" text-anchor="middle"><tspan class="text-outer-tspan row" x="0" y="-0.1em" dy="1.1em" text-anchor="middle"/></text></g></g><g><rect class="background" style="stroke: none"/></g><g class="edgeLabel"><g class="label" data-id="L_n4_n44_0" transform="translate(0, 0)"><text y="-10.1" text-anchor="middle"><tspan class="text-outer-tspan row" x="0" y="-0.1em" dy="1.1em" text-anchor="middle"/></text></g></g><g><rect class="background" style="stroke: none"/></g></g><g class="nodes"><g class="node default" id="upstream_cypress_newshapes_spec_newshapessets_newshapesset2_tb_md_html_false_014-flowchart-n0-0" data-look="classic" transform="translate(117.44562530517578, 32.5)"><rect class="basic label-container" style="" x="-38.87109375" y="-24.5" width="77.7421875" height="49"/><g class="label" style="" transform="translate(0, -9.5)"><rect/><g><rect class="background" style="stroke: none"/><text y="-10.1" style=""><tspan class="text-outer-tspan row" x="0" y="-0.1em" dy="1.1em"><tspan font-style="normal" class="text-inner-tspan" font-weight="normal">n0</tspan></tspan></text></g></g></g><g class="node default" id="upstream_cypress_newshapes_spec_newshapessets_newshapesset2_tb_md_html_false_014-flowchart-n00-1" data-look="classic" transform="translate(117.44562530517578, 186.3448257446289)"><g class="basic label-container outer-path"><g><path d="M-109.44562530517578 -50.900001525878906 C-61.2929462432918 -50.900001525878906, -13.140267181407822 -50.900001525878906, 109.44562530517578 -50.900001525878906 C109.44562530517578 -17.778774218721246, 109.44562530517578 15.342453088436415, 109.44562530517578 50.900001525878906 C36.02468909268545 50.900001525878906, -37.39624711980488 50.900001525878906, -109.44562530517578 50.900001525878906 C-109.44562530517578 26.138112160981954, -109.44562530517578 1.3762227960850026, -109.44562530517578 -50.900001525878906" stroke="none" stroke-width="0" fill="#ECECFF" style=""/><path d="M-109.44562530517578 -50.900001525878906 C-65.66639113840105 -50.900001525878906, -21.88715697162631 -50.900001525878906, 109.44562530517578 -50.900001525878906 M-109.44562530517578 -50.900001525878906 C-60.993632873339294 -50.900001525878906, -12.541640441502807 -50.900001525878906, 109.44562530517578 -50.900001525878906 M109.44562530517578 -50.900001525878906 C109.44562530517578 -28.758266079899332, 109.44562530517578 -6.6165306339197585, 109.44562530517578 50.900001525878906 M109.44562530517578 -50.900001525878906 C109.44562530517578 -23.577312869374445, 109.44562530517578 3.7453757871300155, 109.44562530517578 50.900001525878906 M109.44562530517578 50.900001525878906 C62.23680720261485 50.900001525878906, 15.027989100053915 50.900001525878906, -109.44562530517578 50.900001525878906 M109.44562530517578 50.900001525878906 C27.161649899267417 50.900001525878906, -55.12232550664095 50.900001525878906, -109.44562530517578 50.900001525878906 M-109.44562530517578 50.900001525878906 C-109.44562530517578 21.702812111343466, -109.44562530517578 -7.494377303191975, -109.44562530517578 -50.900001525878906 M-109.44562530517578 50.900001525878906 C-109.44562530517578 13.86859433448938, -109.44562530517578 -23.162812856900146, -109.44562530517578 -50.900001525878906" stroke="#9370DB" stroke-width="1.3" fill="none" stroke-dasharray="0 0" style=""/></g><path d="M89.08562469482422 50.900001525878906 C94.92506257773131 50.900001525878906, 100.7645004606384 50.900001525878906, 109.44562530517578 50.900001525878906 C109.44562530517578 43.493720087601, 109.44562530517578 36.0874386493231, 109.44562530517578 30.540000915527344 C104.96674105394908 35.018885166754046, 100.48785680272238 39.49776941798075, 89.08562469482422 50.900001525878906" stroke="none" stroke-width="0" fill="#ECECFF" style=""/><path d="M89.08562469482422 50.900001525878906 C93.15771634705267 50.900001525878906, 97.2298079992811 50.900001525878906, 109.44562530517578 50.900001525878906 M89.08562469482422 50.900001525878906 C93.5923493479762 50.900001525878906, 98.09907400112819 50.900001525878906, 109.44562530517578 50.900001525878906 M109.44562530517578 50.900001525878906 C109.44562530517578 46.47165443668299, 109.44562530517578 42.04330734748708, 109.44562530517578 30.540000915527344 M109.44562530517578 50.900001525878906 C109.44562530517578 45.43546379457801, 109.44562530517578 39.97092606327712, 109.44562530517578 30.540000915527344 M109.44562530517578 30.540000915527344 C105.05453355207004 34.931092668633084, 100.6634417989643 39.322184421738825, 89.08562469482422 50.900001525878906 M109.44562530517578 30.540000915527344 C101.79204488652007 38.19358133418306, 94.13846446786435 45.84716175283877, 89.08562469482422 50.900001525878906" stroke="#9370DB" stroke-width="1.3" fill="none" stroke-dasharray="0 0" style=""/></g><g class="label" style="" transform="translate(0, -35.900001525878906)"><rect/><g><rect class="background" style="stroke: none"/><text y="-10.1" style=""><tspan class="text-outer-tspan row" x="0" y="-0.1em" dy="1.1em"><tspan font-style="normal" class="text-inner-tspan" font-weight="normal">This</tspan><tspan font-style="normal" class="text-inner-tspan" font-weight="normal"> is</tspan><tspan font-style="normal" class="text-inner-tspan" font-weight="bold"> bold</tspan></tspan><tspan class="text-outer-tspan row" x="0" y="1em" dy="1.1em"><tspan font-style="normal" class="text-inner-tspan" font-weight="normal">and</tspan><tspan font-style="normal" class="text-inner-tspan" font-weight="normal"> &lt;strong&gt;</tspan><tspan font-style="normal" class="text-inner-tspan" font-weight="normal"> strong</tspan></tspan><tspan class="text-outer-tspan row" x="0" y="2.1em" dy="1.1em"><tspan font-style="normal" class="text-inner-tspan" font-weight="normal">&lt;/strong&gt;</tspan><tspan font-style="normal" class="text-inner-tspan" font-weight="normal"> for</tspan></tspan><tspan class="text-outer-tspan row" x="0" y="3.2em" dy="1.1em"><tspan font-style="normal" class="text-inner-tspan" font-weight="normal">tagged-rectangle</tspan><tspan font-style="normal" class="text-inner-tspan" font-weight="normal"> shape</tspan></tspan></text></g></g></g><g class="node default" id="upstream_cypress_newshapes_spec_newshapessets_newshapesset2_tb_md_html_false_014-flowchart-n1-3" data-look="classic" transform="translate(390.99281311035156, 32.5)"><rect class="basic label-container" style="" x="-38.5703125" y="-24.5" width="77.140625" height="49"/><g class="label" style="" transform="translate(0, -9.5)"><rect/><g><rect class="background" style="stroke: none"/><text y="-10.1" style=""><tspan class="text-outer-tspan row" x="0" y="-0.1em" dy="1.1em"><tspan font-style="normal" class="text-inner-tspan" font-weight="normal">n1</tspan></tspan></text></g></g></g><g class="node default" id="upstream_cypress_newshapes_spec_newshapessets_newshapesset2_tb_md_html_false_014-flowchart-n11-4" data-look="classic" transform="translate(390.99281311035156, 186.3448257446289)"><g class="basic label-container outer-path" transform="translate(0,-7.300000190734863)"><path d="M-114.1015625 -52.05000162124634 C-114.1015625 -20.002845335801723, -114.1015625 12.044310949642892, -114.1015625 72.05000162124634 C-114.1015625 72.05000162124634, -114.1015625 72.05000162124634, -114.1015625 72.05000162124634 C-113.07312500796179 72.41189580367515, -112.04468751592358 72.77378998610395, -109.9375 73.51528269635904 C-108.86717596441376 73.88811299259189, -107.79685192882752 74.26094328882473, -105.7734375 74.96576741294 C-104.49465857488467 75.40216763752944, -103.21587964976933 75.83856786211891, -101.609375 76.38680882558342 C-100.65882682980373 76.70119916514103, -99.70827865960746 77.01558950469865, -97.4453125 77.7640573063667 C-96.05364231008934 78.20506312972798, -94.66197212017869 78.64606895308926, -93.28125 79.08360544690582 C-91.99062656360547 79.47057684961912, -90.70000312721095 79.85754825233244, -89.1171875 80.33212849489291 C-87.65162958214424 80.74211618525221, -86.18607166428846 81.15210387561152, -84.953125 81.49701890699248 C-83.41138304908164 81.89299877666349, -81.86964109816327 82.2889786463345, -80.7890625 82.56651365938586 C-79.34673275009627 82.90017708083003, -77.90440300019254 83.23384050227419, -76.625 83.52981303038621 C-75.64516890948508 83.72920628224546, -74.66533781897014 83.9285995341047, -72.4609375 84.3771896556613 C-71.62688976503341 84.52198351698641, -70.79284203006682 84.66677737831152, -68.296875 85.10008675482823 C-67.4442267814964 85.22112613028126, -66.5915785629928 85.34216550573429, -64.1328125 85.69120453753108 C-62.76828702164712 85.83976956715668, -61.40376154329424 85.9883345967823, -59.96875 86.144573916476 C-58.855155838661446 86.2277560301372, -57.74156167732289 86.31093814379841, -55.80468749999999 86.45561678307203 C-54.93831345979488 86.49006638006831, -54.07193941958976 86.52451597706458, -51.640625 86.62119223701609 C-50.73744206482879 86.62519100989383, -49.83425912965758 86.62918978277156, -47.4765625 86.63962830299762 C-46.55710841606269 86.61116860365186, -45.637654332125386 86.58270890430609, -43.3125 86.5107388142485 C-42.19995727758724 86.43728817848805, -41.087414555174476 86.3638375427276, -39.1484375 86.23582529244867 C-37.56770322532757 86.07708555317939, -35.98696895065514 85.9183458139101, -34.984375 85.8176638050045 C-33.45073940170332 85.61245035714971, -31.917103803406643 85.40723690929491, -30.8203125 85.26047693241435 C-29.292881572320038 85.00716130262583, -27.765450644640076 84.75384567283731, -26.65625 84.56989112879413 C-25.731928992558824 84.38853442811556, -24.80760798511765 84.207177727437, -22.4921875 83.75287990613467 C-21.377196093186647 83.5024694235226, -20.2622046863733 83.25205894091053, -18.328125 82.8176934160146 C-16.67423700958825 82.40306853948589, -15.0203490191765 81.98844366295718, -14.1640625 81.77377513984977 C-13.30945372705246 81.53937519063108, -12.454844954104919 81.30497524141236, -10 80.63166652893872 C-8.560006339716347 80.20674130046038, -7.120012679432694 79.78181607198205, -5.8359375 79.40290055724546 C-4.695982317583544 79.04618664173911, -3.5560271351670885 78.68947272623278, -1.6718749999999858 78.09988526182002 C-0.34642957079557535 77.6656820905581, 0.9790158584088351 77.23147891929617, 2.492187500000014 76.73577844686186 C4.049696535450497 76.20785528123021, 5.60720557090098 75.67993211559856, 6.656249999999986 75.3243548166598 C8.235451984956299 74.77653925955754, 9.814653969912612 74.22872370245526, 10.8203125 73.87986687909601 C12.266413374614057 73.37180625269015, 13.712514249228116 72.86374562628428, 14.984375 72.41690102430543 C16.3294055175189 71.94315285768484, 17.674436035037797 71.46940469106426, 19.1484375 70.95023023180363 C20.021303033243022 70.64511646003875, 20.89416856648604 70.34000268827387, 23.3125 69.49466489344131 C24.5175076956315 69.08091659524982, 25.722515391263006 68.66716829705832, 27.4765625 68.0649032585705 C28.669350533882245 67.66687774300783, 29.862138567764486 67.26885222744517, 31.640625 66.67538301162166 C32.803176893355705 66.30259933102388, 33.96572878671141 65.9298156504261, 35.8046875 65.34013548085682 C36.832468236723074 65.02729114221697, 37.86024897344614 64.71444680357713, 39.96875 64.0726439504931 C41.50904916663785 63.633592611847014, 43.0493483332757 63.194541273200926, 44.1328125 62.885707506956855 C45.12310423804083 62.62543979182375, 46.11339597608166 62.365172076690655, 48.296875 61.791311794143446 C49.26001047987156 61.56214176984525, 50.22314595974312 61.33297174554705, 52.4609375 60.80050798279234 C53.78894451863234 60.520748301945574, 55.11695153726468 60.24098862109881, 56.625 59.923301176140285 C58.045135182460214 59.665896398587265, 59.465270364920435 59.408491621034244, 60.7890625 59.16854937872863 C62.4396463422534 58.920935658567835, 64.0902301845068 58.67332193840705, 64.953125 58.5438740485743 C66.20384323537947 58.39721094046899, 67.45456147075893 58.25054783236367, 69.1171875 58.055583135945604 C70.18997790405629 57.966191524965964, 71.26276830811257 57.876799913986325, 73.28125 57.70860738589464 C74.32065118773971 57.658146554034985, 75.36005237547943 57.607685722175326, 77.4453125 57.506450547761204 C78.71780172902727 57.489552562076554, 79.99029095805454 57.4726545763919, 81.609375 57.45115399443102 C83.20820440334865 57.486525112147554, 84.80703380669729 57.52189622986409, 85.7734375 57.54327610862158 C87.4103393204241 57.637074417439074, 89.0472411408482 57.730872726256564, 89.9375 57.78188664435251 C91.4739030372737 57.92308655995027, 93.0103060745474 58.06428647554803, 94.1015625 58.164576120537824 C94.1015625 54.59167211582244, 94.1015625 51.01876811110706, 94.1015625 48.164576120537824 C96.66395622584969 48.164576120537824, 99.22634995169938 48.164576120537824, 104.1015625 48.164576120537824 C104.1015625 45.62533506085456, 104.1015625 43.0860940011713, 104.1015625 38.164576120537824 C107.09193727467209 38.164576120537824, 110.08231204934418 38.164576120537824, 114.1015625 38.164576120537824 C114.1015625 6.003801422844575, 114.1015625 -26.156973274848674, 114.1015625 -72.05000162124634 C58.32204368354723 -72.05000162124634, 2.542524867094457 -72.05000162124634, -94.1015625 -72.05000162124634 C-94.1015625 -69.37877138052136, -94.1015625 -66.70754113979638, -94.1015625 -62.05000162124634 C-96.76468232367188 -62.05000162124634, -99.42780214734375 -62.05000162124634, -104.1015625 -62.05000162124634 C-104.1015625 -59.07133458647877, -104.1015625 -56.0926675517112, -104.1015625 -52.05000162124634 C-106.56395071838051 -52.05000162124634, -109.02633893676102 -52.05000162124634, -114.1015625 -52.05000162124634" stroke="none" stroke-width="0" fill="#ECECFF" style=""/><path d="M-114.1015625 -52.05000162124634 C-114.1015625 -27.229443070361715, -114.1015625 -2.408884519477091, -114.1015625 72.05000162124634 M-114.1015625 -52.05000162124634 C-114.1015625 -24.580231125029968, -114.1015625 2.8895393711864017, -114.1015625 72.05000162124634 M-114.1015625 72.05000162124634 C-114.1015625 72.05000162124634, -114.1015625 72.05000162124634, -114.1015625 72.05000162124634 M-114.1015625 72.05000162124634 C-114.1015625 72.05000162124634, -114.1015625 72.05000162124634, -114.1015625 72.05000162124634 M-114.1015625 72.05000162124634 C-113.20348882833859 72.36602241947942, -112.30541515667718 72.68204321771249, -109.9375 73.51528269635904 M-114.1015625 72.05000162124634 C-112.53623900998718 72.60081921496524, -110.97091551997437 73.15163680868416, -109.9375 73.51528269635904 M-109.9375 73.51528269635904 C-108.74320807562108 73.9312952282189, -107.54891615124215 74.34730776007875, -105.7734375 74.96576741294 M-109.9375 73.51528269635904 C-108.42275452470275 74.04292010848452, -106.90800904940552 74.57055752061002, -105.7734375 74.96576741294 M-105.7734375 74.96576741294 C-104.85740835494725 75.27837447642867, -103.9413792098945 75.59098153991734, -101.609375 76.38680882558342 M-105.7734375 74.96576741294 C-104.41863537378012 75.42811156058326, -103.06383324756025 75.89045570822654, -101.609375 76.38680882558342 M-101.609375 76.38680882558342 C-100.2126569203836 76.84876823499052, -98.81593884076719 77.3107276443976, -97.4453125 77.7640573063667 M-101.609375 76.38680882558342 C-100.59650612139012 76.72181151209404, -99.58363724278024 77.05681419860466, -97.4453125 77.7640573063667 M-97.4453125 77.7640573063667 C-96.53391107116258 78.05287094946334, -95.62250964232517 78.34168459255999, -93.28125 79.08360544690582 M-97.4453125 77.7640573063667 C-96.17625314200632 78.16620903105246, -94.90719378401263 78.56836075573824, -93.28125 79.08360544690582 M-93.28125 79.08360544690582 C-91.79887850324522 79.52806923182199, -90.31650700649043 79.97253301673815, -89.1171875 80.33212849489291 M-93.28125 79.08360544690582 C-91.95839864384251 79.48023984113588, -90.63554728768504 79.87687423536593, -89.1171875 80.33212849489291 M-89.1171875 80.33212849489291 C-88.0065964108835 80.64281473254545, -86.896005321767 80.953500970198, -84.953125 81.49701890699248 M-89.1171875 80.33212849489291 C-88.17700594229026 80.59514291463539, -87.23682438458054 80.85815733437786, -84.953125 81.49701890699248 M-84.953125 81.49701890699248 C-83.53897933818298 81.86022703953928, -82.12483367636597 82.22343517208608, -80.7890625 82.56651365938586 M-84.953125 81.49701890699248 C-83.60180348335635 81.84409133226147, -82.25048196671268 82.19116375753046, -80.7890625 82.56651365938586 M-80.7890625 82.56651365938586 C-79.26377328066519 82.91936862868059, -77.73848406133038 83.27222359797531, -76.625 83.52981303038621 M-80.7890625 82.56651365938586 C-79.22077761710025 82.92931509218056, -77.6524927342005 83.29211652497526, -76.625 83.52981303038621 M-76.625 83.52981303038621 C-75.0601660368302 83.84825294881362, -73.49533207366039 84.16669286724104, -72.4609375 84.3771896556613 M-76.625 83.52981303038621 C-75.67667162107173 83.72279555679853, -74.72834324214345 83.91577808321087, -72.4609375 84.3771896556613 M-72.4609375 84.3771896556613 C-70.92486630971908 84.64385746085586, -69.38879511943814 84.91052526605041, -68.296875 85.10008675482823 M-72.4609375 84.3771896556613 C-71.11989097374826 84.61000043688162, -69.77884444749652 84.84281121810196, -68.296875 85.10008675482823 M-68.296875 85.10008675482823 C-66.82896405847642 85.30846697509598, -65.36105311695283 85.51684719536372, -64.1328125 85.69120453753108 M-68.296875 85.10008675482823 C-66.97312737797256 85.28800198405234, -65.64937975594512 85.47591721327645, -64.1328125 85.69120453753108 M-64.1328125 85.69120453753108 C-62.991197099912824 85.81549985368723, -61.84958169982565 85.93979516984339, -59.96875 86.144573916476 M-64.1328125 85.69120453753108 C-63.28582653439007 85.78342157346741, -62.438840568780144 85.87563860940375, -59.96875 86.144573916476 M-59.96875 86.144573916476 C-58.90199896006743 86.2242569907346, -57.83524792013486 86.30394006499318, -55.80468749999999 86.45561678307203 M-59.96875 86.144573916476 C-58.669124664886475 86.24165199581188, -57.36949932977295 86.33873007514775, -55.80468749999999 86.45561678307203 M-55.80468749999999 86.45561678307203 C-54.429577975770364 86.51029520917565, -53.05446845154074 86.56497363527927, -51.640625 86.62119223701609 M-55.80468749999999 86.45561678307203 C-54.81125378602518 86.4951186488953, -53.817820072050374 86.53462051471857, -51.640625 86.62119223701609 M-51.640625 86.62119223701609 C-50.5095901462053 86.62619980671322, -49.3785552924106 86.63120737641036, -47.4765625 86.63962830299762 M-51.640625 86.62119223701609 C-50.58279073248487 86.62587571675576, -49.524956464969726 86.63055919649541, -47.4765625 86.63962830299762 M-47.4765625 86.63962830299762 C-46.08715573447189 86.59662224156759, -44.69774896894378 86.55361618013755, -43.3125 86.5107388142485 M-47.4765625 86.63962830299762 C-46.55206243049688 86.61101241615472, -45.627562360993764 86.58239652931181, -43.3125 86.5107388142485 M-43.3125 86.5107388142485 C-42.137782119148326 86.43318334293986, -40.963064238296646 86.3556278716312, -39.1484375 86.23582529244867 M-43.3125 86.5107388142485 C-42.42164492128286 86.45192410935313, -41.53078984256572 86.39310940445775, -39.1484375 86.23582529244867 M-39.1484375 86.23582529244867 C-37.7765678958538 86.09806006095917, -36.40469829170761 85.96029482946969, -34.984375 85.8176638050045 M-39.1484375 86.23582529244867 C-38.212518634492156 86.14183889696882, -37.276599768984305 86.04785250148896, -34.984375 85.8176638050045 M-34.984375 85.8176638050045 C-33.44631322881105 85.611858097684, -31.9082514576221 85.40605239036351, -30.8203125 85.26047693241435 M-34.984375 85.8176638050045 C-33.36619241163935 85.60113725294423, -31.7480098232787 85.38461070088394, -30.8203125 85.26047693241435 M-30.8203125 85.26047693241435 C-29.525161452408792 85.04568358408916, -28.230010404817584 84.83089023576397, -26.65625 84.56989112879413 M-30.8203125 85.26047693241435 C-29.59448377954177 85.05718029313039, -28.36865505908354 84.85388365384641, -26.65625 84.56989112879413 M-26.65625 84.56989112879413 C-25.35064692276428 84.31372485692853, -24.04504384552856 84.05755858506295, -22.4921875 83.75287990613467 M-26.65625 84.56989112879413 C-25.81758047375697 84.40533970454364, -24.978910947513942 84.24078828029315, -22.4921875 83.75287990613467 M-22.4921875 83.75287990613467 C-21.158586619285778 83.45337298786527, -19.82498573857156 83.15386606959588, -18.328125 82.8176934160146 M-22.4921875 83.75287990613467 C-21.01382071202024 83.42086071872794, -19.535453924040485 83.0888415313212, -18.328125 82.8176934160146 M-18.328125 82.8176934160146 C-17.107127996235068 82.51159304231159, -15.886130992470134 82.20549266860857, -14.1640625 81.77377513984977 M-18.328125 82.8176934160146 C-17.48587971768211 82.60654498987421, -16.64363443536422 82.39539656373381, -14.1640625 81.77377513984977 M-14.1640625 81.77377513984977 C-12.71720308428994 81.3769341708537, -11.27034366857988 80.98009320185764, -10 80.63166652893872 M-14.1640625 81.77377513984977 C-12.883987493145833 81.42267937989416, -11.603912486291666 81.07158361993855, -10 80.63166652893872 M-10 80.63166652893872 C-8.39501384210671 80.15805395087152, -6.790027684213419 79.6844413728043, -5.8359375 79.40290055724546 M-10 80.63166652893872 C-8.468990343304904 80.17988354814035, -6.937980686609808 79.72810056734198, -5.8359375 79.40290055724546 M-5.8359375 79.40290055724546 C-4.872486257882699 79.10141812155304, -3.9090350157653964 78.79993568586062, -1.6718749999999858 78.09988526182002 M-5.8359375 79.40290055724546 C-4.4668186489805475 78.97447691947978, -3.097699797961095 78.54605328171411, -1.6718749999999858 78.09988526182002 M-1.6718749999999858 78.09988526182002 C-0.5656932009187443 77.73751074637761, 0.5404885981624972 77.3751362309352, 2.492187500000014 76.73577844686186 M-1.6718749999999858 78.09988526182002 C-0.8362358903592251 77.82613792870326, -0.0005967807184643625 77.55239059558649, 2.492187500000014 76.73577844686186 M2.492187500000014 76.73577844686186 C3.9878164768182653 76.22882974474794, 5.4834454536365165 75.72188104263404, 6.656249999999986 75.3243548166598 M2.492187500000014 76.73577844686186 C4.045443579569842 76.20929683558444, 5.598699659139668 75.68281522430702, 6.656249999999986 75.3243548166598 M6.656249999999986 75.3243548166598 C7.937782589132976 74.87979896126679, 9.219315178265965 74.43524310587377, 10.8203125 73.87986687909601 M6.656249999999986 75.3243548166598 C7.617730511577236 74.99082307904156, 8.579211023154485 74.6572913414233, 10.8203125 73.87986687909601 M10.8203125 73.87986687909601 C12.346404514039023 73.34370285470693, 13.872496528078045 72.80753883031784, 14.984375 72.41690102430543 M10.8203125 73.87986687909601 C11.946555486755823 73.48418236815961, 13.072798473511648 73.0884978572232, 14.984375 72.41690102430543 M14.984375 72.41690102430543 C16.16741834219647 72.00020816336416, 17.35046168439294 71.58351530242288, 19.1484375 70.95023023180363 M14.984375 72.41690102430543 C16.294019893083167 71.95561642225293, 17.603664786166338 71.49433182020044, 19.1484375 70.95023023180363 M19.1484375 70.95023023180363 C20.136892775349406 70.60471158569301, 21.12534805069881 70.2591929395824, 23.3125 69.49466489344131 M19.1484375 70.95023023180363 C20.098303151984148 70.61820074878577, 21.04816880396829 70.28617126576792, 23.3125 69.49466489344131 M23.3125 69.49466489344131 C24.417931274763397 69.11510689529814, 25.52336254952679 68.73554889715497, 27.4765625 68.0649032585705 M23.3125 69.49466489344131 C24.704351194893388 69.01676249886687, 26.096202389786775 68.53886010429241, 27.4765625 68.0649032585705 M27.4765625 68.0649032585705 C28.327405459662987 67.78098256347391, 29.178248419325975 67.49706186837734, 31.640625 66.67538301162166 M27.4765625 68.0649032585705 C28.848471189817793 67.60710635915632, 30.220379879635583 67.14930945974213, 31.640625 66.67538301162166 M31.640625 66.67538301162166 C32.97753225566921 66.24669057196834, 34.31443951133842 65.81799813231501, 35.8046875 65.34013548085682 M31.640625 66.67538301162166 C32.88745751789902 66.27557392114764, 34.13429003579804 65.87576483067362, 35.8046875 65.34013548085682 M35.8046875 65.34013548085682 C36.83854479323709 65.0254415100572, 37.872402086474175 64.7107475392576, 39.96875 64.0726439504931 M35.8046875 65.34013548085682 C36.781623999976 65.04276752842509, 37.758560499952 64.74539957599336, 39.96875 64.0726439504931 M39.96875 64.0726439504931 C40.87870705609312 63.81326715393208, 41.78866411218623 63.55389035737106, 44.1328125 62.885707506956855 M39.96875 64.0726439504931 C40.992679873147424 63.78078001183605, 42.016609746294854 63.488916073179, 44.1328125 62.885707506956855 M44.1328125 62.885707506956855 C45.79260977967279 62.44948085881859, 47.45240705934557 62.01325421068032, 48.296875 61.791311794143446 M44.1328125 62.885707506956855 C45.29957451733426 62.57906000835564, 46.466336534668514 62.27241250975442, 48.296875 61.791311794143446 M48.296875 61.791311794143446 C49.64587259955806 61.47032910881016, 50.99487019911612 61.149346423476885, 52.4609375 60.80050798279234 M48.296875 61.791311794143446 C49.69637343184222 61.4583128585489, 51.095871863684444 61.125313922954355, 52.4609375 60.80050798279234 M52.4609375 60.80050798279234 C53.4315649499149 60.59603434537967, 54.4021923998298 60.39156070796701, 56.625 59.923301176140285 M52.4609375 60.80050798279234 C54.04091546192431 60.46766777624879, 55.620893423848614 60.134827569705244, 56.625 59.923301176140285 M56.625 59.923301176140285 C57.882095711930745 59.69544790830432, 59.13919142386148 59.46759464046835, 60.7890625 59.16854937872863 M56.625 59.923301176140285 C58.119876275343266 59.65234929784274, 59.61475255068653 59.381397419545195, 60.7890625 59.16854937872863 M60.7890625 59.16854937872863 C62.36313411225201 58.9324137049557, 63.93720572450402 58.69627803118278, 64.953125 58.5438740485743 M60.7890625 59.16854937872863 C62.13023808893413 58.967351797325286, 63.471413677868256 58.766154215921944, 64.953125 58.5438740485743 M64.953125 58.5438740485743 C65.84956187142161 58.43875507448098, 66.74599874284323 58.33363610038766, 69.1171875 58.055583135945604 M64.953125 58.5438740485743 C65.91154064516668 58.431487250812246, 66.86995629033336 58.31910045305019, 69.1171875 58.055583135945604 M69.1171875 58.055583135945604 C69.98345660231644 57.98340017242807, 70.84972570463287 57.91121720891054, 73.28125 57.70860738589464 M69.1171875 58.055583135945604 C70.26016343870796 57.96034322693286, 71.40313937741594 57.8651033179201, 73.28125 57.70860738589464 M73.28125 57.70860738589464 C74.22035645858486 57.66301566090535, 75.15946291716973 57.617423935916065, 77.4453125 57.506450547761204 M73.28125 57.70860738589464 C74.49595169298482 57.649636067973944, 75.71065338596964 57.59066475005325, 77.4453125 57.506450547761204 M77.4453125 57.506450547761204 C78.88724353308426 57.48730246430439, 80.32917456616852 57.46815438084757, 81.609375 57.45115399443102 M77.4453125 57.506450547761204 C78.60931108674632 57.49099326057392, 79.77330967349262 57.47553597338665, 81.609375 57.45115399443102 M81.609375 57.45115399443102 C82.82724600631846 57.47809711834269, 84.04511701263691 57.50504024225436, 85.7734375 57.54327610862158 M81.609375 57.45115399443102 C82.4934587306263 57.47071269759332, 83.3775424612526 57.490271400755624, 85.7734375 57.54327610862158 M85.7734375 57.54327610862158 C87.2904340448753 57.63020356426728, 88.80743058975058 57.717131019912976, 89.9375 57.78188664435251 M85.7734375 57.54327610862158 C87.2587053937059 57.62838543822966, 88.74397328741179 57.71349476783772, 89.9375 57.78188664435251 M89.9375 57.78188664435251 C91.08008444986407 57.88689348433533, 92.22266889972816 57.99190032431815, 94.1015625 58.164576120537824 M89.9375 57.78188664435251 C91.13345648007598 57.891798529416846, 92.32941296015197 58.00171041448118, 94.1015625 58.164576120537824 M94.1015625 58.164576120537824 C94.1015625 55.34346919586242, 94.1015625 52.52236227118701, 94.1015625 48.164576120537824 M94.1015625 58.164576120537824 C94.1015625 56.14492762727023, 94.1015625 54.12527913400263, 94.1015625 48.164576120537824 M94.1015625 48.164576120537824 C96.38156400527805 48.164576120537824, 98.6615655105561 48.164576120537824, 104.1015625 48.164576120537824 M94.1015625 48.164576120537824 C97.48357543442398 48.164576120537824, 100.86558836884797 48.164576120537824, 104.1015625 48.164576120537824 M104.1015625 48.164576120537824 C104.1015625 45.4833363228041, 104.1015625 42.802096525070375, 104.1015625 38.164576120537824 M104.1015625 48.164576120537824 C104.1015625 45.28507358474017, 104.1015625 42.40557104894251, 104.1015625 38.164576120537824 M104.1015625 38.164576120537824 C107.1860461672768 38.164576120537824, 110.2705298345536 38.164576120537824, 114.1015625 38.164576120537824 M104.1015625 38.164576120537824 C106.23809996340424 38.164576120537824, 108.37463742680848 38.164576120537824, 114.1015625 38.164576120537824 M114.1015625 38.164576120537824 C114.1015625 0.7779351536201915, 114.1015625 -36.60870581329744, 114.1015625 -72.05000162124634 M114.1015625 38.164576120537824 C114.1015625 -1.9302687930282403, 114.1015625 -42.025113706594304, 114.1015625 -72.05000162124634 M114.1015625 -72.05000162124634 C58.02719785267981 -72.05000162124634, 1.9528332053596245 -72.05000162124634, -94.1015625 -72.05000162124634 M114.1015625 -72.05000162124634 C54.0363814266675 -72.05000162124634, -6.028799646664993 -72.05000162124634, -94.1015625 -72.05000162124634 M-94.1015625 -72.05000162124634 C-94.1015625 -69.44303266797215, -94.1015625 -66.83606371469796, -94.1015625 -62.05000162124634 M-94.1015625 -72.05000162124634 C-94.1015625 -68.49811231996864, -94.1015625 -64.94622301869094, -94.1015625 -62.05000162124634 M-94.1015625 -62.05000162124634 C-97.72813503351063 -62.05000162124634, -101.35470756702125 -62.05000162124634, -104.1015625 -62.05000162124634 M-94.1015625 -62.05000162124634 C-97.74365094397217 -62.05000162124634, -101.38573938794434 -62.05000162124634, -104.1015625 -62.05000162124634 M-104.1015625 -62.05000162124634 C-104.1015625 -59.58690904174, -104.1015625 -57.12381646223366, -104.1015625 -52.05000162124634 M-104.1015625 -62.05000162124634 C-104.1015625 -59.40579444076866, -104.1015625 -56.76158726029098, -104.1015625 -52.05000162124634 M-104.1015625 -52.05000162124634 C-106.4906440814957 -52.05000162124634, -108.8797256629914 -52.05000162124634, -114.1015625 -52.05000162124634 M-104.1015625 -52.05000162124634 C-107.79008755180985 -52.05000162124634, -111.4786126036197 -52.05000162124634, -114.1015625 -52.05000162124634" stroke="#9370DB" stroke-width="1.3" fill="none" stroke-dasharray="0 0" style=""/><g><path d="M-104.1015625 -52.05000162124634 C-60.72022244445542 -52.05000162124634, -17.338882388910847 -52.05000162124634, 94.1015625 -52.05000162124634 C94.1015625 -21.50813350793232, 94.1015625 9.033734605381696, 94.1015625 48.164576120537824 C97.66147904004902 48.164576120537824, 101.22139558009803 48.164576120537824, 104.1015625 48.164576120537824 C104.1015625 13.151291945758217, 104.1015625 -21.86199222902139, 104.1015625 -62.05000162124634 C48.57200804417516 -62.05000162124634, -6.957546411649673 -62.05000162124634, -104.1015625 -62.05000162124634 C-104.1015625 -59.79215472843498, -104.1015625 -57.53430783562362, -104.1015625 -52.05000162124634" stroke="none" stroke-width="0" fill="#ECECFF" style=""/><path d="M-104.1015625 -52.05000162124634 C-64.46004646056826 -52.05000162124634, -24.81853042113653 -52.05000162124634, 94.1015625 -52.05000162124634 M-104.1015625 -52.05000162124634 C-60.22892581082851 -52.05000162124634, -16.356289121657014 -52.05000162124634, 94.1015625 -52.05000162124634 M94.1015625 -52.05000162124634 C94.1015625 -30.25309983666606, 94.1015625 -8.456198052085782, 94.1015625 48.164576120537824 M94.1015625 -52.05000162124634 C94.1015625 -25.152834387472367, 94.1015625 1.744332846301603, 94.1015625 48.164576120537824 M94.1015625 48.164576120537824 C96.25828726496547 48.164576120537824, 98.41501202993095 48.164576120537824, 104.1015625 48.164576120537824 M94.1015625 48.164576120537824 C97.8606883296743 48.164576120537824, 101.6198141593486 48.164576120537824, 104.1015625 48.164576120537824 M104.1015625 48.164576120537824 C104.1015625 16.554008280634914, 104.1015625 -15.056559559267995, 104.1015625 -62.05000162124634 M104.1015625 48.164576120537824 C104.1015625 8.072230497444139, 104.1015625 -32.020115125649546, 104.1015625 -62.05000162124634 M104.1015625 -62.05000162124634 C58.30010524736281 -62.05000162124634, 12.498647994725616 -62.05000162124634, -104.1015625 -62.05000162124634 M104.1015625 -62.05000162124634 C36.361456189006276 -62.05000162124634, -31.378650121987448 -62.05000162124634, -104.1015625 -62.05000162124634 M-104.1015625 -62.05000162124634 C-104.1015625 -58.695781842805445, -104.1015625 -55.34156206436455, -104.1015625 -52.05000162124634 M-104.1015625 -62.05000162124634 C-104.1015625 -59.61759605910629, -104.1015625 -57.18519049696624, -104.1015625 -52.05000162124634" stroke="#9370DB" stroke-width="1.3" fill="none" stroke-dasharray="0 0" style=""/></g></g><g class="label" style="" transform="translate(-10.2578125, -34.20000171661377)"><rect/><g><rect class="background" style="stroke: none"/><text y="-10.1" style=""><tspan class="text-outer-tspan row" x="0" y="-0.1em" dy="1.1em"><tspan font-style="normal" class="text-inner-tspan" font-weight="normal">This</tspan><tspan font-style="normal" class="text-inner-tspan" font-weight="normal"> is</tspan><tspan font-style="normal" class="text-inner-tspan" font-weight="bold"> bold</tspan></tspan><tspan class="text-outer-tspan row" x="0" y="1em" dy="1.1em"><tspan font-style="normal" class="text-inner-tspan" font-weight="normal">and</tspan><tspan font-style="normal" class="text-inner-tspan" font-weight="normal"> &lt;strong&gt;</tspan><tspan font-style="normal" class="text-inner-tspan" font-weight="normal"> strong</tspan></tspan><tspan class="text-outer-tspan row" x="0" y="2.1em" dy="1.1em"><tspan font-style="normal" class="text-inner-tspan" font-weight="normal">&lt;/strong&gt;</tspan><tspan font-style="normal" class="text-inner-tspan" font-weight="normal"> for</tspan><tspan font-style="normal" class="text-inner-tspan" font-weight="normal"> documents</tspan></tspan><tspan class="text-outer-tspan row" x="0" y="3.2em" dy="1.1em"><tspan font-style="normal" class="text-inner-tspan" font-weight="normal">shape</tspan></tspan></text></g></g></g><g class="node default" id="upstream_cypress_newshapes_spec_newshapessets_newshapesset2_tb_md_html_false_014-flowchart-n2-6" data-look="classic" transform="translate(572.5943756103516, 32.5)"><rect class="basic label-container" style="" x="-38.5703125" y="-24.5" width="77.140625" height="49"/><g class="label" style="" transform="translate(0, -9.5)"><rect/><g><rect class="background" style="stroke: none"/><text y="-10.1" style=""><tspan class="text-outer-tspan row" x="0" y="-0.1em" dy="1.1em"><tspan font-style="normal" class="text-inner-tspan" font-weight="normal">n2</tspan></tspan></text></g></g></g><g class="node default" id="upstream_cypress_newshapes_spec_newshapessets_newshapesset2_tb_md_html_false_014-flowchart-n22-7" data-look="classic" transform="translate(572.5943756103516, 186.3448257446289)"><g class="outer-path" transform="translate(-17.5,-35)"><path d="M35 0 C27.339440147858113 8.426615837356076, 19.678880295716226 16.853231674712152, 0 38.5 C6.400059201288968 38.5, 12.800118402577937 38.5, 21 38.5 C13.524175265897064 49.7137371011544, 6.04835053179413 60.9274742023088, 0 70 C11.118900704663247 57.76920922487043, 22.237801409326494 45.53841844974086, 35 31.5 C29.39912036107853 31.5, 23.79824072215706 31.5, 14 31.5 C18.74147847490385 24.38778228764422, 23.482956949807704 17.275564575288442, 35 0" stroke="none" stroke-width="0" fill="#ECECFF" style=""/><path d="M35 0 C27.999842654448003 7.700173080107198, 20.999685308896005 15.400346160214395, 0 38.5 M35 0 C27.25268378527835 8.522047836193815, 19.5053675705567 17.04409567238763, 0 38.5 M0 38.5 C4.567548432480544 38.5, 9.135096864961088 38.5, 21 38.5 M0 38.5 C5.636310850549489 38.5, 11.272621701098979 38.5, 21 38.5 M21 38.5 C16.470877993572504 45.29368300964124, 11.941755987145006 52.08736601928249, 0 70 M21 38.5 C13.105835757683963 50.341246363474056, 5.211671515367925 62.18249272694811, 0 70 M0 70 C10.038326118607076 58.95784126953222, 20.07665223721415 47.915682539064434, 35 31.5 M0 70 C12.731819379609078 55.994998682430015, 25.463638759218156 41.98999736486003, 35 31.5 M35 31.5 C30.380325812567026 31.5, 25.760651625134052 31.5, 14 31.5 M35 31.5 C28.16752698821947 31.5, 21.33505397643894 31.5, 14 31.5 M14 31.5 C21.043861534725874 20.934207697911187, 28.087723069451748 10.368415395822375, 35 0 M14 31.5 C19.1080516804941 23.83792247925885, 24.2161033609882 16.1758449585177, 35 0" stroke="#9370DB" stroke-width="1.3" fill="none" stroke-dasharray="0 0" style=""/></g></g><g class="node default" id="upstream_cypress_newshapes_spec_newshapessets_newshapesset2_tb_md_html_false_014-flowchart-n3-9" data-look="classic" transform="translate(699.7350006103516, 32.5)"><rect class="basic label-container" style="" x="-38.5703125" y="-24.5" width="77.140625" height="49"/><g class="label" style="" transform="translate(0, -9.5)"><rect/><g><rect class="background" style="stroke: none"/><text y="-10.1" style=""><tspan class="text-outer-tspan row" x="0" y="-0.1em" dy="1.1em"><tspan font-style="normal" class="text-inner-tspan" font-weight="normal">n3</tspan></tspan></text></g></g></g><g class="node default" id="upstream_cypress_newshapes_spec_newshapessets_newshapesset2_tb_md_html_false_014-flowchart-n33-10" data-look="classic" transform="translate(699.7350006103516, 186.3448257446289)"><g><path d="M7 0 C7 0.40517908122283747, 6.964012880168563 0.816513743121899, 6.893654271085456 1.2155372436685123 C6.823295662002349 1.6145607442151257, 6.716427752933756 2.013397210557766, 6.5778483455013586 2.394141003279681 C6.439268938068961 2.7748847960015954, 6.26476736710249 3.149104622578984, 6.062177826491071 3.4999999999999996 C5.859588285879653 3.8508953774210153, 5.622755194947063 4.189128084166967, 5.362311101832846 4.499513267805774 C5.10186700871863 4.809898451444582, 4.809898451444583 5.10186700871863, 4.499513267805775 5.362311101832846 C4.189128084166968 5.622755194947063, 3.8508953774210166 5.859588285879652, 3.500000000000001 6.06217782649107 C3.149104622578985 6.264767367102489, 2.7748847960015963 6.439268938068961, 2.3941410032796817 6.5778483455013586 C2.013397210557767 6.716427752933756, 1.6145607442151264 6.823295662002349, 1.2155372436685128 6.893654271085456 C0.8165137431218992 6.964012880168563, 0.4051790812228379 7, 4.286263797015736e-16 7 C-0.405179081222837 7, -0.8165137431218985 6.964012880168563, -1.2155372436685121 6.893654271085456 C-1.6145607442151257 6.823295662002349, -2.0133972105577667 6.716427752933756, -2.394141003279681 6.5778483455013586 C-2.774884796001595 6.439268938068961, -3.149104622578983 6.26476736710249, -3.4999999999999982 6.062177826491071 C-3.8508953774210135 5.859588285879653, -4.189128084166966 5.6227551949470636, -4.499513267805773 5.362311101832848 C-4.809898451444581 5.101867008718632, -5.101867008718628 4.809898451444586, -5.3623111018328435 4.499513267805779 C-5.622755194947059 4.189128084166971, -5.859588285879649 3.8508953774210206, -6.062177826491068 3.5000000000000053 C-6.264767367102486 3.14910462257899, -6.439268938068958 2.774884796001602, -6.577848345501356 2.394141003279688 C-6.716427752933754 2.0133972105577738, -6.823295662002347 1.614560744215134, -6.893654271085454 1.215537243668521 C-6.9640128801685615 0.816513743121908, -6.999999999999999 0.4051790812228472, -7 1.0183126166254463e-14 C-7.000000000000001 -0.40517908122282686, -6.964012880168565 -0.8165137431218878, -6.893654271085459 -1.215537243668501 C-6.823295662002352 -1.6145607442151142, -6.716427752933759 -2.0133972105577542, -6.577848345501363 -2.394141003279669 C-6.439268938068967 -2.7748847960015834, -6.264767367102496 -3.149104622578972, -6.062177826491078 -3.4999999999999876 C-5.859588285879661 -3.8508953774210033, -5.6227551949470715 -4.1891280841669545, -5.362311101832856 -4.499513267805763 C-5.10186700871864 -4.809898451444571, -4.809898451444594 -5.10186700871862, -4.499513267805787 -5.362311101832836 C-4.189128084166979 -5.622755194947053, -3.850895377421028 -5.859588285879643, -3.5000000000000133 -6.062177826491062 C-3.1491046225789985 -6.264767367102482, -2.774884796001611 -6.439268938068954, -2.3941410032796973 -6.577848345501353 C-2.0133972105577835 -6.716427752933752, -1.6145607442151435 -6.823295662002345, -1.2155372436685306 -6.893654271085453 C-0.8165137431219176 -6.9640128801685615, -0.40517908122285695 -6.999999999999999, -1.9937625952807352e-14 -7 C0.4051790812228171 -7.000000000000001, 0.8165137431218781 -6.964012880168565, 1.2155372436684913 -6.89365427108546 C1.6145607442151044 -6.823295662002354, 2.013397210557745 -6.716427752933763, 2.3941410032796595 -6.5778483455013665 C2.774884796001574 -6.43926893806897, 3.149104622578963 -6.2647673671025, 3.499999999999979 -6.062177826491083 C3.8508953774209953 -5.859588285879665, 4.189128084166947 -5.622755194947077, 4.499513267805756 -5.362311101832862 C4.809898451444564 -5.1018670087186475, 5.101867008718613 -4.809898451444602, 5.362311101832829 -4.499513267805796 C5.622755194947046 -4.189128084166989, 5.859588285879637 -3.8508953774210393, 6.062177826491056 -3.500000000000025 C6.2647673671024755 -3.1491046225790105, 6.439268938068949 -2.774884796001623, 6.577848345501348 -2.3941410032797092 C6.716427752933747 -2.0133972105577955, 6.823295662002342 -1.6145607442151562, 6.893654271085451 -1.2155372436685434 C6.96401288016856 -0.8165137431219307, 6.982275711847575 -0.2025895406114567, 7 -3.2800750208310675e-14 C7.017724288152425 0.2025895406113911, 7.017724288152424 -0.2025895406114242, 7 0" stroke="none" stroke-width="0" fill="#ECECFF" style="fill: #9370DB !important;"/><path d="M7 0 C7 0.40517908122283747, 6.964012880168563 0.816513743121899, 6.893654271085456 1.2155372436685123 C6.823295662002349 1.6145607442151257, 6.716427752933756 2.013397210557766, 6.5778483455013586 2.394141003279681 C6.439268938068961 2.7748847960015954, 6.26476736710249 3.149104622578984, 6.062177826491071 3.4999999999999996 C5.859588285879653 3.8508953774210153, 5.622755194947063 4.189128084166967, 5.362311101832846 4.499513267805774 C5.10186700871863 4.809898451444582, 4.809898451444583 5.10186700871863, 4.499513267805775 5.362311101832846 C4.189128084166968 5.622755194947063, 3.8508953774210166 5.859588285879652, 3.500000000000001 6.06217782649107 C3.149104622578985 6.264767367102489, 2.7748847960015963 6.439268938068961, 2.3941410032796817 6.5778483455013586 C2.013397210557767 6.716427752933756, 1.6145607442151264 6.823295662002349, 1.2155372436685128 6.893654271085456 C0.8165137431218992 6.964012880168563, 0.4051790812228379 7, 4.286263797015736e-16 7 C-0.405179081222837 7, -0.8165137431218985 6.964012880168563, -1.2155372436685121 6.893654271085456 C-1.6145607442151257 6.823295662002349, -2.0133972105577667 6.716427752933756, -2.394141003279681 6.5778483455013586 C-2.774884796001595 6.439268938068961, -3.149104622578983 6.26476736710249, -3.4999999999999982 6.062177826491071 C-3.8508953774210135 5.859588285879653, -4.189128084166966 5.6227551949470636, -4.499513267805773 5.362311101832848 C-4.809898451444581 5.101867008718632, -5.101867008718628 4.809898451444586, -5.3623111018328435 4.499513267805779 C-5.622755194947059 4.189128084166971, -5.859588285879649 3.8508953774210206, -6.062177826491068 3.5000000000000053 C-6.264767367102486 3.14910462257899, -6.439268938068958 2.774884796001602, -6.577848345501356 2.394141003279688 C-6.716427752933754 2.0133972105577738, -6.823295662002347 1.614560744215134, -6.893654271085454 1.215537243668521 C-6.9640128801685615 0.816513743121908, -6.999999999999999 0.4051790812228472, -7 1.0183126166254463e-14 C-7.000000000000001 -0.40517908122282686, -6.964012880168565 -0.8165137431218878, -6.893654271085459 -1.215537243668501 C-6.823295662002352 -1.6145607442151142, -6.716427752933759 -2.0133972105577542, -6.577848345501363 -2.394141003279669 C-6.439268938068967 -2.7748847960015834, -6.264767367102496 -3.149104622578972, -6.062177826491078 -3.4999999999999876 C-5.859588285879661 -3.8508953774210033, -5.6227551949470715 -4.1891280841669545, -5.362311101832856 -4.499513267805763 C-5.10186700871864 -4.809898451444571, -4.809898451444594 -5.10186700871862, -4.499513267805787 -5.362311101832836 C-4.189128084166979 -5.622755194947053, -3.850895377421028 -5.859588285879643, -3.5000000000000133 -6.062177826491062 C-3.1491046225789985 -6.264767367102482, -2.774884796001611 -6.439268938068954, -2.3941410032796973 -6.577848345501353 C-2.0133972105577835 -6.716427752933752, -1.6145607442151435 -6.823295662002345, -1.2155372436685306 -6.893654271085453 C-0.8165137431219176 -6.9640128801685615, -0.40517908122285695 -6.999999999999999, -1.9937625952807352e-14 -7 C0.4051790812228171 -7.000000000000001, 0.8165137431218781 -6.964012880168565, 1.2155372436684913 -6.89365427108546 C1.6145607442151044 -6.823295662002354, 2.013397210557745 -6.716427752933763, 2.3941410032796595 -6.5778483455013665 C2.774884796001574 -6.43926893806897, 3.149104622578963 -6.2647673671025, 3.499999999999979 -6.062177826491083 C3.8508953774209953 -5.859588285879665, 4.189128084166947 -5.622755194947077, 4.499513267805756 -5.362311101832862 C4.809898451444564 -5.1018670087186475, 5.101867008718613 -4.809898451444602, 5.362311101832829 -4.499513267805796 C5.622755194947046 -4.189128084166989, 5.859588285879637 -3.8508953774210393, 6.062177826491056 -3.500000000000025 C6.2647673671024755 -3.1491046225790105, 6.439268938068949 -2.774884796001623, 6.577848345501348 -2.3941410032797092 C6.716427752933747 -2.0133972105577955, 6.823295662002342 -1.6145607442151562, 6.893654271085451 -1.2155372436685434 C6.96401288016856 -0.8165137431219307, 6.982275711847575 -0.2025895406114567, 7 -3.2800750208310675e-14 C7.017724288152425 0.2025895406113911, 7.017724288152424 -0.2025895406114242, 7 0" stroke="#9370DB" stroke-width="1.3" fill="none" stroke-dasharray="0 0" style="fill: #9370DB !important;"/></g></g><g class="node default" id="upstream_cypress_newshapes_spec_newshapessets_newshapesset2_tb_md_html_false_014-flowchart-n4-12" data-look="classic" transform="translate(874.4916472434998, 32.5)"><rect class="basic label-container" style="" x="-38.87109375" y="-24.5" width="77.7421875" height="49"/><g class="label" style="" transform="translate(0, -9.5)"><rect/><g><rect class="background" style="stroke: none"/><text y="-10.1" style=""><tspan class="text-outer-tspan row" x="0" y="-0.1em" dy="1.1em"><tspan font-style="normal" class="text-inner-tspan" font-weight="normal">n4</tspan></tspan></text></g></g></g><g class="node default" id="upstream_cypress_newshapes_spec_newshapessets_newshapesset2_tb_md_html_false_014-flowchart-n44-13" data-look="classic" transform="translate(874.4916472434998, 186.3448257446289)"><g transform="translate(5, 5)" class="basic label-container outer-path"><path d="M-122.75 -60.900001525878906 L112.75 -60.900001525878906 L112.75 50.900001525878906 L-122.75 50.900001525878906 L-122.75 -60.900001525878906" stroke="none" stroke-width="0" fill="#ECECFF" style=""/><path d="M-122.75 -60.900001525878906 C-75.6489412892144 -60.900001525878906, -28.547882578428826 -60.900001525878906, 112.75 -60.900001525878906 M-122.75 -60.900001525878906 C-70.62162946951575 -60.900001525878906, -18.493258939031506 -60.900001525878906, 112.75 -60.900001525878906 M112.75 -60.900001525878906 C112.75 -36.583243016813356, 112.75 -12.266484507747812, 112.75 50.900001525878906 M112.75 -60.900001525878906 C112.75 -30.893355321493736, 112.75 -0.8867091171085661, 112.75 50.900001525878906 M112.75 50.900001525878906 C61.95913178506307 50.900001525878906, 11.168263570126143 50.900001525878906, -122.75 50.900001525878906 M112.75 50.900001525878906 C24.222586711170152 50.900001525878906, -64.3048265776597 50.900001525878906, -122.75 50.900001525878906 M-122.75 50.900001525878906 C-122.75 18.834718934598584, -122.75 -13.230563656681738, -122.75 -60.900001525878906 M-122.75 50.900001525878906 C-122.75 10.230931654601072, -122.75 -30.438138216676762, -122.75 -60.900001525878906 M-122.75 -50.900001525878906 C-70.94365375521593 -50.900001525878906, -19.137307510431853 -50.900001525878906, 112.75 -50.900001525878906 M-122.75 -50.900001525878906 C-46.12869551074691 -50.900001525878906, 30.492608978506183 -50.900001525878906, 112.75 -50.900001525878906 M-112.75 -60.900001525878906 C-112.75 -23.399823379283085, -112.75 14.100354767312737, -112.75 50.900001525878906 M-112.75 -60.900001525878906 C-112.75 -33.70570659884191, -112.75 -6.5114116718049075, -112.75 50.900001525878906" stroke="#9370DB" stroke-width="1.3" fill="none" stroke-dasharray="0 0" style=""/></g><g class="label" style="" transform="translate(4.8671875, -31.900001525878906)"><rect/><g><rect class="background" style="stroke: none"/><text y="-10.1" style=""><tspan class="text-outer-tspan row" x="0" y="-0.1em" dy="1.1em"><tspan font-style="normal" class="text-inner-tspan" font-weight="normal">This</tspan><tspan font-style="normal" class="text-inner-tspan" font-weight="normal"> is</tspan><tspan font-style="normal" class="text-inner-tspan" font-weight="bold"> bold</tspan></tspan><tspan class="text-outer-tspan row" x="0" y="1em" dy="1.1em"><tspan font-style="normal" class="text-inner-tspan" font-weight="normal">and</tspan><tspan font-style="normal" class="text-inner-tspan" font-weight="normal"> &lt;strong&gt;</tspan><tspan font-style="normal" class="text-inner-tspan" font-weight="normal"> strong</tspan></tspan><tspan class="text-outer-tspan row" x="0" y="2.1em" dy="1.1em"><tspan font-style="normal" class="text-inner-tspan" font-weight="normal">&lt;/strong&gt;</tspan><tspan font-style="normal" class="text-inner-tspan" font-weight="normal"> for</tspan><tspan font-style="normal" class="text-inner-tspan" font-weight="normal"> window-pane</tspan></tspan><tspan class="text-outer-tspan row" x="0" y="3.2em" dy="1.1em"><tspan font-style="normal" class="text-inner-tspan" font-weight="normal">shape</tspan></tspan></text></g></g></g></g></g></g><defs><filter id="upstream_cypress_newshapes_spec_newshapessets_newshapesset2_tb_md_html_false_014-drop-shadow" height="130%" width="130%"><feDropShadow dx="4" dy="4" stdDeviation="0" flood-opacity="0.06" flood-color="#000000"/></filter></defs><defs><filter id="upstream_cypress_newshapes_spec_newshapessets_newshapesset2_tb_md_html_false_014-drop-shadow-small" height="150%" width="150%"><feDropShadow dx="2" dy="2" stdDeviation="0" flood-opacity="0.06" flood-color="#000000"/></filter></defs></svg>