<svg id="upstream_cypress_newshapes_spec_newshapessets_newshapesset4_tb_md_html_false_030" width="100%" xmlns="http://www.w3.org/2000/svg" xmlns:xlink="http://www.w3.org/1999/xlink" class="flowchart" style="max-width: 1252.09px; background-color: white;" viewBox="0 0 1252.0946044921875 277.67291259765625" role="graphics-document document" aria-roledescription="flowchart-v2"><style>#upstream_cypress_newshapes_spec_newshapessets_newshapesset4_tb_md_html_false_030{font-family:"trebuchet ms",verdana,arial,sans-serif;font-size:16px;fill:#333;}@keyframes edge-animation-frame{from{stroke-dashoffset:0;}}@keyframes dash{to{stroke-dashoffset:0;}}#upstream_cypress_newshapes_spec_newshapessets_newshapesset4_tb_md_html_false_030 .edge-animation-slow{stroke-dasharray:9,5!important;stroke-dashoffset:900;animation:dash 50s linear infinite;stroke-linecap:round;}#upstream_cypress_newshapes_spec_newshapessets_newshapesset4_tb_md_html_false_030 .edge-animation-fast{stroke-dasharray:9,5!important;stroke-dashoffset:900;animation:dash 20s linear infinite;stroke-linecap:round;}#upstream_cypress_newshapes_spec_newshapessets_newshapesset4_tb_md_html_false_030 .error-icon{fill:#552222;}#upstream_cypress_newshapes_spec_newshapessets_newshapesset4_tb_md_html_false_030 .error-text{fill:#552222;stroke:#552222;}#upstream_cypress_newshapes_spec_newshapessets_newshapesset4_tb_md_html_false_030 .edge-thickness-normal{stroke-width:1px;}#upstream_cypress_newshapes_spec_newshapessets_newshapesset4_tb_md_html_false_030 .edge-thickness-thick{stroke-width:3.5px;}#upstream_cypress_newshapes_spec_newshapessets_newshapesset4_tb_md_html_false_030 .edge-pattern-solid{stroke-dasharray:0;}#upstream_cypress_newshapes_spec_newshapessets_newshapesset4_tb_md_html_false_030 .edge-thickness-invisible{stroke-width:0;fill:none;}#upstream_cypress_newshapes_spec_newshapessets_newshapesset4_tb_md_html_false_030 .edge-pattern-dashed{stroke-dasharray:3;}#upstream_cypress_newshapes_spec_newshapessets_newshapesset4_tb_md_html_false_030 .edge-pattern-dotted{stroke-dasharray:2;}#upstream_cypress_newshapes_spec_newshapessets_newshapesset4_tb_md_html_false_030 .marker{fill:#333333;stroke:#333333;}#upstream_cypress_newshapes_spec_newshapessets_newshapesset4_tb_md_html_false_030 .marker.cross{stroke:#333333;}#upstream_cypress_newshapes_spec_newshapessets_newshapesset4_tb_md_html_false_030 svg{font-family:"trebuchet ms",verdana,arial,sans-serif;font-size:16px;}#upstream_cypress_newshapes_spec_newshapessets_newshapesset4_tb_md_html_false_030 p{margin:0;}#upstream_cypress_newshapes_spec_newshapessets_newshapesset4_tb_md_html_false_030 .label{font-family:"trebuchet ms",verdana,arial,sans-serif;color:#333;}#upstream_cypress_newshapes_spec_newshapessets_newshapesset4_tb_md_html_false_030 .cluster-label text{fill:#333;}#upstream_cypress_newshapes_spec_newshapessets_newshapesset4_tb_md_html_false_030 .cluster-label span{color:#333;}#upstream_cypress_newshapes_spec_newshapessets_newshapesset4_tb_md_html_false_030 .cluster-label span p{background-color:transparent;}#upstream_cypress_newshapes_spec_newshapessets_newshapesset4_tb_md_html_false_030 .label text,#upstream_cypress_newshapes_spec_newshapessets_newshapesset4_tb_md_html_false_030 span{fill:#333;color:#333;}#upstream_cypress_newshapes_spec_newshapessets_newshapesset4_tb_md_html_false_030 .node rect,#upstream_cypress_newshapes_spec_newshapessets_newshapesset4_tb_md_html_false_030 .node circle,#upstream_cypress_newshapes_spec_newshapessets_newshapesset4_tb_md_html_false_030 .node ellipse,#upstream_cypress_newshapes_spec_newshapessets_newshapesset4_tb_md_html_false_030 .node polygon,#upstream_cypress_newshapes_spec_newshapessets_newshapesset4_tb_md_html_false_030 .node path{fill:#ECECFF;stroke:#9370DB;stroke-width:1px;}#upstream_cypress_newshapes_spec_newshapessets_newshapesset4_tb_md_html_false_030 .rough-node .label text,#upstream_cypress_newshapes_spec_newshapessets_newshapesset4_tb_md_html_false_030 .node .label text,#upstream_cypress_newshapes_spec_newshapessets_newshapesset4_tb_md_html_false_030 .image-shape .label,#upstream_cypress_newshapes_spec_newshapessets_newshapesset4_tb_md_html_false_030 .icon-shape .label{text-anchor:middle;}#upstream_cypress_newshapes_spec_newshapessets_newshapesset4_tb_md_html_false_030 .node .katex path{fill:#000;stroke:#000;stroke-width:1px;}#upstream_cypress_newshapes_spec_newshapessets_newshapesset4_tb_md_html_false_030 .rough-node .label,#upstream_cypress_newshapes_spec_newshapessets_newshapesset4_tb_md_html_false_030 .node .label,#upstream_cypress_newshapes_spec_newshapessets_newshapesset4_tb_md_html_false_030 .image-shape .label,#upstream_cypress_newshapes_spec_newshapessets_newshapesset4_tb_md_html_false_030 .icon-shape .label{text-align:center;}#upstream_cypress_newshapes_spec_newshapessets_newshapesset4_tb_md_html_false_030 .node.clickable{cursor:pointer;}#upstream_cypress_newshapes_spec_newshapessets_newshapesset4_tb_md_html_false_030 .root .anchor path{fill:#333333!important;stroke-width:0;stroke:#333333;}#upstream_cypress_newshapes_spec_newshapessets_newshapesset4_tb_md_html_false_030 .arrowheadPath{fill:#333333;}#upstream_cypress_newshapes_spec_newshapessets_newshapesset4_tb_md_html_false_030 .edgePath .path{stroke:#333333;stroke-width:2.0px;}#upstream_cypress_newshapes_spec_newshapessets_newshapesset4_tb_md_html_false_030 .flowchart-link{stroke:#333333;fill:none;}#upstream_cypress_newshapes_spec_newshapessets_newshapesset4_tb_md_html_false_030 .edgeLabel{background-color:rgba(232,232,232, 0.8);text-align:center;}#upstream_cypress_newshapes_spec_newshapessets_newshapesset4_tb_md_html_false_030 .edgeLabel p{background-color:rgba(232,232,232, 0.8);}#upstream_cypress_newshapes_spec_newshapessets_newshapesset4_tb_md_html_false_030 .edgeLabel rect{opacity:0.5;background-color:rgba(232,232,232, 0.8);fill:rgba(232,232,232, 0.8);}#upstream_cypress_newshapes_spec_newshapessets_newshapesset4_tb_md_html_false_030 .labelBkg{background-color:rgba(232, 232, 232, 0.5);}#upstream_cypress_newshapes_spec_newshapessets_newshapesset4_tb_md_html_false_030 .cluster rect{fill:#ffffde;stroke:#aaaa33;stroke-width:1px;}#upstream_cypress_newshapes_spec_newshapessets_newshapesset4_tb_md_html_false_030 .cluster text{fill:#333;}#upstream_cypress_newshapes_spec_newshapessets_newshapesset4_tb_md_html_false_030 .cluster span{color:#333;}#upstream_cypress_newshapes_spec_newshapessets_newshapesset4_tb_md_html_false_030 div.mermaidTooltip{position:absolute;text-align:center;max-width:200px;padding:2px;font-family:"trebuchet ms",verdana,arial,sans-serif;font-size:12px;background:hsl(80, 100%, 96.2745098039%);border:1px solid #aaaa33;border-radius:2px;pointer-events:none;z-index:100;}#upstream_cypress_newshapes_spec_newshapessets_newshapesset4_tb_md_html_false_030 .flowchartTitleText{text-anchor:middle;font-size:18px;fill:#333;}#upstream_cypress_newshapes_spec_newshapessets_newshapesset4_tb_md_html_false_030 rect.text{fill:none;stroke-width:0;}#upstream_cypress_newshapes_spec_newshapessets_newshapesset4_tb_md_html_false_030 .icon-shape,#upstream_cypress_newshapes_spec_newshapessets_newshapesset4_tb_md_html_false_030 .image-shape{background-color:rgba(232,232,232, 0.8);text-align:center;}#upstream_cypress_newshapes_spec_newshapessets_newshapesset4_tb_md_html_false_030 .icon-shape p,#upstream_cypress_newshapes_spec_newshapessets_newshapesset4_tb_md_html_false_030 .image-shape p{background-color:rgba(232,232,232, 0.8);padding:2px;}#upstream_cypress_newshapes_spec_newshapessets_newshapesset4_tb_md_html_false_030 .icon-shape rect,#upstream_cypress_newshapes_spec_newshapessets_newshapesset4_tb_md_html_false_030 .image-shape rect{opacity:0.5;background-color:rgba(232,232,232, 0.8);fill:rgba(232,232,232, 0.8);}#upstream_cypress_newshapes_spec_newshapessets_newshapesset4_tb_md_html_false_030 .label-icon{display:inline-block;height:1em;overflow:visible;vertical-align:-0.125em;}#upstream_cypress_newshapes_spec_newshapessets_newshapesset4_tb_md_html_false_030 .node .label-icon path{fill:currentColor;stroke:revert;stroke-width:revert;}#upstream_cypress_newshapes_spec_newshapessets_newshapesset4_tb_md_html_false_030 :root{--mermaid-font-family:"trebuchet ms",verdana,arial,sans-serif;}</style><g><marker id="upstream_cypress_newshapes_spec_newshapessets_newshapesset4_tb_md_html_false_030_flowchart-v2-pointEnd" class="marker flowchart-v2" viewBox="0 0 10 10" refX="5" refY="5" markerUnits="userSpaceOnUse" markerWidth="8" markerHeight="8" orient="auto"><path d="M 0 0 L 10 5 L 0 10 z" class="arrowMarkerPath" style="stroke-width: 1; stroke-dasharray: 1, 0;"/></marker><marker id="upstream_cypress_newshapes_spec_newshapessets_newshapesset4_tb_md_html_false_030_flowchart-v2-pointStart" class="marker flowchart-v2" viewBox="0 0 10 10" refX="4.5" refY="5" markerUnits="userSpaceOnUse" markerWidth="8" markerHeight="8" orient="auto"><path d="M 0 5 L 10 10 L 10 0 z" class="arrowMarkerPath" style="stroke-width: 1; stroke-dasharray: 1, 0;"/></marker><marker id="upstream_cypress_newshapes_spec_newshapessets_newshapesset4_tb_md_html_false_030_flowchart-v2-circleEnd" class="marker flowchart-v2" viewBox="0 0 10 10" refX="11" refY="5" markerUnits="userSpaceOnUse" markerWidth="11" markerHeight="11" orient="auto"><circle cx="5" cy="5" r="5" class="arrowMarkerPath" style="stroke-width: 1; stroke-dasharray: 1, 0;"/></marker><marker id="upstream_cypress_newshapes_spec_newshapessets_newshapesset4_tb_md_html_false_030_flowchart-v2-circleStart" class="marker flowchart-v2" viewBox="0 0 10 10" refX="-1" refY="5" markerUnits="userSpaceOnUse" markerWidth="11" markerHeight="11" orient="auto"><circle cx="5" cy="5" r="5" class="arrowMarkerPath" style="stroke-width: 1; stroke-dasharray: 1, 0;"/></marker><marker id="upstream_cypress_newshapes_spec_newshapessets_newshapesset4_tb_md_html_false_030_flowchart-v2-crossEnd" class="marker cross flowchart-v2" viewBox="0 0 11 11" refX="12" refY="5.2" markerUnits="userSpaceOnUse" markerWidth="11" markerHeight="11" orient="auto"><path d="M 1,1 l 9,9 M 10,1 l -9,9" class="arrowMarkerPath" style="stroke-width: 2; stroke-dasharray: 1, 0;"/></marker><marker id="upstream_cypress_newshapes_spec_newshapessets_newshapesset4_tb_md_html_false_030_flowchart-v2-crossStart" class="marker cross flowchart-v2" viewBox="0 0 11 11" refX="-1" refY="5.2" markerUnits="userSpaceOnUse" markerWidth="11" markerHeight="11" orient="auto"><path d="M 1,1 l 9,9 M 10,1 l -9,9" class="arrowMarkerPath" style="stroke-width: 2; stroke-dasharray: 1, 0;"/></marker><g class="root"><g class="clusters"/><g class="edgePaths"><path d="M108.602,57L108.602,61.167C108.602,65.333,108.602,73.667,108.677,84.37C108.753,95.074,108.904,108.147,108.98,114.684L109.055,121.221" id="L_n0_n00_0" class="edge-thickness-normal edge-pattern-solid edge-thickness-normal edge-pattern-solid flowchart-link" style=";" data-edge="true" data-et="edge" data-id="L_n0_n00_0" data-points="W3sieCI6MTA4LjYwMTU2MjUsInkiOjU3fSx7IngiOjEwOC42MDE1NjI1LCJ5Ijo4Mn0seyJ4IjoxMDkuMTAxNTYyNSwieSI6MTI1LjIyMDQ4MTg3MjU1ODU4fV0=" marker-end="url(#upstream_cypress_newshapes_spec_newshapessets_newshapesset4_tb_md_html_false_030_flowchart-v2-pointEnd)"/><path d="M362.422,57L362.422,61.167C362.422,65.333,362.422,73.667,362.499,86.49C362.577,99.314,362.731,116.627,362.809,125.284L362.886,133.941" id="L_n1_n11_0" class="edge-thickness-normal edge-pattern-solid edge-thickness-normal edge-pattern-solid flowchart-link" style=";" data-edge="true" data-et="edge" data-id="L_n1_n11_0" data-points="W3sieCI6MzYyLjQyMTg3NSwieSI6NTd9LHsieCI6MzYyLjQyMTg3NSwieSI6ODJ9LHsieCI6MzYyLjkyMTg3NDk5OTk5OTk0LCJ5IjoxMzcuOTQwOTYzNzQ1MTE3MTZ9XQ==" marker-end="url(#upstream_cypress_newshapes_spec_newshapessets_newshapesset4_tb_md_html_false_030_flowchart-v2-pointEnd)"/><path d="M622.734,57L622.734,61.167C622.734,65.333,622.734,73.667,622.734,83.71C622.734,93.754,622.734,105.507,622.734,111.384L622.734,117.261" id="L_n2_n22_0" class="edge-thickness-normal edge-pattern-solid edge-thickness-normal edge-pattern-solid flowchart-link" style=";" data-edge="true" data-et="edge" data-id="L_n2_n22_0" data-points="W3sieCI6NjIyLjczNDM3NSwieSI6NTd9LHsieCI6NjIyLjczNDM3NSwieSI6ODJ9LHsieCI6NjIyLjczNDM3NSwieSI6MTIxLjI2MDc0OTgxNjg5NDUzfV0=" marker-end="url(#upstream_cypress_newshapes_spec_newshapessets_newshapesset4_tb_md_html_false_030_flowchart-v2-pointEnd)"/><path d="M888.875,57L888.875,61.167C888.875,65.333,888.875,73.667,888.945,81.417C889.016,89.167,889.156,96.334,889.226,99.917L889.297,103.501" id="L_n3_n33_0" class="edge-thickness-normal edge-pattern-solid edge-thickness-normal edge-pattern-solid flowchart-link" style=";" data-edge="true" data-et="edge" data-id="L_n3_n33_0" data-points="W3sieCI6ODg4Ljg3NSwieSI6NTd9LHsieCI6ODg4Ljg3NSwieSI6ODJ9LHsieCI6ODg5LjM3NSwieSI6MTA3LjV9XQ==" marker-end="url(#upstream_cypress_newshapes_spec_newshapessets_newshapesset4_tb_md_html_false_030_flowchart-v2-pointEnd)"/><path d="M1146.016,57L1146.016,61.167C1146.016,65.333,1146.016,73.667,1146.092,85.024C1146.168,96.38,1146.321,110.761,1146.397,117.951L1146.473,125.141" id="L_n4_n44_0" class="edge-thickness-normal edge-pattern-solid edge-thickness-normal edge-pattern-solid flowchart-link" style=";" data-edge="true" data-et="edge" data-id="L_n4_n44_0" data-points="W3sieCI6MTE0Ni4wMTU5MTQ5MTY5OTIyLCJ5Ijo1N30seyJ4IjoxMTQ2LjAxNTkxNDkxNjk5MjIsInkiOjgyfSx7IngiOjExNDYuNTE1OTE0OTE2OTkyMiwieSI6MTI5LjE0MDk2NDUwODA1Njc1fV0=" marker-end="url(#upstream_cypress_newshapes_spec_newshapessets_newshapesset4_tb_md_html_false_030_flowchart-v2-pointEnd)"/></g><g class="edgeLabels"><g><rect class="background" style="stroke: none"/></g><g><rect class="background" style="stroke: none"/></g><g><rect class="background" style="stroke: none"/></g><g><rect class="background" style="stroke: none"/></g><g><rect class="background" style="stroke: none"/></g><g class="edgeLabel"><g class="label" data-id="L_n0_n00_0" transform="translate(0, 0)"><text y="-10.1"><tspan class="text-outer-tspan" x="0" y="-0.1em" dy="1.1em"/></text></g></g><g class="edgeLabel"><g class="label" data-id="L_n1_n11_0" transform="translate(0, 0)"><text y="-10.1"><tspan class="text-outer-tspan" x="0" y="-0.1em" dy="1.1em"/></text></g></g><g class="edgeLabel"><g class="label" data-id="L_n2_n22_0" transform="translate(0, 0)"><text y="-10.1"><tspan class="text-outer-tspan" x="0" y="-0.1em" dy="1.1em"/></text></g></g><g class="edgeLabel"><g class="label" data-id="L_n3_n33_0" transform="translate(0, 0)"><text y="-10.1"><tspan class="text-outer-tspan" x="0" y="-0.1em" dy="1.1em"/></text></g></g><g class="edgeLabel"><g class="label" data-id="L_n4_n44_0" transform="translate(0, 0)"><text y="-10.1"><tspan class="text-outer-tspan" x="0" y="-0.1em" dy="1.1em"/></text></g></g></g><g class="nodes"><g class="node default" id="flowchart-n0-0" transform="translate(108.6015625, 32.5)"><rect class="basic label-container" style="" x="-38.5703125" y="-24.5" width="77.140625" height="49"/><g class="label" style="" transform="translate(0, -9.5)"><rect/><g><rect class="background" style="stroke: none"/><text y="-10.1" style=""><tspan class="text-outer-tspan" x="0" y="-0.1em" dy="1.1em"><tspan font-style="normal" class="text-inner-tspan" font-weight="normal">n0</tspan></tspan></text></g></g></g><g class="node default" id="flowchart-n00-1" transform="translate(108.6015625, 188.3409652709961)"><g class="basic label-container" transform="translate(0,-6.362500190734863)"><path d="M-100.6015625 57.26250171661377 C-100.6015625 57.26250171661377, -100.6015625 57.26250171661377, -100.6015625 57.26250171661377 C-99.44283268270418 57.63024380893103, -98.28410286540834 57.99798590124828, -96.5775 58.539604576380434 C-95.3362844942649 58.929547073896345, -94.09506898852979 59.319489571412255, -92.5534375 59.80381129484291 C-91.69368147136699 60.06843100160093, -90.83392544273397 60.33305070835894, -88.529375 61.04235595549391 C-87.1643452280908 61.44954365027658, -85.79931545618159 61.85673134505925, -84.5053125 62.242731776414374 C-83.0414030502174 62.661120212802885, -81.5774936004348 63.079508649191396, -80.48125 63.392817403332536 C-79.39746824605848 63.68589229869448, -78.31368649211694 63.97896719405643, -76.4571875 64.48099931064768 C-75.29627292336765 64.77390348056691, -74.1353583467353 65.06680765048617, -72.43312499999999 65.4962890744172 C-71.3840643996465 65.73929644934698, -70.33500379929302 65.98230382427676, -68.4090625 66.42843433308848 C-66.97976004585772 66.72664669030846, -65.55045759171544 67.02485904752845, -64.38499999999999 67.26802231549748 C-62.925644546436985 67.5358637638803, -61.46628909287398 67.80370521226311, -60.3609375 68.00657489071246 C-58.895338347092824 68.23604805633357, -57.42973919418564 68.46552122195469, -56.336875 68.63663417991205 C-55.345711151678024 68.76353361747466, -54.35454730335606 68.89043305503728, -52.3128125 69.15183786579236 C-51.24876700428091 69.25632254200153, -50.18472150856181 69.36080721821071, -48.28875 69.54698343903105 C-47.32736863984624 69.61175079422438, -46.36598727969249 69.67651814941772, -44.264687499999994 69.81808073304971 C-42.78040196587014 69.87131038527643, -41.29611643174029 69.92454003750315, -40.240625 69.96239221658051 C-39.20146499620928 69.96654167002325, -38.16230499241856 69.97069112346598, -36.216562499999995 69.97846063716395 C-35.12878872498645 69.94809402765439, -34.04101494997291 69.91772741814482, -32.192499999999995 69.8661237364347 C-31.198639618388285 69.80694554348042, -30.204779236776574 69.74776735052615, -28.168437499999996 69.62651588860109 C-27.134098842870994 69.53283586151102, -26.09976018574199 69.43915583442096, -24.144374999999997 69.26205664557281 C-22.908589917920438 69.11292011227675, -21.672804835840882 68.96378357898068, -20.120312499999997 68.77642630440799 C-19.201722722317644 68.63902860087136, -18.283132944635287 68.50163089733473, -16.096249999999998 68.17452874379845 C-14.751369171821423 67.93654239600335, -13.406488343642849 67.69855604820825, -12.072187499999998 67.46244190486921 C-10.82495613111052 67.20981158672035, -9.57772476222104 66.95718126857149, -8.048124999999999 66.64735641633546 C-6.631840624147937 66.32712997829019, -5.215556248295877 66.00690354024493, -4.024062499999999 65.73750298377799 C-2.5341554754614766 65.36894417702565, -1.0442484509229537 65.00038537027332, 0 64.74206927625777 C1.3938371624397985 64.37111410054251, 2.787674324879597 64.00015892482726, 4.024062499999999 63.67110714954583 C4.970950676552401 63.40387517112647, 5.9178388531048025 63.13664319270711, 8.048125000000013 62.53543114282505 C8.854131205115568 62.29729408511312, 9.660137410231123 62.05915702740119, 12.072187500000013 61.34650927384078 C12.896168821551294 61.094616928162104, 13.720150143102575 60.84272458248343, 16.096249999999998 60.116347235247154 C17.41489874932458 59.7037908945762, 18.73354749864916 59.291234553905255, 20.120312499999997 58.85736716153038 C21.19646649741512 58.51637151636205, 22.272620494830246 58.175375871193715, 24.144374999999997 57.58228219071661 C24.98162066722111 57.31631640508687, 25.818866334442227 57.050350619457134, 28.16843750000001 56.30396808753593 C29.041254509846134 56.02880186239905, 29.914071519692257 55.75363563726218, 32.192499999999995 55.03533322438739 C33.081041106105864 54.76017570658382, 33.96958221221174 54.48501818878026, 36.21656250000001 53.7891882330329 C37.29170040893128 53.465617469263535, 38.36683831786254 53.142046705494174, 40.240624999999994 52.57811664327288 C41.76821338686356 52.1363343033534, 43.29580177372712 51.69455196343393, 44.26468750000001 51.41434781488953 C45.746760715704795 51.0074784938603, 47.228833931409575 50.60060917283106, 48.28874999999999 50.3096334459873 C49.764827152400365 49.930164062153644, 51.240904304800736 49.550694678319985, 52.31281250000001 49.275128904744356 C53.2060568987107 49.06339768269658, 54.09930129742139 48.851666460648815, 56.33687499999999 48.32128058288372 C57.41437926608146 48.090049141507585, 58.49188353216293 47.85881770013145, 60.360937500000006 47.457720408364374 C61.95922010056526 47.1540546773998, 63.55750270113052 46.85038894643522, 64.38499999999999 46.693168582499865 C65.21087596016851 46.55816067684754, 66.03675192033703 46.42315277119522, 68.4090625 46.0353455236616 C69.80064211451952 45.847066198681546, 71.19222172903903 45.658786873701494, 72.43312499999999 45.49089390675635 C73.53475373425715 45.37438634415144, 74.63638246851431 45.25787878154653, 76.4571875 45.065311585720615 C77.73807011102178 44.969050961731845, 79.01895272204357 44.87279033774308, 80.48125000000002 44.762896076378354 C81.98639400371454 44.6969928451382, 83.49153800742906 44.63108961389805, 84.5053125 44.586701160272085 C86.0314201142801 44.56842338046699, 87.5575277285602 44.550145600661885, 88.52937499999999 44.5385060476806 C89.9268564981167 44.56638973363143, 91.32433799623342 44.594273419582265, 92.5534375 44.618797411214025 C93.85324672882483 44.6859726859854, 95.15305595764966 44.75314796075678, 96.57749999999999 44.8267644714103 C97.42101890968632 44.89668127444769, 98.26453781937266 44.96659807748507, 100.6015625 45.16030718395867 C100.6015625 15.520917061119604, 100.6015625 -14.118473061719463, 100.6015625 -57.26250171661377 C42.96729791350226 -57.26250171661377, -14.666966672995486 -57.26250171661377, -100.6015625 -57.26250171661377 C-100.6015625 -25.288615739189776, -100.6015625 6.685270238234217, -100.6015625 57.26250171661377" stroke="none" stroke-width="0" fill="#ECECFF" style=""/><path d="M-100.6015625 57.26250171661377 C-100.6015625 57.26250171661377, -100.6015625 57.26250171661377, -100.6015625 57.26250171661377 M-100.6015625 57.26250171661377 C-100.6015625 57.26250171661377, -100.6015625 57.26250171661377, -100.6015625 57.26250171661377 M-100.6015625 57.26250171661377 C-99.72631962552006 57.54027453400632, -98.85107675104013 57.81804735139888, -96.5775 58.539604576380434 M-100.6015625 57.26250171661377 C-99.52152120799813 57.605270702602844, -98.44147991599625 57.948039688591926, -96.5775 58.539604576380434 M-96.5775 58.539604576380434 C-95.70962047504811 58.81225917015481, -94.84174095009622 59.08491376392919, -92.5534375 59.80381129484291 M-96.5775 58.539604576380434 C-95.06480427160263 59.01483578932244, -93.55210854320525 59.49006700226445, -92.5534375 59.80381129484291 M-92.5534375 59.80381129484291 C-91.3992988800955 60.1590374438736, -90.24516026019101 60.5142635929043, -88.529375 61.04235595549391 M-92.5534375 59.80381129484291 C-91.0896193022212 60.25435206378542, -89.62580110444239 60.70489283272792, -88.529375 61.04235595549391 M-88.529375 61.04235595549391 C-87.64414368286347 61.30642001240462, -86.75891236572696 61.570484069315334, -84.5053125 62.242731776414374 M-88.529375 61.04235595549391 C-87.22012269385867 61.432905260276435, -85.91087038771732 61.82345456505895, -84.5053125 62.242731776414374 M-84.5053125 62.242731776414374 C-83.15555349728177 62.62849577208532, -81.80579449456354 63.01425976775627, -80.48125 63.392817403332536 M-84.5053125 62.242731776414374 C-83.52649729926009 62.52247924399968, -82.54768209852017 62.802226711584986, -80.48125 63.392817403332536 M-80.48125 63.392817403332536 C-79.60049081057116 63.630991192789836, -78.7197316211423 63.86916498224714, -76.4571875 64.48099931064768 M-80.48125 63.392817403332536 C-79.25485770334825 63.72445686183675, -78.02846540669648 64.05609632034096, -76.4571875 64.48099931064768 M-76.4571875 64.48099931064768 C-75.0246548348059 64.84243399294624, -73.5921221696118 65.20386867524479, -72.43312499999999 65.4962890744172 M-76.4571875 64.48099931064768 C-75.17881174666117 64.80353948407094, -73.90043599332235 65.12607965749422, -72.43312499999999 65.4962890744172 M-72.43312499999999 65.4962890744172 C-71.35987310847631 65.74490018869383, -70.28662121695262 65.99351130297045, -68.4090625 66.42843433308848 M-72.43312499999999 65.4962890744172 C-71.52455329878963 65.70675320201119, -70.61598159757925 65.91721732960517, -68.4090625 66.42843433308848 M-68.4090625 66.42843433308848 C-67.0424618480512 66.71356446815186, -65.67586119610239 66.99869460321526, -64.38499999999999 67.26802231549748 M-68.4090625 66.42843433308848 C-67.1031737818146 66.70089741589396, -65.7972850636292 66.97336049869945, -64.38499999999999 67.26802231549748 M-64.38499999999999 67.26802231549748 C-62.91099254954038 67.53855290452859, -61.43698509908077 67.8090834935597, -60.3609375 68.00657489071246 M-64.38499999999999 67.26802231549748 C-62.86944244374482 67.5461787646229, -61.35388488748966 67.82433521374833, -60.3609375 68.00657489071246 M-60.3609375 68.00657489071246 C-58.84871484005722 68.24334803582019, -57.33649218011443 68.48012118092791, -56.336875 68.63663417991205 M-60.3609375 68.00657489071246 C-59.44449288195427 68.15006531727434, -58.52804826390854 68.29355574383622, -56.336875 68.63663417991205 M-56.336875 68.63663417991205 C-54.85244807938105 68.82668645194381, -53.368021158762105 69.01673872397559, -52.3128125 69.15183786579236 M-56.336875 68.63663417991205 C-55.040915816619616 68.80255678872541, -53.74495663323923 68.96847939753877, -52.3128125 69.15183786579236 M-52.3128125 69.15183786579236 C-50.89425421151976 69.29113416848995, -49.47569592303952 69.43043047118753, -48.28875 69.54698343903105 M-52.3128125 69.15183786579236 C-51.033570614157796 69.27745389891612, -49.75432872831559 69.40306993203987, -48.28875 69.54698343903105 M-48.28875 69.54698343903105 C-47.18551686627222 69.62130721437632, -46.082283732544454 69.6956309897216, -44.264687499999994 69.81808073304971 M-48.28875 69.54698343903105 C-47.470240560663484 69.60212564771516, -46.65173112132697 69.65726785639926, -44.264687499999994 69.81808073304971 M-44.264687499999994 69.81808073304971 C-43.233801710790864 69.85505050118617, -42.202915921581734 69.89202026932261, -40.240625 69.96239221658051 M-44.264687499999994 69.81808073304971 C-43.00875688534657 69.86312108970729, -41.752826270693156 69.90816144636487, -40.240625 69.96239221658051 M-40.240625 69.96239221658051 C-38.911748051144095 69.96769853419309, -37.58287110228819 69.97300485180565, -36.216562499999995 69.97846063716395 M-40.240625 69.96239221658051 C-39.28059153396971 69.96622571109168, -38.320558067939416 69.97005920560285, -36.216562499999995 69.97846063716395 M-36.216562499999995 69.97846063716395 C-35.123554183878845 69.9479478986803, -34.030545867757695 69.91743516019666, -32.192499999999995 69.8661237364347 M-36.216562499999995 69.97846063716395 C-35.19429369228574 69.94992268339936, -34.17202488457149 69.92138472963478, -32.192499999999995 69.8661237364347 M-32.192499999999995 69.8661237364347 C-30.849806497583074 69.78617470472501, -29.507112995166153 69.70622567301531, -28.168437499999996 69.62651588860109 M-32.192499999999995 69.8661237364347 C-31.29908255947529 69.81292629475949, -30.40566511895059 69.75972885308428, -28.168437499999996 69.62651588860109 M-28.168437499999996 69.62651588860109 C-27.033214824448248 69.52369879840924, -25.8979921488965 69.4208817082174, -24.144374999999997 69.26205664557281 M-28.168437499999996 69.62651588860109 C-27.30753387158419 69.54854386785522, -26.446630243168382 69.47057184710933, -24.144374999999997 69.26205664557281 M-24.144374999999997 69.26205664557281 C-22.81862904183185 69.10206348891506, -21.492883083663703 68.94207033225732, -20.120312499999997 68.77642630440799 M-24.144374999999997 69.26205664557281 C-23.239922674961008 69.1529058828359, -22.335470349922016 69.043755120099, -20.120312499999997 68.77642630440799 M-20.120312499999997 68.77642630440799 C-18.633961923819875 68.554106003465, -17.147611347639756 68.33178570252201, -16.096249999999998 68.17452874379845 M-20.120312499999997 68.77642630440799 C-18.55653484969455 68.54252487940414, -16.9927571993891 68.30862345440028, -16.096249999999998 68.17452874379845 M-16.096249999999998 68.17452874379845 C-14.844643242789342 67.95304791458057, -13.593036485578688 67.73156708536267, -12.072187499999998 67.46244190486921 M-16.096249999999998 68.17452874379845 C-14.911634883051358 67.96490256776968, -13.727019766102718 67.75527639174092, -12.072187499999998 67.46244190486921 M-12.072187499999998 67.46244190486921 C-10.810480120970778 67.20687942903224, -9.548772741941558 66.95131695319529, -8.048124999999999 66.64735641633546 M-12.072187499999998 67.46244190486921 C-11.261714892913208 67.29827833611486, -10.451242285826417 67.1341147673605, -8.048124999999999 66.64735641633546 M-8.048124999999999 66.64735641633546 C-6.75936113201073 66.35596277395389, -5.4705972640214595 66.06456913157231, -4.024062499999999 65.73750298377799 M-8.048124999999999 66.64735641633546 C-6.619462401214608 66.32433122239988, -5.190799802429217 66.00130602846431, -4.024062499999999 65.73750298377799 M-4.024062499999999 65.73750298377799 C-2.8441166525342556 65.44561937868589, -1.6641708050685118 65.1537357735938, 0 64.74206927625777 M-4.024062499999999 65.73750298377799 C-3.210134357380302 65.5361613026627, -2.3962062147606042 65.33481962154742, 0 64.74206927625777 M0 64.74206927625777 C1.3982145362925655 64.3699491082963, 2.796429072585131 63.99782894033484, 4.024062499999999 63.67110714954583 M0 64.74206927625777 C1.2370375882372318 64.41284466647073, 2.4740751764744635 64.0836200566837, 4.024062499999999 63.67110714954583 M4.024062499999999 63.67110714954583 C5.575087397200147 63.23337494196288, 7.126112294400295 62.795642734379925, 8.048125000000013 62.53543114282505 M4.024062499999999 63.67110714954583 C5.503598060920286 63.253550752837945, 6.983133621840572 62.83599435613005, 8.048125000000013 62.53543114282505 M8.048125000000013 62.53543114282505 C8.97918403525288 62.260346834783725, 9.910243070505746 61.9852625267424, 12.072187500000013 61.34650927384078 M8.048125000000013 62.53543114282505 C9.371212688148413 62.14452074145244, 10.694300376296813 61.753610340079824, 12.072187500000013 61.34650927384078 M12.072187500000013 61.34650927384078 C13.141178346286624 61.019717143075944, 14.210169192573234 60.69292501231111, 16.096249999999998 60.116347235247154 M12.072187500000013 61.34650927384078 C12.879731576160916 61.099641819126965, 13.68727565232182 60.85277436441315, 16.096249999999998 60.116347235247154 M16.096249999999998 60.116347235247154 C17.541594415346246 59.66415251446964, 18.986938830692495 59.211957793692136, 20.120312499999997 58.85736716153038 M16.096249999999998 60.116347235247154 C17.597284036519383 59.64672929518073, 19.098318073038765 59.17711135511429, 20.120312499999997 58.85736716153038 M20.120312499999997 58.85736716153038 C21.35875866512311 58.4649467922368, 22.59720483024622 58.07252642294323, 24.144374999999997 57.58228219071661 M20.120312499999997 58.85736716153038 C21.049467062670182 58.56295050711117, 21.978621625340367 58.26853385269197, 24.144374999999997 57.58228219071661 M24.144374999999997 57.58228219071661 C25.619158254392534 57.113791397339355, 27.093941508785072 56.64530060396209, 28.16843750000001 56.30396808753593 M24.144374999999997 57.58228219071661 C25.232752556506924 57.23653995135822, 26.32113011301385 56.890797711999824, 28.16843750000001 56.30396808753593 M28.16843750000001 56.30396808753593 C29.311705726451333 55.943538812392674, 30.45497395290266 55.58310953724942, 32.192499999999995 55.03533322438739 M28.16843750000001 56.30396808753593 C29.434050804932987 55.904968031770736, 30.69966410986596 55.50596797600554, 32.192499999999995 55.03533322438739 M32.192499999999995 55.03533322438739 C33.14772240755529 54.73952628331612, 34.10294481511059 54.44371934224485, 36.21656250000001 53.7891882330329 M32.192499999999995 55.03533322438739 C33.110430206424 54.75107468487706, 34.02836041284801 54.46681614536674, 36.21656250000001 53.7891882330329 M36.21656250000001 53.7891882330329 C37.28482805535672 53.46768575527275, 38.35309361071344 53.146183277512584, 40.240624999999994 52.57811664327288 M36.21656250000001 53.7891882330329 C37.56161824759041 53.38438368475609, 38.90667399518081 52.97957913647927, 40.240624999999994 52.57811664327288 M40.240624999999994 52.57811664327288 C41.06286175734186 52.34032373927463, 41.88509851468372 52.102530835276376, 44.26468750000001 51.41434781488953 M40.240624999999994 52.57811664327288 C41.56640872973986 52.194696709350616, 42.89219245947974 51.81127677542835, 44.26468750000001 51.41434781488953 M44.26468750000001 51.41434781488953 C45.55664657926848 51.05966998399064, 46.848605658536954 50.704992153091744, 48.28874999999999 50.3096334459873 M44.26468750000001 51.41434781488953 C45.46960024543983 51.083566565055364, 46.67451299087965 50.752785315221196, 48.28874999999999 50.3096334459873 M48.28874999999999 50.3096334459873 C49.2878479636033 50.052785700582206, 50.2869459272066 49.79593795517711, 52.31281250000001 49.275128904744356 M48.28874999999999 50.3096334459873 C49.232840905079996 50.066926895417716, 50.17693181015999 49.824220344848136, 52.31281250000001 49.275128904744356 M52.31281250000001 49.275128904744356 C53.192175877959556 49.066687986549766, 54.07153925591911 48.858247068355176, 56.33687499999999 48.32128058288372 M52.31281250000001 49.275128904744356 C53.30231681343486 49.04058060216613, 54.291821126869706 48.806032299587905, 56.33687499999999 48.32128058288372 M56.33687499999999 48.32128058288372 C57.94086821353444 47.97706508936004, 59.54486142706889 47.632849595836355, 60.360937500000006 47.457720408364374 M56.33687499999999 48.32128058288372 C57.46440929622613 48.07931274226853, 58.59194359245227 47.83734490165333, 60.360937500000006 47.457720408364374 M60.360937500000006 47.457720408364374 C61.664580433546654 47.21003474614654, 62.9682233670933 46.9623490839287, 64.38499999999999 46.693168582499865 M60.360937500000006 47.457720408364374 C61.71338337668535 47.20076243010168, 63.065829253370694 46.94380445183899, 64.38499999999999 46.693168582499865 M64.38499999999999 46.693168582499865 C65.32299397167385 46.53983247909234, 66.26098794334771 46.38649637568481, 68.4090625 46.0353455236616 M64.38499999999999 46.693168582499865 C65.91185750211626 46.44356955851545, 67.43871500423253 46.19397053453104, 68.4090625 46.0353455236616 M68.4090625 46.0353455236616 C69.62389338049022 45.87098012497574, 70.83872426098043 45.70661472628987, 72.43312499999999 45.49089390675635 M68.4090625 46.0353455236616 C69.85367952045743 45.839890290896975, 71.29829654091485 45.64443505813235, 72.43312499999999 45.49089390675635 M72.43312499999999 45.49089390675635 C73.95427472990387 45.33001806730421, 75.47542445980775 45.16914222785207, 76.4571875 45.065311585720615 M72.43312499999999 45.49089390675635 C73.72920890684463 45.35382088730598, 75.02529281368928 45.21674786785561, 76.4571875 45.065311585720615 M76.4571875 45.065311585720615 C77.32348525559446 45.00020775669208, 78.18978301118891 44.93510392766354, 80.48125000000002 44.762896076378354 M76.4571875 45.065311585720615 C77.38338024017347 44.9957065412491, 78.30957298034693 44.926101496777584, 80.48125000000002 44.762896076378354 M80.48125000000002 44.762896076378354 C81.31839425745058 44.72624143639442, 82.15553851490114 44.68958679641049, 84.5053125 44.586701160272085 M80.48125000000002 44.762896076378354 C81.58579792966174 44.7145330775924, 82.69034585932346 44.666170078806445, 84.5053125 44.586701160272085 M84.5053125 44.586701160272085 C85.4128452480073 44.57583188501339, 86.3203779960146 44.5649626097547, 88.52937499999999 44.5385060476806 M84.5053125 44.586701160272085 C85.67917469141204 44.57264212901151, 86.85303688282409 44.55858309775094, 88.52937499999999 44.5385060476806 M88.52937499999999 44.5385060476806 C89.92282685088374 44.56630933083677, 91.3162787017675 44.59411261399294, 92.5534375 44.618797411214025 M88.52937499999999 44.5385060476806 C89.65423877497427 44.560950243386316, 90.77910254994855 44.58339443909203, 92.5534375 44.618797411214025 M92.5534375 44.618797411214025 C93.73036244922046 44.67962191922329, 94.90728739844093 44.740446427232555, 96.57749999999999 44.8267644714103 M92.5534375 44.618797411214025 C93.40779743990805 44.66295147816804, 94.2621573798161 44.707105545122054, 96.57749999999999 44.8267644714103 M96.57749999999999 44.8267644714103 C98.043493584117 44.94827637054827, 99.50948716823402 45.06978826968624, 100.6015625 45.16030718395867 M96.57749999999999 44.8267644714103 C98.01283168234526 44.94573489563608, 99.44816336469054 45.064705319861865, 100.6015625 45.16030718395867 M100.6015625 45.16030718395867 C100.6015625 17.056332096842574, 100.6015625 -11.047642990273523, 100.6015625 -57.26250171661377 M100.6015625 45.16030718395867 C100.6015625 15.743548426801745, 100.6015625 -13.673210330355182, 100.6015625 -57.26250171661377 M100.6015625 -57.26250171661377 C43.84000957961689 -57.26250171661377, -12.92154334076622 -57.26250171661377, -100.6015625 -57.26250171661377 M100.6015625 -57.26250171661377 C59.96560367530182 -57.26250171661377, 19.329644850603643 -57.26250171661377, -100.6015625 -57.26250171661377 M-100.6015625 -57.26250171661377 C-100.6015625 -31.150783694640495, -100.6015625 -5.0390656726672205, -100.6015625 57.26250171661377 M-100.6015625 -57.26250171661377 C-100.6015625 -18.529997424001103, -100.6015625 20.202506868611565, -100.6015625 57.26250171661377" stroke="#9370DB" stroke-width="1.3" fill="none" stroke-dasharray="0 0" style=""/></g><g class="label" style="" transform="translate(0,-49.62500190734863)"><rect/><g><rect class="background" style="stroke: none"/><text y="-10.1" style=""><tspan class="text-outer-tspan" x="0" y="-0.1em" dy="1.1em"><tspan font-style="normal" class="text-inner-tspan" font-weight="normal">This</tspan><tspan font-style="normal" class="text-inner-tspan" font-weight="normal"> is</tspan><tspan font-style="normal" class="text-inner-tspan" font-weight="bold"> bold</tspan></tspan><tspan class="text-outer-tspan" x="0" y="1em" dy="1.1em"><tspan font-style="normal" class="text-inner-tspan" font-weight="normal">and</tspan><tspan font-style="normal" class="text-inner-tspan" font-weight="normal"> &lt;strong&gt;</tspan><tspan font-style="normal" class="text-inner-tspan" font-weight="normal"> strong</tspan></tspan><tspan class="text-outer-tspan" x="0" y="2.1em" dy="1.1em"><tspan font-style="normal" class="text-inner-tspan" font-weight="normal">&lt;/strong&gt;</tspan><tspan font-style="normal" class="text-inner-tspan" font-weight="normal"> for</tspan><tspan font-style="normal" class="text-inner-tspan" font-weight="normal"> document</tspan></tspan><tspan class="text-outer-tspan" x="0" y="3.2em" dy="1.1em"><tspan font-style="normal" class="text-inner-tspan" font-weight="normal">shape</tspan></tspan></text></g></g></g><g class="node default" id="flowchart-n1-3" transform="translate(362.421875, 32.5)"><rect class="basic label-container" style="" x="-38.5703125" y="-24.5" width="77.140625" height="49"/><g class="label" style="" transform="translate(0, -9.5)"><rect/><g><rect class="background" style="stroke: none"/><text y="-10.1" style=""><tspan class="text-outer-tspan" x="0" y="-0.1em" dy="1.1em"><tspan font-style="normal" class="text-inner-tspan" font-weight="normal">n1</tspan></tspan></text></g></g></g><g class="node default" id="flowchart-n11-4" transform="translate(362.421875, 188.3409652709961)"><g class="basic label-container"><path d="M-82.575 -50.900001525878906 C-46.428101154821924 -50.900001525878906, -10.281202309643845 -50.900001525878906, 82.575 -50.900001525878906 C88.86648676840996 -44.69499156185369, 95.15797353681992 -38.489981597828475, 103.21875 -30.540000915527344 C103.21875 -1.5480397442479017, 103.21875 27.44392142703154, 103.21875 50.900001525878906 C37.637091022316596 50.900001525878906, -27.944567955366807 50.900001525878906, -103.21875 50.900001525878906 C-103.21875 29.179256217889048, -103.21875 7.458510909899189, -103.21875 -30.540000915527344 C-98.55770732065255 -35.13697732709931, -93.89666464130511 -39.73395373867127, -82.575 -50.900001525878906" stroke="none" stroke-width="0" fill="#ECECFF" style=""/><path d="M-82.575 -50.900001525878906 C-49.54425755377393 -50.900001525878906, -16.51351510754786 -50.900001525878906, 82.575 -50.900001525878906 M-82.575 -50.900001525878906 C-46.01873506110627 -50.900001525878906, -9.462470122212537 -50.900001525878906, 82.575 -50.900001525878906 M82.575 -50.900001525878906 C87.0650632358581 -46.47165443668299, 91.55512647171622 -42.04330734748708, 103.21875 -30.540000915527344 M82.575 -50.900001525878906 C88.11569486290624 -45.43546379457801, 93.65638972581247 -39.97092606327712, 103.21875 -30.540000915527344 M103.21875 -30.540000915527344 C103.21875 -12.975633903104384, 103.21875 4.588733109318575, 103.21875 50.900001525878906 M103.21875 -30.540000915527344 C103.21875 0.07432075909551372, 103.21875 30.68864243371837, 103.21875 50.900001525878906 M103.21875 50.900001525878906 C44.010551482572914 50.900001525878906, -15.197647034854171 50.900001525878906, -103.21875 50.900001525878906 M103.21875 50.900001525878906 C28.123751052055738 50.900001525878906, -46.971247895888524 50.900001525878906, -103.21875 50.900001525878906 M-103.21875 50.900001525878906 C-103.21875 32.9844645209721, -103.21875 15.068927516065294, -103.21875 -30.540000915527344 M-103.21875 50.900001525878906 C-103.21875 24.403019680152777, -103.21875 -2.093962165573352, -103.21875 -30.540000915527344 M-103.21875 -30.540000915527344 C-96.29438254488109 -37.36919258915833, -89.37001508976216 -44.19838426278932, -82.575 -50.900001525878906 M-103.21875 -30.540000915527344 C-98.19735276765714 -35.492378788506734, -93.17595553531427 -40.444756661486124, -82.575 -50.900001525878906" stroke="#9370DB" stroke-width="1.3" fill="none" stroke-dasharray="0 0" style=""/></g><g class="label" style="" transform="translate(0, -35.900001525878906)"><rect/><g><rect class="background" style="stroke: none"/><text y="-10.1" style=""><tspan class="text-outer-tspan" x="0" y="-0.1em" dy="1.1em"><tspan font-style="normal" class="text-inner-tspan" font-weight="normal">This</tspan><tspan font-style="normal" class="text-inner-tspan" font-weight="normal"> is</tspan><tspan font-style="normal" class="text-inner-tspan" font-weight="bold"> bold</tspan></tspan><tspan class="text-outer-tspan" x="0" y="1em" dy="1.1em"><tspan font-style="normal" class="text-inner-tspan" font-weight="normal">and</tspan><tspan font-style="normal" class="text-inner-tspan" font-weight="normal"> &lt;strong&gt;</tspan><tspan font-style="normal" class="text-inner-tspan" font-weight="normal"> strong</tspan></tspan><tspan class="text-outer-tspan" x="0" y="2.1em" dy="1.1em"><tspan font-style="normal" class="text-inner-tspan" font-weight="normal">&lt;/strong&gt;</tspan><tspan font-style="normal" class="text-inner-tspan" font-weight="normal"> for</tspan></tspan><tspan class="text-outer-tspan" x="0" y="3.2em" dy="1.1em"><tspan font-style="normal" class="text-inner-tspan" font-weight="normal">notched-pentagon</tspan><tspan font-style="normal" class="text-inner-tspan" font-weight="normal"> shape</tspan></tspan></text></g></g></g><g class="node default" id="flowchart-n2-6" transform="translate(622.734375, 32.5)"><rect class="basic label-container" style="" x="-38.5703125" y="-24.5" width="77.140625" height="49"/><g class="label" style="" transform="translate(0, -9.5)"><rect/><g><rect class="background" style="stroke: none"/><text y="-10.1" style=""><tspan class="text-outer-tspan" x="0" y="-0.1em" dy="1.1em"><tspan font-style="normal" class="text-inner-tspan" font-weight="normal">n2</tspan></tspan></text></g></g></g><g class="node default" id="flowchart-n22-7" transform="translate(622.734375, 188.3409652709961)"><path d="M0,15.786806707204716 a107.09375,15.786806707204716 0,0,0 214.1875,0 a107.09375,15.786806707204716 0,0,0 -214.1875,0 l0,102.58680975896253 a107.09375,15.786806707204716 0,0,0 214.1875,0 l0,-102.58680975896253 M0,26.045487683100973 a107.09375,15.786806707204716 0,0,0 214.1875,0" class="basic label-container" style="" transform="translate(-107.09375, -67.08021158668598)"/><g class="label" style="" transform="translate(0, -21.113194818674188)"><rect/><g><rect class="background" style="stroke: none"/><text y="-10.1" style=""><tspan class="text-outer-tspan" x="0" y="-0.1em" dy="1.1em"><tspan font-style="normal" class="text-inner-tspan" font-weight="normal">This</tspan><tspan font-style="normal" class="text-inner-tspan" font-weight="normal"> is</tspan><tspan font-style="normal" class="text-inner-tspan" font-weight="bold"> bold</tspan></tspan><tspan class="text-outer-tspan" x="0" y="1em" dy="1.1em"><tspan font-style="normal" class="text-inner-tspan" font-weight="normal">and</tspan><tspan font-style="normal" class="text-inner-tspan" font-weight="normal"> &lt;strong&gt;</tspan><tspan font-style="normal" class="text-inner-tspan" font-weight="normal"> strong</tspan></tspan><tspan class="text-outer-tspan" x="0" y="2.1em" dy="1.1em"><tspan font-style="normal" class="text-inner-tspan" font-weight="normal">&lt;/strong&gt;</tspan><tspan font-style="normal" class="text-inner-tspan" font-weight="normal"> for</tspan><tspan font-style="normal" class="text-inner-tspan" font-weight="normal"> lined-cylinder</tspan></tspan><tspan class="text-outer-tspan" x="0" y="3.2em" dy="1.1em"><tspan font-style="normal" class="text-inner-tspan" font-weight="normal">shape</tspan></tspan></text></g></g></g><g class="node default" id="flowchart-n3-9" transform="translate(888.875, 32.5)"><rect class="basic label-container" style="" x="-38.5703125" y="-24.5" width="77.140625" height="49"/><g class="label" style="" transform="translate(0, -9.5)"><rect/><g><rect class="background" style="stroke: none"/><text y="-10.1" style=""><tspan class="text-outer-tspan" x="0" y="-0.1em" dy="1.1em"><tspan font-style="normal" class="text-inner-tspan" font-weight="normal">n3</tspan></tspan></text></g></g></g><g class="node default" id="flowchart-n33-10" transform="translate(888.875, 188.3409652709961)"><g class="basic label-container" transform="translate(0,-12.725000381469727)"><path d="M-109.046875 -58.62500190734863 C-109.046875 -25.76440035196775, -109.046875 7.0962012034131305, -109.046875 68.62500190734863 C-109.046875 68.62500190734863, -109.046875 68.62500190734863, -109.046875 68.62500190734863 C-108.01897777531221 69.2558380017508, -106.9910805506244 69.88667409615296, -104.885 71.17920762688196 C-103.81523823595217 71.82910701562552, -102.74547647190431 72.47900640436907, -100.723125 73.70762106380691 C-99.4450178536821 74.46833241713296, -98.16691070736421 75.229043770459, -96.56125 76.18471038510891 C-95.61120117968676 76.7327401229545, -94.66115235937352 77.28076986080006, -92.39937499999999 78.58546202694986 C-91.0084358938664 79.35420163296044, -89.61749678773282 80.12294123897101, -88.2375 80.88563328078618 C-86.94755456466024 81.56018274907173, -85.65760912932048 82.23473221735729, -84.075625 83.06199709541644 C-82.61083698123804 83.77666742143117, -81.14604896247607 84.49133774744591, -79.91375 85.09257662295552 C-78.3728179698063 85.78282920664904, -76.83188593961263 86.47308179034255, -75.751875 86.95686714029804 C-74.3103029467754 87.53849276416423, -72.86873089355079 88.12011838803042, -71.59 88.63604310511604 C-70.61068364251574 88.98361559000334, -69.63136728503147 89.33118807489063, -67.428125 90.11314825554601 C-66.59451541393733 90.36554577506045, -65.76090582787467 90.61794329457491, -63.26625 91.37326683394518 C-62.41404970176128 91.5842567049821, -61.56184940352256 91.79524657601903, -59.104375000000005 92.40367420570581 C-57.74056634553819 92.66264543985157, -56.37675769107637 92.92161667399735, -54.942499999999995 93.1939653521832 C-53.82949084122275 93.338964311144, -52.7164816824455 93.48396327010481, -50.78062499999999 93.73615994022052 C-49.91470609062275 93.79621077905138, -49.04878718124551 93.85626161788224, -46.618750000000006 94.02478290728212 C-45.716041532412 94.03175337098966, -44.81333306482399 94.03872383469722, -42.456875 94.05691974844899 C-41.537903931341305 94.00731020385048, -40.61893286268261 93.95770065925197, -38.295 93.8322459469905 C-37.183041727797885 93.70421042046308, -36.071083455595776 93.57617489393569, -34.13312500000001 93.35303025132328 C-32.553221129824585 93.07632296502487, -30.973317259649164 92.79961567872647, -29.971249999999998 92.62411176526672 C-28.438420063931314 92.2663938017043, -26.90559012786263 91.90867583814187, -25.80937499999999 91.65285108293708 C-24.28274647505878 91.21128376766737, -22.756117950117567 90.76971645239766, -21.647500000000008 90.449055961718 C-20.723664564570242 90.13292390349616, -19.799829129140477 89.81679184527432, -17.485625 89.02488228385951 C-16.37121932976058 88.58837907789976, -15.256813659521162 88.15187587194, -13.32374999999999 87.39471130679202 C-11.670730843804598 86.67195766649881, -10.017711687609209 85.94920402620562, -9.161875000000009 85.57500444167708 C-8.307715177252138 85.16641000807553, -7.453555354504269 84.75781557447398, -5 83.58413702663664 C-3.5607628091814085 82.84342832071827, -2.1215256183628166 82.10271961479991, -0.8381249999999909 81.44221277321274 C0.30123133166397076 80.82040666467938, 1.4405876633279324 80.198600556146, 3.323750000000004 79.1708607597712 C4.648499135170313 78.41397920147261, 5.973248270340623 77.65709764317401, 7.485625000000013 76.79301702180265 C9.042315831829626 75.87276739049776, 10.599006663659237 74.95251775919286, 11.647499999999994 74.3326929446154 C13.225872385414483 73.37776787736006, 14.804244770828973 72.42284281010471, 15.809374999999989 71.81473279718185 C17.25471619685628 70.92910656486616, 18.70005739371257 70.04348033255047, 19.971249999999998 69.26456285555432 C21.315573934883055 68.43874841124527, 22.659897869766112 67.61293396693623, 24.133125000000007 66.70793464919295 C25.005531992249956 66.17607536691136, 25.877938984499906 65.64421608462976, 28.295000000000016 64.17066492289585 C29.499374670950882 63.44943929073745, 30.703749341901744 62.72821365857905, 32.456875 61.678374940186906 C33.64903642853611 60.9845564874425, 34.84119785707222 60.29073803469809, 36.61874999999998 59.25623176066685 C37.78069117191077 58.60641362999979, 38.94263234382156 57.956595499332735, 40.780624999999986 56.92869410390017 C41.80786581438482 56.38335927862369, 42.83510662876965 55.838024453347224, 44.942499999999995 54.719265366095684 C46.48199000384862 53.9539327214682, 48.02148000769725 53.188600076840714, 49.104375000000005 52.65025628360981 C50.09414650973568 52.19657043596333, 51.08391801947135 51.742884588316855, 53.266250000000014 50.74255963988853 C54.22887951751817 50.343081753529404, 55.19150903503633 49.94360386717027, 57.42812500000002 49.01543929084984 C58.75543437892276 48.52777600968812, 60.08274375784549 48.040112728526395, 61.59 47.48633563912082 C63.00938914521615 47.03764032309719, 64.42877829043229 46.58894500707357, 65.75187499999998 46.170689521444295 C67.40159174379967 45.73906149388584, 69.05130848759936 45.30743346632739, 69.91375 45.081786287633776 C71.16381119765731 44.82613038930156, 72.41387239531463 44.57047449096934, 74.075625 44.23062164556232 C75.14785183686466 44.07479859705612, 76.22007867372933 43.91897554854993, 78.23750000000001 43.62579062687781 C79.27635516084936 43.537829792920796, 80.3152103216987 43.44986895896378, 82.39937500000002 43.273400794665264 C83.6711957543854 43.2439450592317, 84.94301650877077 43.214489323798134, 86.56125 43.1770105694823 C88.1592394929679 43.23866775779405, 89.75722898593578 43.30032494610579, 90.72312499999998 43.337593296549144 C92.35916690952405 43.50109788343925, 93.99520881904812 43.66460247032935, 94.88499999999999 43.7535274169417 C96.42059592123161 43.9996601474758, 97.95619184246321 44.2457928780099, 99.046875 44.42061284203844 C99.046875 42.634160839680746, 99.046875 40.847708837323054, 99.046875 39.42061284203844 C100.32807186292484 39.42061284203844, 101.60926872584969 39.42061284203844, 104.046875 39.42061284203844 C104.046875 38.150992312196806, 104.046875 36.881371782355174, 104.046875 34.42061284203844 C105.54206238733605 34.42061284203844, 107.03724977467209 34.42061284203844, 109.046875 34.42061284203844 C109.046875 4.3517520121708095, 109.046875 -25.71710881769682, 109.046875 -68.62500190734863 C53.29665874502679 -68.62500190734863, -2.453557509946421 -68.62500190734863, -99.046875 -68.62500190734863 C-99.046875 -67.28938678698614, -99.046875 -65.95377166662365, -99.046875 -63.62500190734863 C-100.37843491183594 -63.62500190734863, -101.70999482367188 -63.62500190734863, -104.046875 -63.62500190734863 C-104.046875 -62.13566838996485, -104.046875 -60.646334872581065, -104.046875 -58.62500190734863 C-105.27806910919026 -58.62500190734863, -106.50926321838051 -58.62500190734863, -109.046875 -58.62500190734863" stroke="none" stroke-width="0" fill="#ECECFF" style=""/><path d="M-109.046875 -58.62500190734863 C-109.046875 -33.17442908092084, -109.046875 -7.723856254493043, -109.046875 68.62500190734863 M-109.046875 -58.62500190734863 C-109.046875 -30.457972825148747, -109.046875 -2.290943742948862, -109.046875 68.62500190734863 M-109.046875 68.62500190734863 C-109.046875 68.62500190734863, -109.046875 68.62500190734863, -109.046875 68.62500190734863 M-109.046875 68.62500190734863 C-109.046875 68.62500190734863, -109.046875 68.62500190734863, -109.046875 68.62500190734863 M-109.046875 68.62500190734863 C-108.14927311188093 69.17587378036202, -107.25167122376186 69.72674565337543, -104.885 71.17920762688196 M-109.046875 68.62500190734863 C-107.48237381876243 69.58515997680858, -105.91787263752485 70.54531804626855, -104.885 71.17920762688196 M-104.885 71.17920762688196 C-103.6913354710035 71.90438015952542, -102.49767094200698 72.62955269216886, -100.723125 73.70762106380691 M-104.885 71.17920762688196 C-103.37105026341399 72.09895914676497, -101.85710052682796 73.01871066664796, -100.723125 73.70762106380691 M-100.723125 73.70762106380691 C-99.80757707100844 74.25254228273951, -98.8920291420169 74.79746350167213, -96.56125 76.18471038510891 M-100.723125 73.70762106380691 C-99.36903458971885 74.51355658454814, -98.0149441794377 75.31949210528936, -96.56125 76.18471038510891 M-96.56125 76.18471038510891 C-95.16526565596013 76.98997524912765, -93.76928131192025 77.79524011314638, -92.39937499999999 78.58546202694986 M-96.56125 76.18471038510891 C-95.54891321010683 76.768670549802, -94.53657642021368 77.35263071449506, -92.39937499999999 78.58546202694986 M-92.39937499999999 78.58546202694986 C-91.48845235615333 79.08890772866955, -90.57752971230668 79.59235343038925, -88.2375 80.88563328078618 M-92.39937499999999 78.58546202694986 C-91.13098231483978 79.28647308398108, -89.86258962967956 79.98748414101229, -88.2375 80.88563328078618 M-88.2375 80.88563328078618 C-86.75590723498834 81.66040063487283, -85.2743144699767 82.43516798895946, -84.075625 83.06199709541644 M-88.2375 80.88563328078618 C-86.91534357513656 81.5770267994175, -85.59318715027312 82.26842031804881, -84.075625 83.06199709541644 M-84.075625 83.06199709541644 C-82.96561733584589 83.60357002546428, -81.85560967169178 84.1451429555121, -79.91375 85.09257662295552 M-84.075625 83.06199709541644 C-83.13593734629808 83.52047086310249, -82.19624969259614 83.97894463078853, -79.91375 85.09257662295552 M-79.91375 85.09257662295552 C-78.50034722896217 85.72570313041464, -77.08694445792433 86.35882963787378, -75.751875 86.95686714029804 M-79.91375 85.09257662295552 C-78.56313837083225 85.69757616111319, -77.2125267416645 86.30257569927086, -75.751875 86.95686714029804 M-75.751875 86.95686714029804 C-74.22738705830386 87.57194652407362, -72.70289911660774 88.18702590784922, -71.59 88.63604310511604 M-75.751875 86.95686714029804 C-74.18441398157907 87.589284708803, -72.61695296315814 88.22170227730795, -71.59 88.63604310511604 M-71.59 88.63604310511604 C-70.02598808844311 89.19113186916938, -68.46197617688624 89.74622063322272, -67.428125 90.11314825554601 M-71.59 88.63604310511604 C-70.64216980483552 88.97244072950662, -69.69433960967103 89.30883835389719, -67.428125 90.11314825554601 M-67.428125 90.11314825554601 C-65.89286075143254 90.57799042460968, -64.35759650286508 91.04283259367337, -63.26625 91.37326683394518 M-67.428125 90.11314825554601 C-66.08778296348062 90.51897252985205, -64.74744092696125 90.92479680415809, -63.26625 91.37326683394518 M-63.26625 91.37326683394518 C-61.799110193680214 91.73650495902952, -60.331970387360435 92.09974308411385, -59.104375000000005 92.40367420570581 M-63.26625 91.37326683394518 C-61.943197780100455 91.70083139573734, -60.62014556020091 92.02839595752951, -59.104375000000005 92.40367420570581 M-59.104375000000005 92.40367420570581 C-57.963359322824694 92.62033967203133, -56.82234364564938 92.83700513835686, -54.942499999999995 93.1939653521832 M-59.104375000000005 92.40367420570581 C-58.2578339801131 92.56442239567946, -57.411292960226184 92.7251705856531, -54.942499999999995 93.1939653521832 M-54.942499999999995 93.1939653521832 C-53.87630935460998 93.33286495818926, -52.810118709219964 93.47176456419533, -50.78062499999999 93.73615994022052 M-54.942499999999995 93.1939653521832 C-53.64355739489366 93.36318707332084, -52.34461478978732 93.53240879445849, -50.78062499999999 93.73615994022052 M-50.78062499999999 93.73615994022052 C-49.40623785976058 93.83147267650097, -48.031850719521174 93.92678541278143, -46.618750000000006 94.02478290728212 M-50.78062499999999 93.73615994022052 C-49.78771316489932 93.80501764495152, -48.794801329798645 93.87387534968252, -46.618750000000006 94.02478290728212 M-46.618750000000006 94.02478290728212 C-45.48830931085645 94.03351185586313, -44.3578686217129 94.04224080444413, -42.456875 94.05691974844899 M-46.618750000000006 94.02478290728212 C-45.56147144279426 94.0329469182296, -44.50419288558851 94.04111092917708, -42.456875 94.05691974844899 M-42.456875 94.05691974844899 C-41.068198129208 93.98195370272241, -39.679521258416 93.90698765699582, -38.295 93.8322459469905 M-42.456875 94.05691974844899 C-41.532860596574665 94.00703794550681, -40.60884619314933 93.95715614256464, -38.295 93.8322459469905 M-38.295 93.8322459469905 C-37.12089923173114 93.69705507353818, -35.94679846346227 93.56186420008585, -34.13312500000001 93.35303025132328 M-38.295 93.8322459469905 C-37.40461291269382 93.72972305347338, -36.51422582538764 93.62720015995626, -34.13312500000001 93.35303025132328 M-34.13312500000001 93.35303025132328 C-32.76197607782222 93.11288469276808, -31.390827155644423 92.87273913421288, -29.971249999999998 92.62411176526672 M-34.13312500000001 93.35303025132328 C-33.19769779918698 93.1891978010376, -32.26227059837396 93.0253653507519, -29.971249999999998 92.62411176526672 M-29.971249999999998 92.62411176526672 C-28.43399621623306 92.26536140420703, -26.896742432466116 91.90661104314734, -25.80937499999999 91.65285108293708 M-29.971249999999998 92.62411176526672 C-28.353917488796455 92.24667335628388, -26.736584977592916 91.86923494730104, -25.80937499999999 91.65285108293708 M-25.80937499999999 91.65285108293708 C-24.514904331945985 91.27843390924382, -23.220433663891978 90.90401673555057, -21.647500000000008 90.449055961718 M-25.80937499999999 91.65285108293708 C-24.5841902420966 91.29847440556064, -23.359005484193215 90.94409772818419, -21.647500000000008 90.449055961718 M-21.647500000000008 90.449055961718 C-20.342582793048763 90.00251954774002, -19.037665586097518 89.55598313376206, -17.485625 89.02488228385951 M-21.647500000000008 90.449055961718 C-20.809271050618793 90.16221803272501, -19.97104210123758 89.87538010373203, -17.485625 89.02488228385951 M-17.485625 89.02488228385951 C-16.152724697609603 88.5027965921265, -14.819824395219205 87.9807109003935, -13.32374999999999 87.39471130679202 M-17.485625 89.02488228385951 C-16.0080348399764 88.44612280769289, -14.5304446799528 87.86736333152626, -13.32374999999999 87.39471130679202 M-13.32374999999999 87.39471130679202 C-12.103394420552238 86.86113222865959, -10.883038841104485 86.32755315052717, -9.161875000000009 85.57500444167708 M-13.32374999999999 87.39471130679202 C-12.481947172989887 87.02664778172617, -11.640144345979786 86.6585842566603, -9.161875000000009 85.57500444167708 M-9.161875000000009 85.57500444167708 C-7.715775660530845 84.8832508320995, -6.26967632106168 84.19149722252193, -5 83.58413702663664 M-9.161875000000009 85.57500444167708 C-7.8824724528117285 84.96299162487772, -6.603069905623448 84.35097880807834, -5 83.58413702663664 M-5 83.58413702663664 C-3.395856986805036 82.75855893360819, -1.7917139736100727 81.93298084057975, -0.8381249999999909 81.44221277321274 M-5 83.58413702663664 C-3.4697946260513817 82.79661121118565, -1.9395892521027638 82.00908539573464, -0.8381249999999909 81.44221277321274 M-0.8381249999999909 81.44221277321274 C0.12482011388504977 80.91668345691745, 1.0877652277700904 80.39115414062215, 3.323750000000004 79.1708607597712 M-0.8381249999999909 81.44221277321274 C0.5302746140995953 80.69540581272553, 1.8986742281991815 79.94859885223832, 3.323750000000004 79.1708607597712 M3.323750000000004 79.1708607597712 C4.429350690443831 78.53918737254416, 5.53495138088766 77.90751398531711, 7.485625000000013 76.79301702180265 M3.323750000000004 79.1708607597712 C4.158950124742644 78.69367790671343, 4.994150249485283 78.21649505365565, 7.485625000000013 76.79301702180265 M7.485625000000013 76.79301702180265 C8.980468280545267 75.90932904108553, 10.475311561090521 75.0256410603684, 11.647499999999994 74.3326929446154 M7.485625000000013 76.79301702180265 C9.03806511014718 75.87528023696737, 10.590505220294347 74.9575434521321, 11.647499999999994 74.3326929446154 M11.647499999999994 74.3326929446154 C12.928359363757822 73.55776509781334, 14.209218727515651 72.78283725101129, 15.809374999999989 71.81473279718185 M11.647499999999994 74.3326929446154 C12.608475418625567 73.75129686550143, 13.56945083725114 73.16990078638746, 15.809374999999989 71.81473279718185 M15.809374999999989 71.81473279718185 C17.33466531466954 70.8801181072342, 18.859955629339087 69.94550341728655, 19.971249999999998 69.26456285555432 M15.809374999999989 71.81473279718185 C16.935026339408175 71.12499506827083, 18.06067767881636 70.43525733935982, 19.971249999999998 69.26456285555432 M19.971249999999998 69.26456285555432 C21.153671856012952 68.53820440680204, 22.336093712025907 67.81184595804977, 24.133125000000007 66.70793464919295 M19.971249999999998 69.26456285555432 C21.280206899518323 68.46047428244248, 22.589163799036648 67.65638570933062, 24.133125000000007 66.70793464919295 M24.133125000000007 66.70793464919295 C25.121061011790133 66.10564358224985, 26.108997023580258 65.50335251530677, 28.295000000000016 64.17066492289585 M24.133125000000007 66.70793464919295 C25.08249166064728 66.12915722622468, 26.03185832129455 65.5503798032564, 28.295000000000016 64.17066492289585 M28.295000000000016 64.17066492289585 C29.399850560397677 63.50903813591415, 30.50470112079534 62.84741134893245, 32.456875 61.678374940186906 M28.295000000000016 64.17066492289585 C29.68612001602929 63.3376090332558, 31.077240032058562 62.50455314361575, 32.456875 61.678374940186906 M32.456875 61.678374940186906 C33.307270987751714 61.1834583841577, 34.157666975503425 60.68854182812849, 36.61874999999998 59.25623176066685 M32.456875 61.678374940186906 C33.828062987316564 60.8803659583413, 35.19925097463313 60.082356976495696, 36.61874999999998 59.25623176066685 M36.61874999999998 59.25623176066685 C37.95495494041293 58.50895623798325, 39.29115988082589 57.76168071529965, 40.780624999999986 56.92869410390017 M36.61874999999998 59.25623176066685 C37.86492752145433 58.5593042680821, 39.111105042908676 57.86237677549735, 40.780624999999986 56.92869410390017 M40.780624999999986 56.92869410390017 C41.81393917871155 56.380135091045105, 42.847253357423114 55.83157607819005, 44.942499999999995 54.719265366095684 M40.780624999999986 56.92869410390017 C41.75704828755574 56.41033695194649, 42.733471575111494 55.89197979999282, 44.942499999999995 54.719265366095684 M44.942499999999995 54.719265366095684 C45.851979029872275 54.26713252377433, 46.76145805974456 53.814999681452974, 49.104375000000005 52.65025628360981 M44.942499999999995 54.719265366095684 C45.96589197377691 54.210502539560146, 46.98928394755384 53.70173971302461, 49.104375000000005 52.65025628360981 M49.104375000000005 52.65025628360981 C50.763300341139384 51.8898475001947, 52.42222568227876 51.12943871677959, 53.266250000000014 50.74255963988853 M49.104375000000005 52.65025628360981 C50.27052408419195 52.115723484332655, 51.4366731683839 51.581190685055496, 53.266250000000014 50.74255963988853 M53.266250000000014 50.74255963988853 C54.61453893290165 50.18303844994456, 55.962827865803284 49.62351726000059, 57.42812500000002 49.01543929084984 M53.266250000000014 50.74255963988853 C54.665013235667914 50.16209231499069, 56.063776471335814 49.58162499009284, 57.42812500000002 49.01543929084984 M57.42812500000002 49.01543929084984 C58.398242551817404 48.6590109283713, 59.368360103634785 48.302582565892756, 61.59 47.48633563912082 M57.42812500000002 49.01543929084984 C59.00727295473982 48.43524865460703, 60.58642090947962 47.85505801836422, 61.59 47.48633563912082 M61.59 47.48633563912082 C62.84643532393948 47.089153057699555, 64.10287064787896 46.691970476278286, 65.75187499999998 46.170689521444295 M61.59 47.48633563912082 C63.084090974485676 47.014025685064624, 64.57818194897135 46.54171573100844, 65.75187499999998 46.170689521444295 M65.75187499999998 46.170689521444295 C67.3251197078403 45.759069458385554, 68.89836441568063 45.347449395326805, 69.91375 45.081786287633776 M65.75187499999998 46.170689521444295 C67.09234603140146 45.819971818264264, 68.43281706280295 45.46925411508423, 69.91375 45.081786287633776 M69.91375 45.081786287633776 C70.8097159477368 44.89854807523825, 71.70568189547362 44.71530986284273, 74.075625 44.23062164556232 M69.91375 45.081786287633776 C70.87166216227615 44.885879163383365, 71.82957432455231 44.689972039132954, 74.075625 44.23062164556232 M74.075625 44.23062164556232 C74.94143902661541 44.104795862781934, 75.80725305323082 43.97897008000154, 78.23750000000001 43.62579062687781 M74.075625 44.23062164556232 C75.21800050106663 44.06460413229478, 76.36037600213325 43.898586619027235, 78.23750000000001 43.62579062687781 M78.23750000000001 43.62579062687781 C79.1761131193571 43.54631737992956, 80.1147262387142 43.466844132981315, 82.39937500000002 43.273400794665264 M78.23750000000001 43.62579062687781 C79.45156357577275 43.522994733257285, 80.66562715154551 43.42019883963676, 82.39937500000002 43.273400794665264 M82.39937500000002 43.273400794665264 C83.84054854586239 43.24002279974388, 85.28172209172476 43.20664480482251, 86.56125 43.1770105694823 M82.39937500000002 43.273400794665264 C83.56276210531239 43.24645641381384, 84.72614921062475 43.21951203296242, 86.56125 43.1770105694823 M86.56125 43.1770105694823 C87.77848122417629 43.223976494563935, 88.99571244835259 43.27094241964558, 90.72312499999998 43.337593296549144 M86.56125 43.1770105694823 C87.44486929639632 43.2111043364273, 88.32848859279264 43.245198103372296, 90.72312499999998 43.337593296549144 M90.72312499999998 43.337593296549144 C92.23932462361343 43.48912095098066, 93.75552424722687 43.64064860541218, 94.88499999999999 43.7535274169417 M90.72312499999998 43.337593296549144 C92.20761264040337 43.485951683320685, 93.69210028080676 43.634310070092226, 94.88499999999999 43.7535274169417 M94.88499999999999 43.7535274169417 C96.02698421788291 43.93657016268495, 97.16896843576582 44.1196129084282, 99.046875 44.42061284203844 M94.88499999999999 43.7535274169417 C96.0803282102553 43.94512039541133, 97.27565642051061 44.13671337388096, 99.046875 44.42061284203844 M99.046875 44.42061284203844 C99.046875 43.010059379700735, 99.046875 41.59950591736303, 99.046875 39.42061284203844 M99.046875 44.42061284203844 C99.046875 43.41078859540464, 99.046875 42.40096434877084, 99.046875 39.42061284203844 M99.046875 39.42061284203844 C100.18687575263903 39.42061284203844, 101.32687650527805 39.42061284203844, 104.046875 39.42061284203844 M99.046875 39.42061284203844 C100.73788146721199 39.42061284203844, 102.42888793442398 39.42061284203844, 104.046875 39.42061284203844 M104.046875 39.42061284203844 C104.046875 38.079992943171575, 104.046875 36.73937304430471, 104.046875 34.42061284203844 M104.046875 39.42061284203844 C104.046875 37.98086157413961, 104.046875 36.54111030624078, 104.046875 34.42061284203844 M104.046875 34.42061284203844 C105.5891168336384 34.42061284203844, 107.1313586672768 34.42061284203844, 109.046875 34.42061284203844 M104.046875 34.42061284203844 C105.11514373170212 34.42061284203844, 106.18341246340424 34.42061284203844, 109.046875 34.42061284203844 M109.046875 34.42061284203844 C109.046875 -0.5341951405909668, 109.046875 -35.48900312322037, 109.046875 -68.62500190734863 M109.046875 34.42061284203844 C109.046875 -3.0662425908195488, 109.046875 -40.553098023677535, 109.046875 -68.62500190734863 M109.046875 -68.62500190734863 C53.00196780502737 -68.62500190734863, -3.0429393899452606 -68.62500190734863, -99.046875 -68.62500190734863 M109.046875 -68.62500190734863 C49.0132478679443 -68.62500190734863, -11.020379264111398 -68.62500190734863, -99.046875 -68.62500190734863 M-99.046875 -68.62500190734863 C-99.046875 -67.32151743071154, -99.046875 -66.01803295407444, -99.046875 -63.62500190734863 M-99.046875 -68.62500190734863 C-99.046875 -66.84905725670978, -99.046875 -65.07311260607094, -99.046875 -63.62500190734863 M-99.046875 -63.62500190734863 C-100.86016126675531 -63.62500190734863, -102.67344753351063 -63.62500190734863, -104.046875 -63.62500190734863 M-99.046875 -63.62500190734863 C-100.86791922198609 -63.62500190734863, -102.68896344397217 -63.62500190734863, -104.046875 -63.62500190734863 M-104.046875 -63.62500190734863 C-104.046875 -62.393455617595464, -104.046875 -61.161909327842295, -104.046875 -58.62500190734863 M-104.046875 -63.62500190734863 C-104.046875 -62.30289831710979, -104.046875 -60.980794726870954, -104.046875 -58.62500190734863 M-104.046875 -58.62500190734863 C-105.24141579074785 -58.62500190734863, -106.4359565814957 -58.62500190734863, -109.046875 -58.62500190734863 M-104.046875 -58.62500190734863 C-105.89113752590492 -58.62500190734863, -107.73540005180985 -58.62500190734863, -109.046875 -58.62500190734863" stroke="#9370DB" stroke-width="1.3" fill="none" stroke-dasharray="0 0" style=""/><g><path d="M-104.046875 -58.62500190734863 C-59.59510850083024 -58.62500190734863, -15.143342001660486 -58.62500190734863, 99.046875 -58.62500190734863 C99.046875 -28.744157201498723, 99.046875 1.1366875043511868, 99.046875 39.42061284203844 C100.82683327002451 39.42061284203844, 102.60679154004902 39.42061284203844, 104.046875 39.42061284203844 C104.046875 6.684785457769365, 104.046875 -26.051041926499707, 104.046875 -63.62500190734863 C48.546491792294546 -63.62500190734863, -6.953891415410908 -63.62500190734863, -104.046875 -63.62500190734863 C-104.046875 -62.496078460942954, -104.046875 -61.367155014537275, -104.046875 -58.62500190734863" stroke="none" stroke-width="0" fill="#ECECFF" style=""/><path d="M-104.046875 -58.62500190734863 C-63.42721197433711 -58.62500190734863, -22.807548948674224 -58.62500190734863, 99.046875 -58.62500190734863 M-104.046875 -58.62500190734863 C-59.091689214753565 -58.62500190734863, -14.13650342950713 -58.62500190734863, 99.046875 -58.62500190734863 M99.046875 -58.62500190734863 C99.046875 -37.29985457591272, 99.046875 -15.974707244476797, 99.046875 39.42061284203844 M99.046875 -58.62500190734863 C99.046875 -32.30997513302647, 99.046875 -5.994948358704306, 99.046875 39.42061284203844 M99.046875 39.42061284203844 C100.12523738248274 39.42061284203844, 101.20359976496547 39.42061284203844, 104.046875 39.42061284203844 M99.046875 39.42061284203844 C100.92643791483715 39.42061284203844, 102.8060008296743 39.42061284203844, 104.046875 39.42061284203844 M104.046875 39.42061284203844 C104.046875 9.866170386418588, 104.046875 -19.68827206920126, 104.046875 -63.62500190734863 M104.046875 39.42061284203844 C104.046875 1.9360941320390808, 104.046875 -35.548424577960276, 104.046875 -63.62500190734863 M104.046875 -63.62500190734863 C58.26947855042235 -63.62500190734863, 12.492082100844698 -63.62500190734863, -104.046875 -63.62500190734863 M104.046875 -63.62500190734863 C36.34235448594262 -63.62500190734863, -31.362166028114757 -63.62500190734863, -104.046875 -63.62500190734863 M-104.046875 -63.62500190734863 C-104.046875 -61.94789201812819, -104.046875 -60.27078212890774, -104.046875 -58.62500190734863 M-104.046875 -63.62500190734863 C-104.046875 -62.40879912627861, -104.046875 -61.192596345208585, -104.046875 -58.62500190734863" stroke="#9370DB" stroke-width="1.3" fill="none" stroke-dasharray="0 0" style=""/></g></g><g class="label" style="" transform="translate(-5, -44.62500190734863)"><rect/><g><rect class="background" style="stroke: none"/><text y="-10.1" style=""><tspan class="text-outer-tspan" x="0" y="-0.1em" dy="1.1em"><tspan font-style="normal" class="text-inner-tspan" font-weight="normal">This</tspan><tspan font-style="normal" class="text-inner-tspan" font-weight="normal"> is</tspan><tspan font-style="normal" class="text-inner-tspan" font-weight="bold"> bold</tspan></tspan><tspan class="text-outer-tspan" x="0" y="1em" dy="1.1em"><tspan font-style="normal" class="text-inner-tspan" font-weight="normal">and</tspan><tspan font-style="normal" class="text-inner-tspan" font-weight="normal"> &lt;strong&gt;</tspan><tspan font-style="normal" class="text-inner-tspan" font-weight="normal"> strong</tspan></tspan><tspan class="text-outer-tspan" x="0" y="2.1em" dy="1.1em"><tspan font-style="normal" class="text-inner-tspan" font-weight="normal">&lt;/strong&gt;</tspan><tspan font-style="normal" class="text-inner-tspan" font-weight="normal"> for</tspan></tspan><tspan class="text-outer-tspan" x="0" y="3.2em" dy="1.1em"><tspan font-style="normal" class="text-inner-tspan" font-weight="normal">stacked-document</tspan><tspan font-style="normal" class="text-inner-tspan" font-weight="normal"> shape</tspan></tspan></text></g></g></g><g class="node default" id="flowchart-n4-12" transform="translate(1146.0159149169922, 32.5)"><rect class="basic label-container" style="" x="-38.5703125" y="-24.5" width="77.140625" height="49"/><g class="label" style="" transform="translate(0, -9.5)"><rect/><g><rect class="background" style="stroke: none"/><text y="-10.1" style=""><tspan class="text-outer-tspan" x="0" y="-0.1em" dy="1.1em"><tspan font-style="normal" class="text-inner-tspan" font-weight="normal">n4</tspan></tspan></text></g></g></g><g class="node default" id="flowchart-n44-13" transform="translate(1146.0159149169922, 188.3409652709961)"><g class="basic label-container"><path d="M-98.109375 -59.70000076293945 C-61.50542464087628 -59.70000076293945, -24.901474281752556 -59.70000076293945, 38.40937423706055 -59.70000076293945 C38.40937423706055 -59.70000076293945, 38.40937423706054 -59.70000076293945, 38.40937423706054 -59.70000076293945 C39.58918682826138 -59.66216646950554, 40.768999419462226 -59.624332176071626, 42.2343664187908 -59.57734070856699 C43.0482321798028 -59.49882805741895, 43.86209794081481 -59.4203154062709, 46.04364088718808 -59.209864581923526 C47.325169424392435 -59.002676986430565, 48.60669796159678 -58.795489390937604, 49.82154451637493 -58.599082421236815 C51.178844187570924 -58.28928762849443, 52.53614385876693 -57.97949283575205, 53.55255308998122 -57.74750406141747 C54.540648825218966 -57.45424243381926, 55.52874456045671 -57.160980806221055, 57.22133509347919 -56.65862882060899 C58.2574524609189 -56.27732805162722, 59.2935698283586 -55.89602728264546, 60.81281471466518 -55.33693112073886 C61.725102403942394 -54.933088422748625, 62.6373900932196 -54.5292457247584, 64.31223379340578 -53.78784210115912 C65.51738225810048 -53.15911691906233, 66.72253072279518 -52.530391736965534, 67.7052124660834 -52.01772730092977 C68.89204306641612 -51.298263616417294, 70.07887366674885 -50.57879993190482, 70.9778082555404 -50.03386050145337 C72.12097426842051 -49.236437377727306, 73.26414028130064 -48.439014254001236, 74.11657336370826 -47.84439383694708 C74.85353967048086 -47.25668281879299, 75.59050597725346 -46.66897180063889, 77.10860993149453 -45.45832429557449 C77.85771729158083 -44.77800481143875, 78.60682465166711 -44.097685327303004, 79.94162303885236 -42.8854567488914 C80.57767974089388 -42.2286759828071, 81.21373644293541 -41.571895216722794, 82.60397122724416 -40.1363636615255 C83.51899953794823 -39.06151934118663, 84.4340278486523 -37.98667502084777, 85.084714336892 -37.222341646651365 C85.67580336346005 -36.430336200368295, 86.26689239002809 -35.638330754085224, 87.37365846224057 -34.15536504578392 C87.93801056789768 -33.28836866173526, 88.5023626735548 -32.4213722776866, 89.46139784090187 -30.948036723640495 C89.9252141290254 -30.124483937585104, 90.38903041714894 -29.300931151529714, 91.33935350395024 -27.613536280266576 C91.76615423593945 -26.727275428218228, 92.19295496792867 -25.841014576169883, 92.99980852874602 -24.165565893232106 C93.44084281646515 -23.076202675747947, 93.8818771041843 -21.986839458263788, 94.43593974942581 -20.618294012444718 C94.71121702607957 -19.78920271464143, 94.98649430273332 -18.960111416838142, 95.64184579475472 -16.986297138949976 C95.96627171326463 -15.749120504589161, 96.29069763177453 -14.511943870228349, 96.61257133812639 -13.284499926961976 C96.83931228546075 -12.120233084116233, 97.0660532327951 -10.955966241270488, 97.34412746006315 -9.528113855257818 C97.51636684962553 -8.192259162326529, 97.6886062391879 -6.856404469395239, 97.83350803954167 -5.732574719948367 C97.9242910140027 -4.318556614019805, 98.01507398846373 -2.9045385080912416, 98.07870210678908 -1.9134792054812264 C98.07870210678908 -0.5879140950210864, 98.07870210678908 0.7376510154390536, 98.07870210678908 1.913479205481212 C98.02100634206441 2.8121373122509774, 97.96331057733974 3.710795419020743, 97.83350803954167 5.732574719948326 C97.73548675291336 6.492808462545104, 97.63746546628505 7.253042205141881, 97.34412746006316 9.528113855257777 C97.19433143176032 10.29728480119106, 97.04453540345749 11.066455747124342, 96.61257133812639 13.284499926961962 C96.29447339016845 14.497545267048295, 95.97637544221051 15.710590607134629, 95.64184579475472 16.986297138949936 C95.3193506518021 17.957601126900073, 94.99685550884949 18.92890511485021, 94.43593974942583 20.61829401244468 C94.13713856478341 21.356338715439364, 93.838337380141 22.09438341843405, 92.99980852874603 24.165565893232092 C92.63965671954172 24.913428831059083, 92.27950491033741 25.66129176888607, 91.33935350395025 27.613536280266562 C90.92468777694855 28.349817268016125, 90.51002204994684 29.086098255765688, 89.46139784090187 30.94803672364048 C88.90360139763904 31.804961849809693, 88.3458049543762 32.6618869759789, 87.3736584622406 34.15536504578388 C86.50474440733662 35.319630719656345, 85.63583035243262 36.48389639352881, 85.084714336892 37.22234164665135 C84.17104987023592 38.29558391816653, 83.25738540357985 39.3688261896817, 82.60397122724419 40.136363661525465 C81.62738815165336 41.14476586603462, 80.65080507606255 42.15316807054377, 79.94162303885236 42.885456748891386 C79.3127627540975 43.45657102077438, 78.68390246934266 44.02768529265739, 77.10860993149457 45.45832429557446 C76.30744638941205 46.09723090052805, 75.50628284732952 46.73613750548163, 74.11657336370828 47.84439383694708 C72.86991438173521 48.71400917577396, 71.62325539976213 49.583624514600835, 70.97780825554042 50.033860501453354 C70.3061590975412 50.44101816808105, 69.63450993954197 50.84817583470875, 67.70521246608341 52.017727300929764 C66.5318708608281 52.62985886483029, 65.3585292555728 53.241990428730816, 64.3122337934058 53.787842101159114 C63.354231622627296 54.21192124403806, 62.3962294518488 54.636000386917, 60.81281471466521 55.33693112073885 C59.66962576205421 55.757635222822536, 58.52643680944321 56.17833932490622, 57.22133509347923 56.658628820608975 C55.84907876458258 57.06590729590505, 54.476822435685925 57.473185771201116, 53.55255308998128 57.74750406141746 C52.137584859958764 58.07046132638948, 50.722616629936255 58.3934185913615, 49.82154451637495 58.59908242123681 C48.50954938124556 58.811195620010295, 47.197554246116184 59.02330881878378, 46.04364088718812 59.20986458192352 C44.81321016968569 59.32856275343154, 43.58277945218326 59.447260924939556, 42.234366418790806 59.57734070856699 C41.43257637832999 59.60305255457493, 40.63078633786918 59.628764400582874, 38.40937423706056 59.70000076293945 C38.409374237060554 59.70000076293945, 38.409374237060554 59.70000076293945, 38.40937423706055 59.70000076293945 C-0.6961700458450224 59.70000076293945, -39.80171432875059 59.70000076293945, -98.109375 59.70000076293945 C-98.109375 26.36507895506928, -98.109375 -6.969842852800895, -98.109375 -59.70000076293945" stroke="none" stroke-width="0" fill="#ECECFF" style=""/><path d="M-98.109375 -59.70000076293945 C-70.80501142064627 -59.70000076293945, -43.50064784129254 -59.70000076293945, 38.40937423706055 -59.70000076293945 M-98.109375 -59.70000076293945 C-67.89069158349147 -59.70000076293945, -37.67200816698296 -59.70000076293945, 38.40937423706055 -59.70000076293945 M38.40937423706055 -59.70000076293945 C38.40937423706055 -59.70000076293945, 38.40937423706055 -59.70000076293945, 38.40937423706054 -59.70000076293945 M38.40937423706055 -59.70000076293945 C38.40937423706055 -59.70000076293945, 38.40937423706054 -59.70000076293945, 38.40937423706054 -59.70000076293945 M38.40937423706054 -59.70000076293945 C39.23431977347424 -59.67354636524574, 40.059265309887934 -59.647091967552036, 42.2343664187908 -59.57734070856699 M38.40937423706054 -59.70000076293945 C39.84723692792499 -59.65389130507338, 41.28509961878944 -59.6077818472073, 42.2343664187908 -59.57734070856699 M42.2343664187908 -59.57734070856699 C43.326901829906674 -59.471945131422714, 44.41943724102254 -59.36654955427844, 46.04364088718808 -59.209864581923526 M42.2343664187908 -59.57734070856699 C43.620051975904815 -59.44366528940291, 45.00573753301883 -59.30998987023882, 46.04364088718808 -59.209864581923526 M46.04364088718808 -59.209864581923526 C46.874721071872074 -59.07550198278691, 47.705801256556065 -58.941139383650295, 49.82154451637493 -58.599082421236815 M46.04364088718808 -59.209864581923526 C47.2728039627846 -59.0111430281631, 48.50196703838112 -58.812421474402676, 49.82154451637493 -58.599082421236815 M49.82154451637493 -58.599082421236815 C51.0730067914872 -58.31344432349699, 52.32446906659948 -58.02780622575715, 53.55255308998122 -57.74750406141747 M49.82154451637493 -58.599082421236815 C50.72907711705814 -58.391944027334546, 51.63660971774136 -58.18480563343228, 53.55255308998122 -57.74750406141747 M53.55255308998122 -57.74750406141747 C54.35555092204571 -57.50917851988236, 55.1585487541102 -57.27085297834726, 57.22133509347919 -56.65862882060899 M53.55255308998122 -57.74750406141747 C54.67066842421982 -57.415653299322614, 55.788783758458415 -57.083802537227754, 57.22133509347919 -56.65862882060899 M57.22133509347919 -56.65862882060899 C58.49987186415009 -56.18811547033775, 59.778408634820984 -55.71760212006651, 60.81281471466518 -55.33693112073886 M57.22133509347919 -56.65862882060899 C58.362286673216005 -56.238748092425055, 59.503238252952826 -55.818867364241115, 60.81281471466518 -55.33693112073886 M60.81281471466518 -55.33693112073886 C61.746139717816206 -54.923775827946436, 62.67946472096723 -54.510620535154004, 64.31223379340578 -53.78784210115912 M60.81281471466518 -55.33693112073886 C61.602929964023105 -54.98717053778423, 62.39304521338103 -54.6374099548296, 64.31223379340578 -53.78784210115912 M64.31223379340578 -53.78784210115912 C65.46451382537089 -53.186698346553506, 66.616793857336 -52.5855545919479, 67.7052124660834 -52.01772730092977 M64.31223379340578 -53.78784210115912 C65.41332319489827 -53.21340446568191, 66.51441259639074 -52.63896683020471, 67.7052124660834 -52.01772730092977 M67.7052124660834 -52.01772730092977 C68.90395890106107 -51.29104016743031, 70.10270533603875 -50.56435303393084, 70.9778082555404 -50.03386050145337 M67.7052124660834 -52.01772730092977 C68.93774980298619 -51.27055592410592, 70.17028713988898 -50.52338454728208, 70.9778082555404 -50.03386050145337 M70.9778082555404 -50.03386050145337 C72.15734056171337 -49.21106982579767, 73.33687286788634 -48.388279150141976, 74.11657336370826 -47.84439383694708 M70.9778082555404 -50.03386050145337 C71.69263422822102 -49.53522884722898, 72.40746020090167 -49.03659719300459, 74.11657336370826 -47.84439383694708 M74.11657336370826 -47.84439383694708 C75.2202986733172 -46.96420227389795, 76.32402398292615 -46.08401071084882, 77.10860993149453 -45.45832429557449 M74.11657336370826 -47.84439383694708 C75.080166068104 -47.07595429747023, 76.04375877249977 -46.307514757993395, 77.10860993149453 -45.45832429557449 M77.10860993149453 -45.45832429557449 C78.10730073831365 -44.551339728732124, 79.1059915451328 -43.64435516188975, 79.94162303885236 -42.8854567488914 M77.10860993149453 -45.45832429557449 C78.00921945981872 -44.640414550772796, 78.90982898814293 -43.8225048059711, 79.94162303885236 -42.8854567488914 M79.94162303885236 -42.8854567488914 C80.671529876769 -42.13176801227659, 81.40143671468564 -41.378079275661776, 82.60397122724416 -40.1363636615255 M79.94162303885236 -42.8854567488914 C80.48315466839318 -42.326280880816846, 81.02468629793402 -41.7671050127423, 82.60397122724416 -40.1363636615255 M82.60397122724416 -40.1363636615255 C83.23948889587243 -39.38984844597497, 83.8750065645007 -38.64333323042444, 85.084714336892 -37.222341646651365 M82.60397122724416 -40.1363636615255 C83.3782239180255 -39.22688239470758, 84.15247660880682 -38.31740112788967, 85.084714336892 -37.222341646651365 M85.084714336892 -37.222341646651365 C85.84059849261644 -36.20952574044385, 86.59648264834087 -35.19670983423633, 87.37365846224057 -34.15536504578392 M85.084714336892 -37.222341646651365 C85.63079506059051 -36.49064322587272, 86.17687578428904 -35.75894480509407, 87.37365846224057 -34.15536504578392 M87.37365846224057 -34.15536504578392 C87.94072632034924 -33.28419653668803, 88.5077941784579 -32.41302802759215, 89.46139784090187 -30.948036723640495 M87.37365846224057 -34.15536504578392 C87.904025683287 -33.340578570716566, 88.43439290433345 -32.525792095649216, 89.46139784090187 -30.948036723640495 M89.46139784090187 -30.948036723640495 C90.08800810518133 -29.83542674824262, 90.71461836946081 -28.722816772844748, 91.33935350395024 -27.613536280266576 M89.46139784090187 -30.948036723640495 C89.87833926313364 -30.20771500857081, 90.29528068536541 -29.467393293501118, 91.33935350395024 -27.613536280266576 M91.33935350395024 -27.613536280266576 C91.807782161776 -26.64083414952371, 92.27621081960177 -25.66813201878084, 92.99980852874602 -24.165565893232106 M91.33935350395024 -27.613536280266576 C91.69458947647003 -26.87588118249704, 92.04982544898984 -26.138226084727503, 92.99980852874602 -24.165565893232106 M92.99980852874602 -24.165565893232106 C93.47294858589358 -22.99690080453694, 93.94608864304112 -21.82823571584177, 94.43593974942581 -20.618294012444718 M92.99980852874602 -24.165565893232106 C93.3225948228468 -23.368277506154723, 93.64538111694758 -22.57098911907734, 94.43593974942581 -20.618294012444718 M94.43593974942581 -20.618294012444718 C94.88136005422817 -19.27675902246797, 95.32678035903051 -17.93522403249122, 95.64184579475472 -16.986297138949976 M94.43593974942581 -20.618294012444718 C94.90456291868662 -19.206875691593503, 95.37318608794743 -17.795457370742287, 95.64184579475472 -16.986297138949976 M95.64184579475472 -16.986297138949976 C95.94377118718612 -15.834924762316227, 96.24569657961752 -14.683552385682479, 96.61257133812639 -13.284499926961976 M95.64184579475472 -16.986297138949976 C95.92761077804866 -15.896551406322981, 96.21337576134259 -14.806805673695987, 96.61257133812639 -13.284499926961976 M96.61257133812639 -13.284499926961976 C96.84194395776676 -12.106720003028956, 97.07131657740715 -10.928940079095934, 97.34412746006315 -9.528113855257818 M96.61257133812639 -13.284499926961976 C96.75991154404426 -12.527939109937245, 96.90725174996213 -11.771378292912516, 97.34412746006315 -9.528113855257818 M97.34412746006315 -9.528113855257818 C97.50085862627331 -8.312537880201253, 97.65758979248346 -7.096961905144688, 97.83350803954167 -5.732574719948367 M97.34412746006315 -9.528113855257818 C97.5178722094235 -8.18058388900037, 97.69161695878385 -6.8330539227429234, 97.83350803954167 -5.732574719948367 M97.83350803954167 -5.732574719948367 C97.90540446795744 -4.6127298136203585, 97.97730089637321 -3.49288490729235, 98.07870210678908 -1.9134792054812264 M97.83350803954167 -5.732574719948367 C97.88310228708033 -4.960104282777608, 97.932696534619 -4.1876338456068485, 98.07870210678908 -1.9134792054812264 M98.07870210678908 -1.9134792054812264 C98.07870210678908 -0.5837511309309975, 98.07870210678908 0.7459769436192314, 98.07870210678908 1.913479205481212 M98.07870210678908 -1.9134792054812264 C98.07870210678908 -0.7370334114655608, 98.07870210678908 0.43941238255010484, 98.07870210678908 1.913479205481212 M98.07870210678908 1.913479205481212 C97.98419509976658 3.3855021245397214, 97.88968809274407 4.857525043598231, 97.83350803954167 5.732574719948326 M98.07870210678908 1.913479205481212 C97.9885510860683 3.3176541218015307, 97.89840006534752 4.72182903812185, 97.83350803954167 5.732574719948326 M97.83350803954167 5.732574719948326 C97.72027863264236 6.6107596401839634, 97.60704922574305 7.4889445604196005, 97.34412746006316 9.528113855257777 M97.83350803954167 5.732574719948326 C97.67260263125665 6.980525292240222, 97.51169722297163 8.228475864532118, 97.34412746006316 9.528113855257777 M97.34412746006316 9.528113855257777 C97.14978982293766 10.525996548623079, 96.95545218581215 11.52387924198838, 96.61257133812639 13.284499926961962 M97.34412746006316 9.528113855257777 C97.1973196476474 10.281940944170548, 97.05051183523165 11.03576803308332, 96.61257133812639 13.284499926961962 M96.61257133812639 13.284499926961962 C96.26391056485406 14.614094565984376, 95.91524979158172 15.943689205006788, 95.64184579475472 16.986297138949936 M96.61257133812639 13.284499926961962 C96.25047654443975 14.665324308165413, 95.8883817507531 16.046148689368863, 95.64184579475472 16.986297138949936 M95.64184579475472 16.986297138949936 C95.27071594343249 18.104081119620886, 94.89958609211027 19.221865100291836, 94.43593974942583 20.61829401244468 M95.64184579475472 16.986297138949936 C95.36340252898314 17.824923891544234, 95.08495926321159 18.663550644138528, 94.43593974942583 20.61829401244468 M94.43593974942583 20.61829401244468 C93.9096103806924 21.918337729102355, 93.38328101195897 23.21838144576003, 92.99980852874603 24.165565893232092 M94.43593974942583 20.61829401244468 C94.04751313110496 21.577715269415, 93.65908651278411 22.537136526385314, 92.99980852874603 24.165565893232092 M92.99980852874603 24.165565893232092 C92.52806002302563 25.14516175916151, 92.05631151730525 26.124757625090925, 91.33935350395025 27.613536280266562 M92.99980852874603 24.165565893232092 C92.47757658736232 25.24999169348886, 91.95534464597863 26.334417493745622, 91.33935350395025 27.613536280266562 M91.33935350395025 27.613536280266562 C90.89356884485532 28.405072083081212, 90.4477841857604 29.196607885895865, 89.46139784090187 30.94803672364048 M91.33935350395025 27.613536280266562 C90.91097242650994 28.374170261549693, 90.48259134906964 29.134804242832825, 89.46139784090187 30.94803672364048 M89.46139784090187 30.94803672364048 C88.90716686989045 31.799484326968173, 88.35293589887901 32.65093193029587, 87.3736584622406 34.15536504578388 M89.46139784090187 30.94803672364048 C88.76356428321255 32.02009646279922, 88.06573072552324 33.09215620195796, 87.3736584622406 34.15536504578388 M87.3736584622406 34.15536504578388 C86.90595847115861 34.782040425488006, 86.43825848007664 35.40871580519213, 85.084714336892 37.22234164665135 M87.3736584622406 34.15536504578388 C86.61953377365268 35.165823426319214, 85.86540908506477 36.17628180685455, 85.084714336892 37.22234164665135 M85.084714336892 37.22234164665135 C84.28825091619657 38.157912900652704, 83.49178749550114 39.093484154654064, 82.60397122724419 40.136363661525465 M85.084714336892 37.22234164665135 C84.3419130034195 38.09487835954139, 83.599111669947 38.96741507243142, 82.60397122724419 40.136363661525465 M82.60397122724419 40.136363661525465 C81.94296095381398 40.81891103879488, 81.28195068038379 41.501458416064295, 79.94162303885236 42.885456748891386 M82.60397122724419 40.136363661525465 C81.97935401247257 40.78133221780421, 81.35473679770094 41.42630077408296, 79.94162303885236 42.885456748891386 M79.94162303885236 42.885456748891386 C79.32253524489045 43.44769590320217, 78.70344745092854 44.009935057512955, 77.10860993149457 45.45832429557446 M79.94162303885236 42.885456748891386 C79.24499402532486 43.518116787183395, 78.54836501179736 44.15077682547541, 77.10860993149457 45.45832429557446 M77.10860993149457 45.45832429557446 C75.91598274208683 46.40941274198475, 74.72335555267908 47.36050118839504, 74.11657336370828 47.84439383694708 M77.10860993149457 45.45832429557446 C76.27024724559152 46.12689622781413, 75.43188455968846 46.795468160053794, 74.11657336370828 47.84439383694708 M74.11657336370828 47.84439383694708 C73.09973305535675 48.553697617745605, 72.08289274700523 49.26300139854413, 70.97780825554042 50.033860501453354 M74.11657336370828 47.84439383694708 C73.06166680387591 48.58025098691717, 72.00676024404353 49.31610813688727, 70.97780825554042 50.033860501453354 M70.97780825554042 50.033860501453354 C70.21497837349065 50.49629245883791, 69.45214849144087 50.958724416222466, 67.70521246608341 52.017727300929764 M70.97780825554042 50.033860501453354 C69.73608116195612 50.786602762782536, 68.49435406837183 51.53934502411171, 67.70521246608341 52.017727300929764 M67.70521246608341 52.017727300929764 C66.68090052549762 52.55211018423026, 65.65658858491184 53.08649306753075, 64.3122337934058 53.787842101159114 M67.70521246608341 52.017727300929764 C66.48715118085259 52.653189093229194, 65.26908989562178 53.288650885528625, 64.3122337934058 53.787842101159114 M64.3122337934058 53.787842101159114 C62.98940633074916 54.37341857859474, 61.66657886809253 54.95899505603035, 60.81281471466521 55.33693112073885 M64.3122337934058 53.787842101159114 C63.18512884628811 54.28677802686778, 62.05802389917042 54.78571395257645, 60.81281471466521 55.33693112073885 M60.81281471466521 55.33693112073885 C60.03964314113805 55.62146540691653, 59.26647156761089 55.905999693094195, 57.22133509347923 56.658628820608975 M60.81281471466521 55.33693112073885 C59.986186810246885 55.64113783082938, 59.159558905828554 55.94534454091991, 57.22133509347923 56.658628820608975 M57.22133509347923 56.658628820608975 C56.458101474203616 56.88515255251496, 55.694867854928 57.111676284420945, 53.55255308998128 57.74750406141746 M57.22133509347923 56.658628820608975 C56.214306607628465 56.957509589209096, 55.20727812177769 57.25639035780922, 53.55255308998128 57.74750406141746 M53.55255308998128 57.74750406141746 C52.71111176951378 57.9395575518964, 51.869670449046275 58.13161104237534, 49.82154451637495 58.59908242123681 M53.55255308998128 57.74750406141746 C52.46417787205396 57.99591860259733, 51.37580265412664 58.2443331437772, 49.82154451637495 58.59908242123681 M49.82154451637495 58.59908242123681 C48.513332527979934 58.81058399018502, 47.20512053958491 59.02208555913324, 46.04364088718812 59.20986458192352 M49.82154451637495 58.59908242123681 C48.76549060622417 58.7698170276096, 47.70943669607339 58.94055163398239, 46.04364088718812 59.20986458192352 M46.04364088718812 59.20986458192352 C44.92953538801028 59.317340999521306, 43.81542988883243 59.4248174171191, 42.234366418790806 59.57734070856699 M46.04364088718812 59.20986458192352 C45.23488319370964 59.28788446393995, 44.42612550023117 59.36590434595639, 42.234366418790806 59.57734070856699 M42.234366418790806 59.57734070856699 C40.840895517751306 59.622026608136764, 39.44742461671181 59.66671250770653, 38.40937423706056 59.70000076293945 M42.234366418790806 59.57734070856699 C40.87004057565085 59.62109198285734, 39.50571473251088 59.66484325714768, 38.40937423706056 59.70000076293945 M38.40937423706056 59.70000076293945 C38.409374237060554 59.70000076293945, 38.409374237060554 59.70000076293945, 38.40937423706055 59.70000076293945 M38.40937423706056 59.70000076293945 C38.409374237060554 59.70000076293945, 38.409374237060554 59.70000076293945, 38.40937423706055 59.70000076293945 M38.40937423706055 59.70000076293945 C-0.1040246450091189 59.70000076293945, -38.617423527078785 59.70000076293945, -98.109375 59.70000076293945 M38.40937423706055 59.70000076293945 C10.837385617119939 59.70000076293945, -16.73460300282067 59.70000076293945, -98.109375 59.70000076293945 M-98.109375 59.70000076293945 C-98.109375 32.4767824420189, -98.109375 5.253564121098357, -98.109375 -59.70000076293945 M-98.109375 59.70000076293945 C-98.109375 19.318765809862867, -98.109375 -21.06246914321372, -98.109375 -59.70000076293945" stroke="#9370DB" stroke-width="1.3" fill="none" stroke-dasharray="0 0" style=""/></g><g class="label" style="" transform="translate(0, -44.70000076293945)"><rect/><g><rect class="background" style="stroke: none"/><text y="-10.1" style=""><tspan class="text-outer-tspan" x="0" y="-0.1em" dy="1.1em"><tspan font-style="normal" class="text-inner-tspan" font-weight="normal">This</tspan><tspan font-style="normal" class="text-inner-tspan" font-weight="normal"> is</tspan><tspan font-style="normal" class="text-inner-tspan" font-weight="bold"> bold</tspan></tspan><tspan class="text-outer-tspan" x="0" y="1em" dy="1.1em"><tspan font-style="normal" class="text-inner-tspan" font-weight="normal">and</tspan><tspan font-style="normal" class="text-inner-tspan" font-weight="normal"> &lt;strong&gt;</tspan><tspan font-style="normal" class="text-inner-tspan" font-weight="normal"> strong</tspan></tspan><tspan class="text-outer-tspan" x="0" y="2.1em" dy="1.1em"><tspan font-style="normal" class="text-inner-tspan" font-weight="normal">&lt;/strong&gt;</tspan><tspan font-style="normal" class="text-inner-tspan" font-weight="normal"> for</tspan></tspan><tspan class="text-outer-tspan" x="0" y="3.2em" dy="1.1em"><tspan font-style="normal" class="text-inner-tspan" font-weight="normal">half-rounded-rectangle</tspan></tspan><tspan class="text-outer-tspan" x="0" y="4.300000000000001em" dy="1.1em"><tspan font-style="normal" class="text-inner-tspan" font-weight="normal">shape</tspan></tspan></text></g></g></g></g></g></g></svg>