<svg id="upstream_cypress_oldshapes_spec_shapessets_shapesset3_lr_md_html_false_062" width="100%" xmlns="http://www.w3.org/2000/svg" xmlns:xlink="http://www.w3.org/1999/xlink" class="flowchart" style="max-width: 351.578px; background-color: white;" viewBox="0 2 351.578125 556.199951171875" role="graphics-document document" aria-roledescription="flowchart-v2"><style>#upstream_cypress_oldshapes_spec_shapessets_shapesset3_lr_md_html_false_062{font-family:"trebuchet ms",verdana,arial,sans-serif;font-size:16px;fill:#333;}@keyframes edge-animation-frame{from{stroke-dashoffset:0;}}@keyframes dash{to{stroke-dashoffset:0;}}#upstream_cypress_oldshapes_spec_shapessets_shapesset3_lr_md_html_false_062 .edge-animation-slow{stroke-dasharray:9,5!important;stroke-dashoffset:900;animation:dash 50s linear infinite;stroke-linecap:round;}#upstream_cypress_oldshapes_spec_shapessets_shapesset3_lr_md_html_false_062 .edge-animation-fast{stroke-dasharray:9,5!important;stroke-dashoffset:900;animation:dash 20s linear infinite;stroke-linecap:round;}#upstream_cypress_oldshapes_spec_shapessets_shapesset3_lr_md_html_false_062 .error-icon{fill:#552222;}#upstream_cypress_oldshapes_spec_shapessets_shapesset3_lr_md_html_false_062 .error-text{fill:#552222;stroke:#552222;}#upstream_cypress_oldshapes_spec_shapessets_shapesset3_lr_md_html_false_062 .edge-thickness-normal{stroke-width:1px;}#upstream_cypress_oldshapes_spec_shapessets_shapesset3_lr_md_html_false_062 .edge-thickness-thick{stroke-width:3.5px;}#upstream_cypress_oldshapes_spec_shapessets_shapesset3_lr_md_html_false_062 .edge-pattern-solid{stroke-dasharray:0;}#upstream_cypress_oldshapes_spec_shapessets_shapesset3_lr_md_html_false_062 .edge-thickness-invisible{stroke-width:0;fill:none;}#upstream_cypress_oldshapes_spec_shapessets_shapesset3_lr_md_html_false_062 .edge-pattern-dashed{stroke-dasharray:3;}#upstream_cypress_oldshapes_spec_shapessets_shapesset3_lr_md_html_false_062 .edge-pattern-dotted{stroke-dasharray:2;}#upstream_cypress_oldshapes_spec_shapessets_shapesset3_lr_md_html_false_062 .marker{fill:#333333;stroke:#333333;}#upstream_cypress_oldshapes_spec_shapessets_shapesset3_lr_md_html_false_062 .marker.cross{stroke:#333333;}#upstream_cypress_oldshapes_spec_shapessets_shapesset3_lr_md_html_false_062 svg{font-family:"trebuchet ms",verdana,arial,sans-serif;font-size:16px;}#upstream_cypress_oldshapes_spec_shapessets_shapesset3_lr_md_html_false_062 p{margin:0;}#upstream_cypress_oldshapes_spec_shapessets_shapesset3_lr_md_html_false_062 .label{font-family:"trebuchet ms",verdana,arial,sans-serif;color:#333;}#upstream_cypress_oldshapes_spec_shapessets_shapesset3_lr_md_html_false_062 .cluster-label text{fill:#333;}#upstream_cypress_oldshapes_spec_shapessets_shapesset3_lr_md_html_false_062 .cluster-label span{color:#333;}#upstream_cypress_oldshapes_spec_shapessets_shapesset3_lr_md_html_false_062 .cluster-label span p{background-color:transparent;}#upstream_cypress_oldshapes_spec_shapessets_shapesset3_lr_md_html_false_062 .label text,#upstream_cypress_oldshapes_spec_shapessets_shapesset3_lr_md_html_false_062 span{fill:#333;color:#333;}#upstream_cypress_oldshapes_spec_shapessets_shapesset3_lr_md_html_false_062 .node rect,#upstream_cypress_oldshapes_spec_shapessets_shapesset3_lr_md_html_false_062 .node circle,#upstream_cypress_oldshapes_spec_shapessets_shapesset3_lr_md_html_false_062 .node ellipse,#upstream_cypress_oldshapes_spec_shapessets_shapesset3_lr_md_html_false_062 .node polygon,#upstream_cypress_oldshapes_spec_shapessets_shapesset3_lr_md_html_false_062 .node path{fill:#ECECFF;stroke:#9370DB;stroke-width:1px;}#upstream_cypress_oldshapes_spec_shapessets_shapesset3_lr_md_html_false_062 .rough-node .label text,#upstream_cypress_oldshapes_spec_shapessets_shapesset3_lr_md_html_false_062 .node .label text,#upstream_cypress_oldshapes_spec_shapessets_shapesset3_lr_md_html_false_062 .image-shape .label,#upstream_cypress_oldshapes_spec_shapessets_shapesset3_lr_md_html_false_062 .icon-shape .label{text-anchor:middle;}#upstream_cypress_oldshapes_spec_shapessets_shapesset3_lr_md_html_false_062 .node .katex path{fill:#000;stroke:#000;stroke-width:1px;}#upstream_cypress_oldshapes_spec_shapessets_shapesset3_lr_md_html_false_062 .rough-node .label,#upstream_cypress_oldshapes_spec_shapessets_shapesset3_lr_md_html_false_062 .node .label,#upstream_cypress_oldshapes_spec_shapessets_shapesset3_lr_md_html_false_062 .image-shape .label,#upstream_cypress_oldshapes_spec_shapessets_shapesset3_lr_md_html_false_062 .icon-shape .label{text-align:center;}#upstream_cypress_oldshapes_spec_shapessets_shapesset3_lr_md_html_false_062 .node.clickable{cursor:pointer;}#upstream_cypress_oldshapes_spec_shapessets_shapesset3_lr_md_html_false_062 .root .anchor path{fill:#333333!important;stroke-width:0;stroke:#333333;}#upstream_cypress_oldshapes_spec_shapessets_shapesset3_lr_md_html_false_062 .arrowheadPath{fill:#333333;}#upstream_cypress_oldshapes_spec_shapessets_shapesset3_lr_md_html_false_062 .edgePath .path{stroke:#333333;stroke-width:2.0px;}#upstream_cypress_oldshapes_spec_shapessets_shapesset3_lr_md_html_false_062 .flowchart-link{stroke:#333333;fill:none;}#upstream_cypress_oldshapes_spec_shapessets_shapesset3_lr_md_html_false_062 .edgeLabel{background-color:rgba(232,232,232, 0.8);text-align:center;}#upstream_cypress_oldshapes_spec_shapessets_shapesset3_lr_md_html_false_062 .edgeLabel p{background-color:rgba(232,232,232, 0.8);}#upstream_cypress_oldshapes_spec_shapessets_shapesset3_lr_md_html_false_062 .edgeLabel rect{opacity:0.5;background-color:rgba(232,232,232, 0.8);fill:rgba(232,232,232, 0.8);}#upstream_cypress_oldshapes_spec_shapessets_shapesset3_lr_md_html_false_062 .labelBkg{background-color:rgba(232, 232, 232, 0.5);}#upstream_cypress_oldshapes_spec_shapessets_shapesset3_lr_md_html_false_062 .cluster rect{fill:#ffffde;stroke:#aaaa33;stroke-width:1px;}#upstream_cypress_oldshapes_spec_shapessets_shapesset3_lr_md_html_false_062 .cluster text{fill:#333;}#upstream_cypress_oldshapes_spec_shapessets_shapesset3_lr_md_html_false_062 .cluster span{color:#333;}#upstream_cypress_oldshapes_spec_shapessets_shapesset3_lr_md_html_false_062 div.mermaidTooltip{position:absolute;text-align:center;max-width:200px;padding:2px;font-family:"trebuchet ms",verdana,arial,sans-serif;font-size:12px;background:hsl(80, 100%, 96.2745098039%);border:1px solid #aaaa33;border-radius:2px;pointer-events:none;z-index:100;}#upstream_cypress_oldshapes_spec_shapessets_shapesset3_lr_md_html_false_062 .flowchartTitleText{text-anchor:middle;font-size:18px;fill:#333;}#upstream_cypress_oldshapes_spec_shapessets_shapesset3_lr_md_html_false_062 rect.text{fill:none;stroke-width:0;}#upstream_cypress_oldshapes_spec_shapessets_shapesset3_lr_md_html_false_062 .icon-shape,#upstream_cypress_oldshapes_spec_shapessets_shapesset3_lr_md_html_false_062 .image-shape{background-color:rgba(232,232,232, 0.8);text-align:center;}#upstream_cypress_oldshapes_spec_shapessets_shapesset3_lr_md_html_false_062 .icon-shape p,#upstream_cypress_oldshapes_spec_shapessets_shapesset3_lr_md_html_false_062 .image-shape p{background-color:rgba(232,232,232, 0.8);padding:2px;}#upstream_cypress_oldshapes_spec_shapessets_shapesset3_lr_md_html_false_062 .icon-shape rect,#upstream_cypress_oldshapes_spec_shapessets_shapesset3_lr_md_html_false_062 .image-shape rect{opacity:0.5;background-color:rgba(232,232,232, 0.8);fill:rgba(232,232,232, 0.8);}#upstream_cypress_oldshapes_spec_shapessets_shapesset3_lr_md_html_false_062 .label-icon{display:inline-block;height:1em;overflow:visible;vertical-align:-0.125em;}#upstream_cypress_oldshapes_spec_shapessets_shapesset3_lr_md_html_false_062 .node .label-icon path{fill:currentColor;stroke:revert;stroke-width:revert;}#upstream_cypress_oldshapes_spec_shapessets_shapesset3_lr_md_html_false_062 :root{--mermaid-font-family:"trebuchet ms",verdana,arial,sans-serif;}</style><g><marker id="upstream_cypress_oldshapes_spec_shapessets_shapesset3_lr_md_html_false_062_flowchart-v2-pointEnd" class="marker flowchart-v2" viewBox="0 0 10 10" refX="5" refY="5" markerUnits="userSpaceOnUse" markerWidth="8" markerHeight="8" orient="auto"><path d="M 0 0 L 10 5 L 0 10 z" class="arrowMarkerPath" style="stroke-width: 1; stroke-dasharray: 1, 0;"/></marker><marker id="upstream_cypress_oldshapes_spec_shapessets_shapesset3_lr_md_html_false_062_flowchart-v2-pointStart" class="marker flowchart-v2" viewBox="0 0 10 10" refX="4.5" refY="5" markerUnits="userSpaceOnUse" markerWidth="8" markerHeight="8" orient="auto"><path d="M 0 5 L 10 10 L 10 0 z" class="arrowMarkerPath" style="stroke-width: 1; stroke-dasharray: 1, 0;"/></marker><marker id="upstream_cypress_oldshapes_spec_shapessets_shapesset3_lr_md_html_false_062_flowchart-v2-circleEnd" class="marker flowchart-v2" viewBox="0 0 10 10" refX="11" refY="5" markerUnits="userSpaceOnUse" markerWidth="11" markerHeight="11" orient="auto"><circle cx="5" cy="5" r="5" class="arrowMarkerPath" style="stroke-width: 1; stroke-dasharray: 1, 0;"/></marker><marker id="upstream_cypress_oldshapes_spec_shapessets_shapesset3_lr_md_html_false_062_flowchart-v2-circleStart" class="marker flowchart-v2" viewBox="0 0 10 10" refX="-1" refY="5" markerUnits="userSpaceOnUse" markerWidth="11" markerHeight="11" orient="auto"><circle cx="5" cy="5" r="5" class="arrowMarkerPath" style="stroke-width: 1; stroke-dasharray: 1, 0;"/></marker><marker id="upstream_cypress_oldshapes_spec_shapessets_shapesset3_lr_md_html_false_062_flowchart-v2-crossEnd" class="marker cross flowchart-v2" viewBox="0 0 11 11" refX="12" refY="5.2" markerUnits="userSpaceOnUse" markerWidth="11" markerHeight="11" orient="auto"><path d="M 1,1 l 9,9 M 10,1 l -9,9" class="arrowMarkerPath" style="stroke-width: 2; stroke-dasharray: 1, 0;"/></marker><marker id="upstream_cypress_oldshapes_spec_shapessets_shapesset3_lr_md_html_false_062_flowchart-v2-crossStart" class="marker cross flowchart-v2" viewBox="0 0 11 11" refX="-1" refY="5.2" markerUnits="userSpaceOnUse" markerWidth="11" markerHeight="11" orient="auto"><path d="M 1,1 l 9,9 M 10,1 l -9,9" class="arrowMarkerPath" style="stroke-width: 2; stroke-dasharray: 1, 0;"/></marker><g class="root"><g class="clusters"/><g class="edgePaths"><path d="M85.141,45L89.307,45C93.474,45,101.807,45,125.677,45C149.547,45,188.953,45,208.656,45L228.359,45" id="L_n0_n00_0" class="edge-thickness-normal edge-pattern-solid edge-thickness-normal edge-pattern-solid flowchart-link" style=";" data-edge="true" data-et="edge" data-id="L_n0_n00_0" data-points="W3sieCI6ODUuMTQwNjI1LCJ5Ijo0NX0seyJ4IjoxMTAuMTQwNjI1LCJ5Ijo0NX0seyJ4IjoyMzIuMzU5Mzc1LCJ5Ijo0NX1d" marker-end="url(#upstream_cypress_oldshapes_spec_shapessets_shapesset3_lr_md_html_false_062_flowchart-v2-pointEnd)"/><path d="M85.141,146L89.307,146C93.474,146,101.807,146,124.594,146.08C147.38,146.161,184.62,146.322,203.24,146.402L221.859,146.483" id="L_n1_n11_0" class="edge-thickness-normal edge-pattern-solid edge-thickness-normal edge-pattern-solid flowchart-link" style=";" data-edge="true" data-et="edge" data-id="L_n1_n11_0" data-points="W3sieCI6ODUuMTQwNjI1LCJ5IjoxNDZ9LHsieCI6MTEwLjE0MDYyNSwieSI6MTQ2fSx7IngiOjIyNS44NTkzNzUsInkiOjE0Ni41fV0=" marker-end="url(#upstream_cypress_oldshapes_spec_shapessets_shapesset3_lr_md_html_false_062_flowchart-v2-pointEnd)"/><path d="M85.141,252.1L89.307,252.1C93.474,252.1,101.807,252.1,109.474,252.1C117.141,252.1,124.141,252.1,127.641,252.1L131.141,252.1" id="L_n2_n22_0" class="edge-thickness-normal edge-pattern-solid edge-thickness-normal edge-pattern-solid flowchart-link" style=";" data-edge="true" data-et="edge" data-id="L_n2_n22_0" data-points="W3sieCI6ODUuMTQwNjI1LCJ5IjoyNTIuMDk5OTk4NDc0MTIxMX0seyJ4IjoxMTAuMTQwNjI1LCJ5IjoyNTIuMDk5OTk4NDc0MTIxMX0seyJ4IjoxMzUuMTQwNjI1LCJ5IjoyNTIuMDk5OTk4NDc0MTIxMX1d" marker-end="url(#upstream_cypress_oldshapes_spec_shapessets_shapesset3_lr_md_html_false_062_flowchart-v2-pointEnd)"/><path d="M85.141,387.6L89.307,387.6C93.474,387.6,101.807,387.6,110.817,387.673C119.826,387.746,129.511,387.893,134.354,387.966L139.196,388.04" id="L_n3_n33_0" class="edge-thickness-normal edge-pattern-solid edge-thickness-normal edge-pattern-solid flowchart-link" style=";" data-edge="true" data-et="edge" data-id="L_n3_n33_0" data-points="W3sieCI6ODUuMTQwNjI1LCJ5IjozODcuNTk5OTk4NDc0MTIxMX0seyJ4IjoxMTAuMTQwNjI1LCJ5IjozODcuNTk5OTk4NDc0MTIxMX0seyJ4IjoxNDMuMTk1NzMyMTE2NzAxMjcsInkiOjM4OC4wOTk5OTg0NzQxMjExNX1d" marker-end="url(#upstream_cypress_oldshapes_spec_shapessets_shapesset3_lr_md_html_false_062_flowchart-v2-pointEnd)"/><path d="M85.141,515.6L89.307,515.6C93.474,515.6,101.807,515.6,112.748,515.676C123.688,515.752,137.236,515.903,144.009,515.979L150.783,516.055" id="L_n4_n44_0" class="edge-thickness-normal edge-pattern-solid edge-thickness-normal edge-pattern-solid flowchart-link" style=";" data-edge="true" data-et="edge" data-id="L_n4_n44_0" data-points="W3sieCI6ODUuMTQwNjI1LCJ5Ijo1MTUuNTk5OTk4NDc0MTIxMX0seyJ4IjoxMTAuMTQwNjI1LCJ5Ijo1MTUuNTk5OTk4NDc0MTIxMX0seyJ4IjoxNTQuNzgyODEwMjExMTgxNjQsInkiOjUxNi4wOTk5OTg0NzQxMjExfV0=" marker-end="url(#upstream_cypress_oldshapes_spec_shapessets_shapesset3_lr_md_html_false_062_flowchart-v2-pointEnd)"/></g><g class="edgeLabels"><g><rect class="background" style="stroke: none"/></g><g><rect class="background" style="stroke: none"/></g><g><rect class="background" style="stroke: none"/></g><g><rect class="background" style="stroke: none"/></g><g><rect class="background" style="stroke: none"/></g><g class="edgeLabel"><g class="label" data-id="L_n0_n00_0" transform="translate(0, 0)"><text y="-10.1"><tspan class="text-outer-tspan" x="0" y="-0.1em" dy="1.1em"/></text></g></g><g class="edgeLabel"><g class="label" data-id="L_n1_n11_0" transform="translate(0, 0)"><text y="-10.1"><tspan class="text-outer-tspan" x="0" y="-0.1em" dy="1.1em"/></text></g></g><g class="edgeLabel"><g class="label" data-id="L_n2_n22_0" transform="translate(0, 0)"><text y="-10.1"><tspan class="text-outer-tspan" x="0" y="-0.1em" dy="1.1em"/></text></g></g><g class="edgeLabel"><g class="label" data-id="L_n3_n33_0" transform="translate(0, 0)"><text y="-10.1"><tspan class="text-outer-tspan" x="0" y="-0.1em" dy="1.1em"/></text></g></g><g class="edgeLabel"><g class="label" data-id="L_n4_n44_0" transform="translate(0, 0)"><text y="-10.1"><tspan class="text-outer-tspan" x="0" y="-0.1em" dy="1.1em"/></text></g></g></g><g class="nodes"><g class="node default" id="flowchart-n0-0" transform="translate(46.5703125, 45)"><rect class="basic label-container" style="" x="-38.5703125" y="-24.5" width="77.140625" height="49"/><g class="label" style="" transform="translate(0, -9.5)"><rect/><g><rect class="background" style="stroke: none"/><text y="-10.1" style=""><tspan class="text-outer-tspan" x="0" y="-0.1em" dy="1.1em"><tspan font-style="normal" class="text-inner-tspan" font-weight="normal">n0</tspan></tspan></text></g></g></g><g class="node default" id="flowchart-n00-1" transform="translate(239.359375, 45)"><g><path d="M-5 -35 L5 -35 L5 35 L-5 35" stroke="none" stroke-width="0" fill="#333333" style=""/><path d="M-5 -35 C-2.9999550441280007 -35, -0.9999100882560015 -35, 5 -35 M-5 -35 C-2.7864810815081 -35, -0.5729621630162001 -35, 5 -35 M5 -35 C5 -19.774838558398187, 5 -4.549677116796371, 5 35 M5 -35 C5 -16.212297164835036, 5 2.5754056703299284, 5 35 M5 35 C2.8432752350345254 35, 0.6865504700690508 35, -5 35 M5 35 C1.2408741703256965 35, -2.518251659348607 35, -5 35 M-5 35 C-5 14.923347762785848, -5 -5.153304474428303, -5 -35 M-5 35 C-5 9.536361240781844, -5 -15.927277518436313, -5 -35" stroke="#333333" stroke-width="1.3" fill="none" stroke-dasharray="0 0" style=""/></g></g><g class="node default" id="flowchart-n1-3" transform="translate(46.5703125, 146)"><rect class="basic label-container" style="" x="-38.5703125" y="-24.5" width="77.140625" height="49"/><g class="label" style="" transform="translate(0, -9.5)"><rect/><g><rect class="background" style="stroke: none"/><text y="-10.1" style=""><tspan class="text-outer-tspan" x="0" y="-0.1em" dy="1.1em"><tspan font-style="normal" class="text-inner-tspan" font-weight="normal">n1</tspan></tspan></text></g></g></g><g class="node default" id="flowchart-n11-4" transform="translate(239.359375, 146)"><g><path d="M0 14 C3.0797827916219833 10.920217208378016, 6.159565583243967 7.840434416756033, 14 0 C9.445017992146312 -4.554982007853687, 4.890035984292625 -9.109964015707375, 0 -14 C-4.69590768981725 -9.30409231018275, -9.3918153796345 -4.608184620365501, -14 0 C-10.594632213003933 3.4053677869960666, -7.189264426007867 6.810735573992133, 0 14" stroke="none" stroke-width="0" fill="#ECECFF" style=""/><path d="M0 14 C2.800062938220799 11.1999370617792, 5.600125876441598 8.399874123558401, 14 0 M0 14 C3.0989264858886605 10.901073514111339, 6.197852971777321 7.802147028222679, 14 0 M14 0 C10.954967711679636 -3.045032288320363, 7.909935423359274 -6.090064576640726, 0 -14 M14 0 C10.242459432967006 -3.757540567032993, 6.484918865934014 -7.515081134065986, 0 -14 M0 -14 C-3.0194146709516647 -10.980585329048335, -6.038829341903329 -7.961170658096671, -14 0 M0 -14 C-5.262776161544025 -8.737223838455975, -10.52555232308805 -3.47444767691195, -14 0 M-14 0 C-9.98466955255717 4.01533044744283, -5.96933910511434 8.03066089488566, 0 14 M-14 0 C-8.907272248156367 5.092727751843632, -3.8145444963127364 10.185455503687264, 0 14" stroke="#9370DB" stroke-width="1.3" fill="none" stroke-dasharray="0 0" style=""/></g></g><g class="node default" id="flowchart-n2-6" transform="translate(46.5703125, 252.0999984741211)"><rect class="basic label-container" style="" x="-38.5703125" y="-24.5" width="77.140625" height="49"/><g class="label" style="" transform="translate(0, -9.5)"><rect/><g><rect class="background" style="stroke: none"/><text y="-10.1" style=""><tspan class="text-outer-tspan" x="0" y="-0.1em" dy="1.1em"><tspan font-style="normal" class="text-inner-tspan" font-weight="normal">n2</tspan></tspan></text></g></g></g><g class="node default" id="flowchart-n22-7" transform="translate(239.359375, 252.0999984741211)"><g class="basic label-container"><path d="M-104.21875 -42.099998474121094 L104.21875 -42.099998474121094 L104.21875 42.099998474121094 L-104.21875 42.099998474121094" stroke="none" stroke-width="0" fill="#fff5ad" style=""/><path d="M-104.21875 -42.099998474121094 C-62.530312951043015 -42.099998474121094, -20.84187590208603 -42.099998474121094, 104.21875 -42.099998474121094 M-104.21875 -42.099998474121094 C-58.08071504268445 -42.099998474121094, -11.942680085368906 -42.099998474121094, 104.21875 -42.099998474121094 M104.21875 -42.099998474121094 C104.21875 -23.78630494670156, 104.21875 -5.472611419282025, 104.21875 42.099998474121094 M104.21875 -42.099998474121094 C104.21875 -19.501076740044365, 104.21875 3.0978449940323642, 104.21875 42.099998474121094 M104.21875 42.099998474121094 C59.26451818025089 42.099998474121094, 14.310286360501777 42.099998474121094, -104.21875 42.099998474121094 M104.21875 42.099998474121094 C25.864470987726236 42.099998474121094, -52.48980802454753 42.099998474121094, -104.21875 42.099998474121094 M-104.21875 42.099998474121094 C-104.21875 17.950654801201793, -104.21875 -6.198688871717508, -104.21875 -42.099998474121094 M-104.21875 42.099998474121094 C-104.21875 11.470879819588088, -104.21875 -19.158238834944918, -104.21875 -42.099998474121094" stroke="#aaaa33" stroke-width="1.3" fill="none" stroke-dasharray="0 0" style=""/></g><g class="label" style="" transform="translate(0, -28.099998474121094)"><rect/><g><rect class="background" style="stroke: none"/><text y="-10.1" style=""><tspan class="text-outer-tspan" x="0" y="-0.1em" dy="1.1em"><tspan font-style="normal" class="text-inner-tspan" font-weight="normal">This</tspan><tspan font-style="normal" class="text-inner-tspan" font-weight="normal"> is</tspan><tspan font-style="normal" class="text-inner-tspan" font-weight="bold"> bold</tspan></tspan><tspan class="text-outer-tspan" x="0" y="1em" dy="1.1em"><tspan font-style="normal" class="text-inner-tspan" font-weight="normal">and</tspan><tspan font-style="normal" class="text-inner-tspan" font-weight="normal"> &lt;strong&gt;</tspan><tspan font-style="normal" class="text-inner-tspan" font-weight="normal"> strong</tspan></tspan><tspan class="text-outer-tspan" x="0" y="2.1em" dy="1.1em"><tspan font-style="normal" class="text-inner-tspan" font-weight="normal">&lt;/strong&gt;</tspan><tspan font-style="normal" class="text-inner-tspan" font-weight="normal"> for</tspan><tspan font-style="normal" class="text-inner-tspan" font-weight="normal"> note</tspan><tspan font-style="normal" class="text-inner-tspan" font-weight="normal"> shape</tspan></tspan></text></g></g></g><g class="node default" id="flowchart-n3-9" transform="translate(46.5703125, 387.5999984741211)"><rect class="basic label-container" style="" x="-38.5703125" y="-24.5" width="77.140625" height="49"/><g class="label" style="" transform="translate(0, -9.5)"><rect/><g><rect class="background" style="stroke: none"/><text y="-10.1" style=""><tspan class="text-outer-tspan" x="0" y="-0.1em" dy="1.1em"><tspan font-style="normal" class="text-inner-tspan" font-weight="normal">n3</tspan></tspan></text></g></g></g><g class="node default" id="flowchart-n33-10" transform="translate(239.359375, 387.5999984741211)"><g class="basic label-container outer-path"><path d="M-53.28593635559082 -43.400001525878906 C-25.27524710216793 -43.400001525878906, 2.735442151254958 -43.400001525878906, 53.28593635559082 -43.400001525878906 C53.28593635559082 -43.400001525878906, 53.28593635559082 -43.400001525878906, 53.28593635559082 -43.400001525878906 C54.147235262333446 -43.37238134635629, 55.00853416907608 -43.34476116683367, 56.06658400051715 -43.31083156810842 C57.14685410988297 -43.20661920987279, 58.2271242192488 -43.102406851637156, 58.83580536782344 -43.043688113280346 C59.84692457321076 -42.88021820149987, 60.85804377859807 -42.716748289719405, 61.58222113291529 -42.599668911152655 C62.34758020922438 -42.42498069641983, 63.112939285533464 -42.25029248168701, 64.29454568430961 -41.98059853186871 C65.28218271085223 -41.6874730466034, 66.26981973739484 -41.394347561338094, 66.96163349863293 -41.18902086840716 C67.8228941657133 -40.872068981515255, 68.68415483279367 -40.555117094623355, 69.57252493996766 -40.22818868318007 C70.5540461661282 -39.793698352151495, 71.53556739228873 -39.35920802112292, 72.11649129534689 -39.10205024173438 C72.82736418423983 -38.731188310934755, 73.53823707313276 -38.36032638013513, 74.58307886133727 -37.81523308848194 C75.43033418495642 -37.30162193227907, 76.27758950857557 -36.78801077607619, 76.96215190054883 -36.37302503112685 C77.44296828981491 -36.03762833218085, 77.92378467908101 -35.70223163323486, 79.24393429155384 -34.78135241192946 C79.9590873916997 -34.211036845586385, 80.67424049184555 -33.640721279243316, 81.41904970106687 -33.046755755094765 C81.96511613606431 -32.55083266695622, 82.51118257106175 -32.05490957881768, 83.47856011330946 -31.1763628903555 C84.23705808936643 -30.393151456234712, 84.99555606542339 -29.60994002211393, 85.41400255823409 -29.177859663190905 C85.8630076475143 -28.650432736209027, 86.31201273679449 -28.12300580922715, 87.21742388768348 -27.059458352038973 C87.73069323296224 -26.371724189164723, 88.24396257824101 -25.683990026290473, 88.88141345658224 -24.829863922282918 C89.19272988132388 -24.351598293714567, 89.50404630606555 -23.87333266514621, 90.39913357486714 -22.498238255681077 C90.74144397874458 -21.8904314709096, 91.08375438262202 -21.282624686138124, 91.76434760502221 -20.074162502229672 C92.17178050913635 -19.228119359169046, 92.5792134132505 -18.382076216108416, 92.97144558976001 -17.567597709162268 C93.21644359519976 -16.96244789901187, 93.46144160063952 -16.357298088861473, 94.01546730453958 -14.988843888870024 C94.21430114540952 -14.389988040040127, 94.41313498627945 -13.791132191210227, 94.89212264019295 -12.348497693941463 C95.07150925769359 -11.664418774759717, 95.25089587519422 -10.980339855577972, 95.59780923190391 -9.657408873244048 C95.78173761159974 -8.712975516782796, 95.96566599129555 -7.768542160321543, 96.12962726209781 -6.926635687978788 C96.24194069485293 -6.055554882325996, 96.35425412760804 -5.184474076673204, 96.48539137641401 -4.167399470912906 C96.53448960692118 -3.4026548993852943, 96.58358783742837 -2.637910327857683, 96.6636396637956 -1.3910385155166602 C96.6636396637956 -0.3553098231730525, 96.6636396637956 0.6804188691705553, 96.6636396637956 1.3910385155166498 C96.62443453050471 2.001690112336303, 96.58522939721382 2.612341709155956, 96.48539137641401 4.167399470912876 C96.3579362584991 5.155916196601215, 96.23048114058416 6.144432922289552, 96.12962726209781 6.926635687978758 C96.01111709270498 7.535160360677844, 95.89260692331213 8.143685033376931, 95.59780923190391 9.657408873244039 C95.36957330147419 10.527771394050525, 95.14133737104447 11.398133914857011, 94.89212264019295 12.348497693941434 C94.64454709496715 13.094155790355245, 94.39697154974135 13.839813886769056, 94.01546730453958 14.988843888869994 C93.73618943025679 15.678665637818899, 93.45691155597397 16.368487386767804, 92.97144558976001 17.567597709162253 C92.52802137167828 18.488377585767328, 92.08459715359655 19.4091574623724, 91.76434760502221 20.07416250222966 C91.38961675955929 20.739535063961867, 91.01488591409635 21.404907625694076, 90.39913357486715 22.498238255681066 C89.8946719303002 23.27322680865463, 89.39021028573325 24.0482153616282, 88.88141345658227 24.829863922282893 C88.3039774153111 25.603575612080697, 87.72654137403993 26.377287301878496, 87.21742388768348 27.059458352038966 C86.61526478116036 27.76678870238483, 86.01310567463725 28.474119052730696, 85.4140025582341 29.17785966319088 C84.75444805900251 29.85890383407895, 84.09489355977092 30.53994800496702, 83.47856011330947 31.176362890355488 C82.76685356956986 31.82271594265655, 82.05514702583024 32.46906899495761, 81.4190497010669 33.046755755094736 C80.55153778914357 33.73857341939209, 79.68402587722024 34.43039108368944, 79.24393429155384 34.781352411929454 C78.3905898296261 35.37660856788387, 77.53724536769835 35.97186472383829, 76.96215190054885 36.373025031126836 C76.28162937552074 36.785561784993135, 75.60110685049264 37.19809853885943, 74.58307886133728 37.81523308848193 C73.65996257933354 38.29682226151908, 72.73684629732979 38.77841143455624, 72.11649129534689 39.102050241734375 C71.54813504593135 39.35364469366152, 70.97977879651582 39.60523914558867, 69.57252493996768 40.228188683180065 C68.8789439440405 40.48343290107371, 68.18536294811334 40.73867711896735, 66.96163349863296 41.189020868407155 C66.3682810230738 41.36512476858241, 65.77492854751463 41.541228668757675, 64.29454568430965 41.980598531868694 C63.62393162813551 42.133661814024755, 62.95331757196137 42.28672509618081, 61.58222113291531 42.59966891115265 C60.704312803422496 42.74160232158427, 59.82640447392969 42.883535732015886, 58.83580536782347 43.04368811328034 C58.24453451012742 43.100727301815034, 57.65326365243138 43.15776649034972, 56.06658400051715 43.31083156810842 C55.20269896067638 43.33853467988589, 54.338813920835605 43.366237791663366, 53.28593635559083 43.400001525878906 C53.28593635559083 43.400001525878906, 53.28593635559082 43.400001525878906, 53.28593635559082 43.400001525878906 C12.266260345937837 43.400001525878906, -28.753415663715145 43.400001525878906, -53.28593635559081 43.400001525878906 C-54.25570543181836 43.368902919145285, -55.22547450804591 43.33780431241166, -56.06658400051714 43.31083156810842 C-56.78580518102865 43.241449165814494, -57.50502636154015 43.172066763520576, -58.835805367823454 43.04368811328034 C-59.726610787466406 42.899669601331674, -60.61741620710936 42.75565108938301, -61.58222113291529 42.59966891115265 C-62.16517103161719 42.46661440087754, -62.74812093031908 42.33355989060244, -64.29454568430961 41.98059853186871 C-64.90560861078228 41.79923826282637, -65.51667153725495 41.61787799378404, -66.96163349863292 41.18902086840718 C-67.55454912163219 40.970822438291506, -68.14746474463148 40.75262400817583, -69.57252493996766 40.22818868318007 C-70.51108791589517 39.81271469521844, -71.44965089182267 39.397240707256806, -72.11649129534688 39.10205024173439 C-72.61953762291562 38.83961129485832, -73.12258395048437 38.57717234798226, -74.58307886133727 37.81523308848194 C-75.38930996575165 37.32649105504607, -76.19554107016603 36.8377490216102, -76.9621519005488 36.373025031126865 C-77.68942634251775 35.8657098636125, -78.41670078448671 35.35839469609813, -79.24393429155383 34.78135241192946 C-79.9808630319771 34.19367135193928, -80.71779177240036 33.605990291949105, -81.41904970106687 33.04675575509477 C-81.92281972605828 32.58924514742203, -82.42658975104969 32.131734539749274, -83.47856011330944 31.176362890355517 C-84.23132572898105 30.399070588968154, -84.98409134465265 29.621778287580796, -85.4140025582341 29.177859663190894 C-85.93519635302357 28.56563577506412, -86.45639014781304 27.953411886937342, -87.21742388768348 27.05945835203898 C-87.6260770977388 26.511900279638162, -88.03473030779412 25.964342207237344, -88.88141345658224 24.82986392228292 C-89.22745747244439 24.29824738808957, -89.57350148830652 23.76663085389622, -90.39913357486714 22.498238255681095 C-90.69497161800146 21.972947853245827, -90.99080966113578 21.447657450810556, -91.76434760502221 20.074162502229676 C-92.05491613716099 19.470790728072895, -92.34548466929975 18.86741895391611, -92.97144558976001 17.56759770916227 C-93.26116639237156 16.85198172534106, -93.55088719498313 16.13636574151985, -94.01546730453958 14.988843888870027 C-94.31673701674882 14.081467516505809, -94.61800672895806 13.174091144141588, -94.89212264019295 12.34849769394145 C-95.09405747018597 11.578432668069116, -95.295992300179 10.808367642196782, -95.5978092319039 9.657408873244055 C-95.77071253914467 8.769586933689629, -95.94361584638544 7.881764994135203, -96.12962726209781 6.926635687978792 C-96.23611630731777 6.1007276818933205, -96.34260535253772 5.274819675807848, -96.48539137641401 4.1673994709129305 C-96.55304325131874 3.1136669116612357, -96.62069512622347 2.0599343524095404, -96.6636396637956 1.3910385155166658 C-96.6636396637956 0.3119862383736598, -96.6636396637956 -0.7670660387693462, -96.6636396637956 -1.3910385155166447 C-96.62052356862245 -2.0626065005241943, -96.5774074734493 -2.734174485531743, -96.48539137641401 -4.167399470912871 C-96.3600271196846 -5.139699890133571, -96.2346628629552 -6.11200030935427, -96.12962726209781 -6.926635687978772 C-96.0115415931633 -7.532980640542555, -95.89345592422877 -8.139325593106339, -95.59780923190391 -9.657408873244034 C-95.35863376787988 -10.569488576869468, -95.11945830385585 -11.481568280494901, -94.89212264019295 -12.348497693941429 C-94.59480672745704 -13.243965852244392, -94.29749081472113 -14.139434010547356, -94.01546730453961 -14.988843888869972 C-93.64529236933318 -15.903183135675363, -93.27511743412673 -16.817522382480753, -92.97144558976001 -17.56759770916225 C-92.5417072042281 -18.459958661647708, -92.1119688186962 -19.352319614133165, -91.76434760502221 -20.074162502229655 C-91.37794752148675 -20.760254977798148, -90.99154743795127 -21.44634745336664, -90.39913357486714 -22.49823825568108 C-89.92339582977466 -23.229099185614842, -89.44765808468219 -23.959960115548604, -88.88141345658224 -24.829863922282907 C-88.54804812524503 -25.27654309606831, -88.21468279390783 -25.72322226985371, -87.21742388768348 -27.059458352038966 C-86.55968405332409 -27.832076987934325, -85.9019442189647 -28.604695623829684, -85.4140025582341 -29.17785966319088 C-84.6583712048888 -29.958111074007785, -83.90273985154349 -30.73836248482469, -83.47856011330948 -31.176362890355474 C-82.84051248091873 -31.755820868277493, -82.202464848528 -32.33527884619951, -81.41904970106691 -33.04675575509473 C-80.85194311708861 -33.49900816447743, -80.2848365331103 -33.95126057386013, -79.24393429155384 -34.78135241192945 C-78.71939786182656 -35.14724631849112, -78.1948614320993 -35.513140225052794, -76.96215190054886 -36.37302503112683 C-76.11072089052323 -36.88916751296837, -75.25928988049759 -37.40530999480991, -74.58307886133728 -37.815233088481925 C-74.03640771512377 -38.10043107530194, -73.48973656891025 -38.38562906212195, -72.1164912953469 -39.102050241734375 C-71.39578357850445 -39.421086168945706, -70.67507586166198 -39.740122096157044, -69.57252493996768 -40.228188683180065 C-68.96771735521948 -40.45076346514743, -68.36290977047128 -40.6733382471148, -66.96163349863298 -41.189020868407155 C-66.13805351312772 -41.43345508504556, -65.31447352762245 -41.677889301683955, -64.29454568430967 -41.980598531868694 C-63.234567081565324 -42.22253173093828, -62.174588478820986 -42.46446493000786, -61.582221132915315 -42.59966891115264 C-60.77967876791734 -42.729417736916524, -59.97713640291936 -42.8591665626804, -58.835805367823475 -43.04368811328034 C-58.14734912754953 -43.1101026587898, -57.45889288727559 -43.17651720429926, -56.06658400051716 -43.31083156810842 C-55.251644867863426 -43.33696507990983, -54.43670573520969 -43.36309859171124, -53.285936355590835 -43.400001525878906 C-53.28593635559083 -43.400001525878906, -53.28593635559083 -43.400001525878906, -53.28593635559082 -43.400001525878906" stroke="none" stroke-width="0" fill="#ECECFF" style=""/><path d="M-53.28593635559082 -43.400001525878906 C-31.97108271020766 -43.400001525878906, -10.656229064824501 -43.400001525878906, 53.28593635559082 -43.400001525878906 M-53.28593635559082 -43.400001525878906 C-29.696050713059698 -43.400001525878906, -6.106165070528576 -43.400001525878906, 53.28593635559082 -43.400001525878906 M53.28593635559082 -43.400001525878906 C53.28593635559082 -43.400001525878906, 53.28593635559082 -43.400001525878906, 53.28593635559082 -43.400001525878906 M53.28593635559082 -43.400001525878906 C53.28593635559082 -43.400001525878906, 53.28593635559082 -43.400001525878906, 53.28593635559082 -43.400001525878906 M53.28593635559082 -43.400001525878906 C53.88564551943637 -43.38077002025745, 54.485354683281926 -43.361538514636, 56.06658400051715 -43.31083156810842 M53.28593635559082 -43.400001525878906 C54.33121679411738 -43.36648141673031, 55.37649723264394 -43.332961307581705, 56.06658400051715 -43.31083156810842 M56.06658400051715 -43.31083156810842 C56.860822491363884 -43.23421233610797, 57.65506098221061 -43.15759310410753, 58.83580536782344 -43.043688113280346 M56.06658400051715 -43.31083156810842 C57.07393332253709 -43.21365379052797, 58.08128264455702 -43.116476012947516, 58.83580536782344 -43.043688113280346 M58.83580536782344 -43.043688113280346 C59.43997422582124 -42.94601077771873, 60.044143083819044 -42.84833344215712, 61.58222113291529 -42.599668911152655 M58.83580536782344 -43.043688113280346 C59.729367824686236 -42.89922386493512, 60.622930281549024 -42.754759616589894, 61.58222113291529 -42.599668911152655 M61.58222113291529 -42.599668911152655 C62.49199439849906 -42.39201910010854, 63.40176766408282 -42.18436928906443, 64.29454568430961 -41.98059853186871 M61.58222113291529 -42.599668911152655 C62.241968465429345 -42.44908588776001, 62.9017157979434 -42.29850286436737, 64.29454568430961 -41.98059853186871 M64.29454568430961 -41.98059853186871 C64.87829956523939 -41.807343444195396, 65.46205344616916 -41.63408835652209, 66.96163349863293 -41.18902086840716 M64.29454568430961 -41.98059853186871 C65.10737996558132 -41.73935358384148, 65.920214246853 -41.49810863581424, 66.96163349863293 -41.18902086840716 M66.96163349863293 -41.18902086840716 C67.89108906126093 -40.84697262956703, 68.82054462388892 -40.50492439072689, 69.57252493996766 -40.22818868318007 M66.96163349863293 -41.18902086840716 C67.79106900397167 -40.88378093522474, 68.62050450931042 -40.57854100204233, 69.57252493996766 -40.22818868318007 M69.57252493996766 -40.22818868318007 C70.2510225286317 -39.92783792759436, 70.92952011729574 -39.62748717200865, 72.11649129534689 -39.10205024173438 M69.57252493996766 -40.22818868318007 C70.14691359305863 -39.97392386509071, 70.72130224614959 -39.71965904700136, 72.11649129534689 -39.10205024173438 M72.11649129534689 -39.10205024173438 C72.95416222510289 -38.66503785423451, 73.79183315485889 -38.22802546673464, 74.58307886133727 -37.81523308848194 M72.11649129534689 -39.10205024173438 C72.91694826509902 -38.68445235333185, 73.71740523485116 -38.26685446492932, 74.58307886133727 -37.81523308848194 M74.58307886133727 -37.81523308848194 C75.45452938800912 -37.286954658001726, 76.32597991468097 -36.75867622752151, 76.96215190054883 -36.37302503112685 M74.58307886133727 -37.81523308848194 C75.47909429883607 -37.272063264698986, 76.37510973633488 -36.72889344091603, 76.96215190054883 -36.37302503112685 M76.96215190054883 -36.37302503112685 C77.81963436677201 -35.77488238250726, 78.67711683299518 -35.17673973388767, 79.24393429155384 -34.78135241192946 M76.96215190054883 -36.37302503112685 C77.48180764441167 -36.01053567974272, 78.00146338827452 -35.64804632835859, 79.24393429155384 -34.78135241192946 M79.24393429155384 -34.78135241192946 C80.04630748265966 -34.141481144069914, 80.84868067376547 -33.50160987621037, 81.41904970106687 -33.046755755094765 M79.24393429155384 -34.78135241192946 C79.94443553622153 -34.22272131042797, 80.64493678088922 -33.66409020892648, 81.41904970106687 -33.046755755094765 M81.41904970106687 -33.046755755094765 C82.14506614974232 -32.387406825750304, 82.87108259841779 -31.728057896405844, 83.47856011330946 -31.1763628903555 M81.41904970106687 -33.046755755094765 C82.07376418019557 -32.45216138794593, 82.72847865932428 -31.857567020797095, 83.47856011330946 -31.1763628903555 M83.47856011330946 -31.1763628903555 C84.00917916648369 -30.628455153318647, 84.53979821965792 -30.080547416281792, 85.41400255823409 -29.177859663190905 M83.47856011330946 -31.1763628903555 C83.87223638212073 -30.769859821385097, 84.265912650932 -30.363356752414695, 85.41400255823409 -29.177859663190905 M85.41400255823409 -29.177859663190905 C85.87600368781048 -28.635166847781473, 86.33800481738689 -28.09247403237204, 87.21742388768348 -27.059458352038973 M85.41400255823409 -29.177859663190905 C85.97685963582035 -28.51669571238307, 86.5397167134066 -27.855531761575232, 87.21742388768348 -27.059458352038973 M87.21742388768348 -27.059458352038973 C87.76692762457779 -26.323173405420885, 88.31643136147208 -25.586888458802797, 88.88141345658224 -24.829863922282918 M87.21742388768348 -27.059458352038973 C87.61440720324285 -26.52753687511347, 88.01139051880222 -25.995615398187965, 88.88141345658224 -24.829863922282918 M88.88141345658224 -24.829863922282918 C89.29365375126697 -24.196552127628305, 89.7058940459517 -23.563240332973688, 90.39913357486714 -22.498238255681077 M88.88141345658224 -24.829863922282918 C89.26697355555262 -24.23754007288122, 89.65253365452301 -23.645216223479526, 90.39913357486714 -22.498238255681077 M90.39913357486714 -22.498238255681077 C90.85465930482228 -21.689406195163727, 91.31018503477743 -20.880574134646373, 91.76434760502221 -20.074162502229672 M90.39913357486714 -22.498238255681077 C90.70223672612028 -21.9600479181089, 91.0053398773734 -21.42185758053672, 91.76434760502221 -20.074162502229672 M91.76434760502221 -20.074162502229672 C92.10488033876756 -19.367038994374166, 92.44541307251292 -18.659915486518663, 92.97144558976001 -17.567597709162268 M91.76434760502221 -20.074162502229672 C92.02259285715589 -19.53791071061087, 92.28083810928956 -19.001658918992064, 92.97144558976001 -17.567597709162268 M92.97144558976001 -17.567597709162268 C93.31540336094493 -16.718015364364415, 93.65936113212985 -15.868433019566561, 94.01546730453958 -14.988843888870024 M92.97144558976001 -17.567597709162268 C93.20610095789199 -16.987994413123378, 93.44075632602396 -16.408391117084488, 94.01546730453958 -14.988843888870024 M94.01546730453958 -14.988843888870024 C94.33927369752175 -14.01359062475023, 94.6630800905039 -13.038337360630436, 94.89212264019295 -12.348497693941463 M94.01546730453958 -14.988843888870024 C94.35614144191089 -13.962787666160184, 94.69681557928222 -12.936731443450343, 94.89212264019295 -12.348497693941463 M94.89212264019295 -12.348497693941463 C95.1116127963867 -11.511486600739273, 95.33110295258044 -10.674475507537084, 95.59780923190391 -9.657408873244048 M94.89212264019295 -12.348497693941463 C95.09986469299874 -11.556287210617795, 95.30760674580452 -10.764076727294126, 95.59780923190391 -9.657408873244048 M95.59780923190391 -9.657408873244048 C95.76455583014796 -8.801200333166873, 95.931302428392 -7.944991793089699, 96.12962726209781 -6.926635687978788 M95.59780923190391 -9.657408873244048 C95.70492087478397 -9.107413225108703, 95.81203251766402 -8.557417576973359, 96.12962726209781 -6.926635687978788 M96.12962726209781 -6.926635687978788 C96.24356583438836 -6.042950621009299, 96.3575044066789 -5.159265554039811, 96.48539137641401 -4.167399470912906 M96.12962726209781 -6.926635687978788 C96.25593416814452 -5.947024266800286, 96.38224107419123 -4.967412845621784, 96.48539137641401 -4.167399470912906 M96.48539137641401 -4.167399470912906 C96.5376577928809 -3.3533078457490753, 96.5899242093478 -2.5392162205852453, 96.6636396637956 -1.3910385155166602 M96.48539137641401 -4.167399470912906 C96.52144481680507 -3.6058380350088868, 96.55749825719613 -3.0442765991048684, 96.6636396637956 -1.3910385155166602 M96.6636396637956 -1.3910385155166602 C96.6636396637956 -0.42436850333955356, 96.6636396637956 0.5423015088375531, 96.6636396637956 1.3910385155166498 M96.6636396637956 -1.3910385155166602 C96.6636396637956 -0.5357998454513606, 96.6636396637956 0.319438824613939, 96.6636396637956 1.3910385155166498 M96.6636396637956 1.3910385155166498 C96.59493607591342 2.461152353319597, 96.52623248803124 3.5312661911225445, 96.48539137641401 4.167399470912876 M96.6636396637956 1.3910385155166498 C96.59810273939291 2.411829013541799, 96.53256581499022 3.4326195115669473, 96.48539137641401 4.167399470912876 M96.48539137641401 4.167399470912876 C96.40307719937208 4.805811973277373, 96.32076302233014 5.444224475641868, 96.12962726209781 6.926635687978758 M96.48539137641401 4.167399470912876 C96.36841826291571 5.07461984025183, 96.25144514941739 5.981840209590784, 96.12962726209781 6.926635687978758 M96.12962726209781 6.926635687978758 C95.98834998169586 7.65206466387899, 95.84707270129392 8.377493639779223, 95.59780923190391 9.657408873244039 M96.12962726209781 6.926635687978758 C96.02290265235861 7.474644002735307, 95.9161780426194 8.022652317491856, 95.59780923190391 9.657408873244039 M95.59780923190391 9.657408873244039 C95.34434394046916 10.623981882036944, 95.09087864903441 11.59055489082985, 94.89212264019295 12.348497693941434 M95.59780923190391 9.657408873244039 C95.33457783495778 10.6612242750087, 95.07134643801166 11.665039676773358, 94.89212264019295 12.348497693941434 M94.89212264019295 12.348497693941434 C94.62232304374666 13.161091091709652, 94.35252344730038 13.973684489477872, 94.01546730453958 14.988843888869994 M94.89212264019295 12.348497693941434 C94.68970324312556 12.958152666757272, 94.48728384605818 13.56780763957311, 94.01546730453958 14.988843888869994 M94.01546730453958 14.988843888869994 C93.63284259575858 15.933934317104594, 93.25021788697755 16.879024745339194, 92.97144558976001 17.567597709162253 M94.01546730453958 14.988843888869994 C93.73309350868726 15.686312623951167, 93.45071971283495 16.38378135903234, 92.97144558976001 17.567597709162253 M92.97144558976001 17.567597709162253 C92.62849943219805 18.279732743211927, 92.2855532746361 18.9918677772616, 91.76434760502221 20.07416250222966 M92.97144558976001 17.567597709162253 C92.59179958032503 18.355940770877297, 92.21215357089005 19.144283832592343, 91.76434760502221 20.07416250222966 M91.76434760502221 20.07416250222966 C91.44027633805929 20.64958385249653, 91.11620507109636 21.2250052027634, 90.39913357486715 22.498238255681066 M91.76434760502221 20.07416250222966 C91.4529281883225 20.627119211215437, 91.14150877162278 21.18007592020121, 90.39913357486715 22.498238255681066 M90.39913357486715 22.498238255681066 C89.99622528876681 23.11721357915489, 89.59331700266647 23.736188902628708, 88.88141345658227 24.829863922282893 M90.39913357486715 22.498238255681066 C89.89183077618232 23.2775915843364, 89.38452797749748 24.05694491299173, 88.88141345658227 24.829863922282893 M88.88141345658227 24.829863922282893 C88.5414104403811 25.285436989080466, 88.20140742417993 25.74101005587804, 87.21742388768348 27.059458352038966 M88.88141345658227 24.829863922282893 C88.33318879632839 25.56443502272908, 87.78496413607452 26.299006123175268, 87.21742388768348 27.059458352038966 M87.21742388768348 27.059458352038966 C86.63842031596248 27.739588893619015, 86.05941674424147 28.41971943519906, 85.4140025582341 29.17785966319088 M87.21742388768348 27.059458352038966 C86.67743094640794 27.693764787330014, 86.13743800513241 28.32807122262106, 85.4140025582341 29.17785966319088 M85.4140025582341 29.17785966319088 C84.9334691158744 29.67404989495661, 84.4529356735147 30.17024012672234, 83.47856011330947 31.176362890355488 M85.4140025582341 29.17785966319088 C84.95992571187321 29.646731287460913, 84.50584886551232 30.115602911730946, 83.47856011330947 31.176362890355488 M83.47856011330947 31.176362890355488 C83.02850297998897 31.585092870977945, 82.57844584666849 31.993822851600402, 81.4190497010669 33.046755755094736 M83.47856011330947 31.176362890355488 C82.97213297991429 31.636286613577298, 82.46570584651913 32.0962103367991, 81.4190497010669 33.046755755094736 M81.4190497010669 33.046755755094736 C80.55204767127408 33.73816680196153, 79.68504564148128 34.42957784882833, 79.24393429155384 34.781352411929454 M81.4190497010669 33.046755755094736 C80.80958669633576 33.53278628287614, 80.2001236916046 34.01881681065753, 79.24393429155384 34.781352411929454 M79.24393429155384 34.781352411929454 C78.50472373259139 35.29699369795231, 77.76551317362893 35.81263498397517, 76.96215190054885 36.373025031126836 M79.24393429155384 34.781352411929454 C78.47705077863426 35.316297152689934, 77.71016726571469 35.851241893450414, 76.96215190054885 36.373025031126836 M76.96215190054885 36.373025031126836 C76.40759884155628 36.70919835440364, 75.85304578256373 37.045371677680436, 74.58307886133728 37.81523308848193 M76.96215190054885 36.373025031126836 C76.05945580226441 36.92024471073797, 75.15675970397997 37.46746439034909, 74.58307886133728 37.81523308848193 M74.58307886133728 37.81523308848193 C73.83843666340961 38.203712446174706, 73.09379446548193 38.59219180386748, 72.11649129534689 39.102050241734375 M74.58307886133728 37.81523308848193 C73.69758705292764 38.27719359774466, 72.81209524451802 38.739154107007394, 72.11649129534689 39.102050241734375 M72.11649129534689 39.102050241734375 C71.15483780851123 39.52774571391938, 70.19318432167556 39.95344118610439, 69.57252493996768 40.228188683180065 M72.11649129534689 39.102050241734375 C71.29712185146742 39.464760788808846, 70.47775240758797 39.82747133588332, 69.57252493996768 40.228188683180065 M69.57252493996768 40.228188683180065 C69.01045380023537 40.43503605833021, 68.44838266050307 40.64188343348036, 66.96163349863296 41.189020868407155 M69.57252493996768 40.228188683180065 C68.97159274809809 40.44933728474436, 68.3706605562285 40.67048588630866, 66.96163349863296 41.189020868407155 M66.96163349863296 41.189020868407155 C66.4067869355199 41.35369641589007, 65.85194037240684 41.518371963372985, 64.29454568430965 41.980598531868694 M66.96163349863296 41.189020868407155 C66.22955582251913 41.406297679923604, 65.49747814640529 41.62357449144005, 64.29454568430965 41.980598531868694 M64.29454568430965 41.980598531868694 C63.68284461018007 42.12021531031622, 63.071143536050485 42.259832088763744, 61.58222113291531 42.59966891115265 M64.29454568430965 41.980598531868694 C63.50333152157722 42.16118800135744, 62.7121173588448 42.34177747084618, 61.58222113291531 42.59966891115265 M61.58222113291531 42.59966891115265 C60.63119263095652 42.75342382401316, 59.68016412899773 42.907178736873675, 58.83580536782347 43.04368811328034 M61.58222113291531 42.59966891115265 C60.81450353281092 42.723787538998614, 60.04678593270653 42.84790616684459, 58.83580536782347 43.04368811328034 M58.83580536782347 43.04368811328034 C58.02588610908998 43.12182005009994, 57.215966850356494 43.19995198691954, 56.06658400051715 43.31083156810842 M58.83580536782347 43.04368811328034 C58.2478642508642 43.100406085730754, 57.65992313390492 43.15712405818117, 56.06658400051715 43.31083156810842 M56.06658400051715 43.31083156810842 C55.0535749811115 43.34331679565832, 54.040565961705845 43.375802023208216, 53.28593635559083 43.400001525878906 M56.06658400051715 43.31083156810842 C55.07476251111396 43.342637352810165, 54.08294102171077 43.37444313751191, 53.28593635559083 43.400001525878906 M53.28593635559083 43.400001525878906 C53.28593635559083 43.400001525878906, 53.28593635559082 43.400001525878906, 53.28593635559082 43.400001525878906 M53.28593635559083 43.400001525878906 C53.28593635559083 43.400001525878906, 53.28593635559082 43.400001525878906, 53.28593635559082 43.400001525878906 M53.28593635559082 43.400001525878906 C23.220871547476783 43.400001525878906, -6.844193260637255 43.400001525878906, -53.28593635559081 43.400001525878906 M53.28593635559082 43.400001525878906 C31.76216414100642 43.400001525878906, 10.238391926422018 43.400001525878906, -53.28593635559081 43.400001525878906 M-53.28593635559081 43.400001525878906 C-53.9199244371988 43.37967076208468, -54.55391251880679 43.35933999829045, -56.06658400051714 43.31083156810842 M-53.28593635559081 43.400001525878906 C-54.226354985712454 43.369844130824724, -55.166773615834096 43.33968673577054, -56.06658400051714 43.31083156810842 M-56.06658400051714 43.31083156810842 C-56.80907865439277 43.239204001829506, -57.551573308268395 43.16757643555059, -58.835805367823454 43.04368811328034 M-56.06658400051714 43.31083156810842 C-56.863981995451496 43.2339075425485, -57.66137999038585 43.15698351698858, -58.835805367823454 43.04368811328034 M-58.835805367823454 43.04368811328034 C-59.68293282492118 42.90673111558832, -60.530060282018916 42.76977411789631, -61.58222113291529 42.59966891115265 M-58.835805367823454 43.04368811328034 C-59.42258738504373 42.94882174729867, -60.009369402264 42.85395538131701, -61.58222113291529 42.59966891115265 M-61.58222113291529 42.59966891115265 C-62.502287300807446 42.389669812324115, -63.422353468699605 42.179670713495575, -64.29454568430961 41.98059853186871 M-61.58222113291529 42.59966891115265 C-62.568934818814434 42.37445795125472, -63.55564850471357 42.14924699135679, -64.29454568430961 41.98059853186871 M-64.29454568430961 41.98059853186871 C-65.01285985296961 41.767406657118435, -65.73117402162961 41.55421478236816, -66.96163349863292 41.18902086840718 M-64.29454568430961 41.98059853186871 C-65.0639823222362 41.75223377658743, -65.83341896016277 41.523869021306155, -66.96163349863292 41.18902086840718 M-66.96163349863292 41.18902086840718 C-67.64228479142582 40.93853490078781, -68.32293608421871 40.688048933168446, -69.57252493996766 40.22818868318007 M-66.96163349863292 41.18902086840718 C-67.88899323636036 40.847743912504036, -68.81635297408779 40.50646695660089, -69.57252493996766 40.22818868318007 M-69.57252493996766 40.22818868318007 C-70.495112791027 39.81978640911233, -71.41770064208634 39.4113841350446, -72.11649129534688 39.10205024173439 M-69.57252493996766 40.22818868318007 C-70.49905998644573 39.818039102789854, -71.4255950329238 39.40788952239964, -72.11649129534688 39.10205024173439 M-72.11649129534688 39.10205024173439 C-72.72403464839623 38.785095263598635, -73.33157800144558 38.46814028546287, -74.58307886133727 37.81523308848194 M-72.11649129534688 39.10205024173439 C-72.76870815067375 38.76178912607519, -73.42092500600063 38.421528010416, -74.58307886133727 37.81523308848194 M-74.58307886133727 37.81523308848194 C-75.1514588192386 37.47067781783077, -75.71983877713993 37.1261225471796, -76.9621519005488 36.373025031126865 M-74.58307886133727 37.81523308848194 C-75.46060591185898 37.28327103353432, -76.3381329623807 36.7513089785867, -76.9621519005488 36.373025031126865 M-76.9621519005488 36.373025031126865 C-77.55139150557143 35.961996990434464, -78.14063111059406 35.550968949742064, -79.24393429155383 34.78135241192946 M-76.9621519005488 36.373025031126865 C-77.57895719252004 35.94276836051848, -78.19576248449125 35.5125116899101, -79.24393429155383 34.78135241192946 M-79.24393429155383 34.78135241192946 C-79.78114290373323 34.35294283943795, -80.31835151591261 33.92453326694644, -81.41904970106687 33.04675575509477 M-79.24393429155383 34.78135241192946 C-79.8030225144073 34.335494432166264, -80.36211073726078 33.88963645240306, -81.41904970106687 33.04675575509477 M-81.41904970106687 33.04675575509477 C-82.05152303959899 32.47236020336743, -82.6839963781311 31.89796465164008, -83.47856011330944 31.176362890355517 M-81.41904970106687 33.04675575509477 C-81.88918285921648 32.61979325990502, -82.35931601736608 32.192830764715275, -83.47856011330944 31.176362890355517 M-83.47856011330944 31.176362890355517 C-84.12540380378945 30.50844367308026, -84.77224749426948 29.840524455805003, -85.4140025582341 29.177859663190894 M-83.47856011330944 31.176362890355517 C-84.07843760775447 30.556940126482793, -84.67831510219949 29.937517362610073, -85.4140025582341 29.177859663190894 M-85.4140025582341 29.177859663190894 C-86.0487236769984 28.432280120435536, -86.68344479576272 27.68670057768018, -87.21742388768348 27.05945835203898 M-85.4140025582341 29.177859663190894 C-86.08171835711875 28.39352269171571, -86.74943415600339 27.60918572024053, -87.21742388768348 27.05945835203898 M-87.21742388768348 27.05945835203898 C-87.79378931417556 26.287181188510143, -88.37015474066763 25.514904024981302, -88.88141345658224 24.82986392228292 M-87.21742388768348 27.05945835203898 C-87.60897149627473 26.534820227247653, -88.000519104866 26.010182102456326, -88.88141345658224 24.82986392228292 M-88.88141345658224 24.82986392228292 C-89.18540769945653 24.362847131343973, -89.48940194233083 23.895830340405023, -90.39913357486714 22.498238255681095 M-88.88141345658224 24.82986392228292 C-89.19218721539174 24.352431974312562, -89.50296097420124 23.875000026342207, -90.39913357486714 22.498238255681095 M-90.39913357486714 22.498238255681095 C-90.84650181863182 21.70389063792994, -91.29387006239652 20.909543020178788, -91.76434760502221 20.074162502229676 M-90.39913357486714 22.498238255681095 C-90.76423241114978 21.849968301595187, -91.1293312474324 21.20169834750928, -91.76434760502221 20.074162502229676 M-91.76434760502221 20.074162502229676 C-92.0154961787914 19.552647115079335, -92.26664475256058 19.031131727928994, -92.97144558976001 17.56759770916227 M-91.76434760502221 20.074162502229676 C-92.02616651405509 19.530489935595668, -92.28798542308797 18.986817368961656, -92.97144558976001 17.56759770916227 M-92.97144558976001 17.56759770916227 C-93.20197287636373 16.998190854309193, -93.43250016296746 16.42878399945612, -94.01546730453958 14.988843888870027 M-92.97144558976001 17.56759770916227 C-93.25038442913116 16.878613382999962, -93.5293232685023 16.18962905683765, -94.01546730453958 14.988843888870027 M-94.01546730453958 14.988843888870027 C-94.34825749108019 13.986532869925298, -94.6810476776208 12.984221850980568, -94.89212264019295 12.34849769394145 M-94.01546730453958 14.988843888870027 C-94.33834186038372 14.016397169741857, -94.66121641622786 13.043950450613687, -94.89212264019295 12.34849769394145 M-94.89212264019295 12.34849769394145 C-95.15097743053973 11.361372189973391, -95.4098322208865 10.374246686005332, -95.5978092319039 9.657408873244055 M-94.89212264019295 12.34849769394145 C-95.04876796945686 11.751141162943007, -95.20541329872077 11.153784631944564, -95.5978092319039 9.657408873244055 M-95.5978092319039 9.657408873244055 C-95.740211641487 8.926202596794772, -95.88261405107009 8.194996320345489, -96.12962726209781 6.926635687978792 M-95.5978092319039 9.657408873244055 C-95.80903743830622 8.57279667646539, -96.02026564470853 7.488184479686726, -96.12962726209781 6.926635687978792 M-96.12962726209781 6.926635687978792 C-96.20264228845598 6.360345561992674, -96.27565731481414 5.794055436006556, -96.48539137641401 4.1673994709129305 M-96.12962726209781 6.926635687978792 C-96.2526556914674 5.9724514844996435, -96.37568412083697 5.018267281020496, -96.48539137641401 4.1673994709129305 M-96.48539137641401 4.1673994709129305 C-96.53418868888411 3.407341940709514, -96.5829860013542 2.6472844105060975, -96.6636396637956 1.3910385155166658 M-96.48539137641401 4.1673994709129305 C-96.54212884799938 3.283667553308051, -96.59886631958474 2.399935635703171, -96.6636396637956 1.3910385155166658 M-96.6636396637956 1.3910385155166658 C-96.6636396637956 0.35044171535968816, -96.6636396637956 -0.6901550847972895, -96.6636396637956 -1.3910385155166447 M-96.6636396637956 1.3910385155166658 C-96.6636396637956 0.3359483074063998, -96.6636396637956 -0.7191419007038662, -96.6636396637956 -1.3910385155166447 M-96.6636396637956 -1.3910385155166447 C-96.60173737383695 -2.3552166482518775, -96.53983508387829 -3.3193947809871096, -96.48539137641401 -4.167399470912871 M-96.6636396637956 -1.3910385155166447 C-96.60606382620342 -2.287828660394598, -96.54848798861123 -3.1846188052725504, -96.48539137641401 -4.167399470912871 M-96.48539137641401 -4.167399470912871 C-96.4108165511439 -4.745787089242971, -96.33624172587378 -5.324174707573071, -96.12962726209781 -6.926635687978772 M-96.48539137641401 -4.167399470912871 C-96.38243939248473 -4.965874728099708, -96.27948740855544 -5.764349985286546, -96.12962726209781 -6.926635687978772 M-96.12962726209781 -6.926635687978772 C-95.97728896683492 -7.708860637443604, -95.82495067157204 -8.491085586908437, -95.59780923190391 -9.657408873244034 M-96.12962726209781 -6.926635687978772 C-95.981150610289 -7.689031914465554, -95.83267395848019 -8.451428140952336, -95.59780923190391 -9.657408873244034 M-95.59780923190391 -9.657408873244034 C-95.42363050977275 -10.321627830265834, -95.24945178764159 -10.985846787287633, -94.89212264019295 -12.348497693941429 M-95.59780923190391 -9.657408873244034 C-95.33677365207774 -10.65285067265714, -95.07573807225158 -11.648292472070246, -94.89212264019295 -12.348497693941429 M-94.89212264019295 -12.348497693941429 C-94.68363764843144 -12.976421271554706, -94.47515265666993 -13.604344849167983, -94.01546730453961 -14.988843888869972 M-94.89212264019295 -12.348497693941429 C-94.68935482453541 -12.959202048037833, -94.48658700887789 -13.569906402134237, -94.01546730453961 -14.988843888869972 M-94.01546730453961 -14.988843888869972 C-93.68250684469255 -15.811262662044754, -93.3495463848455 -16.633681435219536, -92.97144558976001 -17.56759770916225 M-94.01546730453961 -14.988843888869972 C-93.65940829524017 -15.868316525772217, -93.30334928594073 -16.74778916267446, -92.97144558976001 -17.56759770916225 M-92.97144558976001 -17.56759770916225 C-92.49296659727975 -18.5611695748579, -92.01448760479948 -19.554741440553553, -91.76434760502221 -20.074162502229655 M-92.97144558976001 -17.56759770916225 C-92.60888151647788 -18.320469764961018, -92.24631744319575 -19.073341820759783, -91.76434760502221 -20.074162502229655 M-91.76434760502221 -20.074162502229655 C-91.4126265367065 -20.698678874644383, -91.0609054683908 -21.32319524705911, -90.39913357486714 -22.49823825568108 M-91.76434760502221 -20.074162502229655 C-91.4235734008737 -20.679241608825304, -91.08279919672522 -21.284320715420957, -90.39913357486714 -22.49823825568108 M-90.39913357486714 -22.49823825568108 C-89.93533590055377 -23.21075603054021, -89.4715382262404 -23.923273805399344, -88.88141345658224 -24.829863922282907 M-90.39913357486714 -22.49823825568108 C-89.81639122862049 -23.393486987746314, -89.23364888237384 -24.288735719811548, -88.88141345658224 -24.829863922282907 M-88.88141345658224 -24.829863922282907 C-88.22729561985498 -25.706322232136596, -87.57317778312773 -26.582780541990285, -87.21742388768348 -27.059458352038966 M-88.88141345658224 -24.829863922282907 C-88.26745566232535 -25.652511433881433, -87.65349786806847 -26.47515894547996, -87.21742388768348 -27.059458352038966 M-87.21742388768348 -27.059458352038966 C-86.5730787586656 -27.816342804859865, -85.92873362964771 -28.573227257680763, -85.4140025582341 -29.17785966319088 M-87.21742388768348 -27.059458352038966 C-86.75531633771902 -27.602276174891706, -86.29320878775457 -28.14509399774445, -85.4140025582341 -29.17785966319088 M-85.4140025582341 -29.17785966319088 C-84.92254706575346 -29.685327808423466, -84.43109157327284 -30.19279595365605, -83.47856011330948 -31.176362890355474 M-85.4140025582341 -29.17785966319088 C-84.83523273172088 -29.775487026952256, -84.25646290520766 -30.373114390713635, -83.47856011330948 -31.176362890355474 M-83.47856011330948 -31.176362890355474 C-82.87759196814392 -31.72214625904906, -82.27662382297834 -32.267929627742646, -81.41904970106691 -33.04675575509473 M-83.47856011330948 -31.176362890355474 C-82.92679846327486 -31.677458222103652, -82.37503681324024 -32.17855355385183, -81.41904970106691 -33.04675575509473 M-81.41904970106691 -33.04675575509473 C-80.83802629517109 -33.51010645961446, -80.25700288927527 -33.973457164134196, -79.24393429155384 -34.78135241192945 M-81.41904970106691 -33.04675575509473 C-80.83979040448207 -33.50869962938388, -80.26053110789722 -33.97064350367303, -79.24393429155384 -34.78135241192945 M-79.24393429155384 -34.78135241192945 C-78.56426729269387 -35.255458688023985, -77.88460029383391 -35.729564964118524, -76.96215190054886 -36.37302503112683 M-79.24393429155384 -34.78135241192945 C-78.68207088390196 -35.173284002432496, -78.12020747625009 -35.565215592935544, -76.96215190054886 -36.37302503112683 M-76.96215190054886 -36.37302503112683 C-76.34796386888426 -36.74534942529141, -75.73377583721968 -37.117673819455995, -74.58307886133728 -37.815233088481925 M-76.96215190054886 -36.37302503112683 C-76.42961399148848 -36.69585264113936, -75.8970760824281 -37.01868025115189, -74.58307886133728 -37.815233088481925 M-74.58307886133728 -37.815233088481925 C-73.81185401498325 -38.21758059683174, -73.04062916862922 -38.61992810518154, -72.1164912953469 -39.102050241734375 M-74.58307886133728 -37.815233088481925 C-73.60862521248575 -38.323604932920425, -72.63417156363421 -38.83197677735892, -72.1164912953469 -39.102050241734375 M-72.1164912953469 -39.102050241734375 C-71.22369993189693 -39.497262494618845, -70.33090856844697 -39.892474747503314, -69.57252493996768 -40.228188683180065 M-72.1164912953469 -39.102050241734375 C-71.2229393783703 -39.49759916910407, -70.32938746139368 -39.893148096473766, -69.57252493996768 -40.228188683180065 M-69.57252493996768 -40.228188683180065 C-68.73226772354593 -40.53741110607584, -67.89201050712418 -40.8466335289716, -66.96163349863298 -41.189020868407155 M-69.57252493996768 -40.228188683180065 C-68.54181676759886 -40.6074988183737, -67.51110859523003 -40.986808953567326, -66.96163349863298 -41.189020868407155 M-66.96163349863298 -41.189020868407155 C-66.24736717221322 -41.401011364828086, -65.53310084579347 -41.61300186124901, -64.29454568430967 -41.980598531868694 M-66.96163349863298 -41.189020868407155 C-66.01563947846782 -41.46978692796824, -65.06964545830266 -41.75055298752931, -64.29454568430967 -41.980598531868694 M-64.29454568430967 -41.980598531868694 C-63.59096541496061 -42.14118613705728, -62.88738514561155 -42.301773742245864, -61.582221132915315 -42.59966891115264 M-64.29454568430967 -41.980598531868694 C-63.474528523747374 -42.16776209765497, -62.65451136318509 -42.35492566344126, -61.582221132915315 -42.59966891115264 M-61.582221132915315 -42.59966891115264 C-60.95184203791608 -42.701583714569225, -60.321462942916845 -42.80349851798581, -58.835805367823475 -43.04368811328034 M-61.582221132915315 -42.59966891115264 C-60.57448904630355 -42.762591219836985, -59.56675695969178 -42.92551352852133, -58.835805367823475 -43.04368811328034 M-58.835805367823475 -43.04368811328034 C-57.98320541735651 -43.12593740510042, -57.130605466889534 -43.208186696920514, -56.06658400051716 -43.31083156810842 M-58.835805367823475 -43.04368811328034 C-58.140026023911766 -43.11080910979042, -57.44424668000005 -43.17793010630049, -56.06658400051716 -43.31083156810842 M-56.06658400051716 -43.31083156810842 C-55.356630339182 -43.33359840018647, -54.646676677846834 -43.356365232264515, -53.285936355590835 -43.400001525878906 M-56.06658400051716 -43.31083156810842 C-55.379071804634016 -43.332878746069085, -54.691559608750865 -43.35492592402975, -53.285936355590835 -43.400001525878906 M-53.285936355590835 -43.400001525878906 C-53.28593635559083 -43.400001525878906, -53.28593635559082 -43.400001525878906, -53.28593635559082 -43.400001525878906 M-53.285936355590835 -43.400001525878906 C-53.28593635559083 -43.400001525878906, -53.28593635559083 -43.400001525878906, -53.28593635559082 -43.400001525878906" stroke="#9370DB" stroke-width="1.3" fill="none" stroke-dasharray="0 0" style=""/></g><g class="label" style="" transform="translate(0, -35.900001525878906)"><rect/><g><rect class="background" style="stroke: none"/><text y="-10.1" style=""><tspan class="text-outer-tspan" x="0" y="-0.1em" dy="1.1em"><tspan font-style="normal" class="text-inner-tspan" font-weight="normal">This</tspan><tspan font-style="normal" class="text-inner-tspan" font-weight="normal"> is</tspan><tspan font-style="normal" class="text-inner-tspan" font-weight="bold"> bold</tspan></tspan><tspan class="text-outer-tspan" x="0" y="1em" dy="1.1em"><tspan font-style="normal" class="text-inner-tspan" font-weight="normal">and</tspan><tspan font-style="normal" class="text-inner-tspan" font-weight="normal"> &lt;strong&gt;</tspan><tspan font-style="normal" class="text-inner-tspan" font-weight="normal"> strong</tspan></tspan><tspan class="text-outer-tspan" x="0" y="2.1em" dy="1.1em"><tspan font-style="normal" class="text-inner-tspan" font-weight="normal">&lt;/strong&gt;</tspan><tspan font-style="normal" class="text-inner-tspan" font-weight="normal"> for</tspan><tspan font-style="normal" class="text-inner-tspan" font-weight="normal"> stadium</tspan></tspan><tspan class="text-outer-tspan" x="0" y="3.2em" dy="1.1em"><tspan font-style="normal" class="text-inner-tspan" font-weight="normal">shape</tspan></tspan></text></g></g></g><g class="node default" id="flowchart-n4-12" transform="translate(46.5703125, 515.5999984741211)"><rect class="basic label-container" style="" x="-38.5703125" y="-24.5" width="77.140625" height="49"/><g class="label" style="" transform="translate(0, -9.5)"><rect/><g><rect class="background" style="stroke: none"/><text y="-10.1" style=""><tspan class="text-outer-tspan" x="0" y="-0.1em" dy="1.1em"><tspan font-style="normal" class="text-inner-tspan" font-weight="normal">n4</tspan></tspan></text></g></g></g><g class="node default" id="flowchart-n44-13" transform="translate(239.359375, 515.5999984741211)"><g class="basic label-container" transform="translate(8.649999618530273,0)"><path d="M-111.02656173706055 -34.599998474121094 C-105.22376177626447 -22.994398552528928, -99.42096181546837 -11.388798630936758, -93.7265625 0 C-97.93462393692447 8.41612287384893, -102.14268537384893 16.83224574769786, -111.02656173706055 34.599998474121094 C-66.21160279045924 34.599998474121094, -21.396643843857916 34.599998474121094, 93.7265625 34.599998474121094 C93.7265625 13.510280512322716, 93.7265625 -7.5794374494756624, 93.7265625 -34.599998474121094 C20.8361591401777 -34.599998474121094, -52.0542442196446 -34.599998474121094, -111.02656173706055 -34.599998474121094" stroke="none" stroke-width="0" fill="#ECECFF" style=""/><path d="M-111.02656173706055 -34.599998474121094 C-107.5664841159933 -27.679843231986617, -104.10640649492608 -20.75968798985214, -93.7265625 0 M-111.02656173706055 -34.599998474121094 C-107.19717417694766 -26.941223353895303, -103.36778661683475 -19.28244823366951, -93.7265625 0 M-93.7265625 0 C-97.48935223319765 7.525579466395287, -101.25214196639529 15.051158932790575, -111.02656173706055 34.599998474121094 M-93.7265625 0 C-98.36980885306392 9.286492706127833, -103.01305520612783 18.572985412255665, -111.02656173706055 34.599998474121094 M-111.02656173706055 34.599998474121094 C-66.86694836244844 34.599998474121094, -22.707334987836333 34.599998474121094, 93.7265625 34.599998474121094 M-111.02656173706055 34.599998474121094 C-34.05728593445595 34.599998474121094, 42.91198986814865 34.599998474121094, 93.7265625 34.599998474121094 M93.7265625 34.599998474121094 C93.7265625 14.75279456631911, 93.7265625 -5.094409341482873, 93.7265625 -34.599998474121094 M93.7265625 34.599998474121094 C93.7265625 9.42737383942055, 93.7265625 -15.745250795279993, 93.7265625 -34.599998474121094 M93.7265625 -34.599998474121094 C48.68405188884735 -34.599998474121094, 3.6415412776946994 -34.599998474121094, -111.02656173706055 -34.599998474121094 M93.7265625 -34.599998474121094 C27.108934146311327 -34.599998474121094, -39.508694207377346 -34.599998474121094, -111.02656173706055 -34.599998474121094" stroke="#9370DB" stroke-width="1.3" fill="none" stroke-dasharray="0 0" style=""/></g><g class="label" style="" transform="translate(8.649999618530273, -28.099998474121094)"><rect/><g><rect class="background" style="stroke: none"/><text y="-10.1" style=""><tspan class="text-outer-tspan" x="0" y="-0.1em" dy="1.1em"><tspan font-style="normal" class="text-inner-tspan" font-weight="normal">This</tspan><tspan font-style="normal" class="text-inner-tspan" font-weight="normal"> is</tspan><tspan font-style="normal" class="text-inner-tspan" font-weight="bold"> bold</tspan></tspan><tspan class="text-outer-tspan" x="0" y="1em" dy="1.1em"><tspan font-style="normal" class="text-inner-tspan" font-weight="normal">and</tspan><tspan font-style="normal" class="text-inner-tspan" font-weight="normal"> &lt;strong&gt;</tspan><tspan font-style="normal" class="text-inner-tspan" font-weight="normal"> strong</tspan></tspan><tspan class="text-outer-tspan" x="0" y="2.1em" dy="1.1em"><tspan font-style="normal" class="text-inner-tspan" font-weight="normal">&lt;/strong&gt;</tspan><tspan font-style="normal" class="text-inner-tspan" font-weight="normal"> for</tspan><tspan font-style="normal" class="text-inner-tspan" font-weight="normal"> odd</tspan><tspan font-style="normal" class="text-inner-tspan" font-weight="normal"> shape</tspan></tspan></text></g></g></g></g></g></g></svg>