<svg id="upstream_cypress_oldshapes_spec_shapessets_shapesset2_tb_md_html_false_014" width="100%" xmlns="http://www.w3.org/2000/svg" xmlns:xlink="http://www.w3.org/1999/xlink" class="flowchart" style="max-width: 712.758px; background-color: white;" viewBox="0 0 712.7578125 216.79998779296875" role="graphics-document document" aria-roledescription="flowchart-v2"><style>#upstream_cypress_oldshapes_spec_shapessets_shapesset2_tb_md_html_false_014{font-family:"trebuchet ms",verdana,arial,sans-serif;font-size:16px;fill:#333;}@keyframes edge-animation-frame{from{stroke-dashoffset:0;}}@keyframes dash{to{stroke-dashoffset:0;}}#upstream_cypress_oldshapes_spec_shapessets_shapesset2_tb_md_html_false_014 .edge-animation-slow{stroke-dasharray:9,5!important;stroke-dashoffset:900;animation:dash 50s linear infinite;stroke-linecap:round;}#upstream_cypress_oldshapes_spec_shapessets_shapesset2_tb_md_html_false_014 .edge-animation-fast{stroke-dasharray:9,5!important;stroke-dashoffset:900;animation:dash 20s linear infinite;stroke-linecap:round;}#upstream_cypress_oldshapes_spec_shapessets_shapesset2_tb_md_html_false_014 .error-icon{fill:#552222;}#upstream_cypress_oldshapes_spec_shapessets_shapesset2_tb_md_html_false_014 .error-text{fill:#552222;stroke:#552222;}#upstream_cypress_oldshapes_spec_shapessets_shapesset2_tb_md_html_false_014 .edge-thickness-normal{stroke-width:1px;}#upstream_cypress_oldshapes_spec_shapessets_shapesset2_tb_md_html_false_014 .edge-thickness-thick{stroke-width:3.5px;}#upstream_cypress_oldshapes_spec_shapessets_shapesset2_tb_md_html_false_014 .edge-pattern-solid{stroke-dasharray:0;}#upstream_cypress_oldshapes_spec_shapessets_shapesset2_tb_md_html_false_014 .edge-thickness-invisible{stroke-width:0;fill:none;}#upstream_cypress_oldshapes_spec_shapessets_shapesset2_tb_md_html_false_014 .edge-pattern-dashed{stroke-dasharray:3;}#upstream_cypress_oldshapes_spec_shapessets_shapesset2_tb_md_html_false_014 .edge-pattern-dotted{stroke-dasharray:2;}#upstream_cypress_oldshapes_spec_shapessets_shapesset2_tb_md_html_false_014 .marker{fill:#333333;stroke:#333333;}#upstream_cypress_oldshapes_spec_shapessets_shapesset2_tb_md_html_false_014 .marker.cross{stroke:#333333;}#upstream_cypress_oldshapes_spec_shapessets_shapesset2_tb_md_html_false_014 svg{font-family:"trebuchet ms",verdana,arial,sans-serif;font-size:16px;}#upstream_cypress_oldshapes_spec_shapessets_shapesset2_tb_md_html_false_014 p{margin:0;}#upstream_cypress_oldshapes_spec_shapessets_shapesset2_tb_md_html_false_014 .label{font-family:"trebuchet ms",verdana,arial,sans-serif;color:#333;}#upstream_cypress_oldshapes_spec_shapessets_shapesset2_tb_md_html_false_014 .cluster-label text{fill:#333;}#upstream_cypress_oldshapes_spec_shapessets_shapesset2_tb_md_html_false_014 .cluster-label span{color:#333;}#upstream_cypress_oldshapes_spec_shapessets_shapesset2_tb_md_html_false_014 .cluster-label span p{background-color:transparent;}#upstream_cypress_oldshapes_spec_shapessets_shapesset2_tb_md_html_false_014 .label text,#upstream_cypress_oldshapes_spec_shapessets_shapesset2_tb_md_html_false_014 span{fill:#333;color:#333;}#upstream_cypress_oldshapes_spec_shapessets_shapesset2_tb_md_html_false_014 .node rect,#upstream_cypress_oldshapes_spec_shapessets_shapesset2_tb_md_html_false_014 .node circle,#upstream_cypress_oldshapes_spec_shapessets_shapesset2_tb_md_html_false_014 .node ellipse,#upstream_cypress_oldshapes_spec_shapessets_shapesset2_tb_md_html_false_014 .node polygon,#upstream_cypress_oldshapes_spec_shapessets_shapesset2_tb_md_html_false_014 .node path{fill:#ECECFF;stroke:#9370DB;stroke-width:1px;}#upstream_cypress_oldshapes_spec_shapessets_shapesset2_tb_md_html_false_014 .rough-node .label text,#upstream_cypress_oldshapes_spec_shapessets_shapesset2_tb_md_html_false_014 .node .label text,#upstream_cypress_oldshapes_spec_shapessets_shapesset2_tb_md_html_false_014 .image-shape .label,#upstream_cypress_oldshapes_spec_shapessets_shapesset2_tb_md_html_false_014 .icon-shape .label{text-anchor:middle;}#upstream_cypress_oldshapes_spec_shapessets_shapesset2_tb_md_html_false_014 .node .katex path{fill:#000;stroke:#000;stroke-width:1px;}#upstream_cypress_oldshapes_spec_shapessets_shapesset2_tb_md_html_false_014 .rough-node .label,#upstream_cypress_oldshapes_spec_shapessets_shapesset2_tb_md_html_false_014 .node .label,#upstream_cypress_oldshapes_spec_shapessets_shapesset2_tb_md_html_false_014 .image-shape .label,#upstream_cypress_oldshapes_spec_shapessets_shapesset2_tb_md_html_false_014 .icon-shape .label{text-align:center;}#upstream_cypress_oldshapes_spec_shapessets_shapesset2_tb_md_html_false_014 .node.clickable{cursor:pointer;}#upstream_cypress_oldshapes_spec_shapessets_shapesset2_tb_md_html_false_014 .root .anchor path{fill:#333333!important;stroke-width:0;stroke:#333333;}#upstream_cypress_oldshapes_spec_shapessets_shapesset2_tb_md_html_false_014 .arrowheadPath{fill:#333333;}#upstream_cypress_oldshapes_spec_shapessets_shapesset2_tb_md_html_false_014 .edgePath .path{stroke:#333333;stroke-width:2.0px;}#upstream_cypress_oldshapes_spec_shapessets_shapesset2_tb_md_html_false_014 .flowchart-link{stroke:#333333;fill:none;}#upstream_cypress_oldshapes_spec_shapessets_shapesset2_tb_md_html_false_014 .edgeLabel{background-color:rgba(232,232,232, 0.8);text-align:center;}#upstream_cypress_oldshapes_spec_shapessets_shapesset2_tb_md_html_false_014 .edgeLabel p{background-color:rgba(232,232,232, 0.8);}#upstream_cypress_oldshapes_spec_shapessets_shapesset2_tb_md_html_false_014 .edgeLabel rect{opacity:0.5;background-color:rgba(232,232,232, 0.8);fill:rgba(232,232,232, 0.8);}#upstream_cypress_oldshapes_spec_shapessets_shapesset2_tb_md_html_false_014 .labelBkg{background-color:rgba(232, 232, 232, 0.5);}#upstream_cypress_oldshapes_spec_shapessets_shapesset2_tb_md_html_false_014 .cluster rect{fill:#ffffde;stroke:#aaaa33;stroke-width:1px;}#upstream_cypress_oldshapes_spec_shapessets_shapesset2_tb_md_html_false_014 .cluster text{fill:#333;}#upstream_cypress_oldshapes_spec_shapessets_shapesset2_tb_md_html_false_014 .cluster span{color:#333;}#upstream_cypress_oldshapes_spec_shapessets_shapesset2_tb_md_html_false_014 div.mermaidTooltip{position:absolute;text-align:center;max-width:200px;padding:2px;font-family:"trebuchet ms",verdana,arial,sans-serif;font-size:12px;background:hsl(80, 100%, 96.2745098039%);border:1px solid #aaaa33;border-radius:2px;pointer-events:none;z-index:100;}#upstream_cypress_oldshapes_spec_shapessets_shapesset2_tb_md_html_false_014 .flowchartTitleText{text-anchor:middle;font-size:18px;fill:#333;}#upstream_cypress_oldshapes_spec_shapessets_shapesset2_tb_md_html_false_014 rect.text{fill:none;stroke-width:0;}#upstream_cypress_oldshapes_spec_shapessets_shapesset2_tb_md_html_false_014 .icon-shape,#upstream_cypress_oldshapes_spec_shapessets_shapesset2_tb_md_html_false_014 .image-shape{background-color:rgba(232,232,232, 0.8);text-align:center;}#upstream_cypress_oldshapes_spec_shapessets_shapesset2_tb_md_html_false_014 .icon-shape p,#upstream_cypress_oldshapes_spec_shapessets_shapesset2_tb_md_html_false_014 .image-shape p{background-color:rgba(232,232,232, 0.8);padding:2px;}#upstream_cypress_oldshapes_spec_shapessets_shapesset2_tb_md_html_false_014 .icon-shape rect,#upstream_cypress_oldshapes_spec_shapessets_shapesset2_tb_md_html_false_014 .image-shape rect{opacity:0.5;background-color:rgba(232,232,232, 0.8);fill:rgba(232,232,232, 0.8);}#upstream_cypress_oldshapes_spec_shapessets_shapesset2_tb_md_html_false_014 .label-icon{display:inline-block;height:1em;overflow:visible;vertical-align:-0.125em;}#upstream_cypress_oldshapes_spec_shapessets_shapesset2_tb_md_html_false_014 .node .label-icon path{fill:currentColor;stroke:revert;stroke-width:revert;}#upstream_cypress_oldshapes_spec_shapessets_shapesset2_tb_md_html_false_014 :root{--mermaid-font-family:"trebuchet ms",verdana,arial,sans-serif;}</style><g><marker id="upstream_cypress_oldshapes_spec_shapessets_shapesset2_tb_md_html_false_014_flowchart-v2-pointEnd" class="marker flowchart-v2" viewBox="0 0 10 10" refX="5" refY="5" markerUnits="userSpaceOnUse" markerWidth="8" markerHeight="8" orient="auto"><path d="M 0 0 L 10 5 L 0 10 z" class="arrowMarkerPath" style="stroke-width: 1; stroke-dasharray: 1, 0;"/></marker><marker id="upstream_cypress_oldshapes_spec_shapessets_shapesset2_tb_md_html_false_014_flowchart-v2-pointStart" class="marker flowchart-v2" viewBox="0 0 10 10" refX="4.5" refY="5" markerUnits="userSpaceOnUse" markerWidth="8" markerHeight="8" orient="auto"><path d="M 0 5 L 10 10 L 10 0 z" class="arrowMarkerPath" style="stroke-width: 1; stroke-dasharray: 1, 0;"/></marker><marker id="upstream_cypress_oldshapes_spec_shapessets_shapesset2_tb_md_html_false_014_flowchart-v2-circleEnd" class="marker flowchart-v2" viewBox="0 0 10 10" refX="11" refY="5" markerUnits="userSpaceOnUse" markerWidth="11" markerHeight="11" orient="auto"><circle cx="5" cy="5" r="5" class="arrowMarkerPath" style="stroke-width: 1; stroke-dasharray: 1, 0;"/></marker><marker id="upstream_cypress_oldshapes_spec_shapessets_shapesset2_tb_md_html_false_014_flowchart-v2-circleStart" class="marker flowchart-v2" viewBox="0 0 10 10" refX="-1" refY="5" markerUnits="userSpaceOnUse" markerWidth="11" markerHeight="11" orient="auto"><circle cx="5" cy="5" r="5" class="arrowMarkerPath" style="stroke-width: 1; stroke-dasharray: 1, 0;"/></marker><marker id="upstream_cypress_oldshapes_spec_shapessets_shapesset2_tb_md_html_false_014_flowchart-v2-crossEnd" class="marker cross flowchart-v2" viewBox="0 0 11 11" refX="12" refY="5.2" markerUnits="userSpaceOnUse" markerWidth="11" markerHeight="11" orient="auto"><path d="M 1,1 l 9,9 M 10,1 l -9,9" class="arrowMarkerPath" style="stroke-width: 2; stroke-dasharray: 1, 0;"/></marker><marker id="upstream_cypress_oldshapes_spec_shapessets_shapesset2_tb_md_html_false_014_flowchart-v2-crossStart" class="marker cross flowchart-v2" viewBox="0 0 11 11" refX="-1" refY="5.2" markerUnits="userSpaceOnUse" markerWidth="11" markerHeight="11" orient="auto"><path d="M 1,1 l 9,9 M 10,1 l -9,9" class="arrowMarkerPath" style="stroke-width: 2; stroke-dasharray: 1, 0;"/></marker><g class="root"><g class="clusters"/><g class="edgePaths"><path d="M102.398,57L102.398,61.167C102.398,65.333,102.398,73.667,102.469,81.417C102.539,89.167,102.679,96.334,102.75,99.917L102.82,103.501" id="L_n0_n00_0" class="edge-thickness-normal edge-pattern-solid edge-thickness-normal edge-pattern-solid flowchart-link" style=";" data-edge="true" data-et="edge" data-id="L_n0_n00_0" data-points="W3sieCI6MTAyLjM5ODQzNzUsInkiOjU3fSx7IngiOjEwMi4zOTg0Mzc1LCJ5Ijo4Mn0seyJ4IjoxMDIuODk4NDM3NSwieSI6MTA3LjV9XQ==" marker-end="url(#upstream_cypress_oldshapes_spec_shapessets_shapesset2_tb_md_html_false_014_flowchart-v2-pointEnd)"/><path d="M364.422,57L364.422,61.167C364.422,65.333,364.422,73.667,364.422,82.8C364.422,91.933,364.422,101.867,364.422,106.833L364.422,111.8" id="L_n1_n11_0" class="edge-thickness-normal edge-pattern-solid edge-thickness-normal edge-pattern-solid flowchart-link" style=";" data-edge="true" data-et="edge" data-id="L_n1_n11_0" data-points="W3sieCI6MzY0LjQyMTg3NSwieSI6NTd9LHsieCI6MzY0LjQyMTg3NSwieSI6ODJ9LHsieCI6MzY0LjQyMTg3NSwieSI6MTE1LjgwMDAwMzA1MTc1NzgxfV0=" marker-end="url(#upstream_cypress_oldshapes_spec_shapessets_shapesset2_tb_md_html_false_014_flowchart-v2-pointEnd)"/><path d="M539.047,57L539.047,61.167C539.047,65.333,539.047,73.667,539.047,88.65C539.047,103.633,539.047,125.267,539.047,136.083L539.047,146.9" id="L_n2_n22_0" class="edge-thickness-normal edge-pattern-solid edge-thickness-normal edge-pattern-solid flowchart-link" style=";" data-edge="true" data-et="edge" data-id="L_n2_n22_0" data-points="W3sieCI6NTM5LjA0Njg3NSwieSI6NTd9LHsieCI6NTM5LjA0Njg3NSwieSI6ODJ9LHsieCI6NTM5LjA0Njg3NSwieSI6MTUwLjkwMDAwMTUyNTg3ODl9XQ==" marker-end="url(#upstream_cypress_oldshapes_spec_shapessets_shapesset2_tb_md_html_false_014_flowchart-v2-pointEnd)"/><path d="M666.188,57L666.188,61.167C666.188,65.333,666.188,73.667,666.188,88.65C666.188,103.633,666.188,125.267,666.188,136.083L666.188,146.9" id="L_n3_n33_0" class="edge-thickness-normal edge-pattern-solid edge-thickness-normal edge-pattern-solid flowchart-link" style=";" data-edge="true" data-et="edge" data-id="L_n3_n33_0" data-points="W3sieCI6NjY2LjE4NzUsInkiOjU3fSx7IngiOjY2Ni4xODc1LCJ5Ijo4Mn0seyJ4Ijo2NjYuMTg3NSwieSI6MTUwLjkwMDAwMTUyNTg3ODl9XQ==" marker-end="url(#upstream_cypress_oldshapes_spec_shapessets_shapesset2_tb_md_html_false_014_flowchart-v2-pointEnd)"/></g><g class="edgeLabels"><g><rect class="background" style="stroke: none"/></g><g><rect class="background" style="stroke: none"/></g><g><rect class="background" style="stroke: none"/></g><g><rect class="background" style="stroke: none"/></g><g class="edgeLabel"><g class="label" data-id="L_n0_n00_0" transform="translate(0, 0)"><text y="-10.1"><tspan class="text-outer-tspan" x="0" y="-0.1em" dy="1.1em"/></text></g></g><g class="edgeLabel"><g class="label" data-id="L_n1_n11_0" transform="translate(0, 0)"><text y="-10.1"><tspan class="text-outer-tspan" x="0" y="-0.1em" dy="1.1em"/></text></g></g><g class="edgeLabel"><g class="label" data-id="L_n2_n22_0" transform="translate(0, 0)"><text y="-10.1"><tspan class="text-outer-tspan" x="0" y="-0.1em" dy="1.1em"/></text></g></g><g class="edgeLabel"><g class="label" data-id="L_n3_n33_0" transform="translate(0, 0)"><text y="-10.1"><tspan class="text-outer-tspan" x="0" y="-0.1em" dy="1.1em"/></text></g></g></g><g class="nodes"><g class="node default" id="flowchart-n0-0" transform="translate(102.3984375, 32.5)"><rect class="basic label-container" style="" x="-38.5703125" y="-24.5" width="77.140625" height="49"/><g class="label" style="" transform="translate(0, -9.5)"><rect/><g><rect class="background" style="stroke: none"/><text y="-10.1" style=""><tspan class="text-outer-tspan" x="0" y="-0.1em" dy="1.1em"><tspan font-style="normal" class="text-inner-tspan" font-weight="normal">n0</tspan></tspan></text></g></g></g><g class="node default" id="flowchart-n00-1" transform="translate(102.3984375, 157.9000015258789)"><g class="basic label-container outer-path"><path d="M-89.3984375 -50.900001525878906 C-25.516030428190426 -50.900001525878906, 38.36637664361915 -50.900001525878906, 89.3984375 -50.900001525878906 C89.3984375 -50.900001525878906, 89.3984375 -50.900001525878906, 89.3984375 -50.900001525878906 C89.50328193235255 -50.89566512808035, 89.60812636470511 -50.891328730281806, 89.81133422736166 -50.88292399091225 C89.93396238696846 -50.86763840675809, 90.05659054657526 -50.85235282260392, 90.22141045140367 -50.83180804289252 C90.33943086042369 -50.807061765418354, 90.45745126944372 -50.78231548794418, 90.625864935704 -50.74700285557556 C90.73197568219396 -50.715412317626836, 90.83808642868392 -50.683821779678105, 91.02193484602341 -50.62908773438208 C91.1247718083269 -50.58896062717233, 91.2276087706304 -50.548833519962564, 91.40691462326485 -50.478868159154196 C91.50578556774003 -50.430533099670214, 91.60465651221521 -50.38219804018624, 91.77817446518537 -50.29737028191135 C91.88391828438688 -50.2343606422868, 91.98966210358839 -50.17135100266226, 92.13317829061214 -50.08583391719155 C92.21599401395262 -50.02670462723541, 92.29880973729313 -49.96757533727927, 92.46950106344833 -49.845704072860876 C92.55091121288645 -49.77675319349037, 92.63232136232456 -49.707802314119874, 92.7848453581287 -49.57862107924456 C92.85025478550638 -49.5132116518669, 92.91566421288404 -49.44780222448923, 93.07705705336566 -49.28640938400761 C93.16056555862029 -49.18781107816728, 93.24407406387492 -49.089212772326945, 93.34414004698196 -48.97106508932725 C93.43900609034995 -48.838196928593405, 93.53387213371794 -48.70532876785956, 93.58426989131264 -48.63474231649104 C93.65850744523237 -48.51015562584455, 93.7327449991521 -48.38556893519805, 93.79580625603245 -48.27973849106427 C93.85955622497154 -48.14933584531267, 93.92330619391063 -48.01893319956107, 93.97730413327528 -47.90847864914375 C94.02564895532906 -47.78458148862521, 94.07399377738282 -47.66068432810666, 94.12752370850318 -47.523498871902326 C94.17407335707755 -47.36714135855166, 94.22062300565193 -47.210783845201, 94.24543882969665 -47.1274289615829 C94.26815030146781 -47.0191129859507, 94.29086177323899 -46.9107970103185, 94.33024401701361 -46.72297447728258 C94.34837442160774 -46.57752382744933, 94.36650482620186 -46.43207317761609, 94.38135996503335 -46.31289825324057 C94.38578989825999 -46.20579234273988, 94.39021983148663 -46.09868643223919, 94.3984375 -45.900001525878906 C94.3984375 -45.900001525878906, 94.3984375 -45.900001525878906, 94.3984375 -45.900001525878906 C94.3984375 -24.829337870276454, 94.3984375 -3.758674214674002, 94.3984375 45.900001525878906 C94.3984375 45.900001525878906, 94.3984375 45.900001525878906, 94.3984375 45.900001525878906 C94.3931795940635 46.0271259708412, 94.387921688127 46.15425041580348, 94.38135996503335 46.31289825324057 C94.36851685281543 46.415931751929506, 94.3556737405975 46.51896525061845, 94.33024401701361 46.72297447728258 C94.30859159609443 46.82623960779862, 94.28693917517523 46.92950473831466, 94.24543882969665 47.1274289615829 C94.21628444041347 47.22535682894999, 94.18713005113028 47.323284696317074, 94.12752370850318 47.523498871902326 C94.06770480422183 47.67680158501492, 94.00788589994049 47.830104298127516, 93.97730413327528 47.90847864914375 C93.91348422575392 48.03902435655201, 93.84966431823256 48.16957006396027, 93.79580625603245 48.27973849106427 C93.74020735148825 48.373045492103415, 93.68460844694405 48.46635249314256, 93.58426989131264 48.63474231649104 C93.51666756994132 48.72942525870149, 93.44906524857001 48.82410820091194, 93.34414004698196 48.97106508932725 C93.26141173337092 49.06874222463467, 93.17868341975988 49.16641935994208, 93.07705705336566 49.28640938400761 C92.96306560302573 49.40040083434755, 92.84907415268577 49.51439228468749, 92.7848453581287 49.57862107924456 C92.66874834298869 49.676950235270496, 92.55265132784868 49.77527939129642, 92.46950106344833 49.845704072860876 C92.37459808193482 49.913463499274904, 92.2796951004213 49.98122292568893, 92.13317829061214 50.08583391719155 C92.0017184561542 50.16416697586907, 91.87025862169625 50.242500034546595, 91.77817446518537 50.29737028191135 C91.6557061411293 50.35724139732928, 91.53323781707321 50.41711251274722, 91.40691462326485 50.478868159154196 C91.25838049575722 50.53682635555849, 91.10984636824959 50.59478455196279, 91.02193484602341 50.62908773438208 C90.9077871201391 50.66307098476521, 90.79363939425478 50.69705423514834, 90.625864935704 50.74700285557556 C90.48182723306219 50.77720438585251, 90.3377895304204 50.80740591612945, 90.22141045140367 50.83180804289252 C90.13499933255859 50.842579177623705, 90.0485882137135 50.85335031235489, 89.81133422736166 50.88292399091225 C89.67557849995458 50.88853888933136, 89.53982277254752 50.89415378775047, 89.3984375 50.900001525878906 C89.3984375 50.900001525878906, 89.3984375 50.900001525878906, 89.3984375 50.900001525878906 C19.328119383104777 50.900001525878906, -50.742198733790445 50.900001525878906, -89.3984375 50.900001525878906 C-89.3984375 50.900001525878906, -89.3984375 50.900001525878906, -89.3984375 50.900001525878906 C-89.52579841432407 50.89473383949725, -89.65315932864814 50.88946615311559, -89.81133422736166 50.88292399091225 C-89.89544951476036 50.87243903127242, -89.97956480215905 50.86195407163258, -90.22141045140367 50.83180804289252 C-90.3228223727675 50.810544199070115, -90.42423429413134 50.78928035524771, -90.625864935704 50.74700285557556 C-90.7595507804606 50.707202855182665, -90.89323662521721 50.66740285478976, -91.02193484602341 50.62908773438208 C-91.11227710253357 50.59383607650195, -91.20261935904374 50.55858441862181, -91.40691462326485 50.478868159154196 C-91.49111991732697 50.4377026992816, -91.5753252113891 50.39653723940901, -91.77817446518537 50.297370281911356 C-91.86841698387727 50.24359741249426, -91.95865950256915 50.18982454307717, -92.13317829061214 50.08583391719155 C-92.24949496125983 50.002785410603224, -92.36581163190752 49.91973690401489, -92.46950106344833 49.845704072860876 C-92.5690541066308 49.76138694632546, -92.66860714981327 49.677069819790034, -92.7848453581287 49.57862107924456 C-92.86533464293694 49.49813179443633, -92.94582392774517 49.4176425096281, -93.07705705336566 49.28640938400761 C-93.17648834755333 49.16901107679899, -93.275919641741 49.051612769590356, -93.34414004698196 48.97106508932725 C-93.39695582822957 48.89709198511684, -93.44977160947717 48.82311888090643, -93.58426989131264 48.63474231649104 C-93.6600543541736 48.507559577678315, -93.73583881703456 48.38037683886559, -93.79580625603245 48.27973849106427 C-93.83625118823726 48.19700705990403, -93.87669612044208 48.1142756287438, -93.97730413327528 47.90847864914375 C-94.0258887385712 47.783966976841334, -94.07447334386711 47.65945530453892, -94.12752370850318 47.523498871902326 C-94.1608240253239 47.411645079417525, -94.19412434214463 47.299791286932724, -94.24543882969665 47.1274289615829 C-94.26812438508956 47.019236586826224, -94.29080994048248 46.91104421206954, -94.33024401701361 46.72297447728258 C-94.34902132388409 46.57233407252767, -94.36779863075458 46.421693667772765, -94.38135996503335 46.31289825324057 C-94.38604749312428 46.19956427313524, -94.3907350212152 46.08623029302991, -94.3984375 45.900001525878906 C-94.3984375 45.900001525878906, -94.3984375 45.900001525878906, -94.3984375 45.900001525878906 C-94.3984375 14.04365378088136, -94.3984375 -17.812693964116185, -94.3984375 -45.900001525878906 C-94.3984375 -45.900001525878906, -94.3984375 -45.900001525878906, -94.3984375 -45.900001525878906 C-94.3926178668445 -46.04070728283051, -94.386798233689 -46.181413039782115, -94.38135996503335 -46.31289825324057 C-94.36369578888797 -46.45460859874202, -94.34603161274259 -46.59631894424347, -94.33024401701361 -46.72297447728258 C-94.29642074958211 -46.88428503644959, -94.2625974821506 -47.045595595616604, -94.24543882969665 -47.1274289615829 C-94.201340752665 -47.2755517912794, -94.15724267563336 -47.423674620975895, -94.12752370850318 -47.523498871902326 C-94.08455411364088 -47.6336205057383, -94.04158451877858 -47.74374213957427, -93.97730413327528 -47.90847864914375 C-93.9093788554777 -48.04742202567592, -93.8414535776801 -48.18636540220809, -93.79580625603245 -48.27973849106427 C-93.74854619120772 -48.359051113387714, -93.701286126383 -48.43836373571115, -93.58426989131264 -48.63474231649104 C-93.52047961112483 -48.72408616282786, -93.45668933093701 -48.81343000916468, -93.34414004698196 -48.97106508932725 C-93.28472154767687 -49.04122037888959, -93.22530304837179 -49.111375668451934, -93.07705705336566 -49.28640938400761 C-93.0048085939755 -49.35865784339778, -92.93256013458532 -49.43090630278795, -92.7848453581287 -49.57862107924456 C-92.68404365633369 -49.66399576567839, -92.58324195453866 -49.74937045211222, -92.46950106344833 -49.845704072860876 C-92.39769103890306 -49.896975444912265, -92.32588101435778 -49.94824681696365, -92.13317829061214 -50.08583391719155 C-92.02288654097892 -50.15155353513638, -91.91259479134568 -50.2172731530812, -91.77817446518537 -50.297370281911356 C-91.67794834236676 -50.34636784771798, -91.57772221954816 -50.3953654135246, -91.40691462326485 -50.47886815915419 C-91.25873532106277 -50.536687902294624, -91.11055601886069 -50.594507645435066, -91.02193484602341 -50.62908773438208 C-90.88380287099493 -50.670211405107395, -90.74567089596644 -50.7113350758327, -90.625864935704 -50.74700285557556 C-90.52082016207342 -50.76902842841553, -90.41577538844284 -50.791054001255496, -90.22141045140367 -50.83180804289252 C-90.08840141195435 -50.84838760236961, -89.95539237250503 -50.86496716184671, -89.81133422736167 -50.88292399091225 C-89.72259185865579 -50.88659440243206, -89.63384948994992 -50.890264813951866, -89.3984375 -50.900001525878906 C-89.3984375 -50.900001525878906, -89.3984375 -50.900001525878906, -89.3984375 -50.900001525878906" stroke="none" stroke-width="0" fill="#ECECFF" style=""/><path d="M-89.3984375 -50.900001525878906 C-53.63825870305736 -50.900001525878906, -17.87807990611472 -50.900001525878906, 89.3984375 -50.900001525878906 M-89.3984375 -50.900001525878906 C-49.82141096202685 -50.900001525878906, -10.244384424053706 -50.900001525878906, 89.3984375 -50.900001525878906 M89.3984375 -50.900001525878906 C89.3984375 -50.900001525878906, 89.3984375 -50.900001525878906, 89.3984375 -50.900001525878906 M89.3984375 -50.900001525878906 C89.3984375 -50.900001525878906, 89.3984375 -50.900001525878906, 89.3984375 -50.900001525878906 M89.3984375 -50.900001525878906 C89.4874879597274 -50.89631837162019, 89.57653841945482 -50.89263521736148, 89.81133422736166 -50.88292399091225 M89.3984375 -50.900001525878906 C89.55365057528132 -50.893581865598875, 89.70886365056263 -50.887162205318845, 89.81133422736166 -50.88292399091225 M89.81133422736166 -50.88292399091225 C89.92894790937368 -50.868263460738426, 90.0465615913857 -50.853602930564605, 90.22141045140367 -50.83180804289252 M89.81133422736166 -50.88292399091225 C89.96050612497237 -50.8643297332664, 90.10967802258308 -50.84573547562055, 90.22141045140367 -50.83180804289252 M90.22141045140367 -50.83180804289252 C90.31038416288528 -50.81315221742544, 90.39935787436688 -50.79449639195837, 90.625864935704 -50.74700285557556 M90.22141045140367 -50.83180804289252 C90.35300208704537 -50.804216178435276, 90.48459372268707 -50.77662431397803, 90.625864935704 -50.74700285557556 M90.625864935704 -50.74700285557556 C90.75871548838786 -50.70745153240712, 90.89156604107174 -50.667900209238674, 91.02193484602341 -50.62908773438208 M90.625864935704 -50.74700285557556 C90.72220520098972 -50.71832111591041, 90.81854546627545 -50.689639376245275, 91.02193484602341 -50.62908773438208 M91.02193484602341 -50.62908773438208 C91.10619657817834 -50.5962087044679, 91.19045831033326 -50.56332967455371, 91.40691462326485 -50.478868159154196 M91.02193484602341 -50.62908773438208 C91.13926310153028 -50.58330610701775, 91.25659135703715 -50.53752447965342, 91.40691462326485 -50.478868159154196 M91.40691462326485 -50.478868159154196 C91.53908002845574 -50.41425642963613, 91.67124543364662 -50.34964470011808, 91.77817446518537 -50.29737028191135 M91.40691462326485 -50.478868159154196 C91.52485751806323 -50.42120939129219, 91.6428004128616 -50.36355062343017, 91.77817446518537 -50.29737028191135 M91.77817446518537 -50.29737028191135 C91.87285702221261 -50.24095172390894, 91.96753957923985 -50.18453316590653, 92.13317829061214 -50.08583391719155 M91.77817446518537 -50.29737028191135 C91.85832889360297 -50.24960860953143, 91.93848332202056 -50.20184693715151, 92.13317829061214 -50.08583391719155 M92.13317829061214 -50.08583391719155 C92.24739593027931 -50.00428408991758, 92.36161356994648 -49.92273426264361, 92.46950106344833 -49.845704072860876 M92.13317829061214 -50.08583391719155 C92.24232175314921 -50.00790698275377, 92.3514652156863 -49.92998004831598, 92.46950106344833 -49.845704072860876 M92.46950106344833 -49.845704072860876 C92.58501115799055 -49.74787201322425, 92.70052125253277 -49.65003995358763, 92.7848453581287 -49.57862107924456 M92.46950106344833 -49.845704072860876 C92.58826721795631 -49.745114271106445, 92.70703337246431 -49.64452446935201, 92.7848453581287 -49.57862107924456 M92.7848453581287 -49.57862107924456 C92.89465705887581 -49.46880937849747, 93.00446875962291 -49.358997677750374, 93.07705705336566 -49.28640938400761 M92.7848453581287 -49.57862107924456 C92.85139398540026 -49.51207245197301, 92.91794261267181 -49.44552382470146, 93.07705705336566 -49.28640938400761 M93.07705705336566 -49.28640938400761 C93.17558066868315 -49.1700827712159, 93.27410428400064 -49.0537561584242, 93.34414004698196 -48.97106508932725 M93.07705705336566 -49.28640938400761 C93.16307178556771 -49.18485198160205, 93.24908651776974 -49.08329457919649, 93.34414004698196 -48.97106508932725 M93.34414004698196 -48.97106508932725 C93.42879036764343 -48.852504938481815, 93.51344068830488 -48.733944787636375, 93.58426989131264 -48.63474231649104 M93.34414004698196 -48.97106508932725 C93.42047687199613 -48.864148713606276, 93.4968136970103 -48.757232337885306, 93.58426989131264 -48.63474231649104 M93.58426989131264 -48.63474231649104 C93.64226449913676 -48.53741480659006, 93.70025910696087 -48.44008729668908, 93.79580625603245 -48.27973849106427 M93.58426989131264 -48.63474231649104 C93.62729718308212 -48.56253320390584, 93.67032447485158 -48.490324091320645, 93.79580625603245 -48.27973849106427 M93.79580625603245 -48.27973849106427 C93.84230244798306 -48.18462901024982, 93.88879863993367 -48.08951952943537, 93.97730413327528 -47.90847864914375 M93.79580625603245 -48.27973849106427 C93.85245267753407 -48.16386638384442, 93.9090990990357 -48.04799427662458, 93.97730413327528 -47.90847864914375 M93.97730413327528 -47.90847864914375 C94.02691154637766 -47.7813457450818, 94.07651895948003 -47.65421284101984, 94.12752370850318 -47.523498871902326 M93.97730413327528 -47.90847864914375 C94.01314249798051 -47.816632791904546, 94.04898086268574 -47.72478693466533, 94.12752370850318 -47.523498871902326 M94.12752370850318 -47.523498871902326 C94.15955159277706 -47.415919105001464, 94.19157947705095 -47.30833933810061, 94.24543882969665 -47.1274289615829 M94.12752370850318 -47.523498871902326 C94.15747874780834 -47.422881668518, 94.1874337871135 -47.32226446513368, 94.24543882969665 -47.1274289615829 M94.24543882969665 -47.1274289615829 C94.27373545132758 -46.99247618485703, 94.30203207295853 -46.857523408131165, 94.33024401701361 -46.72297447728258 M94.24543882969665 -47.1274289615829 C94.26426717378821 -47.03763247105316, 94.28309551787977 -46.94783598052342, 94.33024401701361 -46.72297447728258 M94.33024401701361 -46.72297447728258 C94.34466426602175 -46.60728844401716, 94.3590845150299 -46.49160241075174, 94.38135996503335 -46.31289825324057 M94.33024401701361 -46.72297447728258 C94.34117970827589 -46.63524320839577, 94.35211539953816 -46.547511939508965, 94.38135996503335 -46.31289825324057 M94.38135996503335 -46.31289825324057 C94.38698623772606 -46.17686752125254, 94.39261251041877 -46.04083678926451, 94.3984375 -45.900001525878906 M94.38135996503335 -46.31289825324057 C94.38519832892719 -46.22009517051925, 94.38903669282101 -46.12729208779794, 94.3984375 -45.900001525878906 M94.3984375 -45.900001525878906 C94.3984375 -45.900001525878906, 94.3984375 -45.900001525878906, 94.3984375 -45.900001525878906 M94.3984375 -45.900001525878906 C94.3984375 -45.900001525878906, 94.3984375 -45.900001525878906, 94.3984375 -45.900001525878906 M94.3984375 -45.900001525878906 C94.3984375 -17.347387312869333, 94.3984375 11.20522690014024, 94.3984375 45.900001525878906 M94.3984375 -45.900001525878906 C94.3984375 -18.875652040491037, 94.3984375 8.148697444896833, 94.3984375 45.900001525878906 M94.3984375 45.900001525878906 C94.3984375 45.900001525878906, 94.3984375 45.900001525878906, 94.3984375 45.900001525878906 M94.3984375 45.900001525878906 C94.3984375 45.900001525878906, 94.3984375 45.900001525878906, 94.3984375 45.900001525878906 M94.3984375 45.900001525878906 C94.39296817390992 46.03223763887037, 94.38749884781986 46.16447375186184, 94.38135996503335 46.31289825324057 M94.3984375 45.900001525878906 C94.39237446407888 46.04659221912547, 94.38631142815778 46.19318291237203, 94.38135996503335 46.31289825324057 M94.38135996503335 46.31289825324057 C94.36637161666522 46.43314184729578, 94.35138326829707 46.55338544135099, 94.33024401701361 46.72297447728258 M94.38135996503335 46.31289825324057 C94.37102098331277 46.395842436977034, 94.36068200159221 46.47878662071349, 94.33024401701361 46.72297447728258 M94.33024401701361 46.72297447728258 C94.30077731622067 46.86350761741582, 94.27131061542774 47.00404075754906, 94.24543882969665 47.1274289615829 M94.33024401701361 46.72297447728258 C94.30417404310327 46.847307884084934, 94.27810406919293 46.97164129088729, 94.24543882969665 47.1274289615829 M94.24543882969665 47.1274289615829 C94.19998991116533 47.28008918789332, 94.15454099263401 47.432749414203734, 94.12752370850318 47.523498871902326 M94.24543882969665 47.1274289615829 C94.20208472797086 47.27305282227793, 94.15873062624506 47.418676682972965, 94.12752370850318 47.523498871902326 M94.12752370850318 47.523498871902326 C94.0927669688184 47.61257276178109, 94.05801022913361 47.70164665165986, 93.97730413327528 47.90847864914375 M94.12752370850318 47.523498871902326 C94.07813241040508 47.65007792067561, 94.02874111230696 47.776656969448894, 93.97730413327528 47.90847864914375 M93.97730413327528 47.90847864914375 C93.9290892833834 48.00710370096809, 93.88087443349153 48.105728752792416, 93.79580625603245 48.27973849106427 M93.97730413327528 47.90847864914375 C93.94088135514914 47.98298263263291, 93.904458577023 48.05748661612208, 93.79580625603245 48.27973849106427 M93.79580625603245 48.27973849106427 C93.7198275893516 48.407247145939074, 93.64384892267074 48.534755800813876, 93.58426989131264 48.63474231649104 M93.79580625603245 48.27973849106427 C93.71690010499577 48.4121600985965, 93.63799395395911 48.54458170612873, 93.58426989131264 48.63474231649104 M93.58426989131264 48.63474231649104 C93.51036748923939 48.73824907073816, 93.43646508716611 48.84175582498529, 93.34414004698196 48.97106508932725 M93.58426989131264 48.63474231649104 C93.52882399789198 48.712399121998075, 93.4733781044713 48.79005592750511, 93.34414004698196 48.97106508932725 M93.34414004698196 48.97106508932725 C93.24625649608822 49.08663597948187, 93.14837294519448 49.20220686963649, 93.07705705336566 49.28640938400761 M93.34414004698196 48.97106508932725 C93.27190281508592 49.05635542786016, 93.19966558318988 49.14164576639308, 93.07705705336566 49.28640938400761 M93.07705705336566 49.28640938400761 C92.99403738193614 49.36942905543714, 92.9110177105066 49.45244872686667, 92.7848453581287 49.57862107924456 M93.07705705336566 49.28640938400761 C92.98515316038466 49.37831327698863, 92.89324926740363 49.47021716996964, 92.7848453581287 49.57862107924456 M92.7848453581287 49.57862107924456 C92.70998967773771 49.64202060650818, 92.6351339973467 49.705420133771796, 92.46950106344833 49.845704072860876 M92.7848453581287 49.57862107924456 C92.7129120684468 49.63954546783509, 92.6409787787649 49.70046985642561, 92.46950106344833 49.845704072860876 M92.46950106344833 49.845704072860876 C92.38021765055329 49.90945120440062, 92.29093423765825 49.97319833594035, 92.13317829061214 50.08583391719155 M92.46950106344833 49.845704072860876 C92.35708410206941 49.92596824054837, 92.2446671406905 50.00623240823587, 92.13317829061214 50.08583391719155 M92.13317829061214 50.08583391719155 C92.0606403530769 50.12905714610191, 91.98810241554168 50.17228037501227, 91.77817446518537 50.29737028191135 M92.13317829061214 50.08583391719155 C92.01621731007413 50.15552753417534, 91.89925632953613 50.225221151159126, 91.77817446518537 50.29737028191135 M91.77817446518537 50.29737028191135 C91.65897837329142 50.355641700501856, 91.53978228139748 50.413913119092356, 91.40691462326485 50.478868159154196 M91.77817446518537 50.29737028191135 C91.66700926449577 50.35171563702454, 91.55584406380616 50.40606099213773, 91.40691462326485 50.478868159154196 M91.40691462326485 50.478868159154196 C91.31133148769716 50.51616481438844, 91.21574835212947 50.553461469622675, 91.02193484602341 50.62908773438208 M91.40691462326485 50.478868159154196 C91.31659398179038 50.514111382821234, 91.22627334031591 50.549354606488265, 91.02193484602341 50.62908773438208 M91.02193484602341 50.62908773438208 C90.9353831649184 50.654855286274035, 90.8488314838134 50.68062283816599, 90.625864935704 50.74700285557556 M91.02193484602341 50.62908773438208 C90.92454250068016 50.65808269185109, 90.82715015533692 50.6870776493201, 90.625864935704 50.74700285557556 M90.625864935704 50.74700285557556 C90.46464918719083 50.78080624330349, 90.30343343867764 50.814609631031416, 90.22141045140367 50.83180804289252 M90.625864935704 50.74700285557556 C90.5125375949107 50.770765100122645, 90.39921025411738 50.79452734466973, 90.22141045140367 50.83180804289252 M90.22141045140367 50.83180804289252 C90.08856137868477 50.848367662537456, 89.95571230596589 50.8649272821824, 89.81133422736166 50.88292399091225 M90.22141045140367 50.83180804289252 C90.08358806461611 50.848987585489624, 89.94576567782855 50.86616712808672, 89.81133422736166 50.88292399091225 M89.81133422736166 50.88292399091225 C89.7150895390177 50.88690470066757, 89.61884485067374 50.8908854104229, 89.3984375 50.900001525878906 M89.81133422736166 50.88292399091225 C89.65466805585676 50.889403751696655, 89.49800188435188 50.895883512481056, 89.3984375 50.900001525878906 M89.3984375 50.900001525878906 C89.3984375 50.900001525878906, 89.3984375 50.900001525878906, 89.3984375 50.900001525878906 M89.3984375 50.900001525878906 C89.3984375 50.900001525878906, 89.3984375 50.900001525878906, 89.3984375 50.900001525878906 M89.3984375 50.900001525878906 C21.810814764541277 50.900001525878906, -45.776807970917446 50.900001525878906, -89.3984375 50.900001525878906 M89.3984375 50.900001525878906 C31.810924313608844 50.900001525878906, -25.776588872782312 50.900001525878906, -89.3984375 50.900001525878906 M-89.3984375 50.900001525878906 C-89.3984375 50.900001525878906, -89.3984375 50.900001525878906, -89.3984375 50.900001525878906 M-89.3984375 50.900001525878906 C-89.3984375 50.900001525878906, -89.3984375 50.900001525878906, -89.3984375 50.900001525878906 M-89.3984375 50.900001525878906 C-89.48433430807168 50.89644880761751, -89.57023111614336 50.892896089356114, -89.81133422736166 50.88292399091225 M-89.3984375 50.900001525878906 C-89.51177177981583 50.895313985391866, -89.62510605963168 50.89062644490482, -89.81133422736166 50.88292399091225 M-89.81133422736166 50.88292399091225 C-89.90381728459481 50.871395989850306, -89.99630034182798 50.85986798878836, -90.22141045140367 50.83180804289252 M-89.81133422736166 50.88292399091225 C-89.93095786019538 50.86801292062978, -90.0505814930291 50.853101850347315, -90.22141045140367 50.83180804289252 M-90.22141045140367 50.83180804289252 C-90.36146489880515 50.80244171341047, -90.50151934620663 50.77307538392842, -90.625864935704 50.74700285557556 M-90.22141045140367 50.83180804289252 C-90.33446938078545 50.80810207830008, -90.44752831016721 50.78439611370764, -90.625864935704 50.74700285557556 M-90.625864935704 50.74700285557556 C-90.74170422972352 50.7125160035391, -90.85754352374305 50.67802915150264, -91.02193484602341 50.62908773438208 M-90.625864935704 50.74700285557556 C-90.70995564373348 50.72196796711219, -90.79404635176296 50.696933078648826, -91.02193484602341 50.62908773438208 M-91.02193484602341 50.62908773438208 C-91.16218562081897 50.57436171223584, -91.30243639561452 50.5196356900896, -91.40691462326485 50.478868159154196 M-91.02193484602341 50.62908773438208 C-91.1592522140655 50.57550633110292, -91.2965695821076 50.52192492782377, -91.40691462326485 50.478868159154196 M-91.40691462326485 50.478868159154196 C-91.50878526575337 50.4290666366696, -91.61065590824191 50.379265114185, -91.77817446518537 50.297370281911356 M-91.40691462326485 50.478868159154196 C-91.51354381380578 50.42674032427933, -91.62017300434671 50.37461248940447, -91.77817446518537 50.297370281911356 M-91.77817446518537 50.297370281911356 C-91.87832484020514 50.23769361157819, -91.97847521522492 50.17801694124501, -92.13317829061214 50.08583391719155 M-91.77817446518537 50.297370281911356 C-91.84987275929811 50.25464737188359, -91.92157105341086 50.21192446185582, -92.13317829061214 50.08583391719155 M-92.13317829061214 50.08583391719155 C-92.20985993344472 50.03108427653794, -92.2865415762773 49.97633463588433, -92.46950106344833 49.845704072860876 M-92.13317829061214 50.08583391719155 C-92.24692308739947 50.00462169324479, -92.36066788418681 49.923409469298036, -92.46950106344833 49.845704072860876 M-92.46950106344833 49.845704072860876 C-92.55405243073686 49.774092717682684, -92.63860379802539 49.70248136250449, -92.7848453581287 49.57862107924456 M-92.46950106344833 49.845704072860876 C-92.56030453306649 49.76879745712222, -92.65110800268462 49.691890841383554, -92.7848453581287 49.57862107924456 M-92.7848453581287 49.57862107924456 C-92.87497757826327 49.48848885911, -92.96510979839783 49.398356638975436, -93.07705705336566 49.28640938400761 M-92.7848453581287 49.57862107924456 C-92.84727748154057 49.5161889558327, -92.90970960495243 49.453756832420844, -93.07705705336566 49.28640938400761 M-93.07705705336566 49.28640938400761 C-93.1676561029224 49.17943928832933, -93.25825515247912 49.072469192651035, -93.34414004698196 48.97106508932725 M-93.07705705336566 49.28640938400761 C-93.17421889372751 49.1716906158678, -93.27138073408938 49.056971847727986, -93.34414004698196 48.97106508932725 M-93.34414004698196 48.97106508932725 C-93.408813084208 48.8804848648315, -93.47348612143404 48.78990464033576, -93.58426989131264 48.63474231649104 M-93.34414004698196 48.97106508932725 C-93.41341586875858 48.87403826396383, -93.48269169053519 48.77701143860042, -93.58426989131264 48.63474231649104 M-93.58426989131264 48.63474231649104 C-93.63941676484394 48.54219392137293, -93.69456363837524 48.44964552625481, -93.79580625603245 48.27973849106427 M-93.58426989131264 48.63474231649104 C-93.65940526638059 48.50864888754644, -93.73454064144853 48.38255545860184, -93.79580625603245 48.27973849106427 M-93.79580625603245 48.27973849106427 C-93.86162777768239 48.145098416513825, -93.92744929933232 48.01045834196338, -93.97730413327528 47.90847864914375 M-93.79580625603245 48.27973849106427 C-93.86190938816361 48.1445223730673, -93.92801252029477 48.00930625507034, -93.97730413327528 47.90847864914375 M-93.97730413327528 47.90847864914375 C-94.01430460537932 47.813654565885415, -94.05130507748336 47.718830482627084, -94.12752370850318 47.523498871902326 M-93.97730413327528 47.90847864914375 C-94.01702530122188 47.806682020011706, -94.05674646916846 47.70488539087966, -94.12752370850318 47.523498871902326 M-94.12752370850318 47.523498871902326 C-94.1556945929255 47.428874539129446, -94.18386547734781 47.334250206356565, -94.24543882969665 47.1274289615829 M-94.12752370850318 47.523498871902326 C-94.17101699635411 47.377407493254196, -94.21451028420505 47.23131611460607, -94.24543882969665 47.1274289615829 M-94.24543882969665 47.1274289615829 C-94.26733862841344 47.02298403225124, -94.28923842713023 46.918539102919574, -94.33024401701361 46.72297447728258 M-94.24543882969665 47.1274289615829 C-94.26836314032764 47.01809791088264, -94.29128745095862 46.90876686018238, -94.33024401701361 46.72297447728258 M-94.33024401701361 46.72297447728258 C-94.342868601151 46.621694113839844, -94.35549318528838 46.520413750397104, -94.38135996503335 46.31289825324057 M-94.33024401701361 46.72297447728258 C-94.34338277940427 46.61756913357926, -94.3565215417949 46.512163789875935, -94.38135996503335 46.31289825324057 M-94.38135996503335 46.31289825324057 C-94.38660445687474 46.18609813119649, -94.39184894871613 46.05929800915241, -94.3984375 45.900001525878906 M-94.38135996503335 46.31289825324057 C-94.38525832621646 46.21864456980674, -94.38915668739956 46.12439088637292, -94.3984375 45.900001525878906 M-94.3984375 45.900001525878906 C-94.3984375 45.900001525878906, -94.3984375 45.900001525878906, -94.3984375 45.900001525878906 M-94.3984375 45.900001525878906 C-94.3984375 45.900001525878906, -94.3984375 45.900001525878906, -94.3984375 45.900001525878906 M-94.3984375 45.900001525878906 C-94.3984375 13.590635052227931, -94.3984375 -18.718731421423044, -94.3984375 -45.900001525878906 M-94.3984375 45.900001525878906 C-94.3984375 11.911098669754821, -94.3984375 -22.077804186369264, -94.3984375 -45.900001525878906 M-94.3984375 -45.900001525878906 C-94.3984375 -45.900001525878906, -94.3984375 -45.900001525878906, -94.3984375 -45.900001525878906 M-94.3984375 -45.900001525878906 C-94.3984375 -45.900001525878906, -94.3984375 -45.900001525878906, -94.3984375 -45.900001525878906 M-94.3984375 -45.900001525878906 C-94.39501692709608 -45.982703353776806, -94.39159635419216 -46.06540518167471, -94.38135996503335 -46.31289825324057 M-94.3984375 -45.900001525878906 C-94.3949406433208 -45.98454772541623, -94.39144378664159 -46.069093924953556, -94.38135996503335 -46.31289825324057 M-94.38135996503335 -46.31289825324057 C-94.36460973291673 -46.44727650903574, -94.34785950080013 -46.5816547648309, -94.33024401701361 -46.72297447728258 M-94.38135996503335 -46.31289825324057 C-94.36769004022649 -46.42256483216366, -94.35402011541963 -46.532231411086755, -94.33024401701361 -46.72297447728258 M-94.33024401701361 -46.72297447728258 C-94.31259946610542 -46.807125199237966, -94.29495491519722 -46.89127592119335, -94.24543882969665 -47.1274289615829 M-94.33024401701361 -46.72297447728258 C-94.311849817119 -46.81070043919442, -94.29345561722438 -46.898426401106256, -94.24543882969665 -47.1274289615829 M-94.24543882969665 -47.1274289615829 C-94.21940234735776 -47.21488396413579, -94.19336586501886 -47.30233896668867, -94.12752370850318 -47.523498871902326 M-94.24543882969665 -47.1274289615829 C-94.21393459316172 -47.23324982673383, -94.1824303566268 -47.339070691884764, -94.12752370850318 -47.523498871902326 M-94.12752370850318 -47.523498871902326 C-94.07049833213347 -47.669642386544886, -94.01347295576377 -47.815785901187446, -93.97730413327528 -47.90847864914375 M-94.12752370850318 -47.523498871902326 C-94.0721974284268 -47.66528797593277, -94.01687114835043 -47.807077079963214, -93.97730413327528 -47.90847864914375 M-93.97730413327528 -47.90847864914375 C-93.91072841040634 -48.044661466946074, -93.84415268753739 -48.180844284748396, -93.79580625603245 -48.27973849106427 M-93.97730413327528 -47.90847864914375 C-93.93701600101465 -47.990889340891634, -93.89672786875403 -48.07330003263952, -93.79580625603245 -48.27973849106427 M-93.79580625603245 -48.27973849106427 C-93.73916415978843 -48.37479619366521, -93.68252206354441 -48.469853896266144, -93.58426989131264 -48.63474231649104 M-93.79580625603245 -48.27973849106427 C-93.71178795583992 -48.42073939184892, -93.6277696556474 -48.561740292633566, -93.58426989131264 -48.63474231649104 M-93.58426989131264 -48.63474231649104 C-93.534986992314 -48.70376731124265, -93.48570409331536 -48.77279230599426, -93.34414004698196 -48.97106508932725 M-93.58426989131264 -48.63474231649104 C-93.5012294822215 -48.75104764588827, -93.41818907313036 -48.867352975285506, -93.34414004698196 -48.97106508932725 M-93.34414004698196 -48.97106508932725 C-93.27102331477437 -49.05739385191579, -93.19790658256677 -49.14372261450433, -93.07705705336566 -49.28640938400761 M-93.34414004698196 -48.97106508932725 C-93.2591259692377 -49.07144102124705, -93.17411189149344 -49.17181695316684, -93.07705705336566 -49.28640938400761 M-93.07705705336566 -49.28640938400761 C-92.96775937697491 -49.395707060398365, -92.85846170058416 -49.50500473678911, -92.7848453581287 -49.57862107924456 M-93.07705705336566 -49.28640938400761 C-92.96623708148829 -49.39722935588499, -92.8554171096109 -49.508049327762365, -92.7848453581287 -49.57862107924456 M-92.7848453581287 -49.57862107924456 C-92.67533219391903 -49.671373997977916, -92.56581902970936 -49.76412691671126, -92.46950106344833 -49.845704072860876 M-92.7848453581287 -49.57862107924456 C-92.68298624821607 -49.664891344670274, -92.58112713830344 -49.751161610095984, -92.46950106344833 -49.845704072860876 M-92.46950106344833 -49.845704072860876 C-92.39900150767716 -49.89603978819158, -92.32850195190596 -49.94637550352228, -92.13317829061214 -50.08583391719155 M-92.46950106344833 -49.845704072860876 C-92.37217506762485 -49.91519349824036, -92.27484907180136 -49.98468292361984, -92.13317829061214 -50.08583391719155 M-92.13317829061214 -50.08583391719155 C-92.03148809865381 -50.14642811926434, -91.92979790669548 -50.207022321337135, -91.77817446518537 -50.297370281911356 M-92.13317829061214 -50.08583391719155 C-92.03406585668532 -50.14489210887782, -91.9349534227585 -50.20395030056408, -91.77817446518537 -50.297370281911356 M-91.77817446518537 -50.297370281911356 C-91.68653950201065 -50.34216788569043, -91.59490453883592 -50.38696548946951, -91.40691462326485 -50.47886815915419 M-91.77817446518537 -50.297370281911356 C-91.64084433982912 -50.36450688926623, -91.50351421447286 -50.43164349662111, -91.40691462326485 -50.47886815915419 M-91.40691462326485 -50.47886815915419 C-91.31535925090553 -50.51459317630756, -91.2238038785462 -50.55031819346092, -91.02193484602341 -50.62908773438208 M-91.40691462326485 -50.47886815915419 C-91.31786992653076 -50.51361350763857, -91.22882522979668 -50.54835885612294, -91.02193484602341 -50.62908773438208 M-91.02193484602341 -50.62908773438208 C-90.89561983015291 -50.666693343939535, -90.7693048142824 -50.70429895349698, -90.625864935704 -50.74700285557556 M-91.02193484602341 -50.62908773438208 C-90.88685694689042 -50.66930216731889, -90.75177904775744 -50.7095166002557, -90.625864935704 -50.74700285557556 M-90.625864935704 -50.74700285557556 C-90.46554408636203 -50.78061860267941, -90.30522323702006 -50.81423434978327, -90.22141045140367 -50.83180804289252 M-90.625864935704 -50.74700285557556 C-90.50438294572537 -50.772474950250434, -90.38290095574672 -50.79794704492531, -90.22141045140367 -50.83180804289252 M-90.22141045140367 -50.83180804289252 C-90.11576222011898 -50.84497708118861, -90.01011398883429 -50.8581461194847, -89.81133422736167 -50.88292399091225 M-90.22141045140367 -50.83180804289252 C-90.11905038492218 -50.844567211873326, -90.0166903184407 -50.85732638085414, -89.81133422736167 -50.88292399091225 M-89.81133422736167 -50.88292399091225 C-89.68515777389385 -50.88814268763052, -89.55898132042603 -50.893361384348786, -89.3984375 -50.900001525878906 M-89.81133422736167 -50.88292399091225 C-89.65279879993899 -50.8894810646933, -89.4942633725163 -50.89603813847435, -89.3984375 -50.900001525878906 M-89.3984375 -50.900001525878906 C-89.3984375 -50.900001525878906, -89.3984375 -50.900001525878906, -89.3984375 -50.900001525878906 M-89.3984375 -50.900001525878906 C-89.3984375 -50.900001525878906, -89.3984375 -50.900001525878906, -89.3984375 -50.900001525878906" stroke="#9370DB" stroke-width="1.3" fill="none" stroke-dasharray="0 0" style=""/></g><g class="label" style="" transform="translate(0, -35.900001525878906)"><rect/><g><rect class="background" style="stroke: none"/><text y="-10.1" style=""><tspan class="text-outer-tspan" x="0" y="-0.1em" dy="1.1em"><tspan font-style="normal" class="text-inner-tspan" font-weight="normal">This</tspan><tspan font-style="normal" class="text-inner-tspan" font-weight="normal"> is</tspan><tspan font-style="normal" class="text-inner-tspan" font-weight="bold"> bold</tspan></tspan><tspan class="text-outer-tspan" x="0" y="1em" dy="1.1em"><tspan font-style="normal" class="text-inner-tspan" font-weight="normal">and</tspan><tspan font-style="normal" class="text-inner-tspan" font-weight="normal"> &lt;strong&gt;</tspan><tspan font-style="normal" class="text-inner-tspan" font-weight="normal"> strong</tspan></tspan><tspan class="text-outer-tspan" x="0" y="2.1em" dy="1.1em"><tspan font-style="normal" class="text-inner-tspan" font-weight="normal">&lt;/strong&gt;</tspan><tspan font-style="normal" class="text-inner-tspan" font-weight="normal"> for</tspan><tspan font-style="normal" class="text-inner-tspan" font-weight="normal"> rounded</tspan></tspan><tspan class="text-outer-tspan" x="0" y="3.2em" dy="1.1em"><tspan font-style="normal" class="text-inner-tspan" font-weight="normal">shape</tspan></tspan></text></g></g></g><g class="node default" id="flowchart-n1-3" transform="translate(364.421875, 32.5)"><rect class="basic label-container" style="" x="-38.5703125" y="-24.5" width="77.140625" height="49"/><g class="label" style="" transform="translate(0, -9.5)"><rect/><g><rect class="background" style="stroke: none"/><text y="-10.1" style=""><tspan class="text-outer-tspan" x="0" y="-0.1em" dy="1.1em"><tspan font-style="normal" class="text-inner-tspan" font-weight="normal">n1</tspan></tspan></text></g></g></g><g class="node default" id="flowchart-n11-4" transform="translate(364.421875, 157.9000015258789)"><rect class="basic label-container" style="" x="-117.625" y="-42.099998474121094" width="235.25" height="84.19999694824219"/><g class="label" style="" transform="translate(0, -27.099998474121094)"><rect/><g><rect class="background" style="stroke: none"/><text y="-10.1" style=""><tspan class="text-outer-tspan" x="0" y="-0.1em" dy="1.1em"><tspan font-style="normal" class="text-inner-tspan" font-weight="normal">This</tspan><tspan font-style="normal" class="text-inner-tspan" font-weight="normal"> is</tspan><tspan font-style="normal" class="text-inner-tspan" font-weight="bold"> bold</tspan></tspan><tspan class="text-outer-tspan" x="0" y="1em" dy="1.1em"><tspan font-style="normal" class="text-inner-tspan" font-weight="normal">and</tspan><tspan font-style="normal" class="text-inner-tspan" font-weight="normal"> &lt;strong&gt;</tspan><tspan font-style="normal" class="text-inner-tspan" font-weight="normal"> strong</tspan></tspan><tspan class="text-outer-tspan" x="0" y="2.1em" dy="1.1em"><tspan font-style="normal" class="text-inner-tspan" font-weight="normal">&lt;/strong&gt;</tspan><tspan font-style="normal" class="text-inner-tspan" font-weight="normal"> for</tspan><tspan font-style="normal" class="text-inner-tspan" font-weight="normal"> rect</tspan><tspan font-style="normal" class="text-inner-tspan" font-weight="normal"> shape</tspan></tspan></text></g></g></g><g class="node default" id="flowchart-n2-6" transform="translate(539.046875, 32.5)"><rect class="basic label-container" style="" x="-38.5703125" y="-24.5" width="77.140625" height="49"/><g class="label" style="" transform="translate(0, -9.5)"><rect/><g><rect class="background" style="stroke: none"/><text y="-10.1" style=""><tspan class="text-outer-tspan" x="0" y="-0.1em" dy="1.1em"><tspan font-style="normal" class="text-inner-tspan" font-weight="normal">n2</tspan></tspan></text></g></g></g><g class="node default" id="flowchart-n22-7" transform="translate(539.046875, 157.9000015258789)"><circle class="state-start" r="7" width="14" height="14"/></g><g class="node default" id="flowchart-n3-9" transform="translate(666.1875, 32.5)"><rect class="basic label-container" style="" x="-38.5703125" y="-24.5" width="77.140625" height="49"/><g class="label" style="" transform="translate(0, -9.5)"><rect/><g><rect class="background" style="stroke: none"/><text y="-10.1" style=""><tspan class="text-outer-tspan" x="0" y="-0.1em" dy="1.1em"><tspan font-style="normal" class="text-inner-tspan" font-weight="normal">n3</tspan></tspan></text></g></g></g><g class="node default" id="flowchart-n33-10" transform="translate(666.1875, 157.9000015258789)"><g><path d="M7 0 C7 0.40517908122283747, 6.964012880168563 0.816513743121899, 6.893654271085456 1.2155372436685123 C6.823295662002349 1.6145607442151257, 6.716427752933756 2.013397210557766, 6.5778483455013586 2.394141003279681 C6.439268938068961 2.7748847960015954, 6.26476736710249 3.149104622578984, 6.062177826491071 3.4999999999999996 C5.859588285879653 3.8508953774210153, 5.622755194947063 4.189128084166967, 5.362311101832846 4.499513267805774 C5.10186700871863 4.809898451444582, 4.809898451444583 5.10186700871863, 4.499513267805775 5.362311101832846 C4.189128084166968 5.622755194947063, 3.8508953774210166 5.859588285879652, 3.500000000000001 6.06217782649107 C3.149104622578985 6.264767367102489, 2.7748847960015963 6.439268938068961, 2.3941410032796817 6.5778483455013586 C2.013397210557767 6.716427752933756, 1.6145607442151264 6.823295662002349, 1.2155372436685128 6.893654271085456 C0.8165137431218992 6.964012880168563, 0.4051790812228379 7, 4.286263797015736e-16 7 C-0.405179081222837 7, -0.8165137431218985 6.964012880168563, -1.2155372436685121 6.893654271085456 C-1.6145607442151257 6.823295662002349, -2.0133972105577667 6.716427752933756, -2.394141003279681 6.5778483455013586 C-2.774884796001595 6.439268938068961, -3.149104622578983 6.26476736710249, -3.4999999999999982 6.062177826491071 C-3.8508953774210135 5.859588285879653, -4.189128084166966 5.6227551949470636, -4.499513267805773 5.362311101832848 C-4.809898451444581 5.101867008718632, -5.101867008718628 4.809898451444586, -5.3623111018328435 4.499513267805779 C-5.622755194947059 4.189128084166971, -5.859588285879649 3.8508953774210206, -6.062177826491068 3.5000000000000053 C-6.264767367102486 3.14910462257899, -6.439268938068958 2.774884796001602, -6.577848345501356 2.394141003279688 C-6.716427752933754 2.0133972105577738, -6.823295662002347 1.614560744215134, -6.893654271085454 1.215537243668521 C-6.9640128801685615 0.816513743121908, -6.999999999999999 0.4051790812228472, -7 1.0183126166254463e-14 C-7.000000000000001 -0.40517908122282686, -6.964012880168565 -0.8165137431218878, -6.893654271085459 -1.215537243668501 C-6.823295662002352 -1.6145607442151142, -6.716427752933759 -2.0133972105577542, -6.577848345501363 -2.394141003279669 C-6.439268938068967 -2.7748847960015834, -6.264767367102496 -3.149104622578972, -6.062177826491078 -3.4999999999999876 C-5.859588285879661 -3.8508953774210033, -5.6227551949470715 -4.1891280841669545, -5.362311101832856 -4.499513267805763 C-5.10186700871864 -4.809898451444571, -4.809898451444594 -5.10186700871862, -4.499513267805787 -5.362311101832836 C-4.189128084166979 -5.622755194947053, -3.850895377421028 -5.859588285879643, -3.5000000000000133 -6.062177826491062 C-3.1491046225789985 -6.264767367102482, -2.774884796001611 -6.439268938068954, -2.3941410032796973 -6.577848345501353 C-2.0133972105577835 -6.716427752933752, -1.6145607442151435 -6.823295662002345, -1.2155372436685306 -6.893654271085453 C-0.8165137431219176 -6.9640128801685615, -0.40517908122285695 -6.999999999999999, -1.9937625952807352e-14 -7 C0.4051790812228171 -7.000000000000001, 0.8165137431218781 -6.964012880168565, 1.2155372436684913 -6.89365427108546 C1.6145607442151044 -6.823295662002354, 2.013397210557745 -6.716427752933763, 2.3941410032796595 -6.5778483455013665 C2.774884796001574 -6.43926893806897, 3.149104622578963 -6.2647673671025, 3.499999999999979 -6.062177826491083 C3.8508953774209953 -5.859588285879665, 4.189128084166947 -5.622755194947077, 4.499513267805756 -5.362311101832862 C4.809898451444564 -5.1018670087186475, 5.101867008718613 -4.809898451444602, 5.362311101832829 -4.499513267805796 C5.622755194947046 -4.189128084166989, 5.859588285879637 -3.8508953774210393, 6.062177826491056 -3.500000000000025 C6.2647673671024755 -3.1491046225790105, 6.439268938068949 -2.774884796001623, 6.577848345501348 -2.3941410032797092 C6.716427752933747 -2.0133972105577955, 6.823295662002342 -1.6145607442151562, 6.893654271085451 -1.2155372436685434 C6.96401288016856 -0.8165137431219307, 6.982275711847575 -0.2025895406114567, 7 -3.2800750208310675e-14 C7.017724288152425 0.2025895406113911, 7.017724288152424 -0.2025895406114242, 7 0" stroke="none" stroke-width="0" fill="#ECECFF" style=""/><path d="M7 0 C7 0.40517908122283747, 6.964012880168563 0.816513743121899, 6.893654271085456 1.2155372436685123 C6.823295662002349 1.6145607442151257, 6.716427752933756 2.013397210557766, 6.5778483455013586 2.394141003279681 C6.439268938068961 2.7748847960015954, 6.26476736710249 3.149104622578984, 6.062177826491071 3.4999999999999996 C5.859588285879653 3.8508953774210153, 5.622755194947063 4.189128084166967, 5.362311101832846 4.499513267805774 C5.10186700871863 4.809898451444582, 4.809898451444583 5.10186700871863, 4.499513267805775 5.362311101832846 C4.189128084166968 5.622755194947063, 3.8508953774210166 5.859588285879652, 3.500000000000001 6.06217782649107 C3.149104622578985 6.264767367102489, 2.7748847960015963 6.439268938068961, 2.3941410032796817 6.5778483455013586 C2.013397210557767 6.716427752933756, 1.6145607442151264 6.823295662002349, 1.2155372436685128 6.893654271085456 C0.8165137431218992 6.964012880168563, 0.4051790812228379 7, 4.286263797015736e-16 7 C-0.405179081222837 7, -0.8165137431218985 6.964012880168563, -1.2155372436685121 6.893654271085456 C-1.6145607442151257 6.823295662002349, -2.0133972105577667 6.716427752933756, -2.394141003279681 6.5778483455013586 C-2.774884796001595 6.439268938068961, -3.149104622578983 6.26476736710249, -3.4999999999999982 6.062177826491071 C-3.8508953774210135 5.859588285879653, -4.189128084166966 5.6227551949470636, -4.499513267805773 5.362311101832848 C-4.809898451444581 5.101867008718632, -5.101867008718628 4.809898451444586, -5.3623111018328435 4.499513267805779 C-5.622755194947059 4.189128084166971, -5.859588285879649 3.8508953774210206, -6.062177826491068 3.5000000000000053 C-6.264767367102486 3.14910462257899, -6.439268938068958 2.774884796001602, -6.577848345501356 2.394141003279688 C-6.716427752933754 2.0133972105577738, -6.823295662002347 1.614560744215134, -6.893654271085454 1.215537243668521 C-6.9640128801685615 0.816513743121908, -6.999999999999999 0.4051790812228472, -7 1.0183126166254463e-14 C-7.000000000000001 -0.40517908122282686, -6.964012880168565 -0.8165137431218878, -6.893654271085459 -1.215537243668501 C-6.823295662002352 -1.6145607442151142, -6.716427752933759 -2.0133972105577542, -6.577848345501363 -2.394141003279669 C-6.439268938068967 -2.7748847960015834, -6.264767367102496 -3.149104622578972, -6.062177826491078 -3.4999999999999876 C-5.859588285879661 -3.8508953774210033, -5.6227551949470715 -4.1891280841669545, -5.362311101832856 -4.499513267805763 C-5.10186700871864 -4.809898451444571, -4.809898451444594 -5.10186700871862, -4.499513267805787 -5.362311101832836 C-4.189128084166979 -5.622755194947053, -3.850895377421028 -5.859588285879643, -3.5000000000000133 -6.062177826491062 C-3.1491046225789985 -6.264767367102482, -2.774884796001611 -6.439268938068954, -2.3941410032796973 -6.577848345501353 C-2.0133972105577835 -6.716427752933752, -1.6145607442151435 -6.823295662002345, -1.2155372436685306 -6.893654271085453 C-0.8165137431219176 -6.9640128801685615, -0.40517908122285695 -6.999999999999999, -1.9937625952807352e-14 -7 C0.4051790812228171 -7.000000000000001, 0.8165137431218781 -6.964012880168565, 1.2155372436684913 -6.89365427108546 C1.6145607442151044 -6.823295662002354, 2.013397210557745 -6.716427752933763, 2.3941410032796595 -6.5778483455013665 C2.774884796001574 -6.43926893806897, 3.149104622578963 -6.2647673671025, 3.499999999999979 -6.062177826491083 C3.8508953774209953 -5.859588285879665, 4.189128084166947 -5.622755194947077, 4.499513267805756 -5.362311101832862 C4.809898451444564 -5.1018670087186475, 5.101867008718613 -4.809898451444602, 5.362311101832829 -4.499513267805796 C5.622755194947046 -4.189128084166989, 5.859588285879637 -3.8508953774210393, 6.062177826491056 -3.500000000000025 C6.2647673671024755 -3.1491046225790105, 6.439268938068949 -2.774884796001623, 6.577848345501348 -2.3941410032797092 C6.716427752933747 -2.0133972105577955, 6.823295662002342 -1.6145607442151562, 6.893654271085451 -1.2155372436685434 C6.96401288016856 -0.8165137431219307, 6.982275711847575 -0.2025895406114567, 7 -3.2800750208310675e-14 C7.017724288152425 0.2025895406113911, 7.017724288152424 -0.2025895406114242, 7 0" stroke="#333333" stroke-width="2" fill="none" stroke-dasharray="0 0" style=""/><g><path d="M2.5 0 C2.5 0.14470681472244193, 2.487147457203058 0.29161205111496386, 2.46201938253052 0.4341204441673258 C2.436891307857982 0.5766288372196877, 2.3987241974763416 0.7190704323420595, 2.3492315519647713 0.8550503583141718 C2.299738906453201 0.991030284286284, 2.2374169168223177 1.124680222349637, 2.165063509461097 1.2499999999999998 C2.092710102099876 1.3753197776503625, 2.0081268553382365 1.496117172916774, 1.915111107797445 1.6069690242163481 C1.8220953602566536 1.7178208755159223, 1.7178208755159226 1.8220953602566536, 1.6069690242163484 1.915111107797445 C1.4961171729167742 2.0081268553382365, 1.375319777650363 2.0927101020998755, 1.2500000000000002 2.1650635094610964 C1.1246802223496375 2.2374169168223172, 0.9910302842862845 2.2997389064532, 0.8550503583141721 2.349231551964771 C0.7190704323420597 2.3987241974763416, 0.576628837219688 2.436891307857982, 0.43412044416732604 2.46201938253052 C0.291612051114964 2.487147457203058, 0.14470681472244212 2.5, 1.5308084989341916e-16 2.5 C-0.1447068147224418 2.5, -0.2916120511149638 2.487147457203058, -0.43412044416732576 2.46201938253052 C-0.5766288372196877 2.436891307857982, -0.7190704323420595 2.3987241974763416, -0.8550503583141718 2.3492315519647713 C-0.991030284286284 2.299738906453201, -1.124680222349637 2.2374169168223177, -1.2499999999999996 2.165063509461097 C-1.375319777650362 2.092710102099876, -1.4961171729167733 2.008126855338237, -1.6069690242163475 1.9151111077974459 C-1.7178208755159217 1.8220953602566548, -1.822095360256653 1.7178208755159234, -1.9151111077974443 1.6069690242163495 C-2.0081268553382357 1.4961171729167755, -2.0927101020998746 1.3753197776503645, -2.1650635094610955 1.250000000000002 C-2.2374169168223164 1.1246802223496395, -2.2997389064531992 0.9910302842862865, -2.34923155196477 0.8550503583141743 C-2.3987241974763407 0.7190704323420621, -2.436891307857981 0.5766288372196907, -2.4620193825305194 0.434120444167329 C-2.487147457203058 0.29161205111496724, -2.5 0.14470681472244545, -2.5 3.636830773662308e-15 C-2.5 -0.14470681472243818, -2.4871474572030587 -0.2916120511149599, -2.4620193825305208 -0.4341204441673218 C-2.436891307857983 -0.5766288372196837, -2.398724197476343 -0.7190704323420553, -2.3492315519647726 -0.8550503583141675 C-2.2997389064532023 -0.9910302842862798, -2.23741691682232 -1.1246802223496328, -2.165063509461099 -1.2499999999999956 C-2.092710102099878 -1.3753197776503583, -2.00812685533824 -1.4961171729167695, -1.9151111077974488 -1.606969024216344 C-1.8220953602566576 -1.7178208755159183, -1.7178208755159263 -1.82209536025665, -1.6069690242163523 -1.9151111077974416 C-1.4961171729167784 -2.0081268553382334, -1.3753197776503672 -2.0927101020998724, -1.2500000000000047 -2.1650635094610937 C-1.1246802223496422 -2.237416916822315, -0.9910302842862897 -2.299738906453198, -0.8550503583141776 -2.3492315519647686 C-0.7190704323420656 -2.3987241974763394, -0.5766288372196942 -2.4368913078579806, -0.43412044416733236 -2.462019382530519 C-0.29161205111497057 -2.4871474572030574, -0.1447068147224489 -2.4999999999999996, -7.120580697431198e-15 -2.5 C0.14470681472243463 -2.5000000000000004, 0.29161205111495647 -2.487147457203059, 0.4341204441673183 -2.4620193825305217 C0.5766288372196802 -2.436891307857984, 0.7190704323420518 -2.3987241974763442, 0.8550503583141642 -2.349231551964774 C0.9910302842862766 -2.2997389064532037, 1.1246802223496295 -2.2374169168223212, 1.2499999999999925 -2.165063509461101 C1.3753197776503554 -2.0927101020998804, 1.4961171729167668 -2.008126855338242, 1.6069690242163412 -1.915111107797451 C1.7178208755159157 -1.82209536025666, 1.8220953602566472 -1.7178208755159294, 1.915111107797439 -1.6069690242163557 C2.0081268553382308 -1.496117172916782, 2.09271010209987 -1.3753197776503712, 2.1650635094610915 -1.2500000000000089 C2.237416916822313 -1.1246802223496466, 2.299738906453196 -0.9910302842862939, 2.3492315519647673 -0.855050358314182 C2.3987241974763385 -0.71907043234207, 2.4368913078579792 -0.5766288372196986, 2.462019382530518 -0.4341204441673369 C2.487147457203057 -0.29161205111497523, 2.4936698970884197 -0.07235340736123454, 2.5 -1.1714553645825241e-14 C2.5063301029115803 0.07235340736121111, 2.50633010291158 -0.07235340736122292, 2.5 0" stroke="none" stroke-width="0" fill="#9370DB" style=""/><path d="M2.5 0 C2.5 0.14470681472244193, 2.487147457203058 0.29161205111496386, 2.46201938253052 0.4341204441673258 C2.436891307857982 0.5766288372196877, 2.3987241974763416 0.7190704323420595, 2.3492315519647713 0.8550503583141718 C2.299738906453201 0.991030284286284, 2.2374169168223177 1.124680222349637, 2.165063509461097 1.2499999999999998 C2.092710102099876 1.3753197776503625, 2.0081268553382365 1.496117172916774, 1.915111107797445 1.6069690242163481 C1.8220953602566536 1.7178208755159223, 1.7178208755159226 1.8220953602566536, 1.6069690242163484 1.915111107797445 C1.4961171729167742 2.0081268553382365, 1.375319777650363 2.0927101020998755, 1.2500000000000002 2.1650635094610964 C1.1246802223496375 2.2374169168223172, 0.9910302842862845 2.2997389064532, 0.8550503583141721 2.349231551964771 C0.7190704323420597 2.3987241974763416, 0.576628837219688 2.436891307857982, 0.43412044416732604 2.46201938253052 C0.291612051114964 2.487147457203058, 0.14470681472244212 2.5, 1.5308084989341916e-16 2.5 C-0.1447068147224418 2.5, -0.2916120511149638 2.487147457203058, -0.43412044416732576 2.46201938253052 C-0.5766288372196877 2.436891307857982, -0.7190704323420595 2.3987241974763416, -0.8550503583141718 2.3492315519647713 C-0.991030284286284 2.299738906453201, -1.124680222349637 2.2374169168223177, -1.2499999999999996 2.165063509461097 C-1.375319777650362 2.092710102099876, -1.4961171729167733 2.008126855338237, -1.6069690242163475 1.9151111077974459 C-1.7178208755159217 1.8220953602566548, -1.822095360256653 1.7178208755159234, -1.9151111077974443 1.6069690242163495 C-2.0081268553382357 1.4961171729167755, -2.0927101020998746 1.3753197776503645, -2.1650635094610955 1.250000000000002 C-2.2374169168223164 1.1246802223496395, -2.2997389064531992 0.9910302842862865, -2.34923155196477 0.8550503583141743 C-2.3987241974763407 0.7190704323420621, -2.436891307857981 0.5766288372196907, -2.4620193825305194 0.434120444167329 C-2.487147457203058 0.29161205111496724, -2.5 0.14470681472244545, -2.5 3.636830773662308e-15 C-2.5 -0.14470681472243818, -2.4871474572030587 -0.2916120511149599, -2.4620193825305208 -0.4341204441673218 C-2.436891307857983 -0.5766288372196837, -2.398724197476343 -0.7190704323420553, -2.3492315519647726 -0.8550503583141675 C-2.2997389064532023 -0.9910302842862798, -2.23741691682232 -1.1246802223496328, -2.165063509461099 -1.2499999999999956 C-2.092710102099878 -1.3753197776503583, -2.00812685533824 -1.4961171729167695, -1.9151111077974488 -1.606969024216344 C-1.8220953602566576 -1.7178208755159183, -1.7178208755159263 -1.82209536025665, -1.6069690242163523 -1.9151111077974416 C-1.4961171729167784 -2.0081268553382334, -1.3753197776503672 -2.0927101020998724, -1.2500000000000047 -2.1650635094610937 C-1.1246802223496422 -2.237416916822315, -0.9910302842862897 -2.299738906453198, -0.8550503583141776 -2.3492315519647686 C-0.7190704323420656 -2.3987241974763394, -0.5766288372196942 -2.4368913078579806, -0.43412044416733236 -2.462019382530519 C-0.29161205111497057 -2.4871474572030574, -0.1447068147224489 -2.4999999999999996, -7.120580697431198e-15 -2.5 C0.14470681472243463 -2.5000000000000004, 0.29161205111495647 -2.487147457203059, 0.4341204441673183 -2.4620193825305217 C0.5766288372196802 -2.436891307857984, 0.7190704323420518 -2.3987241974763442, 0.8550503583141642 -2.349231551964774 C0.9910302842862766 -2.2997389064532037, 1.1246802223496295 -2.2374169168223212, 1.2499999999999925 -2.165063509461101 C1.3753197776503554 -2.0927101020998804, 1.4961171729167668 -2.008126855338242, 1.6069690242163412 -1.915111107797451 C1.7178208755159157 -1.82209536025666, 1.8220953602566472 -1.7178208755159294, 1.915111107797439 -1.6069690242163557 C2.0081268553382308 -1.496117172916782, 2.09271010209987 -1.3753197776503712, 2.1650635094610915 -1.2500000000000089 C2.237416916822313 -1.1246802223496466, 2.299738906453196 -0.9910302842862939, 2.3492315519647673 -0.855050358314182 C2.3987241974763385 -0.71907043234207, 2.4368913078579792 -0.5766288372196986, 2.462019382530518 -0.4341204441673369 C2.487147457203057 -0.29161205111497523, 2.4936698970884197 -0.07235340736123454, 2.5 -1.1714553645825241e-14 C2.5063301029115803 0.07235340736121111, 2.50633010291158 -0.07235340736122292, 2.5 0" stroke="#9370DB" stroke-width="2" fill="none" stroke-dasharray="0 0" style=""/></g></g></g></g></g></g></svg>