<svg id="upstream_cypress_newshapes_spec_newshapessets_newshapesset2_lr_md_html_false_062" width="100%" xmlns="http://www.w3.org/2000/svg" xmlns:xlink="http://www.w3.org/1999/xlink" class="flowchart" style="max-width: 373.375px; background-color: white;" viewBox="0 0 373.375 678.2819213867188" role="graphics-document document" aria-roledescription="flowchart-v2"><style>#upstream_cypress_newshapes_spec_newshapessets_newshapesset2_lr_md_html_false_062{font-family:"trebuchet ms",verdana,arial,sans-serif;font-size:16px;fill:#333;}@keyframes edge-animation-frame{from{stroke-dashoffset:0;}}@keyframes dash{to{stroke-dashoffset:0;}}#upstream_cypress_newshapes_spec_newshapessets_newshapesset2_lr_md_html_false_062 .edge-animation-slow{stroke-dasharray:9,5!important;stroke-dashoffset:900;animation:dash 50s linear infinite;stroke-linecap:round;}#upstream_cypress_newshapes_spec_newshapessets_newshapesset2_lr_md_html_false_062 .edge-animation-fast{stroke-dasharray:9,5!important;stroke-dashoffset:900;animation:dash 20s linear infinite;stroke-linecap:round;}#upstream_cypress_newshapes_spec_newshapessets_newshapesset2_lr_md_html_false_062 .error-icon{fill:#552222;}#upstream_cypress_newshapes_spec_newshapessets_newshapesset2_lr_md_html_false_062 .error-text{fill:#552222;stroke:#552222;}#upstream_cypress_newshapes_spec_newshapessets_newshapesset2_lr_md_html_false_062 .edge-thickness-normal{stroke-width:1px;}#upstream_cypress_newshapes_spec_newshapessets_newshapesset2_lr_md_html_false_062 .edge-thickness-thick{stroke-width:3.5px;}#upstream_cypress_newshapes_spec_newshapessets_newshapesset2_lr_md_html_false_062 .edge-pattern-solid{stroke-dasharray:0;}#upstream_cypress_newshapes_spec_newshapessets_newshapesset2_lr_md_html_false_062 .edge-thickness-invisible{stroke-width:0;fill:none;}#upstream_cypress_newshapes_spec_newshapessets_newshapesset2_lr_md_html_false_062 .edge-pattern-dashed{stroke-dasharray:3;}#upstream_cypress_newshapes_spec_newshapessets_newshapesset2_lr_md_html_false_062 .edge-pattern-dotted{stroke-dasharray:2;}#upstream_cypress_newshapes_spec_newshapessets_newshapesset2_lr_md_html_false_062 .marker{fill:#333333;stroke:#333333;}#upstream_cypress_newshapes_spec_newshapessets_newshapesset2_lr_md_html_false_062 .marker.cross{stroke:#333333;}#upstream_cypress_newshapes_spec_newshapessets_newshapesset2_lr_md_html_false_062 svg{font-family:"trebuchet ms",verdana,arial,sans-serif;font-size:16px;}#upstream_cypress_newshapes_spec_newshapessets_newshapesset2_lr_md_html_false_062 p{margin:0;}#upstream_cypress_newshapes_spec_newshapessets_newshapesset2_lr_md_html_false_062 .label{font-family:"trebuchet ms",verdana,arial,sans-serif;color:#333;}#upstream_cypress_newshapes_spec_newshapessets_newshapesset2_lr_md_html_false_062 .cluster-label text{fill:#333;}#upstream_cypress_newshapes_spec_newshapessets_newshapesset2_lr_md_html_false_062 .cluster-label span{color:#333;}#upstream_cypress_newshapes_spec_newshapessets_newshapesset2_lr_md_html_false_062 .cluster-label span p{background-color:transparent;}#upstream_cypress_newshapes_spec_newshapessets_newshapesset2_lr_md_html_false_062 .label text,#upstream_cypress_newshapes_spec_newshapessets_newshapesset2_lr_md_html_false_062 span{fill:#333;color:#333;}#upstream_cypress_newshapes_spec_newshapessets_newshapesset2_lr_md_html_false_062 .node rect,#upstream_cypress_newshapes_spec_newshapessets_newshapesset2_lr_md_html_false_062 .node circle,#upstream_cypress_newshapes_spec_newshapessets_newshapesset2_lr_md_html_false_062 .node ellipse,#upstream_cypress_newshapes_spec_newshapessets_newshapesset2_lr_md_html_false_062 .node polygon,#upstream_cypress_newshapes_spec_newshapessets_newshapesset2_lr_md_html_false_062 .node path{fill:#ECECFF;stroke:#9370DB;stroke-width:1px;}#upstream_cypress_newshapes_spec_newshapessets_newshapesset2_lr_md_html_false_062 .rough-node .label text,#upstream_cypress_newshapes_spec_newshapessets_newshapesset2_lr_md_html_false_062 .node .label text,#upstream_cypress_newshapes_spec_newshapessets_newshapesset2_lr_md_html_false_062 .image-shape .label,#upstream_cypress_newshapes_spec_newshapessets_newshapesset2_lr_md_html_false_062 .icon-shape .label{text-anchor:middle;}#upstream_cypress_newshapes_spec_newshapessets_newshapesset2_lr_md_html_false_062 .node .katex path{fill:#000;stroke:#000;stroke-width:1px;}#upstream_cypress_newshapes_spec_newshapessets_newshapesset2_lr_md_html_false_062 .rough-node .label,#upstream_cypress_newshapes_spec_newshapessets_newshapesset2_lr_md_html_false_062 .node .label,#upstream_cypress_newshapes_spec_newshapessets_newshapesset2_lr_md_html_false_062 .image-shape .label,#upstream_cypress_newshapes_spec_newshapessets_newshapesset2_lr_md_html_false_062 .icon-shape .label{text-align:center;}#upstream_cypress_newshapes_spec_newshapessets_newshapesset2_lr_md_html_false_062 .node.clickable{cursor:pointer;}#upstream_cypress_newshapes_spec_newshapessets_newshapesset2_lr_md_html_false_062 .root .anchor path{fill:#333333!important;stroke-width:0;stroke:#333333;}#upstream_cypress_newshapes_spec_newshapessets_newshapesset2_lr_md_html_false_062 .arrowheadPath{fill:#333333;}#upstream_cypress_newshapes_spec_newshapessets_newshapesset2_lr_md_html_false_062 .edgePath .path{stroke:#333333;stroke-width:2.0px;}#upstream_cypress_newshapes_spec_newshapessets_newshapesset2_lr_md_html_false_062 .flowchart-link{stroke:#333333;fill:none;}#upstream_cypress_newshapes_spec_newshapessets_newshapesset2_lr_md_html_false_062 .edgeLabel{background-color:rgba(232,232,232, 0.8);text-align:center;}#upstream_cypress_newshapes_spec_newshapessets_newshapesset2_lr_md_html_false_062 .edgeLabel p{background-color:rgba(232,232,232, 0.8);}#upstream_cypress_newshapes_spec_newshapessets_newshapesset2_lr_md_html_false_062 .edgeLabel rect{opacity:0.5;background-color:rgba(232,232,232, 0.8);fill:rgba(232,232,232, 0.8);}#upstream_cypress_newshapes_spec_newshapessets_newshapesset2_lr_md_html_false_062 .labelBkg{background-color:rgba(232, 232, 232, 0.5);}#upstream_cypress_newshapes_spec_newshapessets_newshapesset2_lr_md_html_false_062 .cluster rect{fill:#ffffde;stroke:#aaaa33;stroke-width:1px;}#upstream_cypress_newshapes_spec_newshapessets_newshapesset2_lr_md_html_false_062 .cluster text{fill:#333;}#upstream_cypress_newshapes_spec_newshapessets_newshapesset2_lr_md_html_false_062 .cluster span{color:#333;}#upstream_cypress_newshapes_spec_newshapessets_newshapesset2_lr_md_html_false_062 div.mermaidTooltip{position:absolute;text-align:center;max-width:200px;padding:2px;font-family:"trebuchet ms",verdana,arial,sans-serif;font-size:12px;background:hsl(80, 100%, 96.2745098039%);border:1px solid #aaaa33;border-radius:2px;pointer-events:none;z-index:100;}#upstream_cypress_newshapes_spec_newshapessets_newshapesset2_lr_md_html_false_062 .flowchartTitleText{text-anchor:middle;font-size:18px;fill:#333;}#upstream_cypress_newshapes_spec_newshapessets_newshapesset2_lr_md_html_false_062 rect.text{fill:none;stroke-width:0;}#upstream_cypress_newshapes_spec_newshapessets_newshapesset2_lr_md_html_false_062 .icon-shape,#upstream_cypress_newshapes_spec_newshapessets_newshapesset2_lr_md_html_false_062 .image-shape{background-color:rgba(232,232,232, 0.8);text-align:center;}#upstream_cypress_newshapes_spec_newshapessets_newshapesset2_lr_md_html_false_062 .icon-shape p,#upstream_cypress_newshapes_spec_newshapessets_newshapesset2_lr_md_html_false_062 .image-shape p{background-color:rgba(232,232,232, 0.8);padding:2px;}#upstream_cypress_newshapes_spec_newshapessets_newshapesset2_lr_md_html_false_062 .icon-shape rect,#upstream_cypress_newshapes_spec_newshapessets_newshapesset2_lr_md_html_false_062 .image-shape rect{opacity:0.5;background-color:rgba(232,232,232, 0.8);fill:rgba(232,232,232, 0.8);}#upstream_cypress_newshapes_spec_newshapessets_newshapesset2_lr_md_html_false_062 .label-icon{display:inline-block;height:1em;overflow:visible;vertical-align:-0.125em;}#upstream_cypress_newshapes_spec_newshapessets_newshapesset2_lr_md_html_false_062 .node .label-icon path{fill:currentColor;stroke:revert;stroke-width:revert;}#upstream_cypress_newshapes_spec_newshapessets_newshapesset2_lr_md_html_false_062 :root{--mermaid-font-family:"trebuchet ms",verdana,arial,sans-serif;}</style><g><marker id="upstream_cypress_newshapes_spec_newshapessets_newshapesset2_lr_md_html_false_062_flowchart-v2-pointEnd" class="marker flowchart-v2" viewBox="0 0 10 10" refX="5" refY="5" markerUnits="userSpaceOnUse" markerWidth="8" markerHeight="8" orient="auto"><path d="M 0 0 L 10 5 L 0 10 z" class="arrowMarkerPath" style="stroke-width: 1; stroke-dasharray: 1, 0;"/></marker><marker id="upstream_cypress_newshapes_spec_newshapessets_newshapesset2_lr_md_html_false_062_flowchart-v2-pointStart" class="marker flowchart-v2" viewBox="0 0 10 10" refX="4.5" refY="5" markerUnits="userSpaceOnUse" markerWidth="8" markerHeight="8" orient="auto"><path d="M 0 5 L 10 10 L 10 0 z" class="arrowMarkerPath" style="stroke-width: 1; stroke-dasharray: 1, 0;"/></marker><marker id="upstream_cypress_newshapes_spec_newshapessets_newshapesset2_lr_md_html_false_062_flowchart-v2-circleEnd" class="marker flowchart-v2" viewBox="0 0 10 10" refX="11" refY="5" markerUnits="userSpaceOnUse" markerWidth="11" markerHeight="11" orient="auto"><circle cx="5" cy="5" r="5" class="arrowMarkerPath" style="stroke-width: 1; stroke-dasharray: 1, 0;"/></marker><marker id="upstream_cypress_newshapes_spec_newshapessets_newshapesset2_lr_md_html_false_062_flowchart-v2-circleStart" class="marker flowchart-v2" viewBox="0 0 10 10" refX="-1" refY="5" markerUnits="userSpaceOnUse" markerWidth="11" markerHeight="11" orient="auto"><circle cx="5" cy="5" r="5" class="arrowMarkerPath" style="stroke-width: 1; stroke-dasharray: 1, 0;"/></marker><marker id="upstream_cypress_newshapes_spec_newshapessets_newshapesset2_lr_md_html_false_062_flowchart-v2-crossEnd" class="marker cross flowchart-v2" viewBox="0 0 11 11" refX="12" refY="5.2" markerUnits="userSpaceOnUse" markerWidth="11" markerHeight="11" orient="auto"><path d="M 1,1 l 9,9 M 10,1 l -9,9" class="arrowMarkerPath" style="stroke-width: 2; stroke-dasharray: 1, 0;"/></marker><marker id="upstream_cypress_newshapes_spec_newshapessets_newshapesset2_lr_md_html_false_062_flowchart-v2-crossStart" class="marker cross flowchart-v2" viewBox="0 0 11 11" refX="-1" refY="5.2" markerUnits="userSpaceOnUse" markerWidth="11" markerHeight="11" orient="auto"><path d="M 1,1 l 9,9 M 10,1 l -9,9" class="arrowMarkerPath" style="stroke-width: 2; stroke-dasharray: 1, 0;"/></marker><g class="root"><g class="clusters"/><g class="edgePaths"><path d="M85.141,58.9L89.307,58.9C93.474,58.9,101.807,58.9,110.525,58.973C119.242,59.045,128.344,59.191,132.895,59.263L137.446,59.336" id="L_n0_n00_0" class="edge-thickness-normal edge-pattern-solid edge-thickness-normal edge-pattern-solid flowchart-link" style=";" data-edge="true" data-et="edge" data-id="L_n0_n00_0" data-points="W3sieCI6ODUuMTQwNjI1LCJ5Ijo1OC45MDAwMDE1MjU4Nzg5MDZ9LHsieCI6MTEwLjE0MDYyNSwieSI6NTguOTAwMDAxNTI1ODc4OTA2fSx7IngiOjE0MS40NDQ5OTk2OTQ4MjQyMiwieSI6NTkuNDAwMDAxNTI1ODc4OTA2fV0=" marker-end="url(#upstream_cypress_newshapes_spec_newshapessets_newshapesset2_lr_md_html_false_062_flowchart-v2-pointEnd)"/><path d="M85.141,241.141L89.307,241.141C93.474,241.141,101.807,241.141,110.603,241.214C119.399,241.287,128.657,241.432,133.286,241.505L137.915,241.578" id="L_n1_n11_0" class="edge-thickness-normal edge-pattern-solid edge-thickness-normal edge-pattern-solid flowchart-link" style=";" data-edge="true" data-et="edge" data-id="L_n1_n11_0" data-points="W3sieCI6ODUuMTQwNjI1LCJ5IjoyNDEuMTQwOTY4MzIyNzUzOX0seyJ4IjoxMTAuMTQwNjI1LCJ5IjoyNDEuMTQwOTY4MzIyNzUzOX0seyJ4IjoxNDEuOTE0MDYyNSwieSI6MjQxLjY0MDk2ODMyMjc1MzkzfV0=" marker-end="url(#upstream_cypress_newshapes_spec_newshapessets_newshapesset2_lr_md_html_false_062_flowchart-v2-pointEnd)"/><path d="M85.141,407.482L89.307,407.482C93.474,407.482,101.807,407.482,126.357,407.563C150.907,407.643,191.673,407.805,212.056,407.885L232.44,407.966" id="L_n2_n22_0" class="edge-thickness-normal edge-pattern-solid edge-thickness-normal edge-pattern-solid flowchart-link" style=";" data-edge="true" data-et="edge" data-id="L_n2_n22_0" data-points="W3sieCI6ODUuMTQwNjI1LCJ5Ijo0MDcuNDgxOTMzNTkzNzV9LHsieCI6MTEwLjE0MDYyNSwieSI6NDA3LjQ4MTkzMzU5Mzc1fSx7IngiOjIzNi40Mzk2MzA2ODE4MTgyLCJ5Ijo0MDcuOTgxOTMzNTkzNzV9XQ==" marker-end="url(#upstream_cypress_newshapes_spec_newshapessets_newshapesset2_lr_md_html_false_062_flowchart-v2-pointEnd)"/><path d="M85.141,506.482L89.307,506.482C93.474,506.482,101.807,506.482,127.493,506.482C153.18,506.482,196.219,506.482,217.738,506.482L239.258,506.482" id="L_n3_n33_0" class="edge-thickness-normal edge-pattern-solid edge-thickness-normal edge-pattern-solid flowchart-link" style=";" data-edge="true" data-et="edge" data-id="L_n3_n33_0" data-points="W3sieCI6ODUuMTQwNjI1LCJ5Ijo1MDYuNDgxOTMzNTkzNzV9LHsieCI6MTEwLjE0MDYyNSwieSI6NTA2LjQ4MTkzMzU5Mzc1fSx7IngiOjI0My4yNTc4MTI1LCJ5Ijo1MDYuNDgxOTMzNTkzNzV9XQ==" marker-end="url(#upstream_cypress_newshapes_spec_newshapessets_newshapesset2_lr_md_html_false_062_flowchart-v2-pointEnd)"/><path d="M85.141,616.882L89.307,616.882C93.474,616.882,101.807,616.882,109.557,616.952C117.308,617.022,124.474,617.163,128.058,617.233L131.641,617.304" id="L_n4_n44_0" class="edge-thickness-normal edge-pattern-solid edge-thickness-normal edge-pattern-solid flowchart-link" style=";" data-edge="true" data-et="edge" data-id="L_n4_n44_0" data-points="W3sieCI6ODUuMTQwNjI1LCJ5Ijo2MTYuODgxOTM1MTE5NjI4OX0seyJ4IjoxMTAuMTQwNjI1LCJ5Ijo2MTYuODgxOTM1MTE5NjI4OX0seyJ4IjoxMzUuNjQwNjI1LCJ5Ijo2MTcuMzgxOTM1MTE5NjI4OX1d" marker-end="url(#upstream_cypress_newshapes_spec_newshapessets_newshapesset2_lr_md_html_false_062_flowchart-v2-pointEnd)"/></g><g class="edgeLabels"><g><rect class="background" style="stroke: none"/></g><g><rect class="background" style="stroke: none"/></g><g><rect class="background" style="stroke: none"/></g><g><rect class="background" style="stroke: none"/></g><g><rect class="background" style="stroke: none"/></g><g class="edgeLabel"><g class="label" data-id="L_n0_n00_0" transform="translate(0, 0)"><text y="-10.1"><tspan class="text-outer-tspan" x="0" y="-0.1em" dy="1.1em"/></text></g></g><g class="edgeLabel"><g class="label" data-id="L_n1_n11_0" transform="translate(0, 0)"><text y="-10.1"><tspan class="text-outer-tspan" x="0" y="-0.1em" dy="1.1em"/></text></g></g><g class="edgeLabel"><g class="label" data-id="L_n2_n22_0" transform="translate(0, 0)"><text y="-10.1"><tspan class="text-outer-tspan" x="0" y="-0.1em" dy="1.1em"/></text></g></g><g class="edgeLabel"><g class="label" data-id="L_n3_n33_0" transform="translate(0, 0)"><text y="-10.1"><tspan class="text-outer-tspan" x="0" y="-0.1em" dy="1.1em"/></text></g></g><g class="edgeLabel"><g class="label" data-id="L_n4_n44_0" transform="translate(0, 0)"><text y="-10.1"><tspan class="text-outer-tspan" x="0" y="-0.1em" dy="1.1em"/></text></g></g></g><g class="nodes"><g class="node default" id="flowchart-n0-0" transform="translate(46.5703125, 58.900001525878906)"><rect class="basic label-container" style="" x="-38.5703125" y="-24.5" width="77.140625" height="49"/><g class="label" style="" transform="translate(0, -9.5)"><rect/><g><rect class="background" style="stroke: none"/><text y="-10.1" style=""><tspan class="text-outer-tspan" x="0" y="-0.1em" dy="1.1em"><tspan font-style="normal" class="text-inner-tspan" font-weight="normal">n0</tspan></tspan></text></g></g></g><g class="node default" id="flowchart-n00-1" transform="translate(250.2578125, 58.900001525878906)"><g class="basic label-container"><g><path d="M-109.31281280517578 -50.900001525878906 C-61.2185671221507 -50.900001525878906, -13.124321439125623 -50.900001525878906, 109.31281280517578 -50.900001525878906 C109.31281280517578 -17.778774218721246, 109.31281280517578 15.342453088436415, 109.31281280517578 50.900001525878906 C35.98097305555028 50.900001525878906, -37.35086669407522 50.900001525878906, -109.31281280517578 50.900001525878906 C-109.31281280517578 26.138112160981954, -109.31281280517578 1.3762227960850026, -109.31281280517578 -50.900001525878906" stroke="none" stroke-width="0" fill="#ECECFF" style=""/><path d="M-109.31281280517578 -50.900001525878906 C-65.5867048325414 -50.900001525878906, -21.86059685990702 -50.900001525878906, 109.31281280517578 -50.900001525878906 M-109.31281280517578 -50.900001525878906 C-60.91961696961174 -50.900001525878906, -12.526421134047695 -50.900001525878906, 109.31281280517578 -50.900001525878906 M109.31281280517578 -50.900001525878906 C109.31281280517578 -28.758266079899332, 109.31281280517578 -6.6165306339197585, 109.31281280517578 50.900001525878906 M109.31281280517578 -50.900001525878906 C109.31281280517578 -23.577312869374445, 109.31281280517578 3.7453757871300155, 109.31281280517578 50.900001525878906 M109.31281280517578 50.900001525878906 C62.161282704184245 50.900001525878906, 15.009752603192709 50.900001525878906, -109.31281280517578 50.900001525878906 M109.31281280517578 50.900001525878906 C27.12868917911814 50.900001525878906, -55.0554344469395 50.900001525878906, -109.31281280517578 50.900001525878906 M-109.31281280517578 50.900001525878906 C-109.31281280517578 21.702812111343466, -109.31281280517578 -7.494377303191975, -109.31281280517578 -50.900001525878906 M-109.31281280517578 50.900001525878906 C-109.31281280517578 13.86859433448938, -109.31281280517578 -23.162812856900146, -109.31281280517578 -50.900001525878906" stroke="#9370DB" stroke-width="1.3" fill="none" stroke-dasharray="0 0" style=""/></g><path d="M88.95281219482422 50.900001525878906 C94.79225007773131 50.900001525878906, 100.6316879606384 50.900001525878906, 109.31281280517578 50.900001525878906 C109.31281280517578 43.493720087601, 109.31281280517578 36.0874386493231, 109.31281280517578 30.540000915527344 C104.83392855394908 35.018885166754046, 100.35504430272238 39.49776941798075, 88.95281219482422 50.900001525878906" stroke="none" stroke-width="0" fill="#ECECFF" style=""/><path d="M88.95281219482422 50.900001525878906 C93.02490384705267 50.900001525878906, 97.0969954992811 50.900001525878906, 109.31281280517578 50.900001525878906 M88.95281219482422 50.900001525878906 C93.4595368479762 50.900001525878906, 97.96626150112819 50.900001525878906, 109.31281280517578 50.900001525878906 M109.31281280517578 50.900001525878906 C109.31281280517578 46.47165443668299, 109.31281280517578 42.04330734748708, 109.31281280517578 30.540000915527344 M109.31281280517578 50.900001525878906 C109.31281280517578 45.43546379457801, 109.31281280517578 39.97092606327712, 109.31281280517578 30.540000915527344 M109.31281280517578 30.540000915527344 C104.92172105207004 34.931092668633084, 100.5306292989643 39.322184421738825, 88.95281219482422 50.900001525878906 M109.31281280517578 30.540000915527344 C101.65923238652007 38.19358133418306, 94.00565196786435 45.84716175283877, 88.95281219482422 50.900001525878906" stroke="#9370DB" stroke-width="1.3" fill="none" stroke-dasharray="0 0" style=""/></g><g class="label" style="" transform="translate(0, -35.900001525878906)"><rect/><g><rect class="background" style="stroke: none"/><text y="-10.1" style=""><tspan class="text-outer-tspan" x="0" y="-0.1em" dy="1.1em"><tspan font-style="normal" class="text-inner-tspan" font-weight="normal">This</tspan><tspan font-style="normal" class="text-inner-tspan" font-weight="normal"> is</tspan><tspan font-style="normal" class="text-inner-tspan" font-weight="bold"> bold</tspan></tspan><tspan class="text-outer-tspan" x="0" y="1em" dy="1.1em"><tspan font-style="normal" class="text-inner-tspan" font-weight="normal">and</tspan><tspan font-style="normal" class="text-inner-tspan" font-weight="normal"> &lt;strong&gt;</tspan><tspan font-style="normal" class="text-inner-tspan" font-weight="normal"> strong</tspan></tspan><tspan class="text-outer-tspan" x="0" y="2.1em" dy="1.1em"><tspan font-style="normal" class="text-inner-tspan" font-weight="normal">&lt;/strong&gt;</tspan><tspan font-style="normal" class="text-inner-tspan" font-weight="normal"> for</tspan></tspan><tspan class="text-outer-tspan" x="0" y="3.2em" dy="1.1em"><tspan font-style="normal" class="text-inner-tspan" font-weight="normal">tagged-rectangle</tspan><tspan font-style="normal" class="text-inner-tspan" font-weight="normal"> shape</tspan></tspan></text></g></g></g><g class="node default" id="flowchart-n1-3" transform="translate(46.5703125, 241.1409683227539)"><rect class="basic label-container" style="" x="-38.5703125" y="-24.5" width="77.140625" height="49"/><g class="label" style="" transform="translate(0, -9.5)"><rect/><g><rect class="background" style="stroke: none"/><text y="-10.1" style=""><tspan class="text-outer-tspan" x="0" y="-0.1em" dy="1.1em"><tspan font-style="normal" class="text-inner-tspan" font-weight="normal">n1</tspan></tspan></text></g></g></g><g class="node default" id="flowchart-n11-4" transform="translate(250.2578125, 241.1409683227539)"><g class="basic label-container" transform="translate(0,-12.725000381469727)"><path d="M-108.84375 -58.62500190734863 C-108.84375 -25.76440035196775, -108.84375 7.0962012034131305, -108.84375 68.62500190734863 C-108.84375 68.62500190734863, -108.84375 68.62500190734863, -108.84375 68.62500190734863 C-107.81785948261374 69.2558380017508, -106.79196896522748 69.88667409615296, -104.69 71.17920762688196 C-103.62232667309476 71.82910701562552, -102.55465334618953 72.47900640436907, -100.53625 73.70762106380691 C-99.26063803207256 74.46833241713296, -97.98502606414515 75.229043770459, -96.3825 76.18471038510891 C-95.43430590782371 76.7327401229545, -94.48611181564745 77.28076986080006, -92.22874999999999 78.58546202694986 C-90.84052634789549 79.35420163296043, -89.452302695791 80.12294123897101, -88.075 80.88563328078617 C-86.78757285429224 81.56018274907173, -85.50014570858445 82.23473221735728, -83.92125 83.06199709541644 C-82.45932160644361 83.77666742143117, -80.99739321288722 84.4913377474459, -79.7675 85.0925766229555 C-78.22957624678372 85.78282920664903, -76.69165249356743 86.47308179034255, -75.61375 86.95686714029804 C-74.17499224872643 87.53849276416423, -72.73623449745286 88.12011838803042, -71.46000000000001 88.63604310511604 C-70.48259550805821 88.98361559000334, -69.50519101611641 89.33118807489063, -67.30625 90.11314825554601 C-66.47426782415191 90.36554577506045, -65.64228564830381 90.61794329457491, -63.152499999999996 91.37326683394518 C-62.30196340560226 91.5842567049821, -61.45142681120452 91.79524657601903, -58.99875 92.40367420570581 C-57.63760383427644 92.66264543985157, -56.27645766855287 92.92161667399735, -54.845 93.1939653521832 C-53.73416370787902 93.338964311144, -52.62332741575804 93.48396327010481, -50.69125 93.73615994022052 C-49.82702157655486 93.79621077905138, -48.96279315310973 93.85626161788224, -46.5375 94.02478290728212 C-45.63655384057818 94.03175337098966, -44.73560768115637 94.03872383469722, -42.38374999999999 94.05691974844899 C-41.46657298809045 94.00731020385048, -40.549395976180904 93.95770065925197, -38.22999999999999 93.8322459469905 C-37.120212542866 93.70421042046308, -36.01042508573201 93.57617489393569, -34.07625 93.35303025132328 C-32.49943048938492 93.07632296502487, -30.922610978769836 92.79961567872647, -29.9225 92.62411176526672 C-28.392662523635313 92.2663938017043, -26.862825047270626 91.90867583814187, -25.768749999999997 91.65285108293709 C-24.2451018280884 91.21128376766738, -22.72145365617681 90.76971645239767, -21.61500000000001 90.449055961718 C-20.692968117755495 90.13292390349616, -19.77093623551098 89.81679184527432, -17.461249999999993 89.02488228385951 C-16.34901992274948 88.58837907789976, -15.236789845498969 88.15187587194, -13.30749999999999 87.39471130679202 C-11.657707942322473 86.67195766649881, -10.007915884644957 85.94920402620562, -9.153750000000002 85.57500444167708 C-8.301257706565202 85.16641000807553, -7.448765413130402 84.75781557447398, -5 83.58413702663664 C-3.563572552908793 82.84342832071827, -2.1271451058175868 82.10271961479991, -0.8462499999999977 81.44221277321276 C0.29088202886900705 80.82040666467938, 1.4280140577380118 80.19860055614602, 3.3075000000000045 79.1708607597712 C4.629662900186498 78.41397920147261, 5.951825800372992 77.65709764317401, 7.461250000000007 76.79301702180265 C9.01490178980923 75.87276739049776, 10.568553579618454 74.95251775919286, 11.614999999999995 74.3326929446154 C13.190291015687745 73.37776787736006, 14.765582031375493 72.42284281010471, 15.768749999999997 71.81473279718185 C17.21126953661313 70.92910656486616, 18.653789073226264 70.04348033255047, 19.922499999999985 69.26456285555433 C21.264199485092767 68.43874841124529, 22.605898970185553 67.61293396693623, 24.076250000000016 66.70793464919295 C24.946953839989977 66.17607536691136, 25.817657679979938 65.64421608462978, 28.230000000000018 64.17066492289587 C29.432023436422828 63.449439290737466, 30.634046872845637 62.72821365857906, 32.38375000000002 61.678374940186906 C33.573584037250505 60.9845564874425, 34.76341807450098 60.29073803469809, 36.537499999999994 59.25623176066685 C37.697172777972526 58.60641362999979, 38.856845555945064 57.956595499332735, 40.69125 56.92869410390017 C41.716485388557075 56.3833592786237, 42.74172077711415 55.83802445334723, 44.845 54.7192653660957 C46.38148454206006 53.953932721468206, 47.917969084120124 53.188600076840714, 48.99875 52.65025628360981 C49.98658923317364 52.19657043596333, 50.974428466347284 51.742884588316855, 53.1525 50.74255963988854 C54.11325022877695 50.34308175352941, 55.07400045755389 49.94360386717028, 57.306250000000006 49.015439290849855 C58.630968145715656 48.52777600968813, 59.9556862914313 48.04011272852641, 61.45999999999998 47.48633563912083 C62.87661814973816 47.0376403230972, 64.29323629947633 46.588945007073576, 65.61374999999998 46.170689521444295 C67.26024609240015 45.73906149388585, 68.90674218480031 45.3074334663274, 69.76749999999998 45.08178628763379 C71.01512077183217 44.82613038930157, 72.26274154366436 44.570474490969346, 73.92125000000001 44.23062164556232 C74.99138358729579 44.07479859705612, 76.06151717459156 43.91897554854993, 78.07500000000002 43.62579062687781 C79.11182706097084 43.537829792920796, 80.14865412194168 43.44986895896378, 82.22875000000002 43.273400794665264 C83.49808784857265 43.2439450592317, 84.76742569714528 43.214489323798134, 86.3825 43.1770105694823 C87.9773698258394 43.23866775779405, 89.57223965167883 43.30032494610579, 90.53625 43.337593296549144 C92.1690979547525 43.50109788343925, 93.80194590950501 43.66460247032935, 94.69 43.7535274169417 C96.22259806164668 43.9996601474758, 97.75519612329337 44.2457928780099, 98.84375 44.42061284203844 C98.84375 42.634160839680746, 98.84375 40.847708837323054, 98.84375 39.42061284203844 C100.12494686292484 39.42061284203844, 101.40614372584969 39.42061284203844, 103.84375 39.42061284203844 C103.84375 38.150992312196806, 103.84375 36.881371782355174, 103.84375 34.42061284203844 C105.33893738733605 34.42061284203844, 106.83412477467209 34.42061284203844, 108.84375 34.42061284203844 C108.84375 4.3517520121708095, 108.84375 -25.71710881769682, 108.84375 -68.62500190734863 C53.20237183052231 -68.62500190734863, -2.43900633895538 -68.62500190734863, -98.84375 -68.62500190734863 C-98.84375 -67.28938678698614, -98.84375 -65.95377166662365, -98.84375 -63.62500190734863 C-100.17530991183594 -63.62500190734863, -101.50686982367188 -63.62500190734863, -103.84375 -63.62500190734863 C-103.84375 -62.13566838996485, -103.84375 -60.646334872581065, -103.84375 -58.62500190734863 C-105.07494410919026 -58.62500190734863, -106.30613821838051 -58.62500190734863, -108.84375 -58.62500190734863" stroke="none" stroke-width="0" fill="#ECECFF" style=""/><path d="M-108.84375 -58.62500190734863 C-108.84375 -33.17442908092084, -108.84375 -7.723856254493043, -108.84375 68.62500190734863 M-108.84375 -58.62500190734863 C-108.84375 -30.457972825148747, -108.84375 -2.290943742948862, -108.84375 68.62500190734863 M-108.84375 68.62500190734863 C-108.84375 68.62500190734863, -108.84375 68.62500190734863, -108.84375 68.62500190734863 M-108.84375 68.62500190734863 C-108.84375 68.62500190734863, -108.84375 68.62500190734863, -108.84375 68.62500190734863 M-108.84375 68.62500190734863 C-107.94790045075247 69.17587378036202, -107.05205090150493 69.72674565337543, -104.69 71.17920762688196 M-108.84375 68.62500190734863 C-107.28230310849904 69.58515997680858, -105.72085621699807 70.54531804626855, -104.69 71.17920762688196 M-104.69 71.17920762688196 C-103.49866579670959 71.90438015952542, -102.30733159341919 72.62955269216886, -100.53625 73.70762106380691 M-104.69 71.17920762688196 C-103.17900586434139 72.09895914676497, -101.66801172868279 73.01871066664796, -100.53625 73.70762106380691 M-100.53625 73.70762106380691 C-99.62248944495 74.25254228273951, -98.70872888990002 74.79746350167213, -96.3825 76.18471038510891 M-100.53625 73.70762106380691 C-99.18480310606269 74.51355658454814, -97.83335621212538 75.31949210528936, -96.3825 76.18471038510891 M-96.3825 76.18471038510891 C-94.98924095953011 76.98997524912765, -93.59598191906022 77.79524011314638, -92.22874999999999 78.58546202694986 M-96.3825 76.18471038510891 C-95.37213953962608 76.768670549802, -94.36177907925214 77.35263071449506, -92.22874999999999 78.58546202694986 M-92.22874999999999 78.58546202694986 C-91.31960570040472 79.08890772866955, -90.41046140080947 79.59235343038924, -88.075 80.88563328078617 M-92.22874999999999 78.58546202694986 C-90.96283352822122 79.28647308398106, -89.69691705644247 79.98748414101227, -88.075 80.88563328078617 M-88.075 80.88563328078617 C-86.59629966717714 81.66040063487281, -85.11759933435428 82.43516798895946, -83.92125 83.06199709541644 M-88.075 80.88563328078617 C-86.75542474851443 81.57702679941748, -85.43584949702885 82.26842031804881, -83.92125 83.06199709541644 M-83.92125 83.06199709541644 C-82.81340934284904 83.60357002546426, -81.70556868569808 84.14514295551209, -79.7675 85.0925766229555 M-83.92125 83.06199709541644 C-82.98339684689849 83.52047086310249, -82.04554369379696 83.97894463078853, -79.7675 85.0925766229555 M-79.7675 85.0925766229555 C-78.3568565375706 85.72570313041464, -76.94621307514119 86.35882963787378, -75.61375 86.95686714029804 M-79.7675 85.0925766229555 C-78.41952509574277 85.69757616111319, -77.07155019148556 86.30257569927086, -75.61375 86.95686714029804 M-75.61375 86.95686714029804 C-74.09223823239037 87.57194652407362, -72.57072646478075 88.18702590784922, -71.46000000000001 88.63604310511604 M-75.61375 86.95686714029804 C-74.04934904964327 87.589284708803, -72.48494809928653 88.22170227730795, -71.46000000000001 88.63604310511604 M-71.46000000000001 88.63604310511604 C-69.89904142300541 89.19113186916938, -68.3380828460108 89.74622063322272, -67.30625 90.11314825554601 M-71.46000000000001 88.63604310511604 C-70.51402020167245 88.97244072950662, -69.56804040334491 89.30883835389719, -67.30625 90.11314825554601 M-67.30625 90.11314825554601 C-65.77398296351114 90.57799042460968, -64.24171592702227 91.04283259367337, -63.152499999999996 91.37326683394518 M-67.30625 90.11314825554601 C-65.96852463962941 90.51897252985205, -64.63079927925882 90.92479680415809, -63.152499999999996 91.37326683394518 M-63.152499999999996 91.37326683394518 C-61.68822441015148 91.73650495902952, -60.22394882030296 92.09974308411385, -58.99875 92.40367420570581 M-63.152499999999996 91.37326683394518 C-61.83203070228977 91.70083139573734, -60.51156140457955 92.02839595752951, -58.99875 92.40367420570581 M-58.99875 92.40367420570581 C-57.85996186506876 92.62033967203133, -56.72117373013752 92.83700513835686, -54.845 93.1939653521832 M-58.99875 92.40367420570581 C-58.153861635655744 92.56442239567946, -57.308973271311494 92.7251705856531, -54.845 93.1939653521832 M-54.845 93.1939653521832 C-53.780890820053756 93.33286495818926, -52.716781640107506 93.47176456419533, -50.69125 93.73615994022052 M-54.845 93.1939653521832 C-53.54859324920608 93.36318707332084, -52.25218649841216 93.53240879445849, -50.69125 93.73615994022052 M-50.69125 93.73615994022052 C-49.31954600029567 93.83147267650097, -47.947842000591336 93.92678541278143, -46.5375 94.02478290728212 M-50.69125 93.73615994022052 C-49.7002765721461 93.80501764495152, -48.70930314429221 93.87387534968252, -46.5375 94.02478290728212 M-46.5375 94.02478290728212 C-45.409266208132145 94.03351185586313, -44.28103241626429 94.04224080444413, -42.38374999999999 94.05691974844899 M-46.5375 94.02478290728212 C-45.48228550965769 94.0329469182296, -44.42707101931539 94.04111092917708, -42.38374999999999 94.05691974844899 M-42.38374999999999 94.05691974844899 C-40.99778416679927 93.98195370272241, -39.61181833359854 93.90698765699582, -38.22999999999999 93.8322459469905 M-42.38374999999999 94.05691974844899 C-41.4615394991493 94.00703794550681, -40.53932899829861 93.95715614256464, -38.22999999999999 93.8322459469905 M-38.22999999999999 93.8322459469905 C-37.05819136418157 93.69705507353818, -35.88638272836315 93.56186420008585, -34.07625 93.35303025132328 M-38.22999999999999 93.8322459469905 C-37.34135116650594 93.72972305347338, -36.45270233301189 93.62720015995626, -34.07625 93.35303025132328 M-34.07625 93.35303025132328 C-32.70777789656201 93.11288469276808, -31.33930579312402 92.87273913421288, -29.9225 92.62411176526672 M-34.07625 93.35303025132328 C-33.14264898233919 93.1891978010376, -32.209047964678376 93.0253653507519, -29.9225 92.62411176526672 M-29.9225 92.62411176526672 C-28.388247312371966 92.26536140420703, -26.853994624743933 91.90661104314735, -25.768749999999997 91.65285108293709 M-29.9225 92.62411176526672 C-28.308324918237165 92.24667335628388, -26.694149836474327 91.86923494730105, -25.768749999999997 91.65285108293709 M-25.768749999999997 91.65285108293709 C-24.47680645594129 91.27843390924383, -23.184862911882583 90.90401673555057, -21.61500000000001 90.449055961718 M-25.768749999999997 91.65285108293709 C-24.545957103014576 91.29847440556064, -23.32316420602915 90.9440977281842, -21.61500000000001 90.449055961718 M-21.61500000000001 90.449055961718 C-20.312630311248245 90.00251954774002, -19.01026062249648 89.55598313376206, -17.461249999999993 89.02488228385951 M-21.61500000000001 90.449055961718 C-20.77840747896268 90.16221803272501, -19.941814957925352 89.87538010373203, -17.461249999999993 89.02488228385951 M-17.461249999999993 89.02488228385951 C-16.13095184566953 88.5027965921265, -14.800653691339065 87.9807109003935, -13.30749999999999 87.39471130679202 M-17.461249999999993 89.02488228385951 C-15.986544458099283 88.44612280769289, -14.511838916198574 87.86736333152626, -13.30749999999999 87.39471130679202 M-13.30749999999999 87.39471130679202 C-12.089526853730314 86.86113222865959, -10.871553707460638 86.32755315052717, -9.153750000000002 85.57500444167708 M-13.30749999999999 87.39471130679202 C-12.4673405784188 87.02664778172617, -11.62718115683761 86.6585842566603, -9.153750000000002 85.57500444167708 M-9.153750000000002 85.57500444167708 C-7.710473800854176 84.8832508320995, -6.267197601708351 84.19149722252193, -5 83.58413702663664 M-9.153750000000002 85.57500444167708 C-7.876845160142171 84.96299162487772, -6.59994032028434 84.35097880807834, -5 83.58413702663664 M-5 83.58413702663664 C-3.3989886671131235 82.7585589336082, -1.797977334226247 81.93298084057976, -0.8462499999999977 81.44221277321276 M-5 83.58413702663664 C-3.472781961966887 82.79661121118565, -1.9455639239337743 82.00908539573466, -0.8462499999999977 81.44221277321276 M-0.8462499999999977 81.44221277321276 C0.11481520902237674 80.91668345691745, 1.0758804180447512 80.39115414062216, 3.3075000000000045 79.1708607597712 M-0.8462499999999977 81.44221277321276 C0.5194781626829674 80.69540581272554, 1.8852063253659326 79.94859885223832, 3.3075000000000045 79.1708607597712 M3.3075000000000045 79.1708607597712 C4.4109422869334285 78.53918737254416, 5.514384573866852 77.90751398531711, 7.461250000000007 76.79301702180265 M3.3075000000000045 79.1708607597712 C4.141069609406759 78.69367790671343, 4.974639218813513 78.21649505365565, 7.461250000000007 76.79301702180265 M7.461250000000007 76.79301702180265 C8.953174980102691 75.90932904108553, 10.445099960205376 75.0256410603684, 11.614999999999995 74.3326929446154 M7.461250000000007 76.79301702180265 C9.010659366577285 75.87528023696737, 10.560068733154562 74.9575434521321, 11.614999999999995 74.3326929446154 M11.614999999999995 74.3326929446154 C12.893358812364395 73.55776509781334, 14.171717624728798 72.78283725101129, 15.768749999999997 71.81473279718185 M11.614999999999995 74.3326929446154 C12.574099359090784 73.75129686550143, 13.533198718181575 73.16990078638746, 15.768749999999997 71.81473279718185 M15.768749999999997 71.81473279718185 C17.291062574154342 70.8801181072342, 18.813375148308683 69.94550341728656, 19.922499999999985 69.26456285555433 M15.768749999999997 71.81473279718185 C16.89220379211695 71.12499506827083, 18.0156575842339 70.43525733935982, 19.922499999999985 69.26456285555433 M19.922499999999985 69.26456285555433 C21.10261347875988 68.53820440680205, 22.282726957519774 67.81184595804977, 24.076250000000016 66.70793464919295 M19.922499999999985 69.26456285555433 C21.228901494848888 68.46047428244248, 22.535302989697787 67.65638570933064, 24.076250000000016 66.70793464919295 M24.076250000000016 66.70793464919295 C25.062257318569944 66.10564358224987, 26.048264637139876 65.50335251530677, 28.230000000000018 64.17066492289587 M24.076250000000016 66.70793464919295 C25.02376326425317 66.12915722622468, 25.971276528506323 65.5503798032564, 28.230000000000018 64.17066492289587 M28.230000000000018 64.17066492289587 C29.332693621324978 63.50903813591416, 30.435387242649934 62.847411348932454, 32.38375000000002 61.678374940186906 M28.230000000000018 64.17066492289587 C29.61840420881975 63.33760903325581, 31.006808417639483 62.50455314361576, 32.38375000000002 61.678374940186906 M32.38375000000002 61.678374940186906 C33.23248580636702 61.1834583841577, 34.08122161273403 60.68854182812849, 36.537499999999994 59.25623176066685 M32.38375000000002 61.678374940186906 C33.75226109231206 60.8803659583413, 35.12077218462411 60.082356976495696, 36.537499999999994 59.25623176066685 M36.537499999999994 59.25623176066685 C37.871096340889686 58.50895623798325, 39.204692681779385 57.76168071529965, 40.69125 56.92869410390017 M36.537499999999994 59.25623176066685 C37.78124467751697 58.5593042680821, 39.02498935503396 57.86237677549735, 40.69125 56.92869410390017 M40.69125 56.92869410390017 C41.72254689618817 56.38013509104511, 42.75384379237634 55.831576078190054, 44.845 54.7192653660957 M40.69125 56.92869410390017 C41.66576706999482 56.4103369519465, 42.64028413998964 55.891979799992825, 44.845 54.7192653660957 M44.845 54.7192653660957 C45.752703503909174 54.267132523774336, 46.66040700781834 53.81499968145298, 48.99875 52.65025628360981 M44.845 54.7192653660957 C45.86639406182931 54.21050253956016, 46.88778812365862 53.701739713024615, 48.99875 52.65025628360981 M48.99875 52.65025628360981 C50.65443671230099 51.889847500194705, 52.310123424601976 51.129438716779596, 53.1525 50.74255963988854 M48.99875 52.65025628360981 C50.16262247537764 52.115723484332655, 51.32649495075527 51.5811906850555, 53.1525 50.74255963988854 M53.1525 50.74255963988854 C54.49815674246347 50.18303844994457, 55.84381348492695 49.6235172600006, 57.306250000000006 49.015439290849855 M53.1525 50.74255963988854 C54.548532507020404 50.162092314990694, 55.944565014040805 49.58162499009285, 57.306250000000006 49.015439290849855 M57.306250000000006 49.015439290849855 C58.27447364459804 48.659010928371316, 59.24269728919607 48.30258256589277, 61.45999999999998 47.48633563912083 M57.306250000000006 49.015439290849855 C58.88231507091166 48.435248654607044, 60.458380141823305 47.85505801836423, 61.45999999999998 47.48633563912083 M61.45999999999998 47.48633563912083 C62.713982454257646 47.08915305769956, 63.96796490851532 46.69197047627829, 65.61374999999998 46.170689521444295 M61.45999999999998 47.48633563912083 C62.95117414272889 47.01402568506464, 64.4423482854578 46.54171573100844, 65.61374999999998 46.170689521444295 M65.61374999999998 46.170689521444295 C67.18392334859688 45.759069458385554, 68.75409669719379 45.34744939532682, 69.76749999999998 45.08178628763379 M65.61374999999998 46.170689521444295 C66.95160410342305 45.81997181826427, 68.28945820684613 45.46925411508424, 69.76749999999998 45.08178628763379 M69.76749999999998 45.08178628763379 C70.66171680262184 44.89854807523827, 71.55593360524368 44.71530986284274, 73.92125000000001 44.23062164556232 M69.76749999999998 45.08178628763379 C70.7235420829685 44.88587916338338, 71.67958416593703 44.68997203913296, 73.92125000000001 44.23062164556232 M73.92125000000001 44.23062164556232 C74.78537374544017 44.104795862781934, 75.64949749088032 43.97897008000154, 78.07500000000002 43.62579062687781 M73.92125000000001 44.23062164556232 C75.06139530411306 44.06460413229478, 76.20154060822611 43.898586619027235, 78.07500000000002 43.62579062687781 M78.07500000000002 43.62579062687781 C79.01178071651108 43.54631737992956, 79.94856143302216 43.466844132981315, 82.22875000000002 43.273400794665264 M78.07500000000002 43.62579062687781 C79.28669342612791 43.522994733257285, 80.4983868522558 43.42019883963676, 82.22875000000002 43.273400794665264 M82.22875000000002 43.273400794665264 C83.6671100218954 43.24002279974388, 85.10547004379076 43.20664480482251, 86.3825 43.1770105694823 M82.22875000000002 43.273400794665264 C83.38986588855776 43.24645641381384, 84.5509817771155 43.21951203296242, 86.3825 43.1770105694823 M86.3825 43.1770105694823 C87.59735489050543 43.223976494563935, 88.81220978101086 43.27094241964558, 90.53625 43.337593296549144 M86.3825 43.1770105694823 C87.26439425497071 43.2111043364273, 88.14628850994143 43.245198103372296, 90.53625 43.337593296549144 M90.53625 43.337593296549144 C92.04948963035514 43.48912095098066, 93.5627292607103 43.64064860541218, 94.69 43.7535274169417 M90.53625 43.337593296549144 C92.01783955670835 43.485951683320685, 93.4994291134167 43.634310070092226, 94.69 43.7535274169417 M94.69 43.7535274169417 C95.82975478481 43.93657016268495, 96.96950956962002 44.1196129084282, 98.84375 44.42061284203844 M94.69 43.7535274169417 C95.88299463663564 43.94512039541133, 97.07598927327129 44.13671337388096, 98.84375 44.42061284203844 M98.84375 44.42061284203844 C98.84375 43.010059379700735, 98.84375 41.59950591736303, 98.84375 39.42061284203844 M98.84375 44.42061284203844 C98.84375 43.41078859540464, 98.84375 42.40096434877084, 98.84375 39.42061284203844 M98.84375 39.42061284203844 C99.98375075263903 39.42061284203844, 101.12375150527805 39.42061284203844, 103.84375 39.42061284203844 M98.84375 39.42061284203844 C100.53475646721199 39.42061284203844, 102.22576293442398 39.42061284203844, 103.84375 39.42061284203844 M103.84375 39.42061284203844 C103.84375 38.079992943171575, 103.84375 36.73937304430471, 103.84375 34.42061284203844 M103.84375 39.42061284203844 C103.84375 37.98086157413961, 103.84375 36.54111030624078, 103.84375 34.42061284203844 M103.84375 34.42061284203844 C105.3859918336384 34.42061284203844, 106.9282336672768 34.42061284203844, 108.84375 34.42061284203844 M103.84375 34.42061284203844 C104.91201873170212 34.42061284203844, 105.98028746340424 34.42061284203844, 108.84375 34.42061284203844 M108.84375 34.42061284203844 C108.84375 -0.5341951405909668, 108.84375 -35.48900312322037, 108.84375 -68.62500190734863 M108.84375 34.42061284203844 C108.84375 -3.0662425908195488, 108.84375 -40.553098023677535, 108.84375 -68.62500190734863 M108.84375 -68.62500190734863 C52.90825619946117 -68.62500190734863, -3.0272376010776583 -68.62500190734863, -98.84375 -68.62500190734863 M108.84375 -68.62500190734863 C48.92732322125812 -68.62500190734863, -10.989103557483759 -68.62500190734863, -98.84375 -68.62500190734863 M-98.84375 -68.62500190734863 C-98.84375 -67.32151743071154, -98.84375 -66.01803295407444, -98.84375 -63.62500190734863 M-98.84375 -68.62500190734863 C-98.84375 -66.84905725670978, -98.84375 -65.07311260607094, -98.84375 -63.62500190734863 M-98.84375 -63.62500190734863 C-100.65703626675531 -63.62500190734863, -102.47032253351063 -63.62500190734863, -103.84375 -63.62500190734863 M-98.84375 -63.62500190734863 C-100.66479422198609 -63.62500190734863, -102.48583844397217 -63.62500190734863, -103.84375 -63.62500190734863 M-103.84375 -63.62500190734863 C-103.84375 -62.393455617595464, -103.84375 -61.161909327842295, -103.84375 -58.62500190734863 M-103.84375 -63.62500190734863 C-103.84375 -62.30289831710979, -103.84375 -60.980794726870954, -103.84375 -58.62500190734863 M-103.84375 -58.62500190734863 C-105.03829079074785 -58.62500190734863, -106.2328315814957 -58.62500190734863, -108.84375 -58.62500190734863 M-103.84375 -58.62500190734863 C-105.68801252590492 -58.62500190734863, -107.53227505180985 -58.62500190734863, -108.84375 -58.62500190734863" stroke="#9370DB" stroke-width="1.3" fill="none" stroke-dasharray="0 0" style=""/><g><path d="M-103.84375 -58.62500190734863 C-59.48090071339975 -58.62500190734863, -15.118051426799497 -58.62500190734863, 98.84375 -58.62500190734863 C98.84375 -28.744157201498723, 98.84375 1.1366875043511868, 98.84375 39.42061284203844 C100.62370827002451 39.42061284203844, 102.40366654004902 39.42061284203844, 103.84375 39.42061284203844 C103.84375 6.684785457769365, 103.84375 -26.051041926499707, 103.84375 -63.62500190734863 C48.45171714245225 -63.62500190734863, -6.940315715095494 -63.62500190734863, -103.84375 -63.62500190734863 C-103.84375 -62.496078460942954, -103.84375 -61.367155014537275, -103.84375 -58.62500190734863" stroke="none" stroke-width="0" fill="#ECECFF" style=""/><path d="M-103.84375 -58.62500190734863 C-63.30533880066941 -58.62500190734863, -22.76692760133882 -58.62500190734863, 98.84375 -58.62500190734863 M-103.84375 -58.62500190734863 C-58.9784884208173 -58.62500190734863, -14.1132268416346 -58.62500190734863, 98.84375 -58.62500190734863 M98.84375 -58.62500190734863 C98.84375 -37.29985457591272, 98.84375 -15.974707244476797, 98.84375 39.42061284203844 M98.84375 -58.62500190734863 C98.84375 -32.30997513302647, 98.84375 -5.994948358704306, 98.84375 39.42061284203844 M98.84375 39.42061284203844 C99.92211238248274 39.42061284203844, 101.00047476496547 39.42061284203844, 103.84375 39.42061284203844 M98.84375 39.42061284203844 C100.72331291483715 39.42061284203844, 102.6028758296743 39.42061284203844, 103.84375 39.42061284203844 M103.84375 39.42061284203844 C103.84375 9.866170386418588, 103.84375 -19.68827206920126, 103.84375 -63.62500190734863 M103.84375 39.42061284203844 C103.84375 1.9360941320390808, 103.84375 -35.548424577960276, 103.84375 -63.62500190734863 M103.84375 -63.62500190734863 C58.15572224750067 -63.62500190734863, 12.46769449500134 -63.62500190734863, -103.84375 -63.62500190734863 M103.84375 -63.62500190734863 C36.27140530313481 -63.62500190734863, -31.300939393730374 -63.62500190734863, -103.84375 -63.62500190734863 M-103.84375 -63.62500190734863 C-103.84375 -61.94789201812819, -103.84375 -60.27078212890774, -103.84375 -58.62500190734863 M-103.84375 -63.62500190734863 C-103.84375 -62.40879912627861, -103.84375 -61.192596345208585, -103.84375 -58.62500190734863" stroke="#9370DB" stroke-width="1.3" fill="none" stroke-dasharray="0 0" style=""/></g></g><g class="label" style="" transform="translate(-5, -44.62500190734863)"><rect/><g><rect class="background" style="stroke: none"/><text y="-10.1" style=""><tspan class="text-outer-tspan" x="0" y="-0.1em" dy="1.1em"><tspan font-style="normal" class="text-inner-tspan" font-weight="normal">This</tspan><tspan font-style="normal" class="text-inner-tspan" font-weight="normal"> is</tspan><tspan font-style="normal" class="text-inner-tspan" font-weight="bold"> bold</tspan></tspan><tspan class="text-outer-tspan" x="0" y="1em" dy="1.1em"><tspan font-style="normal" class="text-inner-tspan" font-weight="normal">and</tspan><tspan font-style="normal" class="text-inner-tspan" font-weight="normal"> &lt;strong&gt;</tspan><tspan font-style="normal" class="text-inner-tspan" font-weight="normal"> strong</tspan></tspan><tspan class="text-outer-tspan" x="0" y="2.1em" dy="1.1em"><tspan font-style="normal" class="text-inner-tspan" font-weight="normal">&lt;/strong&gt;</tspan><tspan font-style="normal" class="text-inner-tspan" font-weight="normal"> for</tspan><tspan font-style="normal" class="text-inner-tspan" font-weight="normal"> documents</tspan></tspan><tspan class="text-outer-tspan" x="0" y="3.2em" dy="1.1em"><tspan font-style="normal" class="text-inner-tspan" font-weight="normal">shape</tspan></tspan></text></g></g></g><g class="node default" id="flowchart-n2-6" transform="translate(46.5703125, 407.48193359375)"><rect class="basic label-container" style="" x="-38.5703125" y="-24.5" width="77.140625" height="49"/><g class="label" style="" transform="translate(0, -9.5)"><rect/><g><rect class="background" style="stroke: none"/><text y="-10.1" style=""><tspan class="text-outer-tspan" x="0" y="-0.1em" dy="1.1em"><tspan font-style="normal" class="text-inner-tspan" font-weight="normal">n2</tspan></tspan></text></g></g></g><g class="node default" id="flowchart-n22-7" transform="translate(250.2578125, 407.48193359375)"><g transform="translate(-17.5,-35)"><path d="M35 0 C27.339440147858113 8.426615837356076, 19.678880295716226 16.853231674712152, 0 38.5 C6.400059201288968 38.5, 12.800118402577937 38.5, 21 38.5 C13.524175265897064 49.7137371011544, 6.04835053179413 60.9274742023088, 0 70 C11.118900704663247 57.76920922487043, 22.237801409326494 45.53841844974086, 35 31.5 C29.39912036107853 31.5, 23.79824072215706 31.5, 14 31.5 C18.74147847490385 24.38778228764422, 23.482956949807704 17.275564575288442, 35 0" stroke="none" stroke-width="0" fill="#ECECFF" style=""/><path d="M35 0 C27.999842654448003 7.700173080107198, 20.999685308896005 15.400346160214395, 0 38.5 M35 0 C27.25268378527835 8.522047836193815, 19.5053675705567 17.04409567238763, 0 38.5 M0 38.5 C4.567548432480544 38.5, 9.135096864961088 38.5, 21 38.5 M0 38.5 C5.636310850549489 38.5, 11.272621701098979 38.5, 21 38.5 M21 38.5 C16.470877993572504 45.29368300964124, 11.941755987145006 52.08736601928249, 0 70 M21 38.5 C13.105835757683963 50.341246363474056, 5.211671515367925 62.18249272694811, 0 70 M0 70 C10.038326118607076 58.95784126953222, 20.07665223721415 47.915682539064434, 35 31.5 M0 70 C12.731819379609078 55.994998682430015, 25.463638759218156 41.98999736486003, 35 31.5 M35 31.5 C30.380325812567026 31.5, 25.760651625134052 31.5, 14 31.5 M35 31.5 C28.16752698821947 31.5, 21.33505397643894 31.5, 14 31.5 M14 31.5 C21.043861534725874 20.934207697911187, 28.087723069451748 10.368415395822375, 35 0 M14 31.5 C19.1080516804941 23.83792247925885, 24.2161033609882 16.1758449585177, 35 0" stroke="#9370DB" stroke-width="1.3" fill="none" stroke-dasharray="0 0" style=""/></g></g><g class="node default" id="flowchart-n3-9" transform="translate(46.5703125, 506.48193359375)"><rect class="basic label-container" style="" x="-38.5703125" y="-24.5" width="77.140625" height="49"/><g class="label" style="" transform="translate(0, -9.5)"><rect/><g><rect class="background" style="stroke: none"/><text y="-10.1" style=""><tspan class="text-outer-tspan" x="0" y="-0.1em" dy="1.1em"><tspan font-style="normal" class="text-inner-tspan" font-weight="normal">n3</tspan></tspan></text></g></g></g><g class="node default" id="flowchart-n33-10" transform="translate(250.2578125, 506.48193359375)"><g><path d="M7 0 C7 0.40517908122283747, 6.964012880168563 0.816513743121899, 6.893654271085456 1.2155372436685123 C6.823295662002349 1.6145607442151257, 6.716427752933756 2.013397210557766, 6.5778483455013586 2.394141003279681 C6.439268938068961 2.7748847960015954, 6.26476736710249 3.149104622578984, 6.062177826491071 3.4999999999999996 C5.859588285879653 3.8508953774210153, 5.622755194947063 4.189128084166967, 5.362311101832846 4.499513267805774 C5.10186700871863 4.809898451444582, 4.809898451444583 5.10186700871863, 4.499513267805775 5.362311101832846 C4.189128084166968 5.622755194947063, 3.8508953774210166 5.859588285879652, 3.500000000000001 6.06217782649107 C3.149104622578985 6.264767367102489, 2.7748847960015963 6.439268938068961, 2.3941410032796817 6.5778483455013586 C2.013397210557767 6.716427752933756, 1.6145607442151264 6.823295662002349, 1.2155372436685128 6.893654271085456 C0.8165137431218992 6.964012880168563, 0.4051790812228379 7, 4.286263797015736e-16 7 C-0.405179081222837 7, -0.8165137431218985 6.964012880168563, -1.2155372436685121 6.893654271085456 C-1.6145607442151257 6.823295662002349, -2.0133972105577667 6.716427752933756, -2.394141003279681 6.5778483455013586 C-2.774884796001595 6.439268938068961, -3.149104622578983 6.26476736710249, -3.4999999999999982 6.062177826491071 C-3.8508953774210135 5.859588285879653, -4.189128084166966 5.6227551949470636, -4.499513267805773 5.362311101832848 C-4.809898451444581 5.101867008718632, -5.101867008718628 4.809898451444586, -5.3623111018328435 4.499513267805779 C-5.622755194947059 4.189128084166971, -5.859588285879649 3.8508953774210206, -6.062177826491068 3.5000000000000053 C-6.264767367102486 3.14910462257899, -6.439268938068958 2.774884796001602, -6.577848345501356 2.394141003279688 C-6.716427752933754 2.0133972105577738, -6.823295662002347 1.614560744215134, -6.893654271085454 1.215537243668521 C-6.9640128801685615 0.816513743121908, -6.999999999999999 0.4051790812228472, -7 1.0183126166254463e-14 C-7.000000000000001 -0.40517908122282686, -6.964012880168565 -0.8165137431218878, -6.893654271085459 -1.215537243668501 C-6.823295662002352 -1.6145607442151142, -6.716427752933759 -2.0133972105577542, -6.577848345501363 -2.394141003279669 C-6.439268938068967 -2.7748847960015834, -6.264767367102496 -3.149104622578972, -6.062177826491078 -3.4999999999999876 C-5.859588285879661 -3.8508953774210033, -5.6227551949470715 -4.1891280841669545, -5.362311101832856 -4.499513267805763 C-5.10186700871864 -4.809898451444571, -4.809898451444594 -5.10186700871862, -4.499513267805787 -5.362311101832836 C-4.189128084166979 -5.622755194947053, -3.850895377421028 -5.859588285879643, -3.5000000000000133 -6.062177826491062 C-3.1491046225789985 -6.264767367102482, -2.774884796001611 -6.439268938068954, -2.3941410032796973 -6.577848345501353 C-2.0133972105577835 -6.716427752933752, -1.6145607442151435 -6.823295662002345, -1.2155372436685306 -6.893654271085453 C-0.8165137431219176 -6.9640128801685615, -0.40517908122285695 -6.999999999999999, -1.9937625952807352e-14 -7 C0.4051790812228171 -7.000000000000001, 0.8165137431218781 -6.964012880168565, 1.2155372436684913 -6.89365427108546 C1.6145607442151044 -6.823295662002354, 2.013397210557745 -6.716427752933763, 2.3941410032796595 -6.5778483455013665 C2.774884796001574 -6.43926893806897, 3.149104622578963 -6.2647673671025, 3.499999999999979 -6.062177826491083 C3.8508953774209953 -5.859588285879665, 4.189128084166947 -5.622755194947077, 4.499513267805756 -5.362311101832862 C4.809898451444564 -5.1018670087186475, 5.101867008718613 -4.809898451444602, 5.362311101832829 -4.499513267805796 C5.622755194947046 -4.189128084166989, 5.859588285879637 -3.8508953774210393, 6.062177826491056 -3.500000000000025 C6.2647673671024755 -3.1491046225790105, 6.439268938068949 -2.774884796001623, 6.577848345501348 -2.3941410032797092 C6.716427752933747 -2.0133972105577955, 6.823295662002342 -1.6145607442151562, 6.893654271085451 -1.2155372436685434 C6.96401288016856 -0.8165137431219307, 6.982275711847575 -0.2025895406114567, 7 -3.2800750208310675e-14 C7.017724288152425 0.2025895406113911, 7.017724288152424 -0.2025895406114242, 7 0" stroke="none" stroke-width="0" fill="#ECECFF" style="fill: #9370DB !important;"/><path d="M7 0 C7 0.40517908122283747, 6.964012880168563 0.816513743121899, 6.893654271085456 1.2155372436685123 C6.823295662002349 1.6145607442151257, 6.716427752933756 2.013397210557766, 6.5778483455013586 2.394141003279681 C6.439268938068961 2.7748847960015954, 6.26476736710249 3.149104622578984, 6.062177826491071 3.4999999999999996 C5.859588285879653 3.8508953774210153, 5.622755194947063 4.189128084166967, 5.362311101832846 4.499513267805774 C5.10186700871863 4.809898451444582, 4.809898451444583 5.10186700871863, 4.499513267805775 5.362311101832846 C4.189128084166968 5.622755194947063, 3.8508953774210166 5.859588285879652, 3.500000000000001 6.06217782649107 C3.149104622578985 6.264767367102489, 2.7748847960015963 6.439268938068961, 2.3941410032796817 6.5778483455013586 C2.013397210557767 6.716427752933756, 1.6145607442151264 6.823295662002349, 1.2155372436685128 6.893654271085456 C0.8165137431218992 6.964012880168563, 0.4051790812228379 7, 4.286263797015736e-16 7 C-0.405179081222837 7, -0.8165137431218985 6.964012880168563, -1.2155372436685121 6.893654271085456 C-1.6145607442151257 6.823295662002349, -2.0133972105577667 6.716427752933756, -2.394141003279681 6.5778483455013586 C-2.774884796001595 6.439268938068961, -3.149104622578983 6.26476736710249, -3.4999999999999982 6.062177826491071 C-3.8508953774210135 5.859588285879653, -4.189128084166966 5.6227551949470636, -4.499513267805773 5.362311101832848 C-4.809898451444581 5.101867008718632, -5.101867008718628 4.809898451444586, -5.3623111018328435 4.499513267805779 C-5.622755194947059 4.189128084166971, -5.859588285879649 3.8508953774210206, -6.062177826491068 3.5000000000000053 C-6.264767367102486 3.14910462257899, -6.439268938068958 2.774884796001602, -6.577848345501356 2.394141003279688 C-6.716427752933754 2.0133972105577738, -6.823295662002347 1.614560744215134, -6.893654271085454 1.215537243668521 C-6.9640128801685615 0.816513743121908, -6.999999999999999 0.4051790812228472, -7 1.0183126166254463e-14 C-7.000000000000001 -0.40517908122282686, -6.964012880168565 -0.8165137431218878, -6.893654271085459 -1.215537243668501 C-6.823295662002352 -1.6145607442151142, -6.716427752933759 -2.0133972105577542, -6.577848345501363 -2.394141003279669 C-6.439268938068967 -2.7748847960015834, -6.264767367102496 -3.149104622578972, -6.062177826491078 -3.4999999999999876 C-5.859588285879661 -3.8508953774210033, -5.6227551949470715 -4.1891280841669545, -5.362311101832856 -4.499513267805763 C-5.10186700871864 -4.809898451444571, -4.809898451444594 -5.10186700871862, -4.499513267805787 -5.362311101832836 C-4.189128084166979 -5.622755194947053, -3.850895377421028 -5.859588285879643, -3.5000000000000133 -6.062177826491062 C-3.1491046225789985 -6.264767367102482, -2.774884796001611 -6.439268938068954, -2.3941410032796973 -6.577848345501353 C-2.0133972105577835 -6.716427752933752, -1.6145607442151435 -6.823295662002345, -1.2155372436685306 -6.893654271085453 C-0.8165137431219176 -6.9640128801685615, -0.40517908122285695 -6.999999999999999, -1.9937625952807352e-14 -7 C0.4051790812228171 -7.000000000000001, 0.8165137431218781 -6.964012880168565, 1.2155372436684913 -6.89365427108546 C1.6145607442151044 -6.823295662002354, 2.013397210557745 -6.716427752933763, 2.3941410032796595 -6.5778483455013665 C2.774884796001574 -6.43926893806897, 3.149104622578963 -6.2647673671025, 3.499999999999979 -6.062177826491083 C3.8508953774209953 -5.859588285879665, 4.189128084166947 -5.622755194947077, 4.499513267805756 -5.362311101832862 C4.809898451444564 -5.1018670087186475, 5.101867008718613 -4.809898451444602, 5.362311101832829 -4.499513267805796 C5.622755194947046 -4.189128084166989, 5.859588285879637 -3.8508953774210393, 6.062177826491056 -3.500000000000025 C6.2647673671024755 -3.1491046225790105, 6.439268938068949 -2.774884796001623, 6.577848345501348 -2.3941410032797092 C6.716427752933747 -2.0133972105577955, 6.823295662002342 -1.6145607442151562, 6.893654271085451 -1.2155372436685434 C6.96401288016856 -0.8165137431219307, 6.982275711847575 -0.2025895406114567, 7 -3.2800750208310675e-14 C7.017724288152425 0.2025895406113911, 7.017724288152424 -0.2025895406114242, 7 0" stroke="#9370DB" stroke-width="1.3" fill="none" stroke-dasharray="0 0" style="fill: #9370DB !important;"/></g></g><g class="node default" id="flowchart-n4-12" transform="translate(46.5703125, 616.8819351196289)"><rect class="basic label-container" style="" x="-38.5703125" y="-24.5" width="77.140625" height="49"/><g class="label" style="" transform="translate(0, -9.5)"><rect/><g><rect class="background" style="stroke: none"/><text y="-10.1" style=""><tspan class="text-outer-tspan" x="0" y="-0.1em" dy="1.1em"><tspan font-style="normal" class="text-inner-tspan" font-weight="normal">n4</tspan></tspan></text></g></g></g><g class="node default" id="flowchart-n44-13" transform="translate(250.2578125, 616.8819351196289)"><g transform="translate(2.5, 2.5)" class="basic label-container"><path d="M-117.6171875 -55.900001525878906 L112.6171875 -55.900001525878906 L112.6171875 50.900001525878906 L-117.6171875 50.900001525878906 L-117.6171875 -55.900001525878906" stroke="none" stroke-width="0" fill="#ECECFF" style=""/><path d="M-117.6171875 -55.900001525878906 C-71.56927746129077 -55.900001525878906, -25.521367422581534 -55.900001525878906, 112.6171875 -55.900001525878906 M-117.6171875 -55.900001525878906 C-66.65437302503415 -55.900001525878906, -15.69155855006828 -55.900001525878906, 112.6171875 -55.900001525878906 M112.6171875 -55.900001525878906 C112.6171875 -32.67075454835634, 112.6171875 -9.441507570833785, 112.6171875 50.900001525878906 M112.6171875 -55.900001525878906 C112.6171875 -27.23533409543409, 112.6171875 1.4293333350107247, 112.6171875 50.900001525878906 M112.6171875 50.900001525878906 C62.961969669115206 50.900001525878906, 13.306751838230412 50.900001525878906, -117.6171875 50.900001525878906 M112.6171875 50.900001525878906 C26.069188905858027 50.900001525878906, -60.478809688283945 50.900001525878906, -117.6171875 50.900001525878906 M-117.6171875 50.900001525878906 C-117.6171875 20.268765522971027, -117.6171875 -10.362470479936853, -117.6171875 -55.900001525878906 M-117.6171875 50.900001525878906 C-117.6171875 12.049762994545226, -117.6171875 -26.800475536788454, -117.6171875 -55.900001525878906 M-117.6171875 -50.900001525878906 C-66.9691970596541 -50.900001525878906, -16.321206619308214 -50.900001525878906, 112.6171875 -50.900001525878906 M-117.6171875 -50.900001525878906 C-42.709084948968666 -50.900001525878906, 32.19901760206267 -50.900001525878906, 112.6171875 -50.900001525878906 M-112.6171875 -55.900001525878906 C-112.6171875 -20.07693326850353, -112.6171875 15.746134988871844, -112.6171875 50.900001525878906 M-112.6171875 -55.900001525878906 C-112.6171875 -29.92190937991193, -112.6171875 -3.943817233944955, -112.6171875 50.900001525878906" stroke="#9370DB" stroke-width="1.3" fill="none" stroke-dasharray="0 0" style=""/></g><g class="label" style="" transform="translate(2.5, -34.400001525878906)"><rect/><g><rect class="background" style="stroke: none"/><text y="-10.1" style=""><tspan class="text-outer-tspan" x="0" y="-0.1em" dy="1.1em"><tspan font-style="normal" class="text-inner-tspan" font-weight="normal">This</tspan><tspan font-style="normal" class="text-inner-tspan" font-weight="normal"> is</tspan><tspan font-style="normal" class="text-inner-tspan" font-weight="bold"> bold</tspan></tspan><tspan class="text-outer-tspan" x="0" y="1em" dy="1.1em"><tspan font-style="normal" class="text-inner-tspan" font-weight="normal">and</tspan><tspan font-style="normal" class="text-inner-tspan" font-weight="normal"> &lt;strong&gt;</tspan><tspan font-style="normal" class="text-inner-tspan" font-weight="normal"> strong</tspan></tspan><tspan class="text-outer-tspan" x="0" y="2.1em" dy="1.1em"><tspan font-style="normal" class="text-inner-tspan" font-weight="normal">&lt;/strong&gt;</tspan><tspan font-style="normal" class="text-inner-tspan" font-weight="normal"> for</tspan><tspan font-style="normal" class="text-inner-tspan" font-weight="normal"> window-pane</tspan></tspan><tspan class="text-outer-tspan" x="0" y="3.2em" dy="1.1em"><tspan font-style="normal" class="text-inner-tspan" font-weight="normal">shape</tspan></tspan></text></g></g></g></g></g></g></svg>