<svg id="upstream_docs_flowchart_stored_data_bow_tie_rectangle_124" width="100%" xmlns="http://www.w3.org/2000/svg" xmlns:xlink="http://www.w3.org/1999/xlink" class="flowchart" style="max-width: 135.3px; background-color: white;" viewBox="0.010162353515625 0 135.2998275756836 55" role="graphics-document document" aria-roledescription="flowchart-v2"><style>#upstream_docs_flowchart_stored_data_bow_tie_rectangle_124{font-family:"trebuchet ms",verdana,arial,sans-serif;font-size:16px;fill:#333;}@keyframes edge-animation-frame{from{stroke-dashoffset:0;}}@keyframes dash{to{stroke-dashoffset:0;}}#upstream_docs_flowchart_stored_data_bow_tie_rectangle_124 .edge-animation-slow{stroke-dasharray:9,5!important;stroke-dashoffset:900;animation:dash 50s linear infinite;stroke-linecap:round;}#upstream_docs_flowchart_stored_data_bow_tie_rectangle_124 .edge-animation-fast{stroke-dasharray:9,5!important;stroke-dashoffset:900;animation:dash 20s linear infinite;stroke-linecap:round;}#upstream_docs_flowchart_stored_data_bow_tie_rectangle_124 .error-icon{fill:#552222;}#upstream_docs_flowchart_stored_data_bow_tie_rectangle_124 .error-text{fill:#552222;stroke:#552222;}#upstream_docs_flowchart_stored_data_bow_tie_rectangle_124 .edge-thickness-normal{stroke-width:1px;}#upstream_docs_flowchart_stored_data_bow_tie_rectangle_124 .edge-thickness-thick{stroke-width:3.5px;}#upstream_docs_flowchart_stored_data_bow_tie_rectangle_124 .edge-pattern-solid{stroke-dasharray:0;}#upstream_docs_flowchart_stored_data_bow_tie_rectangle_124 .edge-thickness-invisible{stroke-width:0;fill:none;}#upstream_docs_flowchart_stored_data_bow_tie_rectangle_124 .edge-pattern-dashed{stroke-dasharray:3;}#upstream_docs_flowchart_stored_data_bow_tie_rectangle_124 .edge-pattern-dotted{stroke-dasharray:2;}#upstream_docs_flowchart_stored_data_bow_tie_rectangle_124 .marker{fill:#333333;stroke:#333333;}#upstream_docs_flowchart_stored_data_bow_tie_rectangle_124 .marker.cross{stroke:#333333;}#upstream_docs_flowchart_stored_data_bow_tie_rectangle_124 svg{font-family:"trebuchet ms",verdana,arial,sans-serif;font-size:16px;}#upstream_docs_flowchart_stored_data_bow_tie_rectangle_124 p{margin:0;}#upstream_docs_flowchart_stored_data_bow_tie_rectangle_124 .label{font-family:"trebuchet ms",verdana,arial,sans-serif;color:#333;}#upstream_docs_flowchart_stored_data_bow_tie_rectangle_124 .cluster-label text{fill:#333;}#upstream_docs_flowchart_stored_data_bow_tie_rectangle_124 .cluster-label span{color:#333;}#upstream_docs_flowchart_stored_data_bow_tie_rectangle_124 .cluster-label span p{background-color:transparent;}#upstream_docs_flowchart_stored_data_bow_tie_rectangle_124 .label text,#upstream_docs_flowchart_stored_data_bow_tie_rectangle_124 span{fill:#333;color:#333;}#upstream_docs_flowchart_stored_data_bow_tie_rectangle_124 .node rect,#upstream_docs_flowchart_stored_data_bow_tie_rectangle_124 .node circle,#upstream_docs_flowchart_stored_data_bow_tie_rectangle_124 .node ellipse,#upstream_docs_flowchart_stored_data_bow_tie_rectangle_124 .node polygon,#upstream_docs_flowchart_stored_data_bow_tie_rectangle_124 .node path{fill:#ECECFF;stroke:#9370DB;stroke-width:1px;}#upstream_docs_flowchart_stored_data_bow_tie_rectangle_124 .rough-node .label text,#upstream_docs_flowchart_stored_data_bow_tie_rectangle_124 .node .label text,#upstream_docs_flowchart_stored_data_bow_tie_rectangle_124 .image-shape .label,#upstream_docs_flowchart_stored_data_bow_tie_rectangle_124 .icon-shape .label{text-anchor:middle;}#upstream_docs_flowchart_stored_data_bow_tie_rectangle_124 .node .katex path{fill:#000;stroke:#000;stroke-width:1px;}#upstream_docs_flowchart_stored_data_bow_tie_rectangle_124 .rough-node .label,#upstream_docs_flowchart_stored_data_bow_tie_rectangle_124 .node .label,#upstream_docs_flowchart_stored_data_bow_tie_rectangle_124 .image-shape .label,#upstream_docs_flowchart_stored_data_bow_tie_rectangle_124 .icon-shape .label{text-align:center;}#upstream_docs_flowchart_stored_data_bow_tie_rectangle_124 .node.clickable{cursor:pointer;}#upstream_docs_flowchart_stored_data_bow_tie_rectangle_124 .root .anchor path{fill:#333333!important;stroke-width:0;stroke:#333333;}#upstream_docs_flowchart_stored_data_bow_tie_rectangle_124 .arrowheadPath{fill:#333333;}#upstream_docs_flowchart_stored_data_bow_tie_rectangle_124 .edgePath .path{stroke:#333333;stroke-width:1px;}#upstream_docs_flowchart_stored_data_bow_tie_rectangle_124 .flowchart-link{stroke:#333333;fill:none;}#upstream_docs_flowchart_stored_data_bow_tie_rectangle_124 .edgeLabel{background-color:rgba(232,232,232, 0.8);text-align:center;}#upstream_docs_flowchart_stored_data_bow_tie_rectangle_124 .edgeLabel p{background-color:rgba(232,232,232, 0.8);}#upstream_docs_flowchart_stored_data_bow_tie_rectangle_124 .edgeLabel rect{opacity:0.5;background-color:rgba(232,232,232, 0.8);fill:rgba(232,232,232, 0.8);}#upstream_docs_flowchart_stored_data_bow_tie_rectangle_124 .labelBkg{background-color:rgba(232, 232, 232, 0.5);}#upstream_docs_flowchart_stored_data_bow_tie_rectangle_124 .cluster rect{fill:#ffffde;stroke:#aaaa33;stroke-width:1px;}#upstream_docs_flowchart_stored_data_bow_tie_rectangle_124 .cluster text{fill:#333;}#upstream_docs_flowchart_stored_data_bow_tie_rectangle_124 .cluster span{color:#333;}#upstream_docs_flowchart_stored_data_bow_tie_rectangle_124 div.mermaidTooltip{position:absolute;text-align:center;max-width:200px;padding:2px;font-family:"trebuchet ms",verdana,arial,sans-serif;font-size:12px;background:hsl(80, 100%, 96.2745098039%);border:1px solid #aaaa33;border-radius:2px;pointer-events:none;z-index:100;}#upstream_docs_flowchart_stored_data_bow_tie_rectangle_124 .flowchartTitleText{text-anchor:middle;font-size:18px;fill:#333;}#upstream_docs_flowchart_stored_data_bow_tie_rectangle_124 rect.text{fill:none;stroke-width:0;}#upstream_docs_flowchart_stored_data_bow_tie_rectangle_124 .icon-shape,#upstream_docs_flowchart_stored_data_bow_tie_rectangle_124 .image-shape{background-color:rgba(232,232,232, 0.8);text-align:center;}#upstream_docs_flowchart_stored_data_bow_tie_rectangle_124 .icon-shape p,#upstream_docs_flowchart_stored_data_bow_tie_rectangle_124 .image-shape p{background-color:rgba(232,232,232, 0.8);padding:2px;}#upstream_docs_flowchart_stored_data_bow_tie_rectangle_124 .icon-shape .label rect,#upstream_docs_flowchart_stored_data_bow_tie_rectangle_124 .image-shape .label rect{opacity:0.5;background-color:rgba(232,232,232, 0.8);fill:rgba(232,232,232, 0.8);}#upstream_docs_flowchart_stored_data_bow_tie_rectangle_124 .label-icon{display:inline-block;height:1em;overflow:visible;vertical-align:-0.125em;}#upstream_docs_flowchart_stored_data_bow_tie_rectangle_124 .node .label-icon path{fill:currentColor;stroke:revert;stroke-width:revert;}#upstream_docs_flowchart_stored_data_bow_tie_rectangle_124 .node .neo-node{stroke:#9370DB;}#upstream_docs_flowchart_stored_data_bow_tie_rectangle_124 [data-look="neo"].node rect,#upstream_docs_flowchart_stored_data_bow_tie_rectangle_124 [data-look="neo"].cluster rect,#upstream_docs_flowchart_stored_data_bow_tie_rectangle_124 [data-look="neo"].node polygon{stroke:#9370DB;filter:drop-shadow(1px 2px 2px rgba(185, 185, 185, 1));}#upstream_docs_flowchart_stored_data_bow_tie_rectangle_124 [data-look="neo"].node path{stroke:#9370DB;stroke-width:1px;}#upstream_docs_flowchart_stored_data_bow_tie_rectangle_124 [data-look="neo"].node .outer-path{filter:drop-shadow(1px 2px 2px rgba(185, 185, 185, 1));}#upstream_docs_flowchart_stored_data_bow_tie_rectangle_124 [data-look="neo"].node .neo-line path{stroke:#9370DB;filter:none;}#upstream_docs_flowchart_stored_data_bow_tie_rectangle_124 [data-look="neo"].node circle{stroke:#9370DB;filter:drop-shadow(1px 2px 2px rgba(185, 185, 185, 1));}#upstream_docs_flowchart_stored_data_bow_tie_rectangle_124 [data-look="neo"].node circle .state-start{fill:#000000;}#upstream_docs_flowchart_stored_data_bow_tie_rectangle_124 [data-look="neo"].icon-shape .icon{fill:#9370DB;filter:drop-shadow(1px 2px 2px rgba(185, 185, 185, 1));}#upstream_docs_flowchart_stored_data_bow_tie_rectangle_124 [data-look="neo"].icon-shape .icon-neo path{stroke:#9370DB;filter:drop-shadow(1px 2px 2px rgba(185, 185, 185, 1));}#upstream_docs_flowchart_stored_data_bow_tie_rectangle_124 :root{--mermaid-font-family:"trebuchet ms",verdana,arial,sans-serif;}</style><g><marker id="upstream_docs_flowchart_stored_data_bow_tie_rectangle_124_flowchart-v2-pointEnd" class="marker flowchart-v2" viewBox="0 0 10 10" refX="5" refY="5" markerUnits="userSpaceOnUse" markerWidth="8" markerHeight="8" orient="auto"><path d="M 0 0 L 10 5 L 0 10 z" class="arrowMarkerPath" style="stroke-width: 1; stroke-dasharray: 1, 0;"/></marker><marker id="upstream_docs_flowchart_stored_data_bow_tie_rectangle_124_flowchart-v2-pointStart" class="marker flowchart-v2" viewBox="0 0 10 10" refX="4.5" refY="5" markerUnits="userSpaceOnUse" markerWidth="8" markerHeight="8" orient="auto"><path d="M 0 5 L 10 10 L 10 0 z" class="arrowMarkerPath" style="stroke-width: 1; stroke-dasharray: 1, 0;"/></marker><marker id="upstream_docs_flowchart_stored_data_bow_tie_rectangle_124_flowchart-v2-pointEnd-margin" class="marker flowchart-v2" viewBox="0 0 11.5 14" refX="11.5" refY="7" markerUnits="userSpaceOnUse" markerWidth="10.5" markerHeight="14" orient="auto"><path d="M 0 0 L 11.5 7 L 0 14 z" class="arrowMarkerPath" style="stroke-width: 0; stroke-dasharray: 1, 0;"/></marker><marker id="upstream_docs_flowchart_stored_data_bow_tie_rectangle_124_flowchart-v2-pointStart-margin" class="marker flowchart-v2" viewBox="0 0 11.5 14" refX="1" refY="7" markerUnits="userSpaceOnUse" markerWidth="11.5" markerHeight="14" orient="auto"><polygon points="0,7 11.5,14 11.5,0" class="arrowMarkerPath" style="stroke-width: 0; stroke-dasharray: 1, 0;"/></marker><marker id="upstream_docs_flowchart_stored_data_bow_tie_rectangle_124_flowchart-v2-circleEnd" class="marker flowchart-v2" viewBox="0 0 10 10" refX="11" refY="5" markerUnits="userSpaceOnUse" markerWidth="11" markerHeight="11" orient="auto"><circle cx="5" cy="5" r="5" class="arrowMarkerPath" style="stroke-width: 1; stroke-dasharray: 1, 0;"/></marker><marker id="upstream_docs_flowchart_stored_data_bow_tie_rectangle_124_flowchart-v2-circleStart" class="marker flowchart-v2" viewBox="0 0 10 10" refX="-1" refY="5" markerUnits="userSpaceOnUse" markerWidth="11" markerHeight="11" orient="auto"><circle cx="5" cy="5" r="5" class="arrowMarkerPath" style="stroke-width: 1; stroke-dasharray: 1, 0;"/></marker><marker id="upstream_docs_flowchart_stored_data_bow_tie_rectangle_124_flowchart-v2-circleEnd-margin" class="marker flowchart-v2" viewBox="0 0 10 10" refY="5" refX="12.25" markerUnits="userSpaceOnUse" markerWidth="14" markerHeight="14" orient="auto"><circle cx="5" cy="5" r="5" class="arrowMarkerPath" style="stroke-width: 0; stroke-dasharray: 1, 0;"/></marker><marker id="upstream_docs_flowchart_stored_data_bow_tie_rectangle_124_flowchart-v2-circleStart-margin" class="marker flowchart-v2" viewBox="0 0 10 10" refX="-2" refY="5" markerUnits="userSpaceOnUse" markerWidth="14" markerHeight="14" orient="auto"><circle cx="5" cy="5" r="5" class="arrowMarkerPath" style="stroke-width: 0; stroke-dasharray: 1, 0;"/></marker><marker id="upstream_docs_flowchart_stored_data_bow_tie_rectangle_124_flowchart-v2-crossEnd" class="marker cross flowchart-v2" viewBox="0 0 11 11" refX="12" refY="5.2" markerUnits="userSpaceOnUse" markerWidth="11" markerHeight="11" orient="auto"><path d="M 1,1 l 9,9 M 10,1 l -9,9" class="arrowMarkerPath" style="stroke-width: 2; stroke-dasharray: 1, 0;"/></marker><marker id="upstream_docs_flowchart_stored_data_bow_tie_rectangle_124_flowchart-v2-crossStart" class="marker cross flowchart-v2" viewBox="0 0 11 11" refX="-1" refY="5.2" markerUnits="userSpaceOnUse" markerWidth="11" markerHeight="11" orient="auto"><path d="M 1,1 l 9,9 M 10,1 l -9,9" class="arrowMarkerPath" style="stroke-width: 2; stroke-dasharray: 1, 0;"/></marker><marker id="upstream_docs_flowchart_stored_data_bow_tie_rectangle_124_flowchart-v2-crossEnd-margin" class="marker cross flowchart-v2" viewBox="0 0 15 15" refX="17.7" refY="7.5" markerUnits="userSpaceOnUse" markerWidth="12" markerHeight="12" orient="auto"><path d="M 1,1 L 14,14 M 1,14 L 14,1" class="arrowMarkerPath" style="stroke-width: 2.5;"/></marker><marker id="upstream_docs_flowchart_stored_data_bow_tie_rectangle_124_flowchart-v2-crossStart-margin" class="marker cross flowchart-v2" viewBox="0 0 15 15" refX="-3.5" refY="7.5" markerUnits="userSpaceOnUse" markerWidth="12" markerHeight="12" orient="auto"><path d="M 1,1 L 14,14 M 1,14 L 14,1" class="arrowMarkerPath" style="stroke-width: 2.5; stroke-dasharray: 1, 0;"/></marker><g class="root"><g class="clusters"/><g class="edgePaths"/><g class="edgeLabels"/><g class="nodes"><g class="node default" id="upstream_docs_flowchart_stored_data_bow_tie_rectangle_124-flowchart-A-0" data-look="classic" transform="translate(67.6499137878418, 27.5)"><g class="basic label-container outer-path" transform="translate(2.9725609756097557, 0)"><path d="M56.6875 -19.5 C22.460533824504815 -19.5, -11.766432350990371 -19.5, -56.6875 -19.5 C-56.6875 -19.5, -56.6875 -19.5, -56.6875 -19.5 C-57.05739935337226 -19.39946559153065, -57.42729870674452 -19.2989311830613, -57.66603491172997 -19.234045416353087 C-57.972607792560986 -18.979403281729496, -58.279180673392 -18.724761147105905, -58.61787794191809 -18.443436213162375 C-58.811454454445375 -18.16492967162359, -59.00503096697266 -17.886423130084808, -59.517065293970404 -17.149738148526538 C-59.706260742687626 -16.7443053654034, -59.89545619140484 -16.33887258228026, -60.339069480929425 -15.388239933229675 C-60.48935344961263 -14.934464596915982, -60.63963741829584 -14.480689260602288, -61.061468371379895 -13.206990646701952 C-61.22700757030735 -12.509384610515582, -61.392546769234805 -11.81177857432921, -61.66455680674369 -10.665489083387323 C-61.7699514989713 -10.026701430103703, -61.87534619119892 -9.387913776820081, -62.131884106638296 -7.833060780732911 C-62.224886939149705 -6.944482553733872, -62.31788977166112 -6.055904326734834, -62.45070280055395 -4.786966999245582 C-62.50666631839162 -3.68695019775431, -62.5626298362293 -2.586933396263038, -62.61231634561892 -1.610297236710487 C-62.61231634561892 -0.7100303902006212, -62.61231634561892 0.19023645630924468, -62.61231634561892 1.6102972367104824 C-62.56504893530436 2.539383675840545, -62.5177815249898 3.468470114970607, -62.45070280055395 4.7869669992455774 C-62.38301351387529 5.4336916711675, -62.31532422719663 6.080416343089422, -62.131884106638296 7.833060780732899 C-61.961633564225444 8.864933849096726, -61.79138302181259 9.896806917460552, -61.66455680674369 10.66548908338732 C-61.44944286690461 11.5720102208089, -61.23432892706553 12.478531358230484, -61.0614683713799 13.206990646701946 C-60.86324806637061 13.805507483580284, -60.66502776136131 14.40402432045862, -60.33906948092943 15.388239933229672 C-60.10298243035244 15.894158181389148, -59.86689537977546 16.400076429548623, -59.517065293970404 17.149738148526538 C-59.26339492742487 17.51470420538487, -59.00972456087934 17.879670262243202, -58.61787794191809 18.443436213162375 C-58.42563910774342 18.603111481761136, -58.23340027356875 18.762786750359897, -57.66603491172997 19.234045416353084 C-57.442928804558825 19.29468310145814, -57.21982269738768 19.355320786563198, -56.6875 19.5 C-18.34392835596809 19.5, 19.999643288063822 19.5, 56.6875 19.5 C56.6875 19.5, 56.6875 19.5, 56.6875 19.5 C56.4057306240307 19.42341831019817, 56.1239612480614 19.346836620396342, 55.70896508827003 19.234045416353087 C55.415370660227374 18.990183298909038, 55.12177623218473 18.746321181464992, 54.75712205808191 18.443436213162375 C54.56500731165401 18.16703277501957, 54.3728925652261 17.89062933687677, 53.857934706029596 17.149738148526538 C53.579097041894634 16.552208287336473, 53.30025937775968 15.954678426146407, 53.035930519070575 15.388239933229675 C52.77312978915077 14.594725557426742, 52.51032905923097 13.80121118162381, 52.313531628620105 13.206990646701952 C52.151104667741535 12.522500030083979, 51.988677706862966 11.838009413466006, 51.71044319325631 10.665489083387323 C51.57562245562963 9.84835284263124, 51.44080171800294 9.031216601875155, 51.243115893361704 7.833060780732911 C51.16000084968555 7.038953589023007, 51.0768858060094 6.244846397313102, 50.92429719944605 4.786966999245582 C50.86689385728027 3.658649064921505, 50.80949051511448 2.5303311305974283, 50.76268365438108 1.610297236710487 C50.76268365438108 0.44232529082202654, 50.76268365438108 -0.725646655066434, 50.76268365438108 -1.6102972367104824 C50.82154473686813 -2.7672684599549715, 50.88040581935518 -3.92423968319946, 50.92429719944605 -4.7869669992455774 C51.002825195365205 -5.53724809821176, 51.081353191284364 -6.287529197177942, 51.243115893361704 -7.833060780732899 C51.36668691356316 -8.582013506339601, 51.49025793376462 -9.330966231946304, 51.71044319325631 -10.66548908338732 C51.85452594055038 -11.272674540813071, 51.998608687844445 -11.879859998238821, 52.3135316286201 -13.206990646701946 C52.579990269102716 -14.011549910461934, 52.846448909585334 -14.816109174221921, 53.03593051907057 -15.388239933229672 C53.248202041701326 -15.843123149403684, 53.460473564332084 -16.298006365577695, 53.857934706029596 -17.149738148526538 C54.10100061775099 -17.499447137265317, 54.344066529472386 -17.849156126004093, 54.75712205808191 -18.443436213162375 C54.99220764067841 -18.63870036832618, 55.2272932232749 -18.833964523489986, 55.70896508827003 -19.234045416353084 C55.960486153500156 -19.3024059616743, 56.21200721873029 -19.370766506995515, 56.6875 -19.5 C56.6875 -19.5, 56.6875 -19.5, 56.6875 -19.5" stroke="none" stroke-width="0" fill="#ECECFF" style=""/><path d="M56.6875 -19.5 C34.0119903128012 -19.5, 11.336480625602412 -19.5, -56.6875 -19.5 M56.6875 -19.5 C31.591729261598083 -19.5, 6.495958523196165 -19.5, -56.6875 -19.5 M-56.6875 -19.5 C-56.6875 -19.5, -56.6875 -19.5, -56.6875 -19.5 M-56.6875 -19.5 C-56.6875 -19.5, -56.6875 -19.5, -56.6875 -19.5 M-56.6875 -19.5 C-56.89854304775113 -19.442640916309262, -57.109586095502266 -19.385281832618524, -57.66603491172997 -19.234045416353087 M-56.6875 -19.5 C-57.05534358619222 -19.40002432550926, -57.42318717238444 -19.300048651018525, -57.66603491172997 -19.234045416353087 M-57.66603491172997 -19.234045416353087 C-57.939032361751444 -19.00729133023879, -58.212029811772915 -18.78053724412449, -58.61787794191809 -18.443436213162375 M-57.66603491172997 -19.234045416353087 C-58.01228329853269 -18.94644845707078, -58.35853168533539 -18.65885149778847, -58.61787794191809 -18.443436213162375 M-58.61787794191809 -18.443436213162375 C-58.81568520858201 -18.15884271051808, -59.013492475245926 -17.87424920787379, -59.517065293970404 -17.149738148526538 M-58.61787794191809 -18.443436213162375 C-58.91043381408151 -18.02252396973299, -59.20298968624493 -17.601611726303606, -59.517065293970404 -17.149738148526538 M-59.517065293970404 -17.149738148526538 C-59.79278356415632 -16.558892933182833, -60.068501834342236 -15.968047717839124, -60.339069480929425 -15.388239933229675 M-59.517065293970404 -17.149738148526538 C-59.717010049616555 -16.72127034286775, -59.91695480526271 -16.292802537208967, -60.339069480929425 -15.388239933229675 M-60.339069480929425 -15.388239933229675 C-60.49718319342705 -14.910823055747178, -60.655296905924665 -14.43340617826468, -61.061468371379895 -13.206990646701952 M-60.339069480929425 -15.388239933229675 C-60.55923117930221 -14.723472096727448, -60.779392877674994 -14.058704260225223, -61.061468371379895 -13.206990646701952 M-61.061468371379895 -13.206990646701952 C-61.276162820996284 -12.302237301521533, -61.490857270612665 -11.397483956341116, -61.66455680674369 -10.665489083387323 M-61.061468371379895 -13.206990646701952 C-61.2530592407782 -12.399599117466472, -61.44465011017651 -11.592207588230993, -61.66455680674369 -10.665489083387323 M-61.66455680674369 -10.665489083387323 C-61.78919699525282 -9.910056225813895, -61.91383718376196 -9.154623368240467, -62.131884106638296 -7.833060780732911 M-61.66455680674369 -10.665489083387323 C-61.770072155942984 -10.025970139161402, -61.875587505142285 -9.38645119493548, -62.131884106638296 -7.833060780732911 M-62.131884106638296 -7.833060780732911 C-62.2401572348411 -6.798585360016217, -62.3484303630439 -5.764109939299523, -62.45070280055395 -4.786966999245582 M-62.131884106638296 -7.833060780732911 C-62.23534714567684 -6.844542460309461, -62.33881018471539 -5.856024139886013, -62.45070280055395 -4.786966999245582 M-62.45070280055395 -4.786966999245582 C-62.50990157530483 -3.6233581095659364, -62.569100350055706 -2.4597492198862914, -62.61231634561892 -1.610297236710487 M-62.45070280055395 -4.786966999245582 C-62.511570301845595 -3.5905576834515625, -62.572437803137234 -2.3941483676575426, -62.61231634561892 -1.610297236710487 M-62.61231634561892 -1.610297236710487 C-62.61231634561892 -0.40001386233603853, -62.61231634561892 0.81026951203841, -62.61231634561892 1.6102972367104824 M-62.61231634561892 -1.610297236710487 C-62.61231634561892 -0.8768353503519944, -62.61231634561892 -0.14337346399350182, -62.61231634561892 1.6102972367104824 M-62.61231634561892 1.6102972367104824 C-62.552699106316325 2.782131449877723, -62.49308186701373 3.953965663044964, -62.45070280055395 4.7869669992455774 M-62.61231634561892 1.6102972367104824 C-62.56026830762607 2.6333515136567645, -62.50822026963322 3.656405790603046, -62.45070280055395 4.7869669992455774 M-62.45070280055395 4.7869669992455774 C-62.338313169235725 5.860772781640102, -62.225923537917495 6.934578564034626, -62.131884106638296 7.833060780732899 M-62.45070280055395 4.7869669992455774 C-62.34935093853729 5.755314472348206, -62.247999076520635 6.723661945450836, -62.131884106638296 7.833060780732899 M-62.131884106638296 7.833060780732899 C-62.00376210019847 8.60959662042144, -61.87564009375864 9.386132460109982, -61.66455680674369 10.66548908338732 M-62.131884106638296 7.833060780732899 C-62.036827977111635 8.409187344862195, -61.941771847584974 8.985313908991492, -61.66455680674369 10.66548908338732 M-61.66455680674369 10.66548908338732 C-61.51005739286707 11.316571874689354, -61.35555797899044 11.96765466599139, -61.0614683713799 13.206990646701946 M-61.66455680674369 10.66548908338732 C-61.476329802486966 11.458704800229782, -61.28810279823025 12.251920517072245, -61.0614683713799 13.206990646701946 M-61.0614683713799 13.206990646701946 C-60.822908648861 13.927310447046768, -60.5843489263421 14.64763024739159, -60.33906948092943 15.388239933229672 M-61.0614683713799 13.206990646701946 C-60.88912335669497 13.727378268122168, -60.71677834201003 14.24776588954239, -60.33906948092943 15.388239933229672 M-60.33906948092943 15.388239933229672 C-60.11579824390649 15.866694777843055, -59.892527006883554 16.34514962245644, -59.517065293970404 17.149738148526538 M-60.33906948092943 15.388239933229672 C-60.130248360447645 15.835729175840171, -59.921427239965865 16.28321841845067, -59.517065293970404 17.149738148526538 M-59.517065293970404 17.149738148526538 C-59.217036898522736 17.581401420524895, -58.917008503075074 18.01306469252325, -58.61787794191809 18.443436213162375 M-59.517065293970404 17.149738148526538 C-59.3174288164995 17.43696341247776, -59.1177923390286 17.72418867642898, -58.61787794191809 18.443436213162375 M-58.61787794191809 18.443436213162375 C-58.3493548284139 18.66647387596259, -58.08083171490972 18.889511538762807, -57.66603491172997 19.234045416353084 M-58.61787794191809 18.443436213162375 C-58.41424166182273 18.612578300713402, -58.21060538172736 18.781720388264432, -57.66603491172997 19.234045416353084 M-57.66603491172997 19.234045416353084 C-57.3436520699743 19.321665381084294, -57.02126922821863 19.40928534581551, -56.6875 19.5 M-57.66603491172997 19.234045416353084 C-57.446098423157544 19.293821635418823, -57.226161934585114 19.353597854484565, -56.6875 19.5 M-56.6875 19.5 C-14.810666184814181 19.5, 27.066167630371638 19.5, 56.6875 19.5 M-56.6875 19.5 C-12.629215342795938 19.5, 31.429069314408125 19.5, 56.6875 19.5 M56.6875 19.5 C56.6875 19.5, 56.6875 19.5, 56.6875 19.5 M56.6875 19.5 C56.6875 19.5, 56.6875 19.5, 56.6875 19.5 M56.6875 19.5 C56.38068947735841 19.416612413282856, 56.073878954716825 19.333224826565715, 55.70896508827003 19.234045416353087 M56.6875 19.5 C56.490416644302805 19.446435000754835, 56.293333288605616 19.39287000150967, 55.70896508827003 19.234045416353087 M55.70896508827003 19.234045416353087 C55.40412367357931 18.98084145275362, 55.09928225888859 18.727637489154155, 54.75712205808191 18.443436213162375 M55.70896508827003 19.234045416353087 C55.37103233072853 18.953355491965954, 55.03309957318704 18.672665567578825, 54.75712205808191 18.443436213162375 M54.75712205808191 18.443436213162375 C54.49346005428653 18.064094774195777, 54.22979805049115 17.68475333522918, 53.857934706029596 17.149738148526538 M54.75712205808191 18.443436213162375 C54.575247673346816 18.181766007279702, 54.39337328861172 17.92009580139703, 53.857934706029596 17.149738148526538 M53.857934706029596 17.149738148526538 C53.572318316348905 16.537681946546204, 53.286701926668215 15.92562574456587, 53.035930519070575 15.388239933229675 M53.857934706029596 17.149738148526538 C53.60524228960796 16.608235747921423, 53.35254987318632 16.06673334731631, 53.035930519070575 15.388239933229675 M53.035930519070575 15.388239933229675 C52.75749084155601 14.547504494750639, 52.47905116404145 13.706769056271602, 52.313531628620105 13.206990646701952 M53.035930519070575 15.388239933229675 C52.77032459282295 14.586255399776292, 52.50471866657533 13.784270866322906, 52.313531628620105 13.206990646701952 M52.313531628620105 13.206990646701952 C52.17399330464975 12.618956043950783, 52.034454980679385 12.030921441199617, 51.71044319325631 10.665489083387323 M52.313531628620105 13.206990646701952 C52.11523975723527 12.371360129573677, 51.91694788585045 11.535729612445403, 51.71044319325631 10.665489083387323 M51.71044319325631 10.665489083387323 C51.58629785361331 9.913055459828866, 51.4621525139703 9.16062183627041, 51.243115893361704 7.833060780732911 M51.71044319325631 10.665489083387323 C51.61666050656639 10.09708074058473, 51.52287781987647 9.528672397782136, 51.243115893361704 7.833060780732911 M51.243115893361704 7.833060780732911 C51.128604048985785 6.73897870927064, 51.01409220460987 5.644896637808369, 50.92429719944605 4.786966999245582 M51.243115893361704 7.833060780732911 C51.12419186794062 6.696823347928992, 51.00526784251953 5.560585915125072, 50.92429719944605 4.786966999245582 M50.92429719944605 4.786966999245582 C50.87455898710028 3.8093145683317653, 50.82482077475451 2.8316621374179487, 50.76268365438108 1.610297236710487 M50.92429719944605 4.786966999245582 C50.88698069087134 4.053475110400442, 50.84966418229663 3.3199832215553022, 50.76268365438108 1.610297236710487 M50.76268365438108 1.610297236710487 C50.76268365438108 0.4299778955992639, 50.76268365438108 -0.7503414455119592, 50.76268365438108 -1.6102972367104824 M50.76268365438108 1.610297236710487 C50.76268365438108 0.7392315553296402, 50.76268365438108 -0.1318341260512066, 50.76268365438108 -1.6102972367104824 M50.76268365438108 -1.6102972367104824 C50.80859935053066 -2.5128144330599573, 50.85451504668025 -3.4153316294094322, 50.92429719944605 -4.7869669992455774 M50.76268365438108 -1.6102972367104824 C50.81351294763674 -2.6093959129469244, 50.864342240892405 -3.6084945891833664, 50.92429719944605 -4.7869669992455774 M50.92429719944605 -4.7869669992455774 C50.99997762448312 -5.510041513021527, 51.07565804952019 -6.233116026797477, 51.243115893361704 -7.833060780732899 M50.92429719944605 -4.7869669992455774 C50.99702303546819 -5.481812443029696, 51.069748871490326 -6.176657886813816, 51.243115893361704 -7.833060780732899 M51.243115893361704 -7.833060780732899 C51.36717700264002 -8.584983891704264, 51.491238111918335 -9.336907002675629, 51.71044319325631 -10.66548908338732 M51.243115893361704 -7.833060780732899 C51.39932153647215 -8.7798089905639, 51.555527179582604 -9.726557200394904, 51.71044319325631 -10.66548908338732 M51.71044319325631 -10.66548908338732 C51.833672263253085 -11.18479413995617, 51.95690133324986 -11.704099196525018, 52.3135316286201 -13.206990646701946 M51.71044319325631 -10.66548908338732 C51.9091391218607 -11.502822355857855, 52.10783505046508 -12.340155628328391, 52.3135316286201 -13.206990646701946 M52.3135316286201 -13.206990646701946 C52.545463862617694 -13.907299058879287, 52.77739609661529 -14.607607471056628, 53.03593051907057 -15.388239933229672 M52.3135316286201 -13.206990646701946 C52.529837322280514 -13.860115459330672, 52.74614301594092 -14.513240271959399, 53.03593051907057 -15.388239933229672 M53.03593051907057 -15.388239933229672 C53.24001847974816 -15.825586341192755, 53.44410644042574 -16.26293274915584, 53.857934706029596 -17.149738148526538 M53.03593051907057 -15.388239933229672 C53.22878206569682 -15.801507481727345, 53.42163361232307 -16.214775030225017, 53.857934706029596 -17.149738148526538 M53.857934706029596 -17.149738148526538 C54.05443076624716 -17.432445164179974, 54.25092682646472 -17.71515217983341, 54.75712205808191 -18.443436213162375 M53.857934706029596 -17.149738148526538 C54.079042048035795 -17.467854434056267, 54.300149390042 -17.785970719586, 54.75712205808191 -18.443436213162375 M54.75712205808191 -18.443436213162375 C55.13652713958147 -18.758573415051206, 55.515932221081016 -19.073710616940033, 55.70896508827003 -19.234045416353084 M54.75712205808191 -18.443436213162375 C55.02382657898856 -18.66496333693581, 55.290531099895205 -18.886490460709247, 55.70896508827003 -19.234045416353084 M55.70896508827003 -19.234045416353084 C56.02597311757014 -19.32020456860672, 56.34298114687025 -19.406363720860355, 56.6875 -19.5 M55.70896508827003 -19.234045416353084 C56.037840573320736 -19.32343000718358, 56.366716058371445 -19.412814598014073, 56.6875 -19.5 M56.6875 -19.5 C56.6875 -19.5, 56.6875 -19.5, 56.6875 -19.5 M56.6875 -19.5 C56.6875 -19.5, 56.6875 -19.5, 56.6875 -19.5" stroke="#9370DB" stroke-width="1.3" fill="none" stroke-dasharray="0 0" style=""/></g><g class="label" style="" transform="translate(-41.6875, -12)"><rect/><foreignObject width="83.375" height="24"><div xmlns="http://www.w3.org/1999/xhtml" style="display: table-cell; white-space: nowrap; line-height: 1.5; max-width: 200px; text-align: center;"><span class="nodeLabel markdown-node-label"><p>Stored data</p></span></div></foreignObject></g></g></g></g></g><defs><filter id="upstream_docs_flowchart_stored_data_bow_tie_rectangle_124-drop-shadow" height="130%" width="130%"><feDropShadow dx="4" dy="4" stdDeviation="0" flood-opacity="0.06" flood-color="#000000"/></filter></defs><defs><filter id="upstream_docs_flowchart_stored_data_bow_tie_rectangle_124-drop-shadow-small" height="150%" width="150%"><feDropShadow dx="2" dy="2" stdDeviation="0" flood-opacity="0.06" flood-color="#000000"/></filter></defs></svg>