<svg id="upstream_html_demos_sankey_energy_flow_002" width="100%" xmlns="http://www.w3.org/2000/svg" xmlns:xlink="http://www.w3.org/1999/xlink" style="max-width: 1200px; background-color: white;" viewBox="0 0 1200 605.374267578125" role="graphics-document document" aria-roledescription="sankey"><style>#upstream_html_demos_sankey_energy_flow_002{font-family:"trebuchet ms",verdana,arial,sans-serif;font-size:16px;fill:#333;}@keyframes edge-animation-frame{from{stroke-dashoffset:0;}}@keyframes dash{to{stroke-dashoffset:0;}}#upstream_html_demos_sankey_energy_flow_002 .edge-animation-slow{stroke-dasharray:9,5!important;stroke-dashoffset:900;animation:dash 50s linear infinite;stroke-linecap:round;}#upstream_html_demos_sankey_energy_flow_002 .edge-animation-fast{stroke-dasharray:9,5!important;stroke-dashoffset:900;animation:dash 20s linear infinite;stroke-linecap:round;}#upstream_html_demos_sankey_energy_flow_002 .error-icon{fill:#552222;}#upstream_html_demos_sankey_energy_flow_002 .error-text{fill:#552222;stroke:#552222;}#upstream_html_demos_sankey_energy_flow_002 .edge-thickness-normal{stroke-width:1px;}#upstream_html_demos_sankey_energy_flow_002 .edge-thickness-thick{stroke-width:3.5px;}#upstream_html_demos_sankey_energy_flow_002 .edge-pattern-solid{stroke-dasharray:0;}#upstream_html_demos_sankey_energy_flow_002 .edge-thickness-invisible{stroke-width:0;fill:none;}#upstream_html_demos_sankey_energy_flow_002 .edge-pattern-dashed{stroke-dasharray:3;}#upstream_html_demos_sankey_energy_flow_002 .edge-pattern-dotted{stroke-dasharray:2;}#upstream_html_demos_sankey_energy_flow_002 .marker{fill:#333333;stroke:#333333;}#upstream_html_demos_sankey_energy_flow_002 .marker.cross{stroke:#333333;}#upstream_html_demos_sankey_energy_flow_002 svg{font-family:"trebuchet ms",verdana,arial,sans-serif;font-size:16px;}#upstream_html_demos_sankey_energy_flow_002 p{margin:0;}#upstream_html_demos_sankey_energy_flow_002 .label{font-family:"trebuchet ms",verdana,arial,sans-serif;}#upstream_html_demos_sankey_energy_flow_002 :root{--mermaid-font-family:"trebuchet ms",verdana,arial,sans-serif;}</style><g/><g class="nodes"><g class="node" id="node-1" transform="translate(0,131.2344197897492)" x="0" y="131.2344197897492"><rect height="18.002195231250823" width="10" fill="#4e79a7"/></g><g class="node" id="node-2" transform="translate(170,135.8748541343864)" x="170" y="135.8748541343864"><rect height="56.133728165176024" width="10" fill="#f28e2c"/></g><g class="node" id="node-3" transform="translate(340,472.70348065425355)" x="340" y="472.70348065425355"><rect height="93.46653627640762" width="10" fill="#e15759"/></g><g class="node" id="node-4" transform="translate(1190,0)" x="1190" y="0"><rect height="126.76906033471286" width="10" fill="#76b7b2"/></g><g class="node" id="node-5" transform="translate(340,146.44433908821304)" x="340" y="146.44433908821304"><rect height="64.58499885415688" width="10" fill="#59a14f"/></g><g class="node" id="node-6" transform="translate(340,254.6004673180721)" x="340" y="254.6004673180721"><rect height="29.45741599878619" width="10" fill="#edc949"/></g><g class="node" id="node-7" transform="translate(0,594.9484335391627)" x="0" y="594.9484335391627"><rect height="5.051566460837307" width="10" fill="#af7aa1"/></g><g class="node" id="node-8" transform="translate(0,224.9037861402617)" x="0" y="224.9037861402617"><rect height="5.051566460837336" width="10" fill="#ff9da7"/></g><g class="node" id="node-9" transform="translate(0,250.58679840870371)" x="0" y="250.58679840870371"><rect height="1.6750994384136675" width="10" fill="#9c755f"/></g><g class="node" id="node-10" transform="translate(170,233.9476833227298)" x="170" y="233.9476833227298"><rect height="10.90719797176962" width="10" fill="#bab0ab"/></g><g class="node" id="node-11" transform="translate(0,262.2618978471174)" x="0" y="262.2618978471174"><rect height="9.232098533356009" width="10" fill="#4e79a7"/></g><g class="node" id="node-12" transform="translate(680,205.38921784870965)" x="680" y="205.38921784870965"><rect height="11.449591879193292" width="10" fill="#f28e2c"/></g><g class="node" id="node-13" transform="translate(1190,208.32974091272465)" x="1190" y="208.32974091272465"><rect height="82.1135014818515" width="10" fill="#e15759"/></g><g class="node" id="node-14" transform="translate(1190,379.71941307968825)" x="1190" y="379.71941307968825"><rect height="19.363953218622328" width="10" fill="#76b7b2"/></g><g class="node" id="node-15" transform="translate(1190,300.44324239457615)" x="1190" y="300.44324239457615"><rect height="53.71965671877712" width="10" fill="#59a14f"/></g><g class="node" id="node-16" transform="translate(680,230.0531615344384)" x="680" y="230.0531615344384"><rect height="132.58298033972585" width="10" fill="#edc949"/></g><g class="node" id="node-17" transform="translate(1190,136.76906033471286)" x="1190" y="136.76906033471286"><rect height="15.07575061525256" width="10" fill="#af7aa1"/></g><g class="node" id="node-18" transform="translate(850,349.7539784906229)" x="850" y="349.7539784906229"><rect height="3.9171289642035845" width="10" fill="#ff9da7"/></g><g class="node" id="node-19" transform="translate(1190,429.9573420876415)" x="1190" y="429.9573420876415"><rect height="28.076462058863626" width="10" fill="#9c755f"/></g><g class="node" id="node-20" transform="translate(1190,364.16289911335326)" x="1190" y="364.16289911335326"><rect height="1.591965087515291" width="10" fill="#bab0ab"/></g><g class="node" id="node-21" transform="translate(1190,409.0833662983106)" x="1190" y="409.0833662983106"><rect height="1.7718008535210856" width="10" fill="#4e79a7"/></g><g class="node" id="node-22" transform="translate(1190,161.84481094996542)" x="1190" y="161.84481094996542"><rect height="12.990896971629923" width="10" fill="#f28e2c"/></g><g class="node" id="node-23" transform="translate(1190,184.83570792159534)" x="1190" y="184.83570792159534"><rect height="13.494032991129302" width="10" fill="#e15759"/></g><g class="node" id="node-24" transform="translate(0,313.93196332034705)" x="0" y="313.93196332034705"><rect height="5.8769924205381585" width="10" fill="#76b7b2"/></g><g class="node" id="node-25" transform="translate(170,320.44336196254466)" x="170" y="320.44336196254466"><rect height="17.74571998551062" width="10" fill="#59a14f"/></g><g class="node" id="node-26" transform="translate(0,340.81854738070115)" x="0" y="340.81854738070115"><rect height="11.86872756497246" width="10" fill="#edc949"/></g><g class="node" id="node-27" transform="translate(510,4.4991565105042435)" x="510" y="4.4991565105042435"><rect height="200.90642703584285" width="10" fill="#af7aa1"/></g><g class="node" id="node-28" transform="translate(0,302.9197737320656)" x="0" y="302.9197737320656"><rect height="1.0121895882814442" width="10" fill="#ff9da7"/></g><g class="node" id="node-29" transform="translate(1020,353.39195686593115)" x="1020" y="353.39195686593115"><rect height="3.0160738380604926" width="10" fill="#9c755f"/></g><g class="node" id="node-30" transform="translate(0,329.8089557408852)" x="0" y="329.8089557408852"><rect height="1.0095916398159375" width="10" fill="#bab0ab"/></g><g class="node" id="node-31" transform="translate(1190,468.03380414650513)" x="1190" y="468.03380414650513"><rect height="18.573888224147254" width="10" fill="#4e79a7"/></g><g class="node" id="node-32" transform="translate(1190,496.6076923706524)" x="1190" y="496.6076923706524"><rect height="2.086729939736756" width="10" fill="#f28e2c"/></g><g class="node" id="node-33" transform="translate(1190,508.69442231038914)" x="1190" y="508.69442231038914"><rect height="29.770613119358188" width="10" fill="#e15759"/></g><g class="node" id="node-34" transform="translate(1190,548.4650354297473)" x="1190" y="548.4650354297473"><rect height="4.794369562745487" width="10" fill="#76b7b2"/></g><g class="node" id="node-35" transform="translate(0,239.95535260109904)" x="0" y="239.95535260109904"><rect height="0.6314458076046776" width="10" fill="#59a14f"/></g><g class="node" id="node-36" transform="translate(0,0)" x="0" y="0"><rect height="121.23441978974923" width="10" fill="#edc949"/></g><g class="node" id="node-37" transform="translate(0,486.61962901436726)" x="0" y="486.61962901436726"><rect height="72.78397988103649" width="10" fill="#af7aa1"/></g><g class="node" id="node-38" transform="translate(170,479.1456195811618)" x="170" y="479.1456195811618"><rect height="88.32880452479549" width="10" fill="#ff9da7"/></g><g class="node" id="node-39" transform="translate(0,569.4036088954037)" x="0" y="569.4036088954037"><rect height="15.544824643758943" width="10" fill="#9c755f"/></g><g class="node" id="node-40" transform="translate(0,195.50620392205724)" x="0" y="195.50620392205724"><rect height="19.397582218204462" width="10" fill="#bab0ab"/></g><g class="node" id="node-41" transform="translate(0,438.5599726546563)" x="0" y="438.5599726546563"><rect height="38.05965635971097" width="10" fill="#4e79a7"/></g><g class="node" id="node-42" transform="translate(170,254.85488129449942)" x="170" y="254.85488129449942"><rect height="8.645539502017641" width="10" fill="#f28e2c"/></g><g class="node" id="node-43" transform="translate(170,273.50042079651706)" x="170" y="273.50042079651706"><rect height="2.7802378495746325" width="10" fill="#e15759"/></g><g class="node" id="node-44" transform="translate(0,281.4939963804734)" x="0" y="281.4939963804734"><rect height="11.425777351592217" width="10" fill="#76b7b2"/></g><g class="node" id="node-45" transform="translate(0,362.6872749456736)" x="0" y="362.6872749456736"><rect height="1.3642116053666768" width="10" fill="#59a14f"/></g><g class="node" id="node-46" transform="translate(0,159.23661502100003)" x="0" y="159.23661502100003"><rect height="26.269588901057205" width="10" fill="#edc949"/></g><g class="node" id="node-47" transform="translate(0,374.0514865510403)" x="0" y="374.0514865510403"><rect height="2.7441552319971834" width="10" fill="#af7aa1"/></g><g class="node" id="node-48" transform="translate(0,386.79564178303747)" x="0" y="386.79564178303747"><rect height="41.764330871618824" width="10" fill="#ff9da7"/></g></g><g class="node-labels" font-size="14"><text x="16" y="140.23551740537462" dy="0.35em" text-anchor="start">Agricultural 'waste'</text><text x="186" y="163.9417182169744" dy="0.35em" text-anchor="start">Bio-conversion</text><text x="356" y="519.4367487924574" dy="0.35em" text-anchor="start">Liquid</text><text x="1184" y="63.38453016735643" dy="0.35em" text-anchor="end">Losses</text><text x="356" y="178.73683851529148" dy="0.35em" text-anchor="start">Solid</text><text x="356" y="269.32917531746523" dy="0.35em" text-anchor="start">Gas</text><text x="16" y="597.4742167695813" dy="0.35em" text-anchor="start">Biofuel imports</text><text x="16" y="227.42956937068038" dy="0.35em" text-anchor="start">Biomass imports</text><text x="16" y="251.42434812791055" dy="0.35em" text-anchor="start">Coal imports</text><text x="186" y="239.4012823086146" dy="0.35em" text-anchor="start">Coal</text><text x="16" y="266.87794711379536" dy="0.35em" text-anchor="start">Coal reserves</text><text x="674" y="211.1140137883063" dy="0.35em" text-anchor="end">District heating</text><text x="1184" y="249.3864916536504" dy="0.35em" text-anchor="end">Industry</text><text x="1184" y="389.4013896889994" dy="0.35em" text-anchor="end">Heating and cooling - commercial</text><text x="1184" y="327.3030707539647" dy="0.35em" text-anchor="end">Heating and cooling - homes</text><text x="674" y="296.3446517043013" dy="0.35em" text-anchor="end">Electricity grid</text><text x="1184" y="144.30693564233914" dy="0.35em" text-anchor="end">Over generation / exports</text><text x="844" y="351.7125429727247" dy="0.35em" text-anchor="end">H2 conversion</text><text x="1184" y="443.9955731170733" dy="0.35em" text-anchor="end">Road transport</text><text x="1184" y="364.9588816571109" dy="0.35em" text-anchor="end">Agriculture</text><text x="1184" y="409.9692667250711" dy="0.35em" text-anchor="end">Rail transport</text><text x="1184" y="168.34025943578038" dy="0.35em" text-anchor="end">Lighting &amp; appliances - commercial</text><text x="1184" y="191.58272441716" dy="0.35em" text-anchor="end">Lighting &amp; appliances - homes</text><text x="16" y="316.87045953061613" dy="0.35em" text-anchor="start">Gas imports</text><text x="186" y="329.31622195529997" dy="0.35em" text-anchor="start">Ngas</text><text x="16" y="346.7529111631874" dy="0.35em" text-anchor="start">Gas reserves</text><text x="526" y="104.95237002842566" dy="0.35em" text-anchor="start">Thermal generation</text><text x="16" y="303.42586852620633" dy="0.35em" text-anchor="start">Geothermal</text><text x="1014" y="354.8999937849614" dy="0.35em" text-anchor="end">H2</text><text x="16" y="330.3137515607932" dy="0.35em" text-anchor="start">Hydro</text><text x="1184" y="477.32074825857876" dy="0.35em" text-anchor="end">International shipping</text><text x="1184" y="497.65105734052077" dy="0.35em" text-anchor="end">Domestic aviation</text><text x="1184" y="523.5797288700683" dy="0.35em" text-anchor="end">International aviation</text><text x="1184" y="550.8622202111201" dy="0.35em" text-anchor="end">National navigation</text><text x="16" y="240.27107550490138" dy="0.35em" text-anchor="start">Marine algae</text><text x="16" y="60.61720989487461" dy="0.35em" text-anchor="start">Nuclear</text><text x="16" y="523.0116189548855" dy="0.35em" text-anchor="start">Oil imports</text><text x="186" y="523.3100218435595" dy="0.35em" text-anchor="start">Oil</text><text x="16" y="577.1760212172833" dy="0.35em" text-anchor="start">Oil reserves</text><text x="16" y="205.20499503115946" dy="0.35em" text-anchor="start">Other waste</text><text x="16" y="457.5898008345118" dy="0.35em" text-anchor="start">Pumped heat</text><text x="186" y="259.17765104550824" dy="0.35em" text-anchor="start">Solar PV</text><text x="186" y="274.8905397213044" dy="0.35em" text-anchor="start">Solar Thermal</text><text x="16" y="287.20688505626947" dy="0.35em" text-anchor="start">Solar</text><text x="16" y="363.36938074835695" dy="0.35em" text-anchor="start">Tidal</text><text x="16" y="172.37140947152864" dy="0.35em" text-anchor="start">UK land based bioenergy</text><text x="16" y="375.4235641670389" dy="0.35em" text-anchor="start">Wave</text><text x="16" y="407.67780721884685" dy="0.35em" text-anchor="start">Wind</text></g><g class="links" fill="none" stroke-opacity="0.5"><g class="link" style="mix-blend-mode: multiply;"><linearGradient id="linearGradient-49" gradientUnits="userSpaceOnUse" x1="10" x2="170"><stop offset="0%" stop-color="#4e79a7"/><stop offset="100%" stop-color="#f28e2c"/></linearGradient><path d="M10,140.23551740537465C90,140.23551740537465,90,144.87595175001184,170,144.87595175001184" stroke="url(#linearGradient-49)" stroke-width="18.00219523125085"/></g><g class="link" style="mix-blend-mode: multiply;"><linearGradient id="linearGradient-50" gradientUnits="userSpaceOnUse" x1="180" x2="340"><stop offset="0%" stop-color="#f28e2c"/><stop offset="100%" stop-color="#e15759"/></linearGradient><path d="M180,191.96549965417498C260,191.96549965417498,260,472.74656329964097,340,472.74656329964097" stroke="url(#linearGradient-50)" stroke-width="1"/></g><g class="link" style="mix-blend-mode: multiply;"><linearGradient id="linearGradient-51" gradientUnits="userSpaceOnUse" x1="180" x2="1190"><stop offset="0%" stop-color="#f28e2c"/><stop offset="100%" stop-color="#76b7b2"/></linearGradient><path d="M180,137.81335668111515C685,137.81335668111515,685,115.5452013110839,1190,115.5452013110839" stroke="url(#linearGradient-51)" stroke-width="3.8770050934574987"/></g><g class="link" style="mix-blend-mode: multiply;"><linearGradient id="linearGradient-52" gradientUnits="userSpaceOnUse" x1="180" x2="340"><stop offset="0%" stop-color="#f28e2c"/><stop offset="100%" stop-color="#59a14f"/></linearGradient><path d="M180,159.9813622769131C260,159.9813622769131,260,166.67384213728224,340,166.67384213728224" stroke="url(#linearGradient-52)" stroke-width="40.459006098138374"/></g><g class="link" style="mix-blend-mode: multiply;"><linearGradient id="linearGradient-53" gradientUnits="userSpaceOnUse" x1="180" x2="340"><stop offset="0%" stop-color="#f28e2c"/><stop offset="100%" stop-color="#edc949"/></linearGradient><path d="M180,186.06664116738494C260,186.06664116738494,260,260.45624315947475,340,260.45624315947475" stroke="url(#linearGradient-53)" stroke-width="11.711551682805275"/></g><g class="link" style="mix-blend-mode: multiply;"><linearGradient id="linearGradient-54" gradientUnits="userSpaceOnUse" x1="10" x2="340"><stop offset="0%" stop-color="#af7aa1"/><stop offset="100%" stop-color="#e15759"/></linearGradient><path d="M10,597.4742167695814C175,597.4742167695814,175,563.6442337002425,340,563.6442337002425" stroke="url(#linearGradient-54)" stroke-width="5.051566460837334"/></g><g class="link" style="mix-blend-mode: multiply;"><linearGradient id="linearGradient-55" gradientUnits="userSpaceOnUse" x1="10" x2="340"><stop offset="0%" stop-color="#ff9da7"/><stop offset="100%" stop-color="#59a14f"/></linearGradient><path d="M10,227.42956937068035C175,227.42956937068035,175,197.5963567401816,340,197.5963567401816" stroke="url(#linearGradient-55)" stroke-width="5.051566460837334"/></g><g class="link" style="mix-blend-mode: multiply;"><linearGradient id="linearGradient-56" gradientUnits="userSpaceOnUse" x1="10" x2="170"><stop offset="0%" stop-color="#9c755f"/><stop offset="100%" stop-color="#bab0ab"/></linearGradient><path d="M10,251.42434812791055C90,251.42434812791055,90,234.78523304193664,170,234.78523304193664" stroke="url(#linearGradient-56)" stroke-width="1.67509943841366"/></g><g class="link" style="mix-blend-mode: multiply;"><linearGradient id="linearGradient-57" gradientUnits="userSpaceOnUse" x1="10" x2="170"><stop offset="0%" stop-color="#4e79a7"/><stop offset="100%" stop-color="#bab0ab"/></linearGradient><path d="M10,266.87794711379536C90,266.87794711379536,90,240.23883202782147,170,240.23883202782147" stroke="url(#linearGradient-57)" stroke-width="9.232098533356002"/></g><g class="link" style="mix-blend-mode: multiply;"><linearGradient id="linearGradient-58" gradientUnits="userSpaceOnUse" x1="180" x2="340"><stop offset="0%" stop-color="#bab0ab"/><stop offset="100%" stop-color="#59a14f"/></linearGradient><path d="M180,239.40128230861464C260,239.40128230861464,260,205.5757389564851,340,205.5757389564851" stroke="url(#linearGradient-58)" stroke-width="10.907197971769662"/></g><g class="link" style="mix-blend-mode: multiply;"><linearGradient id="linearGradient-59" gradientUnits="userSpaceOnUse" x1="690" x2="1190"><stop offset="0%" stop-color="#f28e2c"/><stop offset="100%" stop-color="#e15759"/></linearGradient><path d="M690,206.15698378552176C940,206.15698378552176,940,215.8055541181178,1190,215.8055541181178" stroke="url(#linearGradient-59)" stroke-width="1.5355318736242398"/></g><g class="link" style="mix-blend-mode: multiply;"><linearGradient id="linearGradient-60" gradientUnits="userSpaceOnUse" x1="690" x2="1190"><stop offset="0%" stop-color="#f28e2c"/><stop offset="100%" stop-color="#76b7b2"/></linearGradient><path d="M690,215.21458678027344C940,215.21458678027344,940,381.3434916968475,1190,381.3434916968475" stroke="url(#linearGradient-60)" stroke-width="3.2481572343184055"/></g><g class="link" style="mix-blend-mode: multiply;"><linearGradient id="linearGradient-61" gradientUnits="userSpaceOnUse" x1="690" x2="1190"><stop offset="0%" stop-color="#f28e2c"/><stop offset="100%" stop-color="#59a14f"/></linearGradient><path d="M690,210.25762894272407C940,210.25762894272407,940,303.7761216149663,1190,303.7761216149663" stroke="url(#linearGradient-61)" stroke-width="6.665758440780326"/></g><g class="link" style="mix-blend-mode: multiply;"><linearGradient id="linearGradient-62" gradientUnits="userSpaceOnUse" x1="690" x2="1190"><stop offset="0%" stop-color="#edc949"/><stop offset="100%" stop-color="#af7aa1"/></linearGradient><path d="M690,245.7732755343884C940,245.7732755343884,940,144.30693564233917,1190,144.30693564233917" stroke="url(#linearGradient-62)" stroke-width="15.07575061525263"/></g><g class="link" style="mix-blend-mode: multiply;"><linearGradient id="linearGradient-63" gradientUnits="userSpaceOnUse" x1="690" x2="1190"><stop offset="0%" stop-color="#edc949"/><stop offset="100%" stop-color="#59a14f"/></linearGradient><path d="M690,341.3051086756918C940,341.3051086756918,940,315.31606436857345,1190,315.31606436857345" stroke="url(#linearGradient-63)" stroke-width="16.414127066433903"/></g><g class="link" style="mix-blend-mode: multiply;"><linearGradient id="linearGradient-64" gradientUnits="userSpaceOnUse" x1="690" x2="850"><stop offset="0%" stop-color="#edc949"/><stop offset="100%" stop-color="#ff9da7"/></linearGradient><path d="M690,331.13948066037307C770,331.13948066037307,770,351.7125429727247,850,351.7125429727247" stroke="url(#linearGradient-64)" stroke-width="3.9171289642035783"/></g><g class="link" style="mix-blend-mode: multiply;"><linearGradient id="linearGradient-65" gradientUnits="userSpaceOnUse" x1="690" x2="1190"><stop offset="0%" stop-color="#edc949"/><stop offset="100%" stop-color="#e15759"/></linearGradient><path d="M690,304.48849849152265C940,304.48849849152265,940,241.2657377416786,1190,241.2657377416786" stroke="url(#linearGradient-65)" stroke-width="49.384835373497324"/></g><g class="link" style="mix-blend-mode: multiply;"><linearGradient id="linearGradient-66" gradientUnits="userSpaceOnUse" x1="690" x2="1190"><stop offset="0%" stop-color="#edc949"/><stop offset="100%" stop-color="#9c755f"/></linearGradient><path d="M690,359.9085124810174C940,359.9085124810174,940,432.6849714807882,1190,432.6849714807882" stroke="url(#linearGradient-66)" stroke-width="5.455258786293391"/></g><g class="link" style="mix-blend-mode: multiply;"><linearGradient id="linearGradient-67" gradientUnits="userSpaceOnUse" x1="690" x2="1190"><stop offset="0%" stop-color="#edc949"/><stop offset="100%" stop-color="#bab0ab"/></linearGradient><path d="M690,349.8305652264118C940,349.8305652264118,940,364.60859160566946,1190,364.60859160566946" stroke="url(#linearGradient-67)" stroke-width="1"/></g><g class="link" style="mix-blend-mode: multiply;"><linearGradient id="linearGradient-68" gradientUnits="userSpaceOnUse" x1="690" x2="1190"><stop offset="0%" stop-color="#edc949"/><stop offset="100%" stop-color="#76b7b2"/></linearGradient><path d="M690,353.0974854218705C940,353.0974854218705,940,385.91609749196226,1190,385.91609749196226" stroke="url(#linearGradient-68)" stroke-width="5.897054355911194"/></g><g class="link" style="mix-blend-mode: multiply;"><linearGradient id="linearGradient-69" gradientUnits="userSpaceOnUse" x1="690" x2="1190"><stop offset="0%" stop-color="#edc949"/><stop offset="100%" stop-color="#76b7b2"/></linearGradient><path d="M690,234.14428088060026C940,234.14428088060026,940,121.57482320397449,1190,121.57482320397449" stroke="url(#linearGradient-69)" stroke-width="8.182238692323695"/></g><g class="link" style="mix-blend-mode: multiply;"><linearGradient id="linearGradient-70" gradientUnits="userSpaceOnUse" x1="690" x2="1190"><stop offset="0%" stop-color="#edc949"/><stop offset="100%" stop-color="#4e79a7"/></linearGradient><path d="M690,356.6134478438484C940,356.6134478438484,940,409.65080154233294,1190,409.65080154233294" stroke="url(#linearGradient-70)" stroke-width="1.1348704880446845"/></g><g class="link" style="mix-blend-mode: multiply;"><linearGradient id="linearGradient-71" gradientUnits="userSpaceOnUse" x1="690" x2="1190"><stop offset="0%" stop-color="#edc949"/><stop offset="100%" stop-color="#f28e2c"/></linearGradient><path d="M690,259.8065993278297C940,259.8065993278297,940,168.34025943578038,1190,168.34025943578038" stroke="url(#linearGradient-71)" stroke-width="12.990896971629907"/></g><g class="link" style="mix-blend-mode: multiply;"><linearGradient id="linearGradient-72" gradientUnits="userSpaceOnUse" x1="690" x2="1190"><stop offset="0%" stop-color="#edc949"/><stop offset="100%" stop-color="#e15759"/></linearGradient><path d="M690,273.0490643092093C940,273.0490643092093,940,191.58272441716,1190,191.58272441716" stroke="url(#linearGradient-72)" stroke-width="13.494032991129306"/></g><g class="link" style="mix-blend-mode: multiply;"><linearGradient id="linearGradient-73" gradientUnits="userSpaceOnUse" x1="10" x2="170"><stop offset="0%" stop-color="#76b7b2"/><stop offset="100%" stop-color="#59a14f"/></linearGradient><path d="M10,316.87045953061613C90,316.87045953061613,90,323.38185817281374,170,323.38185817281374" stroke="url(#linearGradient-73)" stroke-width="5.876992420538154"/></g><g class="link" style="mix-blend-mode: multiply;"><linearGradient id="linearGradient-74" gradientUnits="userSpaceOnUse" x1="10" x2="170"><stop offset="0%" stop-color="#edc949"/><stop offset="100%" stop-color="#59a14f"/></linearGradient><path d="M10,346.7529111631874C90,346.7529111631874,90,332.25471816556905,170,332.25471816556905" stroke="url(#linearGradient-74)" stroke-width="11.86872756497247"/></g><g class="link" style="mix-blend-mode: multiply;"><linearGradient id="linearGradient-75" gradientUnits="userSpaceOnUse" x1="350" x2="1190"><stop offset="0%" stop-color="#edc949"/><stop offset="100%" stop-color="#76b7b2"/></linearGradient><path d="M350,284.0485740015234C770,284.0485740015234,770,388.8739339852528,1190,388.8739339852528" stroke="url(#linearGradient-75)" stroke-width="1"/></g><g class="link" style="mix-blend-mode: multiply;"><linearGradient id="linearGradient-76" gradientUnits="userSpaceOnUse" x1="350" x2="1190"><stop offset="0%" stop-color="#edc949"/><stop offset="100%" stop-color="#76b7b2"/></linearGradient><path d="M350,254.701570812524C770,254.701570812524,770,125.76704604458824,1190,125.76704604458824" stroke="url(#linearGradient-76)" stroke-width="1"/></g><g class="link" style="mix-blend-mode: multiply;"><linearGradient id="linearGradient-77" gradientUnits="userSpaceOnUse" x1="350" x2="510"><stop offset="0%" stop-color="#edc949"/><stop offset="100%" stop-color="#af7aa1"/></linearGradient><path d="M350,265.76392403987654C430,265.76392403987654,430,194.44433381344646,510,194.44433381344646" stroke="url(#linearGradient-77)" stroke-width="21.92249946580124"/></g><g class="link" style="mix-blend-mode: multiply;"><linearGradient id="linearGradient-78" gradientUnits="userSpaceOnUse" x1="350" x2="1190"><stop offset="0%" stop-color="#edc949"/><stop offset="100%" stop-color="#bab0ab"/></linearGradient><path d="M350,283.88800635330387C770,283.88800635330387,770,365.078242956057,1190,365.078242956057" stroke="url(#linearGradient-78)" stroke-width="1"/></g><g class="link" style="mix-blend-mode: multiply;"><linearGradient id="linearGradient-79" gradientUnits="userSpaceOnUse" x1="350" x2="1190"><stop offset="0%" stop-color="#edc949"/><stop offset="100%" stop-color="#e15759"/></linearGradient><path d="M350,280.2309608965983C770,280.2309608965983,770,269.4639425522484,1190,269.4639425522484" stroke="url(#linearGradient-79)" stroke-width="7.011574247642219"/></g><g class="link" style="mix-blend-mode: multiply;"><linearGradient id="linearGradient-80" gradientUnits="userSpaceOnUse" x1="10" x2="680"><stop offset="0%" stop-color="#ff9da7"/><stop offset="100%" stop-color="#edc949"/></linearGradient><path d="M10,303.42586852620633C345,303.42586852620633,345,315.0549322228912,680,315.0549322228912" stroke="url(#linearGradient-80)" stroke-width="1.012189588281492"/></g><g class="link" style="mix-blend-mode: multiply;"><linearGradient id="linearGradient-81" gradientUnits="userSpaceOnUse" x1="860" x2="1020"><stop offset="0%" stop-color="#ff9da7"/><stop offset="100%" stop-color="#9c755f"/></linearGradient><path d="M860,352.1629262053259C940,352.1629262053259,940,354.8999937849614,1020,354.8999937849614" stroke="url(#linearGradient-81)" stroke-width="3.016073838060507"/></g><g class="link" style="mix-blend-mode: multiply;"><linearGradient id="linearGradient-82" gradientUnits="userSpaceOnUse" x1="860" x2="1190"><stop offset="0%" stop-color="#ff9da7"/><stop offset="100%" stop-color="#76b7b2"/></linearGradient><path d="M860,350.2044338884593C1025,350.2044338884593,1025,126.31860493687651,1190,126.31860493687651" stroke="url(#linearGradient-82)" stroke-width="1"/></g><g class="link" style="mix-blend-mode: multiply;"><linearGradient id="linearGradient-83" gradientUnits="userSpaceOnUse" x1="1030" x2="1190"><stop offset="0%" stop-color="#9c755f"/><stop offset="100%" stop-color="#9c755f"/></linearGradient><path d="M1030,354.8999937849614C1110,354.8999937849614,1110,436.9206377929651,1190,436.9206377929651" stroke="url(#linearGradient-83)" stroke-width="3.016073838060507"/></g><g class="link" style="mix-blend-mode: multiply;"><linearGradient id="linearGradient-84" gradientUnits="userSpaceOnUse" x1="10" x2="680"><stop offset="0%" stop-color="#bab0ab"/><stop offset="100%" stop-color="#edc949"/></linearGradient><path d="M10,330.31375156079315C345,330.31375156079315,345,316.0658228369399,680,316.0658228369399" stroke="url(#linearGradient-84)" stroke-width="1.0095916398159186"/></g><g class="link" style="mix-blend-mode: multiply;"><linearGradient id="linearGradient-85" gradientUnits="userSpaceOnUse" x1="350" x2="1190"><stop offset="0%" stop-color="#e15759"/><stop offset="100%" stop-color="#e15759"/></linearGradient><path d="M350,481.4402370135069C770,481.4402370135069,770,281.7064860353228,1190,281.7064860353228" stroke="url(#linearGradient-85)" stroke-width="17.473512718506647"/></g><g class="link" style="mix-blend-mode: multiply;"><linearGradient id="linearGradient-86" gradientUnits="userSpaceOnUse" x1="350" x2="1190"><stop offset="0%" stop-color="#e15759"/><stop offset="100%" stop-color="#4e79a7"/></linearGradient><path d="M350,520.231360196747C770,520.231360196747,770,477.3207482585788,1190,477.3207482585788" stroke="url(#linearGradient-86)" stroke-width="18.57388822414733"/></g><g class="link" style="mix-blend-mode: multiply;"><linearGradient id="linearGradient-87" gradientUnits="userSpaceOnUse" x1="350" x2="1190"><stop offset="0%" stop-color="#e15759"/><stop offset="100%" stop-color="#9c755f"/></linearGradient><path d="M350,501.1418513674185C770,501.1418513674185,770,448.2312394292502,1190,448.2312394292502" stroke="url(#linearGradient-87)" stroke-width="19.605129434509692"/></g><g class="link" style="mix-blend-mode: multiply;"><linearGradient id="linearGradient-88" gradientUnits="userSpaceOnUse" x1="350" x2="1190"><stop offset="0%" stop-color="#e15759"/><stop offset="100%" stop-color="#f28e2c"/></linearGradient><path d="M350,530.561669278689C770,530.561669278689,770,497.65105734052077,1190,497.65105734052077" stroke="url(#linearGradient-88)" stroke-width="2.086729939736748"/></g><g class="link" style="mix-blend-mode: multiply;"><linearGradient id="linearGradient-89" gradientUnits="userSpaceOnUse" x1="350" x2="1190"><stop offset="0%" stop-color="#e15759"/><stop offset="100%" stop-color="#e15759"/></linearGradient><path d="M350,546.4903408082365C770,546.4903408082365,770,523.5797288700682,1190,523.5797288700682" stroke="url(#linearGradient-89)" stroke-width="29.770613119358124"/></g><g class="link" style="mix-blend-mode: multiply;"><linearGradient id="linearGradient-90" gradientUnits="userSpaceOnUse" x1="350" x2="1190"><stop offset="0%" stop-color="#e15759"/><stop offset="100%" stop-color="#bab0ab"/></linearGradient><path d="M350,490.43967482872375C770,490.43967482872375,770,365.4921827449051,1190,365.4921827449051" stroke="url(#linearGradient-90)" stroke-width="1"/></g><g class="link" style="mix-blend-mode: multiply;"><linearGradient id="linearGradient-91" gradientUnits="userSpaceOnUse" x1="350" x2="1190"><stop offset="0%" stop-color="#e15759"/><stop offset="100%" stop-color="#76b7b2"/></linearGradient><path d="M350,563.7728321492883C770,563.7728321492883,770,550.8622202111201,1190,550.8622202111201" stroke="url(#linearGradient-91)" stroke-width="4.794369562745559"/></g><g class="link" style="mix-blend-mode: multiply;"><linearGradient id="linearGradient-92" gradientUnits="userSpaceOnUse" x1="350" x2="1190"><stop offset="0%" stop-color="#e15759"/><stop offset="100%" stop-color="#4e79a7"/></linearGradient><path d="M350,491.0208214674255C770,491.0208214674255,770,410.5367019690935,1190,410.5367019690935" stroke="url(#linearGradient-92)" stroke-width="1"/></g><g class="link" style="mix-blend-mode: multiply;"><linearGradient id="linearGradient-93" gradientUnits="userSpaceOnUse" x1="10" x2="170"><stop offset="0%" stop-color="#59a14f"/><stop offset="100%" stop-color="#f28e2c"/></linearGradient><path d="M10,240.27107550490138C90,240.27107550490138,90,191.69271506528975,170,191.69271506528975" stroke="url(#linearGradient-93)" stroke-width="1"/></g><g class="link" style="mix-blend-mode: multiply;"><linearGradient id="linearGradient-94" gradientUnits="userSpaceOnUse" x1="180" x2="340"><stop offset="0%" stop-color="#59a14f"/><stop offset="100%" stop-color="#edc949"/></linearGradient><path d="M180,329.31622195529997C260,329.31622195529997,260,275.1848789936327,340,275.1848789936327" stroke="url(#linearGradient-94)" stroke-width="17.745719985510625"/></g><g class="link" style="mix-blend-mode: multiply;"><linearGradient id="linearGradient-95" gradientUnits="userSpaceOnUse" x1="10" x2="510"><stop offset="0%" stop-color="#edc949"/><stop offset="100%" stop-color="#af7aa1"/></linearGradient><path d="M10,60.6172098948746C260,60.6172098948746,260,65.11636640537884,510,65.11636640537884" stroke="url(#linearGradient-95)" stroke-width="121.2344197897492"/></g><g class="link" style="mix-blend-mode: multiply;"><linearGradient id="linearGradient-96" gradientUnits="userSpaceOnUse" x1="10" x2="170"><stop offset="0%" stop-color="#af7aa1"/><stop offset="100%" stop-color="#ff9da7"/></linearGradient><path d="M10,523.0116189548855C90,523.0116189548855,90,515.53760952168,170,515.53760952168" stroke="url(#linearGradient-96)" stroke-width="72.78397988103647"/></g><g class="link" style="mix-blend-mode: multiply;"><linearGradient id="linearGradient-97" gradientUnits="userSpaceOnUse" x1="10" x2="170"><stop offset="0%" stop-color="#9c755f"/><stop offset="100%" stop-color="#ff9da7"/></linearGradient><path d="M10,577.1760212172833C90,577.1760212172833,90,559.7020117840777,170,559.7020117840777" stroke="url(#linearGradient-97)" stroke-width="15.544824643758954"/></g><g class="link" style="mix-blend-mode: multiply;"><linearGradient id="linearGradient-98" gradientUnits="userSpaceOnUse" x1="180" x2="340"><stop offset="0%" stop-color="#ff9da7"/><stop offset="100%" stop-color="#e15759"/></linearGradient><path d="M180,523.3100218435595C260,523.3100218435595,260,516.9540482074261,340,516.9540482074261" stroke="url(#linearGradient-98)" stroke-width="88.32880452479543"/></g><g class="link" style="mix-blend-mode: multiply;"><linearGradient id="linearGradient-99" gradientUnits="userSpaceOnUse" x1="10" x2="340"><stop offset="0%" stop-color="#bab0ab"/><stop offset="100%" stop-color="#59a14f"/></linearGradient><path d="M10,210.82017197855592C175,210.82017197855592,175,190.98695934805718,340,190.98695934805718" stroke="url(#linearGradient-99)" stroke-width="8.167228323411493"/></g><g class="link" style="mix-blend-mode: multiply;"><linearGradient id="linearGradient-100" gradientUnits="userSpaceOnUse" x1="10" x2="170"><stop offset="0%" stop-color="#bab0ab"/><stop offset="100%" stop-color="#f28e2c"/></linearGradient><path d="M10,201.1213808694537C90,201.1213808694537,90,185.76181521409094,170,185.76181521409094" stroke="url(#linearGradient-100)" stroke-width="11.230353894792941"/></g><g class="link" style="mix-blend-mode: multiply;"><linearGradient id="linearGradient-101" gradientUnits="userSpaceOnUse" x1="10" x2="1190"><stop offset="0%" stop-color="#4e79a7"/><stop offset="100%" stop-color="#59a14f"/></linearGradient><path d="M10,452.48973933565037C600,452.48973933565037,600,340.233132432359,1190,340.233132432359" stroke="url(#linearGradient-101)" stroke-width="27.859533361988206"/></g><g class="link" style="mix-blend-mode: multiply;"><linearGradient id="linearGradient-102" gradientUnits="userSpaceOnUse" x1="10" x2="1190"><stop offset="0%" stop-color="#4e79a7"/><stop offset="100%" stop-color="#76b7b2"/></linearGradient><path d="M10,471.51956751550586C600,471.51956751550586,600,393.9833047994491,1190,393.9833047994491" stroke="url(#linearGradient-102)" stroke-width="10.200122997722744"/></g><g class="link" style="mix-blend-mode: multiply;"><linearGradient id="linearGradient-103" gradientUnits="userSpaceOnUse" x1="180" x2="680"><stop offset="0%" stop-color="#f28e2c"/><stop offset="100%" stop-color="#edc949"/></linearGradient><path d="M180,259.17765104550824C430,259.17765104550824,430,310.22606767774164,680,310.22606767774164" stroke="url(#linearGradient-103)" stroke-width="8.645539502017632"/></g><g class="link" style="mix-blend-mode: multiply;"><linearGradient id="linearGradient-104" gradientUnits="userSpaceOnUse" x1="180" x2="1190"><stop offset="0%" stop-color="#e15759"/><stop offset="100%" stop-color="#59a14f"/></linearGradient><path d="M180,274.8905397213043C685,274.8905397213043,685,324.9132468265776,1190,324.9132468265776" stroke="url(#linearGradient-104)" stroke-width="2.780237849574559"/></g><g class="link" style="mix-blend-mode: multiply;"><linearGradient id="linearGradient-105" gradientUnits="userSpaceOnUse" x1="10" x2="170"><stop offset="0%" stop-color="#76b7b2"/><stop offset="100%" stop-color="#e15759"/></linearGradient><path d="M10,291.5296548072783C90,291.5296548072783,90,274.8905397213043,170,274.8905397213043" stroke="url(#linearGradient-105)" stroke-width="2.780237849574559"/></g><g class="link" style="mix-blend-mode: multiply;"><linearGradient id="linearGradient-106" gradientUnits="userSpaceOnUse" x1="10" x2="170"><stop offset="0%" stop-color="#76b7b2"/><stop offset="100%" stop-color="#f28e2c"/></linearGradient><path d="M10,285.8167661314822C90,285.8167661314822,90,259.17765104550824,170,259.17765104550824" stroke="url(#linearGradient-106)" stroke-width="8.645539502017632"/></g><g class="link" style="mix-blend-mode: multiply;"><linearGradient id="linearGradient-107" gradientUnits="userSpaceOnUse" x1="350" x2="1190"><stop offset="0%" stop-color="#59a14f"/><stop offset="100%" stop-color="#bab0ab"/></linearGradient><path d="M350,210.96554387449305C770,210.96554387449305,770,364.2265488507598,1190,364.2265488507598" stroke="url(#linearGradient-107)" stroke-width="1"/></g><g class="link" style="mix-blend-mode: multiply;"><linearGradient id="linearGradient-108" gradientUnits="userSpaceOnUse" x1="350" x2="510"><stop offset="0%" stop-color="#59a14f"/><stop offset="100%" stop-color="#af7aa1"/></linearGradient><path d="M350,175.31909297835924C430,175.31909297835924,430,154.60833019039964,510,154.60833019039964" stroke="url(#linearGradient-108)" stroke-width="57.749507780292404"/></g><g class="link" style="mix-blend-mode: multiply;"><linearGradient id="linearGradient-109" gradientUnits="userSpaceOnUse" x1="350" x2="1190"><stop offset="0%" stop-color="#59a14f"/><stop offset="100%" stop-color="#e15759"/></linearGradient><path d="M350,207.54787050279594C770,207.54787050279594,770,211.68376454701516,1190,211.68376454701516" stroke="url(#linearGradient-109)" stroke-width="6.7080472685810495"/></g><g class="link" style="mix-blend-mode: multiply;"><linearGradient id="linearGradient-110" gradientUnits="userSpaceOnUse" x1="520" x2="680"><stop offset="0%" stop-color="#af7aa1"/><stop offset="100%" stop-color="#edc949"/></linearGradient><path d="M520,167.48051535019988C600,167.48051535019988,600,267.9782297305856,680,267.9782297305856" stroke="url(#linearGradient-110)" stroke-width="75.85013639229442"/></g><g class="link" style="mix-blend-mode: multiply;"><linearGradient id="linearGradient-111" gradientUnits="userSpaceOnUse" x1="520" x2="1190"><stop offset="0%" stop-color="#af7aa1"/><stop offset="100%" stop-color="#76b7b2"/></linearGradient><path d="M520,61.302505892681815C855,61.302505892681815,855,56.80334938217757,1190,56.80334938217757" stroke="url(#linearGradient-111)" stroke-width="113.60669876435514"/></g><g class="link" style="mix-blend-mode: multiply;"><linearGradient id="linearGradient-112" gradientUnits="userSpaceOnUse" x1="520" x2="680"><stop offset="0%" stop-color="#af7aa1"/><stop offset="100%" stop-color="#f28e2c"/></linearGradient><path d="M520,123.83065121445604C600,123.83065121445604,600,211.1140137883063,680,211.1140137883063" stroke="url(#linearGradient-112)" stroke-width="11.44959187919328"/></g><g class="link" style="mix-blend-mode: multiply;"><linearGradient id="linearGradient-113" gradientUnits="userSpaceOnUse" x1="10" x2="680"><stop offset="0%" stop-color="#59a14f"/><stop offset="100%" stop-color="#edc949"/></linearGradient><path d="M10,363.36938074835695C345,363.36938074835695,345,317.25272445953124,680,317.25272445953124" stroke="url(#linearGradient-113)" stroke-width="1.3642116053666995"/></g><g class="link" style="mix-blend-mode: multiply;"><linearGradient id="linearGradient-114" gradientUnits="userSpaceOnUse" x1="10" x2="170"><stop offset="0%" stop-color="#edc949"/><stop offset="100%" stop-color="#f28e2c"/></linearGradient><path d="M10,172.37140947152864C90,172.37140947152864,90,167.01184381616585,170,167.01184381616585" stroke="url(#linearGradient-114)" stroke-width="26.26958890105723"/></g><g class="link" style="mix-blend-mode: multiply;"><linearGradient id="linearGradient-115" gradientUnits="userSpaceOnUse" x1="10" x2="680"><stop offset="0%" stop-color="#af7aa1"/><stop offset="100%" stop-color="#edc949"/></linearGradient><path d="M10,375.4235641670389C345,375.4235641670389,345,319.30690787821317,680,319.30690787821317" stroke="url(#linearGradient-115)" stroke-width="2.7441552319971496"/></g><g class="link" style="mix-blend-mode: multiply;"><linearGradient id="linearGradient-116" gradientUnits="userSpaceOnUse" x1="10" x2="680"><stop offset="0%" stop-color="#ff9da7"/><stop offset="100%" stop-color="#edc949"/></linearGradient><path d="M10,407.67780721884685C345,407.67780721884685,345,341.5611509300211,680,341.5611509300211" stroke="url(#linearGradient-116)" stroke-width="41.76433087161874"/></g></g></svg>