<svg id="upstream_html_demos_xychart_xy_charts_demos_001" width="100%" xmlns="http://www.w3.org/2000/svg" xmlns:xlink="http://www.w3.org/1999/xlink" style="max-width: 700px; background-color: white;" viewBox="0 0 700 500" role="graphics-document document" aria-roledescription="xychart"><style>#upstream_html_demos_xychart_xy_charts_demos_001{font-family:"trebuchet ms",verdana,arial,sans-serif;font-size:16px;fill:#333;}@keyframes edge-animation-frame{from{stroke-dashoffset:0;}}@keyframes dash{to{stroke-dashoffset:0;}}#upstream_html_demos_xychart_xy_charts_demos_001 .edge-animation-slow{stroke-dasharray:9,5!important;stroke-dashoffset:900;animation:dash 50s linear infinite;stroke-linecap:round;}#upstream_html_demos_xychart_xy_charts_demos_001 .edge-animation-fast{stroke-dasharray:9,5!important;stroke-dashoffset:900;animation:dash 20s linear infinite;stroke-linecap:round;}#upstream_html_demos_xychart_xy_charts_demos_001 .error-icon{fill:#552222;}#upstream_html_demos_xychart_xy_charts_demos_001 .error-text{fill:#552222;stroke:#552222;}#upstream_html_demos_xychart_xy_charts_demos_001 .edge-thickness-normal{stroke-width:1px;}#upstream_html_demos_xychart_xy_charts_demos_001 .edge-thickness-thick{stroke-width:3.5px;}#upstream_html_demos_xychart_xy_charts_demos_001 .edge-pattern-solid{stroke-dasharray:0;}#upstream_html_demos_xychart_xy_charts_demos_001 .edge-thickness-invisible{stroke-width:0;fill:none;}#upstream_html_demos_xychart_xy_charts_demos_001 .edge-pattern-dashed{stroke-dasharray:3;}#upstream_html_demos_xychart_xy_charts_demos_001 .edge-pattern-dotted{stroke-dasharray:2;}#upstream_html_demos_xychart_xy_charts_demos_001 .marker{fill:#333333;stroke:#333333;}#upstream_html_demos_xychart_xy_charts_demos_001 .marker.cross{stroke:#333333;}#upstream_html_demos_xychart_xy_charts_demos_001 svg{font-family:"trebuchet ms",verdana,arial,sans-serif;font-size:16px;}#upstream_html_demos_xychart_xy_charts_demos_001 p{margin:0;}#upstream_html_demos_xychart_xy_charts_demos_001 :root{--mermaid-font-family:"trebuchet ms",verdana,arial,sans-serif;}</style><g/><g class="main"><rect width="700" height="500" class="background" fill="white"/><g class="chart-title"><text x="0" y="0" fill="#131300" font-size="20" dominant-baseline="middle" text-anchor="middle" transform="translate(350, 21.58984375) rotate(0)">Sales Revenue (in $)</text></g><g class="plot"><g class="bar-plot-0"><rect x="83.56875190734863" y="400.7399553571429" width="32.3" height="66.26004464285711" fill="#ECECFF" stroke="#ECECFF" stroke-width="0"/><rect x="136.59431991577148" y="342.4799107142857" width="32.3" height="124.52008928571428" fill="#ECECFF" stroke="#ECECFF" stroke-width="0"/><rect x="189.61988792419433" y="255.08984375" width="32.3" height="211.91015625" fill="#ECECFF" stroke="#ECECFF" stroke-width="0"/><rect x="242.64545593261718" y="214.3078125" width="32.3" height="252.6921875" fill="#ECECFF" stroke="#ECECFF" stroke-width="0"/><rect x="295.67102394104006" y="138.56975446428572" width="32.3" height="328.4302455357143" fill="#ECECFF" stroke="#ECECFF" stroke-width="0"/><rect x="348.6965919494629" y="80.30970982142856" width="32.3" height="386.69029017857144" fill="#ECECFF" stroke="#ECECFF" stroke-width="0"/><rect x="401.72215995788576" y="51.1796875" width="32.3" height="415.8203125" fill="#ECECFF" stroke="#ECECFF" stroke-width="0"/><rect x="454.7477279663086" y="97.78772321428573" width="32.3" height="369.21227678571427" fill="#ECECFF" stroke="#ECECFF" stroke-width="0"/><rect x="507.77329597473147" y="156.04776785714284" width="32.3" height="310.95223214285716" fill="#ECECFF" stroke="#ECECFF" stroke-width="0"/><rect x="560.7988639831543" y="196.82979910714283" width="32.3" height="270.17020089285717" fill="#ECECFF" stroke="#ECECFF" stroke-width="0"/><rect x="613.8244319915772" y="284.21986607142856" width="32.3" height="182.78013392857144" fill="#ECECFF" stroke="#ECECFF" stroke-width="0"/><rect x="666.85" y="342.4799107142857" width="32.3" height="124.52008928571428" fill="#ECECFF" stroke="#ECECFF" stroke-width="0"/></g><g class="line-plot-1"><path d="M99.719,400.74L152.744,342.48L205.77,255.09L258.795,214.308L311.821,138.57L364.847,80.31L417.872,51.18L470.898,97.788L523.923,156.048L576.949,196.83L629.974,284.22L683,342.48" fill="none" stroke="#8493A6" stroke-width="2"/></g></g><g class="bottom-axis"><g class="axis-line"><path d="M 82.71875190734863,468 L 700,468" fill="none" stroke="#131300" stroke-width="2"/></g><g class="label"><text x="0" y="0" fill="#131300" font-size="14" dominant-baseline="text-before-edge" text-anchor="middle" transform="translate(99.71875190734863, 479) rotate(0)">jan</text><text x="0" y="0" fill="#131300" font-size="14" dominant-baseline="text-before-edge" text-anchor="middle" transform="translate(152.74431991577148, 479) rotate(0)">feb</text><text x="0" y="0" fill="#131300" font-size="14" dominant-baseline="text-before-edge" text-anchor="middle" transform="translate(205.76988792419434, 479) rotate(0)">mar</text><text x="0" y="0" fill="#131300" font-size="14" dominant-baseline="text-before-edge" text-anchor="middle" transform="translate(258.7954559326172, 479) rotate(0)">apr</text><text x="0" y="0" fill="#131300" font-size="14" dominant-baseline="text-before-edge" text-anchor="middle" transform="translate(311.82102394104004, 479) rotate(0)">may</text><text x="0" y="0" fill="#131300" font-size="14" dominant-baseline="text-before-edge" text-anchor="middle" transform="translate(364.8465919494629, 479) rotate(0)">jun</text><text x="0" y="0" fill="#131300" font-size="14" dominant-baseline="text-before-edge" text-anchor="middle" transform="translate(417.87215995788574, 479) rotate(0)">jul</text><text x="0" y="0" fill="#131300" font-size="14" dominant-baseline="text-before-edge" text-anchor="middle" transform="translate(470.8977279663086, 479) rotate(0)">aug</text><text x="0" y="0" fill="#131300" font-size="14" dominant-baseline="text-before-edge" text-anchor="middle" transform="translate(523.9232959747314, 479) rotate(0)">sep</text><text x="0" y="0" fill="#131300" font-size="14" dominant-baseline="text-before-edge" text-anchor="middle" transform="translate(576.9488639831543, 479) rotate(0)">oct</text><text x="0" y="0" fill="#131300" font-size="14" dominant-baseline="text-before-edge" text-anchor="middle" transform="translate(629.9744319915771, 479) rotate(0)">nov</text><text x="0" y="0" fill="#131300" font-size="14" dominant-baseline="text-before-edge" text-anchor="middle" transform="translate(683, 479) rotate(0)">dec</text></g><g class="ticks"><path d="M 99.71875190734863,469 L 99.71875190734863,474" fill="none" stroke="#131300" stroke-width="2"/><path d="M 152.74431991577148,469 L 152.74431991577148,474" fill="none" stroke="#131300" stroke-width="2"/><path d="M 205.76988792419434,469 L 205.76988792419434,474" fill="none" stroke="#131300" stroke-width="2"/><path d="M 258.7954559326172,469 L 258.7954559326172,474" fill="none" stroke="#131300" stroke-width="2"/><path d="M 311.82102394104004,469 L 311.82102394104004,474" fill="none" stroke="#131300" stroke-width="2"/><path d="M 364.8465919494629,469 L 364.8465919494629,474" fill="none" stroke="#131300" stroke-width="2"/><path d="M 417.87215995788574,469 L 417.87215995788574,474" fill="none" stroke="#131300" stroke-width="2"/><path d="M 470.8977279663086,469 L 470.8977279663086,474" fill="none" stroke="#131300" stroke-width="2"/><path d="M 523.9232959747314,469 L 523.9232959747314,474" fill="none" stroke="#131300" stroke-width="2"/><path d="M 576.9488639831543,469 L 576.9488639831543,474" fill="none" stroke="#131300" stroke-width="2"/><path d="M 629.9744319915771,469 L 629.9744319915771,474" fill="none" stroke="#131300" stroke-width="2"/><path d="M 683,469 L 683,474" fill="none" stroke="#131300" stroke-width="2"/></g></g><g class="left-axis"><g class="axisl-line"><path d="M 81.71875190734863,43.1796875 L 81.71875190734863,467" fill="none" stroke="#131300" stroke-width="2"/></g><g class="label"><text x="0" y="0" fill="#131300" font-size="14" dominant-baseline="middle" text-anchor="end" transform="translate(70.71875190734863, 51.1796875) rotate(0)">11000</text><text x="0" y="0" fill="#131300" font-size="14" dominant-baseline="middle" text-anchor="end" transform="translate(70.71875190734863, 80.30970982142856) rotate(0)">10500</text><text x="0" y="0" fill="#131300" font-size="14" dominant-baseline="middle" text-anchor="end" transform="translate(70.71875190734863, 109.43973214285717) rotate(0)">10000</text><text x="0" y="0" fill="#131300" font-size="14" dominant-baseline="middle" text-anchor="end" transform="translate(70.71875190734863, 138.56975446428572) rotate(0)">9500</text><text x="0" y="0" fill="#131300" font-size="14" dominant-baseline="middle" text-anchor="end" transform="translate(70.71875190734863, 167.69977678571428) rotate(0)">9000</text><text x="0" y="0" fill="#131300" font-size="14" dominant-baseline="middle" text-anchor="end" transform="translate(70.71875190734863, 196.82979910714283) rotate(0)">8500</text><text x="0" y="0" fill="#131300" font-size="14" dominant-baseline="middle" text-anchor="end" transform="translate(70.71875190734863, 225.95982142857144) rotate(0)">8000</text><text x="0" y="0" fill="#131300" font-size="14" dominant-baseline="middle" text-anchor="end" transform="translate(70.71875190734863, 255.08984375) rotate(0)">7500</text><text x="0" y="0" fill="#131300" font-size="14" dominant-baseline="middle" text-anchor="end" transform="translate(70.71875190734863, 284.21986607142856) rotate(0)">7000</text><text x="0" y="0" fill="#131300" font-size="14" dominant-baseline="middle" text-anchor="end" transform="translate(70.71875190734863, 313.3498883928571) rotate(0)">6500</text><text x="0" y="0" fill="#131300" font-size="14" dominant-baseline="middle" text-anchor="end" transform="translate(70.71875190734863, 342.4799107142857) rotate(0)">6000</text><text x="0" y="0" fill="#131300" font-size="14" dominant-baseline="middle" text-anchor="end" transform="translate(70.71875190734863, 371.6099330357143) rotate(0)">5500</text><text x="0" y="0" fill="#131300" font-size="14" dominant-baseline="middle" text-anchor="end" transform="translate(70.71875190734863, 400.7399553571429) rotate(0)">5000</text><text x="0" y="0" fill="#131300" font-size="14" dominant-baseline="middle" text-anchor="end" transform="translate(70.71875190734863, 429.86997767857144) rotate(0)">4500</text><text x="0" y="0" fill="#131300" font-size="14" dominant-baseline="middle" text-anchor="end" transform="translate(70.71875190734863, 459) rotate(0)">4000</text></g><g class="ticks"><path d="M 80.71875190734863,51.1796875 L 75.71875190734863,51.1796875" fill="none" stroke="#131300" stroke-width="2"/><path d="M 80.71875190734863,80.30970982142856 L 75.71875190734863,80.30970982142856" fill="none" stroke="#131300" stroke-width="2"/><path d="M 80.71875190734863,109.43973214285717 L 75.71875190734863,109.43973214285717" fill="none" stroke="#131300" stroke-width="2"/><path d="M 80.71875190734863,138.56975446428572 L 75.71875190734863,138.56975446428572" fill="none" stroke="#131300" stroke-width="2"/><path d="M 80.71875190734863,167.69977678571428 L 75.71875190734863,167.69977678571428" fill="none" stroke="#131300" stroke-width="2"/><path d="M 80.71875190734863,196.82979910714283 L 75.71875190734863,196.82979910714283" fill="none" stroke="#131300" stroke-width="2"/><path d="M 80.71875190734863,225.95982142857144 L 75.71875190734863,225.95982142857144" fill="none" stroke="#131300" stroke-width="2"/><path d="M 80.71875190734863,255.08984375 L 75.71875190734863,255.08984375" fill="none" stroke="#131300" stroke-width="2"/><path d="M 80.71875190734863,284.21986607142856 L 75.71875190734863,284.21986607142856" fill="none" stroke="#131300" stroke-width="2"/><path d="M 80.71875190734863,313.3498883928571 L 75.71875190734863,313.3498883928571" fill="none" stroke="#131300" stroke-width="2"/><path d="M 80.71875190734863,342.4799107142857 L 75.71875190734863,342.4799107142857" fill="none" stroke="#131300" stroke-width="2"/><path d="M 80.71875190734863,371.6099330357143 L 75.71875190734863,371.6099330357143" fill="none" stroke="#131300" stroke-width="2"/><path d="M 80.71875190734863,400.7399553571429 L 75.71875190734863,400.7399553571429" fill="none" stroke="#131300" stroke-width="2"/><path d="M 80.71875190734863,429.86997767857144 L 75.71875190734863,429.86997767857144" fill="none" stroke="#131300" stroke-width="2"/><path d="M 80.71875190734863,459 L 75.71875190734863,459" fill="none" stroke="#131300" stroke-width="2"/></g><g class="title"><text x="0" y="0" fill="#131300" font-size="16" dominant-baseline="text-before-edge" text-anchor="middle" transform="translate(5, 255.08984375) rotate(270)">Revenue (in $)</text></g></g></g><g class="mermaid-tmp-group"/></svg>