<svg id="upstream_xychart_axis_range_only_jison_spec" width="100%" xmlns="http://www.w3.org/2000/svg" xmlns:xlink="http://www.w3.org/1999/xlink" style="max-width: 700px; background-color: white;" viewBox="0 0 700 500" role="graphics-document document" aria-roledescription="xychart"><style>#upstream_xychart_axis_range_only_jison_spec{font-family:"trebuchet ms",verdana,arial,sans-serif;font-size:16px;fill:#333;}@keyframes edge-animation-frame{from{stroke-dashoffset:0;}}@keyframes dash{to{stroke-dashoffset:0;}}#upstream_xychart_axis_range_only_jison_spec .edge-animation-slow{stroke-dasharray:9,5!important;stroke-dashoffset:900;animation:dash 50s linear infinite;stroke-linecap:round;}#upstream_xychart_axis_range_only_jison_spec .edge-animation-fast{stroke-dasharray:9,5!important;stroke-dashoffset:900;animation:dash 20s linear infinite;stroke-linecap:round;}#upstream_xychart_axis_range_only_jison_spec .error-icon{fill:#552222;}#upstream_xychart_axis_range_only_jison_spec .error-text{fill:#552222;stroke:#552222;}#upstream_xychart_axis_range_only_jison_spec .edge-thickness-normal{stroke-width:1px;}#upstream_xychart_axis_range_only_jison_spec .edge-thickness-thick{stroke-width:3.5px;}#upstream_xychart_axis_range_only_jison_spec .edge-pattern-solid{stroke-dasharray:0;}#upstream_xychart_axis_range_only_jison_spec .edge-thickness-invisible{stroke-width:0;fill:none;}#upstream_xychart_axis_range_only_jison_spec .edge-pattern-dashed{stroke-dasharray:3;}#upstream_xychart_axis_range_only_jison_spec .edge-pattern-dotted{stroke-dasharray:2;}#upstream_xychart_axis_range_only_jison_spec .marker{fill:#333333;stroke:#333333;}#upstream_xychart_axis_range_only_jison_spec .marker.cross{stroke:#333333;}#upstream_xychart_axis_range_only_jison_spec svg{font-family:"trebuchet ms",verdana,arial,sans-serif;font-size:16px;}#upstream_xychart_axis_range_only_jison_spec p{margin:0;}#upstream_xychart_axis_range_only_jison_spec :root{--mermaid-font-family:"trebuchet ms",verdana,arial,sans-serif;}</style><g/><g class="main"><rect width="700" height="500" class="background" fill="white"/><g class="bottom-axis"><g class="axis-line"><path d="M 31.6875,468 L 700,468" fill="none" stroke="#131300" stroke-width="2"/></g><g class="label"><text x="0" y="0" fill="#131300" font-size="14" dominant-baseline="text-before-edge" text-anchor="middle" transform="translate(46.4318953804348, 479) rotate(0)">45</text><text x="0" y="0" fill="#131300" font-size="14" dominant-baseline="text-before-edge" text-anchor="middle" transform="translate(120.43834918478262, 479) rotate(0)">40</text><text x="0" y="0" fill="#131300" font-size="14" dominant-baseline="text-before-edge" text-anchor="middle" transform="translate(194.44480298913047, 479) rotate(0)">35</text><text x="0" y="0" fill="#131300" font-size="14" dominant-baseline="text-before-edge" text-anchor="middle" transform="translate(268.45125679347825, 479) rotate(0)">30</text><text x="0" y="0" fill="#131300" font-size="14" dominant-baseline="text-before-edge" text-anchor="middle" transform="translate(342.457710597826, 479) rotate(0)">25</text><text x="0" y="0" fill="#131300" font-size="14" dominant-baseline="text-before-edge" text-anchor="middle" transform="translate(416.46416440217394, 479) rotate(0)">20</text><text x="0" y="0" fill="#131300" font-size="14" dominant-baseline="text-before-edge" text-anchor="middle" transform="translate(490.47061820652175, 479) rotate(0)">15</text><text x="0" y="0" fill="#131300" font-size="14" dominant-baseline="text-before-edge" text-anchor="middle" transform="translate(564.4770720108696, 479) rotate(0)">10</text><text x="0" y="0" fill="#131300" font-size="14" dominant-baseline="text-before-edge" text-anchor="middle" transform="translate(638.4835258152175, 479) rotate(0)">5</text></g><g class="ticks"><path d="M 46.4318953804348,469 L 46.4318953804348,474" fill="none" stroke="#131300" stroke-width="2"/><path d="M 120.43834918478262,469 L 120.43834918478262,474" fill="none" stroke="#131300" stroke-width="2"/><path d="M 194.44480298913047,469 L 194.44480298913047,474" fill="none" stroke="#131300" stroke-width="2"/><path d="M 268.45125679347825,469 L 268.45125679347825,474" fill="none" stroke="#131300" stroke-width="2"/><path d="M 342.457710597826,469 L 342.457710597826,474" fill="none" stroke="#131300" stroke-width="2"/><path d="M 416.46416440217394,469 L 416.46416440217394,474" fill="none" stroke="#131300" stroke-width="2"/><path d="M 490.47061820652175,469 L 490.47061820652175,474" fill="none" stroke="#131300" stroke-width="2"/><path d="M 564.4770720108696,469 L 564.4770720108696,474" fill="none" stroke="#131300" stroke-width="2"/><path d="M 638.4835258152175,469 L 638.4835258152175,474" fill="none" stroke="#131300" stroke-width="2"/></g></g><g class="left-axis"><g class="axisl-line"><path d="M 30.6875,0 L 30.6875,467" fill="none" stroke="#131300" stroke-width="2"/></g><g class="label"><text x="0" y="0" fill="#131300" font-size="14" dominant-baseline="middle" text-anchor="end" transform="translate(19.6875, 8) rotate(0)">33</text><text x="0" y="0" fill="#131300" font-size="14" dominant-baseline="middle" text-anchor="end" transform="translate(19.6875, 44.08) rotate(0)">34</text><text x="0" y="0" fill="#131300" font-size="14" dominant-baseline="middle" text-anchor="end" transform="translate(19.6875, 80.16) rotate(0)">35</text><text x="0" y="0" fill="#131300" font-size="14" dominant-baseline="middle" text-anchor="end" transform="translate(19.6875, 116.24) rotate(0)">36</text><text x="0" y="0" fill="#131300" font-size="14" dominant-baseline="middle" text-anchor="end" transform="translate(19.6875, 152.32) rotate(0)">37</text><text x="0" y="0" fill="#131300" font-size="14" dominant-baseline="middle" text-anchor="end" transform="translate(19.6875, 188.40000000000003) rotate(0)">38</text><text x="0" y="0" fill="#131300" font-size="14" dominant-baseline="middle" text-anchor="end" transform="translate(19.6875, 224.48) rotate(0)">39</text><text x="0" y="0" fill="#131300" font-size="14" dominant-baseline="middle" text-anchor="end" transform="translate(19.6875, 260.56) rotate(0)">40</text><text x="0" y="0" fill="#131300" font-size="14" dominant-baseline="middle" text-anchor="end" transform="translate(19.6875, 296.64) rotate(0)">41</text><text x="0" y="0" fill="#131300" font-size="14" dominant-baseline="middle" text-anchor="end" transform="translate(19.6875, 332.71999999999997) rotate(0)">42</text><text x="0" y="0" fill="#131300" font-size="14" dominant-baseline="middle" text-anchor="end" transform="translate(19.6875, 368.80000000000007) rotate(0)">43</text><text x="0" y="0" fill="#131300" font-size="14" dominant-baseline="middle" text-anchor="end" transform="translate(19.6875, 404.88) rotate(0)">44</text><text x="0" y="0" fill="#131300" font-size="14" dominant-baseline="middle" text-anchor="end" transform="translate(19.6875, 440.96) rotate(0)">45</text></g><g class="ticks"><path d="M 29.6875,8 L 24.6875,8" fill="none" stroke="#131300" stroke-width="2"/><path d="M 29.6875,44.08 L 24.6875,44.08" fill="none" stroke="#131300" stroke-width="2"/><path d="M 29.6875,80.16 L 24.6875,80.16" fill="none" stroke="#131300" stroke-width="2"/><path d="M 29.6875,116.24 L 24.6875,116.24" fill="none" stroke="#131300" stroke-width="2"/><path d="M 29.6875,152.32 L 24.6875,152.32" fill="none" stroke="#131300" stroke-width="2"/><path d="M 29.6875,188.40000000000003 L 24.6875,188.40000000000003" fill="none" stroke="#131300" stroke-width="2"/><path d="M 29.6875,224.48 L 24.6875,224.48" fill="none" stroke="#131300" stroke-width="2"/><path d="M 29.6875,260.56 L 24.6875,260.56" fill="none" stroke="#131300" stroke-width="2"/><path d="M 29.6875,296.64 L 24.6875,296.64" fill="none" stroke="#131300" stroke-width="2"/><path d="M 29.6875,332.71999999999997 L 24.6875,332.71999999999997" fill="none" stroke="#131300" stroke-width="2"/><path d="M 29.6875,368.80000000000007 L 24.6875,368.80000000000007" fill="none" stroke="#131300" stroke-width="2"/><path d="M 29.6875,404.88 L 24.6875,404.88" fill="none" stroke="#131300" stroke-width="2"/><path d="M 29.6875,440.96 L 24.6875,440.96" fill="none" stroke="#131300" stroke-width="2"/></g></g></g><g class="mermaid-tmp-group"/></svg>