<svg id="upstream_cypress_xychart_spec_y_axis_title_not_required_005" width="100%" xmlns="http://www.w3.org/2000/svg" xmlns:xlink="http://www.w3.org/1999/xlink" style="max-width: 700px; background-color: white;" viewBox="0 0 700 500" role="graphics-document document" aria-roledescription="xychart"><style>#upstream_cypress_xychart_spec_y_axis_title_not_required_005{font-family:"trebuchet ms",verdana,arial,sans-serif;font-size:16px;fill:#333;}@keyframes edge-animation-frame{from{stroke-dashoffset:0;}}@keyframes dash{to{stroke-dashoffset:0;}}#upstream_cypress_xychart_spec_y_axis_title_not_required_005 .edge-animation-slow{stroke-dasharray:9,5!important;stroke-dashoffset:900;animation:dash 50s linear infinite;stroke-linecap:round;}#upstream_cypress_xychart_spec_y_axis_title_not_required_005 .edge-animation-fast{stroke-dasharray:9,5!important;stroke-dashoffset:900;animation:dash 20s linear infinite;stroke-linecap:round;}#upstream_cypress_xychart_spec_y_axis_title_not_required_005 .error-icon{fill:#552222;}#upstream_cypress_xychart_spec_y_axis_title_not_required_005 .error-text{fill:#552222;stroke:#552222;}#upstream_cypress_xychart_spec_y_axis_title_not_required_005 .edge-thickness-normal{stroke-width:1px;}#upstream_cypress_xychart_spec_y_axis_title_not_required_005 .edge-thickness-thick{stroke-width:3.5px;}#upstream_cypress_xychart_spec_y_axis_title_not_required_005 .edge-pattern-solid{stroke-dasharray:0;}#upstream_cypress_xychart_spec_y_axis_title_not_required_005 .edge-thickness-invisible{stroke-width:0;fill:none;}#upstream_cypress_xychart_spec_y_axis_title_not_required_005 .edge-pattern-dashed{stroke-dasharray:3;}#upstream_cypress_xychart_spec_y_axis_title_not_required_005 .edge-pattern-dotted{stroke-dasharray:2;}#upstream_cypress_xychart_spec_y_axis_title_not_required_005 .marker{fill:#333333;stroke:#333333;}#upstream_cypress_xychart_spec_y_axis_title_not_required_005 .marker.cross{stroke:#333333;}#upstream_cypress_xychart_spec_y_axis_title_not_required_005 svg{font-family:"trebuchet ms",verdana,arial,sans-serif;font-size:16px;}#upstream_cypress_xychart_spec_y_axis_title_not_required_005 p{margin:0;}#upstream_cypress_xychart_spec_y_axis_title_not_required_005 :root{--mermaid-font-family:"trebuchet ms",verdana,arial,sans-serif;}</style><g/><g class="main"><rect width="700" height="500" class="background" fill="white"/><g class="plot"><g class="bar-plot-0"><rect x="54.618750000000006" y="369.7142840794155" width="34.199999999999996" height="68.28571401323586" fill="#ECECFF" stroke="#ECECFF" stroke-width="0"/><rect x="110.09886363636363" y="309.42857006617953" width="34.199999999999996" height="128.57142802647184" fill="#ECECFF" stroke="#ECECFF" stroke-width="0"/><rect x="165.57897727272726" y="218.99999904632568" width="34.199999999999996" height="218.99999904632568" fill="#ECECFF" stroke="#ECECFF" stroke-width="0"/><rect x="221.0590909090909" y="176.79999923706058" width="34.199999999999996" height="261.1999988555908" fill="#ECECFF" stroke="#ECECFF" stroke-width="0"/><rect x="276.5392045454545" y="98.42857101985388" width="34.199999999999996" height="339.5714270727975" fill="#ECECFF" stroke="#ECECFF" stroke-width="0"/><rect x="332.01931818181816" y="38.142857006617945" width="34.199999999999996" height="399.85714108603344" fill="#ECECFF" stroke="#ECECFF" stroke-width="0"/><rect x="387.4994318181818" y="8" width="34.199999999999996" height="429.99999809265137" fill="#ECECFF" stroke="#ECECFF" stroke-width="0"/><rect x="442.9795454545454" y="56.22857121058874" width="34.199999999999996" height="381.77142688206266" fill="#ECECFF" stroke="#ECECFF" stroke-width="0"/><rect x="498.459659090909" y="116.51428522382463" width="34.199999999999996" height="321.48571286882674" fill="#ECECFF" stroke="#ECECFF" stroke-width="0"/><rect x="553.9397727272727" y="158.71428503308974" width="34.199999999999996" height="279.28571305956166" fill="#ECECFF" stroke="#ECECFF" stroke-width="0"/><rect x="609.4198863636364" y="249.1428560529436" width="34.199999999999996" height="188.85714203970775" fill="#ECECFF" stroke="#ECECFF" stroke-width="0"/><rect x="664.9" y="309.42857006617953" width="34.199999999999996" height="128.57142802647184" fill="#ECECFF" stroke="#ECECFF" stroke-width="0"/></g><g class="line-plot-1"><path d="M71.719,369.714L127.199,309.429L182.679,219L238.159,176.8L293.639,98.429L349.119,38.143L404.599,8L460.08,56.229L515.56,116.514L571.04,158.714L626.52,249.143L682,309.429" fill="none" stroke="#8493A6" stroke-width="2"/></g></g><g class="bottom-axis"><g class="axis-line"><path d="M 53.71875,438.99999809265137 L 700,438.99999809265137" fill="none" stroke="#131300" stroke-width="2"/></g><g class="label"><text x="0" y="0" fill="#131300" font-size="14" dominant-baseline="text-before-edge" text-anchor="middle" transform="translate(71.71875, 449.99999809265137) rotate(0)">jan</text><text x="0" y="0" fill="#131300" font-size="14" dominant-baseline="text-before-edge" text-anchor="middle" transform="translate(127.19886363636363, 449.99999809265137) rotate(0)">feb</text><text x="0" y="0" fill="#131300" font-size="14" dominant-baseline="text-before-edge" text-anchor="middle" transform="translate(182.67897727272725, 449.99999809265137) rotate(0)">mar</text><text x="0" y="0" fill="#131300" font-size="14" dominant-baseline="text-before-edge" text-anchor="middle" transform="translate(238.1590909090909, 449.99999809265137) rotate(0)">apr</text><text x="0" y="0" fill="#131300" font-size="14" dominant-baseline="text-before-edge" text-anchor="middle" transform="translate(293.6392045454545, 449.99999809265137) rotate(0)">may</text><text x="0" y="0" fill="#131300" font-size="14" dominant-baseline="text-before-edge" text-anchor="middle" transform="translate(349.1193181818182, 449.99999809265137) rotate(0)">jun</text><text x="0" y="0" fill="#131300" font-size="14" dominant-baseline="text-before-edge" text-anchor="middle" transform="translate(404.5994318181818, 449.99999809265137) rotate(0)">jul</text><text x="0" y="0" fill="#131300" font-size="14" dominant-baseline="text-before-edge" text-anchor="middle" transform="translate(460.07954545454544, 449.99999809265137) rotate(0)">aug</text><text x="0" y="0" fill="#131300" font-size="14" dominant-baseline="text-before-edge" text-anchor="middle" transform="translate(515.559659090909, 449.99999809265137) rotate(0)">sep</text><text x="0" y="0" fill="#131300" font-size="14" dominant-baseline="text-before-edge" text-anchor="middle" transform="translate(571.0397727272727, 449.99999809265137) rotate(0)">oct</text><text x="0" y="0" fill="#131300" font-size="14" dominant-baseline="text-before-edge" text-anchor="middle" transform="translate(626.5198863636364, 449.99999809265137) rotate(0)">nov</text><text x="0" y="0" fill="#131300" font-size="14" dominant-baseline="text-before-edge" text-anchor="middle" transform="translate(682, 449.99999809265137) rotate(0)">dec</text></g><g class="ticks"><path d="M 71.71875,439.99999809265137 L 71.71875,444.99999809265137" fill="none" stroke="#131300" stroke-width="2"/><path d="M 127.19886363636363,439.99999809265137 L 127.19886363636363,444.99999809265137" fill="none" stroke="#131300" stroke-width="2"/><path d="M 182.67897727272725,439.99999809265137 L 182.67897727272725,444.99999809265137" fill="none" stroke="#131300" stroke-width="2"/><path d="M 238.1590909090909,439.99999809265137 L 238.1590909090909,444.99999809265137" fill="none" stroke="#131300" stroke-width="2"/><path d="M 293.6392045454545,439.99999809265137 L 293.6392045454545,444.99999809265137" fill="none" stroke="#131300" stroke-width="2"/><path d="M 349.1193181818182,439.99999809265137 L 349.1193181818182,444.99999809265137" fill="none" stroke="#131300" stroke-width="2"/><path d="M 404.5994318181818,439.99999809265137 L 404.5994318181818,444.99999809265137" fill="none" stroke="#131300" stroke-width="2"/><path d="M 460.07954545454544,439.99999809265137 L 460.07954545454544,444.99999809265137" fill="none" stroke="#131300" stroke-width="2"/><path d="M 515.559659090909,439.99999809265137 L 515.559659090909,444.99999809265137" fill="none" stroke="#131300" stroke-width="2"/><path d="M 571.0397727272727,439.99999809265137 L 571.0397727272727,444.99999809265137" fill="none" stroke="#131300" stroke-width="2"/><path d="M 626.5198863636364,439.99999809265137 L 626.5198863636364,444.99999809265137" fill="none" stroke="#131300" stroke-width="2"/><path d="M 682,439.99999809265137 L 682,444.99999809265137" fill="none" stroke="#131300" stroke-width="2"/></g><g class="title"><text x="0" y="0" fill="#131300" font-size="16" dominant-baseline="text-before-edge" text-anchor="middle" transform="translate(376.859375, 475.99999809265137) rotate(0)">Months</text></g></g><g class="left-axis"><g class="axisl-line"><path d="M 52.71875,0 L 52.71875,437.99999809265137" fill="none" stroke="#131300" stroke-width="2"/></g><g class="label"><text x="0" y="0" fill="#131300" font-size="14" dominant-baseline="middle" text-anchor="end" transform="translate(41.71875, 8) rotate(0)">11000</text><text x="0" y="0" fill="#131300" font-size="14" dominant-baseline="middle" text-anchor="end" transform="translate(41.71875, 38.142857006617945) rotate(0)">10500</text><text x="0" y="0" fill="#131300" font-size="14" dominant-baseline="middle" text-anchor="end" transform="translate(41.71875, 68.28571401323593) rotate(0)">10000</text><text x="0" y="0" fill="#131300" font-size="14" dominant-baseline="middle" text-anchor="end" transform="translate(41.71875, 98.42857101985388) rotate(0)">9500</text><text x="0" y="0" fill="#131300" font-size="14" dominant-baseline="middle" text-anchor="end" transform="translate(41.71875, 128.5714280264718) rotate(0)">9000</text><text x="0" y="0" fill="#131300" font-size="14" dominant-baseline="middle" text-anchor="end" transform="translate(41.71875, 158.71428503308974) rotate(0)">8500</text><text x="0" y="0" fill="#131300" font-size="14" dominant-baseline="middle" text-anchor="end" transform="translate(41.71875, 188.85714203970775) rotate(0)">8000</text><text x="0" y="0" fill="#131300" font-size="14" dominant-baseline="middle" text-anchor="end" transform="translate(41.71875, 218.99999904632568) rotate(0)">7500</text><text x="0" y="0" fill="#131300" font-size="14" dominant-baseline="middle" text-anchor="end" transform="translate(41.71875, 249.1428560529436) rotate(0)">7000</text><text x="0" y="0" fill="#131300" font-size="14" dominant-baseline="middle" text-anchor="end" transform="translate(41.71875, 279.28571305956154) rotate(0)">6500</text><text x="0" y="0" fill="#131300" font-size="14" dominant-baseline="middle" text-anchor="end" transform="translate(41.71875, 309.42857006617953) rotate(0)">6000</text><text x="0" y="0" fill="#131300" font-size="14" dominant-baseline="middle" text-anchor="end" transform="translate(41.71875, 339.5714270727975) rotate(0)">5500</text><text x="0" y="0" fill="#131300" font-size="14" dominant-baseline="middle" text-anchor="end" transform="translate(41.71875, 369.7142840794155) rotate(0)">5000</text><text x="0" y="0" fill="#131300" font-size="14" dominant-baseline="middle" text-anchor="end" transform="translate(41.71875, 399.85714108603344) rotate(0)">4500</text><text x="0" y="0" fill="#131300" font-size="14" dominant-baseline="middle" text-anchor="end" transform="translate(41.71875, 429.99999809265137) rotate(0)">4000</text></g><g class="ticks"><path d="M 51.71875,8 L 46.71875,8" fill="none" stroke="#131300" stroke-width="2"/><path d="M 51.71875,38.142857006617945 L 46.71875,38.142857006617945" fill="none" stroke="#131300" stroke-width="2"/><path d="M 51.71875,68.28571401323593 L 46.71875,68.28571401323593" fill="none" stroke="#131300" stroke-width="2"/><path d="M 51.71875,98.42857101985388 L 46.71875,98.42857101985388" fill="none" stroke="#131300" stroke-width="2"/><path d="M 51.71875,128.5714280264718 L 46.71875,128.5714280264718" fill="none" stroke="#131300" stroke-width="2"/><path d="M 51.71875,158.71428503308974 L 46.71875,158.71428503308974" fill="none" stroke="#131300" stroke-width="2"/><path d="M 51.71875,188.85714203970775 L 46.71875,188.85714203970775" fill="none" stroke="#131300" stroke-width="2"/><path d="M 51.71875,218.99999904632568 L 46.71875,218.99999904632568" fill="none" stroke="#131300" stroke-width="2"/><path d="M 51.71875,249.1428560529436 L 46.71875,249.1428560529436" fill="none" stroke="#131300" stroke-width="2"/><path d="M 51.71875,279.28571305956154 L 46.71875,279.28571305956154" fill="none" stroke="#131300" stroke-width="2"/><path d="M 51.71875,309.42857006617953 L 46.71875,309.42857006617953" fill="none" stroke="#131300" stroke-width="2"/><path d="M 51.71875,339.5714270727975 L 46.71875,339.5714270727975" fill="none" stroke="#131300" stroke-width="2"/><path d="M 51.71875,369.7142840794155 L 46.71875,369.7142840794155" fill="none" stroke="#131300" stroke-width="2"/><path d="M 51.71875,399.85714108603344 L 46.71875,399.85714108603344" fill="none" stroke="#131300" stroke-width="2"/><path d="M 51.71875,429.99999809265137 L 46.71875,429.99999809265137" fill="none" stroke="#131300" stroke-width="2"/></g></g></g><g class="mermaid-tmp-group"/></svg>