<svg id="upstream_xychart_autoderive_axes_db" width="100%" xmlns="http://www.w3.org/2000/svg" xmlns:xlink="http://www.w3.org/1999/xlink" style="max-width: 700px; background-color: white;" viewBox="0 0 700 500" role="graphics-document document" aria-roledescription="xychart"><style>#upstream_xychart_autoderive_axes_db{font-family:"trebuchet ms",verdana,arial,sans-serif;font-size:16px;fill:#333;}@keyframes edge-animation-frame{from{stroke-dashoffset:0;}}@keyframes dash{to{stroke-dashoffset:0;}}#upstream_xychart_autoderive_axes_db .edge-animation-slow{stroke-dasharray:9,5!important;stroke-dashoffset:900;animation:dash 50s linear infinite;stroke-linecap:round;}#upstream_xychart_autoderive_axes_db .edge-animation-fast{stroke-dasharray:9,5!important;stroke-dashoffset:900;animation:dash 20s linear infinite;stroke-linecap:round;}#upstream_xychart_autoderive_axes_db .error-icon{fill:#552222;}#upstream_xychart_autoderive_axes_db .error-text{fill:#552222;stroke:#552222;}#upstream_xychart_autoderive_axes_db .edge-thickness-normal{stroke-width:1px;}#upstream_xychart_autoderive_axes_db .edge-thickness-thick{stroke-width:3.5px;}#upstream_xychart_autoderive_axes_db .edge-pattern-solid{stroke-dasharray:0;}#upstream_xychart_autoderive_axes_db .edge-thickness-invisible{stroke-width:0;fill:none;}#upstream_xychart_autoderive_axes_db .edge-pattern-dashed{stroke-dasharray:3;}#upstream_xychart_autoderive_axes_db .edge-pattern-dotted{stroke-dasharray:2;}#upstream_xychart_autoderive_axes_db .marker{fill:#333333;stroke:#333333;}#upstream_xychart_autoderive_axes_db .marker.cross{stroke:#333333;}#upstream_xychart_autoderive_axes_db svg{font-family:"trebuchet ms",verdana,arial,sans-serif;font-size:16px;}#upstream_xychart_autoderive_axes_db p{margin:0;}#upstream_xychart_autoderive_axes_db :root{--mermaid-font-family:"trebuchet ms",verdana,arial,sans-serif;}</style><g/><g class="main"><rect width="700" height="500" class="background" fill="white"/><g class="plot"><g class="line-plot-0"><path d="M47.724,459L368.741,233.5L689.759,8" fill="none" stroke="#ECECFF" stroke-width="2"/></g></g><g class="bottom-axis"><g class="axis-line"><path d="M 37.482421875,468 L 700,468" fill="none" stroke="#131300" stroke-width="2"/></g><g class="label"><text x="0" y="0" fill="#131300" font-size="14" dominant-baseline="text-before-edge" text-anchor="middle" transform="translate(47.7236328125, 479) rotate(0)">1</text><text x="0" y="0" fill="#131300" font-size="14" dominant-baseline="text-before-edge" text-anchor="middle" transform="translate(111.9271484375, 479) rotate(0)">1.2</text><text x="0" y="0" fill="#131300" font-size="14" dominant-baseline="text-before-edge" text-anchor="middle" transform="translate(176.1306640625, 479) rotate(0)">1.4</text><text x="0" y="0" fill="#131300" font-size="14" dominant-baseline="text-before-edge" text-anchor="middle" transform="translate(240.3341796875, 479) rotate(0)">1.6</text><text x="0" y="0" fill="#131300" font-size="14" dominant-baseline="text-before-edge" text-anchor="middle" transform="translate(304.53769531250003, 479) rotate(0)">1.8</text><text x="0" y="0" fill="#131300" font-size="14" dominant-baseline="text-before-edge" text-anchor="middle" transform="translate(368.7412109375, 479) rotate(0)">2</text><text x="0" y="0" fill="#131300" font-size="14" dominant-baseline="text-before-edge" text-anchor="middle" transform="translate(432.9447265625, 479) rotate(0)">2.2</text><text x="0" y="0" fill="#131300" font-size="14" dominant-baseline="text-before-edge" text-anchor="middle" transform="translate(497.1482421875, 479) rotate(0)">2.4</text><text x="0" y="0" fill="#131300" font-size="14" dominant-baseline="text-before-edge" text-anchor="middle" transform="translate(561.3517578125001, 479) rotate(0)">2.6</text><text x="0" y="0" fill="#131300" font-size="14" dominant-baseline="text-before-edge" text-anchor="middle" transform="translate(625.5552734375, 479) rotate(0)">2.8</text><text x="0" y="0" fill="#131300" font-size="14" dominant-baseline="text-before-edge" text-anchor="middle" transform="translate(689.7587890625, 479) rotate(0)">3</text></g><g class="ticks"><path d="M 47.7236328125,469 L 47.7236328125,474" fill="none" stroke="#131300" stroke-width="2"/><path d="M 111.9271484375,469 L 111.9271484375,474" fill="none" stroke="#131300" stroke-width="2"/><path d="M 176.1306640625,469 L 176.1306640625,474" fill="none" stroke="#131300" stroke-width="2"/><path d="M 240.3341796875,469 L 240.3341796875,474" fill="none" stroke="#131300" stroke-width="2"/><path d="M 304.53769531250003,469 L 304.53769531250003,474" fill="none" stroke="#131300" stroke-width="2"/><path d="M 368.7412109375,469 L 368.7412109375,474" fill="none" stroke="#131300" stroke-width="2"/><path d="M 432.9447265625,469 L 432.9447265625,474" fill="none" stroke="#131300" stroke-width="2"/><path d="M 497.1482421875,469 L 497.1482421875,474" fill="none" stroke="#131300" stroke-width="2"/><path d="M 561.3517578125001,469 L 561.3517578125001,474" fill="none" stroke="#131300" stroke-width="2"/><path d="M 625.5552734375,469 L 625.5552734375,474" fill="none" stroke="#131300" stroke-width="2"/><path d="M 689.7587890625,469 L 689.7587890625,474" fill="none" stroke="#131300" stroke-width="2"/></g></g><g class="left-axis"><g class="axisl-line"><path d="M 36.482421875,0 L 36.482421875,467" fill="none" stroke="#131300" stroke-width="2"/></g><g class="label"><text x="0" y="0" fill="#131300" font-size="14" dominant-baseline="middle" text-anchor="end" transform="translate(25.482421875, 8) rotate(0)">3</text><text x="0" y="0" fill="#131300" font-size="14" dominant-baseline="middle" text-anchor="end" transform="translate(25.482421875, 53.10000000000004) rotate(0)">2.8</text><text x="0" y="0" fill="#131300" font-size="14" dominant-baseline="middle" text-anchor="end" transform="translate(25.482421875, 98.19999999999999) rotate(0)">2.6</text><text x="0" y="0" fill="#131300" font-size="14" dominant-baseline="middle" text-anchor="end" transform="translate(25.482421875, 143.3) rotate(0)">2.4</text><text x="0" y="0" fill="#131300" font-size="14" dominant-baseline="middle" text-anchor="end" transform="translate(25.482421875, 188.39999999999998) rotate(0)">2.2</text><text x="0" y="0" fill="#131300" font-size="14" dominant-baseline="middle" text-anchor="end" transform="translate(25.482421875, 233.5) rotate(0)">2</text><text x="0" y="0" fill="#131300" font-size="14" dominant-baseline="middle" text-anchor="end" transform="translate(25.482421875, 278.59999999999997) rotate(0)">1.8</text><text x="0" y="0" fill="#131300" font-size="14" dominant-baseline="middle" text-anchor="end" transform="translate(25.482421875, 323.69999999999993) rotate(0)">1.6</text><text x="0" y="0" fill="#131300" font-size="14" dominant-baseline="middle" text-anchor="end" transform="translate(25.482421875, 368.80000000000007) rotate(0)">1.4</text><text x="0" y="0" fill="#131300" font-size="14" dominant-baseline="middle" text-anchor="end" transform="translate(25.482421875, 413.90000000000003) rotate(0)">1.2</text><text x="0" y="0" fill="#131300" font-size="14" dominant-baseline="middle" text-anchor="end" transform="translate(25.482421875, 459) rotate(0)">1</text></g><g class="ticks"><path d="M 35.482421875,8 L 30.482421875,8" fill="none" stroke="#131300" stroke-width="2"/><path d="M 35.482421875,53.10000000000004 L 30.482421875,53.10000000000004" fill="none" stroke="#131300" stroke-width="2"/><path d="M 35.482421875,98.19999999999999 L 30.482421875,98.19999999999999" fill="none" stroke="#131300" stroke-width="2"/><path d="M 35.482421875,143.3 L 30.482421875,143.3" fill="none" stroke="#131300" stroke-width="2"/><path d="M 35.482421875,188.39999999999998 L 30.482421875,188.39999999999998" fill="none" stroke="#131300" stroke-width="2"/><path d="M 35.482421875,233.5 L 30.482421875,233.5" fill="none" stroke="#131300" stroke-width="2"/><path d="M 35.482421875,278.59999999999997 L 30.482421875,278.59999999999997" fill="none" stroke="#131300" stroke-width="2"/><path d="M 35.482421875,323.69999999999993 L 30.482421875,323.69999999999993" fill="none" stroke="#131300" stroke-width="2"/><path d="M 35.482421875,368.80000000000007 L 30.482421875,368.80000000000007" fill="none" stroke="#131300" stroke-width="2"/><path d="M 35.482421875,413.90000000000003 L 30.482421875,413.90000000000003" fill="none" stroke="#131300" stroke-width="2"/><path d="M 35.482421875,459 L 30.482421875,459" fill="none" stroke="#131300" stroke-width="2"/></g></g></g><g class="mermaid-tmp-group"/></svg>