<svg id="upstream_cypress_xychart_spec_decimals_and_negative_numbers_are_supported_009" width="100%" xmlns="http://www.w3.org/2000/svg" xmlns:xlink="http://www.w3.org/1999/xlink" style="max-width: 700px; background-color: white;" viewBox="0 0 700 500" role="graphics-document document" aria-roledescription="xychart"><style>#upstream_cypress_xychart_spec_decimals_and_negative_numbers_are_supported_009{font-family:"trebuchet ms",verdana,arial,sans-serif;font-size:16px;fill:#333;}@keyframes edge-animation-frame{from{stroke-dashoffset:0;}}@keyframes dash{to{stroke-dashoffset:0;}}#upstream_cypress_xychart_spec_decimals_and_negative_numbers_are_supported_009 .edge-animation-slow{stroke-dasharray:9,5!important;stroke-dashoffset:900;animation:dash 50s linear infinite;stroke-linecap:round;}#upstream_cypress_xychart_spec_decimals_and_negative_numbers_are_supported_009 .edge-animation-fast{stroke-dasharray:9,5!important;stroke-dashoffset:900;animation:dash 20s linear infinite;stroke-linecap:round;}#upstream_cypress_xychart_spec_decimals_and_negative_numbers_are_supported_009 .error-icon{fill:#552222;}#upstream_cypress_xychart_spec_decimals_and_negative_numbers_are_supported_009 .error-text{fill:#552222;stroke:#552222;}#upstream_cypress_xychart_spec_decimals_and_negative_numbers_are_supported_009 .edge-thickness-normal{stroke-width:1px;}#upstream_cypress_xychart_spec_decimals_and_negative_numbers_are_supported_009 .edge-thickness-thick{stroke-width:3.5px;}#upstream_cypress_xychart_spec_decimals_and_negative_numbers_are_supported_009 .edge-pattern-solid{stroke-dasharray:0;}#upstream_cypress_xychart_spec_decimals_and_negative_numbers_are_supported_009 .edge-thickness-invisible{stroke-width:0;fill:none;}#upstream_cypress_xychart_spec_decimals_and_negative_numbers_are_supported_009 .edge-pattern-dashed{stroke-dasharray:3;}#upstream_cypress_xychart_spec_decimals_and_negative_numbers_are_supported_009 .edge-pattern-dotted{stroke-dasharray:2;}#upstream_cypress_xychart_spec_decimals_and_negative_numbers_are_supported_009 .marker{fill:#333333;stroke:#333333;}#upstream_cypress_xychart_spec_decimals_and_negative_numbers_are_supported_009 .marker.cross{stroke:#333333;}#upstream_cypress_xychart_spec_decimals_and_negative_numbers_are_supported_009 svg{font-family:"trebuchet ms",verdana,arial,sans-serif;font-size:16px;}#upstream_cypress_xychart_spec_decimals_and_negative_numbers_are_supported_009 p{margin:0;}#upstream_cypress_xychart_spec_decimals_and_negative_numbers_are_supported_009 :root{--mermaid-font-family:"trebuchet ms",verdana,arial,sans-serif;}</style><g/><g class="main"><rect width="700" height="500" class="background" fill="white"/><g class="plot"><g class="line-plot-0"><path d="M51.883,176.169L264.617,229.678L477.352,92.085L690.086,301.532" fill="none" stroke="#ECECFF" stroke-width="2"/></g></g><g class="bottom-axis"><g class="axis-line"><path d="M 41.96875,468 L 700,468" fill="none" stroke="#131300" stroke-width="2"/></g><g class="label"><text x="0" y="0" fill="#131300" font-size="14" dominant-baseline="text-before-edge" text-anchor="middle" transform="translate(51.8828125, 479) rotate(0)">1</text><text x="0" y="0" fill="#131300" font-size="14" dominant-baseline="text-before-edge" text-anchor="middle" transform="translate(94.42968749999999, 479) rotate(0)">1.2</text><text x="0" y="0" fill="#131300" font-size="14" dominant-baseline="text-before-edge" text-anchor="middle" transform="translate(136.97656249999997, 479) rotate(0)">1.4</text><text x="0" y="0" fill="#131300" font-size="14" dominant-baseline="text-before-edge" text-anchor="middle" transform="translate(179.52343750000003, 479) rotate(0)">1.6</text><text x="0" y="0" fill="#131300" font-size="14" dominant-baseline="text-before-edge" text-anchor="middle" transform="translate(222.0703125, 479) rotate(0)">1.8</text><text x="0" y="0" fill="#131300" font-size="14" dominant-baseline="text-before-edge" text-anchor="middle" transform="translate(264.6171875, 479) rotate(0)">2</text><text x="0" y="0" fill="#131300" font-size="14" dominant-baseline="text-before-edge" text-anchor="middle" transform="translate(307.16406250000006, 479) rotate(0)">2.2</text><text x="0" y="0" fill="#131300" font-size="14" dominant-baseline="text-before-edge" text-anchor="middle" transform="translate(349.7109375, 479) rotate(0)">2.4</text><text x="0" y="0" fill="#131300" font-size="14" dominant-baseline="text-before-edge" text-anchor="middle" transform="translate(392.2578125, 479) rotate(0)">2.6</text><text x="0" y="0" fill="#131300" font-size="14" dominant-baseline="text-before-edge" text-anchor="middle" transform="translate(434.8046875, 479) rotate(0)">2.8</text><text x="0" y="0" fill="#131300" font-size="14" dominant-baseline="text-before-edge" text-anchor="middle" transform="translate(477.35156249999994, 479) rotate(0)">3</text><text x="0" y="0" fill="#131300" font-size="14" dominant-baseline="text-before-edge" text-anchor="middle" transform="translate(519.8984375, 479) rotate(0)">3.2</text><text x="0" y="0" fill="#131300" font-size="14" dominant-baseline="text-before-edge" text-anchor="middle" transform="translate(562.4453124999999, 479) rotate(0)">3.4</text><text x="0" y="0" fill="#131300" font-size="14" dominant-baseline="text-before-edge" text-anchor="middle" transform="translate(604.9921875, 479) rotate(0)">3.6</text><text x="0" y="0" fill="#131300" font-size="14" dominant-baseline="text-before-edge" text-anchor="middle" transform="translate(647.5390625, 479) rotate(0)">3.8</text><text x="0" y="0" fill="#131300" font-size="14" dominant-baseline="text-before-edge" text-anchor="middle" transform="translate(690.0859375, 479) rotate(0)">4</text></g><g class="ticks"><path d="M 51.8828125,469 L 51.8828125,474" fill="none" stroke="#131300" stroke-width="2"/><path d="M 94.42968749999999,469 L 94.42968749999999,474" fill="none" stroke="#131300" stroke-width="2"/><path d="M 136.97656249999997,469 L 136.97656249999997,474" fill="none" stroke="#131300" stroke-width="2"/><path d="M 179.52343750000003,469 L 179.52343750000003,474" fill="none" stroke="#131300" stroke-width="2"/><path d="M 222.0703125,469 L 222.0703125,474" fill="none" stroke="#131300" stroke-width="2"/><path d="M 264.6171875,469 L 264.6171875,474" fill="none" stroke="#131300" stroke-width="2"/><path d="M 307.16406250000006,469 L 307.16406250000006,474" fill="none" stroke="#131300" stroke-width="2"/><path d="M 349.7109375,469 L 349.7109375,474" fill="none" stroke="#131300" stroke-width="2"/><path d="M 392.2578125,469 L 392.2578125,474" fill="none" stroke="#131300" stroke-width="2"/><path d="M 434.8046875,469 L 434.8046875,474" fill="none" stroke="#131300" stroke-width="2"/><path d="M 477.35156249999994,469 L 477.35156249999994,474" fill="none" stroke="#131300" stroke-width="2"/><path d="M 519.8984375,469 L 519.8984375,474" fill="none" stroke="#131300" stroke-width="2"/><path d="M 562.4453124999999,469 L 562.4453124999999,474" fill="none" stroke="#131300" stroke-width="2"/><path d="M 604.9921875,469 L 604.9921875,474" fill="none" stroke="#131300" stroke-width="2"/><path d="M 647.5390625,469 L 647.5390625,474" fill="none" stroke="#131300" stroke-width="2"/><path d="M 690.0859375,469 L 690.0859375,474" fill="none" stroke="#131300" stroke-width="2"/></g></g><g class="left-axis"><g class="axisl-line"><path d="M 40.96875,0 L 40.96875,467" fill="none" stroke="#131300" stroke-width="2"/></g><g class="label"><text x="0" y="0" fill="#131300" font-size="14" dominant-baseline="middle" text-anchor="end" transform="translate(29.96875, 8) rotate(0)">3.5</text><text x="0" y="0" fill="#131300" font-size="14" dominant-baseline="middle" text-anchor="end" transform="translate(29.96875, 46.220338983050844) rotate(0)">3</text><text x="0" y="0" fill="#131300" font-size="14" dominant-baseline="middle" text-anchor="end" transform="translate(29.96875, 84.44067796610169) rotate(0)">2.5</text><text x="0" y="0" fill="#131300" font-size="14" dominant-baseline="middle" text-anchor="end" transform="translate(29.96875, 122.66101694915254) rotate(0)">2</text><text x="0" y="0" fill="#131300" font-size="14" dominant-baseline="middle" text-anchor="end" transform="translate(29.96875, 160.88135593220343) rotate(0)">1.5</text><text x="0" y="0" fill="#131300" font-size="14" dominant-baseline="middle" text-anchor="end" transform="translate(29.96875, 199.10169491525428) rotate(0)">1</text><text x="0" y="0" fill="#131300" font-size="14" dominant-baseline="middle" text-anchor="end" transform="translate(29.96875, 237.32203389830508) rotate(0)">0.5</text><text x="0" y="0" fill="#131300" font-size="14" dominant-baseline="middle" text-anchor="end" transform="translate(29.96875, 275.5423728813559) rotate(0)">0</text><text x="0" y="0" fill="#131300" font-size="14" dominant-baseline="middle" text-anchor="end" transform="translate(29.96875, 313.76271186440675) rotate(0)">-0.5</text><text x="0" y="0" fill="#131300" font-size="14" dominant-baseline="middle" text-anchor="end" transform="translate(29.96875, 351.9830508474576) rotate(0)">-1</text><text x="0" y="0" fill="#131300" font-size="14" dominant-baseline="middle" text-anchor="end" transform="translate(29.96875, 390.20338983050846) rotate(0)">-1.5</text><text x="0" y="0" fill="#131300" font-size="14" dominant-baseline="middle" text-anchor="end" transform="translate(29.96875, 428.4237288135593) rotate(0)">-2</text></g><g class="ticks"><path d="M 39.96875,8 L 34.96875,8" fill="none" stroke="#131300" stroke-width="2"/><path d="M 39.96875,46.220338983050844 L 34.96875,46.220338983050844" fill="none" stroke="#131300" stroke-width="2"/><path d="M 39.96875,84.44067796610169 L 34.96875,84.44067796610169" fill="none" stroke="#131300" stroke-width="2"/><path d="M 39.96875,122.66101694915254 L 34.96875,122.66101694915254" fill="none" stroke="#131300" stroke-width="2"/><path d="M 39.96875,160.88135593220343 L 34.96875,160.88135593220343" fill="none" stroke="#131300" stroke-width="2"/><path d="M 39.96875,199.10169491525428 L 34.96875,199.10169491525428" fill="none" stroke="#131300" stroke-width="2"/><path d="M 39.96875,237.32203389830508 L 34.96875,237.32203389830508" fill="none" stroke="#131300" stroke-width="2"/><path d="M 39.96875,275.5423728813559 L 34.96875,275.5423728813559" fill="none" stroke="#131300" stroke-width="2"/><path d="M 39.96875,313.76271186440675 L 34.96875,313.76271186440675" fill="none" stroke="#131300" stroke-width="2"/><path d="M 39.96875,351.9830508474576 L 34.96875,351.9830508474576" fill="none" stroke="#131300" stroke-width="2"/><path d="M 39.96875,390.20338983050846 L 34.96875,390.20338983050846" fill="none" stroke="#131300" stroke-width="2"/><path d="M 39.96875,428.4237288135593 L 34.96875,428.4237288135593" fill="none" stroke="#131300" stroke-width="2"/></g></g></g><g class="mermaid-tmp-group"/></svg>