<svg id="upstream_cypress_xychart_spec_multiple_plots_can_be_rendered_008" width="100%" xmlns="http://www.w3.org/2000/svg" xmlns:xlink="http://www.w3.org/1999/xlink" style="max-width: 700px; background-color: white;" viewBox="0 0 700 500" role="graphics-document document" aria-roledescription="xychart"><style>#upstream_cypress_xychart_spec_multiple_plots_can_be_rendered_008{font-family:"trebuchet ms",verdana,arial,sans-serif;font-size:16px;fill:#333;}@keyframes edge-animation-frame{from{stroke-dashoffset:0;}}@keyframes dash{to{stroke-dashoffset:0;}}#upstream_cypress_xychart_spec_multiple_plots_can_be_rendered_008 .edge-animation-slow{stroke-dasharray:9,5!important;stroke-dashoffset:900;animation:dash 50s linear infinite;stroke-linecap:round;}#upstream_cypress_xychart_spec_multiple_plots_can_be_rendered_008 .edge-animation-fast{stroke-dasharray:9,5!important;stroke-dashoffset:900;animation:dash 20s linear infinite;stroke-linecap:round;}#upstream_cypress_xychart_spec_multiple_plots_can_be_rendered_008 .error-icon{fill:#552222;}#upstream_cypress_xychart_spec_multiple_plots_can_be_rendered_008 .error-text{fill:#552222;stroke:#552222;}#upstream_cypress_xychart_spec_multiple_plots_can_be_rendered_008 .edge-thickness-normal{stroke-width:1px;}#upstream_cypress_xychart_spec_multiple_plots_can_be_rendered_008 .edge-thickness-thick{stroke-width:3.5px;}#upstream_cypress_xychart_spec_multiple_plots_can_be_rendered_008 .edge-pattern-solid{stroke-dasharray:0;}#upstream_cypress_xychart_spec_multiple_plots_can_be_rendered_008 .edge-thickness-invisible{stroke-width:0;fill:none;}#upstream_cypress_xychart_spec_multiple_plots_can_be_rendered_008 .edge-pattern-dashed{stroke-dasharray:3;}#upstream_cypress_xychart_spec_multiple_plots_can_be_rendered_008 .edge-pattern-dotted{stroke-dasharray:2;}#upstream_cypress_xychart_spec_multiple_plots_can_be_rendered_008 .marker{fill:#333333;stroke:#333333;}#upstream_cypress_xychart_spec_multiple_plots_can_be_rendered_008 .marker.cross{stroke:#333333;}#upstream_cypress_xychart_spec_multiple_plots_can_be_rendered_008 svg{font-family:"trebuchet ms",verdana,arial,sans-serif;font-size:16px;}#upstream_cypress_xychart_spec_multiple_plots_can_be_rendered_008 p{margin:0;}#upstream_cypress_xychart_spec_multiple_plots_can_be_rendered_008 :root{--mermaid-font-family:"trebuchet ms",verdana,arial,sans-serif;}</style><g/><g class="main"><rect width="700" height="500" class="background" fill="white"/><g class="plot"><g class="line-plot-0"><path d="M45.688,368.8L259.125,259.611L472.563,112.442L686,316.579" fill="none" stroke="#ECECFF" stroke-width="2"/></g><g class="line-plot-1"><path d="M45.688,264.358L259.125,326.074L472.563,321.326L686,421.021" fill="none" stroke="#8493A6" stroke-width="2"/></g><g class="bar-plot-2"><rect x="32.3875" y="64.96842105263156" width="26.599999999999998" height="402.0315789473684" fill="#FFC3A0" stroke="#FFC3A0" stroke-width="0"/><rect x="245.825" y="221.63157894736844" width="26.599999999999998" height="245.36842105263156" fill="#FFC3A0" stroke="#FFC3A0" stroke-width="0"/><rect x="459.2625" y="8" width="26.599999999999998" height="459" fill="#FFC3A0" stroke="#FFC3A0" stroke-width="0"/><rect x="672.7" y="74.46315789473685" width="26.599999999999998" height="392.53684210526313" fill="#FFC3A0" stroke="#FFC3A0" stroke-width="0"/></g><g class="line-plot-3"><path d="M45.688,107.695L259.125,60.221L472.563,373.547L686,459" fill="none" stroke="#DCDDE1" stroke-width="2"/></g><g class="line-plot-4"><path d="M45.688,373.547L259.125,340.316L472.563,121.937L686,321.326" fill="none" stroke="#B8E994" stroke-width="2"/></g><g class="bar-plot-5"><rect x="32.3875" y="231.1263157894737" width="26.599999999999998" height="235.8736842105263" fill="#D1A36F" stroke="#D1A36F" stroke-width="0"/><rect x="245.825" y="22.24210526315789" width="26.599999999999998" height="444.7578947368421" fill="#D1A36F" stroke="#D1A36F" stroke-width="0"/><rect x="459.2625" y="311.83157894736837" width="26.599999999999998" height="155.16842105263163" fill="#D1A36F" stroke="#D1A36F" stroke-width="0"/><rect x="672.7" y="430.5157894736842" width="26.599999999999998" height="36.48421052631579" fill="#D1A36F" stroke="#D1A36F" stroke-width="0"/></g></g><g class="bottom-axis"><g class="axis-line"><path d="M 31.6875,468 L 700,468" fill="none" stroke="#131300" stroke-width="2"/></g><g class="label"><text x="0" y="0" fill="#131300" font-size="14" dominant-baseline="text-before-edge" text-anchor="middle" transform="translate(45.6875, 479) rotate(0)">1</text><text x="0" y="0" fill="#131300" font-size="14" dominant-baseline="text-before-edge" text-anchor="middle" transform="translate(88.37499999999999, 479) rotate(0)">1.2</text><text x="0" y="0" fill="#131300" font-size="14" dominant-baseline="text-before-edge" text-anchor="middle" transform="translate(131.06249999999997, 479) rotate(0)">1.4</text><text x="0" y="0" fill="#131300" font-size="14" dominant-baseline="text-before-edge" text-anchor="middle" transform="translate(173.75, 479) rotate(0)">1.6</text><text x="0" y="0" fill="#131300" font-size="14" dominant-baseline="text-before-edge" text-anchor="middle" transform="translate(216.4375, 479) rotate(0)">1.8</text><text x="0" y="0" fill="#131300" font-size="14" dominant-baseline="text-before-edge" text-anchor="middle" transform="translate(259.125, 479) rotate(0)">2</text><text x="0" y="0" fill="#131300" font-size="14" dominant-baseline="text-before-edge" text-anchor="middle" transform="translate(301.8125, 479) rotate(0)">2.2</text><text x="0" y="0" fill="#131300" font-size="14" dominant-baseline="text-before-edge" text-anchor="middle" transform="translate(344.5, 479) rotate(0)">2.4</text><text x="0" y="0" fill="#131300" font-size="14" dominant-baseline="text-before-edge" text-anchor="middle" transform="translate(387.1875, 479) rotate(0)">2.6</text><text x="0" y="0" fill="#131300" font-size="14" dominant-baseline="text-before-edge" text-anchor="middle" transform="translate(429.87499999999994, 479) rotate(0)">2.8</text><text x="0" y="0" fill="#131300" font-size="14" dominant-baseline="text-before-edge" text-anchor="middle" transform="translate(472.5625, 479) rotate(0)">3</text><text x="0" y="0" fill="#131300" font-size="14" dominant-baseline="text-before-edge" text-anchor="middle" transform="translate(515.25, 479) rotate(0)">3.2</text><text x="0" y="0" fill="#131300" font-size="14" dominant-baseline="text-before-edge" text-anchor="middle" transform="translate(557.9375, 479) rotate(0)">3.4</text><text x="0" y="0" fill="#131300" font-size="14" dominant-baseline="text-before-edge" text-anchor="middle" transform="translate(600.625, 479) rotate(0)">3.6</text><text x="0" y="0" fill="#131300" font-size="14" dominant-baseline="text-before-edge" text-anchor="middle" transform="translate(643.3125, 479) rotate(0)">3.8</text><text x="0" y="0" fill="#131300" font-size="14" dominant-baseline="text-before-edge" text-anchor="middle" transform="translate(686, 479) rotate(0)">4</text></g><g class="ticks"><path d="M 45.6875,469 L 45.6875,474" fill="none" stroke="#131300" stroke-width="2"/><path d="M 88.37499999999999,469 L 88.37499999999999,474" fill="none" stroke="#131300" stroke-width="2"/><path d="M 131.06249999999997,469 L 131.06249999999997,474" fill="none" stroke="#131300" stroke-width="2"/><path d="M 173.75,469 L 173.75,474" fill="none" stroke="#131300" stroke-width="2"/><path d="M 216.4375,469 L 216.4375,474" fill="none" stroke="#131300" stroke-width="2"/><path d="M 259.125,469 L 259.125,474" fill="none" stroke="#131300" stroke-width="2"/><path d="M 301.8125,469 L 301.8125,474" fill="none" stroke="#131300" stroke-width="2"/><path d="M 344.5,469 L 344.5,474" fill="none" stroke="#131300" stroke-width="2"/><path d="M 387.1875,469 L 387.1875,474" fill="none" stroke="#131300" stroke-width="2"/><path d="M 429.87499999999994,469 L 429.87499999999994,474" fill="none" stroke="#131300" stroke-width="2"/><path d="M 472.5625,469 L 472.5625,474" fill="none" stroke="#131300" stroke-width="2"/><path d="M 515.25,469 L 515.25,474" fill="none" stroke="#131300" stroke-width="2"/><path d="M 557.9375,469 L 557.9375,474" fill="none" stroke="#131300" stroke-width="2"/><path d="M 600.625,469 L 600.625,474" fill="none" stroke="#131300" stroke-width="2"/><path d="M 643.3125,469 L 643.3125,474" fill="none" stroke="#131300" stroke-width="2"/><path d="M 686,469 L 686,474" fill="none" stroke="#131300" stroke-width="2"/></g></g><g class="left-axis"><g class="axisl-line"><path d="M 30.6875,0 L 30.6875,467" fill="none" stroke="#131300" stroke-width="2"/></g><g class="label"><text x="0" y="0" fill="#131300" font-size="14" dominant-baseline="middle" text-anchor="end" transform="translate(19.6875, 50.72631578947367) rotate(0)">90</text><text x="0" y="0" fill="#131300" font-size="14" dominant-baseline="middle" text-anchor="end" transform="translate(19.6875, 98.19999999999999) rotate(0)">80</text><text x="0" y="0" fill="#131300" font-size="14" dominant-baseline="middle" text-anchor="end" transform="translate(19.6875, 145.6736842105263) rotate(0)">70</text><text x="0" y="0" fill="#131300" font-size="14" dominant-baseline="middle" text-anchor="end" transform="translate(19.6875, 193.14736842105265) rotate(0)">60</text><text x="0" y="0" fill="#131300" font-size="14" dominant-baseline="middle" text-anchor="end" transform="translate(19.6875, 240.62105263157895) rotate(0)">50</text><text x="0" y="0" fill="#131300" font-size="14" dominant-baseline="middle" text-anchor="end" transform="translate(19.6875, 288.09473684210525) rotate(0)">40</text><text x="0" y="0" fill="#131300" font-size="14" dominant-baseline="middle" text-anchor="end" transform="translate(19.6875, 335.5684210526316) rotate(0)">30</text><text x="0" y="0" fill="#131300" font-size="14" dominant-baseline="middle" text-anchor="end" transform="translate(19.6875, 383.0421052631579) rotate(0)">20</text><text x="0" y="0" fill="#131300" font-size="14" dominant-baseline="middle" text-anchor="end" transform="translate(19.6875, 430.5157894736842) rotate(0)">10</text></g><g class="ticks"><path d="M 29.6875,50.72631578947367 L 24.6875,50.72631578947367" fill="none" stroke="#131300" stroke-width="2"/><path d="M 29.6875,98.19999999999999 L 24.6875,98.19999999999999" fill="none" stroke="#131300" stroke-width="2"/><path d="M 29.6875,145.6736842105263 L 24.6875,145.6736842105263" fill="none" stroke="#131300" stroke-width="2"/><path d="M 29.6875,193.14736842105265 L 24.6875,193.14736842105265" fill="none" stroke="#131300" stroke-width="2"/><path d="M 29.6875,240.62105263157895 L 24.6875,240.62105263157895" fill="none" stroke="#131300" stroke-width="2"/><path d="M 29.6875,288.09473684210525 L 24.6875,288.09473684210525" fill="none" stroke="#131300" stroke-width="2"/><path d="M 29.6875,335.5684210526316 L 24.6875,335.5684210526316" fill="none" stroke="#131300" stroke-width="2"/><path d="M 29.6875,383.0421052631579 L 24.6875,383.0421052631579" fill="none" stroke="#131300" stroke-width="2"/><path d="M 29.6875,430.5157894736842 L 24.6875,430.5157894736842" fill="none" stroke="#131300" stroke-width="2"/></g></g></g><g class="mermaid-tmp-group"/></svg>