<svg id="upstream_cypress_xychart_spec_x_axis_title_not_required_007" width="100%" xmlns="http://www.w3.org/2000/svg" xmlns:xlink="http://www.w3.org/1999/xlink" style="max-width: 700px; background-color: white;" viewBox="0 0 700 500" role="graphics-document document" aria-roledescription="xychart"><style>#upstream_cypress_xychart_spec_x_axis_title_not_required_007{font-family:"trebuchet ms",verdana,arial,sans-serif;font-size:16px;fill:#333;}@keyframes edge-animation-frame{from{stroke-dashoffset:0;}}@keyframes dash{to{stroke-dashoffset:0;}}#upstream_cypress_xychart_spec_x_axis_title_not_required_007 .edge-animation-slow{stroke-dasharray:9,5!important;stroke-dashoffset:900;animation:dash 50s linear infinite;stroke-linecap:round;}#upstream_cypress_xychart_spec_x_axis_title_not_required_007 .edge-animation-fast{stroke-dasharray:9,5!important;stroke-dashoffset:900;animation:dash 20s linear infinite;stroke-linecap:round;}#upstream_cypress_xychart_spec_x_axis_title_not_required_007 .error-icon{fill:#552222;}#upstream_cypress_xychart_spec_x_axis_title_not_required_007 .error-text{fill:#552222;stroke:#552222;}#upstream_cypress_xychart_spec_x_axis_title_not_required_007 .edge-thickness-normal{stroke-width:1px;}#upstream_cypress_xychart_spec_x_axis_title_not_required_007 .edge-thickness-thick{stroke-width:3.5px;}#upstream_cypress_xychart_spec_x_axis_title_not_required_007 .edge-pattern-solid{stroke-dasharray:0;}#upstream_cypress_xychart_spec_x_axis_title_not_required_007 .edge-thickness-invisible{stroke-width:0;fill:none;}#upstream_cypress_xychart_spec_x_axis_title_not_required_007 .edge-pattern-dashed{stroke-dasharray:3;}#upstream_cypress_xychart_spec_x_axis_title_not_required_007 .edge-pattern-dotted{stroke-dasharray:2;}#upstream_cypress_xychart_spec_x_axis_title_not_required_007 .marker{fill:#333333;stroke:#333333;}#upstream_cypress_xychart_spec_x_axis_title_not_required_007 .marker.cross{stroke:#333333;}#upstream_cypress_xychart_spec_x_axis_title_not_required_007 svg{font-family:"trebuchet ms",verdana,arial,sans-serif;font-size:16px;}#upstream_cypress_xychart_spec_x_axis_title_not_required_007 p{margin:0;}#upstream_cypress_xychart_spec_x_axis_title_not_required_007 :root{--mermaid-font-family:"trebuchet ms",verdana,arial,sans-serif;}</style><g/><g class="main"><rect width="700" height="500" class="background" fill="white"/><g class="plot"><g class="bar-plot-0"><rect x="54.618750000000006" y="346.25" width="34.199999999999996" height="120.75" fill="#ECECFF" stroke="#ECECFF" stroke-width="0"/><rect x="110.09886363636363" y="308.66666666666674" width="34.199999999999996" height="158.33333333333326" fill="#ECECFF" stroke="#ECECFF" stroke-width="0"/><rect x="165.57897727272726" y="252.29166666666669" width="34.199999999999996" height="214.70833333333331" fill="#ECECFF" stroke="#ECECFF" stroke-width="0"/><rect x="221.0590909090909" y="225.9833333333333" width="34.199999999999996" height="241.0166666666667" fill="#ECECFF" stroke="#ECECFF" stroke-width="0"/><rect x="276.5392045454545" y="177.125" width="34.199999999999996" height="289.875" fill="#ECECFF" stroke="#ECECFF" stroke-width="0"/><rect x="332.01931818181816" y="139.54166666666663" width="34.199999999999996" height="327.45833333333337" fill="#ECECFF" stroke="#ECECFF" stroke-width="0"/><rect x="387.4994318181818" y="8" width="34.199999999999996" height="459" fill="#ECECFF" stroke="#ECECFF" stroke-width="0"/><rect x="442.9795454545454" y="413.90000000000003" width="34.199999999999996" height="53.099999999999966" fill="#ECECFF" stroke="#ECECFF" stroke-width="0"/><rect x="498.459659090909" y="188.40000000000003" width="34.199999999999996" height="278.59999999999997" fill="#ECECFF" stroke="#ECECFF" stroke-width="0"/><rect x="553.9397727272727" y="162.0916666666667" width="34.199999999999996" height="304.9083333333333" fill="#ECECFF" stroke="#ECECFF" stroke-width="0"/><rect x="609.4198863636364" y="406.3833333333333" width="34.199999999999996" height="60.616666666666674" fill="#ECECFF" stroke="#ECECFF" stroke-width="0"/><rect x="664.9" y="308.66666666666674" width="34.199999999999996" height="158.33333333333326" fill="#ECECFF" stroke="#ECECFF" stroke-width="0"/></g><g class="line-plot-1"><path d="M71.719,459L127.199,271.083L182.679,289.875L238.159,188.4L293.639,177.125L349.119,252.292L404.599,120.75L460.08,150.817L515.56,413.9L571.04,214.708L626.52,271.083L682,203.433" fill="none" stroke="#8493A6" stroke-width="2"/></g></g><g class="bottom-axis"><g class="axis-line"><path d="M 53.71875,468 L 700,468" fill="none" stroke="#131300" stroke-width="2"/></g><g class="label"><text x="0" y="0" fill="#131300" font-size="14" dominant-baseline="text-before-edge" text-anchor="middle" transform="translate(71.71875, 479) rotate(0)">jan</text><text x="0" y="0" fill="#131300" font-size="14" dominant-baseline="text-before-edge" text-anchor="middle" transform="translate(127.19886363636363, 479) rotate(0)">feb</text><text x="0" y="0" fill="#131300" font-size="14" dominant-baseline="text-before-edge" text-anchor="middle" transform="translate(182.67897727272725, 479) rotate(0)">mar</text><text x="0" y="0" fill="#131300" font-size="14" dominant-baseline="text-before-edge" text-anchor="middle" transform="translate(238.1590909090909, 479) rotate(0)">apr</text><text x="0" y="0" fill="#131300" font-size="14" dominant-baseline="text-before-edge" text-anchor="middle" transform="translate(293.6392045454545, 479) rotate(0)">may</text><text x="0" y="0" fill="#131300" font-size="14" dominant-baseline="text-before-edge" text-anchor="middle" transform="translate(349.1193181818182, 479) rotate(0)">jun</text><text x="0" y="0" fill="#131300" font-size="14" dominant-baseline="text-before-edge" text-anchor="middle" transform="translate(404.5994318181818, 479) rotate(0)">jul</text><text x="0" y="0" fill="#131300" font-size="14" dominant-baseline="text-before-edge" text-anchor="middle" transform="translate(460.07954545454544, 479) rotate(0)">aug</text><text x="0" y="0" fill="#131300" font-size="14" dominant-baseline="text-before-edge" text-anchor="middle" transform="translate(515.559659090909, 479) rotate(0)">sep</text><text x="0" y="0" fill="#131300" font-size="14" dominant-baseline="text-before-edge" text-anchor="middle" transform="translate(571.0397727272727, 479) rotate(0)">oct</text><text x="0" y="0" fill="#131300" font-size="14" dominant-baseline="text-before-edge" text-anchor="middle" transform="translate(626.5198863636364, 479) rotate(0)">nov</text><text x="0" y="0" fill="#131300" font-size="14" dominant-baseline="text-before-edge" text-anchor="middle" transform="translate(682, 479) rotate(0)">dec</text></g><g class="ticks"><path d="M 71.71875,469 L 71.71875,474" fill="none" stroke="#131300" stroke-width="2"/><path d="M 127.19886363636363,469 L 127.19886363636363,474" fill="none" stroke="#131300" stroke-width="2"/><path d="M 182.67897727272725,469 L 182.67897727272725,474" fill="none" stroke="#131300" stroke-width="2"/><path d="M 238.1590909090909,469 L 238.1590909090909,474" fill="none" stroke="#131300" stroke-width="2"/><path d="M 293.6392045454545,469 L 293.6392045454545,474" fill="none" stroke="#131300" stroke-width="2"/><path d="M 349.1193181818182,469 L 349.1193181818182,474" fill="none" stroke="#131300" stroke-width="2"/><path d="M 404.5994318181818,469 L 404.5994318181818,474" fill="none" stroke="#131300" stroke-width="2"/><path d="M 460.07954545454544,469 L 460.07954545454544,474" fill="none" stroke="#131300" stroke-width="2"/><path d="M 515.559659090909,469 L 515.559659090909,474" fill="none" stroke="#131300" stroke-width="2"/><path d="M 571.0397727272727,469 L 571.0397727272727,474" fill="none" stroke="#131300" stroke-width="2"/><path d="M 626.5198863636364,469 L 626.5198863636364,474" fill="none" stroke="#131300" stroke-width="2"/><path d="M 682,469 L 682,474" fill="none" stroke="#131300" stroke-width="2"/></g></g><g class="left-axis"><g class="axisl-line"><path d="M 52.71875,0 L 52.71875,467" fill="none" stroke="#131300" stroke-width="2"/></g><g class="label"><text x="0" y="0" fill="#131300" font-size="14" dominant-baseline="middle" text-anchor="end" transform="translate(41.71875, 8) rotate(0)">14000</text><text x="0" y="0" fill="#131300" font-size="14" dominant-baseline="middle" text-anchor="end" transform="translate(41.71875, 45.58333333333335) rotate(0)">13000</text><text x="0" y="0" fill="#131300" font-size="14" dominant-baseline="middle" text-anchor="end" transform="translate(41.71875, 83.16666666666666) rotate(0)">12000</text><text x="0" y="0" fill="#131300" font-size="14" dominant-baseline="middle" text-anchor="end" transform="translate(41.71875, 120.75) rotate(0)">11000</text><text x="0" y="0" fill="#131300" font-size="14" dominant-baseline="middle" text-anchor="end" transform="translate(41.71875, 158.33333333333337) rotate(0)">10000</text><text x="0" y="0" fill="#131300" font-size="14" dominant-baseline="middle" text-anchor="end" transform="translate(41.71875, 195.91666666666663) rotate(0)">9000</text><text x="0" y="0" fill="#131300" font-size="14" dominant-baseline="middle" text-anchor="end" transform="translate(41.71875, 233.5) rotate(0)">8000</text><text x="0" y="0" fill="#131300" font-size="14" dominant-baseline="middle" text-anchor="end" transform="translate(41.71875, 271.08333333333326) rotate(0)">7000</text><text x="0" y="0" fill="#131300" font-size="14" dominant-baseline="middle" text-anchor="end" transform="translate(41.71875, 308.66666666666674) rotate(0)">6000</text><text x="0" y="0" fill="#131300" font-size="14" dominant-baseline="middle" text-anchor="end" transform="translate(41.71875, 346.25) rotate(0)">5000</text><text x="0" y="0" fill="#131300" font-size="14" dominant-baseline="middle" text-anchor="end" transform="translate(41.71875, 383.8333333333333) rotate(0)">4000</text><text x="0" y="0" fill="#131300" font-size="14" dominant-baseline="middle" text-anchor="end" transform="translate(41.71875, 421.4166666666667) rotate(0)">3000</text><text x="0" y="0" fill="#131300" font-size="14" dominant-baseline="middle" text-anchor="end" transform="translate(41.71875, 459) rotate(0)">2000</text></g><g class="ticks"><path d="M 51.71875,8 L 46.71875,8" fill="none" stroke="#131300" stroke-width="2"/><path d="M 51.71875,45.58333333333335 L 46.71875,45.58333333333335" fill="none" stroke="#131300" stroke-width="2"/><path d="M 51.71875,83.16666666666666 L 46.71875,83.16666666666666" fill="none" stroke="#131300" stroke-width="2"/><path d="M 51.71875,120.75 L 46.71875,120.75" fill="none" stroke="#131300" stroke-width="2"/><path d="M 51.71875,158.33333333333337 L 46.71875,158.33333333333337" fill="none" stroke="#131300" stroke-width="2"/><path d="M 51.71875,195.91666666666663 L 46.71875,195.91666666666663" fill="none" stroke="#131300" stroke-width="2"/><path d="M 51.71875,233.5 L 46.71875,233.5" fill="none" stroke="#131300" stroke-width="2"/><path d="M 51.71875,271.08333333333326 L 46.71875,271.08333333333326" fill="none" stroke="#131300" stroke-width="2"/><path d="M 51.71875,308.66666666666674 L 46.71875,308.66666666666674" fill="none" stroke="#131300" stroke-width="2"/><path d="M 51.71875,346.25 L 46.71875,346.25" fill="none" stroke="#131300" stroke-width="2"/><path d="M 51.71875,383.8333333333333 L 46.71875,383.8333333333333" fill="none" stroke="#131300" stroke-width="2"/><path d="M 51.71875,421.4166666666667 L 46.71875,421.4166666666667" fill="none" stroke="#131300" stroke-width="2"/><path d="M 51.71875,459 L 46.71875,459" fill="none" stroke="#131300" stroke-width="2"/></g></g></g><g class="mermaid-tmp-group"/></svg>