<svg id="upstream_xychart_autoderive_axes_db" width="100%" xmlns="http://www.w3.org/2000/svg" xmlns:xlink="http://www.w3.org/1999/xlink" style="max-width: 700px; background-color: white;" viewBox="0 0 700 500" role="graphics-document document" aria-roledescription="xychart"><style>#upstream_xychart_autoderive_axes_db{font-family:"trebuchet ms",verdana,arial,sans-serif;font-size:16px;fill:#333;}@keyframes edge-animation-frame{from{stroke-dashoffset:0;}}@keyframes dash{to{stroke-dashoffset:0;}}#upstream_xychart_autoderive_axes_db .edge-animation-slow{stroke-dasharray:9,5!important;stroke-dashoffset:900;animation:dash 50s linear infinite;stroke-linecap:round;}#upstream_xychart_autoderive_axes_db .edge-animation-fast{stroke-dasharray:9,5!important;stroke-dashoffset:900;animation:dash 20s linear infinite;stroke-linecap:round;}#upstream_xychart_autoderive_axes_db .error-icon{fill:#552222;}#upstream_xychart_autoderive_axes_db .error-text{fill:#552222;stroke:#552222;}#upstream_xychart_autoderive_axes_db .edge-thickness-normal{stroke-width:1px;}#upstream_xychart_autoderive_axes_db .edge-thickness-thick{stroke-width:3.5px;}#upstream_xychart_autoderive_axes_db .edge-pattern-solid{stroke-dasharray:0;}#upstream_xychart_autoderive_axes_db .edge-thickness-invisible{stroke-width:0;fill:none;}#upstream_xychart_autoderive_axes_db .edge-pattern-dashed{stroke-dasharray:3;}#upstream_xychart_autoderive_axes_db .edge-pattern-dotted{stroke-dasharray:2;}#upstream_xychart_autoderive_axes_db .marker{fill:#333333;stroke:#333333;}#upstream_xychart_autoderive_axes_db .marker.cross{stroke:#333333;}#upstream_xychart_autoderive_axes_db svg{font-family:"trebuchet ms",verdana,arial,sans-serif;font-size:16px;}#upstream_xychart_autoderive_axes_db p{margin:0;}#upstream_xychart_autoderive_axes_db :root{--mermaid-font-family:"trebuchet ms",verdana,arial,sans-serif;}</style><g/><g class="main"><rect width="700" height="500" class="background" fill="white"/><g class="plot"><g class="line-plot-0"><path d="M46.742,459L368.414,233.5L690.086,8" fill="none" stroke="#ECECFF" stroke-width="2"/></g></g><g class="bottom-axis"><g class="axis-line"><path d="M 36.828125,468 L 700,468" fill="none" stroke="#131300" stroke-width="2"/></g><g class="label"><text x="0" y="0" fill="#131300" font-size="14" dominant-baseline="text-before-edge" text-anchor="middle" transform="translate(46.7421875, 479) rotate(0)">1</text><text x="0" y="0" fill="#131300" font-size="14" dominant-baseline="text-before-edge" text-anchor="middle" transform="translate(111.0765625, 479) rotate(0)">1.2</text><text x="0" y="0" fill="#131300" font-size="14" dominant-baseline="text-before-edge" text-anchor="middle" transform="translate(175.4109375, 479) rotate(0)">1.4</text><text x="0" y="0" fill="#131300" font-size="14" dominant-baseline="text-before-edge" text-anchor="middle" transform="translate(239.7453125, 479) rotate(0)">1.6</text><text x="0" y="0" fill="#131300" font-size="14" dominant-baseline="text-before-edge" text-anchor="middle" transform="translate(304.07968750000003, 479) rotate(0)">1.8</text><text x="0" y="0" fill="#131300" font-size="14" dominant-baseline="text-before-edge" text-anchor="middle" transform="translate(368.4140625, 479) rotate(0)">2</text><text x="0" y="0" fill="#131300" font-size="14" dominant-baseline="text-before-edge" text-anchor="middle" transform="translate(432.7484375, 479) rotate(0)">2.2</text><text x="0" y="0" fill="#131300" font-size="14" dominant-baseline="text-before-edge" text-anchor="middle" transform="translate(497.0828125, 479) rotate(0)">2.4</text><text x="0" y="0" fill="#131300" font-size="14" dominant-baseline="text-before-edge" text-anchor="middle" transform="translate(561.4171875000001, 479) rotate(0)">2.6</text><text x="0" y="0" fill="#131300" font-size="14" dominant-baseline="text-before-edge" text-anchor="middle" transform="translate(625.7515625, 479) rotate(0)">2.8</text><text x="0" y="0" fill="#131300" font-size="14" dominant-baseline="text-before-edge" text-anchor="middle" transform="translate(690.0859375, 479) rotate(0)">3</text></g><g class="ticks"><path d="M 46.7421875,469 L 46.7421875,474" fill="none" stroke="#131300" stroke-width="2"/><path d="M 111.0765625,469 L 111.0765625,474" fill="none" stroke="#131300" stroke-width="2"/><path d="M 175.4109375,469 L 175.4109375,474" fill="none" stroke="#131300" stroke-width="2"/><path d="M 239.7453125,469 L 239.7453125,474" fill="none" stroke="#131300" stroke-width="2"/><path d="M 304.07968750000003,469 L 304.07968750000003,474" fill="none" stroke="#131300" stroke-width="2"/><path d="M 368.4140625,469 L 368.4140625,474" fill="none" stroke="#131300" stroke-width="2"/><path d="M 432.7484375,469 L 432.7484375,474" fill="none" stroke="#131300" stroke-width="2"/><path d="M 497.0828125,469 L 497.0828125,474" fill="none" stroke="#131300" stroke-width="2"/><path d="M 561.4171875000001,469 L 561.4171875000001,474" fill="none" stroke="#131300" stroke-width="2"/><path d="M 625.7515625,469 L 625.7515625,474" fill="none" stroke="#131300" stroke-width="2"/><path d="M 690.0859375,469 L 690.0859375,474" fill="none" stroke="#131300" stroke-width="2"/></g></g><g class="left-axis"><g class="axisl-line"><path d="M 35.828125,0 L 35.828125,467" fill="none" stroke="#131300" stroke-width="2"/></g><g class="label"><text x="0" y="0" fill="#131300" font-size="14" dominant-baseline="middle" text-anchor="end" transform="translate(24.828125, 8) rotate(0)">3</text><text x="0" y="0" fill="#131300" font-size="14" dominant-baseline="middle" text-anchor="end" transform="translate(24.828125, 53.10000000000004) rotate(0)">2.8</text><text x="0" y="0" fill="#131300" font-size="14" dominant-baseline="middle" text-anchor="end" transform="translate(24.828125, 98.19999999999999) rotate(0)">2.6</text><text x="0" y="0" fill="#131300" font-size="14" dominant-baseline="middle" text-anchor="end" transform="translate(24.828125, 143.3) rotate(0)">2.4</text><text x="0" y="0" fill="#131300" font-size="14" dominant-baseline="middle" text-anchor="end" transform="translate(24.828125, 188.39999999999998) rotate(0)">2.2</text><text x="0" y="0" fill="#131300" font-size="14" dominant-baseline="middle" text-anchor="end" transform="translate(24.828125, 233.5) rotate(0)">2</text><text x="0" y="0" fill="#131300" font-size="14" dominant-baseline="middle" text-anchor="end" transform="translate(24.828125, 278.59999999999997) rotate(0)">1.8</text><text x="0" y="0" fill="#131300" font-size="14" dominant-baseline="middle" text-anchor="end" transform="translate(24.828125, 323.69999999999993) rotate(0)">1.6</text><text x="0" y="0" fill="#131300" font-size="14" dominant-baseline="middle" text-anchor="end" transform="translate(24.828125, 368.80000000000007) rotate(0)">1.4</text><text x="0" y="0" fill="#131300" font-size="14" dominant-baseline="middle" text-anchor="end" transform="translate(24.828125, 413.90000000000003) rotate(0)">1.2</text><text x="0" y="0" fill="#131300" font-size="14" dominant-baseline="middle" text-anchor="end" transform="translate(24.828125, 459) rotate(0)">1</text></g><g class="ticks"><path d="M 34.828125,8 L 29.828125,8" fill="none" stroke="#131300" stroke-width="2"/><path d="M 34.828125,53.10000000000004 L 29.828125,53.10000000000004" fill="none" stroke="#131300" stroke-width="2"/><path d="M 34.828125,98.19999999999999 L 29.828125,98.19999999999999" fill="none" stroke="#131300" stroke-width="2"/><path d="M 34.828125,143.3 L 29.828125,143.3" fill="none" stroke="#131300" stroke-width="2"/><path d="M 34.828125,188.39999999999998 L 29.828125,188.39999999999998" fill="none" stroke="#131300" stroke-width="2"/><path d="M 34.828125,233.5 L 29.828125,233.5" fill="none" stroke="#131300" stroke-width="2"/><path d="M 34.828125,278.59999999999997 L 29.828125,278.59999999999997" fill="none" stroke="#131300" stroke-width="2"/><path d="M 34.828125,323.69999999999993 L 29.828125,323.69999999999993" fill="none" stroke="#131300" stroke-width="2"/><path d="M 34.828125,368.80000000000007 L 29.828125,368.80000000000007" fill="none" stroke="#131300" stroke-width="2"/><path d="M 34.828125,413.90000000000003 L 29.828125,413.90000000000003" fill="none" stroke="#131300" stroke-width="2"/><path d="M 34.828125,459 L 29.828125,459" fill="none" stroke="#131300" stroke-width="2"/></g></g></g><g class="mermaid-tmp-group"/></svg>