<svg id="upstream_cypress_xychart_spec_render_with_show_axis_title_false_014" width="100%" xmlns="http://www.w3.org/2000/svg" xmlns:xlink="http://www.w3.org/1999/xlink" style="max-width: 700px; background-color: white;" viewBox="0 0 700 500" role="graphics-document document" aria-roledescription="xychart"><style>#upstream_cypress_xychart_spec_render_with_show_axis_title_false_014{font-family:"trebuchet ms",verdana,arial,sans-serif;font-size:16px;fill:#333;}@keyframes edge-animation-frame{from{stroke-dashoffset:0;}}@keyframes dash{to{stroke-dashoffset:0;}}#upstream_cypress_xychart_spec_render_with_show_axis_title_false_014 .edge-animation-slow{stroke-dasharray:9,5!important;stroke-dashoffset:900;animation:dash 50s linear infinite;stroke-linecap:round;}#upstream_cypress_xychart_spec_render_with_show_axis_title_false_014 .edge-animation-fast{stroke-dasharray:9,5!important;stroke-dashoffset:900;animation:dash 20s linear infinite;stroke-linecap:round;}#upstream_cypress_xychart_spec_render_with_show_axis_title_false_014 .error-icon{fill:#552222;}#upstream_cypress_xychart_spec_render_with_show_axis_title_false_014 .error-text{fill:#552222;stroke:#552222;}#upstream_cypress_xychart_spec_render_with_show_axis_title_false_014 .edge-thickness-normal{stroke-width:1px;}#upstream_cypress_xychart_spec_render_with_show_axis_title_false_014 .edge-thickness-thick{stroke-width:3.5px;}#upstream_cypress_xychart_spec_render_with_show_axis_title_false_014 .edge-pattern-solid{stroke-dasharray:0;}#upstream_cypress_xychart_spec_render_with_show_axis_title_false_014 .edge-thickness-invisible{stroke-width:0;fill:none;}#upstream_cypress_xychart_spec_render_with_show_axis_title_false_014 .edge-pattern-dashed{stroke-dasharray:3;}#upstream_cypress_xychart_spec_render_with_show_axis_title_false_014 .edge-pattern-dotted{stroke-dasharray:2;}#upstream_cypress_xychart_spec_render_with_show_axis_title_false_014 .marker{fill:#333333;stroke:#333333;}#upstream_cypress_xychart_spec_render_with_show_axis_title_false_014 .marker.cross{stroke:#333333;}#upstream_cypress_xychart_spec_render_with_show_axis_title_false_014 svg{font-family:"trebuchet ms",verdana,arial,sans-serif;font-size:16px;}#upstream_cypress_xychart_spec_render_with_show_axis_title_false_014 p{margin:0;}#upstream_cypress_xychart_spec_render_with_show_axis_title_false_014 :root{--mermaid-font-family:"trebuchet ms",verdana,arial,sans-serif;}</style><g/><g class="main"><rect width="700" height="500" class="background" fill="white"/><g class="chart-title"><text x="0" y="0" fill="#131300" font-size="20" dominant-baseline="middle" text-anchor="middle" transform="translate(350, 21.5) rotate(0)">Sales Revenue</text></g><g class="plot"><g class="bar-plot-0"><rect x="54.618750000000006" y="400.7142857142857" width="34.199999999999996" height="66.28571428571428" fill="#ECECFF" stroke="#ECECFF" stroke-width="0"/><rect x="110.09886363636363" y="342.42857142857144" width="34.199999999999996" height="124.57142857142856" fill="#ECECFF" stroke="#ECECFF" stroke-width="0"/><rect x="165.57897727272726" y="255" width="34.199999999999996" height="212" fill="#ECECFF" stroke="#ECECFF" stroke-width="0"/><rect x="221.0590909090909" y="214.20000000000002" width="34.199999999999996" height="252.79999999999998" fill="#ECECFF" stroke="#ECECFF" stroke-width="0"/><rect x="276.5392045454545" y="138.42857142857144" width="34.199999999999996" height="328.57142857142856" fill="#ECECFF" stroke="#ECECFF" stroke-width="0"/><rect x="332.01931818181816" y="80.14285714285714" width="34.199999999999996" height="386.8571428571429" fill="#ECECFF" stroke="#ECECFF" stroke-width="0"/><rect x="387.4994318181818" y="51" width="34.199999999999996" height="416" fill="#ECECFF" stroke="#ECECFF" stroke-width="0"/><rect x="442.9795454545454" y="97.62857142857145" width="34.199999999999996" height="369.37142857142857" fill="#ECECFF" stroke="#ECECFF" stroke-width="0"/><rect x="498.459659090909" y="155.9142857142857" width="34.199999999999996" height="311.0857142857143" fill="#ECECFF" stroke="#ECECFF" stroke-width="0"/><rect x="553.9397727272727" y="196.7142857142857" width="34.199999999999996" height="270.28571428571433" fill="#ECECFF" stroke="#ECECFF" stroke-width="0"/><rect x="609.4198863636364" y="284.1428571428571" width="34.199999999999996" height="182.8571428571429" fill="#ECECFF" stroke="#ECECFF" stroke-width="0"/><rect x="664.9" y="342.42857142857144" width="34.199999999999996" height="124.57142857142856" fill="#ECECFF" stroke="#ECECFF" stroke-width="0"/></g><g class="line-plot-1"><path d="M71.719,400.714L127.199,342.429L182.679,255L238.159,214.2L293.639,138.429L349.119,80.143L404.599,51L460.08,97.629L515.56,155.914L571.04,196.714L626.52,284.143L682,342.429" fill="none" stroke="#8493A6" stroke-width="2"/></g></g><g class="bottom-axis"><g class="axis-line"><path d="M 53.71875,468 L 700,468" fill="none" stroke="#131300" stroke-width="2"/></g><g class="label"><text x="0" y="0" fill="#131300" font-size="14" dominant-baseline="text-before-edge" text-anchor="middle" transform="translate(71.71875, 479) rotate(0)">jan</text><text x="0" y="0" fill="#131300" font-size="14" dominant-baseline="text-before-edge" text-anchor="middle" transform="translate(127.19886363636363, 479) rotate(0)">feb</text><text x="0" y="0" fill="#131300" font-size="14" dominant-baseline="text-before-edge" text-anchor="middle" transform="translate(182.67897727272725, 479) rotate(0)">mar</text><text x="0" y="0" fill="#131300" font-size="14" dominant-baseline="text-before-edge" text-anchor="middle" transform="translate(238.1590909090909, 479) rotate(0)">apr</text><text x="0" y="0" fill="#131300" font-size="14" dominant-baseline="text-before-edge" text-anchor="middle" transform="translate(293.6392045454545, 479) rotate(0)">may</text><text x="0" y="0" fill="#131300" font-size="14" dominant-baseline="text-before-edge" text-anchor="middle" transform="translate(349.1193181818182, 479) rotate(0)">jun</text><text x="0" y="0" fill="#131300" font-size="14" dominant-baseline="text-before-edge" text-anchor="middle" transform="translate(404.5994318181818, 479) rotate(0)">jul</text><text x="0" y="0" fill="#131300" font-size="14" dominant-baseline="text-before-edge" text-anchor="middle" transform="translate(460.07954545454544, 479) rotate(0)">aug</text><text x="0" y="0" fill="#131300" font-size="14" dominant-baseline="text-before-edge" text-anchor="middle" transform="translate(515.559659090909, 479) rotate(0)">sep</text><text x="0" y="0" fill="#131300" font-size="14" dominant-baseline="text-before-edge" text-anchor="middle" transform="translate(571.0397727272727, 479) rotate(0)">oct</text><text x="0" y="0" fill="#131300" font-size="14" dominant-baseline="text-before-edge" text-anchor="middle" transform="translate(626.5198863636364, 479) rotate(0)">nov</text><text x="0" y="0" fill="#131300" font-size="14" dominant-baseline="text-before-edge" text-anchor="middle" transform="translate(682, 479) rotate(0)">dec</text></g><g class="ticks"><path d="M 71.71875,469 L 71.71875,474" fill="none" stroke="#131300" stroke-width="2"/><path d="M 127.19886363636363,469 L 127.19886363636363,474" fill="none" stroke="#131300" stroke-width="2"/><path d="M 182.67897727272725,469 L 182.67897727272725,474" fill="none" stroke="#131300" stroke-width="2"/><path d="M 238.1590909090909,469 L 238.1590909090909,474" fill="none" stroke="#131300" stroke-width="2"/><path d="M 293.6392045454545,469 L 293.6392045454545,474" fill="none" stroke="#131300" stroke-width="2"/><path d="M 349.1193181818182,469 L 349.1193181818182,474" fill="none" stroke="#131300" stroke-width="2"/><path d="M 404.5994318181818,469 L 404.5994318181818,474" fill="none" stroke="#131300" stroke-width="2"/><path d="M 460.07954545454544,469 L 460.07954545454544,474" fill="none" stroke="#131300" stroke-width="2"/><path d="M 515.559659090909,469 L 515.559659090909,474" fill="none" stroke="#131300" stroke-width="2"/><path d="M 571.0397727272727,469 L 571.0397727272727,474" fill="none" stroke="#131300" stroke-width="2"/><path d="M 626.5198863636364,469 L 626.5198863636364,474" fill="none" stroke="#131300" stroke-width="2"/><path d="M 682,469 L 682,474" fill="none" stroke="#131300" stroke-width="2"/></g></g><g class="left-axis"><g class="axisl-line"><path d="M 52.71875,43 L 52.71875,467" fill="none" stroke="#131300" stroke-width="2"/></g><g class="label"><text x="0" y="0" fill="#131300" font-size="14" dominant-baseline="middle" text-anchor="end" transform="translate(41.71875, 51) rotate(0)">11000</text><text x="0" y="0" fill="#131300" font-size="14" dominant-baseline="middle" text-anchor="end" transform="translate(41.71875, 80.14285714285714) rotate(0)">10500</text><text x="0" y="0" fill="#131300" font-size="14" dominant-baseline="middle" text-anchor="end" transform="translate(41.71875, 109.2857142857143) rotate(0)">10000</text><text x="0" y="0" fill="#131300" font-size="14" dominant-baseline="middle" text-anchor="end" transform="translate(41.71875, 138.42857142857144) rotate(0)">9500</text><text x="0" y="0" fill="#131300" font-size="14" dominant-baseline="middle" text-anchor="end" transform="translate(41.71875, 167.57142857142856) rotate(0)">9000</text><text x="0" y="0" fill="#131300" font-size="14" dominant-baseline="middle" text-anchor="end" transform="translate(41.71875, 196.7142857142857) rotate(0)">8500</text><text x="0" y="0" fill="#131300" font-size="14" dominant-baseline="middle" text-anchor="end" transform="translate(41.71875, 225.85714285714286) rotate(0)">8000</text><text x="0" y="0" fill="#131300" font-size="14" dominant-baseline="middle" text-anchor="end" transform="translate(41.71875, 255) rotate(0)">7500</text><text x="0" y="0" fill="#131300" font-size="14" dominant-baseline="middle" text-anchor="end" transform="translate(41.71875, 284.1428571428571) rotate(0)">7000</text><text x="0" y="0" fill="#131300" font-size="14" dominant-baseline="middle" text-anchor="end" transform="translate(41.71875, 313.2857142857143) rotate(0)">6500</text><text x="0" y="0" fill="#131300" font-size="14" dominant-baseline="middle" text-anchor="end" transform="translate(41.71875, 342.42857142857144) rotate(0)">6000</text><text x="0" y="0" fill="#131300" font-size="14" dominant-baseline="middle" text-anchor="end" transform="translate(41.71875, 371.57142857142856) rotate(0)">5500</text><text x="0" y="0" fill="#131300" font-size="14" dominant-baseline="middle" text-anchor="end" transform="translate(41.71875, 400.7142857142857) rotate(0)">5000</text><text x="0" y="0" fill="#131300" font-size="14" dominant-baseline="middle" text-anchor="end" transform="translate(41.71875, 429.8571428571429) rotate(0)">4500</text><text x="0" y="0" fill="#131300" font-size="14" dominant-baseline="middle" text-anchor="end" transform="translate(41.71875, 459) rotate(0)">4000</text></g><g class="ticks"><path d="M 51.71875,51 L 46.71875,51" fill="none" stroke="#131300" stroke-width="2"/><path d="M 51.71875,80.14285714285714 L 46.71875,80.14285714285714" fill="none" stroke="#131300" stroke-width="2"/><path d="M 51.71875,109.2857142857143 L 46.71875,109.2857142857143" fill="none" stroke="#131300" stroke-width="2"/><path d="M 51.71875,138.42857142857144 L 46.71875,138.42857142857144" fill="none" stroke="#131300" stroke-width="2"/><path d="M 51.71875,167.57142857142856 L 46.71875,167.57142857142856" fill="none" stroke="#131300" stroke-width="2"/><path d="M 51.71875,196.7142857142857 L 46.71875,196.7142857142857" fill="none" stroke="#131300" stroke-width="2"/><path d="M 51.71875,225.85714285714286 L 46.71875,225.85714285714286" fill="none" stroke="#131300" stroke-width="2"/><path d="M 51.71875,255 L 46.71875,255" fill="none" stroke="#131300" stroke-width="2"/><path d="M 51.71875,284.1428571428571 L 46.71875,284.1428571428571" fill="none" stroke="#131300" stroke-width="2"/><path d="M 51.71875,313.2857142857143 L 46.71875,313.2857142857143" fill="none" stroke="#131300" stroke-width="2"/><path d="M 51.71875,342.42857142857144 L 46.71875,342.42857142857144" fill="none" stroke="#131300" stroke-width="2"/><path d="M 51.71875,371.57142857142856 L 46.71875,371.57142857142856" fill="none" stroke="#131300" stroke-width="2"/><path d="M 51.71875,400.7142857142857 L 46.71875,400.7142857142857" fill="none" stroke="#131300" stroke-width="2"/><path d="M 51.71875,429.8571428571429 L 46.71875,429.8571428571429" fill="none" stroke="#131300" stroke-width="2"/><path d="M 51.71875,459 L 46.71875,459" fill="none" stroke="#131300" stroke-width="2"/></g></g></g><g class="mermaid-tmp-group"/></svg>