<svg id="zed_pr_57644_xychart" width="100%" xmlns="http://www.w3.org/2000/svg" xmlns:xlink="http://www.w3.org/1999/xlink" style="max-width: 700px; background-color: white;" viewBox="0 0 700 500" role="graphics-document document" aria-roledescription="xychart"><style>#zed_pr_57644_xychart{font-family:"trebuchet ms",verdana,arial,sans-serif;font-size:16px;fill:#333;}@keyframes edge-animation-frame{from{stroke-dashoffset:0;}}@keyframes dash{to{stroke-dashoffset:0;}}#zed_pr_57644_xychart .edge-animation-slow{stroke-dasharray:9,5!important;stroke-dashoffset:900;animation:dash 50s linear infinite;stroke-linecap:round;}#zed_pr_57644_xychart .edge-animation-fast{stroke-dasharray:9,5!important;stroke-dashoffset:900;animation:dash 20s linear infinite;stroke-linecap:round;}#zed_pr_57644_xychart .error-icon{fill:#552222;}#zed_pr_57644_xychart .error-text{fill:#552222;stroke:#552222;}#zed_pr_57644_xychart .edge-thickness-normal{stroke-width:1px;}#zed_pr_57644_xychart .edge-thickness-thick{stroke-width:3.5px;}#zed_pr_57644_xychart .edge-pattern-solid{stroke-dasharray:0;}#zed_pr_57644_xychart .edge-thickness-invisible{stroke-width:0;fill:none;}#zed_pr_57644_xychart .edge-pattern-dashed{stroke-dasharray:3;}#zed_pr_57644_xychart .edge-pattern-dotted{stroke-dasharray:2;}#zed_pr_57644_xychart .marker{fill:#333333;stroke:#333333;}#zed_pr_57644_xychart .marker.cross{stroke:#333333;}#zed_pr_57644_xychart svg{font-family:"trebuchet ms",verdana,arial,sans-serif;font-size:16px;}#zed_pr_57644_xychart p{margin:0;}#zed_pr_57644_xychart .node .neo-node{stroke:#9370DB;}#zed_pr_57644_xychart [data-look="neo"].node rect,#zed_pr_57644_xychart [data-look="neo"].cluster rect,#zed_pr_57644_xychart [data-look="neo"].node polygon{stroke:#9370DB;filter:drop-shadow(1px 2px 2px rgba(185, 185, 185, 1));}#zed_pr_57644_xychart [data-look="neo"].swimlane.cluster rect{filter:none;}#zed_pr_57644_xychart [data-look="neo"].node path{stroke:#9370DB;stroke-width:1px;}#zed_pr_57644_xychart [data-look="neo"].node .outer-path{filter:drop-shadow(1px 2px 2px rgba(185, 185, 185, 1));}#zed_pr_57644_xychart [data-look="neo"].node .neo-line path{stroke:#9370DB;filter:none;}#zed_pr_57644_xychart [data-look="neo"].node circle{stroke:#9370DB;filter:drop-shadow(1px 2px 2px rgba(185, 185, 185, 1));}#zed_pr_57644_xychart [data-look="neo"].node circle .state-start{fill:#000000;}#zed_pr_57644_xychart [data-look="neo"].icon-shape .icon{fill:#9370DB;filter:drop-shadow(1px 2px 2px rgba(185, 185, 185, 1));}#zed_pr_57644_xychart [data-look="neo"].icon-shape .icon-neo path{stroke:#9370DB;filter:drop-shadow(1px 2px 2px rgba(185, 185, 185, 1));}#zed_pr_57644_xychart :root{--mermaid-font-family:"trebuchet ms",verdana,arial,sans-serif;}</style><g/><g class="main"><rect width="700" height="500" class="background" fill="white"/><g class="chart-title"><text x="0" y="0" fill="#131300" font-size="20" dominant-baseline="middle" text-anchor="middle" transform="translate(350, 21.5) rotate(0)">Monthly Active Users (thousands)</text></g><g class="plot"><g class="bar-plot-0"><rect x="69.53359565734863" y="418.20000000000005" width="32.3" height="48.799999999999955" fill="#ECECFF" stroke="#ECECFF" stroke-width="0"/><rect x="123.83508696122604" y="397.79999999999995" width="32.3" height="69.20000000000005" fill="#ECECFF" stroke="#ECECFF" stroke-width="0"/><rect x="178.13657826510342" y="360.4" width="32.3" height="106.60000000000002" fill="#ECECFF" stroke="#ECECFF" stroke-width="0"/><rect x="232.4380695689808" y="339.99999999999994" width="32.3" height="127.00000000000006" fill="#ECECFF" stroke="#ECECFF" stroke-width="0"/><rect x="286.73956087285825" y="295.79999999999995" width="32.3" height="171.20000000000005" fill="#ECECFF" stroke="#ECECFF" stroke-width="0"/><rect x="341.04105217673566" y="248.19999999999996" width="32.3" height="218.80000000000004" fill="#ECECFF" stroke="#ECECFF" stroke-width="0"/><rect x="395.342543480613" y="272" width="32.3" height="195" fill="#ECECFF" stroke="#ECECFF" stroke-width="0"/><rect x="449.64403478449043" y="217.6" width="32.3" height="249.4" fill="#ECECFF" stroke="#ECECFF" stroke-width="0"/><rect x="503.94552608836784" y="176.8" width="32.3" height="290.2" fill="#ECECFF" stroke="#ECECFF" stroke-width="0"/><rect x="558.2470173922453" y="139.4" width="32.3" height="327.6" fill="#ECECFF" stroke="#ECECFF" stroke-width="0"/><rect x="612.5485086961227" y="112.20000000000002" width="32.3" height="354.79999999999995" fill="#ECECFF" stroke="#ECECFF" stroke-width="0"/><rect x="666.85" y="67.99999999999999" width="32.3" height="399" fill="#ECECFF" stroke="#ECECFF" stroke-width="0"/></g><g class="line-plot-1"><path d="M85.684,418.2L139.985,397.8L194.287,360.4L248.588,340L302.89,295.8L357.191,248.2L411.493,272L465.794,217.6L520.096,176.8L574.397,139.4L628.699,112.2L683,68" fill="none" stroke="#8493A6" stroke-width="2"/></g></g><g class="bottom-axis"><g class="axis-line"><path d="M 68.68359565734863,468 L 700,468" fill="none" stroke="#131300" stroke-width="2"/></g><g class="label"><text x="0" y="0" fill="#131300" font-size="14" dominant-baseline="text-before-edge" text-anchor="middle" transform="translate(85.68359565734863, 479) rotate(0)">Jan</text><text x="0" y="0" fill="#131300" font-size="14" dominant-baseline="text-before-edge" text-anchor="middle" transform="translate(139.98508696122605, 479) rotate(0)">Feb</text><text x="0" y="0" fill="#131300" font-size="14" dominant-baseline="text-before-edge" text-anchor="middle" transform="translate(194.28657826510343, 479) rotate(0)">Mar</text><text x="0" y="0" fill="#131300" font-size="14" dominant-baseline="text-before-edge" text-anchor="middle" transform="translate(248.5880695689808, 479) rotate(0)">Apr</text><text x="0" y="0" fill="#131300" font-size="14" dominant-baseline="text-before-edge" text-anchor="middle" transform="translate(302.8895608728582, 479) rotate(0)">May</text><text x="0" y="0" fill="#131300" font-size="14" dominant-baseline="text-before-edge" text-anchor="middle" transform="translate(357.19105217673564, 479) rotate(0)">Jun</text><text x="0" y="0" fill="#131300" font-size="14" dominant-baseline="text-before-edge" text-anchor="middle" transform="translate(411.492543480613, 479) rotate(0)">Jul</text><text x="0" y="0" fill="#131300" font-size="14" dominant-baseline="text-before-edge" text-anchor="middle" transform="translate(465.7940347844904, 479) rotate(0)">Aug</text><text x="0" y="0" fill="#131300" font-size="14" dominant-baseline="text-before-edge" text-anchor="middle" transform="translate(520.0955260883678, 479) rotate(0)">Sep</text><text x="0" y="0" fill="#131300" font-size="14" dominant-baseline="text-before-edge" text-anchor="middle" transform="translate(574.3970173922453, 479) rotate(0)">Oct</text><text x="0" y="0" fill="#131300" font-size="14" dominant-baseline="text-before-edge" text-anchor="middle" transform="translate(628.6985086961226, 479) rotate(0)">Nov</text><text x="0" y="0" fill="#131300" font-size="14" dominant-baseline="text-before-edge" text-anchor="middle" transform="translate(683, 479) rotate(0)">Dec</text></g><g class="ticks"><path d="M 85.68359565734863,469 L 85.68359565734863,474" fill="none" stroke="#131300" stroke-width="2"/><path d="M 139.98508696122605,469 L 139.98508696122605,474" fill="none" stroke="#131300" stroke-width="2"/><path d="M 194.28657826510343,469 L 194.28657826510343,474" fill="none" stroke="#131300" stroke-width="2"/><path d="M 248.5880695689808,469 L 248.5880695689808,474" fill="none" stroke="#131300" stroke-width="2"/><path d="M 302.8895608728582,469 L 302.8895608728582,474" fill="none" stroke="#131300" stroke-width="2"/><path d="M 357.19105217673564,469 L 357.19105217673564,474" fill="none" stroke="#131300" stroke-width="2"/><path d="M 411.492543480613,469 L 411.492543480613,474" fill="none" stroke="#131300" stroke-width="2"/><path d="M 465.7940347844904,469 L 465.7940347844904,474" fill="none" stroke="#131300" stroke-width="2"/><path d="M 520.0955260883678,469 L 520.0955260883678,474" fill="none" stroke="#131300" stroke-width="2"/><path d="M 574.3970173922453,469 L 574.3970173922453,474" fill="none" stroke="#131300" stroke-width="2"/><path d="M 628.6985086961226,469 L 628.6985086961226,474" fill="none" stroke="#131300" stroke-width="2"/><path d="M 683,469 L 683,474" fill="none" stroke="#131300" stroke-width="2"/></g></g><g class="left-axis"><g class="axisl-line"><path d="M 67.68359565734863,43 L 67.68359565734863,467" fill="none" stroke="#131300" stroke-width="2"/></g><g class="label"><text x="0" y="0" fill="#131300" font-size="14" dominant-baseline="middle" text-anchor="end" transform="translate(56.68359565734863, 51) rotate(0)">120</text><text x="0" y="0" fill="#131300" font-size="14" dominant-baseline="middle" text-anchor="end" transform="translate(56.68359565734863, 85.00000000000001) rotate(0)">110</text><text x="0" y="0" fill="#131300" font-size="14" dominant-baseline="middle" text-anchor="end" transform="translate(56.68359565734863, 118.99999999999999) rotate(0)">100</text><text x="0" y="0" fill="#131300" font-size="14" dominant-baseline="middle" text-anchor="end" transform="translate(56.68359565734863, 153) rotate(0)">90</text><text x="0" y="0" fill="#131300" font-size="14" dominant-baseline="middle" text-anchor="end" transform="translate(56.68359565734863, 187.00000000000003) rotate(0)">80</text><text x="0" y="0" fill="#131300" font-size="14" dominant-baseline="middle" text-anchor="end" transform="translate(56.68359565734863, 220.99999999999997) rotate(0)">70</text><text x="0" y="0" fill="#131300" font-size="14" dominant-baseline="middle" text-anchor="end" transform="translate(56.68359565734863, 255) rotate(0)">60</text><text x="0" y="0" fill="#131300" font-size="14" dominant-baseline="middle" text-anchor="end" transform="translate(56.68359565734863, 288.99999999999994) rotate(0)">50</text><text x="0" y="0" fill="#131300" font-size="14" dominant-baseline="middle" text-anchor="end" transform="translate(56.68359565734863, 323.00000000000006) rotate(0)">40</text><text x="0" y="0" fill="#131300" font-size="14" dominant-baseline="middle" text-anchor="end" transform="translate(56.68359565734863, 357) rotate(0)">30</text><text x="0" y="0" fill="#131300" font-size="14" dominant-baseline="middle" text-anchor="end" transform="translate(56.68359565734863, 391) rotate(0)">20</text><text x="0" y="0" fill="#131300" font-size="14" dominant-baseline="middle" text-anchor="end" transform="translate(56.68359565734863, 425) rotate(0)">10</text><text x="0" y="0" fill="#131300" font-size="14" dominant-baseline="middle" text-anchor="end" transform="translate(56.68359565734863, 459) rotate(0)">0</text></g><g class="ticks"><path d="M 66.68359565734863,51 L 61.68359565734863,51" fill="none" stroke="#131300" stroke-width="2"/><path d="M 66.68359565734863,85.00000000000001 L 61.68359565734863,85.00000000000001" fill="none" stroke="#131300" stroke-width="2"/><path d="M 66.68359565734863,118.99999999999999 L 61.68359565734863,118.99999999999999" fill="none" stroke="#131300" stroke-width="2"/><path d="M 66.68359565734863,153 L 61.68359565734863,153" fill="none" stroke="#131300" stroke-width="2"/><path d="M 66.68359565734863,187.00000000000003 L 61.68359565734863,187.00000000000003" fill="none" stroke="#131300" stroke-width="2"/><path d="M 66.68359565734863,220.99999999999997 L 61.68359565734863,220.99999999999997" fill="none" stroke="#131300" stroke-width="2"/><path d="M 66.68359565734863,255 L 61.68359565734863,255" fill="none" stroke="#131300" stroke-width="2"/><path d="M 66.68359565734863,288.99999999999994 L 61.68359565734863,288.99999999999994" fill="none" stroke="#131300" stroke-width="2"/><path d="M 66.68359565734863,323.00000000000006 L 61.68359565734863,323.00000000000006" fill="none" stroke="#131300" stroke-width="2"/><path d="M 66.68359565734863,357 L 61.68359565734863,357" fill="none" stroke="#131300" stroke-width="2"/><path d="M 66.68359565734863,391 L 61.68359565734863,391" fill="none" stroke="#131300" stroke-width="2"/><path d="M 66.68359565734863,425 L 61.68359565734863,425" fill="none" stroke="#131300" stroke-width="2"/><path d="M 66.68359565734863,459 L 61.68359565734863,459" fill="none" stroke="#131300" stroke-width="2"/></g><g class="title"><text x="0" y="0" fill="#131300" font-size="16" dominant-baseline="text-before-edge" text-anchor="middle" transform="translate(5, 255) rotate(270)">Users (k)</text></g></g></g><g class="mermaid-tmp-group"/></svg>